<svg width="64" height="64" fill="none" xmlns="http://www.w3.org/2000/svg"><path d="M27 4a1 1 0 000 2h1v1.67l-1.6-.45a15.98 15.98 0 00-8.8 0l-2.87.82a1 1 0 00.55 1.92l2.87-.82c2.52-.72 5.18-.72 7.7 0l2.15.61V14h-2a4 4 0 00-4 4v2.05A11 11 0 0012 31v26a5 5 0 005 5h30a5 5 0 005-5V31a11 11 0 00-10-10.95V18a4 4 0 00-4-4h-2V6h1a1 1 0 000-2H27zm3 2h4v8h-4V6zm-4 10h12a2 2 0 012 2v2H24v-2c0-1.1.9-2 2-2zm-3 6h18c4.96 0 9 4.04 9 9v26a3 3 0 01-3 3H17a3 3 0 01-3-3V38h8.1a5 5 0 009.8 0H39a1 1 0 001-1 1 1 0 00-1-1h-7.1a5 5 0 00-9.8 0H14v-5c0-4.96 4.04-9 9-9zm4 12a3 3 0 010 6 3 3 0 010-6zm16 2a1 1 0 000 2h4a1 1 0 000-2h-4zm-8 6a3 3 0 100 6 3 3 0 000-6zm0 2a1 1 0 110 2 1 1 0 010-2zm-18 8a1 1 0 00-1 1v2a1 1 0 002 0v-2a1 1 0 00-1-1zm5 0a1 1 0 00-1 1v2a1 1 0 002 0v-2a1 1 0 00-1-1zm5 0a1 1 0 00-1 1v2a1 1 0 002 0v-2a1 1 0 00-1-1zm5 0a1 1 0 00-1 1v2a1 1 0 002 0v-2a1 1 0 00-1-1zm5 0a1 1 0 00-1 1v2a1 1 0 002 0v-2a1 1 0 00-1-1zm5 0a1 1 0 00-1 1v2a1 1 0 002 0v-2a1 1 0 00-1-1zm5 0a1 1 0 00-1 1v2a1 1 0 002 0v-2a1 1 0 00-1-1z" fill="#000"/><path d="M43 36a1 1 0 000 2h4a1 1 0 000-2h-4zm-8 6a3 3 0 100 6 3 3 0 000-6zm0 2a1 1 0 110 2 1 1 0 010-2zm-18 8a1 1 0 00-1 1v2a1 1 0 002 0v-2a1 1 0 00-1-1zm5 0a1 1 0 00-1 1v2a1 1 0 002 0v-2a1 1 0 00-1-1zm5 0a1 1 0 00-1 1v2a1 1 0 002 0v-2a1 1 0 00-1-1zm5 0a1 1 0 00-1 1v2a1 1 0 002 0v-2a1 1 0 00-1-1zm5 0a1 1 0 00-1 1v2a1 1 0 002 0v-2a1 1 0 00-1-1zm5 0a1 1 0 00-1 1v2a1 1 0 002 0v-2a1 1 0 00-1-1zm5 0a1 1 0 00-1 1v2a1 1 0 002 0v-2a1 1 0 00-1-1z" fill="#E23936"/></svg>