<svg width="64" height="64" fill="none" xmlns="http://www.w3.org/2000/svg"><path d="M21.14 6a9.01 9.01 0 00-8.7 6.68L10.5 20H5a3 3 0 00-3 3v2a3 3 0 003 3h.47A13.07 13.07 0 004 34v11c0 1.63.8 3.06 2 3.97V54c0 .73.21 1.41.55 2H1a1 1 0 100 2h62a1 1 0 100-2h-5.56c.35-.59.56-1.27.56-2v-5.03c1.2-.9 2-2.34 2-3.97V34c0-2.09-.52-4.16-1.47-6H59a3 3 0 003-3v-2a3 3 0 00-3-3h-5.5l-1.95-7.32A9 9 0 0042.85 6h-21.7zm0 2h21.72a7 7 0 016.76 5.2l2.02 7.56c.3 1.12.8 2.15 1.49 3.08l.6.8-1.75.85a5 5 0 01-2.2.51h-.87a6 6 0 00-11.82 0H14.32c-.77 0-1.53-.18-2.22-.52l-1.8-.89.57-.75a9 9 0 001.5-3.08l2.01-7.56A7 7 0 0121.14 8zm8.78 4a1 1 0 100 2h4.25a1 1 0 100-2h-4.25zM5 22h4.7c-.14.22-.27.43-.43.64L6.75 26H5a1 1 0 01-1-1v-2a1 1 0 011-1zm49.3 0H59a1 1 0 011 1v2a1 1 0 01-1 1h-1.75l-2.52-3.36c-.16-.2-.3-.42-.42-.64zM43 23a4 4 0 013.86 3h-7.72A4 4 0 0143 23zM9.09 26.22l2.13 1.06c.96.47 2.03.72 3.1.72h35.46a7 7 0 003.08-.71l2.09-1.02.85 1.13a11.04 11.04 0 012.05 4.8h-.18l-8.33 1.4A4 4 0 0046 37.53V38c0 1.1.9 2 2 2h10v5a3 3 0 01-3 3H9a3 3 0 01-3-3v-5h10a2 2 0 002-2v-.46a4 4 0 00-3.34-3.95l-8.33-1.38-.18-.01c.3-1.74 1-3.4 2.05-4.8l.89-1.18zM6 34.18l8.33 1.39A2 2 0 0116 37.54V38H6v-3.82zm52 0V38H48v-.46a2 2 0 011.67-1.97L58 34.18zM22 36a1 1 0 00-1 1v2a1 1 0 102 0v-2a1 1 0 00-1-1zm5 0a1 1 0 00-1 1v2a1 1 0 102 0v-2a1 1 0 00-1-1zm5 0a1 1 0 00-1 1v2a1 1 0 102 0v-2a1 1 0 00-1-1zm5 0a1 1 0 00-1 1v2a1 1 0 102 0v-2a1 1 0 00-1-1zm5 0a1 1 0 00-1 1v2a1 1 0 102 0v-2a1 1 0 00-1-1zM8.92 42a1 1 0 100 2h4.25a1 1 0 100-2H8.92zm8 0a1 1 0 100 2h30.25a1 1 0 100-2H16.92zm34 0a1 1 0 100 2h4.25a1 1 0 100-2h-4.25zM8 50h6v4a2 2 0 01-2 2h-2a2 2 0 01-2-2v-4zm8 0h32v4c0 .73.21 1.41.56 2H15.44c.35-.59.56-1.27.56-2v-4zm34 0h6v4a2 2 0 01-2 2h-2a2 2 0 01-2-2v-4z" fill="#000"/><path d="M28.92 13a1 1 0 011-1h4.25a1 1 0 110 2h-4.25a1 1 0 01-1-1zM21 37a1 1 0 112 0v2a1 1 0 11-2 0v-2zM26 37a1 1 0 112 0v2a1 1 0 11-2 0v-2zM31 37a1 1 0 112 0v2a1 1 0 11-2 0v-2zM36 37a1 1 0 112 0v2a1 1 0 11-2 0v-2zM41 37a1 1 0 112 0v2a1 1 0 11-2 0v-2z" fill="#E23936"/></svg>