<svg width="64" height="44" fill="none" xmlns="http://www.w3.org/2000/svg"><g clip-path="url(#clip0)"><path d="M3 0a3 3 0 00-3 3v38a3 3 0 003 3h58a3 3 0 003-3V3a3 3 0 00-3-3H3zm0 2h58a1 1 0 011 1v38a1 1 0 01-1 1H3a1 1 0 01-1-1V3a1 1 0 011-1zm11.5 14.5a1 1 0 000 2h12a1 1 0 000-2h-12zm17 0a1 1 0 000 2h3a1 1 0 000-2h-3zm-17 4a1 1 0 000 2h9a1 1 0 000-2h-9z" fill="#000"/><path d="M14.5 16.5a1 1 0 000 2h12a1 1 0 000-2h-12zm17 0a1 1 0 000 2h3a1 1 0 000-2h-3zm-17 4a1 1 0 000 2h9a1 1 0 000-2h-9z" fill="#E23936"/></g><defs><clipPath id="clip0"><path fill="#fff" d="M0 0h64v44H0z"/></clipPath></defs></svg>