<svg width="60" height="60" fill="none" xmlns="http://www.w3.org/2000/svg"><g clip-path="url(#clip0)"><path d="M30-.09c-.67 0-1.34.22-1.9.67l-4.57 3.7a.98.98 0 01-.78.22l-5.83-.93a3.02 3.02 0 00-3.27 1.9l-2.11 5.5a1 1 0 01-.58.57l-5.5 2.11a3.02 3.02 0 00-1.89 3.27l.93 5.83a1 1 0 01-.21.78L.58 28.11a3.01 3.01 0 000 3.78l3.7 4.58c.18.22.26.5.22.78l-.93 5.83a3.02 3.02 0 001.9 3.27l5.5 2.1a1 1 0 01.57.59l2.11 5.5a3.01 3.01 0 003.27 1.89l5.83-.93a1 1 0 01.78.21l4.58 3.71a3 3 0 003.78 0l4.58-3.7a1 1 0 01.78-.22l5.83.93a3.02 3.02 0 003.27-1.9l2.1-5.5c.11-.26.32-.47.59-.57l5.5-2.11a3.01 3.01 0 001.89-3.27l-.93-5.83a1 1 0 01.21-.78l3.71-4.58c.89-1.1.89-2.68 0-3.78l-3.7-4.58a.99.99 0 01-.22-.78l.93-5.83a3.01 3.01 0 00-1.9-3.27l-5.5-2.11a1 1 0 01-.57-.58l-2.11-5.5a3.02 3.02 0 00-3.27-1.89l-5.83.93a1 1 0 01-.78-.21L31.89.58A3 3 0 0030-.1zm0 2a1 1 0 01.63.22l4.58 3.71c.66.54 1.52.77 2.36.64l5.82-.93a1 1 0 011.09.63l2.11 5.5c.3.8.93 1.42 1.73 1.73l5.5 2.11a1 1 0 01.63 1.09l-.92 5.82c-.14.84.1 1.7.63 2.36l3.7 4.58c.3.36.3.9 0 1.26l-3.7 4.58a3.01 3.01 0 00-.63 2.36l.92 5.82a1 1 0 01-.63 1.09l-5.5 2.11c-.8.3-1.42.93-1.73 1.73l-2.11 5.5a1 1 0 01-1.09.63l-5.82-.92c-.84-.14-1.7.1-2.36.63l-4.58 3.7a1 1 0 01-1.26 0l-4.58-3.7a3.01 3.01 0 00-2.36-.63l-5.82.92a1 1 0 01-1.09-.63l-2.11-5.5c-.3-.8-.93-1.42-1.73-1.73l-5.5-2.11a1 1 0 01-.63-1.09l.93-5.82c.13-.84-.1-1.7-.64-2.36l-3.7-4.58a1 1 0 010-1.26l3.7-4.58a3 3 0 00.64-2.36l-.93-5.82a1 1 0 01.63-1.09l5.5-2.11c.8-.3 1.42-.93 1.73-1.73l2.11-5.5c.17-.44.63-.7 1.09-.63l5.82.92c.84.14 1.7-.1 2.36-.63l4.58-3.7A1 1 0 0130 1.9zM30 9a1 1 0 00-1 1v2a1 1 0 002 0v-2a1 1 0 00-1-1zm-5.04.69a1 1 0 00-1.1 1.25l.52 1.93a1 1 0 001.22.7 1 1 0 00.7-1.21l-.51-1.94a1 1 0 00-.83-.73zm10.08 0a1 1 0 00-.83.73l-.52 1.94a1 1 0 001.94.51l.51-1.93a1 1 0 00-1.1-1.25zm-15.16 2c-.13.01-.26.06-.38.12a1 1 0 00-.36 1.37l1 1.73a1 1 0 101.73-1l-1-1.73a1 1 0 00-1-.5zm20.25 0a1 1 0 00-1 .49l-1 1.73a1 1 0 00.87 1.5 1 1 0 00.86-.5l1-1.73a1 1 0 00-.73-1.5zm-24.27 3.17c-.26 0-.51.1-.7.3a.99.99 0 000 1.4l1.4 1.42a1.01 1.01 0 001.42 0 1 1 0 000-1.42l-1.42-1.4a.98.98 0 00-.7-.3zm28.28 0c-.25 0-.5.1-.7.3l-1.42 1.4a1 1 0 000 1.42 1.02 1.02 0 001.42 0l1.4-1.42c.4-.39.4-1.02 0-1.4a.98.98 0 00-.7-.3zM35.08 18c-.38-.03-.78.17-.97.54l-11 22A1 1 0 0024 42a1 1 0 00.89-.54l11-22a1 1 0 00-.8-1.46zM12.8 19a1 1 0 00-.62 1.86l1.73 1a1 1 0 101-1.73l-1.73-1a.97.97 0 00-.38-.12zm34.4 0a.98.98 0 00-.38.14l-1.73 1a1 1 0 101 1.73l1.73-1A1 1 0 0047.2 19zM23 20a3 3 0 00-3 3v3a3 3 0 003 3h1a3 3 0 003-3v-3a3 3 0 00-3-3h-1zm0 2h1a1 1 0 011 1v3a1 1 0 01-1 1h-1a1 1 0 01-1-1v-3a1 1 0 011-1zm26.45 1.83a.98.98 0 00-.4.03l-1.92.52a1 1 0 00.52 1.93l1.93-.52a1 1 0 00-.13-1.96zm-38.9 0a1 1 0 00-.13 1.96l1.94.52a1 1 0 00.52-1.93l-1.94-.52a.97.97 0 00-.4-.03zM10 29a1 1 0 000 2h2a1 1 0 000-2h-2zm38 0a1 1 0 000 2h2a1 1 0 000-2h-2zm-13 2a3 3 0 00-3 3v3a3 3 0 003 3h1a3 3 0 003-3v-3a3 3 0 00-3-3h-1zm0 2h1a1 1 0 011 1v3a1 1 0 01-1 1h-1a1 1 0 01-1-1v-3a1 1 0 011-1zm-22.25.67a.97.97 0 00-.4.02l-1.93.52a1 1 0 10.52 1.93l1.93-.52a1 1 0 00.7-1.22 1 1 0 00-.82-.73zm34.5 0a1 1 0 00-.13 1.96l1.94.51a1 1 0 10.52-1.93l-1.94-.52a.97.97 0 00-.39-.02zM14.29 38c-.13.02-.26.07-.38.14l-1.73 1a1 1 0 101 1.72l1.73-1a1 1 0 00.37-1.36 1 1 0 00-1-.5zm31.42 0a1 1 0 00-.62 1.86l1.73 1c.16.1.33.14.5.14a1 1 0 00.5-1.86l-1.73-1a1 1 0 00-.38-.13zm-28.44 3.73a1 1 0 00-.7.29l-1.42 1.42a.99.99 0 000 1.4.99.99 0 001.41 0l1.42-1.4a1 1 0 000-1.42 1 1 0 00-.71-.29zm25.46 0a1 1 0 00-.71.29 1 1 0 000 1.42l1.42 1.4a.99.99 0 001.41 0c.4-.38.4-1.01 0-1.4l-1.41-1.42a1 1 0 00-.7-.29zm-3.85 2.86a1 1 0 00-.74 1.5l1 1.73a1 1 0 001.36.37 1 1 0 00.36-1.37l-1-1.73a1 1 0 00-.98-.5zm-17.76 0a1 1 0 00-.98.5l-1 1.73a1 1 0 00.86 1.5 1 1 0 00.86-.5l1-1.73a1 1 0 00-.73-1.5zm13.68 1.8a1 1 0 00-1.1 1.25l.51 1.94a1 1 0 001.23.7 1 1 0 00.7-1.22l-.52-1.93a1 1 0 00-.82-.74zm-9.6 0a1 1 0 00-.82.74l-.52 1.93a1 1 0 101.93.52l.52-1.94a1 1 0 00-1.1-1.25zM30 47a1 1 0 00-1 1v2a1 1 0 002 0v-2a1 1 0 00-1-1z" fill="#000"/><path d="M30 9a1 1 0 00-1 1v2a1 1 0 002 0v-2a1 1 0 00-1-1zm-5.04.69a1 1 0 00-1.1 1.25l.52 1.93a1 1 0 001.22.7 1 1 0 00.7-1.21l-.51-1.94a1 1 0 00-.83-.73zm10.08 0a1 1 0 00-.83.73l-.52 1.94a1 1 0 001.94.51l.51-1.93a1 1 0 00-1.1-1.25zm-15.16 2c-.13.01-.26.06-.38.12a1 1 0 00-.36 1.37l1 1.73a1 1 0 101.73-1l-1-1.73a1 1 0 00-1-.5zm20.25 0a1 1 0 00-1 .49l-1 1.73a1 1 0 00.87 1.5 1 1 0 00.86-.5l1-1.73a1 1 0 00-.73-1.5zm-24.27 3.17c-.26 0-.51.1-.7.3a.99.99 0 000 1.4l1.4 1.42a1.01 1.01 0 001.42 0 1 1 0 000-1.42l-1.42-1.4a.98.98 0 00-.7-.3zm28.28 0c-.25 0-.5.1-.7.3l-1.42 1.4a1 1 0 000 1.42 1.02 1.02 0 001.42 0l1.4-1.42c.4-.39.4-1.02 0-1.4a.98.98 0 00-.7-.3zM12.8 19a1 1 0 00-.62 1.85l1.73 1a1 1 0 101-1.73l-1.73-1a.97.97 0 00-.38-.12zm34.4 0a.98.98 0 00-.38.13l-1.73 1a1 1 0 101 1.73l1.73-1A1 1 0 0047.2 19zm2.25 4.82a.98.98 0 00-.4.03l-1.92.52a1 1 0 00.52 1.93l1.93-.52a1 1 0 00-.13-1.96zm-38.9 0a1 1 0 00-.13 1.96l1.94.52a1 1 0 00.52-1.93l-1.94-.52a.97.97 0 00-.4-.03zM10 29a1 1 0 000 2h2a1 1 0 000-2h-2zm38 0a1 1 0 000 2h2a1 1 0 000-2h-2zm-35.25 4.67a.97.97 0 00-.4.02l-1.93.52a1 1 0 10.52 1.93l1.93-.52a1 1 0 00.7-1.22 1 1 0 00-.82-.73zm34.5 0a1 1 0 00-.13 1.96l1.94.51a1 1 0 10.52-1.93l-1.94-.52a.97.97 0 00-.39-.02zM14.29 38c-.13.02-.26.07-.38.14l-1.73 1a1 1 0 101 1.72l1.73-1a1 1 0 00.37-1.36 1 1 0 00-1-.5zm31.42 0a1 1 0 00-.62 1.86l1.73 1c.16.1.33.14.5.14a1 1 0 00.5-1.86l-1.73-1a1 1 0 00-.38-.13zm-28.44 3.73a1 1 0 00-.7.29l-1.42 1.42a.99.99 0 000 1.4.99.99 0 001.41 0l1.42-1.4a1 1 0 000-1.42 1 1 0 00-.71-.29zm25.46 0a1 1 0 00-.71.29 1 1 0 000 1.42l1.42 1.4a.99.99 0 001.41 0c.4-.38.4-1.01 0-1.4l-1.41-1.42a1 1 0 00-.7-.29zm-3.85 2.86a1 1 0 00-.74 1.5l1 1.73a1 1 0 001.36.37 1 1 0 00.36-1.37l-1-1.73a1 1 0 00-.98-.5zm-17.76 0a1 1 0 00-.98.5l-1 1.73a1 1 0 00.86 1.5 1 1 0 00.86-.5l1-1.73a1 1 0 00-.73-1.5zm13.68 1.8a1 1 0 00-1.1 1.25l.51 1.94a1 1 0 001.23.7 1 1 0 00.7-1.22l-.52-1.93a1 1 0 00-.82-.74zm-9.6 0a1 1 0 00-.82.74l-.52 1.93a1 1 0 101.93.52l.52-1.94a1 1 0 00-1.1-1.25zM30 47a1 1 0 00-1 1v2a1 1 0 002 0v-2a1 1 0 00-1-1z" fill="#E23936"/></g><defs><clipPath id="clip0"><path fill="#fff" d="M0 0h60v60H0z"/></clipPath></defs></svg>