<svg width="73" height="32" fill="none" xmlns="http://www.w3.org/2000/svg"><g clip-path="url(#clip0)" fill="#E23936"><path d="M0 16.82c.28-.1.56-.3.85-.3 2.57-.03 5.15-.02 7.72-.03.39 0 .77.06.78.53.01.46-.35.54-.75.54-2.61-.01-5.23 0-7.84-.02-.26 0-.5-.16-.76-.25v-.47zM58.89 2.25l-.66.46L37 18.28c-.63.45-.86.45-1.48 0L14.44 2.88l-.88-.63v4.47c0 .38-.08.74-.56.74-.44-.01-.5-.36-.5-.72 0-1.34-.02-2.67 0-4 .02-1.6 1.1-2.67 2.74-2.73.78-.02 1.55 0 2.33 0H56.9c1.06 0 2.02.22 2.59 1.15.28.46.47 1.05.48 1.59.05 2.35.02 4.7.02 7.06 0 .37-.01.76-.5.77-.54.01-.57-.4-.57-.79V3.1l-.03-.84zM14.3 1.24v.17l.44.36 21.1 15.46c.32.24.51.2.81-.02l21.2-15.52c.12-.08.22-.2.48-.43-.61-.08-1.05-.18-1.5-.19H15.62c-.44 0-.87.11-1.3.17z"/><path d="M14.46 30.66c.62.28 42.87.3 43.58 0l-.54-.36-15.2-9.73-.34-.22c-.31-.19-.5-.45-.29-.78.23-.37.55-.3.88-.1l4.95 3.17 10.8 6.9c.14.1.3.18.55.33.03-.41.07-.73.07-1.05V15.16c0-.42-.09-1 .53-1 .69-.02.53.6.54 1.02v13.77c0 2-1.02 3-3.05 3H15.7c-.41 0-.84-.01-1.24-.11a2.53 2.53 0 01-1.93-2.4c-.05-1-.04-2 0-3 .01-.21.28-.55.48-.6.37-.08.55.24.56.6v2.47c.01.28.05.57.08.97l.68-.41 15.4-9.85c.15-.1.3-.27.45-.27.25 0 .56.04.7.2.1.09-.02.45-.14.64-.09.15-.31.23-.48.33L15.01 30.3c-.17.1-.33.21-.55.37zM13.16 22.64H9.3c-.17 0-.39.04-.52-.04-.18-.1-.4-.3-.4-.47 0-.17.2-.38.38-.49.13-.08.35-.04.53-.04h8.1c.35.02.69.14.6.53-.05.2-.37.46-.6.49-.54.07-1.1.02-1.66.02h-2.56z"/><path d="M33.65 27.67h-3.57c-.39 0-.76-.05-.75-.53 0-.48.38-.53.76-.53h7.2c.4 0 .77.06.76.54 0 .49-.38.52-.76.51h-3.64zM20.59 17.53h-2.86c-.38 0-.7-.1-.7-.54.01-.44.34-.52.71-.52h5.66c.38 0 .7.1.7.54-.01.44-.34.52-.71.52h-2.8zM16.11 10.93h2.74c.36 0 .66.1.68.49.02.42-.3.56-.68.56h-5.48c-.38 0-.7-.14-.68-.56.02-.39.32-.5.68-.5.91.01 1.83 0 2.74 0zM42.63 27.66c-.53 0-1.07.05-1.6-.02-.23-.03-.55-.26-.6-.46-.1-.39.22-.56.58-.57 1.1 0 2.18-.03 3.27.02.21.01.55.3.58.51.07.37-.25.53-.62.52h-1.6zM13.09 17.54c-.48 0-.96.05-1.42-.02-.2-.03-.38-.3-.56-.47.17-.18.34-.5.52-.52 1-.05 2.01-.05 3.02 0 .17.02.33.35.5.54-.2.16-.37.42-.58.45-.49.07-.99.03-1.48.02zM4.48 22.65c-.46 0-.93.05-1.37-.03-.22-.04-.4-.32-.6-.5.2-.17.39-.48.6-.5.9-.05 1.82-.05 2.73 0 .21.02.4.33.6.5-.2.17-.37.46-.6.5-.44.07-.9.02-1.36.02zM8.88 11.98c-.31 0-.65.07-.94-.03-.22-.07-.37-.34-.56-.53.19-.16.36-.45.56-.47a9.8 9.8 0 011.89 0c.2.02.37.3.56.47-.19.19-.34.46-.57.53-.28.1-.62.03-.94.03z"/></g><defs><clipPath id="clip0"><path fill="#fff" d="M0 0h73v32H0z"/></clipPath></defs></svg>