<svg width="60" height="59" fill="none" xmlns="http://www.w3.org/2000/svg"><path d="M0 38.36c.53-.4.87-.36 1.01.2.71 2.68 2.56 4.29 5 5.36 1.98.87 3.96 1.73 5.92 2.65 1.73.8 3.3 1.83 4.63 3.22a5.85 5.85 0 011.81 4.59c-.01.22-.07.48-.2.64-.1.1-.4.15-.53.07-.14-.09-.26-.32-.28-.51-.06-.52 0-1.06-.11-1.57-.34-1.6-1.43-2.7-2.66-3.66-1.93-1.5-4.2-2.39-6.4-3.38-1.55-.71-3.13-1.4-4.6-2.26A7.64 7.64 0 01.1 39.03c-.02-.07-.07-.13-.11-.2v-.47z" fill="#000"/><path d="M55.54 17.35v9.79c-.01 1.7.02 3.4-.07 5.1a14.68 14.68 0 01-4.87 10.18c-.65.62-1.32 1.23-1.96 1.85-.12.11-.26.28-.25.42.04 1.83 0 3.68.2 5.5.3 2.75 1.33 5.27 2.87 7.59.22.33.67.73.1 1.09-.55.34-.72-.24-.94-.57a19.11 19.11 0 01-3.24-11v-1.82l-.55.49c-1.88 1.7-3.73 3.44-5.63 5.13a5.31 5.31 0 01-3.6 1.32c-1.15 0-2.3-.03-3.44-.18a5.1 5.1 0 01-2.76-1.45c-3.2-2.98-6.44-5.93-9.57-8.98-2.99-2.91-4.34-6.57-4.36-10.71-.02-4.85 0-9.69 0-14.53v-.7A12 12 0 0013 18.8a12.84 12.84 0 00-1.9 15.89c.78 1.3 1.88 2.43 2.87 3.61 1.97 2.4 4 4.74 5.94 7.17a14.07 14.07 0 012.62 5c1.28 4.55-1.96 7.76-5.75 7.96-.37.02-.8.06-.82-.48-.01-.5.4-.48.76-.5a5.2 5.2 0 004.93-3.79c.43-1.73 0-3.37-.87-4.84-1-1.68-2.09-3.34-3.32-4.87-1.87-2.33-3.87-4.54-5.84-6.79-6.4-7.29-3.47-18.95 5.66-22.25 1.98-.72 4.11-1.03 6.18-1.5 3.52-.8 7.08-1.43 10.55-2.38a17.37 17.37 0 009.57-6.38C44.43 3.5 44.95 2.1 45.62.8c.08-.17.1-.4.23-.52.17-.15.46-.32.61-.26.16.06.3.4.28.6-.05.33-.23.65-.36.98a15.29 15.29 0 01-2.49 4.33c.19.16.34.3.5.42 2.96 2.3 6 4.52 8.85 6.94 3.5 2.95 5.53 6.82 6.38 11.3.83 4.32.3 8.5-1.55 12.5-.05.1-.07.25-.15.31-.2.14-.46.35-.65.31-.34-.07-.39-.4-.25-.71.26-.63.55-1.25.78-1.9a19.36 19.36 0 00-1.9-17.22l-.36-.52zm-37.07-1.87l-.03.38c0 5.14-.02 10.27.01 15.41a13.5 13.5 0 004.23 10.02c3.1 2.98 6.26 5.88 9.41 8.8.31.3.68.52 1.05.74 1.24.73 2.62.64 3.99.64 1.53 0 2.86-.5 3.98-1.56 2.95-2.76 5.92-5.5 8.86-8.28 2.9-2.74 4.5-6.1 4.53-10.12.04-5.08.01-10.16 0-15.23a.83.83 0 00-.19-.52c-.47-.52-.92-1.07-1.46-1.5A497.98 497.98 0 0046.6 9.3c-1.12-.88-2.26-1.73-3.4-2.6l-.33.3a19.9 19.9 0 01-9.3 5.2c-3.77.95-7.6 1.67-11.42 2.5l-3.7.78zM7.9 14.41A17.81 17.81 0 0111.36 3.1c.12-.17.54-.3.7-.23.41.19.27.54.06.84a17.12 17.12 0 00-2.66 5.62 16.13 16.13 0 00-.37 6.6l.09.7c.04.32 0 .61-.38.68-.38.06-.57-.17-.6-.54l-.3-2.35z" fill="#000"/><path d="M29.39 9.24c-.16-.18-.44-.37-.42-.52a.8.8 0 01.43-.56c.57-.2 1.18-.28 1.75-.45a13.24 13.24 0 004.64-2.52l.22-.2c.28-.21.62-.32.8.02.1.17 0 .59-.16.73A13.3 13.3 0 0132 8.48c-.83.28-1.68.49-2.61.76zM10.1 17.37c.14-.57.22-1.03.36-1.47.24-.78.49-1.56.8-2.31.07-.18.4-.25.61-.37.1.22.33.48.29.66a55.02 55.02 0 01-1.06 3.51c-.05.17-.37.34-.57.34-.15 0-.3-.25-.43-.36zM38.19 3.91c-.42.02-.71-.33-.53-.66.32-.57.7-1.12 1.1-1.64.08-.11.4-.13.56-.06.12.06.28.37.22.46-.35.62-.75 1.21-1.14 1.8-.04.07-.17.08-.21.1zM36.35 45.3a6.47 6.47 0 01-5.31-3c-.23-.33-.23-.6 0-.95a6.6 6.6 0 013.1-2.55c.6-.25 1.16-.19 1.77 0 .35.12.8.13 1.15.01a2.5 2.5 0 011.93.05 6.65 6.65 0 012.95 2.49c.22.34.23.62 0 .95a6.54 6.54 0 01-5.59 3zm4.72-3.45a5.46 5.46 0 00-1.98-1.84 2.08 2.08 0 00-1.94-.16c-.4.16-.93.01-1.4-.01-.42-.02-.87-.2-1.23-.07a4.83 4.83 0 00-2.55 2.03 5.27 5.27 0 004.57 2.5 5.41 5.41 0 004.53-2.45zM23.61 25.31c-.7-.53-1.45-.55-2.24-.25-.18.07-.36.23-.53.23-.24 0-.47-.12-.7-.19.08-.22.1-.55.26-.66 1.2-.83 2.66-.74 3.9.04a11 11 0 002.63 1.32 5.3 5.3 0 004.02-.48c.34-.18.69-.3.89.14.18.4-.13.58-.44.75a6.74 6.74 0 01-5.87.24c-.9-.35-1.68-.24-2.37.42-.26.26-.55.42-.86.12-.32-.33-.1-.63.17-.85.35-.3.74-.54 1.14-.83zM49.4 25.3c.44.34.88.62 1.23 1 .13.13.16.54.05.7-.19.27-.5.21-.75-.04-.78-.8-1.63-.85-2.67-.44a6.56 6.56 0 01-5.55-.25c-.33-.17-.6-.38-.4-.77.19-.36.5-.29.81-.14a5.9 5.9 0 006.43-.75c1.29-.98 2.63-1 3.98-.2.19.1.37.47.32.66-.1.39-.44.33-.77.2-1.27-.55-1.85-.54-2.68.02zM47.7 16.5l4.28.73c.34.06.6.22.54.62-.09.46-.45.4-.79.36-1.54-.2-3.08-.53-4.62-.56-1.09-.02-2.2.28-3.26.57-.84.23-1.5.81-1.93 1.6-.17.3-.38.6-.78.39-.42-.24-.26-.6-.07-.91.84-1.5 2.26-2.15 3.85-2.48.81-.17 1.66-.2 2.78-.33zM32.22 19.78c-.2.2-.33.44-.48.45-.18.02-.44-.1-.58-.25-.29-.31-.48-.72-.8-1-1.09-1-2.48-1.24-3.89-1.35a15.82 15.82 0 00-5.32.6c-.32.05-.66 0-.67-.36 0-.2.26-.55.45-.6 2.2-.57 4.43-.9 6.71-.51 1.4.23 2.69.67 3.68 1.73.34.37.57.82.9 1.3zM36.68 36.67c-1.07-.03-1.83-.28-2.42-.86-.16-.16-.27-.55-.18-.73.18-.35.5-.24.8-.04 1.26.89 2 .88 3.29-.01.27-.2.58-.3.74.03.1.18.01.58-.14.73-.63.63-1.45.87-2.09.88zM37.02 26.62v.29c0 .36-.08.68-.53.68-.4-.01-.48-.33-.49-.66v-.64c0-.35.12-.65.5-.66.38 0 .52.29.52.64v.35zM25.36 36.93c.02.4-.31.63-.69.47a4.87 4.87 0 01-1.06-.59c-.12-.1-.18-.39-.14-.55.04-.13.34-.33.43-.29.47.2.92.47 1.37.73.06.04.07.17.1.23zM37.01 29.68c0 .13.06.3 0 .4-.15.2-.34.35-.51.53-.17-.17-.4-.31-.47-.5-.08-.27-.1-.6 0-.87.06-.23.28-.54.47-.58.39-.07.5.26.52.6v.42zM51.8 35.1c.17.2.46.37.49.57.02.16-.25.45-.46.53-.27.12-.61.18-.9.13-.22-.03-.42-.26-.62-.4.15-.2.27-.47.46-.56.27-.13.6-.11.92-.16l.1-.1zM28.99 31.74c-.13-.13-.41-.28-.45-.48-.02-.15.2-.44.39-.53.3-.14.67-.23 1-.23.2 0 .5.22.53.37.03.17-.16.47-.34.56-.3.16-.66.19-1.13.3zM48.9 31.58c-.17-.16-.42-.28-.46-.45-.03-.17.12-.47.27-.55.34-.18.72-.32 1.1-.37.16-.02.43.17.52.33.06.13-.06.46-.19.53-.36.2-.78.33-1.24.5zM26.65 31.9c-.21-.02-.46.02-.62-.08-.19-.1-.4-.33-.41-.52-.01-.13.26-.37.44-.41.3-.07.62-.02.93 0 .32.02.63.17.54.52-.06.2-.38.34-.6.49-.06.04-.18 0-.28 0zM46.49 30.87c.13 0 .3-.05.4 0 .2.12.48.28.5.45.01.15-.23.44-.42.5-.3.1-.66.12-.97.06-.21-.05-.37-.31-.55-.47.17-.18.32-.39.52-.51.13-.08.34-.01.52-.01v-.02zM37.02 23.62c0 .12.04.26-.01.35-.14.22-.28.55-.48.6-.37.08-.52-.25-.53-.6 0-.25-.07-.53.02-.75.08-.22.32-.4.49-.6.17.2.36.39.5.6.06.1.01.27.01.4zM21.09 35.18c.48.07.83.07 1.12.2.18.07.4.37.37.53-.03.16-.32.37-.52.4a2.1 2.1 0 01-.97-.15c-.19-.08-.43-.36-.4-.51.02-.2.3-.36.4-.47zM42.92 30.45c.47.1.83.13 1.14.27.17.07.38.37.34.5-.06.18-.33.43-.5.42-.38 0-.78-.1-1.13-.27-.15-.06-.29-.38-.25-.55.03-.16.29-.28.4-.37zM51.51 30.07c-.36.02-.64-.34-.47-.66.2-.35.42-.7.69-1 .24-.27.68-.14.79.2.13.4-.58 1.44-1.01 1.46zM27.28 41.21c.02-.15 0-.37.1-.52a.55.55 0 01.42-.22c.14.01.37.15.4.26.09.42.15.85.13 1.27 0 .15-.26.4-.4.4-.18 0-.43-.18-.5-.35-.12-.23-.1-.53-.15-.84zM44.64 41.54c.03-.2 0-.47.11-.69.08-.17.32-.38.48-.37.16.01.43.26.44.41.03.4-.02.82-.12 1.21-.04.14-.33.31-.49.3-.15-.02-.31-.24-.4-.4-.07-.1-.02-.27-.02-.46zM24.14 31.56c-.49-.19-.9-.3-1.27-.52-.13-.07-.23-.4-.17-.53.09-.16.37-.33.53-.3.38.05.75.2 1.09.38.14.08.28.37.25.51-.05.18-.28.3-.43.46zM49.47 36.58c-.04.06-.1.2-.22.29-.29.19-.58.41-.9.5-.2.05-.46-.13-.7-.2.08-.22.1-.5.24-.63.26-.22.59-.37.9-.5.38-.16.7.07.68.54zM26.3 37.55c.36.36.6.55.77.78.23.32.74.68.25 1.08-.53.43-.76-.16-1.03-.48-.14-.16-.33-.35-.33-.53 0-.23.17-.46.34-.85zM47.2 38.32c-.4.42-.73.83-1.11 1.19-.07.06-.4-.05-.49-.17a.57.57 0 01-.04-.52c.18-.31.4-.62.66-.87a.6.6 0 01.52-.12c.15.05.25.25.45.49zM21.01 28.26c.08.06.23.13.31.24.2.26.43.52.55.82.07.17.04.5-.08.6-.12.11-.5.11-.6 0a3.46 3.46 0 01-.68-1c-.15-.34.02-.6.5-.66zM40.23 29.31c.58 0 1.43.64 1.34.93-.06.19-.3.42-.49.45-.4.06-1.27-.64-1.2-.92.06-.2.27-.36.35-.46zM31.93 30.76c-.2-.15-.42-.24-.47-.38-.06-.14-.01-.42.1-.52.26-.21.57-.4.9-.52.13-.05.4.04.5.16.09.12.11.45.03.52-.31.28-.68.49-1.07.74z" fill="#000"/></svg>