<svg width="56" height="60" fill="none" xmlns="http://www.w3.org/2000/svg"><path d="M52.53 55.5V25.58h2.6c.24 0 .44-.2.44-.44V15c0-.24-.2-.44-.45-.44H37.65l1.52-1.04c.65-.44 1.26-.94 1.82-1.5a9.58 9.58 0 002.77-5.86c.18-1.97-.32-3.75-1.35-4.78a5.67 5.67 0 00-4-1.38 9.52 9.52 0 00-6.64 2.8 19.26 19.26 0 00-3.46 5.33l-.53 1.2-.52-1.2A19.23 19.23 0 0023.8 2.8 9.52 9.52 0 0017.15 0c-1.66 0-3.12.5-4 1.38-1.02 1.03-1.53 2.81-1.35 4.78a9.59 9.59 0 002.78 5.87 13.7 13.7 0 001.81 1.49l1.53 1.04H.44c-.24 0-.44.2-.44.44v10.13c0 .24.2.44.44.44h2.6v29.94A4.5 4.5 0 007.54 60h40.5a4.5 4.5 0 004.49-4.5zm2.15-40.05v9.24h-21.4v-9.24h21.4zm-26.37-4.96a19.76 19.76 0 014.06-7.03l.02-.02A8.63 8.63 0 0138.42.89c1.43 0 2.65.4 3.37 1.12.86.87 1.27 2.44 1.08 4.2a8.73 8.73 0 01-2.5 5.2l-.03.01a17.5 17.5 0 01-4.64 3.09l-.11.05h-6.75v-.64c0-.22-.01-.45-.03-.64l-.03-.23a9.57 9.57 0 00-.27-1.44v-.04l-.02-.07-.15-.54-.08-.3.05-.17zm4.1 4.96v9.24h-9.25v-9.24h9.24zm-17.19-4.03l-.01-.01a8.72 8.72 0 01-2.5-5.2c-.2-1.76.2-3.33 1.07-4.2.71-.71 1.94-1.12 3.37-1.12 2.2 0 4.4.93 6.02 2.55l.03.02a19.89 19.89 0 014.46 8.4l.06.26v.04l.15.75V13a7.13 7.13 0 01.08.98l.01.58h-7.98l-.11-.06a17.51 17.51 0 01-4.65-3.08zM.9 24.7v-9.24h21.39v9.24H.88zM24.3 59.1H7.53a3.61 3.61 0 01-3.6-3.6V25.57H24.3v33.54zm6.08 0h-5.2V25.57h5.2v33.54zm17.66 0H31.26V25.57h20.38v29.94c0 1.99-1.62 3.6-3.6 3.6zM34.64 5.66a17.35 17.35 0 00-3.55 6.5.45.45 0 00.07.39c.11.14.31.2.48.16 2.38-.7 4.63-1.93 6.5-3.56a5.2 5.2 0 001.48-4.76.44.44 0 00-.2-.2 5.17 5.17 0 00-4.77 1.47zm4.23-.13a4.77 4.77 0 01-1.38 3.01l-.02.03a14.23 14.23 0 01-4 2.51l-1.28.53.53-1.27a14.21 14.21 0 012.51-4.01l.03-.03c.8-.8 1.87-1.29 3-1.38l.66-.05-.05.66zM17.4 4.07c-.35 0-.7.04-1.04.11a.44.44 0 00-.2.2 5.2 5.2 0 001.47 4.77 17.34 17.34 0 006.5 3.56c.17.05.37-.02.48-.16.08-.12.11-.26.07-.4a17.35 17.35 0 00-3.56-6.49 5.19 5.19 0 00-3.72-1.59zm-.55.8l.66.05c1.13.1 2.2.58 3 1.38l.03.03a14.22 14.22 0 012.52 4l.52 1.28-1.27-.53a14.23 14.23 0 01-4-2.52l-.03-.02c-.8-.8-1.3-1.87-1.38-3l-.05-.67z" fill="#E23936"/></svg>