<svg width="59" height="60" fill="none" xmlns="http://www.w3.org/2000/svg"><path d="M19.98 0c1.04.24 2.06.52 2.94 1.18a6.09 6.09 0 012.57 4.6c.26 3.28.47 6.57.7 9.86l.89 13.03c.05.7.15 1.4.13 2.1-.02.68.25 1.16.7 1.64 2.94 3.2 5.86 6.44 8.8 9.64 3.2 3.5 6.97 6.3 10.74 9.12a448.8 448.8 0 014.72 3.56c1.28.98 2.59 1.16 4.03.37.96-.52 1.82-.28 2.32.56.47.81.26 1.68-.66 2.25-1.04.65-2.07 1.36-3.2 1.77-1.88.67-3.7.23-5.38-.79a6.57 6.57 0 00-4.47-.99c-1.27.18-2.54.36-3.82.52-1.73.2-3.12-.72-3.36-2.33-.08-.53.06-1.12.2-1.65.26-.96.15-1.52-.62-2.12-1.81-1.43-3.64-2.84-5.45-4.25l-.4-.25c.24 1.27.36 2.42.68 3.5.28.97 1.1 1.47 2.06 1.73.8.21 1.3.8 1.3 1.52 0 .95-.88 1.68-1.83 1.5-.87-.16-1.72-.36-2.57-.56a4.39 4.39 0 01-2.39-1.6l-2.86-3.49a6.96 6.96 0 00-3.06-2.18l-2.4-.93a2.78 2.78 0 01-1.4-3.98c.3-.54.7-1.03 1.06-1.54.17-.26.36-.5.51-.78.49-.87.46-1-.18-1.74a13037 13037 0 01-7.42-8.52 12.36 12.36 0 00-6.05-3.8L.86 25.19l-.22-.07c-.34-.1-.61-.33-.42-.67.1-.17.5-.3.7-.25 2.13.6 4.24 1.23 6.35 1.86 2.5.74 4.6 2.07 6.31 4.04l5.87 6.77c.19.21.38.42.67.55l-.45-1.18c-1.51-3.95-3.04-7.89-4.54-11.84a16.72 16.72 0 01-1-5.39c0-.36-.13-.55-.44-.72-2.42-1.38-4.83-2.79-7.26-4.16a1.14 1.14 0 00-.8-.08c-1.44.43-2.86.9-4.3 1.36-.14.04-.3.16-.43.13-.25-.07-.48-.23-.71-.35.13-.2.22-.5.41-.59.57-.24 1.18-.4 1.77-.6L17.4 9.2c.1-.03.2-.1.28-.08.23.09.44.2.66.31-.13.21-.21.53-.4.6-.62.27-1.3.42-1.93.67-.19.07-.42.3-.44.49-.18 2.18-.37 4.35-.48 6.54a17.9 17.9 0 001.33 7.42c1.67 4.3 3.32 8.58 5 12.86a3.92 3.92 0 01-.53 4.13c-.36.46-.7.94-1.03 1.42-.75 1.12-.37 2.38.89 2.87 4.67 1.8 4.29 1.63 7.43 5.42l.11.14c2.13 2.6 1.65 2.26 5.22 3.08.39.1.74.06.84-.37.1-.45-.24-.6-.6-.7-1.81-.5-2.75-1.72-3-3.55-.22-1.58-.43-3.17-.71-4.74a9.26 9.26 0 00-.6-1.89c-.73-1.75-1.47-3.48-2.23-5.22-.66-1.5-.66-3.11-.77-4.7-.52-7.42-1.01-14.84-1.52-22.25-.15-2.16-.26-4.33-.51-6.48a5.02 5.02 0 00-4.44-4.1c-1.8-.1-3.6-.09-5.39-.1H1.18c-.16 0-.33.04-.47 0C.46.9.15.83.02.66-.06.53.12.22.18 0h19.8zm7.46 33.33c.04 2.08.14 3.98 1.06 5.73.3.57.51 1.18.75 1.78.7 1.77 1.65 3.45 1.9 5.38.03.18.24.35.4.48 1.96 1.54 3.9 3.11 5.9 4.6 1.47 1.08 1.7 2.32 1.17 3.71a1.8 1.8 0 001.91 2.46c1.28-.12 2.55-.34 3.83-.49A7.9 7.9 0 0150 58.16a5.36 5.36 0 005.25.27c.73-.35 1.39-.87 2.07-1.31.36-.23.63-.51.36-.96-.28-.46-.63-.37-1.06-.2-.63.26-1.28.51-1.94.6-1.04.12-2-.24-2.84-.87-3.4-2.57-6.8-5.12-10.16-7.72-3.57-2.76-6.55-6.13-9.55-9.47l-4.69-5.17zM14.56 11.14l-7.24 2.33 6.77 3.9.47-6.23z" fill="#000"/><path d="M46.16 27.84c2.85 0 5.7.01 8.55-.01.64-.01.93.22 1.1.83A10.08 10.08 0 0152.5 39.3c-.24.18-.6.31-.9.31-3.63.02-7.26.02-10.89 0-.3 0-.66-.12-.9-.3a10.03 10.03 0 01-3.3-10.74c.15-.53.4-.75.98-.74 2.9.02 5.78 0 8.67 0zm-9 3.33c-.05.1-.08.13-.08.16a8.87 8.87 0 003.31 7.17c.12.1.32.14.48.14h10.54c.21 0 .46-.1.62-.23a8.64 8.64 0 002.72-3.88c.38-1.07.58-2.17.48-3.36h-.68c-.86 0-1.72.03-2.58-.02-.2-.02-.4-.3-.6-.47.2-.16.4-.37.62-.46.2-.07.46-.01.7-.01h2.5l-.32-1.37H37.45l-.3 1.37H47.7c.2 0 .42-.05.58.03.16.08.35.3.36.45 0 .15-.2.35-.36.45-.1.07-.3.03-.46.03H37.15zM24.78 25.37l.09.99c.03.42-.16.66-.6.7l-4.5.3c-.49.03-.64-.25-.66-.69l-.42-6.01-.31-4.74c-.05-.68.06-.83.76-.88 1.38-.1 2.76-.17 4.14-.29.57-.04.82.16.86.74.16 2.63.35 5.26.52 7.89l.14 1.98h-.02zM19.36 16l.69 10.34 3.8-.25-.68-10.31-3.8.22zM43.76 13l5.75-5.77.5-.5c.25-.25.54-.54.88-.2.35.35.05.63-.2.9a7240.7 7240.7 0 00-5.77 5.81c-.15.15-.3.3-.45.48.2.2.42.36.52.58.08.19.1.5-.01.65-.07.1-.48.14-.6.03a29.81 29.81 0 01-1.94-1.94c-.1-.11-.1-.53.01-.6.16-.1.47-.1.66-.02.24.12.42.36.65.57zM41.68 25.39c-1.2 0-2.17-1.21-1.71-2.33.31-.77.86-1.46 1.35-2.15.2-.3.55-.27.75.01.46.67.98 1.33 1.3 2.07.47 1.14-.45 2.39-1.69 2.4zm.02-3.52c-.3.56-.6.97-.72 1.42-.07.24.07.68.27.82.21.15.68.15.89 0 .2-.13.35-.57.28-.82-.12-.45-.42-.85-.72-1.42zM40.03 12.59c.2.14.38.23.5.36l3.94 3.92c.25.25.48.53.15.85-.32.3-.6.1-.85-.16-1.3-1.31-2.62-2.6-3.91-3.93a.99.99 0 01-.24-.65c0-.13.25-.25.41-.4zM38.46 14.18c.18.11.35.18.47.3l4 4c.25.25.4.52.11.82-.3.3-.56.12-.8-.12-1.34-1.34-2.68-2.67-4-4.02-.14-.15-.18-.44-.17-.67 0-.1.24-.2.4-.31zM49.45 22.37c-.27.47-.45.93-.76 1.27-.55.63-.57.71-.17 1.41.1.18 0 .48-.02.72-.23-.03-.52.02-.67-.1-.75-.57-.76-1.77-.06-2.5.63-.65.61-.64.23-1.48-.07-.17-.03-.54.08-.6.17-.1.56-.1.65.03.28.35.46.77.72 1.25zM38.1 16.93c.18.12.33.2.45.32l1.62 1.6c.24.24.43.51.14.81-.31.31-.6.14-.86-.12-.54-.55-1.11-1.09-1.63-1.67-.13-.14-.15-.42-.12-.62.02-.12.24-.2.4-.32zM51.05 22.94c.44.01.67.44.4.75-.43.5-.45.93-.03 1.45.1.1.03.46-.1.6-.08.1-.49.1-.54.02-.27-.43-.58-.88-.66-1.36-.1-.55.23-1.05.7-1.39.07-.05.18-.06.23-.07z" fill="#000"/></svg>