<svg width="29" height="38" fill="none" xmlns="http://www.w3.org/2000/svg"><path d="M14 0A14 14 0 000 14c0 4.28 3.45 10.13 6.84 15.03 3.4 4.9 6.79 8.8 6.79 8.8a.5.5 0 00.75 0s3.4-3.9 6.78-8.8C24.56 24.13 28 18.28 28 14A14 14 0 0014 0zm0 1a13 13 0 0113 13c0 3.72-3.3 9.62-6.66 14.47A103.82 103.82 0 0114 36.72c-.52-.61-3.28-3.84-6.34-8.25C4.31 23.62 1 17.72 1 14A13 13 0 0114 1zm0 2.5a10.5 10.5 0 1010.5 10.76.25.25 0 00-.5-.02 9.99 9.99 0 11-5.36-9.1.25.25 0 10.23-.44A10.4 10.4 0 0014 3.5zm6.06 2a.25.25 0 00-.14.45A10.08 10.08 0 0122 7.97a.25.25 0 00.32-.37c-.6-.78-1.3-1.47-2.09-2.05a.25.25 0 00-.16-.05zM14 6a8 8 0 10.01 16 8 8 0 000-16zm0 .5a7.5 7.5 0 11.01 15 7.5 7.5 0 010-15zM23.08 9a.25.25 0 00-.22.37 9.96 9.96 0 01.67 1.55.25.25 0 00.43-.25c-.18-.53-.4-1.05-.66-1.54a.25.25 0 00-.22-.13z" fill="#000"/><path d="M14 3.5a10.5 10.5 0 1010.5 10.76.25.25 0 00-.5-.02 9.99 9.99 0 11-5.36-9.1.25.25 0 10.23-.44A10.4 10.4 0 0014 3.5zm6.06 2a.25.25 0 00-.14.45A10.08 10.08 0 0122 7.97a.25.25 0 00.32-.37c-.6-.78-1.3-1.47-2.09-2.05a.25.25 0 00-.16-.05zM14 6a8 8 0 10.01 16 8 8 0 000-16zm0 .5a7.5 7.5 0 11.01 15 7.5 7.5 0 010-15zM23.08 9a.25.25 0 00-.22.37 9.96 9.96 0 01.67 1.55.25.25 0 00.43-.25c-.18-.53-.4-1.05-.66-1.54a.25.25 0 00-.22-.13z" fill="#E23936"/></svg>