<svg width="30" height="39" fill="none" xmlns="http://www.w3.org/2000/svg"><path d="M17.54.15c-1.1 0-2.15.4-2.93 1.13-.76-.4-1.64-.6-2.56-.6C9.4.67 7.23 2.44 7.2 4.64a2.7 2.7 0 00-1.14 1.43c-.15.44-.03 1.08.23 1.95-.3.1-.62.27-.87.58-.23.29-.47.8-.3 1.6l.12.88c.27 2.05.44 3.19.58 3.83-.46.12-.73.36-.89.58-.23.3-.44.86-.16 1.72l.02.08c.36 1.57.57 2.33.68 2.7.19.58.53.96 1 1.13.01.41 0 .85-.01 1.3a3.7 3.7 0 00.69 2.3A12.96 12.96 0 0011 28.46c-.03.7-.08 1.24-.14 1.59-.03.15-.11.35-.38.43L5.1 32.35c-.63.18-1.2.43-1.67.74C1.1 34.6.77 37.04.66 37.84c0 .08-.02.15-.03.19-.03.17.02.31.04.38l.04.12c.07.24.28.4.53.4h27.5c.24 0 .45-.16.51-.4l.04-.12c.03-.07.08-.2.04-.38l-.03-.2c-.1-.84-.39-3.07-2.54-4.6-.55-.39-1.2-.68-1.88-.87l-5.44-1.9c-.23-.06-.31-.26-.35-.42-.06-.32-.1-.85-.14-1.54a12.3 12.3 0 004.2-4.28c.22-.37.4-1 .4-1.46v-1.69c.41-.19.7-.55.87-1.08.11-.36.32-1.12.68-2.7v-.03c.3-.9.09-1.45-.14-1.76-.1-.13-.23-.26-.41-.37.93.23 1.88.11 2.63-.34 1-.6 1.64-1.73 1.91-3.34a.54.54 0 00-.96-.42c-.3.4-.77.6-1.2.67a2.31 2.31 0 00-.04-.19c.39-.47.6-1.06.6-1.68 0-1.28-.92-2.36-2.16-2.65l.02-.37a3.4 3.4 0 00-3.7-3.33 4.06 4.06 0 00-4.1-3.33zm0 1.07c1.69 0 3.06 1.25 3.06 2.8v.07a.54.54 0 00.68.54c.22-.06.43-.09.65-.09a2.3 2.3 0 012.34 2.26c0 .24-.04.46-.1.68a.54.54 0 00.08.49c.1.14.28.22.45.22.94 0 1.7.74 1.7 1.64 0 .44-.17.86-.5 1.17a.54.54 0 00-.12.6c.09.21.14.43.14.66 0 .27.21.5.49.53.4.03.8-.02 1.19-.14-.13.3-.3.57-.48.8-.15.16-.31.3-.5.41a2.5 2.5 0 01-2.02.16.54.54 0 00-.23-.02l-.23.01h-.07c-.16 0-.3.05-.4.16a2.08 2.08 0 01-1.4-.72.27.27 0 00-.27-.09 2.81 2.81 0 01-3.25-1.4.27.27 0 00-.36-.12c-.77.39-1.67.59-2.58.59-2.25 0-4.24-1.24-4.74-2.95a.27.27 0 00-.34-.18c-.61.2-1.31.2-1.98 0-.49-.15-.92-.4-1.26-.72.05-.16.01-.3-.08-.6-.34-1.06-.37-1.44-.33-1.56.17-.53.59-.82.9-.97.2-.1.33-.34.3-.56v-.18c0-1.63 1.7-2.96 3.77-2.96.87 0 1.7.23 2.37.66.23.15.53.1.7-.1a3.16 3.16 0 012.42-1.09zM7.1 8.96a3.85 3.85 0 003.54.93c.68 1.82 2.76 3.08 5.17 3.08.9 0 1.8-.19 2.58-.53a3.36 3.36 0 003.59 1.48c.35.38.83.63 1.33.75-.1.12-.2.22-.25.26-.2.13-.3.38-.23.61.07.23.26.39.52.38.36 0 .63.08.74.22.11.15.1.43 0 .8l-.04.11a38.34 38.34 0 01-.66 2.62c-.12.39-.28.44-.45.46a.54.54 0 00-.46.54v.45l-.01 1.63c0 .26-.12.7-.25.91a11.13 11.13 0 01-4.2 4.16c-.57.33-1.81.98-2.74 1.08-.96.1-2.8-.83-3.52-1.26a11.88 11.88 0 01-3.72-3.52 2.62 2.62 0 01-.5-1.66c.02-.62.02-1.25.01-1.79a.54.54 0 00-.51-.53c-.26-.01-.42-.09-.54-.47a38.31 38.31 0 01-.7-2.74c-.1-.36-.11-.64 0-.8.1-.14.37-.22.73-.21.25-.02.48-.17.54-.41a.54.54 0 00-.1-.47c-.2-.5-.53-3.1-.66-4.1L6.18 10c-.07-.31-.04-.55.08-.7.2-.25.62-.3.72-.31.04 0 .08 0 .12-.02zm3.67 5.88c-.58 0-1.16.05-1.7.15l.37.7a7.07 7.07 0 013.75.26l.42-.62a9.05 9.05 0 00-2.84-.49zm7.85.03c-.78.02-1.55.14-2.24.36l.43.65a7.07 7.07 0 013.76-.13l.35-.66a8.92 8.92 0 00-2.3-.22zm-7.48 1.5c-.35 0-.66.23-.84.59.04-.02.09-.03.14-.03.29 0 .52.26.52.59 0 .32-.23.58-.52.58a.48.48 0 01-.26-.08c.12.53.5.91.96.91.55 0 1-.57 1-1.28 0-.7-.45-1.28-1-1.28zm7.65 0c-.3 0-.57.17-.75.44a.47.47 0 01.18-.04c.29 0 .52.26.52.58 0 .33-.23.59-.52.59a.5.5 0 01-.43-.26c.01.7.45 1.25 1 1.25s1-.57 1-1.28c0-.7-.45-1.28-1-1.28zm-2.52 5.57c-.05 0-.1.02-.13.06-.26.3-.7.47-1.2.47s-.94-.17-1.2-.47a.2.2 0 00-.26-.02.2.2 0 00-.02.27 1.97 1.97 0 002.97 0 .2.2 0 00-.02-.27.2.2 0 00-.14-.04zm2.86 1.92c-.05-.01-.1 0-.14.04-.88.7-2.36 1.1-4.05 1.1-1.68 0-3.16-.4-4.04-1.1a.2.2 0 00-.27.03.2.2 0 00.03.26 6.96 6.96 0 004.28 1.35c1.65 0 3.26-.5 4.29-1.35a.19.19 0 00-.1-.33zm-7.04 4.57c.8.41 2.1 1.02 3.05 1.02l.2-.01a7.67 7.67 0 002.54-.94c.03.76.08 1.37.16 1.75.12.63.54 1.1 1.08 1.25l5.44 1.89c.6.16 1.12.4 1.58.73a5.14 5.14 0 012.08 3.74H1.75c.03-.2.07-.48.15-.78 1.71.17 3.38.26 4.97.26 3.18 0 6.08-.34 8.57-1.02 1.25-.34 2.5-.77 3.69-1.27a.27.27 0 10-.21-.5c-1.18.5-2.4.91-3.63 1.25-3.65 1-8.22 1.24-13.24.74a4.89 4.89 0 013.37-3.16l5.39-1.87c.59-.16 1-.64 1.12-1.27.07-.4.12-1.03.16-1.81zm10.09 4.54a29.96 29.96 0 01-1.82.93.27.27 0 10.23.49c.6-.29 1.18-.6 1.75-.92a.27.27 0 00-.16-.5z" fill="#000"/><path d="M22.18 32.97a29.96 29.96 0 01-1.82.93.27.27 0 10.23.49c.6-.29 1.18-.6 1.75-.92a.27.27 0 00-.16-.5z" fill="#E23936"/></svg>