<svg width="45" height="60" fill="none" xmlns="http://www.w3.org/2000/svg"><g clip-path="url(#clip0)" fill="#000"><path d="M43.35 60c-.08-.31-.22-.62-.22-.93-.02-7.63-.02-15.27 0-22.9 0-3.9-1.22-7.31-3.88-10.18-.4-.43-.87-.82-1.42-1.34v.78c0 5.06.04 10.12-.01 15.17-.05 3.81-1.83 6.6-5.31 8.2-5.6 2.54-12.17-1.67-12.25-7.82-.04-3.57-.02-7.14 0-10.72 0-.4-.12-.63-.5-.8-.88-.4-1.74-.85-2.65-1.3a12.86 12.86 0 00-1.98 4.98c-.16.96-.24 1.94-.24 2.91-.02 7.67-.01 15.35-.02 23.02 0 .31-.15.62-.23.93h-.47c-.1-.24-.26-.49-.26-.73-.01-8-.02-16.01.01-24.01 0-2.58.75-4.96 2.04-7.18l.19-.32c-.77-.66-1.57-1.25-2.25-1.96a16.16 16.16 0 01-4.07-7.53 1.99 1.99 0 00-.5-.88C6.4 14.42 3.44 11.48.49 8.52c-.15-.15-.36-.29-.42-.47-.06-.19-.02-.48.1-.62.08-.1.4-.1.56-.02.18.07.32.27.47.42l4.97 4.96 2.93-2.94c-1.25-1.27-2.57-2.6-3.9-3.92C3.58 4.3 1.95 2.67.3 1.05-.05.7-.12.38.23 0h.46l9.35 9.37c1.24 1.24 2.48 2.49 3.73 3.72.17.17.4.34.62.39 2.8.65 5.27 1.9 7.42 3.8.05.06.12.1.08.06 1-.76 1.87-1.61 2.9-2.2a8.71 8.71 0 0112.94 7.08c.05.9.37 1.45 1.04 2.03C42 27 43.9 30.53 44.01 34.78c.16 5.48.07 10.97.09 16.46 0 2.61 0 5.23-.02 7.85 0 .3-.17.6-.26.91h-.47zM21.2 30.23c0 3.64-.02 7.1 0 10.55a7.77 7.77 0 007.83 7.74 7.75 7.75 0 007.76-7.74c.03-5.98.03-11.95 0-17.93a7.68 7.68 0 00-6.84-7.78c-2.94-.37-5.33.75-7.2 3.06.1.14.18.26.27.36a16.72 16.72 0 013.04 4.76 12.15 12.15 0 002.08 3.5c.3.33.25.62-.06.92-.66.64-1.32 1.27-1.95 1.94-.36.39-.7.39-1.13.11a22.63 22.63 0 01-5.11-4.25c-.27-.31-.82-.66-.3-1.1.47-.42.75.14 1.02.44a22.56 22.56 0 004.82 4.02l1.59-1.66c-.64-1.26-1.32-2.5-1.93-3.78a15.7 15.7 0 00-9.95-8.7c-.93-.3-.94-.28-1.55.53l.56.32L18.33 18c.12.07.29.13.33.23.08.2.17.48.08.61-.08.13-.39.2-.58.17-.2-.03-.37-.2-.56-.31l-4.72-2.76-.68.55.41.57c.5.68 1.02 1.34 1.47 2.05.11.16 0 .48-.02.72-.26-.04-.53-.04-.77-.14-.14-.06-.21-.27-.32-.41l-1.46-2c-.33.36-.8.53-.62 1.16 1.24 4.18 3.46 7.52 7.6 9.35 1.85.82 3.64 1.77 5.25 3.03.3.23.6.47.3.86-.28.36-.59.14-.87-.06l-1.97-1.4zM10.27 16.9l2.88-2.88-3.22-3.26-2.89 2.88c.02.02.05.09.1.14l3.13 3.12z"/><path d="M26.28 39.27c-1.93 0-3.3-1.9-2.48-3.65.54-1.15 1.36-2.17 2.09-3.23.21-.3.59-.3.8 0 .73 1.08 1.57 2.12 2.1 3.29.78 1.72-.6 3.59-2.5 3.59zm.13-5.78l-.24-.03c-.49.82-1.01 1.61-1.45 2.45-.38.72-.13 1.54.52 2.03.63.48 1.48.47 2.12-.02a1.6 1.6 0 00.5-2.03c-.45-.83-.97-1.6-1.45-2.4z"/></g><defs><clipPath id="clip0"><path fill="#fff" d="M0 0h44.11v60H0z"/></clipPath></defs></svg>