<svg width="47" height="46" fill="none" xmlns="http://www.w3.org/2000/svg"><path d="M23 0A23 23 0 001.78 14.17c-.09.2-.15.41-.23.61-.1.28-.22.55-.31.83a23.4 23.4 0 00-.47 1.55l-.03.09a1 1 0 001.94.5l.01-.04c.13-.5.28-.98.45-1.46.08-.26.18-.5.28-.76A20.99 20.99 0 0144 23a1 1 0 102 0C46 10.31 35.7 0 23 0zM.7 22.1l-.64.61-.05.35.01.94v.06l.1 1.25v.06L.3 26.6v.06l.24 1.22v.03l.01.03.25.99.58.68.9-.06.48-.75-.02-.35-.24-.98-.22-1.13v-.02l-.16-1.19-.09-1.2v-.02l-.01-.88-.42-.8-.88-.14zm3.35 10.86l-.84.3-.26.86.12.33.36.61.01.03.02.02.68 1.04.01.03.02.02.74 1 .02.02.02.03.8.96.02.02.02.02.85.92.84.3.76-.48.06-.9-.2-.29-.84-.9-.01-.02-.75-.9-.69-.93-.65-.99-.36-.61-.75-.5zM38.4 37.7a1 1 0 00-.7.3c-.22.22-.45.44-.69.65a1 1 0 101.33 1.49l.77-.71a1 1 0 00-.71-1.73zM11.8 40.97a1 1 0 00-.44 1.87 23.24 23.24 0 003.79 1.78 1 1 0 10.68-1.89c-.3-.1-.6-.22-.9-.34-.89-.37-1.74-.8-2.56-1.28a1 1 0 00-.57-.14zm20.42.98l-.35.08-1.02.44h-.02l-.9.33-.62.65.15.89.8.4.35-.05.92-.33.02-.02h.03l1.09-.48.57-.68-.2-.88-.82-.35zm-8.33 2.02l-.5.03-1.55-.03V44l-.79.31-.23.86.55.71.34.1h.1l1.6.03h.08l.52-.03.78-.45.1-.89-.65-.62-.35-.04z" fill="#000"/><path d="M38.39 37.71a1 1 0 00-.7.3c-.22.22-.45.44-.69.65a1 1 0 101.33 1.49l.77-.71a1 1 0 00-.71-1.73zM18.38 14.98v15l.86-.55 10.86-6.95-11.72-7.5zm1.12 2.06l8.52 5.44-8.52 5.44V17.04z" fill="#E23936"/></svg>