<svg width="59" height="60" fill="none" xmlns="http://www.w3.org/2000/svg"><g clip-path="url(#clip0)" fill="#E23936"><path d="M22.46 60c-.25-.3-.28-.58-.01-.93 1.05-1.4.9-2.76-.38-4.02a5.97 5.97 0 01-1.6-6.64 6.1 6.1 0 016.5-3.93c.28.04.45.01.6-.27l6.44-12.02c.02-.03.02-.07.05-.17-.17.07-.3.11-.42.17-3.88 2.1-7.76 4.19-11.65 6.27-.31.17-.42.34-.38.72A6.1 6.1 0 019.5 40.86a6.07 6.07 0 014.2-6.8 5.97 5.97 0 015.85 1.2c.26.21.42.23.7.07 4.62-2.54 9.24-5.07 13.85-7.62.26-.14.48-.4.66-.64L48 8.91c.25-.34.63-.65 1.01-.81.49-.2.96 0 1.3.41.35.42.39.89.17 1.37-.1.22-.21.42-.32.62L43.6 22.46c.31-.15.5-.22.66-.32l11.44-6.28c.99-.54 1.7-.48 2.12.2.46.71.23 1.4-.68 2.06-5.96 4.28-11.92 8.57-17.87 12.87-.35.25-.66.6-.87.98-2.53 4.55-5.03 9.12-7.55 13.68-.2.38-.26.61.07 1a6.06 6.06 0 01.8 6.48c-1.25 2.38-3.18 3.62-5.92 3.48-.59-.04-1.18-.18-1.8-.29A3.84 3.84 0 0122.92 60h-.47zm-1.42-9.46a5.18 5.18 0 108.81-3.64c-.38-.4-.4-.7-.12-1.16.53-.87.99-1.77 1.48-2.66C37.28 32.02 43.36 20.96 49.4 9.9c.13-.23.2-.72.08-.8-.36-.27-.53.14-.7.38l-13.89 19c-.64.88-.68 1.93-.01 2.77.35.44.33.79.08 1.26-2.24 4.1-4.46 8.23-6.66 12.36-.3.56-.64.7-1.26.6-3.14-.53-5.99 1.9-6.01 5.07zm12.4-21.35l-.5.25-12.61 6.94c-.44.24-.72.24-1.12-.13a5.16 5.16 0 00-8.66 2.35 5.19 5.19 0 003.17 6.13 5.18 5.18 0 006.9-5.74c-.07-.38-.19-.76.33-1.04 4.06-2.17 8.11-4.36 12.16-6.54.19-.1.37-.21.5-.3l-.17-1.92zm6.42.14l.3-.16c5.53-3.98 11.06-7.96 16.57-11.95.17-.12.2-.43.29-.66-.23.01-.5-.06-.68.04-4.45 2.43-8.89 4.87-13.33 7.33-.15.08-.3.2-.38.34l-2.77 5.06z"/><path d="M28.56 0c.44.36.31.67-.04 1.02l-4.34 4.36-.03.06 1.14 1.07 2.38-2.4L29.7 2.1c.25-.25.52-.5.84-.16.32.33.07.6-.18.85-1.3 1.32-2.62 2.63-3.93 3.94l-.52.49 1.22 1.03c.05-.04.2-.16.33-.3l4.02-4.01c.24-.25.52-.5.84-.18.32.32.08.6-.17.85l-4.37 4.42 1.08 1.05c.1-.09.25-.2.39-.34l3.81-3.81.25-.25c.25-.25.53-.47.85-.13.3.31.07.57-.16.8l-4.03 4.01c-.15.15-.34.26-.57.42l1.26 1.1.4-.37 4.02-4.02c.24-.24.51-.5.84-.17.33.33.08.6-.17.85-1.32 1.33-2.65 2.66-3.98 3.97-.15.15-.35.25-.57.4l1.27 1.13c.08-.07.24-.21.38-.36l3.9-3.89c.1-.1.18-.25.29-.28.23-.05.48-.03.72-.04-.03.24.02.52-.1.71-.14.26-.41.46-.64.68l-3.88 3.86 1.2 1.16c.45-.48.94-1.03 1.46-1.56.94-.96 1.9-1.9 2.85-2.86.25-.25.52-.5.85-.18.33.32.1.6-.16.85l-3.97 3.98c-.15.15-.34.26-.5.38l1.2 1.16 2.42-2.42 2.03-2.03c.23-.23.49-.45.8-.16.3.3.13.57-.1.8-2.33 2.33-4.6 4.7-6.99 6.94a9.2 9.2 0 01-10.61 1.39c-.37-.2-.57-.14-.85.13L2.2 40.82c-.16.15-.32.3-.5.41-.46.3-1.02.24-1.39-.13-.37-.39-.41-.91-.09-1.4.1-.14.22-.26.34-.4L19.5 18.7c.21-.23.4-.4.2-.8a9.24 9.24 0 011.52-10.88C23.49 4.62 25.87 2.33 28.2 0h.35zm-5.13 6.15c-.53.53-1.03 1-1.5 1.49a8.39 8.39 0 00-1.23 10.1c.27.48.23.8-.13 1.2L9.77 30.8c-2.8 3.05-5.64 6.07-8.45 9.1-.14.15-.24.33-.35.5l.13.1.42-.36 20.8-19.09c.72-.66.72-.66 1.56-.2a8.21 8.21 0 007.22.41c.86-.34 1.63-.92 2.54-1.45l-8.7-8.64c-.12-.12-.3-.23-.35-.38-.06-.2-.03-.45-.04-.68.23 0 .47-.03.68.02.13.03.23.2.34.31l8.2 8.21.41.4 1.06-.99c-3.94-3.96-7.85-7.91-11.8-11.91zM26.21 54.39a3.88 3.88 0 01-3.85-3.83 3.9 3.9 0 013.88-3.87 3.9 3.9 0 013.83 3.87 3.89 3.89 0 01-3.86 3.83zm.02-6.72a2.9 2.9 0 00-2.93 2.88c0 1.56 1.3 2.87 2.87 2.88a2.9 2.9 0 002.93-2.89 2.89 2.89 0 00-2.87-2.87zM15.54 43.73a3.87 3.87 0 01-3.86-3.88 3.9 3.9 0 013.87-3.83c2.1 0 3.88 1.8 3.86 3.9a3.89 3.89 0 01-3.87 3.81zm-.05-.97a2.9 2.9 0 10-2.86-2.89c0 1.57 1.3 2.88 2.86 2.9z"/></g><defs><clipPath id="clip0"><path fill="#fff" d="M0 0h58.06v60H0z"/></clipPath></defs></svg>