<svg width="1920" height="461" fill="none" xmlns="http://www.w3.org/2000/svg"><path fill="#F4EBF0" d="M0 1h1920v460H0z"/><path fill="url(#paint0_linear)" d="M0 1h1920v460H0z"/><g clip-path="url(#clip0)" fill="#fff"><path d="M1909.75 112.72v.09l-.02-.08.02-.01z"/><path d="M1760.3 257.38c-.35-.33-.23-.74-.19-1.13.25-2.73.48-5.46.76-8.18a82.5 82.5 0 013.63-16.81 63.7 63.7 0 019.26-17.96c4.1-5.65 8.28-11.25 12.41-16.88.28-.37.5-.79.74-1.18-.32.2-.65.4-.94.63-.89.73-1.74 1.5-2.64 2.21-4.93 3.95-9.87 7.9-14.82 11.83-1.35 1.07-2.76 2.06-4.13 3.1-.39.3-.74.63-1.08.98-.95.98-1.82 2.05-2.83 2.97-2.23 2.02-4.54 3.94-6.78 5.95-4.46 4-9.46 7.27-14.59 10.32-5.8 3.44-12 6-18.49 7.84-2.04.58-4.07 1.19-6.12 1.76-3.91 1.1-7.8 2.28-11.75 3.22-3.78.9-7.62 1.54-11.43 2.3-.43.08-.88.22-1.22-.22-.19-.37-.06-.7.21-.96.22-.21.47-.4.71-.59 1.71-1.33 3.43-2.64 5.13-3.99a88.84 88.84 0 018.93-6.42c6.8-4.14 13.79-7.93 21.09-11.11 2.02-.89 4.1-1.68 6.2-2.33 3.72-1.14 7.46-2.2 11.22-3.17 5.35-1.39 10.66-2.9 15.78-5.02a29.93 29.93 0 007.58-4.28c5.63-4.58 11.33-9.05 16.92-13.66 2.43-2 4.67-4.24 6.99-6.38-.36.19-.74.35-1.08.56-2.57 1.64-5.12 3.31-7.7 4.93a28.77 28.77 0 01-8.11 3.55c-1.32.34-2.63.77-3.9 1.28a46.47 46.47 0 01-9.56 2.6c-3.54.59-7.08 1.08-10.68.81-.88-.06-1.76-.15-2.64-.18-3.76-.15-7.47-.7-11.13-1.57-4.42-1.05-8.81-2.24-13.33-2.86-2.85-.39-5.65-1.05-8.54-1.04-.27 0-.55 0-.79-.1-.25-.11-.45-.33-.77-.57.29-.3.46-.56.7-.71.29-.2.64-.29.97-.43 2.91-1.26 5.84-2.51 8.75-3.79 1.33-.58 2.63-1.26 3.98-1.8a84.27 84.27 0 0120.01-5.49 49.8 49.8 0 019.91-.48c4.91.3 9.76 1.01 14.59 1.85a53.47 53.47 0 0015.17.62c1.36-.15 2.7-.47 4.03-.76a3.7 3.7 0 001.96-1.04c.3-.31.7-.56 1.1-.72 1.73-.67 3.13-1.8 4.46-3.04.97-.9 1.89-1.85 2.87-2.74 1.74-1.56 3.62-2.97 4.94-4.95.14-.22.37-.38.54-.58l4.51-5.02c.09-.1.16-.22.24-.32 1.3-1.56 2.55-3.16 3.9-4.67 1.35-1.51 2.5-3.2 4.11-4.47.14-.1.24-.27.35-.4l5.99-7.26c.33-.41.66-.83.97-1.26 1.75-2.44 3.53-4.86 5.25-7.32 1.07-1.52 2.06-3.08 3.08-4.63l.17-.26-.26.17c-1.09 1.04-2.19 2.05-3.25 3.11-2.66 2.65-5.31 5.3-8.25 7.66a34.45 34.45 0 01-13.32 6.57c-1.8.46-3.59.96-5.37 1.47-2.85.8-5.73 1.5-8.69 1.76-2.68.23-5.37.43-8.05.61-3.8.25-7.51-.29-11.11-1.45-5.55-1.8-11.11-3.53-16.88-4.48-2.05-.34-4.08-.8-6.16-.15-.09.03-.23-.07-.4-.12-.12-.56.28-.8.64-1.02 1.56-.91 3.09-1.9 4.72-2.68 3.63-1.72 7.31-3.33 10.97-5a38.97 38.97 0 0116.43-3.65c4.16.02 8.31 0 12.46.13 5.7.18 11.4.3 17.1.17.84-.02 1.68-.07 2.51-.16a82.21 82.21 0 0010.64-2.16 18.44 18.44 0 005.64-2.58 25.6 25.6 0 004.28-3.72c2.89-3 5.7-6.05 8.23-9.35 2.74-3.58 5.43-7.19 8.13-10.8.98-1.3 1.92-2.64 2.87-3.97.19-.28.33-.6.49-.9-.23.11-.47.2-.67.34-5.06 3.77-10.63 6.66-16.36 9.23-.45.2-.91.37-1.37.51-3.83 1.23-7.63 2.52-11.58 3.35-2.94.62-5.88 1.2-8.9 1.25-1.24.01-2.48.1-3.7.28-3.43.48-6.86.66-10.31.45-2.21-.12-4.42-.2-6.62-.38a38.66 38.66 0 01-7.51-1.6c-2.16-.64-4.28-1.43-6.47-1.93-6.17-1.4-12.05-3.8-18.25-5.09-.32-.06-.62-.27-.99-.44l.23-.92c.33-.04.59-.11.85-.1a8.68 8.68 0 003.13-.45c1.35-.41 2.7-.83 4.04-1.3a120.9 120.9 0 0118.81-4.99c4.14-.73 8.3-1.28 12.52-1.1 4.37.2 8.71.68 13.04 1.34 5.72.87 11.41 1.98 17.18 2.46 1.85.15 3.71.31 5.56.23 2.42-.1 4.84-.37 7.25-.69 4.11-.53 7.98-1.9 11.76-3.54a3.22 3.22 0 001.5-1.25c1.74-2.7 3.5-5.42 5.31-8.08.82-1.2 1.75-2.33 2.71-3.43 1.54-1.76 3.14-3.47 4.74-5.18l7.34-7.84 3.76-3.97c-.6.4-1.22.75-1.78 1.19a148.15 148.15 0 01-9.56 7.14 34.61 34.61 0 01-6.83 3.76c-2.44.94-4.89 1.83-7.37 2.64-3.94 1.29-7.87 2.64-12.07 2.91-3.9.26-7.79.33-11.61-.6-3.69-.9-7.36-1.9-11.03-2.87-3.45-.93-6.9-1.91-10.35-2.84a22.23 22.23 0 00-5.23-.83c-.47 0-.99.04-1.24-.47.03-.62.49-.72.9-.87 3.37-1.2 6.73-2.45 10.12-3.58 6.04-2 12.24-3.15 18.63-3.04 2.38.04 4.77.16 7.14.37 5.61.5 11.22.4 16.83.07 2.16-.14 4.33-.23 6.48-.45a41.4 41.4 0 005.1-.82c2.01-.47 3.96-1.18 5.96-1.67 3-.74 5.74-2.04 8.37-3.6a12.7 12.7 0 003.3-2.84 45.78 45.78 0 013.34-3.58 104.1 104.1 0 019.94-8.36c3.25-2.47 6.18-5.29 9.21-7.99 4.02-3.59 8-7.23 12.59-10.12.58-.36 1.08-.83 1.61-1.25-.31.1-.64.16-.93.3a370.92 370.92 0 00-5.85 3.11c-3.69 2-7.4 3.96-11.29 5.57a56.2 56.2 0 01-19.59 4.21c-3.83.14-7.56-.6-11.28-1.4-3.95-.87-7.67-2.4-11.38-3.94a629.3 629.3 0 00-24.21-9.43c-1.21-.43-2.4-.9-3.58-1.4-.52-.21-1.09-.43-1.19-1.12.09-.66.55-1 1.09-1.22.61-.26 1.25-.46 1.89-.61 2.58-.6 5.16-1.2 7.76-1.72 3.6-.71 7.19-1.48 10.85-1.8 2.6-.23 5.19-.5 7.8-.65a38.5 38.5 0 0111.72.88 848.87 848.87 0 0119.23 5.05c6.64 1.84 13.37 2.98 20.28 2.74 3.13-.11 6.26-.38 9.4-.56a8.36 8.36 0 004.74-1.84c.69-.54 1.43-1.03 2.14-1.56a383.65 383.65 0 0119.07-13.21c3.5-2.31 7.21-4.3 10.79-6.5 3.46-2.14 7.03-4.09 10.66-5.92 5.02-2.52 9.95-5.2 15.14-7.37 1.1-.45 2.19-.94 3.25-1.5 4.26-2.26 8.78-3.94 13.18-5.9.64-.28 1.33-.48 1.99-.72 4.01-1.4 7.99-2.86 12.02-4.18 3.31-1.09 6.68-2.01 10.02-3l.39-.1c1.05-.26 2.02.06 2.96.44.38.16.67.44.72.97-.05.47-.39.8-.85 1.01-.32.16-.64.3-.98.41-2.22.75-4.45 1.45-6.66 2.23-3.29 1.16-6.56 2.39-9.85 3.54-3.63 1.28-7.24 2.6-10.91 3.73-3.38 1.05-6.75 2.1-10.03 3.41a53.59 53.59 0 00-8.53 4.27c-3.94 2.46-7.89 4.9-11.78 7.42a115.06 115.06 0 00-6.61 4.65 219.4 219.4 0 00-17.79 15.1c-3.37 3.13-6.7 6.29-9.51 9.96-.16.21-.33.41-.52.6a25.55 25.55 0 00-2.93 3.76c-.4.63-.86 1.24-1.38 1.78-2.42 2.53-4.36 5.45-6.6 8.13a7.8 7.8 0 00-.73 1.1 41.98 41.98 0 01-6.77 9.13c-.15.16-.3.33-.43.5a41.61 41.61 0 01-5.26 5.92c.05.48.06 1 .18 1.51.34 1.49 1.08 2.8 1.99 4a33.13 33.13 0 004.53 4.84 314.8 314.8 0 006.6 5.74 90.34 90.34 0 0117.29 19.3c5.07 7.62 8.87 15.88 11.89 24.5 1.91 5.46 3.73 10.96 5.58 16.44.38 1.13.73 2.27 1.07 3.42.14.5.2 1.02.3 1.53l-.63.53c-.91-.04-1.54-.56-2.15-1.05-1.76-1.41-3.52-2.82-5.22-4.31a5735.6 5735.6 0 01-18.36-16.27 84.7 84.7 0 01-9.34-9.58 61 61 0 01-10.2-17.42 84.99 84.99 0 01-4.91-20.44 41 41 0 01.01-9.65c.03-.21 0-.44-.01-.9l-6.27 10.69c.07.4.12.85.23 1.27.31 1.24.63 2.48 1 3.7.27.89.55 1.79.96 2.61 2.01 4.04 4.06 8.05 6.09 12.07.8 1.58 1.65 3.13 2.37 4.74 3.27 7.36 5.22 15.1 6.64 22.99.95 5.28 1.14 10.63 1.26 15.97.05 2.16-.13 4.33-.13 6.5.01 4.12-.61 8.19-.97 12.28a38 38 0 00.04 8.6l.22 1.84c.04.36.01.7-.56.88-.19-.2-.45-.43-.64-.7-2.21-3.15-4.42-6.3-6.6-9.46a112.43 112.43 0 01-13.02-24.53 50.71 50.71 0 01-2.74-10.5 85 85 0 01-.7-13.61c.05-3.5.23-6.98.38-10.47.2-4.56.85-9.05 1.8-13.51l.9-4.24c-.8 1.46-1.68 2.89-2.37 4.4-1.97 4.34-3.97 8.67-5.71 13.11-1.59 4.08-3.31 8.1-5.02 12.12-.81 1.9-1.62 3.83-2.61 5.65a73.08 73.08 0 00-3.42 7.02 4.1 4.1 0 00-.28 2.7c.59 2.22 1.17 4.44 1.77 6.65.24.9.56 1.77.78 2.67.89 3.55 1.75 7.12 2.64 10.67a65.18 65.18 0 011.85 12.03c.12 2.02.32 4.05.36 6.08.07 3.22.15 6.45.04 9.67a145.3 145.3 0 01-.71 9.78 98.12 98.12 0 01-1.26 9.05c-.81 4.15-1.91 8.25-2.8 12.4-.8 3.66-1.53 7.34-1.44 11.13 0 .18-.16.37-.24.56-.72 0-.82-.5-.98-.96-.84-2.37-1.64-4.76-2.55-7.1-3.15-8.18-5.77-16.5-7.12-25.2a82.8 82.8 0 01-1.14-11.85c-.03-2.96.06-5.92.21-8.87.12-2.3.36-4.58.65-6.86a99.6 99.6 0 012.56-12.44c.12-.45.19-.91.27-1.37-.25.39-.53.76-.75 1.16-2.65 4.9-5.27 9.8-7.93 14.7a43.12 43.12 0 01-2.39 3.97c-1.99 2.86-4.06 5.67-6.09 8.5-.21.3-.41.6-.51.92-.6 1.91-.97 3.88-.75 5.88.3 2.63.68 5.25 1.17 7.85.75 4 1.56 7.97 1.75 12.05.13 2.6.09 5.2-.02 7.8a88.99 88.99 0 01-8.88 35.33c-.73 1.51-1.29 3.1-1.87 4.68-.22.6-.27 1.28-.42 1.93-.03.1-.17.2-.3.33l-.6-.16-.43-2.78c-.3-1.74-.63-3.47-.89-5.22-.66-4.42-.86-8.88-1-13.33-.25-7.7 0-15.37 1.2-23 .69-4.4 1.45-8.79 2.62-13.1 1.29-4.78 3.19-9.35 4.99-13.96.15-.4.27-.8.41-1.2-.2.21-.42.4-.59.64a53.6 53.6 0 00-5.24 8.89 57.67 57.67 0 01-3.9 7.07c-.6.93-1.21 1.86-1.71 2.84-1.74 3.43-3.76 6.7-5.75 9.99a61.12 61.12 0 01-4.45 6.42c-2.08 2.59-4.12 5.2-6.28 7.71-3.46 4.02-6.86 8.1-10.66 11.8-2.66 2.6-5.29 5.2-7.78 7.97-.35.39-.76.72-1.17 1.06-.08.06-.25.03-.44.05l-.32-.5.18-.56c1.7-4.73 3.46-9.45 5.09-14.21a91.86 91.86 0 018.51-17.92c4.5-7.4 10.36-13.62 16.81-19.34l1.19-1v-1.11l-.53-10.99c-.09-1.63-.23-3.26-.31-4.9-.13-2.64-.33-5.29-.31-7.93.02-3.18.2-6.35.59-9.52.69-5.57 1.74-11.08 3.15-16.5a260.6 260.6 0 017.13-23.03c.75-2.07 1.52-4.13 2.28-6.2-1.03 1.27-2.1 2.49-3.08 3.79-8.02 10.67-16.03 21.35-24.03 32.03-.53.7-.91 1.55-1.52 2.17-1.4 1.42-2.58 3.02-3.84 4.56a8.7 8.7 0 00-1.96 5.36c-.06 1.54-.11 3.1-.36 4.62a24.05 24.05 0 00-.4 4.47c.12 7.35-.27 14.67-1.15 21.96-.49 4.04-1.08 8.06-1.83 12.06a83.92 83.92 0 01-4.16 15.04c-4.14 10.72-9.6 20.77-15.34 30.68-.11.18-.27.34-.44.55l-.77-.19-.04-.96c-.06-1.01-.06-2.03-.18-3.03-.63-5.05-1.13-10.1-1.32-15.19-.26-6.94-.04-13.87.93-20.76a58.65 58.65 0 014.88-16.86c1.36-2.88 2.7-5.77 4.08-8.63 1.17-2.43 2.39-4.84 3.6-7.24l5.22-10.29.19-.44c-.36.17-.58.43-.81.68-4.67 5.31-9.32 10.65-14.42 15.55a6.26 6.26 0 00-1.57 2.27c-.48 1.23-1.05 2.43-1.5 3.68-.7 1.9-1.31 3.84-1.99 5.76-2.73 7.75-5.86 15.35-8.54 23.12a79.63 79.63 0 01-8.22 17.33 636.76 636.76 0 01-7.06 10.6c-.79 1.16-1.69 2.26-2.57 3.37-1.76 2.2-4 4.01-5.42 6.5-.18.34-.52.47-.9.24zm-34.74-18.82a85.4 85.4 0 0017.98-9.24 87.57 87.57 0 009.61-7.24c.58-.52 1.1-1.1 1.64-1.64-.22.1-.46.16-.67.3-2.49 1.66-5.03 3.27-7.47 5.02-3.02 2.15-5.97 4.4-9.26 6.15-5 2.63-9.96 5.34-15.21 7.45-.42.17-.79.43-1.19.65 1.53-.48 3.08-.9 4.57-1.45zm-31.46 8.2c-.24.07-.46.17-.65.42 1.35-.22 2.7-.41 4.04-.65 5.88-1.07 11.6-2.71 17.26-4.6.8-.26 1.58-.56 2.35-.9 6.74-3 13.45-6.04 19.95-9.54a60.45 60.45 0 006.7-4.27c.16-.11.29-.27.44-.42-.44.15-.9.27-1.31.46-3.39 1.61-6.77 3.25-10.16 4.86-1.4.66-2.82 1.26-4.21 1.94-2.74 1.33-5.5 2.62-8.19 4.04a55.9 55.9 0 01-11.69 4.59c-4.86 1.3-9.69 2.7-14.53 4.07zm2.7-2.56c-.35.19-.69.4-1.02.6-.11.07-.2.17-.5.44.48-.13.75-.16.99-.26 5.53-2.32 11.2-4.31 16.68-6.78 6.04-2.71 12.15-5.25 18.24-7.85.44-.2.92-.27 1.38-.4-.37.22-.73.47-1.12.65-7.06 3.12-14.1 6.27-21.18 9.33-3.2 1.38-6.47 2.58-9.7 3.88-.56.22-1.09.48-1.63.73.33-.03.67-.02.98-.1 4.18-1.15 8.37-2.23 12.51-3.47a36.36 36.36 0 007.27-3.2 79.58 79.58 0 019.54-4.6c.82-.33 1.62-.7 2.42-1.07 3.92-1.85 7.81-3.75 11.75-5.54 3.49-1.59 6.51-3.88 9.58-6.12.1-.08.17-.2.25-.3l.5-.24-.5-.01-.01-.26-.51.26c-2.9.78-5.75 1.73-8.47 3a491.15 491.15 0 01-24.53 10.66c-2.33.93-4.64 1.94-6.97 2.88-5.51 2.2-10.73 4.97-15.95 7.77zm49.95-24.8c-5.3 1.34-10.65 2.55-15.71 4.69a238.47 238.47 0 00-13.51 6.08 98.12 98.12 0 00-14.39 8.65c-.37.27-.69.6-1.03.91.34-.15.69-.29 1.01-.47 3.59-1.99 7.16-4.03 10.78-5.97 1.71-.92 3.5-1.7 5.28-2.48a382.14 382.14 0 0123.78-9.77c1.12-.4 2.25-.79 3.37-1.2.35-.13.68-.32 1.02-.49-.2.01-.41 0-.6.06zm6.99-1.9c-5.42 2.04-10.85 4.04-16.25 6.1-7.02 2.68-13.84 5.84-20.72 8.84-.33.15-.65.3-.96.47-4.59 2.55-9.18 5.1-13.77 7.67-.35.2-.65.49-.97.74.34-.13.69-.24 1.01-.42a106.5 106.5 0 0110.55-4.96c5.84-2.4 11.67-4.82 17.51-7.23.45-.18.9-.37 1.34-.57 4.19-1.89 8.37-3.8 12.57-5.67a41.4 41.4 0 014.69-1.8c2.6-.79 5.08-1.79 7.31-3.37.7-.5 1.46-.9 2.11-1.51-1.48.57-2.94 1.16-4.42 1.71zm2.24-65.41c-.02.01-.01.07-.03.18.15.04.31.12.47.12 3.39.05 6.65.85 9.89 1.72 3.53.95 7.01 2.11 10.52 3.16 2.5.75 5.04 1.32 7.67 1.32 2.69-.01 5.39.03 8.08-.07 3.73-.13 7.36-.9 10.94-1.91 2.33-.66 4.66-1.35 7-1.99a32.34 32.34 0 0011.07-5.53c3.16-2.38 6-5.1 8.77-7.92-.38.24-.76.46-1.12.72-3 2.18-5.98 4.38-8.98 6.55-.61.44-1.27.8-1.93 1.16a65.36 65.36 0 01-15.01 5.83 74.04 74.04 0 01-9.84 2.03c-2.82.32-5.64.3-8.45.03-.15-.02-.29-.14-.43-.22 1.62.02 3.24.06 4.86.05 4.1 0 8.08-.8 12.01-1.86 1.7-.47 3.41-.94 5.1-1.45a62.8 62.8 0 0012.5-5.4c.5-.29.97-.62 1.44-.96 2.11-1.53 4.21-3.07 6.31-4.62.33-.25.61-.56.91-.85-1.89.8-3.81 1.53-5.66 2.41-3.59 1.7-7.13 3.52-10.7 5.26-3.12 1.52-6.46 2.37-9.8 3.2a52.12 52.12 0 01-8.06 1.5 84.7 84.7 0 01-11.52.36c-.74-.04-1.49-.16-2.22-.34-3.17-.76-6.36-1.5-9.51-2.36a36.48 36.48 0 00-7.55-1.3c-.44-.02-.88-.08-1.32-.13a8.2 8.2 0 00-5.41 1.3zm14.47-6.8l-7.61 3.42c-.18.08-.34.2-.5.32l4.8-1.23c1.71-.43 3.41-.9 5.14-1.25a27.6 27.6 0 013.55-.41c2.64-.19 5.28-.32 7.93-.48l1.59-.06c2.15-.15 4.31-.3 6.46-.47 1.37-.1 2.73-.23 4.1-.31 4.71-.3 9.43-.53 14.14-.87 3.35-.24 6.65-.88 9.92-1.66a.97.97 0 00.52-.33l-4.47.37c-.79.06-1.58.12-2.38.13l-11.26.04c-.89.01-1.77.12-2.65.11-1.23 0-2.47-.09-3.7-.13-.58-.01-1.15-.05-1.72-.01-2.87.16-5.73.31-8.59.53-1.58.13-3.15.39-4.73.57-2.15.25-4.3.52-6.45.72-1.42.12-2.79.4-4.09 1zm14.37-3.32c-3.01.06-5.99.44-8.89 1.32-.25.07-.49.17-.74.25l.02.25c1.45-.13 2.9-.2 4.33-.42a91.7 91.7 0 0111.21-.98 87.2 87.2 0 005.95-.4h-1.15c-3.58-.02-7.16-.08-10.73-.02zm43.11-1.46c-2.55.95-5.09 1.93-7.65 2.87-.57.2-1.19.25-1.79.38l1.52-.8c-1.19.21-2.38.4-3.56.63a64.1 64.1 0 01-10.26 1.07c-3.57.11-7.13.43-10.7.65-3.38.21-6.77.44-10.16.64-3.22.19-6.43.32-9.65.54-2.02.14-4.03.4-5.99 1-.32.09-.63.2-1.13.38 3.33-.15 6.45-.27 9.57-.45 3.46-.2 6.88.18 10.31.41 2.6.18 5.19.24 7.8.03 1.76-.14 3.53-.1 5.29-.14-.33.08-.66.24-1 .25-2.87.1-5.74.17-8.6.26a83.3 83.3 0 01-8.87-.35c-1.24-.1-2.48-.07-3.71-.03-2.7.11-5.39.3-8.08.4-2.71.09-5.34.7-7.97 1.26-.59.13-1.16.29-1.74.63.91.13 1.82.32 2.73.4 2.13.16 4.19.63 6.22 1.28a90.55 90.55 0 0010.8 2.64c.44.08.88.13 1.32.14 5 .1 9.99-.14 14.91-1.1 2.9-.57 5.77-1.3 8.62-2.08 3.65-.99 6.97-2.78 10.34-4.43.14-.07.25-.2.36-.3-.62.14-1.26.24-1.87.44-4.88 1.58-9.91 2.53-14.95 3.45-2.6.48-5.23.73-7.9.64-1.8-.07-3.61-.04-5.42-.06a1.7 1.7 0 01-.91-.2c.33-.02.66-.06.98-.06l4.77.07c3.41.04 6.78-.36 10.11-1.05 3.63-.75 7.25-1.5 10.83-2.5a82.1 82.1 0 0014.59-5.86c.75-.37 1.53-.67 2.29-1l.53-.27.23-.5c-.74.23-1.48.45-2.21.72zm206.34-155.96v-.15a2.71 2.71 0 01-.16-.18l-.31.37.09.13.38-.17zm-1.48.06c-.85 0-1.62.22-2.29.77.82-.1 1.6-.3 2.29-.77zm-23.96 6.97c-.1.03-.18.14-.34.28.22 0 .36.03.47 0 1.48-.53 3.04-.84 4.4-1.67-1.51.46-3.02.92-4.53 1.4zm.16 1.84c2.23-.83 4.48-1.59 6.7-2.44 2.88-1.1 5.74-2.26 8.61-3.4.18-.08.33-.2.5-.32-.49.13-.99.22-1.46.4l-17.28 6.27c-.43.16-.86.34-1.26.6 1.45-.19 2.83-.61 4.19-1.11zm-87.03 88h-.28l-.54-.26-.26-.53-.1-.27-.15.27c-.68-1.02-1.35-2.05-2.04-3.07-.11-.17-.27-.31-.58-.64.13 1.24.37 2.22.79 3.12.82 1.8 1.67 3.6 2.59 5.36 1.5 2.86 3.05 5.69 4.62 8.5a70.95 70.95 0 002.59 4.32c3.95 6.02 7.94 12.02 11.92 18.03 3.29 4.97 6.69 9.87 10.32 14.62 1.98 2.6 3.87 5.27 5.81 7.9.25.33.55.63.83.95a9.48 9.48 0 00-1.52-3.15c-5.4-7.96-10.82-15.91-16.23-23.87a914.18 914.18 0 01-7.02-10.44 123.2 123.2 0 01-3.28-5.29 728.4 728.4 0 01-5-8.57c-.26-.45-.42-.95-.63-1.43.27.34.58.64.8 1.01 1.71 2.88 3.39 5.79 5.11 8.67a96.3 96.3 0 003.08 4.95c4.08 6.03 8.21 12.03 12.33 18.04.19.29.47.51.7.77.13.27.22.57.39.81 1.46 2.2 2.93 4.38 4.41 6.56.13.2.32.35.49.53-.1-.27-.17-.56-.3-.8-1.29-2.53-3-4.77-4.76-6.97-.05-.07-.15-.1-.22-.14-.04-.13-.05-.27-.11-.37l-4.17-6.44c-.88-1.36-1.84-2.69-2.61-4.12a88.08 88.08 0 00-4.11-6.77 37.7 37.7 0 01-2.12-3.5 72.39 72.39 0 00-5.12-8.63c-.36-.53-.58-1.16-.87-1.74.2.21.44.4.61.65.82 1.2 1.63 2.41 2.42 3.64.55.85 1.12 1.7 1.59 2.6 1.53 3 3.2 5.9 5.12 8.66.38.55.77 1.1 1.07 1.68 2 4 4.66 7.6 7.05 11.37 1.02 1.6 2.1 3.16 3.23 4.7a43.2 43.2 0 013.39 5.21c.56 1.06 1.17 2.08 1.78 3.1a312.5 312.5 0 007.54 12.02c.1.16.26.3.39.43-.18-.47-.34-.95-.57-1.4-3.55-6.86-7.44-13.53-11.24-20.25a395.6 395.6 0 00-8.78-14.66c-.68-1.08-1.3-2.2-1.93-3.32-1.43-2.54-2.99-5-4.79-7.3a55.13 55.13 0 01-2.49-3.43 112.54 112.54 0 00-6.69-8.72c-.73-.87-1.64-1.6-2.46-2.4zm35.07 58.65c-3.25-4.36-6.53-8.68-9.75-13.06-4.39-5.98-8.41-12.22-12.5-18.4-2.1-3.18-4.21-6.33-6.24-9.54a106.26 106.26 0 01-3.34-5.71c-1.68-3.01-3.3-6.05-4.96-9.07-.09-.17-.25-.3-.39-.44.13.54.23 1.08.4 1.6a61.17 61.17 0 003.95 9.39c2.46 4.69 4.83 9.42 7.61 13.94a84.29 84.29 0 003.06 4.63c2.29 3.2 4.57 6.4 6.96 9.51 1.61 2.1 3.37 4.08 5.08 6.1 1.83 2.15 3.72 4.26 5.51 6.43a77.03 77.03 0 005.59 6.16c-.33-.52-.62-1.05-.98-1.54zm2.43 2.48c.5.78 1.13 1.48 1.71 2.2-.07-.22-.11-.46-.24-.65-.76-1.17-1.32-2.48-2.33-3.47.27.65.48 1.34.86 1.92zm4.61 7.22c-.25-.32-.52-.62-.95-.68l.95.68zm.36-2.14a93.3 93.3 0 00-1.7-4.87c-.87-2.27-1.84-4.5-2.72-6.76a80.3 80.3 0 00-4.13-8.73c-2.25-4.2-4.43-8.45-7.2-12.35-3.35-4.72-6.58-9.52-10.27-13.98l-2.35-2.87c-.78-1.11-1.57-2.22-2.34-3.35-.24-.35-.42-.74-.63-1.12.3.3.66.57.92.9 4.51 6 9.22 11.83 13.55 17.95 3.09 4.38 5.78 8.98 8.28 13.7 1.11 2.1 2.16 4.24 3.24 6.36.15.3.35.56.52.84a11.77 11.77 0 00-1.15-3.58c-2.68-5.77-5.54-11.44-9.1-16.73-1.38-2.05-2.73-4.12-4.1-6.18a31.45 31.45 0 00-3.94-4.8c-2.22-2.24-4.03-4.8-5.89-7.32-.12-.17-.15-.4-.21-.6.31.3.66.56.92.89.94 1.17 1.83 2.38 2.79 3.54a59.13 59.13 0 002.89 3.28 32.43 32.43 0 013.77 4.61c2.98 4.5 6.08 8.9 8.62 13.68.09.17.23.32.36.47-.07-.27-.12-.56-.24-.82-3.05-6.48-6.61-12.66-11.22-18.2a104.5 104.5 0 00-7.91-8.53c-.31-.3-.69-.52-1.04-.77-.54-.57-1.03-1.2-1.62-1.7-1.81-1.56-3.65-3.08-5.48-4.61.21.34.4.71.65 1.02 1.1 1.3 2.22 2.56 3.31 3.86.3.36.52.78.77 1.17h-.25l.24.51.28.27c.06.16.1.34.2.48l3.71 4.88c1.23 2.1 2.44 4.2 3.68 6.28 1.27 2.13 2.6 4.22 3.85 6.35 2.2 3.73 4.41 7.45 6.53 11.22 3.11 5.5 6.16 11.04 9.21 16.57.85 1.55 1.63 3.14 2.42 4.71.16.31.25.66.37.98l-.25.01.25.52.25.52h.27l.28.54h-.01l.27.53c.24.35.5.68.71 1.05.3.51.57 1.04.85 1.57-.06-.47-.06-.95-.21-1.4zm-46.41-58a84.7 84.7 0 003.79 13.9 55.65 55.65 0 008.91 15.57c1.11 1.37 2.27 2.7 3.43 4.04.3.35.68.63 1.03.94-.05-.15-.1-.3-.19-.44l-6.92-10.5c-1.1-1.67-2-3.42-2.79-5.26-.88-2.07-1.76-4.15-2.84-6.12a39.06 39.06 0 01-3.95-11.32c-.17-.86-.37-1.71-.75-2.53.09.57.17 1.15.28 1.73zm-.91-9.7c.7 2.64 1.44 5.27 2.15 7.91.14.5.21 1.03.32 1.54-.19-.38-.44-.75-.55-1.16-.55-1.86-1.06-3.74-1.58-5.6a2.2 2.2 0 00-.55-1.03c.17.9.33 1.8.53 2.7l2.42 10.31a22.8 22.8 0 001.73 4.58c1.52 3.18 3 6.4 4.55 9.57a41.85 41.85 0 002.26 4.04c1.75 2.77 3.52 5.52 5.35 8.23a46.53 46.53 0 008.4 9.67c3.75 3.17 7.41 6.45 11.11 9.66.3.27.66.46 1 .69-.29-.35-.57-.71-.88-1.03l-10.35-10.41c-.36-.37-.61-.83-.92-1.25.31.24.65.44.92.71 4.29 4.27 8.54 8.58 12.87 12.82 1.89 1.85 3.91 3.57 5.89 5.34.22.2.49.33.74.5-.17-.3-.3-.63-.51-.88-1.22-1.4-2.4-2.84-3.7-4.15a100.23 100.23 0 01-7.24-8.1c-1.51-1.9-3.15-3.7-4.78-5.5a84.38 84.38 0 01-6.53-8.17c-1.4-1.98-2.82-3.95-4.26-5.91a85.1 85.1 0 01-6.13-9.6c-1.53-2.78-2.99-5.6-4.51-8.4a73.36 73.36 0 01-6.36-16.1c-.36-1.3-.85-2.58-1.32-4a4.96 4.96 0 00-.07 3.02zm-137.18 36.99c.97.3 1.96.53 2.94.81 2.08.58 4.17 1.15 6.24 1.77 2.76.83 5.52 1.6 8.37 2.03 1.09.16 2.19.28 3.29.34 1.67.1 3.35.11 5.05.01l-3.69-1.03c-4.81-1.38-9.7-2.38-14.63-3.14-1-.16-2.03-.17-3.03-.32-1.89-.3-3.77-.63-5.66-.95.37.17.74.36 1.12.48zm-3.52-1.07a2.94 2.94 0 00-1.85-.74l1.85.74zm7.39-2.33c-.44.02-.88.06-1.32.21.47 0 .95-.03 1.42 0 1.71.13 3.43.33 5.14.41 3.16.15 6.18 1.03 9.26 1.6 3.26.6 6.49 1.3 9.76 1.84 4.44.73 8.9 1.43 13.44 1.18 3.09-.18 6.16-.44 9.19-1.13l5.43-1.2c.37-.09.73-.24 1.09-.36l-.02-.11-1.69.24c-3.56.46-7.14.3-10.72.3-2.39-.02-4.77-.16-7.16-.22-2-.05-3.92-.58-5.89-.87-3.23-.48-6.48-.9-9.7-1.4a77.29 77.29 0 00-11.09-.91c-2.38-.03-4.76.26-7.14.42zm-12.12-.5c.52-.06 1.03-.1 1.54-.18l3.66-.56c.26-.04.53-.03.79-.01.88.03 1.76.12 2.64.1 1.9-.05 3.79-.14 5.69-.23 2.73-.14 5.46-.32 8.19-.42 2.16-.07 4.33-.02 6.49-.08a63.7 63.7 0 018.21.25c.83.08 1.65.28 2.47.45 2.33.48 4.66 1 7 1.46.69.14 1.4.16 2.11.18 3.93.1 7.86-.19 11.78-.39a56.3 56.3 0 007.74-.95c1.26-.24 2.61-.43 3.82-.86.37-.13.67-.37 1.02-.54.54-.26 1.15-.38 1.71-.59l7.26-2.7c.05-.02.1-.02.16-.02l.56-.28a.66.66 0 00-.14-.08c-4.67 1.68-9.38 3.32-14.28 4.19-5.52.98-10.97.56-16.5-.09-5.7-.67-11.39-1.04-17.13-1.12-5.82-.09-11.65-.13-17.46.06-5.78.19-11.5.84-17.11 2.21-.08.06-.15.12-.22.2zm15.27-.45c-2.6-.28-5.18.1-7.75.3 2.59.3 5.16-.23 7.75-.3zm28.62-6.06c-3.76-.5-7.55-.85-11.36-.9-4.21-.03-8.37.56-12.5 1.34-4.61.86-9.14 2.02-13.59 3.5-.3.1-.59.25-.88.38.69-.14 1.39-.28 2.09-.44 3.7-.87 7.37-1.89 11.1-2.56 4.42-.81 8.87-1.64 13.4-1.57 3.98.06 7.94.38 11.87 1.06 3.39.6 6.81 1.02 10.2 1.65 2.92.53 5.87.75 8.81 1 3.02.27 6 .05 8.97-.54.3-.06.59-.15.88-.33-.57 0-1.15-.05-1.71.01-2.53.27-5.04.03-7.55-.17-6.61-.53-13.16-1.56-19.73-2.43zm30.4 2.93c-3.24.75-6.51 1.37-9.84 1.13-3.3-.24-6.6-.44-9.88-1.04-3.21-.58-6.45-1.03-9.67-1.54-1.14-.18-2.26-.45-3.4-.56a203.4 203.4 0 00-8.18-.7c-2.3-.13-4.59.1-6.87.43-2.84.4-5.71.7-8.51 1.3-4.26.9-8.48 1.95-12.72 2.97 3.16-.6 6.36-.98 9.58-1.15 5.62-.31 11.26-.25 16.89-.23 5.74.03 11.48.18 17.19.78 5.62.59 11.25 1.46 16.91.8 4.64-.54 9.13-1.87 13.54-3.4-1.68.41-3.36.82-5.04 1.21zm10.06-2.3l-.33.12a21.1 21.1 0 01-3.33 1.74l-.19.09c-5.43 2.27-10.91 4.36-16.86 4.77-3 .2-5.99.4-8.99.5a94.9 94.9 0 01-6.49.03 20.06 20.06 0 01-3.4-.46c-2.08-.43-4.11-1.07-6.2-1.37-2.44-.34-4.92-.5-7.39-.6-2.6-.09-5.21-.04-7.81.01-1.9.04-3.79.2-5.69.37.34.02.68.06 1.02.07 4.41.19 8.81.46 13.17 1.23 3.04.54 6.13.84 9.16 1.42 2.84.53 5.67.83 8.55.83 3.49 0 6.98.15 10.47.18a30.5 30.5 0 0011.37-2.2l1.56-.63c.04-.06.09-.08.16-.07l2.57-1.05c.45-.18.91-.32 1.37-.48-.34.58-.96.76-1.51 1-2.65 1.11-5.3 2.21-7.97 3.27-2.47.98-5.08 1.47-7.67 2.03a56.81 56.81 0 01-14.48 1.16c-1.98-.08-3.95-.4-5.92-.64-3.91-.46-7.74-1.34-11.59-2.13-2.03-.41-4.05-.87-6.1-1.21-1.91-.32-3.84-.54-5.77-.76-5.11-.57-10.24-.2-15.35-.31a.58.58 0 00-.4.15l1.11.13c1.19.13 2.34.39 3.47.8a35 35 0 008.79 1.83c1.93.19 3.85.54 5.77.82 4.51.68 8.89 1.87 13.27 3.11 1.61.46 3.27.75 4.92 1.05.6.12 1.23.13 1.84.07 3.61-.32 7.19-.82 10.82-.97 2.88-.13 5.66-.9 8.45-1.6a78.45 78.45 0 0014.19-5.09c1.8-.84 3.56-1.77 5.32-2.69.42-.22.79-.54 1.18-.81l.5-.24h-.5c.34-.27.66-.56 1.03-.77 1.37-.77 2.77-1.5 4.13-2.29.42-.24.77-.6 1.15-.9-.47.16-.94.31-1.4.48zm-38.01-20.94c5.28 1.44 10.56 2.9 15.85 4.3 3.56.95 7.19 1.4 10.88 1.2a38.5 38.5 0 0010.67-1.84c3.54-1.23 7.09-2.45 10.64-3.66 2.45-.83 4.64-2.17 6.83-3.48.12-.06.23-.13.22-.39l-.45.16c-3.28 1.19-6.55 2.4-9.84 3.56a77.33 77.33 0 01-14.64 3.55c-2.9.43-5.81.3-8.71-.1-.62-.08-1.23-.17-1.85-.2-2.71-.13-5.26-1.08-7.91-1.58-2.69-.5-5.35-1.13-8.05-1.57-1.71-.28-3.46-.33-5.19-.48.52.18 1.02.38 1.55.53zm-3.3-1.4c.6.1 1.2.22 1.8.29 1.23.12 2.47.17 3.69.33 1.36.19 2.7.47 4.04.71 1.87.34 3.74.68 5.61 1.04.78.15 1.57.29 2.32.53 2.5.8 5.1 1.02 7.68 1.38 4.63.63 9.16.11 13.68-.93a83 83 0 0011.92-3.57c3.12-1.24 6.31-2.3 9.45-3.48 1.56-.6 2.88-1.61 4.02-2.84-.75.31-1.51.62-2.25.94l-5.46 2.4c-.85.36-1.74.63-2.59 1.01-4.23 1.89-8.71 2.89-13.26 3.62a58 58 0 01-10.28.97c-2.38-.04-4.76-.3-7.13-.5-2.51-.22-5.02-.48-7.52-.73-4.13-.41-8.26-.86-12.39-1.23-1.1-.1-2.21-.02-3.33.07zm1.09-1.85h1.45c.53-.02 1.06-.04 1.59-.08 4.91-.41 9.8-.18 14.64.76 3.96.78 7.94 1.2 11.98.92 2.2-.15 4.41-.17 6.62-.28 2.88-.13 5.68-.77 8.48-1.39 3.19-.7 6.37-1.44 9.56-2.15.38-.09.78-.09 1.17-.13-.39.17-.77.4-1.18.5-4.69 1.27-9.45 2.21-14.21 3.17-1.08.21-2.19.3-3.29.36-2.29.13-4.59.19-6.88.3-.97.03-1.94.16-2.91.18-2.26.05-4.49-.25-6.72-.6-2.52-.41-5.05-.8-7.59-1.12-1.23-.15-2.47-.14-3.71-.16-3.89-.04-7.77.08-11.63.6-.5.06-.99.24-1.46.62.36 0 .73.04 1.09 0 2.25-.26 4.49-.22 6.74.03 2.33.25 4.67.34 7 .56 4.3.41 8.61.83 12.91 1.3 4.06.45 8.1.4 12.15-.1a74.4 74.4 0 0010.42-1.89 72.26 72.26 0 005.53-1.8c1.62-.59 3.19-1.29 4.78-1.94l.22-.13-.22-.12c.44-.19.86-.42 1.31-.55 1.83-.56 3.57-1.3 5.24-2.22.38-.21.74-.46 1.04-.86l-1.36.34c-3.12.8-6.24 1.62-9.37 2.37-3.61.86-7.31 1.26-10.97 1.8a114.5 114.5 0 01-19.3.97c-4.59-.11-9.18-.17-13.78-.26-3.15-.07-6.24.43-9.34 1zm11.76-3.37c-3.32.2-6.51 1.02-9.56 2.35 1.26-.11 2.52-.2 3.78-.34 2.29-.27 4.58-.15 6.87-.15 6.93.02 13.85.47 20.77.16 2.91-.12 5.81-.39 8.69-.8 2.88-.4 5.76-.82 8.62-1.3 1.04-.16 2.05-.47 3.07-.72-1.97.21-3.94.4-5.9.67-2.18.32-4.35.77-6.53 1.1-1.22.18-2.45.29-3.69.34a80.1 80.1 0 01-8.6.02c-2.2-.14-4.4-.38-6.59-.63-2.32-.26-4.63-.65-6.96-.84-1.31-.1-2.65.06-3.97.14zm52.74-4.36a55.07 55.07 0 01-15.49 3.27c-4.95.3-9.89.53-14.84.3-3-.14-5.99-.39-8.98-.62a47.8 47.8 0 00-11.9.72c3.48 0 6.91.71 10.37 1.1 4.61.52 9.24.77 13.88.54 2.69-.13 5.35-.56 8-1.03 2.17-.39 4.37-.63 6.54-1 2.96-.48 5.91-1.02 8.87-1.52 1.88-.32 3.71-.8 5.49-1.46.95-.35 1.82-.81 2.67-1.7-1.67.5-3.16.88-4.61 1.4zm19.16-14.16c-1.85 1.6-3.62 3.3-5.4 4.99-.31.29-.52.69-.77 1.03l-.09.1a.9.9 0 01.1-.09c.75-.53 1.56-.99 2.24-1.6 2.38-2.16 4.71-4.38 7.06-6.58.08-.07.13-.17.2-.26-1.12.8-2.3 1.52-3.34 2.41zm-11.36-17.98c-4.27-.19-8.4-1.1-12.58-1.82a51.3 51.3 0 01-6.44-1.52 40.2 40.2 0 01-5.95-2.25c-3-1.48-6.2-2.3-9.46-2.94a175 175 0 00-5.74-1.02c-.67-.11-1.37-.1-2.05-.13.59.25 1.18.5 1.77.72 1.73.67 3.49 1.28 5.19 2 3.65 1.57 7.24 3.32 10.93 4.77a53.85 53.85 0 0013.57 3.52c6.11.7 12.26.9 18.4.55 4.37-.25 8.74-.57 13.02-1.53a61.48 61.48 0 007.74-2.32c-.86.13-1.71.23-2.55.4a90.54 90.54 0 01-11.28 1.56c-4.86.4-9.71.23-14.57 0zm-3.14 5.93c3.05.47 6.07.13 9.1-.16a57.08 57.08 0 0010.59-2.28c.24-.07.48-.17.69-.37-8.37.88-16.74 1.55-25.15 1.92 1.56.46 3.18.63 4.77.89zm-34.67-11.69c2.04.82 4.08 1.61 6.13 2.41.15.06.3.1.53-.02-.7-.35-1.38-.74-2.09-1.05-1.73-.74-3.46-1.5-5.33-1.81.25.16.49.36.76.47zm-.76-.47l-1.25-.52c.32.39.76.51 1.25.52zm-7.72-3.01l11.23 3.6c.46.14.92.3 1.36.52 2.71 1.29 5.4 2.6 8.12 3.89 1.55.73 3.1 1.5 4.69 2.13 2.63 1.04 5.3 1.97 7.95 2.95 1.22.45 2.48.6 3.77.58 1.55 0 3.1-.02 4.64-.03 2.17-.02 4.32-.14 6.47-.51 1.04-.18 2.11-.26 3.16-.24 2.58.05 5.1-.46 7.64-.72 1.54-.16 3.08-.3 4.62-.44 1.72-.15 3.41-.44 5.01-1.16 1.2-.54 2.44-1.03 3.65-1.56.22-.1.41-.27.61-.4-.67.13-1.36.2-2 .41a47.84 47.84 0 01-10.92 2.02c-2.81.22-5.63.52-8.45.63-2.6.1-5.21.03-7.81-.04-1.98-.06-3.96-.24-5.95-.35a43.64 43.64 0 01-8.1-1.27 63.28 63.28 0 01-12.46-4.42c-2.18-1.06-4.42-2-6.62-3.04a47.94 47.94 0 00-8.65-2.89c-1.1-.28-2.25-.34-3.65-.54.61.62 1.18.71 1.69.88zm.72-1.48a.86.86 0 00-.53.16c.9.1 1.8.23 2.71.28a67 67 0 0113.54 2.38c1.49.4 2.95.94 4.35 1.6a50.63 50.63 0 0012.33 3.95c2.82.52 5.64 1.03 8.47 1.5 1.14.18 2.28.32 3.43.36 4.02.13 8.04.34 12.05.25 4.82-.1 9.6-.67 14.33-1.66 1.68-.35 3.39-.6 5.08-.94a6.8 6.8 0 002.91-1.13c-2.52.47-5.03.99-7.55 1.37-1.61.24-3.26.36-4.88.38-3.72.04-7.43.06-11.14-.05-2.24-.07-4.5-.3-6.71-.66-4.93-.8-9.83-1.74-14.74-2.56a152.9 152.9 0 01-13.19-2.94c-2.96-.77-5.96-1.23-8.97-1.75-3.81-.66-7.65-.58-11.49-.54zm3.21-.8c-.34 0-.69.04-1.04.06l.04.2c.96.06 1.93.18 2.89.17 2.53-.03 5.01.39 7.51.73 4.65.63 9.18 1.8 13.73 2.86 4.65 1.08 9.34 1.93 14.02 2.84 2.77.54 5.55 1.04 8.35 1.46 2.53.37 5.07.7 7.64.69 3.4-.02 6.8 0 10.21-.01 2.48-.01 4.92-.46 7.35-.9 1.99-.36 3.98-.81 5.96-1.26a6.75 6.75 0 002.85-1.39c-1.01.15-2.06.2-3.04.49-1.93.56-3.9.74-5.88.94-4.35.45-8.72.63-13.09.62-1.81 0-3.62.06-5.43 0a54.6 54.6 0 01-12.28-1.85c-7.37-2-14.8-3.8-22.34-5.03-2.05-.33-4.13-.42-6.2-.6-1.1-.1-2.2-.14-3.3-.2-.27-.02-.53-.02-.8-.02l-7.15.2zm2.63-.74c-.17.03-.33.1-.49.14l-.02.19c1.09 0 2.19.08 3.27-.02 1.46-.13 2.91-.14 4.36 0 1.45.16 2.91.28 4.36.3 2.89.06 5.68.77 8.5 1.28 5.31.95 10.48 2.45 15.73 3.66 1.5.35 2.96.89 4.48 1.17 1.95.37 3.92.6 5.89.84 4.49.53 9 .31 13.5.22 1.85-.03 3.69-.21 5.54-.4h-4.1a65.66 65.66 0 01-16.12-1.99c-2.26-.58-4.6-.86-6.89-1.33-3.2-.66-6.38-1.39-9.58-2.07-3.02-.65-6.03-1.36-9.07-1.87a56.44 56.44 0 00-9.61-.99c-3.27.03-6.53.23-9.75.87zm11.89-2.32c-1.3.19-2.6.45-3.9.85.18.01.35.04.53.04 5.23.01 10.39.7 15.5 1.83 3.19.71 6.4 1.34 9.57 2.13 3.39.85 6.82 1.44 10.25 2.1 1.78.35 3.54.77 5.31 1.16 2.73.6 5.5.85 8.28.96 2.74.1 5.48.12 8.22.02 2.47-.09 4.93-.4 7.39-.6l-.05-.15h-1.72c-2.47-.07-4.95-.14-7.42-.23-.75-.03-1.49-.17-2.23-.26l-12.12-1.3a77 77 0 01-18.14-4.3c-2.01-.75-4.1-1.06-6.18-1.43-2-.37-4.01-.65-6.02-.96a24.58 24.58 0 00-7.27.14zm64.96 7.3l-6.71.4c2.24-.05 4.51.42 6.71-.4zm-33.45-4.24c.85.52 1.81.64 2.76.78a7.05 7.05 0 00-2.76-.78zm7.92 2.25c-.63-.13-1.25-.28-1.87-.42l-.02.01c-.31-.02-.63.01-.93-.06l-6.91-1.8c-1.32-.36-2.62-.79-3.94-1.12-2.91-.72-5.82-1.47-8.76-2.1a28.6 28.6 0 00-9.46-.6c.54.14.85.25 1.17.3 2.7.47 5.4.89 8.09 1.4 1.03.2 2.04.55 3.04.9a85.4 85.4 0 0012.1 3.38c2.9.54 5.85.84 8.78 1.22 2.01.26 4.03.48 6.05.7.57.06 1.14.08 1.71.05l-9.05-1.86zm71.09-23.45c1.42-.7 2.87-1.35 4.27-2.1.69-.36 1.31-.88 1.96-1.34a38.67 38.67 0 00-6.29 3.37 6.8 6.8 0 00-2.54 1.59l2.6-1.52zm-33.21 34.47a5.5 5.5 0 00-1.83 2.1 5.06 5.06 0 001.83-2.1zm-2.11 2.37c-.42.22-.72.52-.75 1.01l.75-1zm-8.8 12.37c.13-.2.2-.42.28-.64l-4.05 4.88c-.07.08-.09.2-.12.32a20 20 0 003.89-4.56zm-16.2 22.47l2.74-4.86a.88.88 0 00.5-.76l-.52.74c-1.22 1.52-2.39 3.07-2.9 5 .07-.03.15-.07.18-.12zm-4.21 1.8c-.32.18-.66.34-.95.57-1.35 1.07-2.67 2.17-4.01 3.24-.34.27-.74.45-1.11.67l.77-1.05c-.19.07-.39.12-.57.21-3.03 1.54-6.05 3.1-9.09 4.62a79.76 79.76 0 00-10.16 5.94 50.95 50.95 0 00-5.85 4.76c-.37.35-.7.75-1.04 1.12.22-.1.46-.17.66-.3 1.28-.87 2.57-1.71 3.83-2.62a49.29 49.29 0 018.24-4.77c2.65-1.22 5.11-2.8 7.59-4.33.44-.27.93-.46 1.4-.68-.33.28-.62.6-.98.83-3.05 1.96-6.22 3.7-9.43 5.38-5.57 2.92-10.73 6.46-15.14 11.01a2.1 2.1 0 00-.6.92l.65-.53c1.01-.84 2.04-1.68 3.04-2.55a34.32 34.32 0 019.11-5.58c3.83-1.64 7.47-3.62 11.08-5.66 1.31-.74 2.51-1.65 3.73-2.52 1.37-.97 2.69-2.01 4.05-3a11.1 11.1 0 002.68-2.72c.68-1 1.4-1.98 2.1-2.96zm-38.84 31.95c.36-.12.59-.17.79-.28 3.52-1.93 7.05-3.82 10.54-5.82a26.53 26.53 0 003.55-2.53c3.31-2.7 6.58-5.47 9.86-8.22.29-.24.55-.5.82-.76-.41.2-.84.35-1.22.6a849.17 849.17 0 00-9.15 6.1c-2.34 1.58-4.64 3.21-6.96 4.82-1.27.89-2.53 1.77-3.81 2.64-.25.17-.55.26-.83.38.28-.27.54-.56.85-.8 1.83-1.37 3.67-2.74 5.52-4.08 1.18-.85 2.39-1.67 3.59-2.48l7.26-4.86c.19-.13.35-.32.52-.49-.39.15-.8.27-1.16.46-1.51.82-3 1.67-4.49 2.5-1.31.74-2.59 1.5-3.91 2.2a26.38 26.38 0 00-5.25 3.75 62.37 62.37 0 01-3.24 2.71 29.02 29.02 0 00-4.14 3.68c-.22.25-.38.56-.57.84l.78-.26c.24-.44.59-.71 1.08-.8l-.43.7zm-1.1-.91a28.54 28.54 0 014.24-3.77c1.04-.81 2.06-1.66 3.04-2.55 1.7-1.55 3.54-2.89 5.6-3.93 1.29-.66 2.54-1.41 3.81-2.11 1.85-1.03 3.69-2.07 5.55-3.07 1.8-.96 3.46-2.1 5.02-3.4.18-.16.32-.36.47-.55-.42.19-.86.35-1.27.57a134.97 134.97 0 01-10.54 5.28 30.9 30.9 0 00-7.86 4.87c-1.95 1.67-3.9 3.33-5.8 5.04a12.38 12.38 0 00-2.83 4.06c.19-.14.42-.26.57-.44zm25.43-16.78c.12-.02.24-.02.34-.07 2.14-1.37 4.27-2.76 6.04-4.62.08-.09.13-.2.19-.3-.15.04-.33.06-.45.15l-6.12 4.84zm35.42 60a45.7 45.7 0 00-.29-6.08c-.35-3.2-.83-6.4-1.29-9.58-.39-2.76-.89-5.5-1.22-8.25-.3-2.5-.53-5.01-1.08-7.47-.7-3.19-1.45-6.36-2.18-9.55-.1-.42-.15-.86-.23-1.29.18.4.42.77.54 1.18 1.33 4.85 2.56 9.74 3.15 14.75.49 4.21 1.14 8.4 1.82 12.58.4 2.43.65 4.9.98 7.4.04-.09.07-.11.07-.14.15-4.64.08-9.28-.3-13.91a97.37 97.37 0 00-2.9-16.15 72.75 72.75 0 00-4.75-13.61c-.92-1.91-1.97-3.76-2.97-5.63-.09-.17-.25-.3-.38-.46l1.17 4 .41 1.53c-.14-.21-.33-.4-.41-.64-.57-1.7-1.13-3.39-1.68-5.09-.07-.2-.04-.43-.06-.65h.01c-.17-.3-.37-.58-.48-.9-1.03-2.9-2.51-5.58-3.98-8.27.13.47.25.95.42 1.4 1 2.84 2.22 5.6 2.82 8.55.91 4.46 2.37 8.78 3.44 13.2 1.88 7.7 3.77 15.43 5.16 23.25.65 3.65 1.31 7.3 1.87 10.97.39 2.57.59 5.17.88 7.76.27 2.32.54 4.63.91 6.95.2-1.95.51-3.9.55-5.86zm-1.69 1.4c-.37-2.7-.57-5.44-.94-8.16-.47-3.32-.95-6.64-1.57-9.94a645.76 645.76 0 00-3.18-15.7c-.81-3.76-1.72-7.5-2.65-11.22-.48-1.92-1.12-3.81-1.64-5.73a72.59 72.59 0 01-1.22-5.02 52.44 52.44 0 00-2.24-7.48.7.7 0 00-.4-.4c.11.8.18 1.62.35 2.4.98 4.67 1.95 9.34 2.99 14 .78 3.49 1.41 7 1.94 10.54.56 3.67 1.16 7.33 1.74 10.99.36 2.31.67 4.63 1.07 6.94.54 3.13 1.1 6.25 1.73 9.37.75 3.72 1.47 7.45 2.42 11.13.77 3 1.17 6.06 1.81 9.08l.37 1.57c.31-4.29-.03-8.33-.58-12.37zm-14.4-63.67l.73 7.82c.19 1.98.48 3.95.6 5.93.3 4.85.88 9.66 1.78 14.44.6 3.17 1.03 6.36 1.66 9.52.75 3.76 1.67 7.5 2.47 11.25 1.52 7.22 3.72 14.26 5.84 21.31.06.21.16.4.4.6-.03-.35-.03-.71-.11-1.05-.59-2.53-1.26-5.05-1.78-7.6-1.15-5.58-2.31-11.15-3.29-16.75a498.86 498.86 0 01-2.92-18.44c-.79-5.74-2.19-11.34-3.38-17-.65-3.1-1.19-6.24-1.78-9.36-.05-.23-.14-.44-.22-.67zm-2.8 48.1c-1.4-4.36-2.53-8.79-3.44-13.27a42.14 42.14 0 003.44 13.27zm-3.03-40.76c-.06.2-.16.41-.18.63l-.62 10.3c-.08 1.5-.12 3-.18 4.5-.15 4.3.36 8.53 1.25 12.74a108.35 108.35 0 005.05 17.12c.35.9.74 1.8 1.18 2.66 1.7 3.34 3.42 6.68 5.15 10 1.2 2.33 2.75 4.42 4.28 6.63l.23-.4.53.5a1.75 1.75 0 00-.53-1.27l-.26-.54c-.16-.5-.27-1.02-.47-1.5-2.18-5.36-4.42-10.69-6.55-16.06-1.38-3.49-2.76-6.98-3.55-10.67-.69-3.28-1.25-6.59-1.94-9.87-.7-3.29-.95-6.63-1.33-9.97-.25-2.19-.56-4.37-.83-6.56-.45-3.6-.85-7.2-.75-10.82a.92.92 0 00-.18-.67l-.3 3.25zm2.17-12.2a23.45 23.45 0 00-1.08 7.44c.03 1.01-.02 2.03-.03 3.05-.04 3.94.39 7.85.9 11.75.33 2.5.69 4.98.93 7.49.24 2.51.59 5 1.1 7.47.59 2.9 1.04 5.82 1.71 8.7a74.71 74.71 0 001.97 6.87c1.9 5.7 4.21 11.26 6.56 16.79 1.33 3.13 2.7 6.24 4.08 9.35.18.4.49.74.75 1.1-.73-2.23-1.41-4.48-2.19-6.7-1.7-4.83-3.45-9.64-5.18-14.46-1.06-2.96-1.68-6.03-2.4-9.08a255.09 255.09 0 01-3.41-17.54c-.5-3-.9-6.01-1.33-9.02-.06-.45-.04-.92-.05-1.37.17.7.38 1.38.48 2.08 1 7.25 2.24 14.45 3.81 21.6.68 3.1 1.44 6.18 2.19 9.26.69 2.88 1.91 5.59 2.89 8.37 1.61 4.62 3.19 9.25 4.79 13.88.44 1.25.9 2.48 1.37 3.72.08.21.23.4.36.6-.5-1.62-.99-3.24-1.5-4.85-1.97-6.27-4.06-12.5-5.52-18.92a667.62 667.62 0 01-3.96-18.23c-.88-4.41-1.5-8.87-2.21-13.32-.17-1.04-.2-2.1-.3-3.16-.35-3.69-.69-7.38-1.06-11.06-.3-3.07-.61-6.13-.94-9.2-.2-.95-.38-1.9-.54-2.86a.32.32 0 01-.24-.22c-.27-.98-.44-1.99-.54-3l-.3-.06c-.47 1.48-.5 2.97-.32 4.46a32 32 0 01.07 5.95l-.37-7.77-.16-.03c-.11.3-.23.6-.33.91zm-1.16-1.37c.69-1.35 1.26-2.77 1.87-4.15-.14.13-.31.25-.4.42-.96 1.83-1.91 3.68-2.85 5.52-.09.18-.11.4-.15.6.52-.8 1.11-1.55 1.53-2.4zm-12.97 28.5l-.48 1.19c.34-.33.44-.75.48-1.2zm-2.48 6.1l1.93-4.8c-.12.16-.27.3-.34.46a55.23 55.23 0 00-2.02 5.01c.15-.22.33-.43.43-.68zm-4.52 12.58l-.19-.03c-.04.13-.12.27-.1.4.01.1.14.18.33.41l-.04-.78zm3.1 12.16c0 .3-.02.6 0 .9.16 2.07.32 4.14.51 6.2.37 4.02.07 8.04.29 12.05.21 3.8.26 7.6.18 11.4-.05 1.94-.21 3.88-.19 5.82.04 3.93.16 7.85.25 11.78h.19l.28-4.74c.14-2.02.29-4.05.45-6.07.2-2.56.1-5.12.02-7.68-.11-3.8-.19-7.6-.16-11.4.02-2.83-.09-5.64-.5-8.45-.29-2-.43-4.04-.63-6.06a14.61 14.61 0 00-.69-3.75zm2 53.98a95.11 95.11 0 001.4-10.63c.47-5.42.9-10.84.67-16.28-.17-4.1-.39-8.21-.79-12.3-.24-2.5-.83-4.96-1.3-7.43-.08-.45-.29-.87-.45-1.3.11 1.38.16 2.77.36 4.14.41 2.77.48 5.54.45 8.33-.06 3.66.01 7.33.06 11 .02 1.98.16 3.97.17 5.95 0 1.2-.18 2.38-.25 3.57-.09 1.37-.12 2.74-.23 4.1-.2 2.69-.42 5.37-.66 8.05-.22 2.6-.47 5.19-.49 7.82.36-1.67.72-3.34 1.06-5.02zm-2.67 9.7c.36-2.36.66-4.72.98-7.08.05-.4.09-.8.09-1.2 0-5.2-.03-10.42.01-15.63.03-3.8.16-7.6.21-11.4.02-1.8-.02-3.62-.05-5.43-.03-1.68-.1-3.35-.14-5.03-.09-4.07-.11-8.13-.29-12.2-.09-2.28-.42-4.56-.68-6.84-.12-1.1-.22-2.2-.47-3.27-.33-1.46-.79-2.88-1.2-4.32 0 3.28-.09 6.55.48 9.79.26 1.47.31 2.98.38 4.48.1 2.51.15 5.03.21 7.55.04 1.85.09 3.7.07 5.56-.05 3.27-.18 6.54-.21 9.8-.04 4.2-.06 8.4.01 12.6.06 4.02.23 8.04.41 12.06.15 3.28-.23 6.53-.39 9.79a70.07 70.07 0 00-.09 4.1c.42-1.07.49-2.21.67-3.33zm-3.13-.57l-.35-3.63c-.14-1.49-.31-2.98-.4-4.48-.14-2.65-.2-5.3-.35-7.94-.52-9.41-.25-18.82-.22-28.23.01-4.42.24-8.84.58-13.24.28-3.66.63-7.3.77-10.97.03-.87.17-1.74.29-2.9-.59.83-.67 1.54-.78 2.2-.37 2.1-.66 4.2-1.01 6.28-.39 2.3-.86 4.6-1.22 6.9-.29 1.93-.51 3.86-.7 5.79-.28 2.94-.51 5.89-.75 8.83-.05.58-.05 1.15-.07 1.72-.08 1.94-.26 3.89-.23 5.83.07 3.3.27 6.61.43 9.92.08 1.68.19 3.35.29 5.02.21 3.58.81 7.1 1.52 10.61.51 2.5 1.14 4.99 1.72 7.48.07.29.2.56.3.84l.18-.03zm.75.74v-3.3l.22-19.48.06-2.52.34-26.76c.06-4.86-.04-9.72-.35-14.57-.06-.92-.2-1.83-.31-2.75h-.07c-.09 1.37-.17 2.74-.27 4.1l-.71 9.37c-.03.36-.07.7-.08 1.06-.3 7.2-.52 14.4-.33 21.6.04 1.85-.06 3.7-.03 5.56.05 3.58.14 7.15.24 10.73.08 2.47.17 4.94.34 7.41.19 2.73.47 5.45.72 8.17.04.47.1.93.23 1.38zm1.1 4.62c.16-2.91.37-5.82.48-8.73.09-2.38.13-4.77.09-7.15-.07-3.8-.24-7.6-.33-11.39-.07-2.96-.15-5.92-.12-8.88.05-4.68.24-9.36.29-14.04.03-2.25-.11-4.5-.18-6.75l-.13-.01c-.01.21-.03.43-.03.65l-.32 22.8c-.09 6.18-.15 12.36-.31 18.54-.07 2.74-.13 5.47.02 8.21.1 1.99.07 3.98.11 5.97.02.56.1 1.12.37 1.68l.06-.9zm-1.24 2.13c.03.1.13.2.21.29a19.75 19.75 0 00-.96-5.95c-1.47-4.23-2.28-8.62-3.05-13a101.32 101.32 0 01-1.33-16.23c-.02-1.24-.15-2.47-.19-3.7-.15-4.07.05-8.12.42-12.17.25-2.6.32-5.2.6-7.8.28-2.53.7-5.06 1.1-7.59.39-2.48.87-4.95 1.23-7.44a35.4 35.4 0 011.26-5.68c.11-.33.24-.67.27-1.02.02-.28-.09-.56-.36-.86-.19.57-.39 1.14-.56 1.72a90.65 90.65 0 00-2.61 11.62 249.8 249.8 0 00-1.53 9.8c-.3 2.28-.37 4.58-.64 6.86-.57 4.84-.55 9.7-.47 14.56.04 2.07.36 4.13.56 6.2l.43 4.48c.63 6.73 1.61 13.41 3.5 19.92.58 2.03 1.4 4 2.12 6zm-8.14-55.6a93.86 93.86 0 00-.99 15.99c.2 9.3 1.94 18.32 4.63 27.2.1.34.29.66.45 1l-.32-2.02c-.43-2.83-.92-5.66-1.27-8.5-.48-3.95-.91-7.9-1.26-11.85-.18-2.06-.16-4.15-.18-6.22-.02-1.41.08-2.83.06-4.24-.07-3.2.37-6.34.67-9.5.21-2.12.37-4.23.67-6.33.43-2.92.96-5.83 1.48-8.74.35-1.95.76-3.88 1.09-5.84-.5.8-.83 1.69-1.1 2.59a121 121 0 00-3.93 16.47zm-11.25 8.98a40.01 40.01 0 004.15-6.13c2.74-5.04 5.52-10.05 8.27-15.09.61-1.12 1.2-2.26 1.7-3.44.32-.73.46-1.54.68-2.32-.18.27-.38.53-.52.82a234.73 234.73 0 01-12.79 23.16c-.71 1.13-1.34 2.31-2.01 3.47.19-.15.38-.29.52-.47zm-6.21 15.64c-.11 1.68.09 3.32.57 4.93l-.57-4.94zm-.71-.26l-.13.02-1.08 13.47c-.05.7-.05 1.41-.06 2.12-.02 3.85-.4 7.66-.97 11.47a81.64 81.64 0 00-.83 8.97c-.09 2.57-.42 5.1-.72 7.65l-1 8.68c-.19 1.67-.42 3.33-.62 5a7.7 7.7 0 00.03 2.24c.11-.27.22-.54.31-.82.83-2.7 1.33-5.49 1.78-8.28.55-3.4 1.21-6.78 1.72-10.19.33-2.18.51-4.38.71-6.58.27-2.95.56-5.9.73-8.85.23-4.15.46-8.3.29-12.45-.11-2.52-.09-5.04-.12-7.56l-.04-4.89zm-.85 51.53a79.84 79.84 0 003.64-15.85c.31-2.58.46-5.19.63-7.79.12-1.76.19-3.53.22-5.3.07-5.73-.83-11.34-2.16-16.9-.03-.11-.1-.21-.16-.31.17 2.62.38 5.25.49 7.88.14 3.44.22 6.88.3 10.33.06 2.43.06 4.86.1 7.29.03 2.17-.09 4.32-.47 6.46-.18 1.04-.24 2.11-.3 3.17-.1 1.56-.57 3.02-1 4.51-.77 2.72-1.48 5.45-2.21 8.18-.07.27-.06.56-.08.85.34-.84.72-1.66 1-2.52zm-2.64 6.14c.64-2.34 1.21-4.7 1.83-7.05.49-1.83.95-3.68 1.53-5.48.58-1.83.94-3.68 1.1-5.58.13-1.45.34-2.9.47-4.34.1-1.14.17-2.3.17-3.44-.01-4.24.01-8.49-.09-12.73-.08-3.35-.3-6.7-.48-10.06a16.86 16.86 0 00-.48-3.42c-.02.43-.05.87-.04 1.3l.2 7.95c.01.35.04.7.02 1.06-.19 3.97-.17 7.94-.62 11.9-.29 2.6-.38 5.2-.64 7.8-.22 2.14-.49 4.3-.84 6.42-.64 3.88-1.3 7.75-2.07 11.6-.47 2.34-1.17 4.62-1.76 6.93l-.37 1.47a13.47 13.47 0 002.07-4.33zm-2.73 3.48c0-2.57.45-5.1.75-7.64.23-2.02.41-4.04.64-6.06.29-2.41.61-4.82.91-7.23.07-.53.14-1.05.16-1.58.07-3.63.34-7.24.81-10.83.13-.97.33-1.92.46-2.88.47-3.5.65-7.04.65-10.58 0-.12-.04-.25-.07-.38l-.15.04c-.26 1.7-.48 3.4-.79 5.1a49.74 49.74 0 01-.9 4 74.69 74.69 0 00-2.35 13.01c-.22 2.56-.47 5.1-.69 7.66-.07.79-.08 1.58-.1 2.38l-.34 16.17c-.01.83.04 1.66.14 2.5.59-1.16.87-2.4.87-3.68zm4.78-61.24a94.88 94.88 0 00-6.28 22.8 122.03 122.03 0 00-1.34 20.74c.04 2.08.06 4.16.13 6.23.03 1.14.16 2.28.31 3.42.11-1.49.24-2.97.34-4.46.21-3.12.36-6.26.63-9.38.31-3.65.57-7.3 1.18-10.92.19-1.08.25-2.2.3-3.3.18-3.77 1.04-7.42 1.89-11.07.64-2.75 1.24-5.51 1.88-8.26.12-.5.36-.98.55-1.46-.07.43-.13.87-.22 1.3-1.04 4.74-2.14 9.46-3.11 14.22-.37 1.8-.47 3.67-.68 5.5l-.6 5.4c-.14 1.27-.3 2.54-.42 3.8-.17 1.67-.31 3.34-.46 5.01l-.06.93-.47 6.2c-.01.13-.04.26-.04.4-.12 3.75-.47 7.49-.29 11.25.08 1.5.35 2.96.78 4.42l.03-1.39c-.01-3.75-.05-7.51-.04-11.27.01-4.2.29-8.37.68-12.56.35-3.7.87-7.36 1.64-10.99.15-.69.3-1.38.51-2.06a51.21 51.21 0 001.86-8.66c.46-3.23 1.02-6.45 1.47-9.68.22-1.6.29-3.21.45-5.04l-.52.85.26-2.61c-.12.21-.27.41-.36.64zm1.9-.92l.41-4.25c-.68.96-.71 1.22-.41 4.25zm-7.93 1.56c-.76.63-1.51 1.27-2.28 1.88-.27.2-.59.34-.88.5.78-.75 1.54-1.53 2.34-2.27 1.96-1.8 3.95-3.6 5.93-5.4.53-.2.94-.55 1.23-1.02l-1.29.97c-.3.18-.62.33-.89.55-2.83 2.38-5.66 4.77-8.47 7.19-.39.33-.68.8-.96 1.23-.09.15 0 .4.01.6-.92 1.26-1.48 2.7-2.07 4.1-.01.03.05.08.13.2.68-.76 1.36-1.49 2.02-2.24 1.64-1.9 3.26-3.82 4.89-5.73.13-.16.2-.37.29-.56zm-4.53-8.75c.47-2.74 1.26-5.43 1.7-8.17.66-4.02 1.67-7.96 2.37-11.95.59-3.36 1.58-6.62 2.15-9.97.48-2.8.88-5.59.98-8.42.07-2.03.21-4.06.21-6.1 0-2.91-.1-5.83-.15-8.74l-.06-1.1c-.4 2.86-.8 5.6-1.15 8.36-.24 1.93-.5 3.86-.6 5.8a86.15 86.15 0 01-2.53 16.2c-1.06 4.34-2.25 8.65-3.16 13-1.01 4.85-1.98 9.7-2.49 14.63-.08.75-.06 1.5-.08 2.25l-.23 6.76c-.01.16-.01.31.04.47 1.07-4.33 2.25-8.62 3-13.02zm4.75 10.7c-.6.63-1.19 1.27-1.8 1.89-.32.32-.68.62-1.03.92-.25.4-.46.83-.76 1.19-2.15 2.63-4.4 5.2-6.47 7.9a193.8 193.8 0 00-9.67 13.93c-2.71 4.3-5.64 8.45-8.46 12.68a686.96 686.96 0 00-4.8 7.31c-.24.38-.38.81-.57 1.23.58-.7 1.18-1.37 1.73-2.08a435.9 435.9 0 0014.25-19.13c1.26-1.82 2.58-3.6 3.93-5.34 3.11-4.04 5.7-8.41 8.46-12.68 1.24-1.92 2.56-3.8 3.83-5.72.46-.69.91-1.4 1.36-2.1zm-9.98 7.05c-.21.18-.45.36-.66.58-2.43 2.56-4.9 5.1-7.27 7.72a42.37 42.37 0 00-3.36 4.27c-1.96 2.83-3.93 5.66-5.7 8.62a91.47 91.47 0 00-6.07 12.06c-.86 2.08-1.89 4.09-2.85 6.13l-.51 1.15c4.23-6.75 8.34-13.55 12.83-20.12 4.49-6.56 9.21-12.96 14.5-18.74a262 262 0 01-.91-1.67zm-26.55 44.85l.01-.01c.33-.28.68-.54 1.01-.83a111.5 111.5 0 0010.01-10.6c3.65-4.26 7.17-8.64 10.56-13.11 3.18-4.2 5.77-8.79 8.3-13.4 1.11-2.01 2.25-4 3.37-6.01.79-1.43 1.55-2.87 2.33-4.3l.21-.56.24-.52a.33.33 0 01-.23 0l-.17-.08c-.02 0-.05.05-.08.07l-.27.28-.26.53c-.22.2-.49.38-.66.62-.47.64-.94 1.28-1.35 1.97a251.3 251.3 0 01-12.98 19.31 619.28 619.28 0 01-16.39 21.78c-.25.32-.72.59-.45 1.13-.2.28-.35.59-.59.83-.57.6-1.21 1.14-1.77 1.75-.32.34-.56.75-.84 1.14zm-1.27-.09c1.23-1.68 2.51-3.34 3.68-5.07 3.37-5.02 6.71-10.06 10.05-15.1 1.56-2.36 3.15-4.7 4.64-7.09 2.76-4.42 5.83-8.63 8.93-12.82l.21-.32c-.11.02-.21-.05-.27-.15l-.04.04c-6.51 7.48-12.16 15.59-17.4 23.97-3.09 4.94-6.05 9.96-9.05 14.96-.3.5-.5 1.05-.75 1.58zm27.2-46.2c-3.78 3.58-7.61 7.12-10.91 11.18a79.67 79.67 0 00-13.38 23.93c-.95 2.67-1.87 5.34-2.8 8-.08.24-.1.49-.15.73.1-.13.21-.24.27-.38l5.1-11.36a84.77 84.77 0 018.49-15.25c.73-1 1.36-2.07 2.12-3.04 1.39-1.77 2.76-3.57 4.28-5.23 2.48-2.69 5.08-5.28 7.71-7.99l-.21-.94c-.23.16-.4.23-.52.35zm9.36-69.15c-1.67 4.47-2.87 9.1-4.18 13.67a117.92 117.92 0 00-3.79 18.13l-.22 1.7c-.01.13.02.26.05.56 3.87-11.5 6.2-23.2 8.51-34.93-.13.29-.26.58-.37.87zm.04 3.72c-.94 4.35-1.84 8.72-2.83 13.06a223.2 223.2 0 01-4.71 16.83c-.24.75-.43 1.53-.63 2.3a15.9 15.9 0 00-.58 4.44c.04 2.08.03 4.15.04 6.23 0 .24.02.48.18.73.07-.33.16-.66.2-1 .69-6.28 1.56-12.53 3.22-18.63.81-2.98 1.8-5.91 2.8-8.83a43.55 43.55 0 001.92-7.7c.43-2.88.86-5.76 1.25-8.65.19-1.38.3-2.78.45-4.18l-.18-.02-1.13 5.42zm2.18-9.33c-.31 2.8-.56 5.62-.89 8.43-.3 2.54-.68 5.07-1 7.61a36.53 36.53 0 01-1.8 7.87c-.42 1.16-.82 2.33-1.23 3.5a69.91 69.91 0 00-3.19 11.6c-.72 4.18-1.45 8.36-1.96 12.57a49.17 49.17 0 00-.17 10.98c.13 1.32.07 2.65.14 3.97.12 2.39.28 4.77.42 7.15l.09.63h.28c.02-.24.05-.48.05-.73l.02-4.5c.01-.66.07-1.32.06-1.98-.05-3.95.35-7.85 1.08-11.73.77-4.03 1.4-8.1 2.45-12.07 1.02-3.89 1.97-7.8 2.92-11.7.96-4 1.59-8.05 1.85-12.16.22-3.49.63-6.95 1.18-10.4.4-2.57.64-5.17.63-7.79-.02-1.58.08-3.17.13-4.77a9.77 9.77 0 00-1.06 3.52zm1.64.53l.03-.55v-2.3h-.12v2.84l.09.01zm.62-3.52c-.05 3.45-.11 6.9-.13 10.34-.01 1.41.08 2.83.08 4.24 0 2.07-.01 4.15-.07 6.22-.06 1.6-.18 3.18-.3 4.76a66.67 66.67 0 01-1.61 9.93c-.46 1.97-.81 3.98-1.22 5.96-.61 2.9-1.25 5.78-1.86 8.68-.81 3.84-1.62 7.69-2.38 11.54-.57 2.86-1.08 5.73-1.9 8.53-.09.3-.09.64-.12.97.28-.56.58-1.12.84-1.7 1-2.17 1.81-4.4 2.45-6.71.64-2.34 1.48-4.63 2.1-6.97a58.14 58.14 0 011.87-6.07 26.52 26.52 0 001.52-5.62c.35-2.22.86-4.42 1.25-6.63.52-2.97.58-5.98.59-8.99.01-2.51-.05-5.03-.06-7.55-.01-3.71.12-7.43-.05-11.14-.14-3.2-.05-6.45-.67-9.63-.12-.6-.1-1.23-.28-1.86l-.05 1.7zm-5.52 63.23c.68-1.86 1.4-3.71 2.04-5.58a171.71 171.71 0 005.46-19.93c.46-2.15.65-4.36.86-6.56.41-4.4.45-8.82.32-13.24-.06-1.9-.33-3.79-.58-5.67-.3-2.23-.68-4.45-1.04-6.67a2.95 2.95 0 00-.36-1c.1 1.7.22 3.38.29 5.07.06 1.24.12 2.48.05 3.7-.13 2.57-.12 5.13.02 7.69.23 4.06.14 8.13-.07 12.19-.18 3.41-.95 6.73-1.5 10.08a44.97 44.97 0 01-2.15 7.9c-.48 1.38-.81 2.8-1.22 4.2l-1.41 4.83c-.29.97-.62 1.92-.93 2.88l.22.11zm6.45-66.18c.06 1.63.16 3.27.62 4.85 1.11 3.87 1.65 7.85 2.25 11.83.6 4.05.51 8.1.34 12.17-.13 3.1-.36 6.18-.89 9.22a86.83 86.83 0 01-1.72 7.62 225.16 225.16 0 01-7.41 22.8 48.8 48.8 0 00-1.78 5.68c.46-.4.9-.81 1.38-1.2 2.84-2.24 5.7-4.47 8.54-6.72 1.03-.82 2.04-1.68 3.05-2.54.24-.2.45-.44.62-.7.87-1.32 1.76-2.64 2.59-3.99a280.92 280.92 0 009.71-17.35c4.29-8.19 8.05-16.6 11.46-25.2 2.89-7.31 5.97-14.55 9-21.8.85-2.05 1.81-4.04 2.77-6.03l8.9-18.37c.13-.25.2-.54.29-.8-.34.38-.72.73-1 1.15-1.68 2.52-3.78 4.67-5.9 6.8-3.06 3.07-6.25 6-9.6 8.75l-6.54 5.4a36.84 36.84 0 01-6.28 4.18c-3.72 1.95-7.45 3.87-11.17 5.82-.78.4-1.53.88-2.29 1.31l-.75.4c-.45-.14-.55-.4-.45-.75.04-.12.11-.24.17-.35a77.37 77.37 0 018.7-12.66 48.95 48.95 0 018.55-7.7 85.86 85.86 0 0112.98-7.42c2.67-1.28 5.31-2.63 7.91-4.03 1.2-.65 2.3-1.49 3.41-2.29.38-.27.64-.7.97-1.05.42-.45.8-.95 1.27-1.34 3.35-2.76 5.95-6.16 8.32-9.74.92-1.4 1.74-2.87 2.64-4.29.38-.59.89-1.1 1.28-1.68a175.57 175.57 0 0112.36-16.07 257.78 257.78 0 0120.11-21.1c4.91-4.6 10.07-8.88 15.38-13 1.75-1.35 3.48-2.73 5.2-4.1.19-.16.34-.35.5-.53-.55.21-1.11.4-1.64.66-1.42.7-2.83 1.44-4.25 2.16a48.83 48.83 0 00-6.89 4.2 41.88 41.88 0 01-5.94 3.75 93.67 93.67 0 00-12.9 8.08c-5.3 3.83-10.6 7.66-15.71 11.75a351.55 351.55 0 00-18.06 15.4c-5.07 4.67-10.11 9.37-15.12 14.1-3.8 3.59-7.32 7.44-10.79 11.33-1.74 1.94-3.55 3.82-5.23 5.81a470.36 470.36 0 00-8.24 10.05c-3.22 4.05-6.35 8.17-9.54 12.23a4.1 4.1 0 00-1.01 2.79c.03.83-.2 1.67-.17 2.5zm-48.17 112.32c2.11-4.82 4.19-9.65 5.45-14.78 1.12-4.6 2.01-9.23 2.52-13.94.48-4.39 1.06-8.77 1.46-13.17.28-2.98.32-6 .38-9-.52 1.33-.68 2.74-.91 4.12-.6 3.57-1.16 7.15-1.72 10.73-.17 1.09-.29 2.19-.42 3.28-.3 2.68-.57 5.36-.9 8.03-.26 2.06-.44 4.14-.93 6.15-1.03 4.3-2.21 8.55-3.37 12.8-.47 1.75-1.05 3.47-1.57 5.2-.09.28-.13.57-.19.86.07-.1.15-.18.2-.28zm7.56-42.97l-.08 1.02.28-.98-.2-.04zm-11.82 51.1a74.27 74.27 0 005.52-14.86c1.1-4.04 2.16-8.09 3.08-12.17.48-2.14.64-4.36.95-6.54.22-1.62.45-3.23.65-4.85.16-1.31.23-2.63.4-3.95.2-1.52.47-3.04.69-4.57.08-.52.11-1.05.16-1.58-.27 1.02-.58 2.03-.81 3.05-.88 3.83-1.79 7.66-2.57 11.5-1.06 5.2-2.24 10.36-3.42 15.53a167.8 167.8 0 01-3.06 11.24c-.8 2.66-1.52 5.35-2.28 8.02-.03.11-.03.23-.04.35.25-.4.51-.77.73-1.18zm-2.93 5.77c.84-2.23 1.61-4.49 2.3-6.76a291.26 291.26 0 005.94-22.53c1.04-4.56 2-9.14 2.99-13.7 1.09-5 2.2-10 3.26-15.01.83-3.93 1.6-7.87 2.4-11.8.19-.91.19-1.82.01-2.74-.24 1.29-.43 2.6-.74 3.87-.53 2.19-1.1 4.36-1.73 6.52-1.65 5.73-3.34 11.44-5.01 17.16-.81 2.75-1.7 5.48-2.4 8.26a982.97 982.97 0 00-5.02 20.71c-1.42 6.2-2.65 12.43-3.96 18.65-.07.32-.06.67-.07 1a11.46 11.46 0 002.03-3.63zm-1.82-.16c.97-4.75 1.83-9.54 2.94-14.27 1.94-8.3 3.9-16.6 6.12-24.82 2.07-7.67 4.47-15.25 6.78-22.85a85.42 85.42 0 002.46-10.71c.21-1.3.46-2.6.69-3.91.04-.24.05-.48-.12-.78-.21.47-.43.94-.62 1.42a86.5 86.5 0 00-4.41 13.59c-.11.5-.36.97-.55 1.45.21-1.03.39-2.07.63-3.1a77.36 77.36 0 012.81-9.3c-.23.29-.51.54-.67.86-.72 1.42-1.48 2.82-2.07 4.3-2.14 5.32-4.35 10.62-6.02 16.11a376.48 376.48 0 00-3.97 14c-.73 2.82-1.18 5.7-1.74 8.56-.61 3.11-1.24 6.23-1.8 9.35-.36 1.95-.62 3.92-.91 5.88a1 1 0 00.14.67c.32-1.56.58-3.14.96-4.69 1.07-4.28 2.17-8.55 3.27-12.82 1.19-4.62 2.68-9.14 4.21-13.66.09-.28.27-.53.41-.8-.14.6-.22 1.21-.41 1.8a292.59 292.59 0 00-6.53 23.6c-.92 3.91-1.55 7.89-2.22 11.85-.23 1.38-.23 2.82-.28 4.23-.07 2.64-.1 5.3.06 7.97.28-1.31.57-2.61.84-3.92zm.66-45.05a56.82 56.82 0 00-3.77 13.35 82.28 82.28 0 00-1.11 12.92c-.01 2.08-.02 4.15-.01 6.23 0 .43.06.85.16 1.28.14-2.64.31-5.29.41-7.93.16-4.11.52-8.19 1.19-12.25l.25-1.46c-.04-.02-.07-.07-.06-.14a92.9 92.9 0 013.62-13.11l.02-.12c-.23.4-.51.8-.7 1.23zm2.6-5.31c-.6 1.56-1.09 3.16-1.65 4.74-.07.22-.17.44-.27.65a137.93 137.93 0 00-2.72 9.56 79.55 79.55 0 00-.68 4.09 97.39 97.39 0 00-.94 8.68l-.08 1.2-.49 9.52-.05 1.59c-.07 1.94-.18 3.88-.19 5.82-.01 1.37.14 2.73.32 4.1.1-2.53.23-5.06.28-7.6.08-3.4.5-6.78.92-10.15.29-2.37.57-4.74.92-7.1.54-3.57 1.1-7.15 1.73-10.71.56-3.17 1.11-6.36 2.08-9.44 1.32-4.21 2.64-8.43 4.4-12.49.14-.32.22-.67.32-1a66.97 66.97 0 00-3.9 8.54zm4.58-8.5c-1.78 3.77-3.01 7.74-4.29 11.7a83.55 83.55 0 00-2.66 11.47c-.62 3.56-1.26 7.13-1.76 10.71-.57 4.07-1 8.15-1.48 12.23-.37 3.16-.48 6.34-.55 9.52-.04 2.17-.14 4.33-.19 6.5-.03 1.4.27 2.78.44 4.18l.34.04c.07-.32.19-.64.2-.97.12-3.75.15-7.5.35-11.26.15-2.68.47-5.36.81-8.03.34-2.71.75-5.42 1.21-8.11.71-4.18 1.53-8.34 2.24-12.52.89-5.2 2.6-10.17 3.97-15.24 1.33-4.96 3.24-9.72 5.06-14.5.63-1.66 1.28-3.3 1.93-4.94 1.17-2.98 2.86-5.68 4.4-8.46.38-.7.7-1.42 1.03-2.15.18-.39.29-.8.52-1.42-.75.46-1.06.96-1.36 1.48a253.15 253.15 0 00-10.21 19.78zm-34.55 33.35a61.85 61.85 0 00-8.12 18.02c-.03.12-.02.25-.04.65.24-.56.38-.87.49-1.19 2.22-6.1 5.04-11.94 8.13-17.65.11-.2.18-.44.26-.67-.24.28-.52.54-.72.84zm.65.58c-4.59 8.14-8.37 16.65-10.55 25.79-.48 2-.66 4.09-.95 6.14a17.44 17.44 0 00-.18 3.33l.35-1.01c.79-2.44 1.53-4.89 2.39-7.3 1.1-3.07 2.28-6.12 3.45-9.17.41-1.07.88-2.12 1.36-3.16.12-.27.35-.48.53-.72-.08.34-.13.69-.26 1-.77 1.93-1.58 3.83-2.32 5.76-1.05 2.76-2.1 5.52-3.06 8.3-.73 2.12-1.33 4.3-1.97 6.44-.07.24-.06.5-.09.74.19-.32.41-.63.56-.97 2.51-5.4 4.99-10.82 7.52-16.22.77-1.63 1.67-3.2 2.51-4.81 2-3.84 3.98-7.69 5.99-11.51 2.44-4.66 4.89-9.3 7.36-13.94a75.19 75.19 0 003.47-7.43c.59-1.48 1.24-2.92 1.78-4.47-.17.2-.36.4-.5.62-2.32 3.7-4.62 7.42-6.94 11.13-1.12 1.8-2.24 3.6-3.38 5.38-.15.24-.4.43-.61.64.19-.43.34-.9.59-1.3l9.23-15.1c.11-.16.16-.35.24-.54-.35.3-.73.58-1.02.93-5.71 6.76-11.15 13.73-15.5 21.45zm-8.35 31.35a30.67 30.67 0 003.63-5.24c3.01-5.55 6.02-11.09 8.96-16.66 1.27-2.42 2.45-4.9 3.54-7.4 1.53-3.52 2.95-7.08 4.39-10.63.17-.42.24-.87.35-1.3a451.86 451.86 0 00-9.71 18.4 94.2 94.2 0 01-2.36 4.44 208.89 208.89 0 00-7.78 15.91c-.37.81-.68 1.65-1.02 2.48zm-45.14-50.6c-.29.03-.58.08-.9.28.28.07.55.17.82.22 3.9.76 7.8 1.5 11.69 2.3 1.73.35 3.41.9 5.19.98.16 0 .31.14.46.22h-1.17c1.19.62 2.49.75 3.76.98 3.79.7 7.61.93 11.46.89 1.95-.02 3.88-.16 5.79-.56 1.89-.4 3.8-.76 5.7-1.16a31.18 31.18 0 005.9-1.95c.1-.04.18-.13.41-.3l-5.49.93-7.96 1.3c-.39.07-.79.1-1.19.12l-8.86.3c-.62.03-1.23.08-1.85.15-1.5.17-2.99 0-4.46-.3-.08-.01-.14-.1-.2-.16.57.04 1.14.1 1.71.12.84.04 1.68.1 2.51.07 1.06-.03 2.11-.16 3.17-.2 2.47-.12 4.95-.17 7.41-.33 1.5-.1 2.98-.35 4.47-.55.11-.01.21-.1.31-.17l-9.34.43c-2.87.14-5.73.08-8.56-.55-1.42-.3-2.9-.33-4.33-.58-3.04-.54-6.07-1.11-9.09-1.75-2.43-.5-4.87-.87-7.36-.72zm5.25-.27c2.55.5 5.09 1.05 7.65 1.51 2.3.41 4.62.71 6.93 1.08 1.17.18 2.34.41 3.52.58 2.51.34 5.03.2 7.54.15 2.29-.05 4.58-.26 6.88-.38 2.75-.14 5.41-.75 8.03-1.56 2.07-.64 4.14-1.27 6.2-1.92a31.12 31.12 0 005.46-2.3c-2.13.51-3.95 1.03-5.8 1.39-4.63.9-9.3 1.6-14.02 1.95-.79.06-1.59.03-2.38.02-3.18-.05-6.36-.05-9.53-.19-3.27-.14-6.52-.37-9.79-.34-.79.01-1.58-.13-2.37-.25a22.94 22.94 0 00-8.32.26zm-3.2-.3c1.4-.12 2.8-.2 4.2-.35a31.2 31.2 0 017.26.01c1.4.18 2.82.25 4.22.32 2.16.1 4.32.18 6.48.26.58.02 1.15.06 1.72.06 3.63 0 7.25 0 10.87.02 2.62.01 5.19-.43 7.76-.84 3.31-.53 6.63-1 9.88-1.86 4.6-1.2 9.01-2.84 13.15-5.17.08-.04.14-.1.2-.17-.64-.1-.64-.1-1.27.09-3.13.94-6.25 1.9-9.39 2.8-3.14.9-6.26 1.87-9.5 2.38-1 .15-2.01.3-3.02.36-3.7.22-7.41.46-11.11.57-2.2.06-4.41-.1-6.62-.18-2.03-.07-4.05-.17-6.08-.28-1.32-.07-2.64-.18-3.97-.26-2.35-.15-4.67.13-6.98.5-2.44.4-4.87.86-7.3 1.3-.17.03-.33.1-.5.15v.29zm60.61-7.39l1.88-.27c-.69-.23-1.33-.2-1.88.27zm-39.72 3.4a19.7 19.7 0 00-5.79.23c-2.27.37-4.53.76-6.79 1.12h-.02l-1.55.49c.38.02.71-.08 1.04-.13.39-.08.79-.09 1.18-.15a35.8 35.8 0 018.98-.09l1.32.1c3.04.15 6.09.36 9.13.44 1.76.04 3.53-.1 5.29-.2 2.38-.12 4.76-.34 7.14-.4 3.3-.07 6.5-.65 9.66-1.5 2.13-.59 4.25-1.2 6.38-1.8.24-.06.47-.17.66-.46-.59.06-1.2.07-1.78.2-2.56.56-5.14.8-7.75.95-3.66.2-7.31.5-10.97.7-2.82.15-5.64.2-8.46.32-1.24.05-2.47.16-3.7.2-1.33.03-2.67.15-3.97-.02zm11.67-6.33c1.62-.2 3.26-.24 4.89-.32.79-.04 1.58 0 2.38-.04-4.38-.51-8.76-.66-13.17-.2-7.18.76-14 2.86-20.71 5.42-1.07.4-2.08.99-3.11 1.5.52-.14 1.04-.24 1.55-.42a105.7 105.7 0 0115.44-4.2c1.56-.31 3.16-.4 4.73-.62 2.67-.37 5.33-.8 8-1.12zm-1.83.72c-3.05.48-6.14.76-9.19 1.2-1.79.26-3.57.61-5.33 1.03-5.03 1.18-10 2.6-14.82 4.49-1.73.67-3.44 1.4-5.21 2.12 1.06.43 1.55.43 2.64.06l3.39-1.13.02.28.77-.27 2.76-.59c.47-.09.94-.14 1.42-.2l.22-.06a5.1 5.1 0 011.47-.45l.17-.05c.04-.01.07 0 .1.01.43-.06.87-.12 1.29-.2 1.91-.38 3.84-.63 5.75-.96 1.67-.29 3.34-.21 5.02-.09 1.01.07 2.03.05 3.04.02a365.54 365.54 0 0010.98-.5c3.4-.21 6.79-.45 10.18-.67 2.43-.17 4.85-.34 7.27-.59-1.98-.51-4-.5-6-.6-4.15-.2-8.3-.38-12.45-.51-2.43-.08-4.86-.18-7.29-.04-2.24.13-4.47.52-6.69.88a78.29 78.29 0 00-9.83 2.15c-.25.07-.52.06-.79.09.4-.18.78-.41 1.18-.53a81.35 81.35 0 0111.4-2.41c1.87-.28 3.76-.5 5.65-.69 1.01-.09 2.03-.07 3.04-.04 1.24.03 2.47.12 3.71.19l8.33.45c.97.05 1.94.1 2.91.07 2.35-.05 4.68.16 7.01.41 2.24.24 4.37-.22 6.46-1.11-.32-.02-.65-.03-.97-.06-3.56-.33-7.13-.63-10.68-1.02-1.13-.13-2.23-.58-3.36-.75a40.6 40.6 0 00-13.57.07zm15.14-.4c1.65.69 3.67 1 5.45.86l-5.45-.86zm20.78.89l-10.02.56-.01.03 4.89.1c.66.02 1.33-.01 1.99 0a5.6 5.6 0 003.15-.7zm-1.39 2.55c-3.91 1.83-7.83 3.68-11.77 5.46-1.32.6-2.72 1.04-4.11 1.49-2.43.78-4.89 1.51-7.33 2.26-.15.05-.3.1-.43.2 9.9-1 18.42-5.41 26.61-10.64l-.15-.23c-.93.48-1.86 1-2.82 1.46zm5.46-.81c-1.56 1.86-3.09 3.74-4.63 5.62-.09.11-.13.27-.19.42l2.07-2.13c.67-.7 1.39-1.38 1.98-2.14.55-.7.97-1.5 1.44-2.26-.23.15-.5.28-.67.49zm-29.53 63.51a45 45 0 007.73-10.06c1.98-3.5 3.97-6.98 5.89-10.52 1.15-2.13 2.2-4.33 3.23-6.52.93-2 1.78-4.05 2.68-6.06a67.64 67.64 0 002.81-7.29c.24-.76.52-1.5.8-2.24 1.81-4.66 3.64-9.3 5.43-13.96.81-2.13 1.54-4.3 2.31-6.46l-.26-.09c-.91 2.05-1.88 4.08-2.73 6.16-2.32 5.68-4.6 11.38-6.88 17.08a162.19 162.19 0 01-8.02 17.01l-6.84 12.72c-.42.78-.87 1.54-1.37 2.27-1.42 2.07-2.9 4.11-4.32 6.19a6.62 6.62 0 00-.99 2.2c.17-.15.37-.27.53-.43z"/><path d="M1784.57 157.26l.03.01h-.04l.01-.01zM1840.8 111.92h.07l-.06.02-.01-.02zM1911.3 124.84a208.77 208.77 0 01-3.74-36.23c-.01-.2.33-.2.34 0 .16 3.6.4 7.2.71 10.8l.06-.26v.94a348.88 348.88 0 003.04 24.7c.04.25-.36.31-.41.05zM1854.03 107.95l.56-.29-.56.29zM1802.17 147.74c-1.22.13-2.45.23-3.68.33-.12 0-.15-.2-.03-.2a53.6 53.6 0 004.13-.42 90.36 90.36 0 006.54-1.17l.74-.17h.02c2.48-.61 4.92-1.34 7.35-2.14.15-.05.31-.08.46-.1 1-.35 1.99-.7 2.97-1.1.22-.08.37.26.15.35a74.69 74.69 0 01-14.71 4.07 7.1 7.1 0 01-1.77.28c-.28.03-.55.08-.82.12l-.13.01c-.39.17-.8.16-1.22.14zM1787.33 151.49c-2.43-.35-4.87-.67-7.3-.93h-.1c-.99-.11-1.99-.21-2.98-.3-3.43-.3-6.89-.57-10.33-.52-1.15.02-2.3.1-3.43.23h.01v.07a30.9 30.9 0 01-.32-.03c-.73.09-1.45.2-2.17.34-.13.03-.16-.18-.03-.2a34.6 34.6 0 017.95-.72l-.01-.02h3.77v.1h-1.14c.95.05 1.9.1 2.85.17v-.06l.96.06v.07a174.14 174.14 0 0112.31 1.36c.06 0 .1.04.13.08 1.4 0 2.81-.05 4.2-.18.17-.02.21.24.04.26-1.41.13-2.81.17-4.22.1-.03.07-.09.13-.19.12zM1759.94 151.8h-1.16v.06h1.16v-.06z"/><path d="M1774.88 155.95a67.1 67.1 0 01-6.05-2.01 25.3 25.3 0 00-6.36-1.59 53.54 53.54 0 00-7.44-.04c-.15 0-.18-.22-.03-.23 2.15-.13 4.31-.26 6.46-.14 2.14.11 4.2.5 6.22 1.2l.03-.06.22.15.77.27.19.06.8.26.04.04-.05-.02-.31-.1.4.15-.04-.03.04.03a99.28 99.28 0 001.21.44l-.03-.01.04.01h-.01l.06.01.77.28.79.27.56.18.44.14.59.18c1.19.34 2.4.63 3.61.88l.41.04-.09.03c.46.08.91.17 1.37.24.36-.09.71-.05 1.05.14h-.22l.07.01.29.04-.05-.03c.67.04 1.37-.15 1.98.26l.27.02c.48-.03.97-.08 1.42.11 1.14.08 2.29.12 3.44.13.23 0 .19.36-.04.36-4.31.05-8.66-.56-12.82-1.67z"/><path d="M1770.98 154.33c-.05-.04-.07-.06 0 0zM1770.98 154.33zM1769.73 153.86c.06.01.1.02 0 0zM1780.54 156.72h.06l.03.02h-.05l-.04-.02zM1944.03 130.49a64.47 64.47 0 01-11.4-13.42l-.38-.56a.67.67 0 01-.18-.3l-.27-.43a.73.73 0 01-.28-.45l-.26-.42a1.6 1.6 0 01-.5-.82l-.34-.59c-.31-.32-.52-.7-.66-1.13a26.8 26.8 0 00-.41-.73 2.85 2.85 0 01-.68-1.25l-.22-.39c-.03-.01-.06-.03-.07-.06l-2.44-4.81c-.02-.04-.02-.1-.02-.14l-.29-.6c-.08-.11-.16-.23-.21-.35l-.46-1.1a181.4 181.4 0 01-3.18-7.33l-1.44-3.46a59.14 59.14 0 01-4.03-13.48c-.04-.2.26-.25.31-.05 1.13 4.47 2.48 8.92 4.12 13.23l.98 2.35c1.37 3.36 2.8 6.69 4.35 9.96a99.14 99.14 0 009.05 15.64l1.64 2.05c.08.1.14.23.19.36l.5.62c.2.16.4.33.54.53.5.7 1.24 1.23 1.61 2.02l.64.73c.44.38.89.84 1.26 1.32.9.94 1.82 1.85 2.77 2.73.18.17-.04.5-.24.33zM1804.82 206.33c2.74-10 5.86-19.94 9.18-29.77.03-.1.18-.04.15.06l-1.32 4.43.11-.18c-.03.3-.01.61-.09.9-.36 1.3-.73 2.6-1.13 3.9-.08.28-.25.53-.39.8l.03-.53-.64 2.15.36-.86c-.07.4-.09.79-.21 1.16-.42 1.35-.86 2.69-1.31 4.02-.07.22-.2.42-.31.63l-.82 2.72a.66.66 0 01-.11.36c-1.03 3.46-2.07 6.9-3.12 10.36-.07.26-.45.1-.38-.15zM1811.35 186.44l-.28.83.28-.83zM1844.69 113.38c1.31-.63 2.68-1.18 4.03-1.74.64-.27 1.29-.54 1.91-.86.65-.34 1.27-.74 1.89-1.13.24-.15.53.2.29.35-.58.37-1.17.73-1.77 1.06-.66.35-1.35.62-2.04.9-1.41.54-2.81 1.12-4.24 1.6-.11.03-.19-.13-.07-.18zM1850.61 110.85zM1921.93 119.69a63.2 63.2 0 00-1.64-5.13l-.74-2.02-.02-.07-.55-1.47a3.23 3.23 0 01-.43-1.18l-.18-.5a3.98 3.98 0 01-.66-1.85 53.76 53.76 0 01-1.79-6.26c-.04-.2.25-.23.3-.05 1.56 6.3 4.53 12.17 6.12 18.47.06.25-.34.3-.41.06zM1764.09 245.12c1.76-5.1 3.82-10.12 6.08-15.04.11-.35.23-.7.38-1.01.26-.53.55-1.05.83-1.57l1.01-2.1c.02-.14.05-.3.12-.42.94-1.92 1.89-3.83 2.86-5.73.06-.13.18-.23.3-.33l.46-.86c.27-.89.68-1.7 1.28-2.4l.38-.7c.34-.89.82-1.68 1.35-2.45.9-1.61 1.8-3.21 2.72-4.8.12-.21.43 0 .31.21a204.85 204.85 0 00-2.36 4.19l-.19.31a256.65 256.65 0 00-11.74 24.45c-1.17 2.78-2.27 5.6-3.4 8.4-.1.24-.48.1-.39-.15zM1772.07 226.26l.29-.56-.29.56zM1775.79 218.83l.28-.56-.28.56zM1922.17 169.54a126.48 126.48 0 01-4.79-10.87 2.1 2.1 0 01-.23-.38c-.6-1.37-1.23-2.73-1.76-4.13-1.97-5.2-3.9-10.4-5.84-15.6-.87-2.32-1.5-4.7-1.89-7.15-.37-2.3-.7-4.62-1.18-6.9a34.85 34.85 0 01-.81-7.49c.01-.35-.04-.7-.06-1.05-.13-2.3-.31-4.58-.38-6.87-.06-1.98 0-3.97.01-5.95.09.55.24 1.1.27 1.67.06 1.28.04 2.56.1 3.84.15 2.65.34 5.3.48 7.94.12 2.25.25 4.49.7 6.7.45 2.26.81 4.53 1.18 6.8.39 2.3.77 4.6 1.54 6.83l1.57 4.5a293.4 293.4 0 006.08 16c.05 0 .1.02.13.1.38.94.78 1.89 1.2 2.82l.16.36c1.3 2.9 2.75 5.72 4.22 8.52.23.44-.48.75-.7.3zM1919.31 162.6l-.28-.56.28.56zM1869.74 80.95c.59-.08 1.18-.2 1.77-.33h-.24c.29-.37.7-.3 1.09-.28v.08c.57-.14 1.15-.3 1.72-.46.14-.04.24.17.09.22-1.43.46-2.91.75-4.41.92-.09.01-.11-.13-.02-.15zM1730.95 193.1l.83-.29-.83.28zM1728.3 193.89l.82-.28-.82.28zM1727.5 194.15l.83-.28-.83.28zM1726.71 194.42l.82-.28-.82.28zM1725.91 194.68l.83-.28c-.28.1-.55.2-.83.28zM1725.12 194.95l.82-.28-.82.28z"/><path d="M1721.36 196.35c1.1-.39 2.21-.76 3.31-1.14h-.35l.82-.28v.1c1.83-.74 3.69-1.41 5.53-2.12.12-.04.2.1.14.18l.17-.01-.09.05 3.04-1c.1-.03.17.11.07.15a564.67 564.67 0 01-8.76 3.1c-.64.25-1.28.49-1.93.72-.04.02-.08 0-.12-.01-.56.19-1.13.4-1.7.58-.2.07-.35-.24-.13-.32zM1751.38 220.95l.82-.55-.82.55zM1732.54 229.97zM1734.4 229.17l.56-.28-.56.28zM1736.79 228.1l.56-.28-.56.29zM1737.32 227.84l.56-.28-.56.28zM1737.85 227.58l.56-.29-.56.29zM1738.38 227.31l.56-.28-.56.28zM1738.91 227.05l.56-.29-.56.29zM1739.44 226.78l.56-.28-.56.28zM1743.68 224.66l.56-.28-.56.28zM1744.21 224.4zM1747.13 223.07l.56-.28-.56.28zM1747.67 222.8l.55-.28-.55.28zM1748.2 222.54l.55-.28-.55.28zM1748.73 222.27l.55-.28-.55.28zM1749.26 222l.56-.27-.56.28zM1749.79 221.74l.56-.28-.56.28zM1750.32 221.48c.18-.1.37-.2.56-.28l-.56.28zM1750.85 221.21zM1752.17 220.41l.56-.28c-.18.1-.37.2-.56.28z"/><path d="M1730.72 230.51c.86-.22 1.7-.5 2.52-.82h-.17a1.8 1.8 0 011.36-.54l-.11.1.84-.38c-.08 0-.15.03-.23.03a3.35 3.35 0 011.8-.8c1.14-.56 2.26-1.16 3.39-1.73a3066.99 3066.99 0 009.61-4.85l2.98-1.5v-.15h.29l2.15-1.09c.18-.1.31.2.12.3l-2.01 1.01v.06h-.12l-7.6 3.84c-3.17 1.6-6.33 3.26-9.54 4.8-1.69.8-3.43 1.52-5.25 1.97-.15.04-.19-.2-.03-.25zM1858.29 191.51l.27-1.36-.27 1.36zM1854.02 210.78c1.02-3.9 1.56-7.9 2.29-11.86a68.46 68.46 0 012.9-11.28c.09-.23.43-.1.35.13-1.25 3.81-2 7.78-2.72 11.72-.69 3.83-1.45 7.66-2.47 11.42-.06.23-.41.1-.35-.13zM1893.53 92.7c.89-.59 1.77-1.18 2.65-1.79l.07-.08 2.48-1.7c1.11-.78 2.21-1.58 3.3-2.39a.27.27 0 01.1-.16 28.63 28.63 0 004.89-4.5c.31-.36.9.08.59.42a25.72 25.72 0 01-4.38 3.91c.03.11.01.24-.11.33a215.92 215.92 0 01-9.39 6.21c-.17.11-.38-.14-.2-.25zM1800.74 197.31l-.28.83.28-.82zM1800.47 198.11l-.28.83.28-.83zM1800.21 198.9l-.28.83.28-.82zM1799.94 199.7l-.28.83.28-.83zM1849.79 196.81zM1849 198.14l.55-.82-.55.82zM1848.2 199.47l.55-.83-.55.83zM1815.21 242.74c11.83-11.43 21.01-25 29.89-38.75 2.07-3.2 3.99-6.5 6.02-9.72v-.13l.26-.53.27-.27h.06l.68-1.06c.15-.22.46.02.33.25-.25.45-.52.9-.79 1.34v.02l-.18.3c-1.76 2.99-3.62 5.91-5.46 8.84-2.19 3.48-4.35 6.97-6.63 10.4-.94 1.42-1.91 2.83-2.88 4.23l-1.49 2.36c-.18.27-.43.5-.67.72l-.24.34c-.04.16-.07.33-.17.45a947.06 947.06 0 01-6.09 7.96c-.11.14-.24.26-.39.38l-.68.85a.67.67 0 01-.12.18l-.3.34-1.66 2c-2.93 3.5-6.04 6.86-9.31 10.06-.33.32-.78-.25-.45-.56zM1850.32 196.02l.29-.56-.29.56zM1849.53 197.34l.28-.56-.28.56zM1848.73 198.67zM1847.94 200l.28-.56-.28.56zM1844.49 205.3l.28-.56-.28.56zM1843.69 206.63l.29-.56-.29.56zM1842.9 207.96l.28-.57-.28.57zM1819.29 238.98l.28-.28-.28.28zM1819.55 238.72l.29-.28-.29.28zM1819.82 238.45l.28-.28-.28.28zM1820.08 238.19l.29-.28-.29.28zM1820.35 237.92l.28-.28-.28.28zM1865.74 116.41l2.51-1.8c.18-.24.42-.41.71-.51l.29-.21c.21-.32.51-.51.88-.62l.13-.1c.14-.25.36-.4.63-.44l1.46-1.04c.11-.08.25.08.14.16-2.16 1.63-4.34 3.24-6.52 4.84-.19.14-.42-.14-.23-.28zM1868.12 114.82l-.29.3.29-.3zM1734.21 201.3c-.11-.03-.06-.22.05-.2a45.17 45.17 0 003.06.47c.59.02 1.2-.1 1.76.2a57 57 0 006.08.2c.16 0 .16.25.01.26-3.66.29-7.39-.08-10.96-.94zM1845.71 193.93l2.45-1.95c.22-.27.48-.48.8-.63 1.52-1.21 3.05-2.43 4.55-3.68.18-.15.4.13.23.28-2.51 2.2-5.04 4.38-7.65 6.45-.31.25-.69-.23-.38-.47zM1847.43 192.8l-.29.3.29-.3zM1847.69 192.54l-.29.3.29-.3z"/><path d="M1847.96 192.28l-.29.29.29-.3z"/></g><defs><linearGradient id="paint0_linear" x1="0" y1="1" x2="1920" y2="1" gradientUnits="userSpaceOnUse"><stop stop-color="#ECF2F5"/><stop offset=".5" stop-color="#fff" stop-opacity="0"/></linearGradient><clipPath id="clip0"><path transform="matrix(0 1 1 0 1690 0)" fill="#fff" d="M0 0h257v230H0z"/></clipPath></defs></svg>