<svg width="1920" height="270" fill="none" xmlns="http://www.w3.org/2000/svg"><path fill="#EFEFEF" d="M0 0h1920v270H0z"/><path fill="url(#paint0_linear)" d="M0 0h1920v270H0z"/><mask id="a" maskUnits="userSpaceOnUse" x="0" y="0" width="1920" height="271"><path fill="#EFEFEF" d="M0 0h1920v270H0z"/><path fill="url(#paint1_linear)" d="M0 0h1920v270H0z"/></mask><g mask="url(#a)"><path d="M1392.39-344.28c-.45.84-.86 1.7-1.16 2.63a14.38 14.38 0 0027.5 8.49 14.33 14.33 0 00-9.5-17.96c-6.51-2-13.53.85-16.84 6.84zm-15.2 74.47a15.16 15.16 0 00-1.73 5.44 14.34 14.34 0 0012.86 15.76c7.9.83 14.94-4.87 15.77-12.78a14.4 14.4 0 00-12.82-15.8 14.46 14.46 0 00-14.08 7.38zm-.38 75.97c-1.38 2.57-2 5.49-1.72 8.38a14.35 14.35 0 1028.59-2.72 14.3 14.3 0 00-15.58-12.96 14.4 14.4 0 00-11.29 7.3zm14.51 74.64a14.47 14.47 0 00-1.16 11.11 14.3 14.3 0 0017.82 9.64 14.28 14.28 0 009.63-17.82 14.29 14.29 0 00-17.82-9.64 14.13 14.13 0 00-8.47 6.71zm28.8 70.38a14.25 14.25 0 00-.21 13.73c3.74 7 12.41 9.71 19.41 5.97a14.37 14.37 0 006.03-19.4 14.36 14.36 0 00-25.23-.3zm41.98 63.35a14.32 14.32 0 001.34 16.16 14.43 14.43 0 0020.22 2.13 14.39 14.39 0 002.09-20.25 14.33 14.33 0 00-20.2-2.05 13.6 13.6 0 00-3.45 4zm53.56 53.97a14.38 14.38 0 1026.79 5.8 14.46 14.46 0 00-5.22-9.7 14.35 14.35 0 00-20.19 1.83c-.5.7-.98 1.33-1.38 2.07zm62.81 42.9a14.4 14.4 0 005.8 19.47 14.4 14.4 0 0019.47-5.8 14.39 14.39 0 00-5.8-19.48 14.4 14.4 0 00-19.47 5.8zm70.12 29.37a14.4 14.4 0 1026.38 11.14 14.4 14.4 0 00-26.38-11.14zm74.54 15.17a14.79 14.79 0 00-1.73 5.44c-.37 3.76.76 7.56 3.18 10.53a14.61 14.61 0 009.65 5.28 14.33 14.33 0 0015.75-12.85 14.1 14.1 0 00-3.1-10.55 14.38 14.38 0 00-23.75 2.15zm76.08.3a13.92 13.92 0 00-1.75 8.31 14.42 14.42 0 0015.63 12.98 14.42 14.42 0 0012.95-15.7 14.34 14.34 0 00-26.83-5.58zm74.69-14.47a14.14 14.14 0 00-1.21 11.09 14.29 14.29 0 0017.82 9.63 14.28 14.28 0 009.63-17.82 14.29 14.29 0 00-17.82-9.63 13.82 13.82 0 00-8.42 6.73zm70.4-28.85a14.25 14.25 0 00-.21 13.73 14.36 14.36 0 10.21-13.73zm63.42-42a14.35 14.35 0 001.39 16.18 14.37 14.37 0 102.06-20.2 14.76 14.76 0 00-3.45 4.01zm141.11-260.94a14.47 14.47 0 00-1.65 5.42c-.4 3.8.73 7.6 3.1 10.54a14.76 14.76 0 009.7 5.31 14.43 14.43 0 0012.65-23.4 14.38 14.38 0 00-9.68-5.23 14.35 14.35 0 00-14.12 7.36zm-87.01 207.38a14.39 14.39 0 003.28 18.23 14.34 14.34 0 0020.23-1.89 14.33 14.33 0 00-1.89-20.22 14.33 14.33 0 00-21.62 3.88zm71.86-132.76c-.5.8-.86 1.7-1.14 2.57a14.42 14.42 0 009.47 18c3.68 1.1 7.59.73 10.96-1.02a14.5 14.5 0 007.07-8.49c1.07-3.63.72-7.58-1.03-10.95a14.7 14.7 0 00-8.51-7.03c-6.51-2-13.56.9-16.82 6.91zm-29.49 70.11a14.39 14.39 0 005.8 19.47 14.4 14.4 0 0019.47-5.8 14.4 14.4 0 00-5.8-19.47 14.4 14.4 0 00-19.47 5.8z" fill="#fff" fill-opacity=".47"/><path d="M191.3 123.57c.36-.43.15-.9.05-1.34-.7-3.14-1.38-6.3-2.1-9.43a96.4 96.4 0 00-6.75-19.07 74.69 74.69 0 00-13.47-19.57c-5.64-5.98-11.34-11.89-17-17.84-.38-.4-.7-.84-1.04-1.27.4.2.8.36 1.18.6 1.15.71 2.27 1.48 3.42 2.19 6.34 3.87 12.69 7.74 19.05 11.59 1.73 1.05 3.53 1.99 5.28 3 .5.28.96.62 1.4.97 1.26 1 2.44 2.12 3.75 3.04 2.9 2.03 5.88 3.93 8.8 5.93 5.8 4.01 12.11 7.08 18.55 9.87a90.5 90.5 0 0022.75 6.4c2.47.36 4.93.77 7.4 1.13 4.72.7 9.44 1.5 14.2 2 4.53.49 9.1.67 13.67.97.5.04 1.06.15 1.39-.42.16-.47-.04-.82-.4-1.1-.28-.21-.6-.4-.91-.58-2.2-1.3-4.4-2.57-6.58-3.88a104.2 104.2 0 00-11.37-6.17 207.7 207.7 0 00-26.27-9.81 68.72 68.72 0 00-7.58-1.79 313.1 313.1 0 00-13.56-2.03c-6.45-.82-12.87-1.78-19.15-3.5a35.34 35.34 0 01-9.5-3.87c-7.23-4.5-14.56-8.86-21.77-13.4-3.13-1.98-6.08-4.26-9.1-6.4.45.16.92.29 1.35.5 3.24 1.52 6.47 3.09 9.72 4.6a33.69 33.69 0 009.98 2.92c1.6.2 3.18.5 4.74.9 3.8.98 7.64 1.46 11.55 1.61 4.22.17 8.41.21 12.57-.63 1.02-.21 2.03-.44 3.06-.61a68.22 68.22 0 0012.75-3.5c5-1.88 9.94-3.92 15.13-5.32 3.25-.88 6.43-2.07 9.8-2.48.31-.04.64-.1.9-.24.28-.17.49-.45.82-.78-.38-.31-.62-.59-.92-.73-.37-.17-.8-.23-1.2-.35-3.58-1.03-7.18-2.06-10.77-3.11-1.64-.49-3.26-1.08-4.91-1.51a99.08 99.08 0 00-24.17-3.42c-3.9-.03-7.78.17-11.63.91a158.62 158.62 0 00-16.74 4.34 62.9 62.9 0 01-17.61 2.99c-1.6.02-3.21-.15-4.81-.29a4.36 4.36 0 01-2.44-.92c-.4-.32-.9-.55-1.4-.68-2.11-.52-3.91-1.64-5.65-2.87-1.27-.9-2.49-1.88-3.76-2.77-2.26-1.57-4.67-2.93-6.5-5.04-.2-.24-.48-.4-.72-.6l-6-5.19c-.13-.1-.22-.22-.34-.33-1.74-1.63-3.44-3.3-5.24-4.87-1.8-1.56-3.4-3.37-5.47-4.6-.17-.1-.3-.27-.46-.42L99.2 9.73c-.45-.43-.89-.87-1.31-1.33-2.42-2.58-4.85-5.14-7.23-7.75-1.47-1.61-2.85-3.3-4.28-4.94l-.24-.28.33.16c1.42 1.05 2.86 2.07 4.26 3.14 3.5 2.7 6.99 5.39 10.77 7.7a40.48 40.48 0 0016.52 5.69c2.16.26 4.32.58 6.48.9 3.44.52 6.9.9 10.4.77 3.16-.13 6.32-.3 9.48-.5a34.7 34.7 0 0012.74-3.35c6.2-2.92 12.43-5.77 19.03-7.74 2.34-.7 4.64-1.54 7.16-1.09.12.02.26-.11.45-.2.06-.67-.44-.9-.9-1.1-1.96-.82-3.88-1.75-5.9-2.41-4.5-1.48-9.03-2.8-13.55-4.2a45.85 45.85 0 00-19.71-1.8c-4.84.63-9.7 1.23-14.52 2a373.36 373.36 0 01-19.92 2.75c-.98.1-1.97.17-2.95.18-4.27.06-8.5-.43-12.73-.93a21.65 21.65 0 01-6.97-2.16 30 30 0 01-5.55-3.71 127.8 127.8 0 01-10.99-9.67c-3.73-3.77-7.41-7.58-11.1-11.39-1.34-1.38-2.64-2.8-3.94-4.21-.27-.3-.47-.64-.7-.97.28.1.58.15.83.3 6.47 3.64 13.39 6.17 20.46 8.32.55.16 1.11.3 1.67.4 4.65.85 9.28 1.8 14 2.17 3.54.29 7.05.53 10.58.13 1.45-.17 2.91-.24 4.36-.23 4.07.05 8.1-.25 12.1-1 2.55-.48 5.12-.89 7.66-1.44a45.21 45.21 0 008.52-2.99c2.43-1.06 4.78-2.3 7.27-3.2 6.98-2.57 13.49-6.24 20.53-8.67.36-.12.68-.4 1.08-.66l-.4-1.04c-.4 0-.7-.04-1 .02a10.2 10.2 0 01-3.72-.07 127.1 127.1 0 01-4.9-.9 142.6 142.6 0 00-22.7-3.03c-4.94-.23-9.87-.25-14.76.59-5.08.87-10.07 2.1-15.02 3.5-6.55 1.88-13.02 4.02-19.68 5.43-2.13.45-4.28.92-6.45 1.1-2.84.25-5.7.3-8.56.29-4.87-.01-9.6-1.04-14.25-2.38-.77-.22-1.4-.6-1.93-1.23-2.44-2.9-4.9-5.8-7.4-8.65a42.27 42.27 0 00-3.68-3.59c-2.06-1.82-4.18-3.58-6.3-5.34-3.24-2.7-6.48-5.37-9.73-8.04-1.66-1.37-3.32-2.72-4.98-4.07.76.36 1.54.68 2.25 1.11 4 2.43 8.03 4.8 12.22 6.9a40.87 40.87 0 008.53 3.38c2.98.73 5.98 1.4 8.99 1.98 4.8.91 9.58 1.9 14.52 1.6 4.59-.3 9.13-.8 13.45-2.44 4.17-1.6 8.3-3.3 12.44-5 3.9-1.6 7.76-3.25 11.65-4.85a26.1 26.1 0 015.98-1.74c.54-.09 1.16-.1 1.38-.74-.13-.72-.69-.77-1.19-.88-4.1-.9-8.2-1.86-12.34-2.66a65.88 65.88 0 00-22.18-.78c-2.77.4-5.54.9-8.28 1.5a132.14 132.14 0 01-19.62 2.58c-2.54.17-5.08.39-7.62.45-2.03.05-4.06.01-6.07-.2-2.42-.24-4.8-.78-7.21-1.06-3.61-.4-7-1.52-10.3-2.96a14.8 14.8 0 01-4.27-2.8 54.11 54.11 0 00-4.44-3.69 123.72 123.72 0 00-12.84-8.26c-4.16-2.4-8-5.25-11.93-7.95-5.23-3.59-10.42-7.25-16.2-9.93-.73-.34-1.38-.8-2.07-1.22.38.06.78.1 1.13.22 2.44.9 4.88 1.8 7.3 2.75 4.6 1.79 9.21 3.52 14 4.81a66.08 66.08 0 0023.47 2c4.5-.42 8.74-1.82 12.95-3.33 4.48-1.6 8.6-3.94 12.7-6.29a731.77 731.77 0 0126.83-14.6c1.34-.7 2.66-1.43 3.97-2.17.58-.33 1.2-.67 1.22-1.5-.2-.74-.8-1.08-1.46-1.25-.74-.2-1.52-.35-2.29-.43-3.1-.3-6.2-.63-9.31-.85-4.3-.3-8.6-.65-12.93-.48-3.06.12-6.13.2-9.19.4-4.63.32-9.2 1.08-13.55 2.78a997.84 997.84 0 00-21.67 8.76c-7.48 3.13-15.16 5.46-23.25 6.22-3.68.34-7.37.5-11.05.74a9.8 9.8 0 01-5.8-1.43c-.9-.53-1.83-1-2.73-1.5a455.84 455.84 0 00-24.23-12.58c-4.43-2.16-9.05-3.94-13.55-5.97a167.27 167.27 0 00-13.32-5.3c-6.23-2.2-12.38-4.6-18.76-6.34a45 45 0 01-4.01-1.27c-5.31-2-10.84-3.3-16.26-4.92-.8-.24-1.62-.37-2.43-.54-4.88-1.04-9.75-2.15-14.65-3.1-4.02-.77-8.09-1.34-12.14-2-.15-.03-.31-.03-.47-.04-1.26-.15-2.34.35-3.38.95-.42.23-.71.6-.7 1.24.13.53.58.86 1.15 1.05.39.13.8.24 1.2.32 2.7.55 5.4 1.04 8.1 1.62 4.02.86 8.01 1.8 12.02 2.66 4.42.95 8.83 1.95 13.28 2.72 4.1.71 8.2 1.45 12.22 2.49a62.8 62.8 0 0110.58 3.7c4.96 2.28 9.93 4.54 14.85 6.9a136.8 136.8 0 018.4 4.44 259.97 259.97 0 0123.01 14.95c4.4 3.15 8.76 6.35 12.58 10.21.22.23.45.43.7.63a29.48 29.48 0 013.97 3.95c.57.67 1.2 1.31 1.88 1.86 3.2 2.6 5.9 5.72 8.91 8.5.38.35.7.77 1.02 1.18 2.72 3.57 5.67 6.91 9.26 9.64.2.16.4.34.58.52a48.97 48.97 0 007.01 6.12c.01.57.09 1.19.02 1.79a12.63 12.63 0 01-1.73 4.97 38.78 38.78 0 01-4.55 6.31 356.04 356.04 0 01-6.85 7.68 106.21 106.21 0 00-17.29 25.1c-4.79 9.64-7.98 19.85-10.22 30.35-1.42 6.66-2.72 13.34-4.06 20.02a98.1 98.1 0 00-.73 4.14c-.1.6-.09 1.22-.13 1.84l.82.51c1.06-.18 1.71-.88 2.35-1.54 1.84-1.91 3.69-3.82 5.44-5.8 6.35-7.23 12.68-14.47 19-21.72a99.2 99.2 0 009.47-12.57 71.94 71.94 0 009.3-21.85 100.24 100.24 0 002.68-24.57c-.06-3.8-.5-7.56-1.46-11.26-.06-.24-.06-.51-.12-1.06 3.1 4 5.98 7.74 8.9 11.55-.01.48 0 1-.06 1.5-.19 1.5-.37 3-.62 4.48a19.8 19.8 0 01-.73 3.19c-1.74 5-3.54 9.99-5.31 14.98-.7 1.96-1.45 3.9-2.05 5.89-2.72 9.07-3.84 18.4-4.32 27.8-.32 6.3.25 12.57.9 18.83.27 2.53.8 5.03 1.13 7.55.6 4.81 1.94 9.47 2.96 14.19a44.97 44.97 0 011.24 10.03c0 .73 0 1.46.02 2.18 0 .44.1.83.78.95.2-.27.46-.57.64-.91 2.11-4 4.22-8 6.3-12.02A132.7 132.7 0 003.18 11.76 59.2 59.2 0 004.81-.89c.09-5.37-.44-10.7-1.2-16-.6-4.06-1.32-8.1-2.01-12.15a95.72 95.72 0 00-4.12-15.5l-1.68-4.8c1.15 1.59 2.39 3.12 3.42 4.78 2.94 4.77 5.93 9.52 8.62 14.45 2.46 4.5 5.07 8.94 7.66 13.38 1.23 2.1 2.46 4.23 3.88 6.2 1.8 2.5 3.53 5 5.05 7.68.56.99.87 1.98.72 3.11-.35 2.68-.7 5.35-1.07 8.03-.15 1.07-.38 2.14-.51 3.22-.51 4.28-.98 8.57-1.49 12.85-.56 4.75-.7 9.52-.37 14.3.17 2.39.24 4.78.49 7.15.4 3.77.8 7.55 1.4 11.3.62 3.78 1.4 7.55 2.28 11.3.82 3.48 1.7 6.97 2.82 10.36 1.57 4.73 3.46 9.35 5.12 14.04 1.48 4.16 2.88 8.35 3.34 12.78.02.21.24.41.37.61.83-.1.88-.7 1-1.26.62-2.89 1.2-5.8 1.9-8.67 2.47-10 4.28-20.11 4.56-30.44.12-4.68.1-9.36-.44-14-.41-3.46-.96-6.9-1.57-10.33-.48-2.65-1.1-5.28-1.77-7.9-1.24-4.84-3-9.5-4.85-14.13-.2-.51-.35-1.04-.52-1.56.35.42.73.8 1.05 1.25 3.82 5.31 7.61 10.65 11.44 15.95a50.15 50.15 0 003.38 4.29c2.75 3.04 5.59 6 8.38 9.01.28.3.56.63.73 1a16.8 16.8 0 011.74 6.74c.05 3.1 0 6.23-.18 9.33-.29 4.77-.64 9.53-.25 14.32.24 3.06.67 6.08 1.2 9.1a104.85 104.85 0 0015.62 39.9c1.08 1.64 1.96 3.42 2.87 5.16.35.69.51 1.47.79 2.2.04.12.22.2.39.34l.68-.28c.03-1.14.05-2.22.1-3.3.07-2.08.2-4.15.25-6.22.1-5.26-.32-10.5-.82-15.71-.86-9.01-2.3-17.92-4.83-26.64a143.4 143.4 0 00-5.01-14.9c-2.23-5.39-5.12-10.44-7.9-15.54-.25-.44-.45-.9-.66-1.34.26.22.54.41.77.66a62.42 62.42 0 017.45 9.59 67.88 67.88 0 005.6 7.66c.84 1 1.69 1.99 2.42 3.06 2.54 3.74 5.38 7.26 8.2 10.8 1.91 2.4 3.94 4.7 6.15 6.83 2.8 2.7 5.57 5.45 8.47 8.05 4.64 4.17 9.21 8.42 14.2 12.18 3.48 2.63 6.95 5.28 10.26 8.13.46.4 1 .73 1.52 1.06.11.07.3 0 .53 0l.3-.64c-.12-.24-.2-.43-.3-.61-2.69-5.28-5.44-10.52-8.06-15.83a107.6 107.6 0 00-12.6-19.63c-6.35-7.97-14.12-14.35-22.49-20.05-.5-.35-1.03-.67-1.54-1-.06-.47-.13-.88-.16-1.3-.35-4.3-.7-8.6-1.02-12.9-.15-1.9-.23-3.83-.38-5.74-.24-3.11-.4-6.23-.81-9.32-.5-3.7-1.19-7.37-2.11-11a150.95 150.95 0 00-6.14-18.8 303.79 303.79 0 00-11.76-25.8c-1.18-2.3-2.38-4.58-3.58-6.88 1.4 1.32 2.83 2.58 4.16 3.95C74.84-13.7 85.77-2.44 96.7 8.83c.73.74 1.3 1.67 2.1 2.3 1.84 1.46 3.46 3.14 5.16 4.75a10.26 10.26 0 013.08 5.96c.3 1.8.6 3.6 1.11 5.33.52 1.7.95 3.4 1.14 5.17.95 8.58 2.5 17.07 4.62 25.44 1.17 4.63 2.46 9.24 3.92 13.79a99.53 99.53 0 007.1 16.93c6.43 11.89 14.3 22.8 22.48 33.5.15.2.36.36.59.58l.87-.33-.1-1.13c-.08-1.19-.24-2.38-.24-3.57-.02-5.98-.2-11.95-.73-17.9a137.19 137.19 0 00-4.18-24.1 68.72 68.72 0 00-8.2-18.94c-2.02-3.15-4-6.32-6.05-9.46-1.73-2.65-3.5-5.28-5.28-7.9-2.53-3.75-5.08-7.48-7.62-11.22l-.29-.5c.44.16.74.42 1.04.68 6.25 5.5 12.46 11.03 19.15 16a7.4 7.4 0 012.16 2.4c.75 1.37 1.59 2.69 2.3 4.07 1.1 2.12 2.1 4.3 3.18 6.43 4.35 8.63 9.13 17.03 13.42 25.7a93 93 0 0012.18 18.99c3.22 3.8 6.5 7.56 9.8 11.3 1.1 1.25 2.32 2.4 3.5 3.56 2.39 2.31 5.27 4.08 7.3 6.78.26.36.68.47 1.1.13zm37.72-27.13a100.4 100.4 0 01-22.36-8.1c-4.22-2.12-8.4-4.32-12.3-7.01-.74-.52-1.43-1.11-2.15-1.67.28.08.57.12.83.25 3.16 1.56 6.36 3.07 9.47 4.74 3.84 2.06 7.62 4.26 11.72 5.8 6.22 2.32 12.41 4.75 18.86 6.42.5.14.98.38 1.47.58-1.85-.33-3.72-.58-5.54-1.01zm37.92 4.88c.29.04.56.13.82.4-1.6-.06-3.2-.09-4.8-.17a147.63 147.63 0 01-20.83-2.79c-.97-.19-1.93-.42-2.87-.7-8.31-2.49-16.6-5.04-24.7-8.15a71.18 71.18 0 01-8.45-3.98c-.21-.11-.39-.28-.58-.43.54.11 1.09.18 1.6.35 4.2 1.37 8.38 2.77 12.58 4.14 1.72.57 3.47 1.06 5.2 1.64 3.4 1.14 6.8 2.24 10.16 3.5a65.8 65.8 0 0014.31 3.6c5.86.8 11.71 1.72 17.56 2.59zm-3.53-2.59c.43.17.86.36 1.28.55.14.06.26.17.65.43-.58-.07-.9-.06-1.2-.14-6.8-1.9-13.7-3.37-20.46-5.43-7.45-2.27-14.97-4.31-22.46-6.44-.53-.16-1.1-.18-1.67-.26.47.2.92.45 1.4.6 8.7 2.58 17.4 5.2 26.12 7.72 3.93 1.13 7.93 2.05 11.89 3.07.68.18 1.34.4 2 .61-.38.02-.78.08-1.16.03-5.04-.7-10.09-1.35-15.1-2.17-3.09-.5-6.06-1.5-8.96-2.66a94.4 94.4 0 00-11.82-3.94c-1-.26-2-.57-2.98-.89-4.85-1.56-9.67-3.2-14.53-4.7-4.31-1.33-8.18-3.57-12.1-5.72-.12-.07-.22-.2-.33-.31l-.61-.2.57-.1-.03-.3.64.23c3.5.48 6.96 1.17 10.33 2.23 10 3.15 20.04 6.18 30.2 8.78 2.86.74 5.7 1.58 8.57 2.32 6.75 1.74 13.26 4.2 19.76 6.69zm-61.97-21.47c6.39.77 12.81 1.37 19.03 3.11 5.59 1.57 11.18 3.17 16.66 5.08 6.22 2.17 12.3 4.74 18.08 7.95.47.26.9.6 1.34.91-.42-.13-.84-.23-1.25-.4-4.49-1.78-8.96-3.63-13.47-5.36-2.13-.81-4.34-1.45-6.52-2.1-9.66-2.9-19.37-5.61-29.2-7.85-1.37-.31-2.75-.59-4.11-.9-.43-.1-.85-.28-1.27-.42.24-.01.48-.05.71-.02zm-8.43-1.18c6.62 1.57 13.25 3.1 19.86 4.69 8.6 2.08 17.02 4.75 25.5 7.23.4.11.79.24 1.17.4 5.75 2.28 11.49 4.58 17.22 6.9.44.17.83.46 1.24.71-.42-.1-.84-.18-1.24-.34a124.77 124.77 0 00-13.04-4.22l-21.52-5.81c-.55-.15-1.1-.3-1.65-.47-5.16-1.58-10.32-3.2-15.5-4.74a48.89 48.89 0 00-5.75-1.4 29.28 29.28 0 01-9.02-2.84c-.89-.48-1.84-.83-2.69-1.45l5.42 1.34zM180.63.1c.03.01.03.08.06.21-.17.07-.34.18-.52.2-3.95.57-7.64 1.99-11.28 3.48-3.98 1.64-7.86 3.52-11.8 5.27a31.11 31.11 0 01-8.76 2.67c-3.14.4-6.28.84-9.44 1.14-4.36.4-8.71.04-13.04-.6-2.82-.43-5.64-.89-8.47-1.28a38.1 38.1 0 01-13.74-4.8 94.56 94.56 0 01-11.4-7.93c.47.22.95.41 1.4.66 3.83 2.1 7.64 4.23 11.47 6.31.77.42 1.6.74 2.42 1.06a76.76 76.76 0 0018.38 4.57c3.92.48 7.83.95 11.78.9 3.33-.05 6.62-.49 9.86-1.23.17-.04.31-.2.47-.31-1.89.26-3.77.55-5.66.78-4.78.6-9.54.28-14.3-.39-2.05-.29-4.1-.59-6.16-.93a73.87 73.87 0 01-15.4-4.44c-.62-.25-1.22-.57-1.8-.9A1079.4 1079.4 0 0196.63.1c-.42-.24-.8-.56-1.18-.85 2.32.64 4.67 1.2 6.96 1.96 4.44 1.46 8.84 3.04 13.26 4.54 3.86 1.3 7.89 1.8 11.91 2.27 3.2.37 6.4.7 9.63.56 4.52-.2 9.03-.5 13.49-1.31.86-.16 1.72-.41 2.54-.72 3.59-1.37 7.2-2.7 10.74-4.18a43.03 43.03 0 018.62-2.63c.5-.1 1.01-.23 1.52-.35a9.63 9.63 0 016.5.7zm-17.89-5.78c3.13.97 6.26 1.9 9.4 2.86.21.07.41.2.62.3l-5.78-.71c-2.06-.25-4.12-.55-6.19-.7-1.39-.1-2.8-.03-4.2.05-3.1.18-6.21.41-9.32.63-.62.04-1.24.12-1.86.16l-7.62.42c-1.6.09-3.21.14-4.82.24-5.54.37-11.08.8-16.63 1.1-3.95.22-7.89-.03-11.82-.46a1.16 1.16 0 01-.66-.31c1.76-.08 3.52-.14 5.27-.23.94-.05 1.87-.1 2.8-.2 4.38-.54 8.76-1.1 13.15-1.63 1.03-.13 2.07-.13 3.1-.27 1.44-.2 2.87-.47 4.3-.7.67-.1 1.34-.23 2-.28 3.37-.24 6.74-.49 10.1-.65 1.87-.1 3.74-.03 5.61-.05 2.54-.03 5.09-.03 7.63-.13 1.68-.06 3.31.07 4.92.56zM145.48-7.4c3.52-.38 7.06-.38 10.56.2l.9.2.02.3c-1.7.05-3.41.2-5.12.14-4.42-.13-8.82.12-13.21.53-2.32.21-4.66.36-7.01.41.45-.05.9-.1 1.34-.17 4.18-.54 8.34-1.15 12.52-1.61zm-50.5 4.72c3.11.73 6.22 1.5 9.35 2.2.69.16 1.42.13 2.14.19l-1.9-.7c1.42.06 2.84.1 4.26.2 4.05.25 8.08.11 12.12-.28 4.18-.41 8.38-.58 12.58-.85 3.98-.25 7.97-.5 11.95-.77 3.78-.26 7.55-.58 11.33-.8 2.38-.15 4.77-.13 7.14.26l1.38.28c-3.9.32-7.57.65-11.24.91-4.05.29-7.99 1.24-11.96 2.02a62 62 0 01-9.1 1.2c-2.06.1-4.12.4-6.19.61.4.06.81.19 1.2.15 3.37-.31 6.72-.66 10.08-.98a98.08 98.08 0 0010.3-1.73c1.42-.3 2.88-.46 4.32-.58 3.16-.28 6.33-.47 9.48-.76 3.18-.29 6.34.04 9.5.3.7.05 1.39.16 2.11.46-1.04.3-2.07.66-3.12.88-2.46.5-4.8 1.36-7.06 2.42a106.75 106.75 0 01-12.22 4.69c-.49.16-1 .29-1.51.37a82.54 82.54 0 01-17.56.94A145.7 145.7 0 01122 6.8c-4.4-.6-8.54-2.2-12.72-3.62-.17-.06-.32-.2-.47-.3.75.07 1.51.1 2.25.24C117 4.22 123 4.59 129 4.92c3.1.16 6.22.07 9.31-.44 2.1-.35 4.22-.59 6.33-.88a2 2 0 001.02-.37c-.38.02-.77.03-1.15.08l-5.55.79c-3.97.56-7.96.6-11.95.29a187 187 0 01-13-1.31 96.63 96.63 0 01-17.9-4.65c-.93-.33-1.88-.56-2.82-.84l-.66-.23-.35-.55c.9.16 1.8.3 2.7.5zM-169-153.84l-.03-.19.16-.22.42.38-.1.16c-.15-.04-.31-.1-.45-.13zm1.73-.15c1-.14 1.93.01 2.79.55-.97 0-1.91-.12-2.8-.55zm28.99 4.55c.12.03.23.14.44.27-.26.03-.41.1-.55.07-1.8-.4-3.67-.52-5.38-1.29l5.49.95zm.1 2.17c-2.73-.63-5.48-1.19-8.2-1.85-3.52-.85-7.03-1.78-10.54-2.69-.22-.05-.42-.18-.63-.28.59.07 1.18.1 1.76.24l21.09 4.74c.53.12 1.05.27 1.56.5a21.9 21.9 0 01-5.05-.66zM-23.54-57.6l.31-.04.6-.38.22-.66.08-.33.21.3c.64-1.3 1.27-2.6 1.92-3.89.11-.22.28-.4.58-.84.04 1.47-.1 2.64-.44 3.76-.69 2.23-1.41 4.46-2.23 6.65a476.58 476.58 0 01-4.12 10.6A80.44 80.44 0 01-28.78-37c-3.71 7.62-7.47 15.21-11.21 22.81-3.1 6.3-6.34 12.52-9.86 18.6-1.93 3.32-3.73 6.72-5.6 10.08-.25.43-.55.82-.83 1.23.14-1.4.67-2.67 1.3-3.9 5.12-10.1 10.26-20.18 15.38-30.27 2.23-4.4 4.46-8.8 6.63-13.22a152.1 152.1 0 003.03-6.66c1.55-3.57 3.06-7.16 4.56-10.75.24-.56.35-1.17.52-1.76-.26.43-.58.84-.77 1.3-1.57 3.62-3.1 7.26-4.68 10.88-.9 2.09-1.82 4.2-2.85 6.23-3.87 7.64-7.79 15.26-11.7 22.89-.18.36-.46.66-.7 1-.11.33-.18.7-.33 1-1.38 2.78-2.77 5.55-4.17 8.3-.12.26-.32.47-.49.7.07-.33.11-.67.22-.98 1.13-3.14 2.8-6 4.52-8.84.05-.08.16-.13.24-.2.02-.14.01-.31.07-.45l3.9-8.12c.83-1.73 1.75-3.42 2.43-5.2 1.1-2.92 2.44-5.72 3.8-8.51.7-1.45 1.4-2.9 1.94-4.4a86.1 86.1 0 014.68-10.84c.35-.67.52-1.43.77-2.16-.21.29-.46.55-.62.85a220 220 0 00-2.28 4.61c-.52 1.08-1.06 2.15-1.46 3.27a87.65 87.65 0 01-4.7 10.88c-.35.69-.72 1.38-.98 2.11-1.75 4.97-4.3 9.57-6.54 14.32-.95 2.02-1.98 4-3.07 5.95-1.2 2.14-2.3 4.3-3.17 6.6-.5 1.3-1.06 2.6-1.62 3.88a355.93 355.93 0 01-7 15.14c-.1.2-.25.38-.4.56.15-.57.26-1.15.47-1.7 3.11-8.54 6.66-16.9 10.1-25.32 2.52-6.2 5.25-12.32 8.05-18.4.62-1.37 1.18-2.77 1.75-4.17a68.51 68.51 0 014.5-9.23 67.85 67.85 0 002.4-4.37c1.93-3.86 4.2-7.52 6.5-11.17.72-1.13 1.67-2.1 2.52-3.16zM-55.7 16.06c3.14-5.56 6.32-11.1 9.42-16.69 4.23-7.63 8-15.5 11.84-23.34 1.97-4 3.96-8 5.86-12.04 1.1-2.35 2.08-4.76 3.04-7.17 1.5-3.76 2.95-7.54 4.43-11.31.09-.21.26-.39.4-.58-.07.65-.11 1.3-.23 1.94a71.35 71.35 0 01-3.2 11.53c-2.18 5.84-4.23 11.72-6.8 17.4a96 96 0 01-2.9 5.86c-2.18 4.07-4.37 8.14-6.69 12.13-1.56 2.7-3.32 5.27-5.02 7.87-1.81 2.79-3.7 5.52-5.47 8.33a90.27 90.27 0 01-5.6 8.01c.3-.65.57-1.31.92-1.94zm-2.46 3.26c-.47.99-1.1 1.9-1.67 2.83.04-.27.06-.56.18-.8.71-1.48 1.16-3.09 2.2-4.4-.22.8-.36 1.63-.71 2.37zm-4.3 9.11c.24-.4.5-.8 1-.93l-1 .93zm-.75-2.44c.38-2 .77-3.98 1.25-5.94.68-2.77 1.48-5.52 2.17-8.29A93.98 93.98 0 01-56.27.96c2-5.24 3.91-10.52 6.56-15.48 3.2-6 6.25-12.09 9.9-17.84l2.3-3.7c.75-1.41 1.5-2.83 2.23-4.25.23-.45.39-.94.58-1.4-.32.4-.7.75-.94 1.19-4.38 7.65-9 15.16-13.14 22.96a146.63 146.63 0 00-7.61 17.2c-.99 2.62-1.89 5.28-2.84 7.91-.13.36-.31.7-.48 1.05-.01-1.5.37-2.94.81-4.34 2.27-7.13 4.76-14.17 8.13-20.87 1.3-2.6 2.56-5.22 3.85-7.83a37.26 37.26 0 013.88-6.2c2.26-2.92 3.99-6.19 5.79-9.4.11-.21.1-.5.15-.74-.31.4-.68.75-.94 1.18-.93 1.5-1.78 3.06-2.72 4.55a69.65 69.65 0 01-2.9 4.25 38.87 38.87 0 00-3.7 5.95c-2.8 5.68-5.77 11.3-8.01 17.24-.08.22-.23.4-.35.6.04-.32.05-.67.15-.98 2.6-8.03 5.83-15.77 10.38-22.9a124.4 124.4 0 017.95-11.15c.32-.39.74-.7 1.1-1.05.55-.74 1.03-1.54 1.64-2.23 1.87-2.09 3.8-4.13 5.7-6.2-.2.44-.35.9-.6 1.3-1.09 1.68-2.21 3.32-3.3 5-.29.46-.48.98-.72 1.48l.3-.03-.2.62-.29.36c-.05.2-.07.41-.16.58l-3.6 6.25c-1.12 2.63-2.22 5.26-3.36 7.88-1.17 2.67-2.4 5.3-3.55 7.98-2 4.68-4.02 9.35-5.94 14.07-2.8 6.88-5.54 13.79-8.27 20.7-.76 1.93-1.43 3.9-2.13 5.85-.13.39-.19.8-.28 1.2l.3-.02-.22.64-.21.65-.32.04-.24.66-.23.66c-.23.44-.48.87-.67 1.33-.27.64-.5 1.3-.75 1.96 0-.55-.08-1.12.03-1.65zm45.5-74.58a100.22 100.22 0 01-2.36 16.78 65.37 65.37 0 01-8.07 19.49c-1.09 1.77-2.24 3.5-3.4 5.22-.3.45-.7.84-1.06 1.25.04-.18.07-.37.16-.53l6.5-13.3a38.82 38.82 0 002.47-6.54c.72-2.55 1.44-5.1 2.4-7.56a45.96 45.96 0 002.92-13.8c.07-1.03.19-2.05.5-3.07-.02.69-.02 1.37-.06 2.06zm-.39-11.46c-.43 3.18-.9 6.37-1.34 9.55-.08.61-.09 1.23-.13 1.85.16-.48.4-.95.47-1.44.36-2.26.67-4.52 1-6.78.07-.44.17-.87.5-1.28-.08 1.08-.12 2.16-.23 3.24l-1.28 12.38c-.2 1.93-.73 3.77-1.33 5.6-1.31 3.95-2.55 7.92-3.88 11.85a50.27 50.27 0 01-2.04 5.05 375.75 375.75 0 01-5.02 10.4A54.5 54.5 0 01-39.73 2.9c-3.9 4.25-7.67 8.62-11.51 12.92-.31.35-.7.64-1.07.95.3-.45.56-.92.88-1.34 3.5-4.56 7.02-9.11 10.52-13.68.36-.48.59-1.06.88-1.6-.32.33-.68.62-.96.97C-45.37 6.76-49.7 12.42-54.1 18c-1.93 2.45-4.04 4.75-6.08 7.11-.22.26-.52.46-.8.69.16-.37.26-.77.48-1.1 1.21-1.8 2.37-3.66 3.7-5.39 2.6-3.38 5.01-6.88 7.23-10.53 1.48-2.44 3.12-4.78 4.76-7.12a99.19 99.19 0 006.4-10.51c1.33-2.52 2.7-5.04 4.09-7.53 2.17-3.91 4.08-7.95 5.72-12.1 1.37-3.49 2.65-7 4-10.49a86.77 86.77 0 005.03-19.72c.21-1.59.6-3.15.94-4.88.55 1.27.71 2.2.53 3.52zm165.55 22.7c-1.1.48-2.21.91-3.31 1.38-2.34 1-4.7 1.96-7.02 3a71 71 0 01-9.45 3.6 41.1 41.1 0 01-3.8.9c-1.93.35-3.89.62-5.89.77 1.39-.6 2.78-1.17 4.16-1.77 5.4-2.32 10.95-4.21 16.6-5.84 1.14-.33 2.34-.5 3.48-.83 2.17-.62 4.31-1.3 6.47-1.95-.42.26-.81.54-1.24.73zm3.95-1.78a3.45 3.45 0 012.04-1.14l-2.04 1.14zm-8.98-1.62a5.98 5.98 0 011.58.06c-.55.07-1.11.1-1.65.21-1.99.4-3.96.89-5.95 1.24-3.66.65-7.05 2.12-10.56 3.24-3.7 1.18-7.38 2.5-11.1 3.6-5.09 1.52-10.17 3-15.5 3.39a64.4 64.4 0 01-10.9.06c-2.17-.22-4.34-.39-6.52-.6-.44-.04-.88-.17-1.33-.25l.02-.14c.67.01 1.33.03 2 .03 4.22 0 8.38-.7 12.55-1.26 2.78-.36 5.54-.88 8.32-1.3 2.33-.37 4.5-1.27 6.74-1.9 3.7-1.05 7.43-2.01 11.12-3.09 4.2-1.23 8.48-2.1 12.8-2.71 2.76-.4 5.58-.4 8.38-.58zm14.07-2.38c-.6 0-1.22.03-1.82.02-1.45-.03-2.9-.09-4.36-.12-.3 0-.62.06-.92.1-1.02.18-2.04.42-3.06.52-2.22.23-4.45.4-6.67.58-3.2.25-6.42.44-9.62.74-2.54.23-5.06.62-7.6.87-3.2.32-6.39.79-9.53 1.51-.95.22-1.88.57-2.81.9-2.65.9-5.29 1.86-7.95 2.75-.78.26-1.61.4-2.43.52-4.58.7-9.2.95-13.8 1.3-3.06.24-6.13.24-9.18.05-1.5-.1-3.1-.12-4.58-.43-.45-.1-.84-.33-1.27-.48-.67-.23-1.4-.27-2.08-.43l-8.88-2.07a.57.57 0 00-.18 0l-.7-.25c.05-.05.1-.08.15-.11 5.7 1.27 11.44 2.47 17.28 2.76 6.59.32 12.89-.98 19.24-2.56a196.91 196.91 0 0119.82-3.87 434.2 434.2 0 0120.38-2.53 98.44 98.44 0 0120.29.02l.28.2zm-17.87 1.75c2.98-.71 6.04-.65 9.08-.8-2.98.74-6.06.5-9.08.8zm-34.3-2.8a111.1 111.1 0 0113.11-2.74c4.92-.68 9.85-.6 14.79-.31 5.5.32 10.96 1 16.38 2.07.36.07.72.2 1.08.3-.83-.07-1.67-.12-2.5-.2-4.45-.46-8.88-1.1-13.33-1.34-5.29-.28-10.6-.59-15.88.17-4.63.67-9.2 1.63-13.68 3.01-3.87 1.2-7.8 2.2-11.65 3.44-3.33 1.06-6.74 1.76-10.13 2.5-3.48.76-7 .94-10.55.7-.36-.03-.71-.1-1.07-.25.66-.09 1.33-.23 2-.25 2.98-.06 5.88-.72 8.77-1.32 7.63-1.6 15.12-3.79 22.66-5.78zm-35.03 7.95c3.89.4 7.8.63 11.65-.15 3.81-.77 7.64-1.5 11.36-2.68 3.67-1.16 7.38-2.17 11.07-3.25 1.3-.37 2.56-.86 3.87-1.16 3.14-.72 6.28-1.43 9.45-2.03 2.66-.5 5.36-.58 8.07-.53 3.37.05 6.76-.04 10.12.24 5.1.42 10.19 1.02 15.28 1.58a87 87 0 00-11.34.08c-6.6.48-13.18 1.39-19.74 2.26-6.69.89-13.37 1.92-19.94 3.47-6.47 1.52-12.9 3.38-19.6 3.45-5.5.07-10.93-.82-16.3-1.93l6.05.65zm-12.08-1.2l.4.1c1.34.64 2.73 1.15 4.15 1.54l.23.07c6.67 1.85 13.38 3.46 20.39 3.05 3.52-.2 7.05-.43 10.56-.74 2.53-.23 5.06-.55 7.57-.95 1.32-.21 2.63-.6 3.9-1.04 2.36-.8 4.64-1.86 7.03-2.52 2.8-.77 5.66-1.32 8.53-1.8 3.02-.5 6.07-.83 9.12-1.16 2.21-.23 4.44-.32 6.69-.41l-1.18.23c-5.12.87-10.21 1.85-15.19 3.4-3.46 1.09-7.02 1.9-10.47 3.02a54.2 54.2 0 01-9.85 2.24c-4.07.53-8.12 1.22-12.18 1.77-4.58.62-9.12.26-13.6-.86L71.4-32c-.04-.07-.12-.09-.2-.06l-3.14-.85c-.55-.14-1.12-.24-1.67-.36.48.63 1.23.75 1.91.94 3.25.91 6.5 1.8 9.78 2.64 3.03.77 6.14.95 9.25 1.22 5.74.5 11.42.17 17.07-.8 2.3-.4 4.55-1.07 6.81-1.64 4.5-1.12 8.83-2.71 13.2-4.2 2.3-.8 4.6-1.63 6.94-2.33a125 125 0 016.61-1.75c5.88-1.43 11.92-1.75 17.87-2.65.15-.03.3 0 .48.12l-1.27.3a17.6 17.6 0 00-3.93 1.47 41.1 41.1 0 01-9.98 3.45c-2.22.5-4.4 1.2-6.6 1.81-5.16 1.46-10.1 3.5-15.02 5.61-1.81.77-3.7 1.36-5.58 1.96-.69.22-1.43.33-2.15.35-4.25.16-8.5.12-12.76.48-3.38.28-6.74-.2-10.1-.6a92.42 92.42 0 01-17.31-3.83c-2.23-.7-4.42-1.53-6.6-2.34-.53-.2-1-.51-1.5-.77l-.63-.21.59-.08c-.44-.25-.86-.54-1.32-.73-1.71-.7-3.45-1.35-5.16-2.06-.52-.22-.98-.57-1.47-.88.57.12 1.14.23 1.7.36zm41.22-30.09c-5.94 2.48-11.88 4.96-17.84 7.4a41.06 41.06 0 01-12.52 3.01c-4.26.32-8.51.32-12.72-.56-4.32-.9-8.64-1.8-12.97-2.68-2.97-.6-5.72-1.83-8.48-3.04-.15-.06-.28-.12-.31-.42l.55.11c4 .9 8 1.82 12 2.7a91.12 91.12 0 0017.62 1.95c3.44.07 6.82-.52 10.15-1.4.7-.2 1.4-.4 2.12-.52 3.14-.56 5.98-2.05 8.99-3.03 3.06-.99 6.08-2.11 9.16-3.03 1.95-.58 3.98-.9 5.98-1.34-.57.29-1.14.6-1.73.85zm3.64-2.11c-.68.2-1.36.43-2.05.6-1.42.32-2.86.56-4.26.94-1.56.42-3.08.94-4.61 1.43a699.8 699.8 0 00-6.38 2.05c-.89.29-1.79.56-2.63.96-2.8 1.3-5.8 1.96-8.76 2.75-5.3 1.43-10.67 1.5-16.1.95a97.33 97.33 0 01-14.43-2.38c-3.83-.98-7.7-1.73-11.54-2.65a12.66 12.66 0 01-5.12-2.7c.92.24 1.85.48 2.76.75 2.25.65 4.48 1.33 6.73 1.98 1.05.3 2.13.48 3.17.8 5.22 1.57 10.6 2.07 16.01 2.24 4.06.13 8.12.19 12.14-.4 2.77-.4 5.5-1.06 8.25-1.65 2.9-.63 5.77-1.3 8.66-1.97 4.76-1.1 9.5-2.23 14.27-3.29 1.26-.28 2.57-.34 3.89-.41zm-1.55-2c-.56.07-1.12.15-1.69.2-.62.07-1.24.13-1.86.15A62.38 62.38 0 0080-68.2a54.09 54.09 0 01-13.84 2.86c-2.59.15-5.17.45-7.76.66-3.38.27-6.74-.05-10.1-.36-3.83-.34-7.65-.73-11.48-1.09-.45-.04-.92.02-1.39.04.49.14.97.34 1.46.4 5.66.78 11.36 1.17 17.05 1.57 1.3.1 2.6.03 3.9-.06 2.69-.2 5.37-.47 8.06-.7 1.14-.08 2.29-.08 3.42-.2 2.65-.28 5.2-.96 7.75-1.71 2.89-.85 5.78-1.68 8.7-2.43 1.4-.36 2.85-.54 4.3-.74A96.68 96.68 0 01103.71-71c.6 0 1.2.14 1.8.52-.42.05-.85.15-1.28.15-2.66.04-5.26.42-7.85 1.05-2.68.64-5.4 1.1-8.08 1.7a980.34 980.34 0 00-14.87 3.44 60.48 60.48 0 01-14.2 1.68 87.6 87.6 0 01-12.43-.63c-2.26-.32-4.5-.79-6.72-1.29-1.97-.44-3.91-1.02-5.86-1.54l-.28-.12.24-.18c-.54-.15-1.07-.35-1.62-.44-2.2-.39-4.35-1-6.44-1.81a3.62 3.62 0 01-1.33-.85l1.63.2c3.76.46 7.52.96 11.29 1.36 4.34.47 8.7.39 13.07.46 7.6.14 15.14-.6 22.65-1.74 5.34-.82 10.7-1.57 16.03-2.36 3.67-.55 7.35-.42 11.05-.22zM86.3-73.81A33 33 0 0197.8-72.5c-1.49.06-2.98.16-4.46.17-2.71.03-5.37.5-8.04.86-8.08 1.04-16.08 2.6-24.2 3.28-3.42.29-6.84.4-10.26.36-3.42-.04-6.84-.1-10.26-.22-1.23-.05-2.46-.26-3.68-.4 2.32-.04 4.65-.13 6.98-.09 2.6.04 5.18.24 7.77.3 1.46.03 2.92-.02 4.36-.15 3.36-.3 6.73-.6 10.04-1.25 2.55-.5 5.08-1.1 7.6-1.72 2.67-.65 5.3-1.46 8-2.02 1.5-.32 3.09-.33 4.64-.43zm-62.18 2.78a64.84 64.84 0 0018.57 1.5c5.8-.4 11.6-.86 17.35-1.86 3.47-.61 6.93-1.34 10.39-2.07 4.6-.96 9.26-1.13 13.99-.93-4.06.52-7.96 1.86-11.93 2.83-5.31 1.3-10.67 2.27-16.12 2.7-3.16.25-6.32.15-9.49 0-2.59-.13-5.19-.1-7.78-.19-3.52-.12-7.05-.31-10.57-.46-2.24-.1-4.45-.38-6.63-.88a7.92 7.92 0 01-3.36-1.58c2.02.33 3.82.55 5.58.94zM-.34-84.7c2.4 1.6 4.72 3.32 7.05 5.01.4.3.7.73 1.05 1.1l.12.1-.13-.1c-.95-.5-1.97-.91-2.85-1.53-3.1-2.17-6.15-4.4-9.22-6.62-.1-.08-.18-.18-.27-.28 1.42.76 2.9 1.43 4.25 2.32zm10.58-22.67c4.94-.86 9.63-2.53 14.4-4a60.69 60.69 0 007.29-2.73 47.22 47.22 0 006.6-3.52c3.27-2.17 6.89-3.61 10.6-4.84 2.17-.72 4.35-1.4 6.54-2.05.77-.23 1.58-.3 2.37-.45-.65.37-1.3.75-1.96 1.1-1.92 1.04-3.87 2.01-5.75 3.12-4.03 2.37-7.95 4.94-12.05 7.19a63.23 63.23 0 01-15.3 6.12 127 127 0 01-21.38 3.39c-5.13.36-10.28.63-15.42.16-3.14-.3-6.26-.85-9.37-1.56 1.02.03 2.03.02 3.04.1 4.46.36 8.92.33 13.39.13 5.73-.27 11.36-1.19 17-2.16zm4.53 6.44c-3.48 1.01-7.05 1.06-10.64 1.17-4.28.14-8.48-.4-12.69-1.07-.29-.05-.58-.13-.86-.33 9.9-.23 19.77-.7 29.63-1.52-1.75.78-3.6 1.22-5.44 1.75zm38.7-18.8c-2.25 1.25-4.51 2.49-6.77 3.72a.67.67 0 01-.63.06c.76-.51 1.5-1.07 2.28-1.53 1.9-1.13 3.81-2.26 5.95-2.92-.27.23-.52.5-.82.67zm.83-.67l1.38-.78c-.32.49-.81.7-1.38.78zm8.55-4.66c-4.18 1.97-8.37 3.9-12.55 5.87-.52.24-1.03.5-1.51.81-2.97 1.91-5.92 3.85-8.9 5.75-1.7 1.1-3.39 2.22-5.16 3.2-2.9 1.6-5.88 3.08-8.83 4.62-1.35.7-2.8 1.06-4.31 1.24l-5.42.65c-2.53.3-5.06.48-7.62.37-1.23-.05-2.5.02-3.73.2-3 .43-6.01.22-9.02.3-1.81.04-3.63.1-5.45.17-2.03.08-4.04 0-6.01-.6-1.5-.46-3-.84-4.5-1.28-.27-.08-.51-.25-.77-.39.8.06 1.62.05 2.4.2 4.32.8 8.67.92 13.03.72 3.32-.16 6.65-.23 9.96-.53 3.04-.27 6.08-.74 9.1-1.2 2.31-.37 4.6-.88 6.9-1.3a51.23 51.23 0 009.25-2.7 74.2 74.2 0 0013.87-7c2.4-1.56 4.87-3 7.28-4.54 3.03-1.95 6.34-3.33 9.66-4.66 1.24-.5 2.58-.73 4.18-1.17-.62.8-1.27 1-1.85 1.27zm-1.05-1.61c.2-.03.4-.02.64.1-1.04.25-2.07.54-3.12.73a78.8 78.8 0 00-15.44 4.8c-1.68.69-3.3 1.54-4.84 2.5a59.69 59.69 0 01-13.8 6.46 512.1 512.1 0 01-9.66 3.01c-1.29.39-2.6.72-3.94.94-4.66.74-9.32 1.59-14.02 2.09-5.63.6-11.3.64-16.96.2-2.02-.16-4.05-.2-6.07-.35a7.98 7.98 0 01-3.56-.87c3 .16 6 .4 9.01.46 1.92.04 3.85-.06 5.75-.28 4.34-.5 8.68-1.03 12.99-1.72 2.6-.42 5.2-1.03 7.73-1.78 5.63-1.66 11.2-3.49 16.81-5.18a179.6 179.6 0 0014.95-5.4c3.33-1.33 6.77-2.32 10.2-3.37 4.35-1.34 8.84-1.82 13.33-2.34zm-3.87-.47c.4-.04.81-.05 1.22-.08v.25c-1.13.2-2.24.48-3.36.62-2.96.35-5.8 1.2-8.65 1.97-5.33 1.43-10.44 3.47-15.6 5.39-5.25 1.95-10.6 3.65-15.93 5.4a226 226 0 01-9.51 2.95c-2.9.81-5.82 1.57-8.82 1.94-3.97.5-7.93 1.02-11.9 1.51-2.9.36-5.82.2-8.72.05-2.38-.12-4.76-.35-7.14-.58a7.92 7.92 0 01-3.53-1.2c1.2.03 2.44-.07 3.62.12 2.33.37 4.66.29 7 .23 5.14-.13 10.26-.58 15.36-1.23 2.11-.28 4.23-.47 6.33-.82 4.83-.81 9.51-2.1 14.06-3.98 8.3-3.44 16.69-6.65 25.31-9.2 2.33-.7 4.75-1.11 7.14-1.63 1.27-.27 2.55-.49 3.82-.73.3-.06.62-.1.93-.13l8.37-.85zm-3.18-.47c.2.02.4.07.6.1l.05.22c-1.27.16-2.55.41-3.83.46-1.72.07-3.4.27-5.08.66-1.67.4-3.35.75-5.04 1-3.37.5-6.5 1.74-9.72 2.75-6.05 1.9-11.87 4.42-17.8 6.62-1.7.63-3.33 1.48-5.06 2.04-2.22.71-4.49 1.28-6.75 1.84-5.16 1.3-10.45 1.72-15.71 2.28-2.16.24-4.34.3-6.52.37l4.78-.61a77.25 77.25 0 0018.51-4.73c2.55-1.02 5.24-1.7 7.84-2.59 3.63-1.25 7.24-2.57 10.86-3.84 3.43-1.2 6.83-2.49 10.31-3.53 3.63-1.1 7.28-2.13 11.06-2.59 3.82-.46 7.65-.7 11.5-.45zm-14.22-.93c1.55.03 3.1.14 4.68.41-.2.05-.4.1-.6.13-6.11.8-12.03 2.36-17.81 4.45-3.62 1.3-7.27 2.52-10.85 3.91-3.83 1.5-7.75 2.7-11.65 3.98-2.02.67-4.01 1.42-6.02 2.14-3.1 1.1-6.3 1.81-9.52 2.36-3.18.53-6.38.96-9.58 1.25-2.9.26-5.8.28-8.71.4l.03-.18c.67-.09 1.34-.16 2-.26 2.88-.45 5.76-.9 8.63-1.38.87-.15 1.71-.42 2.57-.63 4.64-1.1 9.3-2.2 13.94-3.33A90.46 90.46 0 0018.15-123c2.24-1.17 4.63-1.84 7-2.6 2.28-.72 4.6-1.34 6.89-2 2.78-.8 5.63-.97 8.5-.93zm-74.69 18.22l7.9-.54c-2.63.27-5.2 1.15-7.9.54zm38.4-9.95c-.92.74-2.02 1.02-3.11 1.32a8.31 8.31 0 013.1-1.32zm-8.91 3.8c.7-.24 1.42-.5 2.12-.76l.03.01c.35-.07.73-.08 1.06-.21 2.6-1.03 5.2-2.08 7.8-3.14 1.48-.6 2.94-1.3 4.44-1.88 3.28-1.28 6.57-2.58 9.9-3.75a33.68 33.68 0 0110.94-2.12c-.6.25-.95.42-1.32.53-3.07.94-6.17 1.84-9.23 2.83-1.17.38-2.3.95-3.4 1.5a100.67 100.67 0 01-13.62 5.76c-3.3 1.06-6.7 1.85-10.06 2.73-2.3.6-4.63 1.16-6.95 1.72-.65.16-1.32.25-2 .3l10.29-3.51zM-91.1-133.2c-1.77-.6-3.55-1.14-5.3-1.8-.86-.33-1.66-.83-2.48-1.27 2.7.78 5.33 1.72 7.84 2.98a8 8 0 013.2 1.48l-3.26-1.39zm43.88 35.27a6.53 6.53 0 012.45 2.17 5.92 5.92 0 01-2.45-2.17zm2.82 2.45c.52.19.91.5 1.03 1.07l-1.03-1.07zm12.1 13.12c-.17-.21-.28-.47-.42-.71l5.46 5.09c.1.08.13.23.18.36a23.65 23.65 0 01-5.22-4.74zm22.25 23.79l-3.91-5.26a1.02 1.02 0 01-.7-.8l.72.77c1.64 1.6 3.25 3.23 4.12 5.41-.08-.03-.18-.06-.23-.12zm5.19 1.47c.4.17.82.3 1.2.53 1.72 1.04 3.43 2.13 5.16 3.18.43.26.92.41 1.39.61l-1.06-1.1c.24.05.48.08.7.16 3.77 1.34 7.52 2.71 11.3 4.03a94.7 94.7 0 0112.74 5.41 60.44 60.44 0 017.53 4.68c.48.35.92.77 1.37 1.16-.27-.08-.55-.14-.8-.26-1.63-.82-3.27-1.61-4.86-2.48a58.05 58.05 0 00-10.33-4.34c-3.28-1.03-6.38-2.5-9.5-3.92-.55-.25-1.15-.4-1.73-.59.41.28.8.62 1.26.84a147.1 147.1 0 0011.8 4.86c6.94 2.58 13.49 5.94 19.31 10.59.32.25.63.52.84.98l-.84-.52c-1.3-.84-2.63-1.66-3.93-2.52-3.53-2.36-7.4-4-11.46-5.16-4.7-1.33-9.26-3.1-13.77-4.94-1.63-.67-3.18-1.55-4.73-2.38-1.74-.94-3.43-1.95-5.16-2.9a12.9 12.9 0 01-3.54-2.77c-.94-1.07-1.93-2.1-2.9-3.15zM45.2-25.62c-.43-.1-.7-.11-.95-.21-4.4-1.73-8.81-3.41-13.17-5.22a31.03 31.03 0 01-4.52-2.42c-4.27-2.67-8.5-5.4-12.74-8.12-.36-.24-.7-.5-1.06-.77.5.17 1.03.3 1.5.52 3.88 1.9 7.75 3.8 11.6 5.74 2.96 1.5 5.89 3.07 8.84 4.6 1.6.84 3.22 1.69 4.84 2.5.31.17.68.23 1.02.33-.37-.27-.71-.58-1.1-.8-2.35-1.33-4.7-2.66-7.07-3.95-1.5-.81-3.02-1.59-4.55-2.36-3.06-1.53-6.13-3.04-9.19-4.58-.25-.12-.46-.32-.68-.5.48.12.97.2 1.42.37 1.88.73 3.75 1.5 5.61 2.25 1.64.67 3.25 1.37 4.9 1.99 2.39.9 4.58 2.14 6.68 3.59 1.36.93 2.76 1.83 4.18 2.67a34.36 34.36 0 015.38 3.67c.3.27.52.6.78.9l-.95-.19a1.73 1.73 0 00-1.37-.77l.6.76zm1.15-1.24a33.49 33.49 0 00-5.5-3.76 59.71 59.71 0 01-3.93-2.52 29.82 29.82 0 00-7.12-3.75c-1.61-.58-3.18-1.27-4.76-1.9-2.31-.92-4.61-1.86-6.94-2.74a35.25 35.25 0 01-6.36-3.23c-.23-.15-.43-.37-.63-.57.52.16 1.06.29 1.56.48 4.32 1.66 8.64 3.3 13.09 4.59 3.5 1 6.83 2.5 9.9 4.5 2.52 1.66 5.04 3.31 7.52 5.02a14.58 14.58 0 013.9 4.32c-.25-.14-.52-.25-.73-.44zM14.19-42.63c-.14 0-.29.01-.4-.04-2.7-1.28-5.4-2.58-7.74-4.48-.11-.1-.18-.22-.27-.33.19.03.4.03.55.12l7.86 4.73zm-32.38 75.27a54.56 54.56 0 01-.56-7.14c-.06-3.78.02-7.58.07-11.36.05-3.27.22-6.54.2-9.81-.02-2.96-.13-5.92.14-8.87.35-3.83.75-7.64 1.12-11.47.05-.5.06-1.02.08-1.54-.15.49-.38.96-.45 1.45-.84 5.87-1.54 11.75-1.47 17.68.05 5-.09 9.97-.26 14.95-.1 2.9-.03 5.81-.03 8.78-.07-.1-.1-.12-.1-.15a141.4 141.4 0 01-1.73-16.27 115 115 0 01.97-19.28c.7-5.63 1.73-11.2 3.52-16.59.78-2.36 1.73-4.67 2.62-7 .08-.22.24-.4.38-.6l-.77 4.85c-.1.61-.17 1.23-.26 1.84.13-.27.33-.52.38-.8.42-2.07.82-4.13 1.21-6.2.05-.24-.02-.5-.03-.76.14-.37.33-.73.42-1.11.77-3.54 2.09-6.9 3.41-10.25-.09.57-.16 1.14-.28 1.7-.75 3.45-1.76 6.86-2.02 10.39-.4 5.34-1.45 10.6-2.05 15.9-1.04 9.28-2.09 18.57-2.54 27.9-.22 4.36-.45 8.72-.55 13.07-.07 3.06.08 6.13.12 9.19.04 2.75.08 5.5-.02 8.25-.52-2.25-1.17-4.48-1.52-6.75zm2.19 1.4c.03-3.23-.15-6.45-.12-9.67.05-3.94.12-7.9.35-11.83.38-6.27.84-12.54 1.37-18.8.38-4.5.9-8.99 1.42-13.48.27-2.32.74-4.61 1.05-6.93.28-2 .54-4.01.68-6.03.22-3.07.83-6.07 1.5-9.06.04-.2.14-.37.4-.54 0 .96.03 1.92-.04 2.87-.45 5.59-.9 11.18-1.4 16.76-.4 4.2-.6 8.39-.7 12.6-.1 4.35-.26 8.71-.38 13.07-.08 2.75-.1 5.5-.22 8.25-.16 3.74-.36 7.47-.63 11.2-.32 4.45-.6 8.91-1.15 13.34-.45 3.62-.46 7.25-.76 10.87l-.2 1.89c-1-4.96-1.21-9.73-1.17-14.52zm7.3-76.43l.32 9.23c.07 2.33.02 4.67.18 7 .38 5.7.42 11.4.08 17.11-.23 3.78-.25 7.58-.52 11.35-.32 4.5-.83 9-1.2 13.5-.7 8.65-2.22 17.18-3.63 25.73-.04.25-.13.5-.39.75 0-.41-.06-.83-.02-1.23.31-3.05.72-6.08.95-9.14.5-6.67 1.02-13.35 1.34-20.03.34-7.3.57-14.63.64-21.94.07-6.82.87-13.57 1.41-20.34.3-3.72.46-7.46.69-11.18.02-.28.1-.54.15-.81zM1.75 13.29C2.73 8 3.38 2.67 3.78-2.7a49.91 49.91 0 01-2.03 16zm-2.56-48c.1.24.26.46.3.7.77 3.98 1.53 7.96 2.27 11.94.32 1.73.6 3.48.88 5.22.82 5 .86 10 .45 15.05-.57 7-1.64 13.91-3.34 20.72-.27 1.1-.6 2.2-.98 3.28-1.49 4.16-3 8.3-4.52 12.45-1.05 2.88-2.55 5.55-4 8.36l-.33-.44-.55.67a2.1 2.1 0 01.43-1.57l.23-.66c.1-.61.16-1.23.32-1.82 1.75-6.57 3.56-13.13 5.25-19.71 1.09-4.28 2.18-8.56 2.54-12.98.33-3.93.48-7.87.8-11.8.32-3.95.12-7.89.07-11.83-.04-2.6 0-5.19-.02-7.78-.01-4.26-.08-8.52-.74-12.74-.04-.25-.07-.51.12-.8l.82 3.74zm-4.35-13.91c1.2 2.73 2.1 5.53 2.38 8.52.11 1.19.33 2.37.49 3.55.64 4.6.71 9.22.7 13.85-.01 2.96-.06 5.92.03 8.88.1 2.96.05 5.91-.16 8.87-.26 3.47-.35 6.95-.7 10.41a88.27 88.27 0 01-1.28 8.31 265.68 265.68 0 01-5.15 20.56 765.04 765.04 0 01-3.37 11.52c-.14.49-.45.94-.7 1.4.52-2.71.98-5.44 1.56-8.14 1.26-5.9 2.58-11.77 3.88-17.65.79-3.6 1.06-7.29 1.45-10.95.74-6.97 1.1-13.97 1.36-20.97.13-3.57.15-7.15.2-10.73.01-.53-.09-1.07-.14-1.6-.1.83-.24 1.67-.25 2.5-.09 8.6-.46 17.2-1.22 25.76-.33 3.72-.77 7.43-1.17 11.14-.39 3.46-1.4 6.8-2.13 10.2-1.2 5.62-2.34 11.26-3.52 16.9a160.9 160.9 0 01-1.04 4.54c-.07.26-.22.5-.34.75l1.03-5.88c1.36-7.6 2.87-15.2 3.62-22.9.7-7.27 1.4-14.56 1.9-21.85.36-5.28.43-10.57.6-15.86.03-1.25-.1-2.5-.13-3.74-.14-4.35-.3-8.71-.42-13.07-.1-3.62-.2-7.23-.27-10.85.1-1.14.16-2.29.2-3.43a.36.36 0 00.25-.3c.18-1.17.22-2.38.18-3.58l.34-.1a11.96 11.96 0 011.04 5.15c0 2.35.37 4.65.82 6.95l-.74-9.11.18-.07c.18.34.37.67.52 1.02zM-4-50.39c-1-1.47-1.87-3.03-2.8-4.56.19.14.4.25.53.43 1.4 2 2.78 4 4.15 6.02.13.2.19.44.27.66-.72-.84-1.53-1.63-2.15-2.55zm19.39 31.32l.74 1.31c-.45-.33-.63-.8-.74-1.31zm3.8 6.74c-1-1.76-1.98-3.53-2.96-5.3.16.15.35.3.46.48 1.1 1.8 2.17 3.6 3.1 5.54-.2-.24-.45-.45-.6-.72zm7.14 14l.23-.06c.06.15.17.3.18.45 0 .11-.14.23-.33.53l-.08-.92zm-1.79 14.65c.05.36.12.71.13 1.06.12 2.44.25 4.87.33 7.3.17 4.74 1.12 9.4 1.46 14.1a172 172 0 001.5 13.32c.33 2.26.81 4.5 1.08 6.77.54 4.59.98 9.19 1.46 13.78l-.22.04c-.34-1.83-.67-3.67-1.03-5.5-.47-2.34-.94-4.68-1.43-7.02-.62-2.95-.88-5.95-1.17-8.95-.44-4.45-.91-8.9-1.51-13.32-.45-3.3-.74-6.6-.68-9.93.04-2.39-.1-4.78-.17-7.17-.04-1.5-.1-2.99.25-4.48zm5.71 63.28c-1.34-4-2.32-8.09-3.22-12.2-1.36-6.25-2.65-12.5-3.2-18.89-.41-4.81-.77-9.64-.92-14.46-.09-2.95.24-5.91.41-8.87.03-.53.21-1.06.33-1.59.08 1.64.23 3.27.2 4.9-.06 3.28.26 6.52.72 9.77.61 4.27 1.08 8.56 1.57 12.85.27 2.32.4 4.65.7 6.97.17 1.39.55 2.75.82 4.12.3 1.58.55 3.18.87 4.75.63 3.1 1.3 6.2 1.97 9.3.65 2.99 1.32 5.98 1.74 9.04-.66-1.9-1.34-3.79-1.99-5.7zm4.57 10.91c-.77-2.7-1.48-5.4-2.2-8.12-.12-.45-.22-.9-.28-1.37-.79-6.08-1.53-12.17-2.35-18.24-.6-4.43-1.32-8.84-1.94-13.26-.3-2.11-.52-4.23-.75-6.35-.22-1.96-.4-3.93-.6-5.9-.5-4.75-1.07-9.5-1.48-14.26-.22-2.68-.18-5.39-.23-8.08-.02-1.3-.06-2.6.06-3.9.18-1.74.5-3.47.76-5.21.5 3.83 1.09 7.63.9 11.5-.08 1.75.09 3.52.24 5.28.25 2.94.56 5.89.87 8.83.23 2.17.45 4.35.75 6.5.54 3.81 1.19 7.6 1.7 11.41.68 4.9 1.33 9.8 1.88 14.7.52 4.7.92 9.4 1.31 14.12.32 3.85 1.25 7.59 1.92 11.37.28 1.58.54 3.17.71 4.77-.65-1.19-.9-2.51-1.27-3.79zm3.56-1.13l-.13-4.28c-.06-1.76-.08-3.53-.2-5.3-.23-3.1-.56-6.2-.78-9.31-.79-11.05-2.51-22-3.95-32.96-.68-5.15-1.6-10.28-2.65-15.36-.87-4.22-1.83-8.43-2.54-12.68-.16-1.02-.45-2.01-.77-3.35.82.89 1.01 1.7 1.25 2.46.73 2.38 1.39 4.79 2.1 7.17.8 2.63 1.7 5.24 2.45 7.88.64 2.2 1.18 4.41 1.69 6.64.77 3.39 1.47 6.8 2.2 10.2.13.65.22 1.32.33 1.99.39 2.25.89 4.5 1.13 6.76.42 3.87.68 7.76.99 11.64.15 1.96.27 3.93.4 5.9.3 4.2.12 8.41-.2 12.6-.21 3-.57 6-.88 8.99-.04.34-.15.68-.22 1.03l-.22-.02zm-.76.97c-.16-1.28-.31-2.57-.5-3.85-1.04-7.56-2.1-15.12-3.16-22.68l-.44-2.93-4.39-31.18a222.7 222.7 0 01-1.77-17.05c-.06-1.08-.03-2.16-.04-3.24l.08-.01c.3 1.58.6 3.16.93 4.73l2.22 10.83c.09.41.19.81.26 1.22a378.7 378.7 0 013.6 25.15c.23 2.17.62 4.32.87 6.49.46 4.18.9 8.36 1.31 12.55.28 2.9.55 5.79.72 8.7.18 3.2.25 6.42.37 9.64.02.54.03 1.09-.06 1.63zm-.6 5.56c-.62-3.37-1.3-6.73-1.86-10.11-.46-2.76-.86-5.54-1.17-8.33-.48-4.44-.85-8.9-1.31-13.33-.36-3.47-.7-6.93-1.19-10.38-.76-5.45-1.67-10.89-2.43-16.34-.36-2.62-.54-5.26-.8-7.9l.16-.04c.04.26.1.5.13.76 1.26 8.85 2.5 17.7 3.77 26.54 1.02 7.2 2.02 14.4 3.12 21.6.5 3.18.97 6.36 1.21 9.58.18 2.33.51 4.65.76 6.97.06.66.05 1.33-.18 2.02l-.2-1.04zm1.77 2.3c-.03.13-.13.25-.2.37-.24-2.37-.26-4.73.23-7.09 1.08-5.15 1.37-10.39 1.62-15.63.3-6.4-.15-12.76-.87-19.12-.16-1.44-.2-2.9-.33-4.35-.43-4.76-1.27-9.46-2.31-14.13-.67-2.99-1.15-6.02-1.86-9-.7-2.92-1.57-5.8-2.41-8.7-.83-2.84-1.75-5.65-2.55-8.5a40.17 40.17 0 00-2.32-6.43c-.18-.37-.38-.75-.46-1.15-.07-.32.02-.67.28-1.05.31.63.63 1.27.92 1.91 1.95 4.26 3.4 8.7 4.78 13.17 1.15 3.71 2.25 7.45 3.24 11.21.7 2.6 1.12 5.28 1.77 7.9 1.39 5.57 2.09 11.24 2.72 16.92.27 2.42.2 4.87.27 7.3.06 1.77.1 3.54.17 5.3.27 7.95.12 15.89-1.1 23.77-.39 2.45-1.04 4.87-1.59 7.3zm1.2-66.07a109.8 109.8 0 013.54 18.5c1.15 10.87.47 21.67-1.34 32.42-.07.42-.25.82-.38 1.23l.08-2.4c.08-3.37.22-6.74.2-10.11a404.2 404.2 0 00-.29-14.01c-.1-2.43-.43-4.86-.71-7.28-.2-1.65-.53-3.29-.7-4.94-.4-3.73-1.38-7.34-2.21-10.99-.56-2.43-1.06-4.87-1.73-7.27-.93-3.35-1.98-6.66-3.02-9.98-.7-2.22-1.47-4.41-2.14-6.65.7.87 1.22 1.84 1.67 2.85 2.7 6.08 5.21 12.23 7.03 18.63zm14.46 8.8a48 48 0 01-5.75-6.54c-3.95-5.47-7.94-10.9-11.9-16.37a47.1 47.1 0 01-2.5-3.76c-.47-.8-.76-1.73-1.13-2.6.25.28.52.55.73.87a275.12 275.12 0 0018.37 25.11c1 1.22 1.91 2.5 2.86 3.76-.24-.15-.48-.29-.68-.47zm9.58 17.3c.39 1.95.4 3.9.07 5.85l-.07-5.84zm.8-.4h.15c1.1 5.19 2.18 10.37 3.26 15.56.17.8.28 1.64.39 2.46.6 4.49 1.61 8.88 2.84 13.24a94.9 94.9 0 012.31 10.34c.5 2.98 1.25 5.89 1.98 8.81.82 3.33 1.63 6.66 2.46 9.98.48 1.92 1 3.82 1.47 5.74.2.84.35 1.7.3 2.62-.16-.3-.34-.6-.48-.91a72.73 72.73 0 01-3.32-9.4c-1.15-3.88-2.41-7.72-3.52-11.62-.7-2.5-1.25-5.04-1.8-7.58-.76-3.4-1.55-6.79-2.18-10.2-.88-4.81-1.77-9.62-2.2-14.5-.25-2.95-.65-5.88-.99-8.82l-.68-5.72zm8.67 59.99a94.4 94.4 0 01-6.62-17.95c-.73-2.97-1.3-5.98-1.9-8.99-.4-2.04-.74-4.09-1.03-6.14-.94-6.68-.73-13.37 0-20.05.01-.13.08-.26.13-.39.2 3.09.35 6.18.61 9.27.35 4.03.76 8.06 1.18 12.1.3 2.84.67 5.67.98 8.51a39.9 39.9 0 001.51 7.48c.37 1.18.6 2.42.83 3.64.35 1.8 1.11 3.45 1.83 5.12 1.31 3.05 2.55 6.14 3.8 9.21.12.3.16.65.22.98-.52-.93-1.08-1.83-1.54-2.79zm4 6.77c-1.1-2.64-2.11-5.3-3.2-7.95-.83-2.07-1.65-4.15-2.59-6.17a30.08 30.08 0 01-2.12-6.34c-.37-1.67-.83-3.32-1.2-5a46.03 46.03 0 01-.7-3.98c-.63-4.95-1.28-9.9-1.8-14.87-.4-3.92-.64-7.87-.94-11.8-.1-1.34-.13-2.69.05-4.07.08.5.19 1 .24 1.51.33 3.1.63 6.2.95 9.3.04.42.06.84.13 1.25.83 4.6 1.39 9.24 2.5 13.8.73 2.97 1.23 6 1.92 8.98.57 2.48 1.2 4.94 1.94 7.38 1.32 4.43 2.66 8.85 4.14 13.22.89 2.66 2.05 5.22 3.08 7.82l.66 1.66a15.78 15.78 0 01-3.06-4.74zm3.7 3.65c-.39-3-1.29-5.88-2.01-8.8-.57-2.32-1.08-4.66-1.66-6.97-.7-2.78-1.43-5.54-2.14-8.3-.16-.6-.32-1.2-.41-1.82-.63-4.22-1.49-8.4-2.57-12.52-.29-1.1-.67-2.18-.97-3.29a92.57 92.57 0 01-2.33-12.24c-.02-.15.01-.3.02-.45l.18.02c.56 1.95 1.08 3.9 1.69 5.83a57.52 57.52 0 001.65 4.53 87.28 87.28 0 014.67 14.84c.64 2.94 1.31 5.87 1.95 8.82.2.91.33 1.84.47 2.77.94 6.27 1.88 12.53 2.8 18.8.15.97.21 1.95.23 2.94a9.4 9.4 0 01-1.57-4.16zm-14.7-70.73c4.69 8.09 8.15 16.67 10.71 25.67a143.52 143.52 0 014.66 23.99c.26 2.43.56 4.85.79 7.29.12 1.34.15 2.68.14 4.03-.36-1.71-.72-3.43-1.06-5.14-.71-3.62-1.35-7.25-2.13-10.86-.91-4.2-1.76-8.43-3.02-12.56a32.33 32.33 0 01-.84-3.8c-.77-4.37-2.3-8.5-3.85-12.64-1.16-3.11-2.27-6.25-3.42-9.36-.22-.57-.57-1.08-.86-1.62.14.5.27 1 .45 1.48 1.92 5.38 3.9 10.73 5.74 16.13.7 2.05 1.1 4.21 1.62 6.33l1.5 6.2c.36 1.46.73 2.91 1.06 4.38.45 1.92.86 3.84 1.29 5.77l.2 1.07 1.48 7.16c.03.16.08.3.1.46.7 4.36 1.66 8.67 2.01 13.08.14 1.76.04 3.5-.24 5.28-.08-.54-.18-1.08-.25-1.62-.54-4.38-1.06-8.77-1.63-13.15-.64-4.9-1.59-9.73-2.67-14.55-.95-4.26-2.1-8.46-3.55-12.58-.28-.78-.55-1.57-.9-2.32a60.46 60.46 0 01-3.46-9.83c-1.01-3.7-2.15-7.37-3.16-11.08-.5-1.83-.82-3.7-1.28-5.8l.74.9-.7-3c.18.23.38.44.52.69zm-2.37-.79l-1.1-4.89c.93 1.02 1 1.32 1.1 4.9zm9.49.64c.98.62 1.95 1.25 2.94 1.85.34.2.74.31 1.1.46-1.02-.77-2.02-1.56-3.06-2.3-2.57-1.82-5.15-3.6-7.73-5.41a2.93 2.93 0 01-1.6-1.02l1.66.94c.37.17.78.3 1.12.51 3.66 2.36 7.32 4.73 10.96 7.12.5.34.91.83 1.3 1.3.13.15.06.47.08.71 1.26 1.32 2.12 2.9 3.02 4.47.01.03-.04.1-.12.24-.9-.78-1.81-1.53-2.68-2.3a1079 1079 0 01-6.57-5.96c-.17-.17-.29-.4-.42-.6zm3.98-10.89c-.96-3.12-2.28-6.14-3.2-9.27-1.37-4.59-3.14-9.03-4.55-13.6-1.19-3.82-2.83-7.48-4-11.3a75.07 75.07 0 01-2.4-9.68c-.38-2.35-.84-4.7-1.14-7.07-.44-3.4-.77-6.82-1.14-10.23l-.1-1.3c.9 3.28 1.78 6.43 2.6 9.6.57 2.2 1.16 4.42 1.56 6.67 1.13 6.37 3.07 12.5 5.38 18.53 1.87 4.9 3.9 9.74 5.62 14.7 1.9 5.49 3.75 11 5.08 16.68.2.86.3 1.74.43 2.61l1.28 7.85c.03.18.05.37.02.56-1.9-4.89-3.9-9.73-5.44-14.75zm-3.94 13.2c.79.65 1.57 1.3 2.37 1.93.43.33.9.62 1.34.93.36.42.67.89 1.07 1.26 2.9 2.76 5.9 5.4 8.72 8.25 4.68 4.73 9.11 9.69 13.36 14.82 3.8 4.6 7.84 9.01 11.76 13.52 2.25 2.6 4.48 5.2 6.69 7.82.34.4.57.9.85 1.35-.78-.72-1.58-1.42-2.33-2.16A516.7 516.7 0 0198 87.2c-1.74-1.93-3.54-3.8-5.37-5.65-4.23-4.24-7.91-8.95-11.76-13.52-1.74-2.06-3.56-4.07-5.33-6.1-.64-.74-1.26-1.5-1.9-2.25zm12.68 6.73c.28.19.6.36.86.58 3.22 2.63 6.48 5.22 9.64 7.92a49.13 49.13 0 014.55 4.48c2.7 3.01 5.43 6.03 7.94 9.2 3.28 4.17 6.24 8.57 8.88 13.18 1.31 2.3 2.82 4.48 4.23 6.72.27.42.51.85.77 1.27-5.94-7.25-11.75-14.57-17.97-21.56-6.22-6.99-12.67-13.75-19.7-19.7l.8-2.09zM124 114.77c-.44-.28-.9-.53-1.31-.83-4.72-3.26-9.01-7.03-13.26-10.86-4.9-4.43-9.66-9.01-14.28-13.73-4.34-4.42-8.04-9.39-11.68-14.4-1.59-2.17-3.23-4.32-4.82-6.5-1.14-1.55-2.24-3.11-3.36-4.67l-.34-.62-.35-.57c.09.02.18.01.26-.03.06-.04.12-.1.19-.12.02 0 .07.05.1.07l.37.28.38.59c.29.2.62.37.86.62.64.67 1.29 1.36 1.86 2.09a295.95 295.95 0 0018.03 20.6A733.43 733.43 0 00119 109.66c.34.33.93.57.7 1.24.27.3.5.63.8.88.77.61 1.59 1.15 2.34 1.78.43.34.77.8 1.14 1.2l.01.01zm1.47-.28c-1.7-1.79-3.43-3.53-5.05-5.37-4.68-5.35-9.32-10.74-13.98-16.12-2.17-2.52-4.37-5-6.47-7.58-3.88-4.75-8.09-9.2-12.33-13.63l-.29-.33c.13 0 .24-.1.3-.22 0 .02.03.03.04.04 8.71 7.75 16.51 16.37 23.89 25.37 4.34 5.3 8.53 10.72 12.78 16.1.42.53.74 1.15 1.1 1.74zM86.85 64.64c4.95 3.62 9.94 7.17 14.4 11.42a94.02 94.02 0 0119.17 25.92c1.5 2.97 2.98 5.94 4.46 8.92.13.26.2.54.28.82-.13-.13-.28-.25-.37-.4l-7.64-12.5c-3.58-5.86-7.47-11.49-12.18-16.52-1-1.06-1.9-2.2-2.93-3.23-1.89-1.86-3.75-3.76-5.77-5.46-3.3-2.77-6.71-5.4-10.18-8.17l.1-1.13c.3.15.5.21.66.33zM65.62-14.63c2.61 4.97 4.7 10.18 6.91 15.32a138.95 138.95 0 017.12 20.59l.51 1.95c.04.15.02.3.03.66-6.23-12.84-10.7-26.15-15.13-39.49.18.32.39.64.56.97zm.5 4.34c1.75 4.94 3.44 9.9 5.25 14.82 2.37 6.43 5.14 12.7 8 18.92.4.85.74 1.72 1.09 2.59a19.2 19.2 0 011.33 5.1c.27 2.43.6 4.85.89 7.27.03.28.05.56-.11.88-.13-.37-.29-.75-.38-1.13-1.74-7.22-3.69-14.39-6.54-21.26A166.5 166.5 0 0071.07 7a51.31 51.31 0 01-3.38-8.69c-.94-3.3-1.87-6.6-2.76-9.9-.42-1.59-.76-3.2-1.14-4.8l.2-.06c.71 2.05 1.41 4.1 2.14 6.15zm-3.94-10.56c.79 3.23 1.5 6.48 2.3 9.7.73 2.92 1.56 5.82 2.3 8.74.8 3.08 1.82 6.07 3.27 8.9.67 1.3 1.31 2.6 1.97 3.9a83.14 83.14 0 015.45 13.07c1.46 4.76 2.93 9.53 4.16 14.36a57.9 57.9 0 011.84 12.79c.04 1.55.3 3.1.42 4.65.22 2.8.39 5.6.57 8.4.02.25 0 .5 0 .76l-.33.04c-.06-.28-.13-.56-.17-.84-.23-1.75-.45-3.5-.7-5.25-.1-.77-.27-1.54-.36-2.3a68.54 68.54 0 00-3-13.53c-1.5-4.6-2.84-9.23-4.66-13.72-1.78-4.38-3.47-8.8-5.15-13.2a83.8 83.8 0 01-3.98-13.93c-.77-4.03-1.77-8-2.92-11.95a56.13 56.13 0 01-1.9-9c-.22-1.84-.57-3.67-.87-5.54.86 1.2 1.42 2.54 1.76 3.95zm-1.83.87c-.04-.22-.09-.43-.12-.65l-.34-2.68.14-.02.42 3.32-.1.03zM59.11-24c.57 4 1.15 8.02 1.7 12.04.21 1.64.31 3.3.52 4.95.31 2.42.64 4.84 1.02 7.25.3 1.85.68 3.68 1.06 5.51.8 3.87 1.98 7.63 3.35 11.34.84 2.24 1.54 4.52 2.32 6.77 1.14 3.29 2.32 6.56 3.46 9.85 1.52 4.36 3.04 8.73 4.5 13.1 1.09 3.26 2.11 6.53 3.49 9.67.15.35.2.75.28 1.12-.41-.61-.84-1.22-1.23-1.85a52.05 52.05 0 01-3.86-7.47c-1.1-2.63-2.41-5.18-3.48-7.82a67.6 67.6 0 00-3.1-6.8 31.83 31.83 0 01-2.6-6.33c-.74-2.54-1.66-5.03-2.45-7.55a62 62 0 01-2.03-10.4c-.4-2.93-.7-5.88-1.06-8.82-.54-4.33-1.25-8.65-1.6-13-.32-3.76-.9-7.53-.65-11.34.04-.72-.07-1.45.04-2.2L59.1-24zm15.87 72.93c-1.08-2.07-2.19-4.12-3.22-6.2a201.97 201.97 0 01-9.34-22.43c-.86-2.44-1.41-5-1.98-7.53a126.81 126.81 0 01-2.35-15.4c-.21-2.22-.18-4.47-.16-6.7.01-2.64.13-5.3.21-7.94.02-.4.1-.81.27-1.22.14 1.99.25 3.98.42 5.96.12 1.45.23 2.9.49 4.33.54 2.97.91 5.95 1.13 8.97.34 4.77 1.04 9.5 1.9 14.2.72 3.96 2.1 7.71 3.24 11.54.93 3.11 2.24 6.03 3.7 8.9.76 1.53 1.36 3.15 2.04 4.72.79 1.8 1.57 3.62 2.37 5.42.49 1.08 1.01 2.15 1.52 3.23l-.24.15zM57.58-27.3c.18 1.92.3 3.85 0 5.75-.72 4.7-.76 9.42-.86 14.15-.1 4.8.62 9.52 1.42 14.24.61 3.6 1.34 7.16 2.4 10.63.9 2.92 2 5.8 3.15 8.63a265.18 265.18 0 0012.05 25.49 58.27 58.27 0 012.92 6.37c-.6-.4-1.17-.82-1.79-1.19-3.65-2.2-7.3-4.37-10.96-6.57-1.33-.81-2.64-1.66-3.94-2.51-.3-.2-.59-.45-.82-.72-1.22-1.41-2.45-2.82-3.63-4.28-4.9-6.06-9.44-12.4-13.9-18.79A307.99 307.99 0 0126.48-3.8c-4.47-8.09-9.14-16.08-13.76-24.09-1.3-2.25-2.71-4.43-4.13-6.6C4.24-41.21-.15-47.9-4.52-54.6c-.18-.29-.31-.6-.46-.91.45.4.95.75 1.34 1.2 2.33 2.7 5.1 4.88 7.9 7.05 4.02 3.13 8.18 6.06 12.5 8.78l8.44 5.32a42.94 42.94 0 007.95 3.94c4.63 1.72 9.26 3.4 13.9 5.12.96.37 1.9.8 2.87 1.2l.93.35c.5-.23.58-.55.41-.94-.06-.14-.16-.27-.25-.39a90.79 90.79 0 00-12.03-13.47 58.06 58.06 0 00-11.13-7.7c-5.18-2.8-10.67-4.87-16.26-6.73-3.3-1.1-6.58-2.27-9.82-3.52-1.5-.58-2.9-1.4-4.31-2.16-.49-.26-.86-.72-1.3-1.08-.55-.46-1.07-.99-1.68-1.37-4.31-2.73-7.86-6.3-11.15-10.13-1.3-1.5-2.46-3.09-3.73-4.6-.52-.64-1.2-1.15-1.74-1.77a207.09 207.09 0 00-16.81-16.91 304.56 304.56 0 00-26.62-21.61 246.8 246.8 0 00-19.88-12.87c-2.24-1.32-4.46-2.68-6.68-4.02-.24-.15-.44-.36-.66-.54.67.17 1.36.3 2.01.52 1.77.61 3.52 1.27 5.28 1.89 3 1.06 5.9 2.33 8.68 3.87a48.68 48.68 0 007.48 3.49c5.66 1.98 11 4.63 16.25 7.5 6.76 3.68 13.52 7.36 20.08 11.37A407.73 407.73 0 01-9.64-88.45c6.61 4.69 13.2 9.42 19.74 14.2a216.4 216.4 0 0114.28 11.6c2.32 2.01 4.71 3.93 6.97 6 3.75 3.45 7.46 6.95 11.1 10.5 4.37 4.24 8.63 8.58 12.96 12.85a4.8 4.8 0 011.6 3.1c.08.97.48 1.92.57 2.9zm72.95 123.85c-3.18-5.3-6.33-10.62-8.56-16.42-2-5.2-3.73-10.47-5.03-15.89-1.21-5.05-2.54-10.07-3.66-15.14-.77-3.44-1.27-6.95-1.8-10.45.82 1.48 1.21 3.1 1.69 4.68 1.23 4.07 2.42 8.16 3.6 12.25.37 1.25.67 2.5.98 3.77.76 3.08 1.47 6.16 2.26 9.23.6 2.36 1.13 4.77 1.99 7.04 1.84 4.85 3.86 9.64 5.84 14.44.82 1.96 1.75 3.88 2.62 5.83.13.3.23.64.34.96-.1-.1-.2-.19-.27-.3zm-15.23-49l.24 1.18-.47-1.1.23-.07zm21.41 57.85c-3.56-5.15-6.27-10.75-8.66-16.5a340.19 340.19 0 01-5.4-13.74c-.89-2.43-1.4-5-2.08-7.5-.5-1.84-1.02-3.7-1.49-5.55-.38-1.5-.66-3.04-1.05-4.55-.46-1.75-1-3.48-1.5-5.23-.16-.6-.28-1.2-.42-1.81.48 1.14.98 2.27 1.4 3.43 1.6 4.34 3.23 8.66 4.72 13.04 2 5.9 4.16 11.74 6.3 17.6 1.57 4.29 3.38 8.48 5.25 12.65 1.33 2.99 2.57 6.02 3.85 9.02.06.13.07.27.1.4-.34-.42-.7-.82-1.02-1.26zm4.27 6.3c-1.3-2.47-2.54-5-3.68-7.55A343.48 343.48 0 01127 78.75c-1.9-5.16-3.69-10.36-5.53-15.54-2.01-5.68-4.05-11.34-6.03-17.02-1.56-4.46-3.05-8.94-4.57-13.41a8.07 8.07 0 01-.41-3.2c.47 1.47.88 2.97 1.43 4.41a186.6 186.6 0 002.99 7.35c2.78 6.43 5.6 12.85 8.41 19.26 1.35 3.1 2.8 6.15 4.03 9.29 3.04 7.78 6.07 15.57 8.95 23.41 2.57 7.02 4.94 14.1 7.4 21.17.12.36.16.77.23 1.16a13.51 13.51 0 01-2.92-3.94zm2.11-.45c-1.85-5.4-3.56-10.86-5.56-16.21a900.18 900.18 0 00-10.84-28.04c-3.56-8.64-7.49-17.13-11.32-25.66a99.8 99.8 0 01-4.46-12.12c-.45-1.5-.94-2.97-1.4-4.46-.08-.27-.13-.55.03-.93l.94 1.56c2.8 4.87 5.2 9.94 7.16 15.2.21.57.57 1.08.86 1.61-.4-1.17-.76-2.36-1.2-3.52a92.06 92.06 0 00-4.66-10.42c.31.29.67.55.91.9 1.05 1.54 2.15 3.07 3.05 4.7 3.3 5.88 6.66 11.74 9.43 17.9 2.33 5.2 4.6 10.45 6.72 15.74 1.27 3.18 2.23 6.47 3.31 9.72 1.18 3.54 2.37 7.08 3.5 10.64.7 2.23 1.3 4.48 1.93 6.73.07.24.07.5-.06.8-.6-1.78-1.15-3.58-1.83-5.32-1.87-4.84-3.8-9.66-5.72-14.47a226.8 226.8 0 00-6.94-15.31c-.16-.31-.4-.58-.6-.88.24.68.44 1.39.74 2.03a342.93 342.93 0 0111.14 26.58c1.66 4.41 2.98 8.96 4.35 13.48.49 1.58.7 3.25.96 4.9.48 3.07.9 6.15 1.12 9.3-.52-1.49-1.05-2.96-1.56-4.45zm-7.5-52.46a66.7 66.7 0 016.4 15 98.42 98.42 0 013.22 14.92c.32 2.42.64 4.83.94 7.26.06.5.06 1 0 1.52-.56-3.06-1.15-6.12-1.66-9.2a116.37 116.37 0 00-3.72-15.77c.04-.04.07-.1.04-.18a109.53 109.53 0 00-6.17-14.75l-.04-.14c.33.45.71.86 1 1.34zm-3.82-5.81c.93 1.73 1.75 3.53 2.63 5.28.13.25.27.48.42.72 1.66 3.52 3.18 7.12 4.6 10.75.5 1.54.96 3.1 1.4 4.66.91 3.3 1.76 6.62 2.4 10l.26 1.37 1.99 11.04.3 1.85c.36 2.25.8 4.5 1.1 6.77.2 1.59.23 3.2.22 4.82-.49-2.94-1.01-5.87-1.46-8.81-.6-3.97-1.59-7.84-2.58-11.72-.7-2.71-1.37-5.43-2.13-8.13-1.16-4.1-2.35-8.19-3.62-12.25-1.13-3.62-2.24-7.24-3.83-10.7-2.17-4.71-4.34-9.44-7-13.91-.2-.36-.35-.75-.52-1.13a78.22 78.22 0 015.82 9.39zm-6.6-9.22c2.64 4.12 4.65 8.57 6.74 12.99a97.76 97.76 0 014.82 12.98c1.25 4.07 2.53 8.14 3.64 12.24 1.27 4.66 2.39 9.36 3.55 14.05.9 3.63 1.52 7.32 2.07 11.02.37 2.52.8 5.03 1.18 7.55.25 1.64.1 3.3.12 4.94l-.39.11c-.13-.37-.32-.72-.38-1.1-.7-4.36-1.3-8.74-2.09-13.09-.57-3.1-1.35-6.18-2.14-9.25-.8-3.11-1.68-6.2-2.62-9.28-1.45-4.77-3.03-9.5-4.48-14.27-1.8-5.93-4.55-11.48-6.9-17.19-2.3-5.59-5.23-10.85-8.07-16.17-.98-1.83-1.99-3.64-2.99-5.46-1.8-3.3-4.18-6.2-6.39-9.22-.55-.75-1.04-1.55-1.53-2.35-.26-.42-.46-.89-.81-1.58.93.42 1.37.97 1.8 1.53 5.35 6.91 10.15 14.2 14.86 21.55zm45.27 33.74a72.6 72.6 0 0112.16 19.8c.06.14.06.3.15.76-.36-.62-.58-.96-.76-1.3-3.5-6.8-7.65-13.2-12.1-19.39-.17-.23-.28-.49-.41-.74.32.28.68.55.96.87zm-.66.77c6.56 8.82 12.24 18.18 16.14 28.51.86 2.28 1.39 4.67 2.03 7.03.34 1.24.6 2.51.7 3.85l-.55-1.12c-1.3-2.72-2.52-5.47-3.88-8.16-1.74-3.42-3.57-6.8-5.4-10.18a67.58 67.58 0 00-2.05-3.49c-.18-.29-.48-.5-.73-.75.15.37.26.77.46 1.13 1.18 2.12 2.41 4.22 3.56 6.37a305.8 305.8 0 014.81 9.22c1.17 2.37 2.19 4.8 3.25 7.22.12.27.16.56.22.85-.27-.35-.57-.68-.8-1.05-3.73-5.93-7.43-11.88-11.19-17.8-1.14-1.79-2.43-3.5-3.64-5.24-2.9-4.18-5.79-8.37-8.7-12.54-3.54-5.06-7.1-10.11-10.68-15.15a87.24 87.24 0 01-5.15-8.16c-.9-1.63-1.89-3.22-2.74-4.95.22.22.48.4.68.65l9.74 11.95c1.58 1.93 3.16 3.86 4.75 5.77.22.27.54.44.81.66-.29-.48-.53-1-.88-1.42-4.33-5.42-8.68-10.83-13.02-16.24-.15-.18-.24-.4-.36-.6.45.3.94.57 1.33.93 7.67 7.04 15.06 14.35 21.29 22.71zm14.4 35.33a36.95 36.95 0 01-5.01-5.57c-4.33-6.02-8.68-12.04-12.94-18.1a130 130 0 01-5.23-8.1c-2.31-3.88-4.5-7.83-6.71-11.76-.26-.45-.41-.97-.6-1.46a515.14 515.14 0 0114.07 20.02c1.1 1.64 2.24 3.25 3.41 4.83 4.15 5.58 7.8 11.5 11.46 17.4.55.9 1.04 1.83 1.55 2.74zm45.12-65.75c.34-.02.7 0 1.09.17-.3.13-.6.29-.92.4-4.44 1.46-8.88 2.9-13.3 4.41-1.96.67-3.84 1.57-5.9 1.92-.19.03-.34.21-.5.32l1.36-.17c-1.3.9-2.8 1.25-4.24 1.7a69.95 69.95 0 01-13.24 2.76c-2.28.26-4.55.39-6.83.2-2.28-.19-4.56-.32-6.83-.5a36.66 36.66 0 01-7.18-1.4c-.12-.03-.23-.12-.52-.29 2.31.1 4.43.2 6.55.27l9.48.34c.47.01.94 0 1.4-.04l10.38-.97c.73-.06 1.45-.1 2.18-.1a16.7 16.7 0 005.16-1.02c.1-.03.15-.14.21-.22-.66.13-1.31.28-1.98.4-.97.17-1.94.36-2.91.45-1.24.12-2.5.13-3.73.24-2.9.23-5.8.55-8.7.73-1.76.1-3.53.03-5.3.02-.12 0-.25-.09-.38-.15l10.96-.9a38.4 38.4 0 009.9-1.9c1.62-.58 3.34-.83 4.97-1.34 3.46-1.08 6.92-2.2 10.35-3.39a32.5 32.5 0 018.47-1.94zm-6.16.46c-2.9.97-5.78 1.98-8.7 2.9-2.62.82-5.28 1.52-7.92 2.29-1.35.39-2.68.83-4.03 1.2-2.87.78-5.83 1-8.77 1.3-2.69.28-5.39.39-8.08.59-3.23.24-6.42-.08-9.6-.63-2.51-.43-5.02-.86-7.52-1.31-2.18-.4-4.32-.95-6.72-1.87 2.56.28 4.76.6 6.97.75 5.55.36 11.1.48 16.65.19.93-.05 1.86-.2 2.79-.33 3.7-.54 7.4-1.01 11.09-1.65 3.78-.65 7.55-1.4 11.37-1.85.92-.1 1.82-.4 2.72-.65a27 27 0 019.75-.93zm3.68-.83c-1.65.07-3.3.17-4.95.21-2.86.07-5.69.37-8.47 1.1-1.6.42-3.24.7-4.88 1-2.5.45-5 .85-7.52 1.28-.66.1-1.32.23-2 .32-4.22.55-8.44 1.08-12.67 1.64-3.05.41-6.11.27-9.17.18-3.94-.12-7.9-.18-11.81-.69a64.93 64.93 0 01-16.12-4.07c-.09-.04-.17-.11-.25-.17.73-.22.73-.22 1.5-.1 3.79.64 7.57 1.3 11.37 1.88 3.8.59 7.58 1.24 11.43 1.35 1.2.04 2.4.06 3.58-.02 4.36-.3 8.71-.57 13.05-1 2.58-.25 5.13-.76 7.7-1.19 2.35-.39 4.7-.8 7.05-1.24 1.53-.28 3.05-.6 4.58-.9 2.72-.52 5.48-.54 8.23-.45 2.9.1 5.8.28 8.7.43.2.01.4.07.6.1l.05.34zm-71.8.42l-2.24-.04c.77-.36 1.52-.42 2.23.04zm46.84-1.96c2.25-.6 4.5-.67 6.8-.6 2.69.1 5.38.21 8.08.3h.02c.63.1 1.25.22 1.88.33-.44.08-.84.02-1.23 0-.47-.02-.94.02-1.4 0-3.56-.12-7.04.5-10.5 1.25l-1.52.3c-3.53.63-7.04 1.33-10.58 1.88-2.05.31-4.13.4-6.2.56-2.8.22-5.6.31-8.4.6-3.85.4-7.67.2-11.49-.32-2.57-.36-5.13-.75-7.7-1.13-.3-.05-.58-.14-.85-.45.7-.01 1.42-.1 2.12-.03 3.06.27 6.11.17 9.17-.05 4.3-.32 8.6-.5 12.9-.82 3.31-.24 6.62-.6 9.93-.89 1.45-.13 2.9-.18 4.34-.32 1.55-.16 3.14-.22 4.63-.61zm-14.56-5.65c-1.92.02-3.83.21-5.75.36-.93.07-1.85.23-2.78.3a70.33 70.33 0 0115.33-2.18c8.5-.19 16.76 1.24 24.96 3.22 1.32.32 2.58.85 3.86 1.29-.62-.08-1.25-.13-1.87-.26a124.4 124.4 0 00-18.65-2.6c-1.86-.12-3.73 0-5.6-.01-3.17-.03-6.34-.14-9.5-.12zm2.24.57c3.64.1 7.28-.03 10.9.04 2.13.03 4.26.17 6.38.4 6.04.63 12.05 1.53 17.96 3.02 2.11.53 4.21 1.12 6.38 1.7-1.17.66-1.73.74-3.06.47l-4.12-.81.01.32-.94-.2c-1.1-.1-2.2-.2-3.3-.27-.56-.04-1.13-.02-1.69-.03l-.26-.04a6.08 6.08 0 00-1.79-.3c-.07 0-.14-.02-.2-.03-.05 0-.08 0-.12.02-.51 0-1.03 0-1.54-.03-2.28-.16-4.57-.17-6.85-.27-1.99-.08-3.93.25-5.87.65-1.16.23-2.35.35-3.54.47A434.81 434.81 0 01185 47.02c-3.99.26-7.98.49-11.97.73-2.85.17-5.7.34-8.56.4 2.22-.9 4.58-1.19 6.9-1.6 4.8-.85 9.63-1.67 14.45-2.45 2.82-.45 5.65-.94 8.5-1.13 2.63-.19 5.29-.06 7.94.03 3.94.13 7.88.4 11.78 1.03.3.05.62 0 .93 0-.48-.16-.96-.37-1.45-.45a95.73 95.73 0 00-13.65-1.11c-2.23-.05-4.47-.03-6.7.05-1.19.04-2.38.22-3.56.4-1.43.22-2.86.5-4.29.77-3.22.59-6.43 1.19-9.65 1.77-1.13.2-2.26.4-3.4.52-2.74.3-5.43.88-8.1 1.52-2.58.61-5.14.4-7.7-.33.37-.07.75-.13 1.12-.21 4.1-.92 8.22-1.8 12.3-2.8 1.3-.3 2.52-1 3.81-1.37 1.8-.5 3.62-.94 5.45-1.29 3.43-.65 6.9-.76 10.4-.65zm-17.72 1.79a14.48 14.48 0 01-6.22 1.82l6.22-1.82zm-24.11 4.14c4.03-.3 7.9-.57 11.78-.84l.01.03-5.7.86c-.76.1-1.54.17-2.3.3a6.6 6.6 0 01-3.8-.35zm2 2.76c4.84 1.57 9.68 3.14 14.55 4.62 1.63.5 3.33.81 5.01 1.13 2.96.55 5.93 1.03 8.9 1.54.18.04.36.07.53.17-11.7.31-22.3-3.56-32.63-8.45l.13-.29c1.17.43 2.32.9 3.5 1.28zm-6.49-.12c2.1 1.94 4.17 3.9 6.24 5.86.13.12.2.3.29.46-.92-.72-1.83-1.44-2.74-2.18-.89-.71-1.82-1.39-2.63-2.19-.74-.74-1.35-1.6-2.01-2.43.3.15.62.26.85.48zm43.93 69.69a52.84 52.84 0 01-10.52-10.58c-2.83-3.79-5.68-7.56-8.44-11.4a149.86 149.86 0 01-4.74-7.13c-1.4-2.2-2.68-4.45-4.03-6.67a78.6 78.6 0 01-4.37-8.08 42.1 42.1 0 00-1.27-2.5c-2.8-5.16-5.63-10.3-8.4-15.47-1.28-2.37-2.45-4.8-3.67-7.2l.29-.13c1.37 2.25 2.8 4.47 4.1 6.77 3.56 6.29 7.06 12.6 10.57 18.9 3.6 6.45 7.59 12.65 11.9 18.65 3.3 4.6 6.57 9.22 9.88 13.82.6.84 1.24 1.67 1.93 2.44 1.97 2.2 4 4.37 5.97 6.58a8.2 8.2 0 011.48 2.41c-.23-.13-.47-.25-.69-.41z" fill="#fff"/><path d="M148.05 10.4l-.03.02h.05l-.02-.03zM126.1 1.92c1.44-.03 2.89-.1 4.34-.17.15 0 .15-.25 0-.24a63.47 63.47 0 01-4.87.13 104 104 0 01-7.8-.4c-.3-.02-.6-.04-.9-.08h-.02c-2.98-.34-5.94-.83-8.9-1.4a3.85 3.85 0 00-.55-.05 89 89 0 01-3.62-.82c-.27-.07-.4.35-.12.42a87.67 87.67 0 0017.77 2.55c.7.12 1.4.13 2.1.06l.97.02h.15c.48.13.96.06 1.44-.02zM143.97 4.07c2.78-.77 5.58-1.5 8.38-2.16l.12-.02v-.01c1.14-.27 2.28-.54 3.43-.79 3.96-.86 7.95-1.7 11.98-2.14a41.6 41.6 0 014.03-.25h-.01l.01.09.36-.1c.86 0 1.72.02 2.58.09.16.01.17-.23.01-.25a40.68 40.68 0 00-9.38.36l.01-.03-4.4.56.02.12 1.33-.17c-1.1.2-2.2.4-3.3.63l-.02-.08-1.1.22.01.08a205.66 205.66 0 00-14.16 3.42.22.22 0 00-.14.11c-1.64.21-3.28.36-4.93.42-.2 0-.21.31-.01.3a35.1 35.1 0 004.95-.5c.04.08.12.14.23.1zM175.97.36l1.35-.17.02.06-1.35.17-.02-.06z" fill="#fff"/><path d="M159.16 7.43a78.4 78.4 0 006.75-3.25c2.3-1.21 4.65-2.22 7.2-2.8 2.84-.65 5.76-.91 8.66-1.17.17-.01.19-.28.01-.26-2.53.17-5.07.33-7.56.79a26.81 26.81 0 00-7.08 2.33l-.04-.06-.24.2-.86.44-.2.1-.9.42-.05.04.07-.02.34-.16-.45.23.04-.05-.04.05-1.3.67-.04.02-.07.03-.85.44-.9.43-.6.3-.5.22-.67.3c-1.34.57-2.7 1.1-4.08 1.56l-.47.1.1.03-1.55.49c-.44-.05-.84.04-1.21.32l.26-.04-.08.03-.33.08.05-.04c-.77.15-1.62.03-2.27.6l-.31.06c-.57.04-1.14.05-1.64.35-1.32.26-2.66.48-4 .66-.27.03-.16.45.1.42a56.35 56.35 0 0014.7-3.86z" fill="#fff"/><path d="M163.47 4.95c.05-.05.07-.08 0 0zM163.47 4.95zM164.85 4.21c-.06.03-.1.05 0 0zM152.67 9.17h-.07c0 .02-.02.02-.03.03h.05l.05-.03zM131.75 70.66a638.56 638.56 0 00-15.15-33.35c-.06-.12-.22-.03-.17.09l2.2 4.97-.15-.2c.07.35.1.72.23 1.04.62 1.47 1.25 2.93 1.9 4.38.14.31.38.58.58.88-.05-.2-.07-.42-.12-.62l1.07 2.41-.55-.94c.14.44.23.9.42 1.32l2.13 4.5c.12.24.3.45.46.67l1.36 3.06c.02.15.07.3.18.4 1.72 3.88 3.44 7.76 5.18 11.62.13.3.55.06.43-.23zM121.17 48.43l.44.92-.44-.92zM185.05 109.84a197.23 197.23 0 00-9.34-16.64 8.47 8.47 0 00-.6-1.12c-.38-.58-.79-1.15-1.2-1.7l-1.49-2.3a1.7 1.7 0 00-.2-.48c-1.38-2.1-2.78-4.18-4.19-6.26-.1-.14-.25-.24-.4-.34l-.66-.93a7.84 7.84 0 00-1.85-2.61l-.56-.76c-.52-.98-1.2-1.84-1.94-2.66a381.56 381.56 0 00-3.89-5.2c-.17-.22-.49.08-.32.3a237.67 237.67 0 013.38 4.53l.26.34c6.28 8.6 12 17.57 17.34 26.77 1.79 3.07 3.48 6.2 5.23 9.29.15.27.56.05.43-.23z" fill="#fff"/><path d="M172.92 89.03l-.41-.61.41.6zM167.48 80.91l-.41-.6.41.6zM-10.64 45.24c1.58-4.39 2.8-8.88 3.97-13.39.08-.15.15-.31.2-.48.5-1.69 1.03-3.37 1.44-5.08 1.52-6.35 3-12.71 4.5-19.07C.11 4.38.5 1.5.6-1.4.7-4.15.73-6.9.94-9.64c.23-2.96.25-5.9-.17-8.84-.05-.41-.06-.83-.09-1.24C.5-22.42.36-25.11.1-27.8c-.22-2.32-.59-4.63-.89-6.95-.03.67-.12 1.34-.07 2 .12 1.5.34 3 .45 4.5.23 3.1.4 6.22.63 9.32.2 2.65.38 5.28.19 7.94C.2-8.3.14-5.6.04-2.9a48.9 48.9 0 01-.78 8.2l-1.15 5.5A341.21 341.21 0 01-6.6 30.35a.17.17 0 00-.14.14 89.87 89.87 0 01-1.1 3.92A176.13 176.13 0 01-11.52 45c-.2.54.67.8.87.25zM215.95 44.2l-1-.2 1 .2zM219.16 44.74l-1-.2 1 .2zM220.13 44.93l-1-.2 1 .2zM221.1 45.12l-1-.2 1 .2zM222.06 45.3zM223.03 45.5zM227.63 46.58c-1.35-.3-2.7-.56-4.04-.84l.41-.05-1-.2.02.1c-2.25-.58-4.52-1.1-6.77-1.64-.15-.04-.22.14-.14.23l-.2.01.11.05c-1.23-.24-2.46-.49-3.7-.72-.11-.02-.17.16-.05.19 3.55.8 7.11 1.57 10.68 2.31.78.2 1.57.38 2.36.55.05.01.1 0 .13-.03l2.08.43c.25.05.37-.34.1-.4zM196.27 79.75l-1.04-.52 1.04.52zM219.59 87.46l-.7-.25.7.25zM217.3 86.8l-.69-.24.7.25zM214.36 85.92l-.7-.24.7.24zM213.7 85.7l-.7-.25.7.24zM213.04 85.46l-.69-.24.7.24zM212.38 85.23l-.69-.25.7.25zM211.73 85l-.7-.25.7.25zM211.07 84.77l-.7-.25.7.25zM205.8 82.93l-.7-.25.7.25zM205.14 82.7l-.7-.25.7.25zM201.54 81.59l-.7-.25.7.25zM200.88 81.36l-.7-.25.7.25zM200.22 81.13l-.7-.25.7.25zM199.56 80.9zM198.9 80.67l-.69-.25.7.25zM198.25 80.43l-.7-.24.7.24zM197.59 80.2l-.7-.24.7.24zM196.93 79.97zM195.27 79.24z" fill="#fff"/><path d="M221.8 87.82a25.89 25.89 0 01-3.07-.58c.07 0 .13 0 .2-.02a2.1 2.1 0 00-1.66-.43l.14.1-1.03-.33c.09 0 .18.02.27.01a3.96 3.96 0 00-2.22-.66c-1.42-.5-2.82-1.02-4.21-1.52l-7.15-2.53-.03-.01-4.76-1.69-3.7-1.3-.02-.18-.34.05-2.67-.95c-.23-.08-.33.28-.1.36l2.5.89.01.07.14-.02 9.44 3.34c3.94 1.4 7.87 2.87 11.84 4.17 2.1.69 4.23 1.27 6.42 1.52.19.03.2-.27 0-.29zM67.16 61.35l-.52-1.54.52 1.54zM75.01 83.19c-1.77-4.4-3-8.99-4.44-13.5a80.05 80.05 0 00-5.07-12.72c-.13-.25-.5-.05-.38.2 2.02 4.26 3.5 8.78 4.92 13.27 1.38 4.37 2.84 8.71 4.58 12.95.11.26.5.06.39-.2zM135.16 59.54l.45.92-.45-.92zM135.6 60.42l.44.93-.45-.93zM136.02 61.31l.45.93-.45-.93zM136.45 62.2l.45.92-.45-.92zM77.86 66.27zM78.99 67.7zM80.11 69.12l-.76-.87.76.87zM125.05 114.68c-15.5-11.56-28.23-26.03-40.64-40.74-2.9-3.43-5.63-6.98-8.48-10.44l-.02-.15-.38-.58-.36-.28-.07.01-.94-1.13c-.2-.24-.54.09-.36.33.37.5.75.97 1.12 1.46v.02c.1.1.18.21.27.32 2.5 3.22 5.1 6.35 7.68 9.5 3.08 3.73 6.12 7.48 9.29 11.13 1.31 1.52 2.65 3.03 3.99 4.52l2.1 2.52c.24.3.57.52.88.75l.33.36c.07.18.14.37.27.5 2.75 2.8 5.5 5.6 8.28 8.38.15.15.33.27.52.38l.92.89.16.19.41.35 2.23 2.1c3.95 3.65 8.08 7.1 12.36 10.33.43.33.88-.4.44-.72z" fill="#fff"/><path d="M77.12 65.42l-.41-.61.41.6zM78.25 66.85l-.41-.61.4.6zM79.38 68.28l-.42-.62.42.62zM80.5 69.7l-.41-.6.41.6zM85.32 75.38l-.42-.61.42.61zM86.44 76.8l-.41-.6.41.6zM87.57 78.24l-.42-.62.42.62zM119.74 110.92l-.38-.3.38.3zM119.39 110.64l-.37-.28.37.28zM119.04 110.38zM118.7 110.1l-.38-.28.37.29zM118.34 109.83l-.37-.28.37.28zM213.37 54.26c.12-.05.04-.26-.08-.22-1.18.4-2.36.73-3.55 1.03.02 0 .03-.02.05-.03-.7.11-1.42.07-2.03.5-2.33.5-4.68.88-7.07 1.14-.18.02-.15.32.03.3 4.32-.2 8.62-1.2 12.65-2.72zM82.2 62.29l-3.15-1.9c-.3-.28-.64-.5-1.03-.62a314.12 314.12 0 01-5.86-3.61c-.23-.15-.45.2-.22.36 3.25 2.18 6.53 4.36 9.88 6.38.4.24.77-.37.38-.61zM80.02 61.24l.38.3-.38-.3zM79.67 60.97l.39.3-.39-.3zM79.33 60.7l.38.3-.38-.3z" fill="#fff"/><path d="M32.62 170.54l.32.37-.32-.37zM32.32 170.2l.32.37-.32-.37zM32.01 169.85l.32.37-.32-.37zM31.7 169.5l.33.37-.33-.37zM31.4 169.15zM23.28 131.42c-.95.13-1.88.07-2.8-.24a6.7 6.7 0 012.8.26v-.02zM23.29 131.44c.6-.22 1.18-.13 1.76.04v-.02c-.6.21-1.18.15-1.77-.04v.02zM28.11 131.74c.1.03.05.02 0 0 .06 0 .11 0 0 0zM27.03 131.63l.33-.09v.14l-.34-.07v.01z" fill="#E4DDDD"/><path d="M26.37 131.58l.66.04v-.01l-.66-.05v.02zM26.37 131.56l-.66-.04v.02c.24-.2.45-.04.66.04v-.02z" fill="#E4DDDD"/><path d="M25.71 131.52l-.66-.06v.02l.67.06v-.02zM44.61 177.88c1 .78 1.84 1.7 2.46 2.81l-2.46-2.8zM34.64 167.79a8 8 0 012.42 2.34 10.91 10.91 0 01-2.42-2.34zM50.54 184.77c.57.46 1.07.98 1.35 1.68a3.91 3.91 0 01-1.35-1.68zM48.28 182.06c.57.46 1.08.98 1.35 1.68a4.04 4.04 0 01-1.35-1.68zM52.18 186.78c.49.33.88.74 1.04 1.33a2.64 2.64 0 01-1.04-1.34zM42.9 176.07c.5.26.87.64 1.12 1.14-.5-.26-.87-.64-1.13-1.14z" fill="#E4DDDD"/><path d="M37.05 170.11c.5.25.88.63 1.12 1.14-.5-.25-.88-.63-1.12-1.14zM53.51 188.44c.38.23.65.54.74.99-.39-.23-.66-.54-.74-1z" fill="#E4DDDD"/><path d="M54.24 189.4c.39.22.65.54.74 1a1.44 1.44 0 01-.74-1z" fill="#E4DDDD"/><path d="M54.96 190.37c.4.22.65.54.74.99-.39-.23-.65-.55-.74-1zM57.14 193.26c.39.23.64.56.74 1a1.45 1.45 0 01-.74-1zM57.33 195.6c-.34-.26-.65-.54-.74-1 .36.25.66.54.74 1zM58.67 197.26a1.76 1.76 0 01-.74-.99c.36.24.63.55.74.99z" fill="#E4DDDD"/><path d="M55.69 191.33c.39.23.65.55.74 1a1.44 1.44 0 01-.74-1z" fill="#E4DDDD"/><path d="M56.41 192.3c.4.22.65.54.74.99a1.47 1.47 0 01-.74-1zM59.85 197.05c.3.23.53.5.54.91-.3-.23-.53-.5-.54-.91zM38.46 171.58c.39.15.65.42.82.8a1.52 1.52 0 01-.82-.8zM60.8 198.56c.3.22.52.5.54.9-.32-.21-.54-.5-.54-.9zM40.68 173.82l.82.8a1.47 1.47 0 01-.82-.8zM61.75 200.06c.3.23.54.5.55.91-.31-.23-.55-.5-.55-.9zM39.57 172.7c.38.16.64.43.82.8a1.46 1.46 0 01-.82-.8zM41.79 174.95l.82.79a1.54 1.54 0 01-.82-.8zM57.86 194.23c.27.13.44.32.44.64l-.44-.64zM58.59 195.2l.43.64c-.26-.14-.44-.33-.43-.64z" fill="#E4DDDD"/><path d="M59 195.81c.27.14.43.34.44.65-.25-.14-.42-.34-.43-.65zM59.4 198.22l-.44-.64.43.64z" fill="#E4DDDD"/><path d="M59.43 196.43c.26.14.41.34.43.64-.26-.13-.42-.33-.43-.64zM60.38 197.94c.27.13.41.34.43.64a.7.7 0 01-.43-.64zM61.33 199.44l.43.64c-.27-.12-.43-.33-.43-.64zM62.7 201.57c.3.11.45.32.44.64l-.44-.64zM61.87 201.47l-.43-.64.43.64z" fill="#E4DDDD"/><path d="M62.28 200.95c.28.12.45.32.44.64l-.44-.64zM38.16 171.23a150.67 150.67 0 000 0zM39.26 172.35l.33.37-.33-.37zM40.37 173.48l.32.37-.32-.37zM41.48 174.6l.32.37-.32-.37zM42.59 175.72l.32.37-.32-.37zM44 177.19l.33.37-.33-.37zM44.3 177.54l.33.37-.32-.37zM47.06 180.67l.32.37-.32-.37zM47.36 181.02l.33.36-.33-.36zM47.67 181.36l.32.37-.32-.37zM47.98 181.71l.32.37-.32-.37zM49.62 183.72l.32.37-.32-.37zM49.92 184.07l.32.37-.32-.37zM50.23 184.42l.32.37-.32-.37zM20.98 158l-.4-.17c.2-.13.31 0 .4.17zM51.87 186.43l.32.37-.32-.37zM53.2 188.09l.33.37-.32-.37zM55.69 193.59l-.32-.37.32.37zM56 193.93l-.33-.37.33.37zM56.3 194.28l-.32-.37.32.37zM56.6 194.63l-.31-.37.32.37zM63.2 203.13l-.31-.37.32.37zM62.9 202.78l-.32-.37.32.37zM62.48 202.16l-.32-.37.32.37zM62.18 201.81l-.32-.36.32.37zM61.45 200.85l-.32-.37.32.37zM61.15 200.5l-.32-.37.32.37zM60.73 199.88zM60.42 199.54l-.32-.37.32.37zM60 198.92l-.32-.37.32.37zM59.7 198.57zM57.64 195.94l-.33-.37.33.37zM58.97 197.6zM57.94 196.3l-.32-.38.32.37zM58.28 194.85l.32.37-.32-.37zM60.11 199.19l-.12-.3.12.3zM60.84 200.16l-.12-.3.12.3zM62.6 202.44l-.13-.3.12.3zM44.37 174.65c.21.17.46.3.63.5 1.4 1.58 2.79 3.16 4.17 4.75.17.2.27.46.4.69-.18-.15-.38-.28-.54-.46l-4.23-4.8c-.18-.2-.3-.45-.43-.68zM50.9 182.23c.51.32.87.75 1.04 1.34-.5-.33-.87-.76-1.04-1.34z" fill="#E4DDDD"/><path d="M49.87 180.92c.49.33.88.74 1.04 1.33-.5-.33-.89-.74-1.04-1.33zM53.36 185.02l.11.27-.08.2c-.4-.2-.67-.52-.74-.98l.4.16.3.35z" fill="#E4DDDD"/><path d="M52.63 184.05l.03.48c-.4-.2-.66-.53-.73-.99l.7.51zM49.56 180.57zM24.09 163.5l.32.36-.32-.36zM23.78 163.15l.32.37-.32-.37zM23.48 162.8l.32.37-.32-.37zM23.17 162.45l.32.37-.32-.37zM2.39 125.61c1.1-.07 2.2-.04 3.3.21-1.13.22-2.22.1-3.3-.2zM.5 125.3c.4-.16.73.05 1.07.2-.4.14-.72-.07-1.07-.2z" fill="#E4DDDD"/><path d="M1.54 125.5c.32-.19.6 0 .87.11-.32.17-.59 0-.87-.12z" fill="#E4DDDD"/><path d="M-39.47 104.2c1.04 1.58 2.11 3.14 3 4.83.33.64.74 1.24 1.15 1.84 3.47 5.04 7.3 9.8 11.47 14.27 1.22 1.3 2.44 2.62 3.65 3.95.3.33.58.7.77 1.09a25.72 25.72 0 012 5.64c.24 1.19.5 2.37.76 3.55.42 1.92.79 3.85 1.28 5.76 1.28 4.95 3.56 9.48 6.1 13.9.99 1.73 2.07 3.41 3.38 4.94 4.45 5.22 8.87 10.48 13.4 15.64 4.1 4.64 8.03 9.4 11.17 14.75.09.15.28.24.42.36.41-.22.38-.53.33-.84-.15-1.03-.25-2.06-.46-3.07a95.46 95.46 0 00-6-19.35A92.13 92.13 0 004.42 156c-3.71-5.3-7.96-10.15-12.49-14.76-2.27-2.32-4.5-4.67-6.74-7.02-.24-.25-.42-.57-.63-.86.21.14.43.28.63.44 2.31 1.97 4.6 3.95 6.93 5.9 6.13 5.16 12.78 9.5 19.94 13.08 2.18 1.08 4 2.54 5.58 4.37a72.18 72.18 0 016.81 9.36c3 4.84 6.04 9.65 9.33 14.3a81.1 81.1 0 0012.18 13.5 38.11 38.11 0 005.62 4.04c1 .6 2.07 1.1 3.12 1.61 1.64.81 3.3 1.58 4.93 2.4 1.84.94 3.7 1.87 5.38 3.08.16.1.37.13.63.22.05-.27.14-.46.11-.63-.04-.24-.16-.45-.27-.67-3.3-7-7.09-13.73-11.52-20.1-3.09-4.42-6.34-8.7-10.02-12.64a46.28 46.28 0 00-7-6.12c-3.37-2.41-7.07-4.28-10.34-6.43.65.26 1.5.6 2.35.96a56.05 56.05 0 007.38 2.7c1.66.47 3.33.9 5.01 1.27 1.18.27 2.37.53 3.57.59 3.87.18 7.73-.02 11.51-.95a51.3 51.3 0 018.35-1.44c.1-.01.18-.1.33-.17 0-.17.02-.36.04-.6-.34-.2-.66-.4-1-.56-.94-.42-1.89-.85-2.86-1.22a656.5 656.5 0 00-8.9-3.36 36.43 36.43 0 00-6.35-1.88 57.4 57.4 0 00-14.23-.65 67.4 67.4 0 01-11.16-.06 22.36 22.36 0 01-3.38-.43 16.9 16.9 0 01-6.16-2.58c-.47-.34-.99-.64-1.48-.95a109.57 109.57 0 01-9.43-6.54 49.01 49.01 0 00-4.24-3.15 60.01 60.01 0 01-8.93-7.02 341.87 341.87 0 00-6.34-5.8 7.24 7.24 0 01-1.76-2.13c-.4-.81-.94-1.51-1.73-2.01-.3-.2-.52-.55-.74-.86-.63-.86-1.24-1.74-1.86-2.61-.12-.17-.22-.35-.43-.7l.7.48c2.9 2.24 6.05 4.1 9.29 5.8 1.19.63 2.41 1.18 3.63 1.76 3.24 1.57 6.6 2.8 10.1 3.67 2.75.69 5.54 1.1 8.35 1.49 4.17.57 8.35 1.04 12.57.85l14.27-.62c.31-.02.63-.02.85-.37.13-.55-.32-.76-.7-.97-1.5-.78-3-1.58-4.52-2.3-5.19-2.46-10.69-3.87-16.33-4.77-5.83-.93-11.7-1.49-17.58-2.03-4-.36-7.93-1.03-11.75-2.32a38.88 38.88 0 01-8.2-3.67 40.08 40.08 0 01-9.56-8 55.24 55.24 0 01-4.4-6 139.04 139.04 0 01-7.74-13.34c-1-2.01-1.94-4.05-3.05-6-.62-1.06-1.13-2.19-1.69-3.29.33.24.66.47.97.73.92.78 1.82 1.59 2.73 2.37 2.89 2.48 6.1 4.5 9.21 6.68a39.07 39.07 0 006.57 3.72c3.53 1.58 7.1 3.07 10.65 4.58a49 49 0 0011.02 3.15 45.8 45.8 0 0011.02.76c3.47-.25 6.94-.61 10.41-.92.14-.02.28-.02.4-.07.22-.08.42-.2.57-.27.19-.48 0-.76-.3-.98-.21-.17-.46-.29-.7-.42-2.18-1.2-4.38-2.35-6.53-3.6a94.56 94.56 0 00-13.25-6.55c-2.06-.8-4.11-1.63-6.18-2.39a52.69 52.69 0 00-4.04-1.29c-2.9-.8-5.8-1.57-8.7-2.31-2.81-.71-5.62-1.46-8.46-2.03a61.14 61.14 0 01-12.63-3.9 38.25 38.25 0 01-5.1-2.74 4.29 4.29 0 01-1.8-2.2l-.54-1.33c-.57-1.34-1.12-2.68-1.7-4-.68-1.56-1.42-3.08-2.06-4.64-2.02-5-4.33-9.86-6.84-14.63-2.54-4.82-5.14-9.61-7.25-14.65-.23-.56-.6-1-1.18-1.24-.27-.12-.51-.33-.78-.49a6.45 6.45 0 00-.71-.39c-.07-.03-.19.05-.33.1l.08.88c-.37.47-.37.47-.53 1.09.22.24.45.53.71.8a23.1 23.1 0 014.22 5.85c1.2 2.4 2.29 4.87 3.38 7.33 2.17 4.85 4.36 9.7 6.46 14.58 1.9 4.41 3.95 8.74 6.08 13.04a326.75 326.75 0 009.79 18.13 10 10 0 011.15 2.98c.13.6.26 1.21.35 1.83.56 3.49.54 7.02.55 10.53.01 3.37-.35 6.74-.54 10.12-.12 2.1-.26 4.2-.33 6.3-.08 2.32.07 4.62.4 6.92a117.1 117.1 0 003.57 16.48c1.13 3.8 2.4 7.56 3.66 11.32.57 1.7 1.27 3.36 1.91 5.03.1.25.16.56.55.5.33-.21.31-.58.36-.91.67-4.3 1.33-8.6 2.02-12.88a70.08 70.08 0 00-1.07-27.03c-1.16-5.1-2.9-10-4.85-14.85l-3.94-9.77c.23.3.47.57.67.89 1.01 1.56 1.99 3.15 3.02 4.7zm61.23 56.36c.19.12.4.22.55.38.96 1 1.93 1.97 2.84 3 1.01 1.13 1.97 2.3 2.93 3.48.22.26.38.56.57.84.37.4.78.77 1.12 1.2 2.7 3.44 5.35 6.9 8.07 10.33 1.24 1.56 2.5 3.1 3.82 4.6-.09.05-.13.17-.04.27a244.53 244.53 0 0016.4 16.02c-2.64-1.53-5.21-3.14-7.36-5.37-1.46-1.5-3.02-2.91-4.5-4.4a79.03 79.03 0 01-6.4-7.1l-.01-.05c-2.34-3.3-4.7-6.58-7.05-9.86a144.48 144.48 0 00-4.04-5.4l-.02-.23c-.23-.21-.46-.4-.67-.63l-.05-.06a77.42 77.42 0 00-2.32-2.72c-1.08-1.21-2.2-2.4-3.33-3.56l-.51-.75zm27.6 35.5a74.69 74.69 0 01-10.84-10.2c-1.4-1.6-2.63-3.37-3.86-5.12A274.45 274.45 0 0123 162.64c1.83 2.02 3.68 4.04 5.38 6.18 2.48 3.11 4.73 6.42 7.06 9.65l2.96 4.08.14.18.88 1.21a.2.2 0 00.12.08 75.9 75.9 0 007.14 7.93 132.2 132.2 0 013.7 3.63 25.99 25.99 0 004.65 3.75c.45.29.9.58 1.32.9a41.52 41.52 0 01-7-4.18zm13.1 6.8a26.74 26.74 0 01-4.29-3.7l-4.42-4.48c-.53-.54-1.07-1.07-1.57-1.65-3-3.44-6.01-6.9-9-10.37l-1.03-1.21a.14.14 0 00-.02-.15c-3.9-4.63-7.8-9.28-11.86-13.77l-.68-.86c.31.23.63.44.92.7 2.94 2.65 5.66 5.52 8.44 8.34 2 2.03 4.12 3.96 6.07 6.04l.7.76c0 .03.02.06.04.1 2.46 2.84 4.92 5.7 7.39 8.53 2.43 2.8 4.88 5.58 7.18 8.48.92 1.16 1.8 2.34 2.69 3.53-.21 0-.38-.16-.55-.28zm1.1.4l-.1-.04c-1.83-2.57-3.7-5.12-5.77-7.51l-2.56-2.94-.15-.22c-2.71-3.08-5.39-6.18-8.13-9.22l-.85-.96a.17.17 0 00-.06-.05l-.63-.7c-2.1-2.28-4.43-4.35-6.57-6.59-4.96-5.2-10.25-10.04-15.51-14.91-.76-.7-1.5-1.43-2.25-2.14-.18.07-.32.04-.39-.16l-.48-.41.21-.04c.6.3 1.2.59 1.8.84 2.4 1.75 4.8 3.49 7.15 5.28 1 .76 1.95 1.56 2.9 2.37 3.98 3.73 7.8 7.63 11.49 11.64 4.84 5.28 9.4 10.81 13.62 16.6 2.06 2.82 4.09 5.68 6.05 8.58l.24.57zm-.48-1.85l.3.66a195.94 195.94 0 00-29.69-35.3c-.05-.06-.12-.1-.18-.16a230.52 230.52 0 00-4.72-4.26c-.07-.06-.14-.04-.2 0a98.58 98.58 0 00-4.04-3.22 76.3 76.3 0 0115.05 11.02c1.39 1.32 2.75 2.69 4.13 4.03l.05.04 1.76 2.02c1.3 1.5 2.58 3.02 3.83 4.57 2.12 2.63 4.17 5.31 6.2 8.02 2.68 4.08 5.29 8.22 7.5 12.58zM32.33 163.2c1.29.8 2.52 1.7 3.78 2.53a35.88 35.88 0 016.19 5.31c3.63 3.85 6.94 7.96 9.94 12.3.15.22.24.47.36.7a137.1 137.1 0 00-6.7-8c-1.38-1.53-2.84-2.97-4.22-4.49a.12.12 0 00-.15-.03c-1.01-.95-2.06-1.88-3.09-2.82a70.19 70.19 0 00-10.47-7.9c-.13-.08-.23-.2-.33-.31 1.56.9 3.15 1.77 4.69 2.71zm-4.8-2.77l-.76-.31.09-.16.67.47zm-7.4-3.14c0 .03-.02.07-.04.11-.3-.2-.6-.42-.94-.67.33.2.65.38.99.56zm-2.23-1.19c1.1.93 2.17 1.9 3.3 2.8a59.5 59.5 0 015.7 5.38.19.19 0 00.03.21c2.75 3.09 5.53 6.16 8.27 9.25l4.51 5.2.11.1.83.97c.06.1.12.2.2.28 3.67 4.33 7.36 8.64 11.05 12.96.22.26.46.51.7.76 2.12 2.15 4.24 4.32 6.38 6.46.64.64 1.33 1.23 1.95 1.91l-1.3-.77c-5.02-4.45-9.89-9.1-14.58-13.9A199.52 199.52 0 0136 176.94a447.93 447.93 0 00-9.35-11.73 75.3 75.3 0 00-8.22-8.29c-.47-.41-.87-.9-1.3-1.37.26.18.53.34.77.54zm38.14 7.18c-1 .25-1.88.46-2.79.56-2.54.3-5.08.47-7.64.33-1.42-.08-2.8-.36-4.16-.76-1.92-.56-3.87-1.01-5.77-1.62-1.56-.49-3.08-1.13-4.6-1.7l.03-.12 4.93 1.54c2.02.63 4.07 1.03 6.17 1.26 4.2.47 8.38.68 12.6.4.3-.02.62-.01.93 0 .05 0 .11.04.3.11zm4.16-.94c-.98.18-1.9.49-2.86.5-2.86.04-5.73.18-8.58.07a53.86 53.86 0 01-10.66-1.24c-1.54-.37-3.05-.86-4.56-1.33-1.68-.52-3.36-1.04-5.01-1.62-1.17-.4-2.3-.92-3.42-1.47.34.13.68.29 1.03.41 1.3.47 2.59.95 3.9 1.36.75.24 1.54.35 2.32.5 1.59.3 3.18.62 4.77.9a70.36 70.36 0 008.41.95c1.86.09 3.72.16 5.58.13 3-.04 5.98.3 8.95.67.03 0 .04.05.13.17zm1.35-.43c-.96-.07-1.92-.15-2.87-.3a56.57 56.57 0 00-8.66-.5c-1.76.01-3.51-.12-5.27-.2-1.1-.07-2.2-.19-3.3-.27a30.06 30.06 0 01-4.8-.7 36.1 36.1 0 00-3.85-.7 18.7 18.7 0 01-6.19-2c.45.08.9.16 1.35.22 5.73.81 11.45 1.7 17.25 1.95 2.13.09 4.24.47 6.36.72l10.26 1.23 1.21.18c-.46.43-.98.41-1.49.37zm-10.48-3.57a38 38 0 00-5.4-.9c-1.57-.15-3.14-.39-4.71-.55-1.61-.17-3.22-.37-4.83-.44-3.07-.13-6.12-.48-9.15-.87-.35-.05-.7-.17-1.04-.27.53.01 1.06-.02 1.58.04 2.68.3 5.36.43 8.05.34.58-.02 1.17 0 1.75.03 2.58.2 5.16.35 7.73.62 1.3.14 2.57.47 3.84.78 1.97.48 3.93 1 5.9 1.54 1.05.28 2.1.62 3.12 1-2.3-.32-4.58-.77-6.84-1.32zm-27.17-3.74c3.55.27 7.1-.1 10.64-.25 4.85-.2 9.65.29 14.3 1.7 2.45.73 4.85 1.6 7.4 2.75-3.12-.85-6-1.66-8.89-2.4-1.06-.28-2.16-.41-3.26-.52-1.95-.2-3.91-.35-5.87-.47a53.6 53.6 0 00-4.03-.06c-1.86.03-3.72-.04-5.57-.23-1.2-.12-2.4-.17-3.61-.28-.43-.04-.85-.13-1.27-.2.05-.02.1-.04.16-.04zm11.86 2.24c1.72.14 3.43.33 5.15.51 1.54.17 3.08.4 4.62.53 2.27.2 4.5.66 6.72 1.17 1.78.4 3.58.7 5.37 1.06.78.16 1.54.37 2.3.68-.27-.01-.54 0-.8-.04-2.7-.36-5.4-.69-8.1-1.08a63.51 63.51 0 00-6.68-.71 123.9 123.9 0 01-12.85-1.38 68 68 0 01-8.53-1.6c-.76-.22-1.54-.4-2.28-.66-.3-.1-.6-.27-.88-.43l1.6.2c.16.02.24-.08.26-.2 1.16.15 2.29.45 3.43.66 3.53.66 7.1 1.01 10.67 1.3zm-25.94-6.42c-.5-.1-.77-.2-.94-.48l.94.48zm-1-.52l-.78-.32c.33-.05.58.09.78.32zm-2.23-1.48c-.44-.06-.64-.16-.77-.37l.77.37zm-9.74-7.06c2.9 2.17 5.69 4.48 8.73 6.44.08.05.13.13.18.2a19 19 0 01-4.63-2.77c-1.75-1.44-3.53-2.84-5.29-4.26-.19-.16-.34-.36-.51-.55.51.31 1.04.59 1.52.94zm-1.94 22.15a33.34 33.34 0 01-3.38-4.93c-2.31-4.05-4.44-8.18-5.72-12.69-.52-1.82-.9-3.68-1.31-5.52-.06-.26-.04-.53-.05-.8l1.12 3.2c.43 1.2.82 2.41 1.32 3.58 1.74 4.01 3.36 8.08 5.47 11.92.96 1.75 1.95 3.48 2.92 5.23.13.23.23.48.34.72-.23-.23-.5-.45-.7-.7zm21.1 25.71c-1.73-2.32-3.06-4.9-4.66-7.32a51.54 51.54 0 00-3.44-4.78c-.2-.24-.41-.47-.6-.72-3.24-4.54-6.8-8.86-9.72-13.64-.21-.35-.5-.64-.76-.96.11.28.19.58.34.84a75.68 75.68 0 004.72 7.03c.89 1.19 1.74 2.4 2.62 3.59 1.14 1.51 2.32 3 3.44 4.52 1.13 1.56 2.22 3.15 3.33 4.73.08.13.12.29.17.44-.2-.18-.4-.33-.57-.53-3.57-4.16-7.14-8.33-10.69-12.51a26.6 26.6 0 01-1.5-1.98 98.49 98.49 0 01-8.1-14.06c-.17-.35-.34-.69-.49-1.04l-3.08-7.23c-.3-.7-.54-1.42-.82-2.15l.3-.15c-.11-.32-.21-.64-.34-.95l-2-4.7c-.06-.13-.06-.3-.08-.45.2.26.41.52.56.8 1.33 2.53 2.73 5.04 3.95 7.62a82.9 82.9 0 004.86 8.88c.98 1.54 1.95 3.1 2.9 4.65 1.36 2.2 2.88 4.29 4.41 6.38 2 2.72 3.92 5.5 5.85 8.27 1.85 2.66 3.74 5.29 5.5 8.01 1.45 2.26 2.74 4.62 4.08 6.95.2.37.31.8.46 1.2-.22-.24-.44-.48-.64-.74zm-7-18.39c-1.33-1.66-2.67-3.32-3.99-5-.62-.78-1.16-1.62-1.82-2.37-2.3-2.62-4.35-5.43-6.45-8.2-.36-.46-.7-.94-1-1.45-2.12-3.66-4.4-7.23-6.3-11.03-.27-.55-.5-1.12-.75-1.69l-.31-.51.38.47c.23.27.46.51.67.79 3.35 4.63 6.75 9.23 10.03 13.9 3.29 4.69 6.38 9.5 9.33 14.4.12.2.2.44.29.65l.38.72-.45-.68zm-.02.88c1.9 3.3 3.79 6.63 5.24 10.18l.15.42c-.17-.23-.35-.45-.48-.7-.76-1.4-1.53-2.78-2.23-4.2a57.93 57.93 0 00-5.93-9.44c-1.25-1.65-2.47-3.32-3.7-4.99-.16-.22-.27-.5-.4-.74.24.22.5.42.7.67.77.96 1.53 1.94 2.28 2.92.85 1.09 1.69 2.18 2.51 3.28.64.85 1.33 1.68 1.86 2.6zm-6.52-7.55l3.58 4.81a51.7 51.7 0 014.9 7.9c1.12 2.22 2.3 4.4 3.42 6.62.36.7.66 1.44.95 2.18.12.3.16.63.24.95-.2-.26-.43-.5-.59-.78-1.9-3.41-4.07-6.65-6.36-9.81-2.12-2.94-4.17-5.93-6.25-8.89-.2-.28-.39-.57-.6-.84-3.81-4.84-6.91-10.16-10.05-15.43-1.28-2.16-2.25-4.5-3.35-6.77-.04-.08-.04-.17-.05-.26.19.22.4.43.56.67l5.33 8.14c2.6 3.95 5.46 7.71 8.27 11.5zm15.8 26.73c.14.5.16 1.02.13 1.58l-.24-.49a49.32 49.32 0 01-2.41-6.38c-.1-.33-.25-.64-.38-.96a24.25 24.25 0 012.9 6.25zm-26.48-49.27c8.17 8.13 14.9 17.29 19.63 27.84 1.07 2.4 2.03 4.84 3.02 7.26.13.32.17.68.24 1.03-.17-.31-.36-.62-.5-.94a424.1 424.1 0 01-1.86-4.27 58.43 58.43 0 00-3.9-7.5c-1.06-1.74-2.1-3.5-3.2-5.2-1.1-1.7-2.25-3.38-3.43-5.04-1.6-2.24-3.19-4.5-4.88-6.67-1.72-2.2-3.57-4.28-5.36-6.43-.23-.26-.43-.55-.65-.83.3.24.62.47.9.75zm-4.15-3.54a35.92 35.92 0 013.68 4.59c1.07 1.52 2.17 3.02 3.28 4.5 4.01 5.4 8 10.8 11.51 16.53.94 1.53 1.75 3.13 2.63 4.69.2.35.45.67.67 1.01-.07-.26-.11-.53-.23-.77a48.8 48.8 0 00-3.57-6.4c-.6-.88-1.18-1.77-1.74-2.68-1.39-2.26-3.02-4.35-4.55-6.51-2.26-3.2-4.69-6.28-7-9.46-.22-.31-.37-.68-.55-1.02.16.15.34.29.48.45a88.89 88.89 0 015.8 7.29c.7.99 1.4 1.97 2.14 2.91 2.77 3.5 5.07 7.32 7.4 11.1a65.48 65.48 0 015.07 9.94c1.01 2.5 2.09 4.96 3.11 7.45.17.43.23.9.34 1.35l-.28-.33c.07.33.12.67.23.98l1.28 3.37c-.23-.38-.5-.74-.66-1.15-.64-1.49-1.21-3-1.84-4.5a85.6 85.6 0 00-6.35-12.44 770.22 770.22 0 00-7.73-12.01c-.9-1.38-1.94-2.69-2.9-4.03l-10.5-14.64c-.18-.26-.31-.57-.46-.86.25.21.52.4.74.64zm-4.5-4.8c.72 1 1.38 2.05 2.08 3.07a57.85 57.85 0 013.33 5.57c1.25 2.37 2.61 4.68 3.92 7.02.16.3.3.63.44.95-.19-.22-.38-.42-.54-.66l-4.23-6.46c-.15-.23-.36-.4-.53-.61-.13-.3-.21-.63-.38-.91-.97-1.62-1.95-3.24-2.96-4.83a9.76 9.76 0 01-1.44-3.06c-.08-.36-.23-.7-.34-1.06.41.19.43.66.66.98zm3.84.51l3 2.68c.09.08.15.18.23.28-.38-.26-.78-.5-1.12-.78a45.07 45.07 0 01-1.98-1.75c-.23-.22-.4-.49-.6-.74.16.1.33.19.47.31zm-1.05-.8l-.71-.7c.31.15.57.36.71.7zm-.85-.8a6.91 6.91 0 01-2.25-2.2l2.25 2.2zM-25.38 117l.78.36a.82.82 0 01-.78-.36zm25.3 8.48c2.16.29 4.31.41 6.48.5.15.03.3.06.46.07 3.96.33 7.86 1.05 11.72 1.97 2.5.6 5 1.27 7.5 1.92.24.06.45.17.65.34l-.39-.07c-2.3-.48-4.64-.58-7-.6-1.03-.01-2.06-.15-3.09-.22-1.75-.14-3.5-.3-5.25-.42-2.62-.18-5.24-.32-7.8-.87-2.03-.43-4.05-.9-6.07-1.32-1.05-.21-2.1-.35-3.15-.57-.5-.1-1-.25-1.49-.44-1.73-.69-3.46-1.37-5.16-2.13-1.16-.52-2.25-1.18-3.35-1.83 2.7.93 5.47 1.6 8.26 2.17.01.05.05.09.11.1 2.5.6 5.03 1.06 7.58 1.4zm-23.69-7.61l3.66 2.03c-1.38-.38-2.48-1.27-3.66-2.03zm52.35 14.26c-.09.04-.2.02-.3.03-4.59.2-9.17.52-13.76.36-3.12-.1-6.18-.63-9.24-1.13-2.28-.37-4.55-.8-6.8-1.3-3.6-.8-7-2.1-10.3-3.71-1.15-.56-2.31-1.1-3.44-1.69a67.83 67.83 0 01-9.57-5.95l-3.32-2.47c-.12-.09-.21-.2-.31-.3 1.1.7 2.22 1.4 3.31 2.14 3.13 2.14 6.33 4.16 9.65 6a39.04 39.04 0 007.12 3.04c1.18.37 2.35.78 3.52 1.18A41.6 41.6 0 002.4 130c1.8.28 3.62.42 5.44.6.95.1 1.92.15 2.88.24 1.08.1 2.16.15 3.25.16 4.94.62 9.92.93 14.9 1l-.28.14zm1.9-.48c-3.35-.08-6.7-.25-10.05-.48h.05c-1.15-.4-2.37-.4-3.56-.51-.38-.03-.76-.02-1.14 0l-1.48.03-.4-.04a.14.14 0 00-.11.03 79.56 79.56 0 01-9.77-.8 46.16 46.16 0 01-10.25-2.42c-1.84-.68-3.7-1.34-5.53-2.04-2.4-.9-4.58-2.24-6.77-3.55a76.9 76.9 0 01-4.59-3c.1.03.2.03.28.07 2.01.98 4.03 1.94 6.04 2.94 1.8.88 3.55 1.84 5.36 2.69 1.94.91 3.92 1.73 6.03 2.17l8.3 1.72c2.58.55 5.2.72 7.8.9 1.8.11 3.58.27 5.37.4a138 138 0 004.85.26c1.49.04 2.96.16 4.43.44.98.19 1.97.33 2.96.46.77.1 1.47.4 2.18.73zm1.42.03l-.71-.01c-.2-.07-.4-.17-.63-.3.63-.12 1 .1 1.34.31zm-35.85-8.75c5.15.48 10.3 1.04 15.4 1.82 2.87.44 5.7 1.09 8.46 1.96 1.9.6 3.8 1.23 5.67 1.95 1.4.55 2.76 1.25 4.12 1.99-.26-.03-.52-.03-.77-.09-.36-.09-.72-.22-1.08-.33a154.69 154.69 0 00-11.7-3.07 60.72 60.72 0 00-9.7-1.44c-.19 0-.38.03-.57.06-1.96-.17-3.92-.4-5.88-.7a14.9 14.9 0 00-2.7-.5c-1.1-.15-2.2-.33-3.29-.53l-1.56-.31c-1.8-.38-3.58-.83-5.35-1.32a28.4 28.4 0 01-7.4-3.05c.32.06.5.07.64.13 5.06 1.97 10.33 2.92 15.71 3.43zm-21.64-6.06c-.3-.14-.64-.2-.82-.53l.82.53zm-5.42-3.75c1 .75 2.02 1.47 2.79 2.48a4.8 4.8 0 01-2.03-1.28c-.25-.23-.53-.44-.77-.67a2.3 2.3 0 01-.62-.94c.21.13.43.26.63.4zm-2.67-3.34c.8.8 1.6 1.6 2.39 2.42.16.16.29.36.43.54a3.96 3.96 0 01-2.26-1.74l-.99-1.57c.15.11.3.22.43.35zm-42.41-77.9c.5.45.7.81.73 1.25-.35-.26-.55-.61-.73-1.25zm-.61.36c.54.22.63.63.78 1-.35-.2-.64-.46-.78-1zm1.8 1.58c.15.26.3.53.47.79-.27-.2-.45-.45-.47-.79zm14.28 28.53c-.58-1.25-1.01-2.57-1.5-3.87.14.2.32.38.43.6l2.88 6.29c.07.14.07.3.1.46-.64-1.16-1.35-2.28-1.9-3.48zm1.94 3.53c.47.44.6 1.05.83 1.61a3.83 3.83 0 01-.83-1.6zm34.7 29.77c-3-1.3-6.02-2.56-8.97-3.96a43.38 43.38 0 01-7.72-4.77c-.66-.5-1.3-1.03-1.96-1.55.23.12.46.22.66.36a76.58 76.58 0 0010.18 5.89c2.97 1.44 5.92 2.92 8.88 4.42-.36-.13-.72-.24-1.06-.39zm-12.66-14.38c.94.2 1.88.37 2.8.6 4.52 1.09 9.05 2.16 13.56 3.33 2.1.55 4.15 1.26 6.2 2 2 .72 3.97 1.58 5.95 2.38 3.46 1.4 6.72 3.2 9.94 5.07 2 1.15 3.98 2.33 5.94 3.57-.5-.2-1-.37-1.48-.61-1.78-.9-3.55-1.83-5.33-2.74-.83-.43-1.65-.86-2.49-1.27a132.56 132.56 0 00-12.55-5.35c-.64-.24-1.33-.38-1.98-.6-2.15-.74-4.28-1.53-6.45-2.23-1.27-.41-2.59-.7-3.9-1.01a92.9 92.9 0 01-9.93-2.86l-.33-.13.05-.15zm-17.6-7.1c.52.33 1.05.64 1.56.98 2.53 1.7 5.27 3 8.16 3.98 2.94 1 5.92 1.87 8.8 3.05 2.81 1.16 5.78 1.85 8.73 2.54 2.52.6 5.02 1.22 7.44 2.19 1.79.7 3.67 1.18 5.51 1.77.66.2 1.32.42 1.96.67 3.31 1.3 6.59 2.67 9.79 4.22 1.89.92 3.73 1.94 5.62 2.86 1.55.76 3.12 1.47 4.69 2.18.66.3 1.33.55 2.22.9-.7.25-1.18.32-1.68.16-.23-.07-.46-.16-.68-.25-2.75-1.12-5.49-2.27-8.26-3.34-1.8-.7-3.64-1.28-5.47-1.9-1.27-.44-2.56-.84-3.82-1.28-2.74-.96-5.46-1.95-8.2-2.9-1.34-.46-2.7-.87-4.04-1.3l-2.15-.73-11.13-3.93-.87-.33c-2.05-.83-4.09-1.68-6.15-2.47a49.33 49.33 0 01-6.33-3.06c-1.56-.88-3.09-1.82-4.65-2.7-.55-.3-.91-.7-1.05-1.3zm.91 1.72c.68.38 1.36.73 2.02 1.13a56.67 56.67 0 0010.56 5.2c1.04.36 2.06.8 3.08 1.22 2.85 1.13 5.73 2.2 8.67 3.1.59.18 1.17.4 1.75.63a105 105 0 008.7 2.97c.67.2 1.31.45 1.95.71 3 1.24 6.1 2.17 9.2 3.15 1.08.34 2.15.72 3.24 1.07 3.88 1.24 7.65 2.76 11.4 4.34.07.02.12.07.39.24-.7-.15-1.15-.26-1.62-.35-1.22-.22-2.43-.53-3.66-.62A47.9 47.9 0 01-4.7 97.6a85.67 85.67 0 00-3.85-.75 23.41 23.41 0 01-4.18-1.15c-1.84-.7-3.71-1.3-5.53-2.05-2.96-1.23-5.89-2.54-8.83-3.82-1.83-.8-3.67-1.58-5.49-2.42-1.44-.67-2.84-1.4-4.26-2.1-1.21-.59-2.4-1.2-3.64-1.73a56.4 56.4 0 01-7.05-3.68c-1.3-.8-2.61-1.55-3.87-2.39-.7-.46-1.3-1.06-1.93-1.6zm1.14 1.57c.35.24.72.48 1.07.74.17.13.33.29.45.47-.63-.25-1.21-.56-1.52-1.21zm6.18 3.63c1.82 1.06 3.73 1.93 5.64 2.8 2.07.95 4.08 2.02 6.11 3.04l.65.32c3.51 1.53 7.03 3.04 10.54 4.58 1.26.55 2.48 1.2 3.77 1.7 2.72 1.07 5.46 2.12 8.22 3.1 1 .35 2.08.46 3.13.68 1.82.4 3.63.82 5.46 1.17 1.22.23 2.45.4 3.68.51 1.69.15 3.35.4 5 .74.13.03.25.1.62.25-.95.1-1.67.17-2.37.29-1.03.16-2.05.2-3.07-.08-.5-.13-1.02-.18-1.54-.23a69.5 69.5 0 01-11.63-2.38c-.66-.19-1.3-.46-1.94-.72-3.13-1.28-6.27-2.54-9.38-3.86-1.71-.73-3.37-1.58-5.05-2.4-2.04-.98-4.07-2.01-6.12-3-3.13-1.53-6.29-3-9.31-4.71-1.29-.74-2.5-1.58-3.75-2.39-.13-.08-.23-.2-.33-.32l1.67.91zm-.82.19c1.59 1.1 3.28 2.03 5 2.88l6.67 3.32c1.97.98 3.96 1.92 5.92 2.93 5.21 2.71 10.7 4.79 16.1 7.04 2.02.84 4.16 1.25 6.27 1.74 2.42.56 4.83 1.1 7.32 1.27l.01.24c-.78.01-1.57.05-2.35.04a51.65 51.65 0 01-11.16-1.45c-.8-.19-1.6-.42-2.38-.69-1.4-.47-2.82-.93-4.18-1.5-1.56-.65-3.07-1.4-4.6-2.12-.47-.22-.92-.48-1.4-.68-2.14-.88-4.16-2-6.2-3.08-.88-.47-1.77-.91-2.66-1.38a77.4 77.4 0 01-8.44-5.2c-1.15-.82-2.36-1.56-3.49-2.41a20.07 20.07 0 01-2.81-2.59l2.38 1.64zm-5.38-1.57c.35.29.56.65.6 1.1l-.6-1.1zm.62 1.12c.37.29.52.69.62 1.12a1.66 1.66 0 01-.62-1.12zm8.04 19.88c.17.46.39.9.49 1.38.38 1.8.74 3.6 1.1 5.4v.05c.2 1.03.37 2.06.55 3.09l.02.06.18 1.03a741.96 741.96 0 013.62 22.46l.2 1.34.81 5.67c.36 3.42.52 6.85.45 10.3-.04 2.03 0 4.06 0 6.09-.4-3.9-.94-7.8-1.48-11.68l-.02-.02-.49-4.72c-.27-2.57-.58-5.13-.87-7.7-.18-1.64-.33-3.29-.53-4.93a286.68 286.68 0 00-1.44-10.55c-.43-2.65-.85-5.3-1.37-7.94-.47-2.44-.96-4.87-1.1-7.35l-.12-1.98zm1.97 6.17c.1.3.22.6.3.9 1.18 4.26 2.12 8.56 2.8 12.92.65 4.11 1.32 8.22 1.88 12.35.27 1.97.31 3.98.45 5.97.01.19-.01.38-.02.58-.06-.11-.13-.22-.15-.34l-.18-.97c-.98-7.67-2.27-15.3-3.7-22.9l-.9-4.59c.01-.18-.02-.35-.1-.52l-.09-.48c.07-.5-.13-.98-.17-1.48l-.12-1.44zm-2.35 26a42.44 42.44 0 01-.93-8.56c0-.28.05-.56.08-.84.04.28.1.56.12.84l.92 8.4c.03.23.01.45.01.67-.07-.17-.16-.33-.2-.51zm1.54 7.16c-.1-.26-.21-.5-.27-.77-.3-1.43-.59-2.86-.87-4.3-.04-.23-.03-.48-.03-.72.09.3.2.6.26.91.27 1.21.55 2.42.8 3.64.08.4.1.81.15 1.22l.08.51-.12-.5zm2.3 7.56c-.42-1.67-.85-3.34-1.23-5.02-.49-2.22-.93-4.46-1.4-6.69-1-4.7-1.37-9.48-1.63-14.26-.25-4.42-.03-8.82.32-13.22.09-1.1.04-2.2.06-3.3 0-.27.03-.54.04-.81.36.83.4 1.73.46 2.61.2 3.2.37 6.4.56 9.6.14 2.3.3 4.61.43 6.92.12 1.92.23 3.85.31 5.78.17 3.97.8 7.88 1.44 11.8.35 2.14.65 4.29.96 6.44.04.31 0 .64-.01.97-.1-.28-.24-.54-.31-.82zm3.5 12.56l-.05-.15c-.13-.31-.3-.61-.39-.94a68.4 68.4 0 01-2.2-11.03 79.9 79.9 0 00-.95-6.44 87.22 87.22 0 01-1.66-14.04c-.03-1.34-.17-2.68-.25-4.02l-.74-12.59c-.02-.19 0-.38.02-.57.1.27.22.54.27.83.46 2.82.9 5.64 1.34 8.47.03.2.04.41.08.62.92 4.46 1.18 9.02 1.8 13.52.5 3.59.82 7.2 1.18 10.8.14 1.43.34 2.87.54 4.3.02.17.08.33.15.49.34 3.56.62 7.14.94 10.7l-.08.05zm-1.47-47.4a69.8 69.8 0 014.71 20.75 66.1 66.1 0 01-.26 11.44c-.02.25-.08.5-.13.76-.03-.25-.08-.5-.1-.76-.25-4.03-.34-8.07-.8-12.08-.72-6.48-1.7-12.93-3.45-19.23-.14-.48-.2-.97-.29-1.46.11.2.24.38.32.58zm-1.34-2.58c.23.97.5 1.94.77 2.9 1.16 4.09 1.9 8.26 2.63 12.44 1 5.79 1.43 11.62 1.76 17.48.2 3.55.06 7.09-.53 10.6-.3 1.84-.51 3.7-.77 5.53-.04.26-.1.51-.17.77a8.13 8.13 0 01.12-3.02c.12-.38.19-.76.01-1.13.05-.34.14-.68.16-1.01.3-7.05-.16-14.07-.73-21.08-.2-2.5-.64-5-1.04-7.48-.56-3.44-1.14-6.87-1.8-10.3-.9-4.75-2.2-9.4-3.65-14-.12-.36-.16-.74-.23-1.11 1.28 3.09 2.68 6.14 3.47 9.41zM19.41 154.68v-.02.02z" fill="#E4DDDD"/><path d="M17.88 187.84a123.86 123.86 0 00-4.53-11.23l-.05-.12a118.1 118.1 0 00-4.8-9.3c-.1-.16-.33-.03-.25.13.41.77.81 1.54 1.2 2.32.09.35.24.67.48.93l.33.68c.1.33.24.63.45.9 2.51 5.15 4.74 10.43 6.64 15.82.12.32.64.2.53-.13zM12.56 175.35l.12.3-.12-.3zM13.66 177.58l.13.3-.13-.3zM13.78 177.85l.12.3-.12-.3zM13.89 178.12l.12.3-.12-.3z" fill="#E4DDDD"/><path d="M14 178.4l.13.29-.13-.3zM14.12 178.66l.12.3-.12-.3zM14.23 178.93l.12.3-.12-.3zM14.34 179.2l.13.3-.13-.3zM14.46 179.47l.12.3-.12-.3zM14.57 179.74l.13.3-.13-.3zM14.68 180.01l.13.3-.13-.3zM14.8 180.28l.12.3-.12-.3zM14.91 180.55l.13.3-.13-.3zM15.03 180.82l.12.3-.12-.3zM15.14 181.1l.12.29-.12-.3zM15.25 181.36l.13.3-.13-.3zM15.37 181.63l.12.3-.12-.3zM15.48 181.9l.13.3-.13-.3zM15.6 182.17l.12.3-.12-.3zM15.71 182.44l.12.3-.12-.3z" fill="#E4DDDD"/></g><defs><linearGradient id="paint0_linear" x1="0" y1="0" x2="1920" y2="0" gradientUnits="userSpaceOnUse"><stop stop-color="#ECF2F5"/><stop offset=".5" stop-color="#fff" stop-opacity="0"/></linearGradient><linearGradient id="paint1_linear" x1="0" y1="0" x2="1920" y2="0" gradientUnits="userSpaceOnUse"><stop stop-color="#ECF2F5"/><stop offset=".5" stop-color="#fff" stop-opacity="0"/></linearGradient></defs></svg>