<svg width="1920" height="781" fill="none" xmlns="http://www.w3.org/2000/svg"><path fill="#EFEFEF" d="M1920 0H0v780h1920z"/><path transform="matrix(-1 0 0 1 1920 0)" fill="url(#paint0_linear)" d="M0 0h1920v780H0z"/><g clip-path="url(#clip0)"><path d="M1904.63 52.1l-.02.1-.01-.08.03-.01z" fill="#fff"/><path d="M1708.7 198.57c-.36-.43-.15-.9-.05-1.34.69-3.14 1.38-6.3 2.1-9.43a96.8 96.8 0 016.75-19.07 74.9 74.9 0 0113.47-19.57c5.64-5.98 11.34-11.89 17.01-17.83.37-.4.69-.85 1.03-1.28-.4.2-.81.37-1.18.6-1.15.72-2.27 1.48-3.42 2.19-6.34 3.87-12.69 7.74-19.05 11.59-1.73 1.05-3.53 1.99-5.28 3-.49.28-.96.62-1.4.97-1.26 1.01-2.44 2.13-3.75 3.04-2.9 2.03-5.88 3.93-8.79 5.94-5.81 4-12.12 7.07-18.56 9.86a90.6 90.6 0 01-22.75 6.4c-2.47.36-4.93.77-7.4 1.13-4.72.7-9.44 1.5-14.19 2-4.54.5-9.12.67-13.68.97-.51.04-1.06.15-1.39-.42-.16-.47.04-.82.39-1.09.29-.22.61-.4.92-.58 2.19-1.3 4.4-2.58 6.58-3.9 3.69-2.22 7.42-4.4 11.37-6.16 8.55-3.8 17.27-7.19 26.27-9.81a68.49 68.49 0 017.58-1.79c4.5-.77 9.03-1.45 13.56-2.03 6.45-.82 12.87-1.78 19.15-3.5 3.32-.9 6.53-2.03 9.49-3.86 7.24-4.5 14.57-8.87 21.78-13.41 3.13-1.98 6.07-4.25 9.1-6.4-.45.16-.92.29-1.35.5-3.24 1.52-6.46 3.09-9.72 4.6a33.76 33.76 0 01-9.98 2.92c-1.59.2-3.18.5-4.74.9a54.72 54.72 0 01-11.55 1.61c-4.22.17-8.41.21-12.57-.63-1.02-.21-2.03-.44-3.06-.61a68.25 68.25 0 01-12.75-3.5c-5-1.88-9.95-3.92-15.13-5.32-3.26-.87-6.43-2.07-9.8-2.48-.31-.03-.64-.1-.9-.24-.28-.17-.49-.45-.83-.78.39-.31.63-.59.93-.73.37-.17.79-.23 1.19-.35 3.6-1.03 7.19-2.06 10.78-3.11 1.64-.48 3.26-1.08 4.92-1.51a99.08 99.08 0 0124.16-3.42c3.9-.03 7.78.17 11.63.92 5.68 1.09 11.23 2.63 16.74 4.33a62.93 62.93 0 0017.61 3c1.6.02 3.21-.16 4.81-.3a4.33 4.33 0 002.44-.92c.4-.32.9-.55 1.4-.67 2.11-.53 3.91-1.64 5.65-2.88 1.27-.9 2.49-1.88 3.76-2.77 2.26-1.57 4.67-2.93 6.5-5.04.2-.23.48-.4.72-.6l6.01-5.18c.12-.1.21-.23.33-.34 1.74-1.63 3.44-3.3 5.24-4.87 1.8-1.56 3.39-3.36 5.47-4.6.17-.1.31-.27.46-.42l8.07-7.57c.45-.43.89-.87 1.31-1.33 2.42-2.58 4.85-5.14 7.23-7.75 1.47-1.61 2.85-3.3 4.28-4.94l.24-.28-.33.16c-1.42 1.05-2.86 2.07-4.26 3.14-3.49 2.7-6.99 5.39-10.77 7.7a40.44 40.44 0 01-16.52 5.69c-2.16.26-4.32.58-6.48.9-3.44.52-6.9.91-10.39.77-3.17-.13-6.33-.3-9.49-.5a34.7 34.7 0 01-12.74-3.34c-6.2-2.93-12.43-5.78-19.03-7.74-2.34-.7-4.64-1.55-7.16-1.1-.12.02-.26-.11-.45-.2-.06-.67.44-.9.9-1.09 1.96-.83 3.88-1.76 5.9-2.42 4.49-1.48 9.03-2.8 13.55-4.2 6.44-2 13.01-2.69 19.71-1.8 4.84.63 9.7 1.23 14.52 2a373.04 373.04 0 0019.92 2.75c.98.1 1.97.17 2.95.18 4.27.06 8.5-.43 12.73-.93 2.45-.3 4.75-1.08 6.97-2.16 2.02-.99 3.79-2.3 5.55-3.71 3.81-3.06 7.55-6.2 10.99-9.67 3.73-3.77 7.41-7.58 11.1-11.38 1.34-1.39 2.64-2.8 3.94-4.22.27-.3.47-.64.7-.97-.28.1-.58.16-.83.3-6.47 3.64-13.39 6.18-20.46 8.32-.55.16-1.11.3-1.67.4-4.65.85-9.28 1.8-14.01 2.17-3.53.29-7.04.53-10.57.13a34.87 34.87 0 00-4.36-.22c-4.07.04-8.1-.26-12.1-1-2.55-.49-5.12-.9-7.66-1.45a45.32 45.32 0 01-8.52-2.99c-2.43-1.06-4.78-2.3-7.27-3.2-6.98-2.56-13.49-6.24-20.53-8.66-.36-.13-.68-.42-1.08-.67l.4-1.04c.39 0 .71-.04 1 .02 1.25.24 2.49.14 3.72-.07 1.64-.28 3.28-.56 4.91-.9a142.67 142.67 0 0122.69-3.03c4.94-.23 9.87-.25 14.77.59 5.07.87 10.06 2.1 15.02 3.5 6.54 1.88 13.01 4.02 19.67 5.43 2.13.46 4.28.92 6.45 1.1 2.84.25 5.71.3 8.56.29 4.87-.01 9.59-1.04 14.25-2.38.76-.22 1.4-.6 1.93-1.23 2.44-2.9 4.89-5.8 7.41-8.64a40.71 40.71 0 013.67-3.6c2.06-1.82 4.18-3.58 6.3-5.34 3.24-2.7 6.48-5.37 9.73-8.04 1.66-1.37 3.32-2.72 4.98-4.07-.76.36-1.54.68-2.25 1.11-4 2.43-8.03 4.8-12.22 6.9a40.71 40.71 0 01-8.53 3.38c-2.98.73-5.98 1.4-8.99 1.98-4.79.91-9.58 1.9-14.52 1.6-4.59-.3-9.13-.8-13.45-2.44-4.17-1.6-8.3-3.3-12.44-5-3.89-1.6-7.76-3.25-11.65-4.85a26.2 26.2 0 00-5.98-1.74c-.54-.09-1.15-.1-1.38-.74.13-.72.69-.77 1.18-.88 4.12-.9 8.22-1.86 12.35-2.66a65.88 65.88 0 0122.18-.78c2.77.4 5.54.9 8.28 1.5a132.1 132.1 0 0019.62 2.58c2.54.18 5.08.4 7.62.45 2.03.05 4.06.01 6.07-.2 2.42-.24 4.8-.78 7.21-1.05 3.61-.42 7-1.53 10.3-2.96 1.59-.7 3-1.62 4.27-2.81 1.4-1.31 2.9-2.53 4.44-3.69a123.3 123.3 0 0112.84-8.26c4.16-2.4 7.99-5.25 11.93-7.95 5.23-3.59 10.42-7.25 16.21-9.93.72-.34 1.37-.8 2.06-1.22-.38.06-.78.1-1.13.22-2.44.9-4.88 1.8-7.3 2.75-4.6 1.8-9.21 3.52-13.99 4.81a66.08 66.08 0 01-23.48 2c-4.5-.42-8.74-1.82-12.95-3.33-4.48-1.6-8.59-3.94-12.7-6.29a734.34 734.34 0 00-26.83-14.6c-1.34-.7-2.66-1.42-3.97-2.17-.58-.33-1.21-.67-1.22-1.5.2-.74.8-1.08 1.46-1.25.74-.2 1.52-.35 2.29-.43 3.1-.3 6.2-.63 9.31-.85 4.31-.3 8.61-.65 12.93-.48 3.06.12 6.13.2 9.19.4 4.63.32 9.21 1.08 13.55 2.78 7.25 2.84 14.48 5.75 21.67 8.76 7.48 3.13 15.16 5.46 23.25 6.22 3.68.34 7.37.5 11.05.74a9.78 9.78 0 005.8-1.43c.9-.53 1.83-1 2.73-1.5a455.35 455.35 0 0124.23-12.57c4.43-2.17 9.05-3.95 13.55-5.98 4.36-1.97 8.81-3.71 13.32-5.3 6.23-2.2 12.38-4.6 18.76-6.34 1.35-.37 2.7-.78 4.01-1.27 5.31-2 10.84-3.3 16.26-4.92.79-.24 1.62-.37 2.43-.54 4.88-1.04 9.75-2.15 14.65-3.09 4.02-.77 8.09-1.35 12.14-2 .15-.03.31-.03.47-.05 1.26-.15 2.34.35 3.38.95.42.23.72.6.7 1.24-.14.53-.58.86-1.15 1.05a9.8 9.8 0 01-1.2.33c-2.7.54-5.41 1.03-8.1 1.6-4.02.87-8.01 1.8-12.02 2.67-4.42.95-8.83 1.95-13.28 2.72-4.1.71-8.19 1.45-12.22 2.49a62.79 62.79 0 00-10.58 3.7c-4.96 2.28-9.93 4.54-14.85 6.9a137.3 137.3 0 00-8.41 4.44 259.23 259.23 0 00-23 14.95c-4.4 3.16-8.76 6.35-12.58 10.22-.22.22-.45.42-.7.62a29.35 29.35 0 00-3.97 3.95c-.57.67-1.2 1.31-1.88 1.86-3.21 2.6-5.9 5.72-8.91 8.5a8.7 8.7 0 00-1.02 1.18c-2.72 3.57-5.67 6.91-9.26 9.65-.2.15-.4.33-.58.51a48.75 48.75 0 01-7.01 6.12c-.01.57-.09 1.19-.02 1.79.18 1.79.85 3.42 1.73 4.97a38.82 38.82 0 004.55 6.31c2.26 2.59 4.52 5.17 6.85 7.69a106.13 106.13 0 0117.29 25.08c4.79 9.65 7.98 19.86 10.22 30.37 1.42 6.65 2.72 13.33 4.06 20 .27 1.38.51 2.77.73 4.15.09.6.09 1.22.13 1.84l-.82.52c-1.06-.19-1.71-.89-2.35-1.55-1.84-1.9-3.69-3.82-5.44-5.8a6535.58 6535.58 0 01-19-21.72 100.4 100.4 0 01-9.47-12.57 72 72 0 01-9.3-21.85 100.55 100.55 0 01-2.68-24.57c.06-3.8.5-7.56 1.46-11.25.06-.25.06-.52.12-1.07l-8.91 11.55c.02.48.01 1 .07 1.5.19 1.5.37 3 .62 4.48.19 1.07.38 2.16.73 3.19 1.74 5 3.54 9.99 5.31 14.98.7 1.96 1.45 3.9 2.05 5.9 2.72 9.06 3.84 18.38 4.32 27.8.32 6.3-.25 12.57-.9 18.82-.27 2.53-.81 5.03-1.13 7.56-.61 4.8-1.94 9.46-2.96 14.18a44.69 44.69 0 00-1.24 10.03c.01.73-.01 1.46-.02 2.18-.01.44-.09.84-.78.95-.19-.27-.46-.57-.64-.9-2.11-4.01-4.22-8-6.3-12.03a132.53 132.53 0 01-11.52-30.56 58.66 58.66 0 01-1.63-12.65 99.6 99.6 0 011.21-16c.58-4.06 1.31-8.1 2-12.14a95.45 95.45 0 014.12-15.5l1.68-4.8c-1.15 1.58-2.39 3.1-3.42 4.77-2.94 4.77-5.93 9.52-8.62 14.45-2.46 4.5-5.07 8.94-7.66 13.38-1.23 2.1-2.46 4.23-3.88 6.2-1.8 2.5-3.53 5-5.05 7.68-.56.99-.87 1.99-.72 3.11.35 2.68.7 5.35 1.07 8.03.15 1.08.38 2.14.51 3.22.51 4.28.98 8.57 1.49 12.85.56 4.75.7 9.52.37 14.3-.17 2.39-.24 4.78-.49 7.15-.4 3.77-.79 7.55-1.4 11.3-.62 3.78-1.41 7.55-2.28 11.3-.82 3.48-1.69 6.97-2.82 10.36-1.57 4.73-3.46 9.35-5.12 14.05-1.48 4.15-2.88 8.34-3.34 12.77-.02.22-.24.41-.37.61-.83-.1-.88-.7-1-1.25-.62-2.9-1.2-5.8-1.91-8.68-2.46-10-4.27-20.1-4.55-30.44-.12-4.68-.1-9.36.44-14 .41-3.46.96-6.9 1.57-10.33.48-2.65 1.1-5.28 1.77-7.9 1.24-4.84 3.01-9.5 4.85-14.13.2-.5.35-1.04.52-1.56-.35.42-.73.8-1.05 1.25-3.82 5.32-7.61 10.65-11.44 15.96a50.83 50.83 0 01-3.38 4.28c-2.75 3.04-5.59 6-8.38 9.02-.28.3-.56.62-.73.98a16.77 16.77 0 00-1.74 6.75c-.05 3.1 0 6.23.18 9.34.29 4.77.64 9.52.25 14.31a99.6 99.6 0 01-1.19 9.1 104.54 104.54 0 01-15.63 39.9c-1.08 1.64-1.96 3.42-2.87 5.17-.35.68-.51 1.46-.79 2.19-.04.12-.22.2-.39.34l-.68-.28c-.03-1.14-.05-2.22-.09-3.3-.08-2.07-.22-4.15-.26-6.22-.1-5.26.32-10.5.82-15.71.86-9.01 2.3-17.92 4.83-26.64 1.46-5.04 3-10.05 5.01-14.9 2.23-5.39 5.12-10.44 7.91-15.54.24-.44.44-.9.65-1.34-.26.22-.54.41-.77.66a62.73 62.73 0 00-7.45 9.59 67.48 67.48 0 01-5.6 7.66c-.84 1-1.69 1.99-2.42 3.06-2.54 3.75-5.38 7.26-8.2 10.8a69.88 69.88 0 01-6.15 6.83c-2.8 2.7-5.57 5.45-8.47 8.05-4.64 4.17-9.21 8.42-14.2 12.18a204.43 204.43 0 00-10.26 8.13c-.46.4-1 .73-1.52 1.06-.11.07-.3 0-.53 0l-.3-.63c.12-.25.2-.44.3-.62 2.69-5.28 5.44-10.52 8.06-15.83a107.1 107.1 0 0112.6-19.63c6.35-7.97 14.12-14.35 22.49-20.05.51-.35 1.03-.67 1.54-1 .06-.47.13-.88.16-1.3l1.02-12.89c.15-1.92.23-3.84.38-5.75.24-3.11.39-6.23.81-9.32.5-3.7 1.19-7.37 2.11-11a152.3 152.3 0 016.14-18.8 304.98 304.98 0 0111.76-25.8c1.18-2.3 2.38-4.58 3.58-6.88-1.39 1.32-2.83 2.58-4.16 3.95a26668.1 26668.1 0 00-32.81 33.8c-.73.74-1.3 1.66-2.1 2.3-1.84 1.45-3.46 3.13-5.16 4.74a10.22 10.22 0 00-3.08 5.96c-.3 1.8-.59 3.6-1.11 5.33-.52 1.7-.95 3.4-1.14 5.17a189.19 189.19 0 01-4.62 25.44 227.09 227.09 0 01-3.92 13.8 99.64 99.64 0 01-7.1 16.92c-6.43 11.89-14.3 22.8-22.48 33.5-.15.2-.36.36-.59.58l-.87-.33.1-1.13c.08-1.19.23-2.38.24-3.57.02-5.98.19-11.95.73-17.9.73-8.14 2.01-16.2 4.18-24.09a68.6 68.6 0 018.21-18.94c2.01-3.16 4-6.33 6.04-9.47 1.73-2.65 3.51-5.28 5.28-7.9 2.53-3.75 5.08-7.48 7.62-11.22.11-.16.19-.33.29-.5-.44.16-.74.42-1.04.68-6.25 5.5-12.46 11.03-19.15 16a7.38 7.38 0 00-2.16 2.4c-.75 1.37-1.59 2.69-2.3 4.07-1.1 2.12-2.11 4.3-3.18 6.43-4.35 8.63-9.13 17.03-13.42 25.7a93.01 93.01 0 01-12.18 18.99c-3.22 3.8-6.5 7.56-9.81 11.3-1.09 1.25-2.31 2.4-3.5 3.56-2.38 2.31-5.26 4.08-7.29 6.78-.26.36-.68.47-1.09.13zm-37.72-27.13a100.2 100.2 0 0022.35-8.09c4.23-2.13 8.4-4.33 12.3-7.02.75-.51 1.44-1.1 2.16-1.67-.28.08-.57.13-.83.25-3.16 1.57-6.36 3.07-9.47 4.74-3.84 2.06-7.61 4.26-11.72 5.8-6.22 2.32-12.41 4.75-18.86 6.43-.5.13-.98.37-1.47.57 1.85-.33 3.72-.58 5.54-1.01zm-37.92 4.88c-.29.04-.56.13-.82.4 1.6-.06 3.2-.09 4.8-.17 7.02-.37 13.94-1.43 20.83-2.79.96-.19 1.93-.42 2.87-.7 8.31-2.49 16.6-5.04 24.7-8.15a70.76 70.76 0 008.45-3.98c.21-.11.39-.28.58-.43-.54.11-1.09.18-1.6.35-4.2 1.37-8.38 2.77-12.58 4.15-1.72.56-3.47 1.05-5.2 1.63-3.39 1.14-6.8 2.24-10.16 3.5a65.82 65.82 0 01-14.31 3.6c-5.86.8-11.71 1.72-17.56 2.59zm3.53-2.59c-.43.17-.86.36-1.28.55-.14.06-.26.17-.65.43.58-.06.9-.06 1.19-.14 6.8-1.9 13.71-3.36 20.47-5.42 7.45-2.27 14.97-4.32 22.46-6.45.53-.16 1.11-.18 1.67-.26-.47.2-.92.45-1.41.6-8.7 2.58-17.39 5.2-26.11 7.72-3.93 1.13-7.93 2.05-11.89 3.07-.68.18-1.34.4-2.01.61.39.02.79.08 1.17.03 5.04-.7 10.09-1.35 15.11-2.17a42.9 42.9 0 008.95-2.66 94.01 94.01 0 0111.82-3.94c1-.25 2-.57 2.98-.89 4.85-1.56 9.67-3.2 14.53-4.7 4.31-1.33 8.18-3.57 12.09-5.72.13-.07.23-.2.34-.31l.61-.2-.58-.1.04-.3-.64.23c-3.5.48-6.96 1.17-10.33 2.23-10 3.15-20.04 6.18-30.2 8.79-2.86.73-5.7 1.57-8.57 2.31-6.75 1.74-13.26 4.2-19.76 6.7zm61.97-21.47c-6.39.77-12.81 1.37-19.03 3.12a283.4 283.4 0 00-16.67 5.07 115.57 115.57 0 00-18.07 7.95c-.47.26-.9.6-1.34.91.42-.13.84-.23 1.25-.4 4.49-1.78 8.96-3.63 13.47-5.36 2.13-.81 4.33-1.45 6.52-2.1 9.66-2.9 19.37-5.61 29.2-7.85 1.37-.31 2.75-.59 4.11-.9.43-.1.85-.27 1.27-.42-.24-.01-.48-.05-.71-.02zm8.43-1.18c-6.62 1.57-13.25 3.1-19.86 4.7-8.59 2.07-17.02 4.74-25.49 7.22-.4.11-.8.24-1.18.4-5.75 2.29-11.49 4.58-17.22 6.9-.44.17-.83.46-1.24.71.42-.1.84-.18 1.24-.33 4.26-1.67 8.62-3.04 13.04-4.23l21.52-5.81c.55-.15 1.1-.3 1.65-.47 5.16-1.58 10.32-3.2 15.5-4.74 1.89-.56 3.8-1.07 5.75-1.4a29.39 29.39 0 009.02-2.84c.89-.47 1.84-.83 2.68-1.45-1.8.45-3.6.91-5.41 1.34zm12.38-75.98c-.03.01-.03.08-.06.21.17.07.34.18.52.2 3.95.57 7.64 1.99 11.28 3.49 3.98 1.64 7.87 3.51 11.8 5.26a31.17 31.17 0 008.76 2.67c3.14.4 6.28.85 9.44 1.14 4.36.4 8.71.04 13.04-.6 2.82-.43 5.64-.89 8.47-1.28 4.9-.68 9.45-2.36 13.74-4.8a95.24 95.24 0 0011.41-7.93c-.48.22-.96.41-1.42.66-3.82 2.1-7.63 4.23-11.45 6.31-.78.43-1.61.74-2.43 1.06a76.65 76.65 0 01-18.38 4.57c-3.92.48-7.83.95-11.78.9a47.1 47.1 0 01-9.86-1.23c-.17-.04-.31-.2-.47-.31 1.89.26 3.77.55 5.66.78 4.78.6 9.54.28 14.29-.39 2.06-.29 4.12-.58 6.17-.93a73.85 73.85 0 0015.39-4.44 16.3 16.3 0 001.82-.9c2.69-1.47 5.37-2.95 8.05-4.44.42-.24.79-.56 1.18-.85-2.32.64-4.67 1.21-6.96 1.96-4.44 1.46-8.84 3.04-13.26 4.54-3.87 1.3-7.89 1.8-11.91 2.27-3.2.37-6.41.7-9.63.56a99.6 99.6 0 01-13.49-1.3c-.86-.16-1.72-.42-2.54-.73-3.59-1.37-7.19-2.7-10.74-4.18a42.78 42.78 0 00-8.62-2.63c-.51-.1-1.01-.23-1.52-.35a9.63 9.63 0 00-6.5.71zm17.89-5.78c-3.13.97-6.26 1.9-9.39 2.86-.22.07-.42.2-.63.3l5.78-.71c2.06-.25 4.12-.55 6.19-.7 1.39-.1 2.8-.03 4.2.05 3.11.18 6.21.41 9.32.63.62.04 1.24.12 1.86.16l7.62.42c1.6.09 3.21.14 4.82.24 5.54.37 11.08.8 16.63 1.1 3.95.22 7.89-.03 11.82-.46.23-.03.45-.12.66-.3-1.76-.09-3.52-.15-5.27-.24-.94-.05-1.87-.1-2.8-.2-4.38-.54-8.76-1.1-13.15-1.63-1.03-.12-2.07-.13-3.1-.27-1.44-.2-2.87-.47-4.3-.7-.67-.1-1.34-.23-2.01-.28-3.36-.24-6.73-.49-10.1-.65-1.86-.1-3.73-.02-5.6-.05-2.54-.02-5.09-.03-7.63-.12-1.68-.07-3.31.06-4.92.55zm17.26-1.72a38.29 38.29 0 00-10.56.21c-.31.05-.6.12-.91.18l-.01.3c1.7.06 3.41.2 5.12.15 4.42-.13 8.82.12 13.21.53 2.33.22 4.66.36 7.01.42l-1.34-.18c-4.18-.54-8.34-1.15-12.52-1.6zm50.51 4.72c-3.12.73-6.23 1.5-9.36 2.2-.69.16-1.42.13-2.14.19l1.9-.7c-1.42.06-2.84.1-4.26.2a75.2 75.2 0 01-12.12-.28c-4.18-.4-8.38-.57-12.57-.84-3.99-.26-7.98-.5-11.96-.78-3.78-.26-7.55-.57-11.33-.8a31.81 31.81 0 00-7.14.26l-1.38.28c3.9.32 7.57.65 11.24.91 4.05.29 7.99 1.24 11.96 2.02 3 .59 6.02 1.05 9.09 1.2 2.07.1 4.13.4 6.2.61-.4.06-.81.19-1.2.15-3.37-.3-6.72-.66-10.08-.98a97.7 97.7 0 01-10.3-1.73 38.4 38.4 0 00-4.32-.58c-3.16-.28-6.33-.47-9.48-.76-3.18-.29-6.34.04-9.49.3-.7.05-1.4.16-2.12.46 1.04.3 2.07.66 3.12.88 2.46.5 4.8 1.36 7.06 2.42 3.97 1.85 8.06 3.34 12.22 4.69.49.16 1 .29 1.51.37a82.55 82.55 0 0017.56.94c3.47-.23 6.93-.67 10.37-1.14 4.4-.62 8.54-2.2 12.72-3.63.17-.06.32-.2.47-.3-.75.07-1.51.1-2.25.24-5.94 1.11-11.95 1.47-17.95 1.8-3.11.16-6.22.07-9.31-.44-2.1-.35-4.22-.59-6.33-.88-.35-.04-.7-.12-1.02-.37.38.02.77.03 1.15.08l5.55.79c3.97.56 7.96.6 11.95.29a187 187 0 0013.01-1.31c6.14-.91 12.06-2.6 17.9-4.65.92-.33 1.87-.56 2.81-.84h.01l.65-.23.35-.55c-.9.17-1.8.3-2.69.51zM2069-78.84l.03-.18a3.38 3.38 0 01-.16-.23l-.42.38.09.16.46-.13zm-1.73-.15a4.06 4.06 0 00-2.79.55c.97.01 1.91-.12 2.79-.55zm-28.99 4.55c-.12.03-.23.14-.44.27.26.04.41.1.55.07 1.8-.4 3.67-.52 5.38-1.29l-5.49.95zm-.09 2.17c2.73-.63 5.47-1.18 8.19-1.84 3.52-.86 7.03-1.79 10.54-2.7.22-.05.42-.18.63-.28-.59.07-1.18.1-1.76.24l-21.09 4.74c-.53.12-1.06.27-1.56.5 1.72 0 3.39-.28 5.05-.66zM1923.53 17.4l-.31-.04-.59-.38-.23-.66-.08-.33-.21.3c-.64-1.3-1.27-2.6-1.92-3.89-.11-.22-.28-.4-.58-.84-.04 1.47.1 2.64.44 3.76.69 2.23 1.41 4.46 2.23 6.65 1.33 3.55 2.71 7.08 4.12 10.6a81.7 81.7 0 002.38 5.43c3.71 7.6 7.47 15.2 11.22 22.8 3.1 6.3 6.33 12.52 9.85 18.6 1.93 3.32 3.74 6.72 5.61 10.08.24.43.54.82.82 1.23a11 11 0 00-1.3-3.9c-5.12-10.1-10.26-20.17-15.38-30.27-2.23-4.4-4.46-8.8-6.63-13.22a147.52 147.52 0 01-3.03-6.66 847.78 847.78 0 01-4.56-10.75c-.24-.56-.35-1.17-.52-1.76.26.43.58.84.77 1.3 1.57 3.62 3.1 7.26 4.68 10.88.91 2.1 1.82 4.2 2.85 6.23 3.87 7.64 7.79 15.26 11.7 22.89.18.36.46.66.7 1 .11.33.18.7.33 1 1.38 2.78 2.77 5.55 4.17 8.3.12.26.32.47.49.7-.07-.33-.11-.67-.22-.98-1.13-3.14-2.8-6-4.52-8.84-.05-.08-.16-.13-.24-.2-.02-.14-.01-.31-.07-.45-1.3-2.7-2.61-5.4-3.9-8.12-.83-1.73-1.75-3.42-2.43-5.2-1.1-2.92-2.44-5.72-3.8-8.51a44.8 44.8 0 01-1.94-4.4 85.3 85.3 0 00-4.68-10.84c-.35-.67-.52-1.43-.77-2.15.21.28.46.54.62.84.77 1.53 1.54 3.07 2.28 4.61.52 1.08 1.06 2.15 1.46 3.27a87.59 87.59 0 004.69 10.88c.36.69.73 1.38.99 2.11 1.75 4.97 4.31 9.57 6.54 14.32.95 2.02 1.98 4 3.07 5.95 1.19 2.14 2.3 4.3 3.17 6.6.49 1.31 1.06 2.6 1.62 3.88 2.22 5.1 4.54 10.15 7 15.14.09.2.25.38.4.56-.15-.57-.26-1.15-.47-1.7-3.11-8.54-6.66-16.9-10.09-25.32a456.92 456.92 0 00-8.06-18.4c-.62-1.37-1.18-2.77-1.75-4.17a68.76 68.76 0 00-4.5-9.23 66.55 66.55 0 01-2.4-4.37 132.45 132.45 0 00-6.5-11.17c-.72-1.13-1.67-2.1-2.52-3.16zm32.17 73.65c-3.14-5.56-6.32-11.1-9.42-16.68-4.23-7.64-8-15.51-11.84-23.34-1.97-4.01-3.96-8.01-5.86-12.05-1.1-2.35-2.08-4.76-3.04-7.17-1.51-3.76-2.95-7.54-4.43-11.3-.09-.22-.26-.4-.4-.59.07.65.11 1.3.23 1.94a70.92 70.92 0 003.21 11.53c2.17 5.84 4.22 11.72 6.8 17.4a91.95 91.95 0 002.88 5.86c2.19 4.07 4.38 8.14 6.7 12.13 1.56 2.7 3.32 5.27 5.02 7.88 1.81 2.78 3.7 5.51 5.47 8.32a89.93 89.93 0 005.6 8.01c-.31-.65-.57-1.31-.92-1.94zm2.46 3.26c.47.99 1.1 1.9 1.67 2.83-.04-.27-.06-.56-.18-.8-.71-1.48-1.16-3.09-2.2-4.4.22.8.36 1.64.71 2.37zm4.31 9.12c-.25-.42-.51-.8-1.01-.94l1.01.94zm.74-2.45a119.4 119.4 0 00-1.25-5.94c-.68-2.77-1.48-5.52-2.17-8.28a93.16 93.16 0 00-3.52-10.81c-1.99-5.24-3.91-10.52-6.56-15.48-3.2-6-6.25-12.09-9.9-17.84l-2.3-3.7c-.75-1.41-1.5-2.83-2.23-4.25-.23-.45-.39-.94-.58-1.4.32.4.69.75.94 1.19 4.38 7.65 9 15.16 13.14 22.96 2.95 5.56 5.4 11.33 7.61 17.2.99 2.63 1.89 5.28 2.84 7.91.13.36.31.7.48 1.05.01-1.5-.37-2.93-.81-4.34-2.27-7.13-4.76-14.17-8.13-20.87-1.3-2.6-2.56-5.22-3.85-7.83a37.73 37.73 0 00-3.88-6.2c-2.26-2.92-3.99-6.19-5.79-9.4-.11-.21-.11-.5-.15-.74.31.4.68.76.94 1.18.93 1.5 1.78 3.06 2.72 4.55a71.55 71.55 0 002.89 4.25 38.97 38.97 0 013.71 5.95c2.81 5.68 5.77 11.3 8.01 17.24.08.22.23.4.35.61-.04-.33-.05-.68-.15-1-2.6-8.02-5.83-15.75-10.38-22.9a124.02 124.02 0 00-7.95-11.14c-.32-.39-.74-.7-1.11-1.05-.54-.74-1.02-1.54-1.63-2.23-1.87-2.08-3.79-4.13-5.7-6.2.2.44.35.9.61 1.3 1.08 1.68 2.2 3.32 3.28 5 .3.46.49.98.73 1.48l-.3-.03.21.62.28.36c.05.2.07.41.16.58l3.61 6.25c1.11 2.63 2.21 5.26 3.35 7.88 1.17 2.67 2.4 5.3 3.55 7.98 2.01 4.68 4.02 9.35 5.94 14.07 2.8 6.88 5.54 13.79 8.27 20.7.76 1.93 1.43 3.9 2.13 5.86.13.38.19.8.28 1.2l-.3-.03.22.64.21.65.32.04.24.66h-.01l.24.66c.23.44.48.87.67 1.33.27.64.51 1.3.75 1.96 0-.55.08-1.12-.03-1.65zm-45.5-74.58a100 100 0 002.36 16.78 65.04 65.04 0 008.07 19.49c1.09 1.77 2.24 3.5 3.4 5.22.3.45.7.84 1.06 1.25-.04-.18-.07-.37-.16-.53l-6.5-13.3a39 39 0 01-2.47-6.54c-.72-2.54-1.44-5.1-2.41-7.56a46.03 46.03 0 01-2.91-13.8 13.6 13.6 0 00-.5-3.07c.02.69.02 1.37.06 2.06zm.39-11.46c.43 3.19.9 6.37 1.34 9.55.08.61.09 1.23.13 1.85-.16-.48-.39-.95-.47-1.44-.36-2.25-.67-4.52-1.01-6.78a2.5 2.5 0 00-.48-1.28c.07 1.08.11 2.16.22 3.24l1.28 12.38c.21 1.93.73 3.77 1.33 5.6 1.31 3.95 2.55 7.92 3.88 11.85.59 1.72 1.28 3.41 2.04 5.05 1.63 3.49 3.28 6.96 5.02 10.4a54.26 54.26 0 008.36 12.54c3.9 4.25 7.67 8.62 11.51 12.92.31.35.7.64 1.07.95-.29-.45-.56-.91-.88-1.33-3.5-4.57-7.02-9.12-10.52-13.7-.36-.47-.59-1.05-.88-1.58.32.32.68.6.96.96 4.37 5.63 8.69 11.29 13.1 16.87 1.93 2.45 4.04 4.75 6.08 7.11.22.26.52.46.79.7-.15-.38-.25-.78-.47-1.1-1.21-1.82-2.37-3.67-3.7-5.4-2.6-3.38-5.01-6.88-7.23-10.53a128.67 128.67 0 00-4.76-7.12 98.6 98.6 0 01-6.39-10.51 435.3 435.3 0 00-4.1-7.53 101.9 101.9 0 01-5.72-12.1c-1.37-3.49-2.65-7-4-10.49a86.61 86.61 0 01-5.03-19.72c-.21-1.58-.6-3.15-.94-4.88a5.91 5.91 0 00-.53 3.52zm-165.55 22.7c1.09.48 2.21.91 3.31 1.38 2.34 1 4.69 1.97 7.02 3a71.3 71.3 0 009.45 3.6c1.25.36 2.52.67 3.8.9 1.93.35 3.89.63 5.89.77-1.39-.6-2.78-1.17-4.16-1.77a139.63 139.63 0 00-16.6-5.84c-1.14-.33-2.34-.5-3.48-.83-2.17-.61-4.31-1.3-6.46-1.95.41.26.8.54 1.23.74zm-3.94-1.78a3.47 3.47 0 00-2.05-1.14l2.05 1.14zm8.97-1.62a6.01 6.01 0 00-1.58.06c.55.07 1.11.1 1.65.21 1.99.4 3.96.89 5.95 1.24 3.65.65 7.05 2.12 10.56 3.24 3.71 1.18 7.38 2.5 11.11 3.6 5.08 1.52 10.16 3 15.5 3.39 3.63.26 7.26.41 10.89.06 2.17-.21 4.34-.39 6.52-.6.44-.04.88-.17 1.33-.25l-.02-.14c-.67.01-1.33.03-2 .03-4.22 0-8.38-.7-12.55-1.26-2.78-.36-5.54-.88-8.32-1.3-2.33-.36-4.5-1.27-6.74-1.9-3.7-1.04-7.43-2.01-11.12-3.09a90.77 90.77 0 00-12.8-2.7c-2.76-.4-5.58-.41-8.38-.59zm-14.07-2.38c.61 0 1.21.03 1.82.02l4.36-.12c.31 0 .62.06.92.1 1.02.18 2.04.42 3.06.52 2.22.23 4.45.4 6.67.58 3.21.25 6.42.44 9.62.74 2.54.23 5.06.62 7.59.87 3.21.32 6.4.79 9.54 1.51.95.22 1.88.58 2.81.9 2.65.91 5.29 1.86 7.95 2.75.78.26 1.61.4 2.43.52 4.58.7 9.2.95 13.81 1.3 3.05.24 6.12.24 9.17.05 1.5-.1 3.1-.12 4.58-.43.45-.1.84-.33 1.27-.48.67-.22 1.4-.27 2.08-.43l8.88-2.07c.06-.02.12-.01.18 0l.7-.25a.85.85 0 00-.15-.11c-5.7 1.27-11.44 2.47-17.28 2.76-6.59.32-12.89-.98-19.24-2.56a197.07 197.07 0 00-19.82-3.87 434.24 434.24 0 00-20.38-2.53 98.43 98.43 0 00-20.29.03c-.09.05-.19.12-.28.2zm17.87 1.75c-2.99-.71-6.04-.65-9.08-.8 2.98.74 6.06.5 9.08.8zm34.31-2.8a111.65 111.65 0 00-13.12-2.74c-4.92-.68-9.85-.6-14.79-.31-5.5.32-10.96 1-16.37 2.07-.37.07-.73.2-1.09.3.83-.07 1.67-.12 2.51-.2 4.44-.46 8.87-1.1 13.32-1.34 5.29-.28 10.6-.59 15.88.17 4.63.67 9.2 1.63 13.68 3.02 3.87 1.2 7.8 2.2 11.65 3.43 3.33 1.06 6.74 1.76 10.13 2.5 3.48.76 7 .94 10.55.7.36-.03.71-.1 1.07-.25-.66-.09-1.33-.23-2-.25-2.98-.06-5.88-.72-8.77-1.32-7.63-1.6-15.12-3.79-22.65-5.78zm35.02 7.95c-3.89.4-7.8.63-11.65-.15-3.81-.77-7.64-1.5-11.36-2.68-3.67-1.16-7.38-2.17-11.07-3.24-1.29-.38-2.56-.86-3.87-1.17-3.14-.72-6.28-1.43-9.45-2.02a39.9 39.9 0 00-8.07-.54c-3.37.05-6.76-.04-10.12.24-5.1.42-10.19 1.02-15.28 1.58 3.77-.22 7.56-.2 11.35.08 6.59.48 13.17 1.39 19.73 2.26 6.69.89 13.37 1.92 19.94 3.47 6.47 1.52 12.9 3.38 19.6 3.46 5.5.06 10.93-.82 16.31-1.94l-6.06.65zm12.08-1.2l-.41.1a24.68 24.68 0 01-4.14 1.54l-.23.07c-6.67 1.85-13.38 3.47-20.39 3.05-3.52-.2-7.05-.43-10.56-.74a111.5 111.5 0 01-7.57-.95c-1.32-.2-2.63-.6-3.9-1.04-2.36-.8-4.64-1.86-7.03-2.52a83.37 83.37 0 00-8.53-1.8c-3.02-.5-6.07-.83-9.12-1.15-2.21-.24-4.44-.33-6.69-.42l1.18.23c5.12.87 10.21 1.85 15.19 3.4 3.46 1.09 7.02 1.9 10.47 3.02a54.27 54.27 0 009.85 2.24c4.07.53 8.12 1.22 12.18 1.77 4.58.62 9.12.26 13.6-.86l1.92-.5c.04-.07.12-.09.19-.06l3.15-.85c.55-.14 1.12-.24 1.67-.35-.48.63-1.23.75-1.91.94-3.25.9-6.51 1.8-9.78 2.63-3.03.78-6.14.96-9.25 1.22-5.74.5-11.42.17-17.07-.8-2.3-.4-4.55-1.07-6.81-1.64-4.49-1.11-8.83-2.7-13.2-4.2-2.31-.79-4.6-1.62-6.93-2.33-2.19-.66-4.41-1.2-6.62-1.75-5.88-1.43-11.92-1.75-17.87-2.65a.65.65 0 00-.48.12l1.27.3c1.36.34 2.67.82 3.93 1.47a41.19 41.19 0 009.98 3.45c2.22.5 4.41 1.2 6.6 1.81 5.16 1.46 10.1 3.51 15.02 5.61 1.81.77 3.71 1.36 5.58 1.96.69.22 1.43.33 2.15.35 4.25.16 8.51.12 12.76.48 3.38.28 6.74-.2 10.1-.6a92.43 92.43 0 0017.31-3.82c2.23-.71 4.42-1.54 6.61-2.35.52-.19 1-.51 1.5-.77l.62-.21-.59-.08c.44-.25.86-.54 1.32-.73 1.71-.7 3.45-1.35 5.16-2.06.52-.22.98-.57 1.47-.88-.57.12-1.14.23-1.7.36zM1801.57 7.5c5.94 2.47 11.88 4.95 17.84 7.38a41.14 41.14 0 0012.52 3.02c4.26.32 8.51.32 12.72-.56 4.32-.9 8.64-1.8 12.97-2.68 2.97-.6 5.72-1.83 8.48-3.04.15-.06.28-.12.31-.42l-.55.11c-4 .9-7.99 1.82-12 2.7a91.07 91.07 0 01-17.62 1.95c-3.44.07-6.82-.52-10.15-1.4-.7-.2-1.4-.4-2.12-.52-3.14-.56-5.98-2.05-8.99-3.02-3.06-1-6.08-2.12-9.16-3.04-1.95-.58-3.98-.9-5.98-1.34.57.3 1.14.6 1.73.86zm-3.64-2.12c.68.2 1.36.43 2.05.6 1.42.32 2.86.56 4.26.94 1.56.42 3.08.94 4.61 1.43 2.13.67 4.26 1.35 6.38 2.05.89.29 1.79.56 2.63.96 2.8 1.31 5.8 1.96 8.76 2.75 5.3 1.43 10.67 1.5 16.09.96a97.27 97.27 0 0014.44-2.39c3.83-.98 7.71-1.73 11.54-2.65 1.92-.47 3.6-1.45 5.12-2.7-.92.24-1.85.48-2.76.75-2.25.66-4.48 1.34-6.73 1.98-1.05.3-2.13.49-3.17.8-5.22 1.57-10.59 2.07-16.01 2.24-4.06.13-8.12.2-12.14-.4-2.77-.4-5.51-1.06-8.25-1.65-2.89-.63-5.77-1.3-8.66-1.97-4.76-1.1-9.51-2.23-14.27-3.28a23.1 23.1 0 00-3.89-.42zm1.55-2c.56.07 1.12.15 1.69.2.62.07 1.24.13 1.86.15 5.8.26 11.46 1.26 16.96 3.08a54.17 54.17 0 0013.85 2.86c2.59.15 5.17.45 7.76.66 3.38.27 6.74-.05 10.1-.36 3.83-.34 7.65-.73 11.48-1.09.45-.04.92.02 1.39.04-.49.14-.97.34-1.46.4-5.66.79-11.36 1.17-17.05 1.57-1.29.1-2.6.03-3.89-.06-2.7-.2-5.38-.47-8.07-.69-1.14-.1-2.29-.1-3.42-.21a44 44 0 01-7.75-1.71c-2.89-.85-5.78-1.68-8.7-2.43-1.4-.36-2.85-.54-4.29-.74A96.83 96.83 0 001796.28 4c-.6 0-1.19.14-1.8.52.43.05.85.15 1.28.15 2.66.04 5.26.42 7.85 1.05 2.68.64 5.39 1.1 8.08 1.7 4.96 1.12 9.92 2.25 14.87 3.44a60.46 60.46 0 0014.2 1.68c4.15.01 8.31-.05 12.43-.63 2.26-.32 4.5-.79 6.72-1.29 1.97-.44 3.91-1.02 5.86-1.54l.28-.11-.24-.19c.54-.15 1.07-.35 1.62-.44 2.21-.39 4.35-1 6.44-1.81.47-.19.92-.43 1.33-.85l-1.63.2c-3.76.46-7.52.96-11.29 1.36-4.34.47-8.71.39-13.07.47-7.61.13-15.14-.6-22.65-1.75-5.34-.82-10.69-1.57-16.03-2.36-3.67-.54-7.35-.42-11.05-.22zm14.22-2.18a33 33 0 00-11.51 1.31c1.49.06 2.98.16 4.46.17 2.71.03 5.37.51 8.04.86 8.08 1.04 16.08 2.6 24.21 3.28 3.41.29 6.83.4 10.25.36 3.42-.04 6.84-.1 10.26-.22 1.23-.05 2.46-.25 3.68-.4-2.32-.04-4.65-.13-6.98-.09-2.59.04-5.18.25-7.77.3-1.46.04-2.92-.02-4.36-.15-3.36-.3-6.73-.6-10.04-1.25-2.55-.5-5.08-1.1-7.6-1.72-2.67-.65-5.31-1.46-7.99-2.02-1.51-.32-3.1-.32-4.65-.43zm62.18 2.78a64.86 64.86 0 01-18.57 1.5c-5.81-.4-11.61-.86-17.35-1.86-3.47-.61-6.93-1.34-10.39-2.07a56.22 56.22 0 00-13.99-.93c4.06.52 7.96 1.86 11.93 2.83 5.31 1.3 10.67 2.27 16.12 2.7 3.16.25 6.32.15 9.49 0 2.59-.13 5.19-.1 7.78-.19 3.52-.12 7.05-.31 10.57-.46 2.24-.1 4.45-.38 6.63-.88a7.9 7.9 0 003.36-1.58c-2.02.33-3.82.55-5.58.94zm24.46-13.66c-2.4 1.6-4.72 3.32-7.05 5.01-.4.3-.7.73-1.05 1.1l-.12.1.13-.1c.95-.5 1.97-.91 2.85-1.53 3.1-2.17 6.15-4.4 9.22-6.62.1-.08.18-.18.27-.28-1.42.76-2.91 1.43-4.25 2.32zm-10.58-22.67c-4.94-.86-9.63-2.53-14.4-4a61.03 61.03 0 01-7.29-2.73 46.95 46.95 0 01-6.59-3.52c-3.28-2.17-6.9-3.6-10.61-4.84a207.3 207.3 0 00-6.54-2.05c-.77-.23-1.58-.3-2.37-.45.65.37 1.3.75 1.96 1.1 1.92 1.04 3.87 2.01 5.75 3.12 4.03 2.37 7.95 4.94 12.05 7.19a63.1 63.1 0 0015.3 6.12 127.08 127.08 0 0021.38 3.39c5.13.36 10.28.64 15.42.16a72.1 72.1 0 009.37-1.55c-1.02.02-2.03 0-3.04.09-4.46.36-8.92.33-13.39.13-5.73-.27-11.36-1.19-17-2.16zm-4.53 6.44c3.48 1.01 7.05 1.06 10.64 1.17 4.28.14 8.48-.4 12.69-1.07.29-.05.58-.13.86-.33-9.9-.23-19.77-.7-29.63-1.52 1.75.78 3.61 1.22 5.44 1.75zm-38.71-18.8l6.78 3.73c.17.09.35.16.63.05-.76-.51-1.49-1.07-2.28-1.53-1.91-1.13-3.81-2.26-5.95-2.92.27.23.52.5.82.67zm-.82-.67l-1.38-.78c.32.5.81.7 1.38.78zm-8.55-4.66c4.18 1.97 8.37 3.91 12.55 5.87.52.24 1.03.5 1.51.81 2.97 1.91 5.92 3.85 8.9 5.75 1.7 1.1 3.39 2.22 5.16 3.2 2.91 1.6 5.88 3.08 8.83 4.62 1.35.7 2.81 1.06 4.31 1.24l5.42.66c2.53.3 5.06.47 7.62.36 1.23-.05 2.5.02 3.73.2 3 .43 6.01.22 9.02.3 1.81.04 3.63.1 5.45.17 2.03.08 4.04 0 6.01-.6 1.49-.46 3-.84 4.49-1.28.28-.08.52-.25.78-.39-.8.06-1.62.05-2.4.2-4.32.8-8.67.92-13.03.72-3.32-.16-6.65-.23-9.96-.53-3.04-.27-6.08-.74-9.1-1.2-2.31-.37-4.59-.88-6.89-1.3a51.12 51.12 0 01-9.26-2.7 73.84 73.84 0 01-13.87-7c-2.4-1.56-4.87-3-7.28-4.54-3.03-1.95-6.34-3.33-9.66-4.66-1.24-.5-2.58-.73-4.18-1.17.62.8 1.27 1 1.85 1.27zm1.05-1.61c-.2-.03-.41-.02-.64.1 1.04.25 2.07.54 3.12.73 5.33 1.01 10.45 2.73 15.44 4.8 1.68.7 3.31 1.54 4.84 2.5a59.53 59.53 0 0013.79 6.46 510 510 0 009.67 3.01c1.29.39 2.61.72 3.94.94 4.66.74 9.32 1.59 14.02 2.09 5.63.6 11.3.64 16.96.2 2.02-.16 4.05-.2 6.07-.35a8 8 0 003.56-.87c-3 .16-6.01.4-9.01.46-1.92.04-3.85-.06-5.75-.28a303.6 303.6 0 01-12.99-1.72c-2.6-.42-5.2-1.03-7.73-1.78-5.63-1.65-11.2-3.49-16.81-5.18a180.15 180.15 0 01-14.95-5.4c-3.33-1.33-6.77-2.32-10.2-3.37-4.35-1.34-8.84-1.82-13.33-2.34zm3.87-.47c-.4-.04-.81-.05-1.22-.07l.01.24c1.12.21 2.23.49 3.35.62 2.96.35 5.79 1.2 8.65 1.97 5.33 1.43 10.44 3.47 15.6 5.39 5.25 1.95 10.6 3.65 15.93 5.4 3.15 1.04 6.32 2.05 9.51 2.95a59.8 59.8 0 008.82 1.94l11.91 1.52c2.9.36 5.81.2 8.71.05 2.38-.13 4.76-.36 7.14-.59a7.86 7.86 0 003.53-1.2c-1.2.03-2.44-.07-3.62.12-2.33.37-4.66.29-6.99.23-5.15-.13-10.27-.57-15.37-1.23-2.11-.28-4.23-.47-6.33-.82-4.83-.81-9.51-2.1-14.06-3.98a256.53 256.53 0 00-25.31-9.2c-2.33-.7-4.75-1.11-7.14-1.62-1.27-.28-2.55-.5-3.82-.74-.31-.05-.62-.1-.93-.13l-8.37-.85zm3.18-.46c-.2 0-.4.06-.6.1l-.05.2c1.27.17 2.55.42 3.83.47 1.72.07 3.4.27 5.08.66 1.67.4 3.35.75 5.04 1 3.37.5 6.51 1.74 9.72 2.75 6.05 1.9 11.87 4.43 17.81 6.62 1.7.63 3.32 1.48 5.05 2.04 2.22.71 4.49 1.28 6.75 1.85 5.16 1.3 10.45 1.7 15.71 2.28 2.16.23 4.34.3 6.52.36l-4.78-.61a77.17 77.17 0 01-18.51-4.73c-2.55-1.02-5.24-1.7-7.84-2.59-3.63-1.25-7.24-2.57-10.86-3.84-3.43-1.2-6.83-2.49-10.31-3.53-3.63-1.1-7.28-2.13-11.06-2.59-3.82-.46-7.65-.7-11.5-.44zm14.22-.93c-1.55.02-3.1.13-4.68.4.2.05.4.1.61.13a84.3 84.3 0 0117.8 4.45c3.62 1.3 7.27 2.52 10.85 3.91 3.83 1.5 7.75 2.7 11.65 3.98 2.02.67 4.01 1.43 6.02 2.14a55.47 55.47 0 009.52 2.36c3.18.53 6.38.96 9.58 1.25 2.9.26 5.81.28 8.71.4l-.03-.18c-.67-.09-1.34-.16-2.01-.26-2.87-.45-5.75-.9-8.62-1.38-.87-.14-1.71-.42-2.57-.63-4.64-1.1-9.3-2.2-13.94-3.33a90.44 90.44 0 01-20.51-7.72c-2.24-1.17-4.63-1.84-7.01-2.6-2.27-.71-4.58-1.34-6.88-2-2.78-.8-5.63-.97-8.49-.92zm74.69 18.21l-7.9-.54c2.63.27 5.2 1.15 7.9.54zm-38.39-9.95c.91.74 2.01 1.02 3.1 1.32a8.3 8.3 0 00-3.1-1.32zm8.9 3.8c-.71-.24-1.42-.5-2.12-.76l-.03.01c-.35-.07-.73-.08-1.06-.2a678.23 678.23 0 01-7.8-3.15c-1.48-.6-2.94-1.3-4.44-1.88-3.28-1.28-6.57-2.58-9.89-3.75a33.72 33.72 0 00-10.95-2.12c.6.25.95.42 1.32.53 3.07.94 6.17 1.84 9.23 2.83 1.17.38 2.29.95 3.41 1.5 4.43 2.18 8.91 4.25 13.61 5.76 3.31 1.06 6.7 1.85 10.06 2.73 2.31.6 4.63 1.16 6.95 1.72.65.16 1.32.26 1.99.31l-10.28-3.52zm86.43-16.75c1.77-.59 3.55-1.14 5.29-1.8.87-.32 1.67-.83 2.49-1.27a45.79 45.79 0 00-7.84 2.98 8.03 8.03 0 00-3.2 1.48l3.26-1.39zm-43.88 35.27a6.5 6.5 0 00-2.45 2.17 5.92 5.92 0 002.45-2.17zm-2.82 2.45c-.52.19-.91.5-1.03 1.07l1.03-1.07zm-12.11 13.12c.18-.21.29-.47.43-.71l-5.46 5.09c-.1.08-.13.23-.18.36 1.98-1.3 3.7-2.91 5.21-4.74zm-22.24 23.79l3.91-5.26c.39-.14.62-.41.7-.8l-.72.77c-1.64 1.6-3.25 3.23-4.12 5.41.08-.03.18-.06.23-.12zm-5.19 1.47c-.4.17-.82.3-1.19.53-1.73 1.05-3.44 2.13-5.17 3.18-.43.26-.92.41-1.39.62l1.06-1.11c-.24.05-.48.08-.7.16-3.77 1.34-7.52 2.71-11.29 4.03a95.02 95.02 0 00-12.75 5.41 60.5 60.5 0 00-7.53 4.68c-.48.35-.92.77-1.37 1.16.27-.08.55-.14.8-.26 1.63-.81 3.27-1.61 4.86-2.48a58.12 58.12 0 0110.33-4.34c3.28-1.03 6.38-2.5 9.5-3.92.55-.25 1.15-.4 1.73-.59-.41.28-.8.62-1.26.84-3.85 1.82-7.8 3.38-11.8 4.86-6.94 2.58-13.49 5.94-19.31 10.59-.32.26-.63.53-.84.98l.84-.51c1.31-.84 2.63-1.67 3.93-2.53a40.1 40.1 0 0111.46-5.16c4.71-1.33 9.26-3.1 13.77-4.94 1.63-.67 3.18-1.55 4.73-2.38 1.74-.94 3.43-1.95 5.16-2.9a12.84 12.84 0 003.54-2.77c.94-1.07 1.93-2.1 2.89-3.15zm-50.07 31.5c.43-.1.71-.12.95-.22 4.4-1.73 8.81-3.41 13.17-5.22a30.74 30.74 0 004.52-2.42c4.27-2.67 8.5-5.4 12.74-8.12.36-.23.71-.5 1.06-.76-.51.16-1.03.28-1.51.51-3.87 1.9-7.74 3.8-11.58 5.74-2.97 1.5-5.9 3.07-8.85 4.6-1.61.84-3.22 1.69-4.84 2.51-.31.16-.68.22-1.02.32.37-.27.71-.58 1.11-.8 2.34-1.33 4.69-2.65 7.06-3.95 1.5-.81 3.02-1.59 4.55-2.35 3.06-1.54 6.13-3.05 9.19-4.58.25-.13.46-.33.68-.5-.48.11-.97.19-1.42.36-1.88.73-3.75 1.5-5.61 2.26-1.64.66-3.25 1.36-4.89 1.98-2.4.9-4.59 2.14-6.69 3.59a72.63 72.63 0 01-4.18 2.67 34.26 34.26 0 00-5.38 3.67c-.29.27-.52.6-.78.9l.95-.19c.34-.47.79-.74 1.37-.77l-.6.76zm-1.15-1.24c1.67-1.5 3.59-2.64 5.51-3.77a61.17 61.17 0 003.92-2.51 29.81 29.81 0 017.12-3.76c1.61-.57 3.18-1.26 4.76-1.9 2.31-.92 4.61-1.86 6.94-2.74a35.32 35.32 0 006.36-3.23c.23-.15.43-.37.63-.57-.52.16-1.06.29-1.56.48-4.32 1.67-8.64 3.3-13.09 4.59a36.4 36.4 0 00-9.9 4.51c-2.52 1.65-5.04 3.3-7.52 5.02a14.72 14.72 0 00-3.91 4.31c.26-.14.53-.25.74-.43zm32.17-15.78c.14 0 .29.01.4-.04 2.71-1.28 5.4-2.58 7.74-4.48.11-.1.18-.22.27-.33-.19.03-.4.03-.55.12l-7.86 4.73zm32.38 75.27c.35-2.36.51-4.75.56-7.14.06-3.78-.02-7.57-.07-11.36-.05-3.27-.22-6.54-.2-9.81.02-2.96.12-5.92-.14-8.87-.35-3.83-.75-7.64-1.12-11.46-.05-.52-.06-1.03-.08-1.55.15.49.38.96.45 1.46.84 5.86 1.54 11.74 1.47 17.67-.05 5 .09 9.97.26 14.95.1 2.9.03 5.81.03 8.78.07-.1.1-.12.1-.15a141.1 141.1 0 001.73-16.27c.29-6.45-.18-12.87-.97-19.28a86.14 86.14 0 00-3.52-16.59c-.78-2.36-1.73-4.67-2.62-7-.08-.22-.24-.4-.38-.6l.77 4.85.26 1.84c-.13-.27-.33-.52-.38-.8-.42-2.06-.82-4.13-1.21-6.2-.05-.24.02-.5.03-.76h.01c-.15-.37-.34-.73-.43-1.11-.77-3.54-2.09-6.9-3.41-10.25.09.57.16 1.14.28 1.7.75 3.45 1.76 6.86 2.02 10.39.4 5.34 1.45 10.6 2.05 15.9 1.04 9.29 2.09 18.57 2.54 27.9.22 4.36.45 8.72.55 13.07.07 3.06-.08 6.13-.12 9.2-.04 2.74-.08 5.48.02 8.24.52-2.25 1.17-4.48 1.52-6.75zm-2.19 1.4c-.03-3.23.15-6.45.12-9.67-.05-3.94-.12-7.9-.35-11.83-.38-6.27-.84-12.54-1.37-18.8-.38-4.5-.89-8.99-1.42-13.48-.27-2.32-.74-4.61-1.05-6.92-.28-2.01-.54-4.02-.68-6.04a61.58 61.58 0 00-1.5-9.06c-.04-.2-.14-.37-.41-.53.02.95-.02 1.91.05 2.86.45 5.59.89 11.18 1.41 16.76.38 4.2.6 8.39.69 12.6.1 4.36.26 8.71.38 13.07.08 2.75.1 5.5.22 8.25.16 3.74.36 7.47.63 11.2.32 4.45.6 8.91 1.15 13.34.45 3.62.46 7.25.76 10.87l.2 1.89c1-4.96 1.21-9.73 1.17-14.52zm-7.3-76.43l-.32 9.23c-.07 2.33-.02 4.67-.18 7-.38 5.7-.42 11.4-.08 17.11.23 3.78.25 7.58.52 11.36.32 4.5.83 8.99 1.2 13.49.7 8.65 2.22 17.18 3.63 25.73.05.25.13.5.39.75.01-.4.06-.82.02-1.23-.31-3.05-.72-6.08-.95-9.13-.5-6.68-1.02-13.35-1.34-20.04-.34-7.3-.57-14.62-.64-21.94-.07-6.82-.87-13.56-1.41-20.34-.3-3.72-.46-7.45-.69-11.18-.02-.28-.09-.54-.15-.81zm-10.45 55.68c-.98-5.29-1.63-10.62-2.03-15.99a50 50 0 002.03 16zm2.56-48c-.11.24-.26.46-.31.71-.76 3.97-1.52 7.95-2.26 11.93-.32 1.73-.59 3.48-.88 5.22-.82 5-.86 10-.45 15.05.57 7 1.64 13.91 3.34 20.72.27 1.11.6 2.2.98 3.28 1.49 4.16 3 8.3 4.52 12.45 1.05 2.88 2.55 5.55 4 8.36l.33-.44.55.67c.05-.57-.07-1.1-.43-1.56l-.23-.67c-.1-.61-.16-1.23-.32-1.82-1.75-6.57-3.56-13.13-5.25-19.71-1.09-4.27-2.18-8.56-2.54-12.98-.33-3.93-.48-7.87-.8-11.8-.32-3.94-.12-7.88-.07-11.83.04-2.6.01-5.19.02-7.78.01-4.26.08-8.52.74-12.74.04-.25.07-.5-.12-.8l-.82 3.74zm4.35-13.9a27.46 27.46 0 00-2.38 8.51c-.11 1.19-.33 2.37-.49 3.55a98.5 98.5 0 00-.7 13.85c.01 2.96.06 5.92-.03 8.88-.1 2.96-.05 5.91.16 8.87.26 3.47.35 6.95.7 10.41a86.5 86.5 0 001.28 8.31 264.44 264.44 0 005.15 20.56c1.08 3.85 2.22 7.68 3.37 11.52.14.5.45.94.7 1.4-.52-2.71-.98-5.44-1.56-8.14-1.26-5.9-2.58-11.77-3.88-17.65-.79-3.6-1.06-7.29-1.45-10.95-.74-6.97-1.1-13.97-1.36-20.97-.13-3.57-.15-7.15-.2-10.73-.01-.53.09-1.07.14-1.6.09.83.24 1.67.25 2.5.09 8.6.46 17.2 1.22 25.77.33 3.71.77 7.42 1.17 11.13.39 3.46 1.41 6.8 2.13 10.2 1.2 5.62 2.34 11.26 3.52 16.9.32 1.52.68 3.03 1.04 4.54.07.26.22.5.34.75l-1.03-5.88c-1.36-7.6-2.87-15.2-3.62-22.9-.71-7.27-1.4-14.56-1.9-21.85-.36-5.28-.43-10.57-.59-15.86-.04-1.25.08-2.5.12-3.74.14-4.35.29-8.7.42-13.06.1-3.62.2-7.24.27-10.86a97.86 97.86 0 01-.21-3.43.36.36 0 01-.24-.29 19.54 19.54 0 01-.18-3.59l-.34-.1a11.98 11.98 0 00-1.04 5.15 37 37 0 01-.82 6.95l.74-9.11-.18-.07c-.18.34-.37.67-.52 1.02zm-1.15-1.78c1-1.47 1.87-3.03 2.8-4.56-.19.14-.41.25-.53.43-1.4 2-2.78 4-4.15 6.02-.13.2-.19.44-.27.66.72-.84 1.53-1.63 2.15-2.55zm-19.39 31.32l-.74 1.31c.45-.33.63-.8.74-1.31zm-3.8 6.74c1-1.76 1.98-3.53 2.96-5.3-.16.16-.35.3-.46.48-1.1 1.8-2.17 3.6-3.1 5.54.2-.24.45-.45.6-.72zm-7.14 14l-.23-.06c-.06.15-.17.3-.18.45 0 .11.14.23.33.54l.08-.93zm1.79 14.65c-.05.36-.12.71-.13 1.07-.12 2.43-.25 4.86-.33 7.3-.17 4.73-1.12 9.39-1.46 14.1-.32 4.46-.83 8.9-1.49 13.31-.34 2.26-.82 4.5-1.09 6.77-.54 4.59-.98 9.19-1.46 13.78l.22.04c.34-1.83.67-3.67 1.03-5.5.47-2.34.94-4.68 1.43-7.01.62-2.96.88-5.96 1.17-8.96.44-4.45.91-8.9 1.51-13.32.45-3.3.74-6.6.68-9.93-.04-2.39.1-4.78.17-7.16.04-1.5.1-3-.25-4.49zm-5.71 63.28c1.34-4 2.32-8.09 3.22-12.2 1.36-6.25 2.65-12.5 3.2-18.89.42-4.81.77-9.64.92-14.46.09-2.95-.24-5.91-.41-8.86-.03-.54-.21-1.07-.33-1.6-.08 1.64-.23 3.27-.2 4.9.06 3.28-.26 6.52-.72 9.77-.61 4.27-1.08 8.56-1.57 12.85-.27 2.32-.4 4.65-.69 6.97-.18 1.39-.56 2.75-.83 4.12-.3 1.59-.55 3.18-.87 4.75-.63 3.1-1.3 6.2-1.97 9.3-.65 2.99-1.32 5.98-1.74 9.04.66-1.9 1.34-3.79 1.99-5.7zm-4.57 10.91c.77-2.69 1.48-5.4 2.2-8.11.12-.46.22-.91.28-1.38.79-6.08 1.53-12.16 2.35-18.24.6-4.43 1.32-8.84 1.94-13.26.3-2.11.52-4.23.75-6.35.22-1.96.39-3.93.6-5.9.5-4.74 1.07-9.5 1.48-14.25.22-2.69.18-5.4.23-8.1.02-1.29.06-2.6-.06-3.88-.18-1.75-.5-3.48-.76-5.22-.5 3.83-1.09 7.63-.9 11.5.08 1.75-.09 3.52-.24 5.28-.25 2.95-.56 5.89-.87 8.83-.23 2.17-.45 4.35-.75 6.5-.54 3.81-1.19 7.6-1.71 11.42-.67 4.89-1.32 9.78-1.87 14.69-.52 4.7-.92 9.41-1.31 14.12-.32 3.85-1.25 7.59-1.92 11.37a69 69 0 00-.71 4.78c.65-1.2.9-2.52 1.27-3.8zm-3.56-1.13l.13-4.28c.06-1.76.08-3.53.21-5.3.22-3.1.55-6.2.77-9.31.79-11.05 2.51-22 3.95-32.96.68-5.15 1.6-10.27 2.65-15.36.87-4.22 1.83-8.43 2.54-12.68.16-1.02.45-2.01.77-3.35-.82.9-1.01 1.7-1.25 2.47-.73 2.37-1.39 4.78-2.11 7.16-.8 2.63-1.68 5.24-2.44 7.88-.64 2.2-1.18 4.41-1.69 6.64-.77 3.39-1.47 6.8-2.19 10.2-.14.65-.23 1.32-.34 1.99-.39 2.25-.89 4.5-1.13 6.76-.42 3.87-.68 7.76-.99 11.64-.15 1.97-.27 3.93-.4 5.9-.3 4.2-.12 8.41.19 12.6.22 3 .58 6 .89 8.99.04.34.15.68.22 1.03l.22-.02zm.76.97c.16-1.28.31-2.56.49-3.84l3.17-22.7.44-2.92 4.39-31.18c.8-5.66 1.4-11.34 1.76-17.05.07-1.08.04-2.16.05-3.24h-.08c-.31 1.57-.61 3.15-.93 4.72l-2.22 10.84c-.09.4-.19.8-.26 1.21a380.19 380.19 0 00-3.6 25.15c-.23 2.17-.62 4.32-.87 6.49-.46 4.18-.9 8.36-1.31 12.55-.28 2.9-.55 5.8-.72 8.7-.18 3.2-.25 6.42-.37 9.64-.02.54-.03 1.09.06 1.63zm.59 5.56c.63-3.37 1.31-6.73 1.87-10.1.46-2.77.86-5.55 1.17-8.34.48-4.44.85-8.9 1.31-13.33.36-3.46.71-6.93 1.19-10.38.76-5.45 1.67-10.88 2.43-16.34.36-2.62.54-5.26.8-7.9l-.15-.04-.14.76-3.77 26.54c-1.02 7.2-2.02 14.4-3.12 21.6-.49 3.18-.97 6.36-1.21 9.58-.18 2.33-.51 4.65-.76 6.97-.06.66-.05 1.33.18 2.02l.2-1.04zm-1.76 2.3c.03.13.13.25.2.37.24-2.37.26-4.73-.23-7.09-1.08-5.15-1.37-10.39-1.62-15.63-.3-6.4.15-12.76.87-19.12.16-1.44.2-2.9.33-4.35.43-4.76 1.27-9.46 2.31-14.13.67-2.99 1.15-6.02 1.86-9 .71-2.92 1.57-5.8 2.41-8.7.83-2.84 1.75-5.65 2.55-8.5a40.6 40.6 0 012.32-6.43c.18-.37.38-.75.46-1.15.07-.32-.02-.67-.28-1.05-.31.63-.63 1.27-.92 1.91-1.95 4.26-3.4 8.7-4.78 13.17a274.32 274.32 0 00-3.24 11.21c-.7 2.6-1.12 5.28-1.77 7.9-1.39 5.57-2.09 11.24-2.72 16.92-.27 2.42-.19 4.87-.27 7.31l-.17 5.3c-.27 7.94-.12 15.88 1.11 23.76.38 2.46 1.03 4.87 1.58 7.3zm-1.2-66.07a109.63 109.63 0 00-3.54 18.5c-1.15 10.87-.47 21.67 1.34 32.42.07.42.25.82.38 1.23l-.08-2.4c-.08-3.37-.22-6.74-.21-10.1a409 409 0 01.3-14.02c.09-2.43.43-4.86.71-7.28.19-1.65.53-3.28.7-4.94.41-3.73 1.38-7.34 2.21-10.99.56-2.42 1.06-4.87 1.73-7.27.93-3.35 1.98-6.66 3.02-9.98.7-2.22 1.47-4.41 2.14-6.65-.69.87-1.22 1.84-1.67 2.85-2.69 6.08-5.21 12.23-7.03 18.63zm-14.46 8.8a48.17 48.17 0 005.75-6.54c3.95-5.47 7.94-10.9 11.9-16.37a47.58 47.58 0 002.5-3.76c.47-.8.76-1.73 1.13-2.6-.25.28-.52.55-.73.87a276.49 276.49 0 01-18.37 25.12c-1 1.21-1.91 2.5-2.86 3.75.24-.15.48-.28.68-.47zm-9.58 17.3c-.39 1.95-.4 3.9-.07 5.85l.07-5.84zm-.79-.4h-.16l-3.26 15.56c-.17.81-.28 1.64-.39 2.46a95.23 95.23 0 01-2.84 13.24 93.77 93.77 0 00-2.31 10.34c-.49 2.99-1.25 5.9-1.98 8.81-.82 3.33-1.63 6.66-2.46 9.98-.48 1.92-.99 3.83-1.47 5.74-.21.84-.35 1.7-.3 2.63.16-.3.34-.6.48-.92a74.09 74.09 0 003.32-9.4c1.15-3.87 2.41-7.72 3.52-11.62.71-2.5 1.25-5.04 1.81-7.57.75-3.4 1.54-6.8 2.17-10.22.88-4.8 1.77-9.6 2.19-14.49.26-2.94.66-5.88 1-8.82l.68-5.72zm-8.68 60a94.87 94.87 0 006.62-17.96c.73-2.97 1.3-5.98 1.89-8.99.4-2.03.75-4.08 1.04-6.14.94-6.68.73-13.37 0-20.05-.01-.13-.08-.26-.13-.39-.2 3.1-.35 6.18-.61 9.27-.35 4.03-.76 8.06-1.18 12.1-.3 2.84-.67 5.67-.98 8.51a40.52 40.52 0 01-1.51 7.48c-.37 1.18-.59 2.42-.83 3.64-.35 1.8-1.11 3.45-1.83 5.12-1.31 3.05-2.55 6.14-3.8 9.21-.12.3-.16.65-.22.98.52-.93 1.08-1.83 1.54-2.79zm-4 6.76c1.1-2.64 2.12-5.3 3.19-7.95.84-2.07 1.66-4.15 2.6-6.17a29.66 29.66 0 002.12-6.34c.37-1.67.83-3.32 1.19-5 .29-1.31.54-2.65.71-3.98.63-4.95 1.28-9.9 1.8-14.87.41-3.92.64-7.86.94-11.8.1-1.34.13-2.69-.05-4.07-.08.5-.19 1-.24 1.51-.33 3.1-.63 6.2-.95 9.3-.04.42-.06.84-.13 1.25-.83 4.6-1.39 9.24-2.5 13.8-.73 2.97-1.23 6-1.92 8.98-.57 2.48-1.21 4.95-1.94 7.38a381.28 381.28 0 01-4.14 13.23c-.89 2.65-2.05 5.2-3.08 7.81l-.66 1.66a15.66 15.66 0 003.06-4.74zm-3.7 3.66c.39-3 1.29-5.89 2.01-8.81.57-2.32 1.08-4.66 1.66-6.97.69-2.77 1.43-5.53 2.14-8.3.16-.6.32-1.2.41-1.82.63-4.22 1.49-8.4 2.57-12.52.29-1.1.67-2.18.97-3.28a92.52 92.52 0 002.33-12.25c.01-.15-.01-.3-.02-.45l-.18.03c-.56 1.94-1.08 3.9-1.69 5.82a52.71 52.71 0 01-1.65 4.53 87.6 87.6 0 00-4.67 14.84l-1.95 8.82c-.2.91-.33 1.84-.47 2.77l-2.81 18.8c-.14.97-.2 1.95-.22 2.95a9.37 9.37 0 001.57-4.16zm14.71-70.74a111.45 111.45 0 00-10.72 25.67 143.18 143.18 0 00-4.66 24c-.26 2.42-.55 4.85-.79 7.28a41.76 41.76 0 00-.14 4.03c.36-1.71.72-3.43 1.06-5.14.71-3.62 1.35-7.25 2.13-10.86.91-4.2 1.76-8.43 3.02-12.56.38-1.24.61-2.52.84-3.8.77-4.37 2.31-8.5 3.85-12.64 1.16-3.11 2.27-6.25 3.42-9.36.22-.57.57-1.08.86-1.62-.14.5-.27 1-.45 1.48-1.92 5.38-3.9 10.73-5.74 16.13-.7 2.06-1.1 4.21-1.62 6.33-.51 2.06-1 4.13-1.5 6.2-.36 1.46-.73 2.91-1.06 4.38-.45 1.92-.86 3.84-1.29 5.77l-.2 1.07-1.48 7.16-.11.46c-.69 4.36-1.65 8.67-2 13.09-.14 1.75-.04 3.5.24 5.27.08-.54.18-1.08.25-1.62.54-4.38 1.06-8.77 1.63-13.15.64-4.9 1.59-9.73 2.67-14.55.95-4.26 2.11-8.46 3.55-12.58.28-.78.55-1.57.9-2.32a59.94 59.94 0 003.46-9.83c1.01-3.7 2.15-7.37 3.16-11.08.5-1.83.82-3.7 1.28-5.8l-.74.9.7-3c-.18.23-.38.44-.52.69zm2.36-.79l1.11-4.89c-.94 1.02-1.02 1.32-1.11 4.9zm-9.49.64c-.98.62-1.95 1.25-2.94 1.85-.34.2-.74.31-1.1.47 1.02-.78 2.02-1.57 3.06-2.31 2.57-1.82 5.15-3.6 7.73-5.4.64-.17 1.17-.52 1.59-1.03l-1.65.94c-.37.17-.78.3-1.12.51-3.66 2.36-7.32 4.73-10.96 7.13-.5.33-.91.82-1.3 1.3-.13.14-.06.46-.08.7-1.26 1.32-2.12 2.9-3.02 4.47-.01.03.04.1.12.24.91-.78 1.81-1.53 2.68-2.3 2.2-1.98 4.39-3.97 6.57-5.96.17-.17.29-.4.42-.6zm-3.98-10.89c.96-3.12 2.28-6.14 3.21-9.27 1.36-4.59 3.13-9.03 4.54-13.6 1.19-3.82 2.83-7.48 4-11.3a74.84 74.84 0 002.39-9.68c.39-2.35.85-4.7 1.15-7.07.44-3.4.77-6.82 1.14-10.23.04-.4.06-.82.09-1.3-.89 3.28-1.77 6.43-2.59 9.6-.57 2.2-1.16 4.42-1.56 6.67a101.1 101.1 0 01-5.38 18.53c-1.87 4.9-3.9 9.74-5.62 14.7-1.9 5.49-3.75 11-5.08 16.68-.21.86-.29 1.74-.43 2.61l-1.28 7.85c-.03.19-.05.37-.02.56 1.89-4.89 3.9-9.72 5.44-14.74zm3.94 13.2c-.79.65-1.57 1.3-2.37 1.93-.43.33-.9.62-1.34.93-.36.42-.67.89-1.07 1.27-2.9 2.75-5.91 5.4-8.72 8.24a225.76 225.76 0 00-13.36 14.82c-3.81 4.6-7.84 9.01-11.76 13.53-2.25 2.58-4.48 5.2-6.69 7.81-.34.4-.57.9-.85 1.35.78-.72 1.58-1.42 2.33-2.16a528.3 528.3 0 0019.48-20.2 160.7 160.7 0 015.37-5.64c4.23-4.25 7.91-8.96 11.76-13.53 1.74-2.06 3.56-4.06 5.33-6.1.64-.74 1.26-1.5 1.89-2.25zm-12.68 6.73c-.28.19-.59.36-.86.58-3.22 2.63-6.48 5.22-9.64 7.92a49.32 49.32 0 00-4.55 4.48c-2.71 3.02-5.43 6.03-7.94 9.2a107.77 107.77 0 00-8.88 13.18c-1.31 2.3-2.82 4.48-4.23 6.72-.27.42-.51.85-.77 1.27 5.94-7.25 11.75-14.57 17.97-21.56 6.22-6.99 12.67-13.75 19.71-19.7l-.81-2.09zM1776 189.77h.01c.43-.28.88-.53 1.3-.83 4.72-3.25 9.01-7.03 13.26-10.86 4.9-4.43 9.66-9 14.28-13.73 4.34-4.42 8.04-9.39 11.68-14.4 1.59-2.17 3.23-4.32 4.82-6.5 1.14-1.54 2.24-3.11 3.36-4.67l.34-.62.35-.57a.36.36 0 01-.26-.03c-.06-.04-.12-.1-.19-.12-.02 0-.07.05-.1.07-.12.1-.24.2-.37.28l-.38.59c-.29.2-.62.37-.86.62-.64.67-1.29 1.36-1.86 2.09a296 296 0 01-18.03 20.6 737.25 737.25 0 01-22.36 22.97c-.34.33-.93.57-.71 1.24-.26.3-.49.64-.8.88-.76.61-1.58 1.16-2.33 1.78-.43.34-.77.8-1.14 1.2l-.01.01zm-1.47-.28c1.69-1.79 3.43-3.53 5.05-5.37 4.68-5.35 9.32-10.74 13.97-16.12 2.18-2.52 4.38-5 6.48-7.58a232.5 232.5 0 0112.33-13.63l.29-.33c-.13 0-.24-.1-.29-.22l-.05.04c-8.71 7.75-16.51 16.37-23.88 25.37-4.34 5.3-8.54 10.72-12.79 16.1-.42.53-.74 1.15-1.11 1.74zm38.62-49.85c-4.95 3.62-9.94 7.18-14.4 11.42a93.93 93.93 0 00-19.17 25.92c-1.5 2.97-2.98 5.94-4.46 8.92-.13.26-.19.54-.28.82.13-.13.28-.25.37-.4l7.64-12.5c3.58-5.85 7.47-11.49 12.18-16.51 1-1.06 1.9-2.21 2.93-3.24 1.88-1.86 3.75-3.75 5.77-5.46 3.29-2.77 6.71-5.4 10.18-8.17l-.1-1.13c-.29.15-.49.21-.66.33zm21.23-79.27c-2.61 4.97-4.7 10.18-6.91 15.33a138.51 138.51 0 00-7.12 20.58l-.51 1.95c-.04.15-.02.3-.03.66 6.23-12.84 10.69-26.15 15.13-39.49-.18.32-.39.64-.56.97zm-.51 4.34c-1.74 4.94-3.43 9.9-5.24 14.82a265 265 0 01-8 18.92c-.39.85-.74 1.72-1.09 2.59a19.14 19.14 0 00-1.33 5.1c-.27 2.43-.59 4.85-.89 7.27-.03.28-.05.57.11.88.13-.37.29-.75.38-1.13 1.74-7.22 3.69-14.39 6.54-21.26 1.39-3.35 2.97-6.63 4.58-9.89a50.53 50.53 0 003.38-8.69c.94-3.3 1.87-6.6 2.76-9.9.42-1.59.76-3.2 1.14-4.8a5.69 5.69 0 01-.2-.06c-.71 2.05-1.41 4.1-2.14 6.15zm3.95-10.56c-.79 3.23-1.5 6.48-2.31 9.7-.72 2.92-1.55 5.82-2.3 8.74a42.74 42.74 0 01-3.26 8.9c-.67 1.3-1.31 2.6-1.97 3.9a82.76 82.76 0 00-5.45 13.07c-1.46 4.77-2.93 9.53-4.16 14.36a58.53 58.53 0 00-1.84 12.79c-.04 1.55-.31 3.1-.42 4.66-.22 2.8-.39 5.6-.57 8.4-.02.24 0 .5.01.75l.32.04c.06-.28.13-.56.17-.84l.69-5.25c.11-.77.28-1.53.37-2.3.52-4.62 1.57-9.11 3.01-13.53 1.49-4.59 2.83-9.23 4.65-13.72 1.78-4.38 3.47-8.79 5.15-13.2a83.92 83.92 0 003.98-13.93c.77-4.03 1.77-8 2.92-11.95a56.06 56.06 0 001.9-8.99c.22-1.85.57-3.68.87-5.55a11.24 11.24 0 00-1.76 3.95zm1.83.87c.04-.22.09-.43.12-.65l.34-2.68-.14-.02-.42 3.32.1.03zm1.24-4.01c-.57 4.01-1.15 8.02-1.69 12.04-.22 1.64-.32 3.3-.53 4.95-.31 2.42-.64 4.84-1.02 7.25-.3 1.85-.68 3.68-1.06 5.51a78.53 78.53 0 01-3.35 11.34c-.84 2.24-1.54 4.52-2.32 6.78-1.14 3.28-2.32 6.55-3.46 9.84-1.52 4.36-3.04 8.73-4.5 13.1-1.09 3.26-2.11 6.53-3.49 9.68-.15.34-.2.74-.28 1.11.41-.61.84-1.22 1.23-1.85a52.05 52.05 0 003.86-7.47c1.1-2.63 2.41-5.18 3.48-7.82.94-2.32 1.91-4.6 3.1-6.8a31.84 31.84 0 002.61-6.33c.73-2.54 1.65-5.03 2.44-7.55a61.22 61.22 0 002.03-10.4c.39-2.93.7-5.88 1.06-8.82.54-4.33 1.25-8.65 1.61-13 .31-3.76.89-7.53.64-11.34-.04-.72.07-1.45-.04-2.2l-.32 1.98zm-15.87 72.94c1.08-2.08 2.19-4.13 3.22-6.22a202.08 202.08 0 009.34-22.42c.86-2.44 1.41-5 1.98-7.53a127.16 127.16 0 002.35-15.4c.21-2.22.18-4.47.16-6.7-.01-2.64-.13-5.3-.21-7.94-.02-.4-.1-.81-.27-1.22-.14 1.99-.25 3.98-.42 5.96-.12 1.45-.23 2.9-.49 4.33a84.28 84.28 0 00-1.13 8.97 130.9 130.9 0 01-1.9 14.2c-.72 3.96-2.11 7.71-3.24 11.54a54.63 54.63 0 01-3.69 8.9c-.77 1.53-1.37 3.15-2.05 4.72-.79 1.8-1.57 3.62-2.37 5.42-.49 1.08-1.01 2.15-1.52 3.23l.24.16zm17.4-76.26c-.18 1.92-.3 3.85 0 5.76.72 4.68.76 9.4.86 14.14.1 4.8-.62 9.52-1.42 14.24a83.54 83.54 0 01-2.41 10.63c-.9 2.92-1.99 5.8-3.14 8.63a266.32 266.32 0 01-12.05 25.49 57.51 57.51 0 00-2.92 6.37c.59-.4 1.17-.82 1.79-1.19 3.65-2.2 7.31-4.37 10.96-6.57 1.33-.81 2.64-1.66 3.94-2.51.3-.2.59-.45.82-.72 1.22-1.41 2.45-2.82 3.63-4.27 4.9-6.07 9.44-12.4 13.91-18.8a307.18 307.18 0 0017.12-27.69c4.47-8.1 9.14-16.08 13.76-24.1 1.29-2.25 2.72-4.42 4.13-6.6 4.36-6.71 8.75-13.4 13.12-20.1.18-.29.31-.6.46-.91-.45.4-.95.76-1.34 1.2-2.33 2.7-5.11 4.88-7.9 7.05a153.39 153.39 0 01-12.5 8.78l-8.44 5.32a43 43 0 01-7.95 3.94c-4.63 1.72-9.26 3.4-13.89 5.12-.97.37-1.92.8-2.88 1.2l-.93.35c-.51-.23-.58-.55-.41-.94.06-.14.16-.26.25-.39a91.16 91.16 0 0112.03-13.46 58.38 58.38 0 0111.13-7.71c5.18-2.8 10.67-4.87 16.26-6.73 3.3-1.1 6.58-2.27 9.82-3.52 1.5-.58 2.9-1.39 4.31-2.16.49-.26.86-.72 1.29-1.08.56-.46 1.08-.99 1.69-1.37 4.31-2.73 7.86-6.3 11.15-10.13 1.29-1.5 2.46-3.09 3.73-4.6.52-.64 1.2-1.15 1.74-1.77a208.52 208.52 0 0116.81-16.9 305.12 305.12 0 0126.62-21.62 246.1 246.1 0 0119.88-12.87c2.24-1.32 4.46-2.67 6.68-4.02.24-.15.44-.36.66-.54-.67.17-1.36.3-2.01.53-1.77.6-3.52 1.26-5.28 1.88a57.9 57.9 0 00-8.68 3.87 48.33 48.33 0 01-7.48 3.5c-5.66 1.97-10.99 4.63-16.25 7.5-6.76 3.67-13.52 7.35-20.08 11.36a410.97 410.97 0 00-23.37 15.27c-6.61 4.69-13.19 9.43-19.74 14.2a212.95 212.95 0 00-14.28 11.6c-2.32 2.01-4.71 3.93-6.97 6a533.24 533.24 0 00-11.11 10.5c-4.36 4.24-8.62 8.58-12.95 12.85a4.8 4.8 0 00-1.6 3.1c-.08.97-.48 1.92-.57 2.9zm-72.95 123.85c3.18-5.3 6.33-10.62 8.56-16.42 2-5.2 3.73-10.47 5.03-15.88 1.21-5.06 2.54-10.08 3.66-15.15.77-3.44 1.27-6.95 1.79-10.45-.81 1.48-1.2 3.1-1.68 4.68-1.23 4.07-2.42 8.16-3.61 12.25-.36 1.25-.66 2.51-.97 3.77-.76 3.08-1.47 6.16-2.26 9.23-.6 2.36-1.13 4.77-1.99 7.04-1.84 4.85-3.86 9.64-5.85 14.44-.81 1.96-1.74 3.88-2.61 5.83-.13.3-.23.64-.35.96.11-.1.21-.19.28-.3zm15.23-49l-.24 1.18.47-1.1-.23-.07zm-21.41 57.85c3.56-5.14 6.27-10.74 8.66-16.5 1.88-4.55 3.72-9.12 5.4-13.74.89-2.43 1.41-4.99 2.08-7.5.5-1.84 1.02-3.7 1.49-5.55.38-1.5.66-3.04 1.05-4.54.46-1.76 1.01-3.5 1.5-5.24.16-.6.28-1.2.42-1.81-.48 1.14-.98 2.27-1.41 3.43-1.59 4.34-3.22 8.66-4.71 13.04-2.01 5.9-4.16 11.74-6.3 17.6-1.57 4.29-3.38 8.48-5.25 12.65-1.33 2.99-2.57 6.02-3.85 9.03-.06.12-.07.26-.1.4.34-.43.71-.83 1.02-1.27zm-4.27 6.3c1.31-2.47 2.54-5 3.68-7.55 1.74-3.88 3.45-7.78 5.04-11.72a445.9 445.9 0 005.25-13.66c1.9-5.17 3.7-10.37 5.54-15.55 2.01-5.68 4.05-11.34 6.04-17.02 1.55-4.46 3.04-8.94 4.56-13.4.35-1.04.49-2.1.41-3.2-.47 1.46-.88 2.96-1.43 4.4a192.9 192.9 0 01-2.99 7.36c-2.78 6.43-5.61 12.84-8.41 19.26-1.35 3.09-2.8 6.14-4.03 9.28-3.04 7.78-6.07 15.57-8.95 23.42-2.57 7-4.94 14.1-7.4 21.16-.12.37-.16.77-.23 1.16a13.7 13.7 0 002.92-3.94zm-2.11-.45c1.85-5.4 3.56-10.86 5.56-16.21 3.5-9.39 7.02-18.78 10.84-28.04 3.56-8.64 7.49-17.13 11.32-25.66 1.77-3.94 3.22-7.99 4.46-12.12.45-1.5.94-2.97 1.4-4.46.08-.27.13-.55-.03-.93l-.94 1.56c-2.8 4.87-5.19 9.94-7.16 15.2-.21.57-.57 1.08-.86 1.61.39-1.17.76-2.36 1.19-3.52a92.39 92.39 0 014.67-10.42c-.31.29-.67.55-.91.9-1.05 1.54-2.15 3.07-3.05 4.7-3.29 5.88-6.66 11.74-9.43 17.9a445.6 445.6 0 00-6.72 15.74c-1.27 3.18-2.23 6.47-3.31 9.72-1.18 3.55-2.37 7.09-3.5 10.65-.7 2.22-1.3 4.47-1.93 6.72-.07.24-.07.5.07.8.6-1.78 1.14-3.57 1.82-5.32 1.87-4.84 3.8-9.66 5.72-14.47 2.08-5.21 4.49-10.27 6.94-15.3.16-.32.4-.6.6-.88-.24.67-.43 1.38-.74 2.03a341.49 341.49 0 00-11.14 26.57c-1.66 4.42-2.98 8.96-4.35 13.48-.48 1.58-.7 3.25-.96 4.9-.48 3.07-.91 6.15-1.12 9.3.52-1.48 1.05-2.96 1.56-4.45zm7.5-52.46a66.65 66.65 0 00-6.4 15 97.34 97.34 0 00-3.22 14.92 888.9 888.9 0 00-.94 7.26c-.06.5-.06 1 0 1.52.56-3.06 1.15-6.12 1.66-9.2a115.83 115.83 0 013.72-15.77.15.15 0 01-.04-.17c1.68-5.08 3.78-9.99 6.17-14.76a.7.7 0 00.04-.14c-.33.45-.71.87-.99 1.34zm3.82-5.81c-.93 1.73-1.75 3.53-2.63 5.28-.12.25-.27.49-.42.72a166.86 166.86 0 00-4.59 10.75 122.09 122.09 0 00-3.8 14.66c-.09.46-.19.91-.27 1.37l-1.99 11.04c-.11.62-.19 1.24-.29 1.85-.38 2.26-.8 4.5-1.1 6.77-.21 1.59-.24 3.2-.23 4.82.49-2.94 1.01-5.87 1.46-8.81.59-3.97 1.59-7.84 2.58-11.71.69-2.72 1.37-5.44 2.13-8.14a473.4 473.4 0 013.62-12.25c1.13-3.61 2.24-7.24 3.83-10.7 2.17-4.71 4.34-9.44 6.99-13.91.21-.36.36-.75.53-1.13a78.58 78.58 0 00-5.82 9.39zm6.61-9.22c-2.65 4.12-4.66 8.57-6.75 12.99a97.06 97.06 0 00-4.82 12.98c-1.25 4.07-2.53 8.14-3.64 12.25-1.27 4.65-2.39 9.35-3.55 14.04-.91 3.63-1.52 7.32-2.07 11.03-.37 2.51-.81 5.02-1.18 7.54-.25 1.64-.11 3.3-.12 4.94l.39.11c.13-.37.32-.72.38-1.1.7-4.36 1.29-8.74 2.09-13.08.57-3.11 1.35-6.2 2.14-9.26.8-3.11 1.68-6.2 2.62-9.28 1.45-4.76 3.03-9.5 4.48-14.26 1.81-5.94 4.55-11.49 6.9-17.2 2.3-5.58 5.23-10.85 8.07-16.16.98-1.84 1.99-3.65 2.99-5.47 1.81-3.3 4.18-6.2 6.39-9.22.55-.75 1.04-1.55 1.53-2.35.26-.42.46-.89.81-1.58-.93.42-1.37.97-1.81 1.53-5.34 6.91-10.14 14.2-14.85 21.55zm-45.28 33.74a72.52 72.52 0 00-12.16 19.8c-.06.14-.06.3-.15.76.36-.62.58-.96.76-1.3 3.5-6.8 7.65-13.2 12.11-19.39.16-.23.27-.49.4-.74-.32.29-.68.55-.96.87zm.66.77c-6.56 8.82-12.24 18.18-16.14 28.51-.86 2.28-1.39 4.68-2.03 7.03-.34 1.24-.6 2.51-.71 3.85l.56-1.12c1.29-2.72 2.52-5.47 3.88-8.16 1.74-3.42 3.57-6.8 5.39-10.18a68.68 68.68 0 012.06-3.49c.18-.29.48-.5.73-.75-.15.37-.26.77-.46 1.13-1.18 2.13-2.41 4.22-3.56 6.37a295.7 295.7 0 00-4.81 9.22c-1.17 2.37-2.19 4.81-3.25 7.22-.12.27-.16.56-.22.85.27-.35.57-.68.8-1.05 3.73-5.93 7.43-11.88 11.19-17.8 1.14-1.79 2.43-3.49 3.64-5.24 2.9-4.18 5.79-8.37 8.7-12.54 3.54-5.06 7.1-10.11 10.68-15.15a89.6 89.6 0 005.15-8.16c.9-1.63 1.88-3.22 2.74-4.95-.23.22-.48.4-.68.65l-9.74 11.95-4.75 5.78c-.22.26-.54.43-.81.65.29-.48.53-1 .87-1.42l13.03-16.24c.15-.18.24-.4.36-.6-.45.3-.94.57-1.33.93-7.67 7.04-15.06 14.35-21.29 22.71zm-14.4 35.33a36.91 36.91 0 005.01-5.57c4.33-6.02 8.68-12.03 12.94-18.1a134.7 134.7 0 005.23-8.1c2.31-3.88 4.49-7.83 6.71-11.75.26-.46.41-.98.6-1.47a511.96 511.96 0 00-14.07 20.02 117.82 117.82 0 01-3.41 4.83c-4.15 5.59-7.81 11.5-11.46 17.4-.55.9-1.04 1.83-1.55 2.74zm-45.12-65.75c-.34-.02-.69 0-1.09.18.31.13.61.28.92.38 4.44 1.47 8.88 2.9 13.3 4.42 1.96.67 3.84 1.58 5.9 1.92.19.03.34.21.51.33l-1.37-.18c1.3.9 2.79 1.25 4.24 1.71a69.91 69.91 0 0013.24 2.75c2.28.26 4.54.39 6.83.2 2.28-.19 4.56-.31 6.84-.49 2.44-.19 4.81-.74 7.16-1.4.13-.03.24-.13.53-.3-2.31.1-4.43.2-6.55.27l-9.48.34c-.47.01-.94 0-1.4-.04l-10.38-.97c-.73-.06-1.45-.1-2.18-.1a16.77 16.77 0 01-5.17-1.02c-.08-.03-.14-.14-.2-.22.66.13 1.31.28 1.98.4.97.17 1.94.36 2.92.45 1.23.13 2.48.14 3.72.24 2.9.23 5.8.55 8.7.73 1.76.1 3.53.03 5.29.02.13 0 .26-.09.39-.15l-10.96-.89a38.47 38.47 0 01-9.91-1.92c-1.6-.57-3.33-.81-4.96-1.33-3.46-1.08-6.92-2.2-10.35-3.39a32.47 32.47 0 00-8.47-1.94zm6.16.46c2.9.97 5.78 1.99 8.7 2.9 2.62.82 5.28 1.52 7.92 2.29 1.35.39 2.68.83 4.03 1.2 2.87.78 5.83 1 8.77 1.3 2.68.29 5.39.39 8.08.59 3.23.24 6.43-.08 9.6-.63 2.51-.43 5.02-.86 7.52-1.31a36.7 36.7 0 006.72-1.87c-2.56.28-4.76.6-6.97.75-5.55.36-11.1.48-16.65.19-.93-.05-1.86-.2-2.79-.33-3.7-.54-7.41-1.01-11.09-1.64-3.78-.66-7.55-1.41-11.37-1.86-.92-.1-1.82-.4-2.72-.65a27 27 0 00-9.75-.93zm-3.68-.83c1.65.07 3.3.17 4.95.22 2.86.06 5.69.37 8.47 1.1 1.6.41 3.24.7 4.88 1 2.5.44 5.01.84 7.52 1.27.66.1 1.33.23 1.99.32 4.23.55 8.45 1.08 12.68 1.65 3.05.4 6.11.26 9.17.17 3.95-.12 7.89-.18 11.81-.69a64.99 64.99 0 0016.12-4.07c.09-.04.17-.1.25-.17-.73-.22-.73-.22-1.5-.09-3.79.63-7.57 1.28-11.37 1.87-3.79.59-7.58 1.24-11.43 1.35-1.2.04-2.4.06-3.58-.02-4.36-.3-8.71-.57-13.05-1-2.58-.25-5.13-.76-7.69-1.19-2.36-.39-4.71-.8-7.06-1.23-1.53-.28-3.05-.61-4.58-.9a36.9 36.9 0 00-8.23-.46c-2.9.1-5.81.28-8.71.43-.2.01-.4.07-.6.1l-.04.34zm71.81.42l2.23-.04c-.77-.36-1.52-.42-2.23.04zm-46.85-1.96a23.2 23.2 0 00-6.79-.6c-2.7.1-5.39.21-8.09.3h-.02c-.63.1-1.26.22-1.88.33.44.09.84.02 1.23 0 .47-.02.94.03 1.4 0 3.56-.12 7.04.5 10.49 1.25l1.53.3c3.52.63 7.04 1.33 10.58 1.88 2.05.31 4.13.4 6.2.56 2.8.22 5.61.31 8.39.6 3.86.4 7.68.2 11.49-.32 2.58-.36 5.14-.75 7.71-1.13.29-.05.58-.13.85-.44-.71-.02-1.42-.1-2.12-.04-3.06.27-6.11.17-9.17-.05-4.3-.32-8.61-.5-12.9-.82-3.32-.24-6.62-.6-9.93-.89-1.45-.13-2.9-.18-4.34-.32-1.55-.16-3.14-.22-4.63-.6zm14.56-5.65c1.92.02 3.83.21 5.75.36.93.08 1.85.23 2.78.3a70.2 70.2 0 00-15.33-2.18c-8.5-.19-16.76 1.25-24.96 3.23-1.32.31-2.58.84-3.86 1.28.62-.08 1.25-.13 1.87-.26a124.48 124.48 0 0118.65-2.6c1.86-.12 3.73 0 5.6-.01 3.17-.03 6.34-.14 9.5-.12zm-2.25.57c-3.63.1-7.27-.02-10.9.04-2.12.03-4.25.17-6.37.4-6.04.63-12.05 1.53-17.96 3.02-2.11.53-4.21 1.12-6.38 1.7 1.17.66 1.73.74 3.07.47l4.11-.81-.01.32.94-.2c1.1-.09 2.2-.2 3.3-.27.56-.04 1.13-.02 1.69-.02l.26-.05c.59-.2 1.19-.27 1.79-.3.07 0 .14-.02.2-.03.05 0 .08 0 .12.03.51-.01 1.03 0 1.54-.04 2.28-.16 4.57-.17 6.85-.27 1.99-.08 3.93.25 5.87.65 1.16.23 2.35.35 3.54.47a432.18 432.18 0 0012.88 1.06c4 .26 7.99.49 11.98.73 2.85.17 5.7.34 8.56.4-2.22-.9-4.58-1.19-6.9-1.6-4.81-.85-9.62-1.67-14.45-2.45-2.82-.45-5.65-.93-8.49-1.13-2.64-.19-5.3-.06-7.95.03-3.94.13-7.88.4-11.78 1.03-.3.05-.62 0-.93 0 .48-.16.96-.37 1.45-.45a95.73 95.73 0 0113.65-1.11c2.23-.05 4.47-.03 6.7.05 1.19.04 2.38.22 3.56.4 1.43.22 2.86.5 4.29.77 3.22.59 6.43 1.19 9.65 1.77 1.13.2 2.26.4 3.39.52 2.75.3 5.43.88 8.11 1.52 2.58.62 5.14.4 7.71-.33-.38-.07-.76-.13-1.13-.21-4.1-.92-8.22-1.8-12.3-2.79-1.31-.31-2.51-1-3.81-1.38-1.8-.5-3.62-.94-5.45-1.29a47.9 47.9 0 00-10.4-.65zm17.73 1.8a14.5 14.5 0 006.23 1.81l-6.23-1.82zm24.11 4.13l-11.78-.84-.01.03 5.69.86c.77.1 1.55.17 2.31.3 1.25.19 2.47.21 3.79-.35zm-2 2.77c-4.84 1.56-9.68 3.13-14.55 4.61-1.63.5-3.33.81-5.01 1.13-2.96.55-5.93 1.03-8.9 1.55a1.4 1.4 0 00-.52.16c11.69.31 22.29-3.56 32.62-8.44l-.13-.3c-1.17.43-2.32.9-3.51 1.29zm6.49-.13c-2.1 1.94-4.17 3.9-6.24 5.86-.13.12-.2.3-.29.46.92-.72 1.83-1.44 2.74-2.18.89-.71 1.82-1.39 2.62-2.19.75-.74 1.36-1.6 2.02-2.43-.29.15-.62.26-.85.48zm-43.92 69.69a52.85 52.85 0 0010.51-10.58c2.83-3.79 5.68-7.56 8.44-11.4 1.66-2.32 3.21-4.72 4.74-7.13 1.39-2.2 2.68-4.45 4.03-6.67 1.6-2.62 3.09-5.29 4.37-8.08.39-.85.83-1.68 1.27-2.5 2.8-5.16 5.63-10.3 8.41-15.47 1.27-2.37 2.44-4.8 3.66-7.2l-.29-.13c-1.37 2.25-2.8 4.48-4.1 6.77-3.56 6.29-7.06 12.6-10.57 18.9a195.58 195.58 0 01-11.89 18.65c-3.3 4.6-6.58 9.22-9.89 13.82-.6.84-1.23 1.67-1.93 2.44-1.97 2.2-4 4.37-5.97 6.58a8.26 8.26 0 00-1.48 2.41c.23-.13.47-.25.69-.41z" fill="#fff"/><path d="M1751.95 85.4l.03.02h-.05l.02-.03zM1824.31 40.9h.08l-.07.02-.01-.03zM1904.63 66.48a243.72 243.72 0 011.03-42.82c.03-.23.42-.2.4.04-.34 4.23-.6 8.46-.78 12.7l.11-.28-.14 1.1a423.26 423.26 0 00-.14 29.25c.01.31-.46.32-.48.01zM1840.34 38.23l.69-.25-.69.25zM1773.9 76.92c-1.44-.03-2.89-.1-4.34-.17-.15 0-.15-.24 0-.23a63.47 63.47 0 004.87.12 103.5 103.5 0 007.81-.4c.29-.02.59-.04.88-.08h.03c2.98-.34 5.94-.83 8.9-1.4.18-.03.36-.04.55-.05 1.21-.25 2.42-.52 3.62-.82.27-.07.4.35.12.42a87.63 87.63 0 01-17.77 2.56c-.69.1-1.4.12-2.1.05l-.97.02h-.15c-.48.13-.96.06-1.45-.02zM1756.03 79.07c-2.79-.77-5.58-1.5-8.38-2.16l-.12-.02.01-.01c-1.15-.27-2.29-.54-3.44-.79-3.96-.86-7.95-1.7-11.98-2.14a41.46 41.46 0 00-4.03-.25h.01l-.01.09-.36-.1c-.86 0-1.73.03-2.58.1-.16 0-.17-.24-.01-.26a40.7 40.7 0 019.38.36l-.01-.03 4.4.56-.02.13-1.33-.17c1.1.2 2.21.4 3.31.62l.01-.08 1.11.22-.02.08a206.05 206.05 0 0114.16 3.42c.07.02.11.06.14.12 1.64.2 3.28.35 4.93.4.2.01.21.32.01.32a35.3 35.3 0 01-4.95-.51c-.04.08-.12.14-.23.1zM1724.03 75.36l-1.35-.17-.01.06 1.35.17.01-.06z" fill="#fff"/><path d="M1740.84 82.43a78.7 78.7 0 01-6.75-3.25 30.02 30.02 0 00-7.19-2.8 63.03 63.03 0 00-8.68-1.16c-.17-.02-.18-.29 0-.27 2.53.17 5.07.34 7.56.8a26.7 26.7 0 017.08 2.32l.04-.06.24.2.86.44.21.1.89.42.05.05-.07-.03-.34-.16.45.23-.04-.04.04.04 1.3.67.04.02-.04-.02.05.03h-.01l.07.02.85.44.89.43.62.3.49.22.67.3c1.34.57 2.7 1.1 4.08 1.57l.47.1c-.04 0-.07 0-.11.02l1.56.49c.44-.05.84.04 1.21.32l-.26-.04.08.03.33.08-.05-.04c.77.16 1.62.03 2.27.6l.31.06c.57.04 1.14.06 1.64.35a72 72 0 003.99.66c.28.04.17.45-.1.42a56.39 56.39 0 01-14.7-3.86z" fill="#fff"/><path d="M1736.53 79.95c-.05-.05-.07-.08 0 0zM1736.53 79.95zM1735.15 79.22c.06.02.1.04 0 0zM1747.33 84.17h.07l.03.03h-.05l-.05-.03zM1941.97 77.95a75.84 75.84 0 01-11.31-17.35l-.35-.72a.84.84 0 01-.17-.37l-.24-.54a.86.86 0 01-.26-.57l-.24-.53c-.26-.3-.42-.64-.47-1.03l-.3-.74c-.32-.42-.51-.9-.6-1.41l-.37-.91a3.4 3.4 0 01-.62-1.57l-.19-.48c-.03-.03-.07-.05-.08-.08l-2.12-5.98a.33.33 0 01-.01-.17l-.24-.75a2.32 2.32 0 01-.2-.43l-.38-1.36c-.94-3-1.8-6.02-2.61-9.02l-1.16-4.25a69.96 69.96 0 01-2.69-16.33c-.01-.25.34-.25.37-.01a141 141 0 002.83 16.05l.8 2.9c1.09 4.1 2.26 8.2 3.58 12.26 2.2 6.74 4.84 13.35 8.23 19.59l1.6 2.64c.08.14.13.3.17.45l.49.8c.21.21.42.43.56.7.47.9 1.26 1.61 1.58 2.6l.63.93c.46.51.91 1.12 1.27 1.73a69.89 69.89 0 002.83 3.6c.19.23-.13.58-.33.35zM1768.25 145.66a637.7 637.7 0 0115.15-33.35c.06-.12.22-.03.17.09l-2.21 4.97.16-.2c-.07.35-.1.72-.24 1.04a174.2 174.2 0 01-1.89 4.38c-.14.31-.38.58-.58.88.05-.2.07-.42.12-.62l-1.07 2.42c.18-.32.37-.63.54-.95-.13.44-.22.9-.41 1.32-.69 1.5-1.41 3-2.13 4.5-.12.24-.3.45-.46.67l-1.36 3.06a.7.7 0 01-.18.4c-1.72 3.88-3.44 7.76-5.18 11.62-.13.3-.55.06-.43-.22zM1778.84 123.43l-.45.92.45-.92zM1828.62 43.17c1.63-.54 3.31-.97 4.97-1.42.79-.22 1.59-.44 2.36-.73.81-.3 1.59-.67 2.37-1.03.31-.14.59.3.28.45-.73.35-1.47.68-2.22.97-.82.32-1.66.53-2.51.74-1.72.43-3.44.9-5.18 1.23-.14.03-.2-.16-.07-.21zM1835.92 41.1l-.7.25.7-.25zM1917.8 62.06a76.3 76.3 0 00-1.15-6.23l-.56-2.47-.02-.08-.42-1.8a3.9 3.9 0 01-.33-1.44l-.13-.6a4.66 4.66 0 01-.49-2.27c-.52-2.5-.95-5.01-1.16-7.57-.02-.23.33-.23.36-.01.87 7.59 3.46 14.87 4.38 22.45.03.31-.44.32-.48.02zM1714.95 184.84a198.23 198.23 0 019.34-16.64c.18-.39.36-.77.6-1.12.38-.58.79-1.15 1.2-1.7.49-.78.99-1.54 1.49-2.3.05-.17.1-.34.19-.48 1.39-2.1 2.79-4.19 4.2-6.26.09-.14.25-.24.4-.34l.66-.93c.45-1 1.05-1.88 1.85-2.61l.56-.76c.52-.98 1.2-1.84 1.94-2.66 1.28-1.74 2.58-3.48 3.89-5.2.17-.22.49.08.32.3a254.14 254.14 0 00-3.38 4.54l-.26.33a299.8 299.8 0 00-17.34 26.77c-1.79 3.07-3.48 6.2-5.22 9.29-.16.27-.57.05-.44-.23z" fill="#fff"/><path d="M1727.08 164.03l.41-.61-.41.6zM1732.52 155.91l.41-.6-.41.6zM1910.64 120.24a148.49 148.49 0 01-3.97-13.38 2.86 2.86 0 01-.2-.48c-.51-1.7-1.03-3.38-1.44-5.1-1.52-6.34-3.01-12.7-4.49-19.06a43.91 43.91 0 01-1.14-8.62c-.09-2.75-.13-5.5-.34-8.24-.23-2.96-.25-5.9.17-8.84.05-.41.06-.83.09-1.24.18-2.7.32-5.39.58-8.07.22-2.32.59-4.63.89-6.94.03.66.12 1.33.07 1.99-.12 1.5-.34 3-.45 4.5-.23 3.1-.4 6.22-.63 9.32-.19 2.65-.38 5.28-.19 7.94.2 2.69.27 5.4.37 8.09.1 2.75.21 5.5.78 8.2l1.15 5.5a344.77 344.77 0 004.71 19.55c.07.02.12.06.14.14a103.05 103.05 0 001.11 3.92c1.08 3.57 2.35 7.08 3.66 10.57.2.54-.67.8-.87.25zM1909.45 115.32l-.24-.7.24.7zM1908.34 111.72l-.25-.7.25.7zM1862.69 9.08c.7-.01 1.41-.06 2.11-.12l-.27-.04c.39-.39.85-.25 1.31-.16l-.02.1c.7-.09 1.39-.18 2.07-.3.18-.02.26.24.08.28-1.74.33-3.5.44-5.27.42-.12 0-.12-.17-.01-.18zM1684.05 119.2l1.01-.2-1.01.2zM1680.84 119.74l1-.2-1 .2zM1679.87 119.93l1.01-.2-1.01.2zM1678.9 120.12l1.01-.2-1.01.2zM1677.94 120.3l1-.2-1 .2zM1676.97 120.5l1-.2-1 .2zM1672.37 121.58c1.35-.3 2.69-.56 4.04-.84l-.41-.05 1-.2-.02.1c2.25-.58 4.52-1.09 6.77-1.64.15-.03.22.14.14.23l.2.01-.11.05 3.69-.71c.12-.03.18.15.06.18-3.55.8-7.11 1.57-10.68 2.31-.78.2-1.57.38-2.36.55-.05.02-.1 0-.13-.03-.7.14-1.38.3-2.08.43-.25.05-.37-.34-.11-.4zM1935.6 44.38c-2.41-4.8-4.54-9.77-6.78-14.65-1.56-3.43-3.14-6.85-4.68-10.3a1.63 1.63 0 01-.4-.9l-.26-.61-.02.12-.25-.69h.02l-.77-1.76c1.42 7.25 5.53 13.53 7.83 20.5.09.24-.28.33-.38.1-2.5-5.97-5.8-11.78-7.39-18.1l-.37-1.06c-.08-.24-.04-.51-.06-.77h.02l-.22-1.2c-.04-.25.41-.32.45-.07.1-.09.29-.1.36.04 1.2 2.38 2.35 4.8 3.48 7.22.32.48.57.99.72 1.55l.5 1.09c.21.3.36.64.46 1l1.7 3.75c2.19 4.82 4.46 9.65 6.38 14.58.08.2-.24.35-.34.16zM1703.73 154.75l1.04-.52-1.04.52zM1680.41 162.46l.7-.25-.7.25zM1682.7 161.8l.69-.24-.69.25zM1685.64 160.92l.69-.24-.69.24zM1686.3 160.7l.69-.25-.69.24zM1686.96 160.46l.69-.24-.69.24zM1687.61 160.23l.7-.24-.7.24zM1688.27 160l.7-.25-.7.25zM1688.93 159.77l.69-.25-.69.25zM1694.2 157.93l.69-.25-.69.25zM1694.86 157.7l.69-.25-.69.25zM1698.46 156.59l.7-.25-.7.25zM1699.12 156.36l.69-.25-.69.25zM1699.78 156.13l.69-.25-.69.25zM1700.44 155.9l.69-.25-.69.25zM1701.09 155.67l.7-.25-.7.25zM1701.75 155.44l.7-.25-.7.25zM1702.41 155.2l.7-.24-.7.25z" fill="#fff"/><path d="M1703.07 154.97l.69-.24-.69.25zM1704.73 154.24l.7-.24-.7.24z" fill="#fff"/><path d="M1678.2 162.82c1.03-.13 2.06-.33 3.07-.58-.07 0-.13 0-.2-.02a2.1 2.1 0 011.66-.43l-.14.1c.35-.1.69-.22 1.03-.33-.09 0-.17.02-.27.01a3.99 3.99 0 012.22-.66l4.21-1.52 7.15-2.53.03-.01 4.76-1.69 3.7-1.3.02-.18.34.05 2.67-.95c.23-.08.33.28.1.36l-2.5.89-.01.07-.14-.02-9.43 3.34c-3.95 1.4-7.87 2.87-11.85 4.17a32.52 32.52 0 01-6.42 1.52c-.19.03-.19-.27 0-.29zM1832.84 136.35l.52-1.54-.52 1.54zM1824.99 158.19c1.77-4.4 3-8.98 4.44-13.5a79.7 79.7 0 015.07-12.72c.13-.25.5-.05.38.2-2.02 4.27-3.49 8.78-4.92 13.28a164.35 164.35 0 01-4.58 12.94c-.11.27-.49.06-.39-.2zM1888.69 26.33a188 188 0 003.36-1.69l.09-.08c1.05-.55 2.1-1.08 3.15-1.61 1.41-.76 2.81-1.52 4.21-2.3.01-.06.05-.13.14-.18a33.7 33.7 0 006.37-4.52c.41-.36 1.04.23.63.59a30.18 30.18 0 01-5.7 3.9.32.32 0 01-.17.36c-3.9 2.07-7.88 3.99-11.88 5.86-.22.1-.43-.22-.2-.33zM1764.84 134.54c-.15.3-.31.61-.45.92l.45-.92zM1764.41 135.43l-.45.92.45-.92zM1763.98 136.31l-.45.93.45-.93zM1763.55 137.2l-.45.93.45-.93zM1822.14 141.27l.76-.88-.76.88zM1821.01 142.7l.77-.88-.77.88zM1819.89 144.13l.76-.88-.76.88zM1774.95 189.69c15.5-11.57 28.23-26.04 40.64-40.75 2.89-3.43 5.63-6.98 8.48-10.44l.02-.15.38-.58.36-.28.07.01.94-1.13c.21-.24.54.09.36.33-.37.5-.75.97-1.12 1.46l-.01.02-.26.32c-2.5 3.22-5.1 6.35-7.68 9.5-3.08 3.73-6.12 7.48-9.29 11.13a305.09 305.09 0 01-3.99 4.52l-2.1 2.53c-.24.29-.57.51-.88.74l-.33.36c-.07.18-.14.37-.27.5-2.75 2.8-5.51 5.6-8.28 8.38-.15.15-.33.27-.52.38l-.92.9c-.05.06-.1.13-.16.18l-.41.36-2.23 2.09c-3.95 3.65-8.08 7.1-12.36 10.34-.43.32-.87-.4-.44-.72zM1822.88 140.42l.41-.61-.41.61zM1821.75 141.85zM1820.62 143.28l.42-.62-.42.62zM1819.5 144.7l.41-.6-.41.6zM1814.68 150.38l.42-.61-.42.61zM1813.56 151.81l.41-.61-.41.61z" fill="#fff"/><path d="M1812.43 153.24l.42-.61-.42.6zM1780.26 185.92l.38-.3-.38.3zM1780.61 185.65l.37-.3-.37.3zM1780.96 185.38l.37-.3-.37.3zM1781.31 185.1l.37-.28-.37.29zM1781.66 184.84l.37-.3-.37.3zM1852.74 49.85l3.19-1.73c.25-.25.55-.42.91-.49l.37-.2c.29-.34.67-.52 1.11-.6l.17-.08c.21-.27.47-.41.8-.43l1.86-1c.14-.07.28.14.14.22-2.77 1.58-5.55 3.12-8.33 4.67-.24.13-.47-.23-.22-.36zM1855.74 48.35l-.38.3.38-.3zM1686.63 129.26c-.12-.05-.04-.25.08-.22 1.18.4 2.36.73 3.55 1.03-.02 0-.03-.02-.05-.03.69.11 1.42.07 2.03.5 2.33.5 4.68.88 7.07 1.14.18.02.14.32-.03.3a41.8 41.8 0 01-12.65-2.72zM1817.8 137.29l3.15-1.9c.3-.28.64-.5 1.03-.62 1.96-1.19 3.92-2.38 5.86-3.61.23-.15.45.2.22.36a246.74 246.74 0 01-9.88 6.38c-.4.24-.77-.37-.38-.61zM1819.98 136.24l-.38.3.38-.3zM1820.32 135.97l-.38.3.38-.3zM1820.67 135.7z" fill="#fff"/><path d="M1867.38 245.55l-.32.36.32-.36zM1867.68 245.2l-.32.37.32-.37zM1867.99 244.85l-.32.37.32-.37zM1868.3 244.5l-.33.37.33-.37zM1868.6 244.16l-.32.36.32-.37zM1876.72 206.42a6.1 6.1 0 002.8-.24 6.74 6.74 0 00-2.81.26l.01-.02z" fill="#E4DDDD"/><path d="M1876.71 206.44a2.73 2.73 0 00-1.76.04v-.02c.59.22 1.18.15 1.77-.04l-.01.02zM1871.89 206.74c-.11.04-.05.02 0 0-.06 0-.11 0 0 0zM1872.97 206.63l-.33-.09v.14l.34-.07-.01.02zM1873.63 206.58l-.66.05.01-.02.65-.05v.02zM1873.63 206.56l.66-.04-.01.02c-.23-.2-.44-.04-.65.04v-.02z" fill="#E4DDDD"/><path d="M1874.29 206.52l.66-.06v.02l-.67.06.01-.02zM1855.39 252.89c-1 .78-1.84 1.7-2.46 2.8l2.46-2.8zM1865.36 242.79c-.98.6-1.77 1.4-2.42 2.34.92-.66 1.74-1.43 2.42-2.34zM1849.46 259.77c-.57.46-1.07.98-1.35 1.68a3.89 3.89 0 001.35-1.68zM1851.72 257.06a4.1 4.1 0 00-1.35 1.69 4.08 4.08 0 001.35-1.69zM1847.82 261.78c-.49.33-.88.74-1.04 1.33.47-.34.86-.76 1.04-1.33zM1857.11 251.07c-.5.26-.88.64-1.13 1.14.5-.26.87-.64 1.13-1.14z" fill="#E4DDDD"/><path d="M1862.95 245.11c-.51.25-.88.64-1.12 1.14.5-.25.88-.63 1.12-1.14zM1846.49 263.44c-.38.23-.65.54-.74.99.39-.23.66-.54.74-1z" fill="#E4DDDD"/><path d="M1845.76 264.4c-.39.23-.65.54-.74 1 .39-.23.65-.55.74-1z" fill="#E4DDDD"/><path d="M1845.04 265.37c-.4.22-.65.54-.74.99.39-.22.65-.54.74-1zM1842.86 268.27c-.39.22-.64.55-.74.98.39-.22.65-.54.74-.98zM1842.67 270.6c.34-.26.65-.54.74-1-.36.25-.66.54-.74 1zM1841.33 272.26c.35-.26.64-.55.74-.99-.36.25-.63.55-.74.99z" fill="#E4DDDD"/><path d="M1844.31 266.33c-.39.23-.65.55-.74 1 .39-.23.65-.55.74-1z" fill="#E4DDDD"/><path d="M1843.59 267.3c-.39.22-.65.54-.74.99.39-.22.64-.55.74-.99zM1840.15 272.05c-.31.23-.53.5-.54.91.31-.22.53-.5.54-.9zM1861.54 246.58a1.4 1.4 0 00-.82.8c.38-.16.65-.43.82-.8zM1839.2 273.56c-.31.23-.52.5-.55.9.33-.21.54-.5.55-.9zM1859.32 248.83l-.82.79c.38-.16.66-.42.82-.8zM1838.25 275.06c-.31.23-.54.5-.55.91.31-.22.55-.5.55-.9zM1860.43 247.7c-.38.16-.64.43-.82.8.38-.16.66-.42.82-.8zM1858.21 249.95l-.82.8c.38-.17.65-.43.82-.8zM1842.14 269.23c-.27.13-.44.33-.44.64l.44-.64zM1841.41 270.2l-.43.64c.26-.14.44-.33.43-.64z" fill="#E4DDDD"/><path d="M1840.99 270.82c-.26.13-.42.33-.43.64.25-.14.42-.34.43-.64zM1840.61 273.22l.43-.64-.43.64z" fill="#E4DDDD"/><path d="M1840.57 271.43a.74.74 0 00-.43.64c.26-.13.42-.33.43-.64zM1839.62 272.94a.71.71 0 00-.43.64.7.7 0 00.43-.64zM1838.67 274.44l-.44.64c.28-.12.44-.32.44-.63zM1837.3 276.57c-.29.11-.45.32-.44.64l.44-.64zM1838.13 276.47l.43-.64-.43.64z" fill="#E4DDDD"/><path d="M1837.72 275.95c-.28.12-.45.32-.44.64l.44-.64zM1861.84 246.23l-.32.37.32-.37zM1860.74 247.35l-.33.37.33-.37zM1859.63 248.48zM1858.52 249.6l-.32.37.32-.37zM1857.41 250.72l-.32.37.32-.37zM1856 252.19l-.33.37.33-.37zM1855.69 252.54l-.32.37.32-.37zM1852.94 255.67l-.32.37.32-.37zM1852.64 256.02l-.33.37.33-.37zM1852.33 256.37l-.32.36.32-.36zM1852.02 256.71l-.32.37.32-.37zM1850.38 258.72zM1850.08 259.07l-.32.37.32-.37zM1849.77 259.42l-.32.37.32-.37zM1879.02 233l.4-.17c-.21-.12-.32 0-.4.17zM1848.13 261.43zM1846.79 263.09l-.32.37.32-.37zM1844.31 268.59l.32-.37-.32.37zM1844 268.94l.33-.37-.33.37zM1843.7 269.28l.32-.37-.32.37zM1843.39 269.63l.32-.37-.32.37zM1836.79 278.13zM1837.1 277.78zM1837.51 277.16l.33-.36-.33.36zM1837.82 276.82l.32-.37-.32.37zM1838.55 275.85l.32-.37-.32.37zM1838.85 275.5l.32-.36-.32.36zM1839.27 274.88l.32-.36-.32.36zM1839.58 274.54l.32-.37-.32.37zM1840 273.92l.32-.37-.32.37zM1840.3 273.57l.32-.37-.32.37zM1842.36 270.94l.33-.36-.33.36zM1841.03 272.6zM1842.06 271.3zM1841.72 269.85zM1839.89 274.2l.12-.3-.12.3zM1839.16 275.16l.12-.3-.12.3zM1837.41 277.44l.12-.3-.12.3zM1855.63 249.66c-.21.16-.46.3-.63.5-1.4 1.57-2.79 3.15-4.17 4.74-.17.2-.27.46-.4.7.18-.16.38-.29.54-.47l4.23-4.8c.18-.2.29-.45.43-.68zM1849.1 257.23c-.51.32-.87.75-1.04 1.34.5-.33.87-.76 1.04-1.34z" fill="#E4DDDD"/><path d="M1850.13 255.92c-.49.33-.88.74-1.04 1.33a2.3 2.3 0 001.04-1.33zM1846.64 260.02l-.11.27.08.2c.41-.2.67-.52.74-.98l-.4.16-.31.35z" fill="#E4DDDD"/><path d="M1847.37 259.05l-.04.48c.41-.2.67-.52.74-.99l-.7.51zM1850.44 255.57l-.32.37.32-.37zM1875.91 238.5l-.32.37.32-.37zM1876.22 238.15zM1876.52 237.8zM1876.83 237.45l-.32.37.32-.37zM1897.61 200.61c-1.1-.07-2.21-.04-3.29.21 1.12.22 2.21.1 3.29-.2zM1899.49 200.3c-.39-.16-.72.05-1.06.2.4.15.72-.07 1.06-.2z" fill="#E4DDDD"/><path d="M1898.46 200.5c-.32-.19-.59 0-.87.11.32.17.59 0 .87-.12zM1900.69 240.28a179.98 179.98 0 0010.51-17.75l.59-1.17.07-.14.92-1.84.06-.1.99-2.02c.1-.2.4-.03.31.17a134.35 134.35 0 01-13.09 23.05c-.15.21-.51.02-.36-.2z" fill="#E4DDDD"/><path d="M1912.4 220.53l.13-.29-.13.3zM1913.39 218.57l.12-.3-.12.3z" fill="#E4DDDD"/><path d="M1939.47 179.2c-1.04 1.58-2.11 3.14-3 4.83-.33.64-.74 1.25-1.15 1.84-3.47 5.04-7.29 9.8-11.47 14.27-1.22 1.3-2.45 2.62-3.65 3.95-.3.33-.58.7-.77 1.1a25.63 25.63 0 00-2 5.63c-.24 1.19-.5 2.37-.76 3.55-.42 1.92-.79 3.85-1.28 5.76-1.28 4.95-3.56 9.48-6.09 13.9-1 1.73-2.08 3.42-3.39 4.94-4.46 5.23-8.87 10.49-13.41 15.64-4.09 4.64-8.02 9.4-11.16 14.75-.09.15-.28.24-.42.36-.41-.22-.38-.53-.33-.84.15-1.03.25-2.06.46-3.07a95.61 95.61 0 015.99-19.35 92.81 92.81 0 018.55-15.47c3.71-5.3 7.96-10.15 12.49-14.76 2.26-2.32 4.5-4.67 6.74-7.02.24-.25.42-.57.63-.86-.21.15-.43.28-.63.44-2.31 1.97-4.61 3.96-6.93 5.9a100.92 100.92 0 01-19.94 13.08c-2.18 1.08-4 2.54-5.58 4.37a71.57 71.57 0 00-6.81 9.36 271.75 271.75 0 01-9.33 14.3 80.23 80.23 0 01-6.84 8.3 69.38 69.38 0 01-5.34 5.2 37.74 37.74 0 01-5.62 4.04c-1 .6-2.07 1.1-3.12 1.61-1.64.81-3.3 1.58-4.93 2.4-1.84.94-3.69 1.87-5.38 3.08-.16.1-.37.13-.63.22-.05-.26-.14-.46-.11-.63.04-.23.16-.45.27-.67 3.31-7 7.09-13.73 11.52-20.1a114.5 114.5 0 0110.02-12.64 46.17 46.17 0 016.99-6.12c3.38-2.4 7.08-4.28 10.35-6.43-.65.26-1.51.6-2.35.96a56.34 56.34 0 01-7.38 2.7c-1.66.47-3.33.9-5.01 1.27-1.18.27-2.37.53-3.57.6-3.87.17-7.73-.03-11.51-.96a51.43 51.43 0 00-8.35-1.44c-.1-.01-.18-.1-.33-.17l-.04-.6c.34-.2.66-.4 1-.56.94-.42 1.89-.85 2.86-1.22a639.2 639.2 0 018.91-3.36 36.3 36.3 0 016.34-1.88 57.42 57.42 0 0114.23-.65 67.5 67.5 0 0011.16-.06c1.13-.08 2.28-.17 3.38-.43 2.19-.5 4.3-1.25 6.16-2.58.47-.34.99-.64 1.48-.95 3.22-2.07 6.44-4.15 9.43-6.54 1.37-1.1 2.76-2.2 4.24-3.14a59.87 59.87 0 008.93-7.03c2.08-1.97 4.21-3.88 6.34-5.79a7.32 7.32 0 001.76-2.14c.4-.8.94-1.51 1.73-2.01.31-.2.52-.55.74-.86.63-.86 1.24-1.74 1.86-2.61.12-.17.22-.35.43-.7l-.69.48a63.9 63.9 0 01-9.3 5.8c-1.19.63-2.41 1.18-3.63 1.76a52 52 0 01-10.1 3.67c-2.75.69-5.54 1.1-8.35 1.49-4.17.57-8.35 1.04-12.57.86l-14.27-.63c-.31-.02-.63-.02-.85-.36-.13-.56.32-.77.7-.97 1.5-.79 2.99-1.58 4.52-2.31 5.18-2.46 10.69-3.87 16.33-4.77 5.83-.93 11.71-1.49 17.58-2.02 4-.37 7.93-1.04 11.75-2.33a38.91 38.91 0 008.2-3.67 40.08 40.08 0 009.56-8 55.36 55.36 0 004.4-6 137.9 137.9 0 007.74-13.34c.99-2.01 1.94-4.04 3.05-6 .62-1.06 1.13-2.19 1.69-3.28-.33.23-.66.46-.97.72-.92.78-1.82 1.59-2.73 2.38-2.89 2.48-6.11 4.5-9.21 6.68a39 39 0 01-6.57 3.71c-3.53 1.58-7.09 3.07-10.65 4.58a49.01 49.01 0 01-11.02 3.15 45.8 45.8 0 01-11.02.76c-3.47-.25-6.94-.61-10.41-.92-.14-.02-.28-.02-.41-.06-.21-.09-.41-.2-.56-.28-.19-.48 0-.76.29-.98.22-.16.47-.29.71-.42 2.18-1.2 4.38-2.35 6.53-3.6a93.96 93.96 0 0113.25-6.55c2.06-.8 4.11-1.63 6.18-2.39 1.33-.48 2.68-.91 4.04-1.29 2.9-.8 5.8-1.57 8.71-2.31 2.8-.71 5.61-1.46 8.45-2.03a61.16 61.16 0 0012.63-3.9 38 38 0 005.1-2.73 4.28 4.28 0 001.8-2.2c.17-.45.36-.9.54-1.34.57-1.34 1.12-2.68 1.7-4 .68-1.56 1.42-3.08 2.06-4.64 2.02-5 4.33-9.86 6.84-14.63 2.54-4.82 5.14-9.61 7.25-14.65.23-.56.59-1 1.18-1.24.27-.12.51-.33.78-.49.23-.14.47-.28.71-.39.07-.03.19.05.33.1l-.08.88c.37.47.37.47.53 1.1-.22.23-.45.52-.71.78a22.92 22.92 0 00-4.22 5.86c-1.2 2.4-2.29 4.87-3.38 7.33-2.17 4.85-4.36 9.7-6.46 14.58a260.65 260.65 0 01-6.08 13.04 327.78 327.78 0 01-9.79 18.13c-.54.94-.93 1.92-1.15 2.98-.13.6-.26 1.22-.35 1.83-.56 3.49-.54 7.02-.55 10.53-.02 3.37.35 6.75.54 10.12.12 2.1.26 4.2.33 6.3a38.1 38.1 0 01-.41 6.92 115.83 115.83 0 01-3.56 16.48c-1.13 3.8-2.4 7.56-3.66 11.32-.57 1.7-1.27 3.36-1.91 5.04-.1.24-.16.55-.55.5-.33-.22-.31-.59-.36-.92-.67-4.3-1.33-8.6-2.02-12.88a70.29 70.29 0 011.06-27.03c1.17-5.1 2.91-10 4.86-14.84l3.94-9.78c-.23.3-.47.58-.67.89-1.01 1.56-1.99 3.15-3.02 4.7zm-61.23 56.36c-.19.12-.4.22-.55.38-.96 1-1.93 1.97-2.85 3-1 1.13-1.96 2.31-2.92 3.48-.22.26-.38.56-.57.84-.37.4-.78.77-1.12 1.2-2.69 3.44-5.35 6.9-8.07 10.33a129.93 129.93 0 01-3.82 4.6c.09.06.13.17.04.27a243.5 243.5 0 01-16.4 16.02c2.64-1.53 5.21-3.14 7.36-5.37 1.46-1.5 3.02-2.91 4.51-4.39a79.47 79.47 0 006.38-7.1l.02-.06c2.34-3.3 4.69-6.58 7.05-9.86 1.13-1.6 2.29-3.16 3.48-4.7l.15-.18.41-.52.02-.23c.23-.2.46-.4.67-.63a99.67 99.67 0 015.7-6.33l.51-.75zm-27.6 35.5a74.88 74.88 0 0010.84-10.2c1.4-1.6 2.63-3.37 3.86-5.12 3.71-5.28 7.2-10.7 10.52-16.23l1.14-1.88c-1.84 2.03-3.68 4.05-5.38 6.19-2.48 3.12-4.73 6.43-7.06 9.65l-2.96 4.08-.14.18-.88 1.21a.17.17 0 01-.12.08 76.45 76.45 0 01-7.14 7.93c-1.26 1.19-2.48 2.4-3.69 3.63a26.26 26.26 0 01-4.66 3.76 23 23 0 00-1.32.9 41.68 41.68 0 006.99-4.19zm-13.11 6.81a26.85 26.85 0 004.3-3.7l4.42-4.5c.53-.53 1.07-1.06 1.57-1.63a3913.72 3913.72 0 0010.03-11.6.14.14 0 01.02-.14c3.9-4.63 7.8-9.28 11.86-13.77l.68-.86c-.31.23-.63.44-.92.7-2.94 2.65-5.66 5.52-8.44 8.34-2.01 2.03-4.12 3.96-6.07 6.04l-.7.76a.33.33 0 01-.04.1l-7.39 8.54c-2.43 2.79-4.88 5.57-7.18 8.47-.92 1.16-1.8 2.34-2.69 3.53.21 0 .38-.16.55-.28zm-1.1.39l.1-.04c1.84-2.57 3.71-5.12 5.78-7.51l2.56-2.94.15-.22c2.71-3.08 5.39-6.18 8.13-9.22a67.35 67.35 0 01.91-1l.63-.7c2.1-2.29 4.43-4.36 6.57-6.6 4.96-5.2 10.25-10.04 15.51-14.91.76-.7 1.5-1.42 2.25-2.14.18.08.32.04.39-.16l.48-.41-.21-.04c-.59.3-1.19.59-1.81.85-2.39 1.74-4.78 3.48-7.14 5.27-.99.76-1.95 1.56-2.9 2.37a215.34 215.34 0 00-11.49 11.64 191.9 191.9 0 00-13.62 16.6 295.85 295.85 0 00-6.05 8.58l-.24.58zm.49-1.85l-.31.66a195.86 195.86 0 0129.69-35.3l.19-.16c1.55-1.44 3.13-2.86 4.72-4.26.07-.06.14-.04.2 0 1.32-1.1 2.67-2.19 4.04-3.22a76.25 76.25 0 00-15.04 11.02c-1.4 1.32-2.76 2.69-4.14 4.03l-.05.04-1.76 2.02a174.5 174.5 0 00-3.83 4.57 265.86 265.86 0 00-6.19 8.02 131.4 131.4 0 00-7.52 12.58zm30.75-38.22c-1.29.8-2.52 1.7-3.78 2.53a35.77 35.77 0 00-6.19 5.32 103.27 103.27 0 00-9.94 12.3c-.15.21-.25.46-.36.7a153.98 153.98 0 016.7-8c1.37-1.54 2.84-2.98 4.22-4.5.04-.05.1-.05.15-.02 1.01-.96 2.06-1.89 3.09-2.83a70.3 70.3 0 0110.47-7.9c.13-.07.23-.2.33-.31-1.56.9-3.15 1.77-4.69 2.71zm4.8-2.77l.76-.31-.09-.16-.67.47zm7.39-3.14l.05.12.94-.68c-.33.2-.66.38-.99.56zm2.24-1.19c-1.11.93-2.17 1.9-3.29 2.81a58.96 58.96 0 00-5.71 5.37c.03.06.03.14-.03.21-2.75 3.09-5.53 6.16-8.27 9.25l-4.51 5.2-.11.1-.83.98c-.06.1-.12.2-.19.28l-11.06 12.95c-.22.26-.46.51-.7.76-2.12 2.15-4.24 4.32-6.38 6.46-.64.64-1.33 1.23-1.95 1.91l1.3-.76a282.3 282.3 0 0014.58-13.91c3.13-3.49 6.16-7.05 9.05-10.76 3.07-3.94 6.14-7.89 9.35-11.73a75.34 75.34 0 018.22-8.29c.47-.41.87-.9 1.3-1.37-.26.18-.53.34-.77.54zm-38.14 7.19c.99.24 1.88.45 2.79.55 2.54.3 5.08.47 7.64.33 1.42-.08 2.79-.36 4.16-.76 1.92-.56 3.87-1.01 5.77-1.62 1.56-.49 3.07-1.13 4.61-1.7l-.04-.12-4.93 1.54a32.88 32.88 0 01-6.17 1.26c-4.19.47-8.38.68-12.6.4-.31-.02-.62-.01-.93 0-.05 0-.11.04-.3.12zm-4.16-.95c.98.18 1.9.49 2.86.5 2.86.04 5.73.18 8.58.07 3.58-.14 7.16-.38 10.66-1.23 1.54-.38 3.05-.87 4.56-1.34a133.6 133.6 0 005.01-1.62c1.17-.4 2.3-.92 3.42-1.47-.34.14-.68.29-1.03.41-1.3.47-2.59.95-3.9 1.36-.75.24-1.54.35-2.32.5-1.59.3-3.18.62-4.77.9a70.4 70.4 0 01-8.41.95c-1.86.1-3.72.16-5.58.13-3-.04-5.98.3-8.95.67-.03 0-.04.06-.13.17zm-1.35-.43c.96-.07 1.92-.15 2.87-.3 2.88-.4 5.76-.53 8.66-.5 1.76.01 3.51-.12 5.26-.2 1.11-.07 2.2-.19 3.3-.27a30 30 0 004.8-.7 36.3 36.3 0 013.86-.7c2.19-.27 4.22-1 6.19-2-.45.08-.9.16-1.35.22-5.73.81-11.45 1.7-17.25 1.95-2.13.09-4.24.47-6.36.72l-10.26 1.23-1.21.18c.46.43.98.41 1.49.37zm10.48-3.57c1.77-.44 3.57-.72 5.39-.9 1.58-.15 3.15-.39 4.72-.55 1.61-.17 3.22-.37 4.83-.44 3.07-.13 6.11-.47 9.15-.87.35-.05.69-.17 1.04-.27-.53.01-1.06-.02-1.58.04-2.68.3-5.36.43-8.05.34-.58-.02-1.17 0-1.75.03-2.58.2-5.16.35-7.73.62-1.29.14-2.57.47-3.84.78-1.97.48-3.93 1-5.89 1.54-1.06.29-2.1.63-3.13 1 2.3-.32 4.58-.77 6.84-1.32zm27.17-3.74c-3.55.27-7.09-.1-10.64-.25a42.9 42.9 0 00-14.31 1.7c-2.44.73-4.84 1.6-7.39 2.75 3.12-.85 5.99-1.66 8.89-2.4 1.06-.27 2.16-.41 3.26-.52 1.95-.2 3.91-.35 5.87-.47 1.34-.07 2.69-.09 4.03-.06 1.86.03 3.72-.04 5.57-.23 1.2-.12 2.41-.17 3.61-.28.43-.04.85-.13 1.27-.2-.05-.02-.11-.04-.16-.03zm-11.86 2.24c-1.72.14-3.43.33-5.15.51-1.54.17-3.08.4-4.62.53-2.27.2-4.5.66-6.72 1.17-1.78.4-3.58.7-5.37 1.06-.78.16-1.54.37-2.29.68.26-.01.53 0 .79-.04 2.7-.35 5.4-.69 8.1-1.08 2.22-.32 4.44-.62 6.68-.71 4.31-.17 8.58-.76 12.85-1.38 2.86-.41 5.73-.83 8.53-1.6.76-.22 1.54-.4 2.28-.66.31-.1.59-.27.88-.43l-1.61.2c-.15.02-.23-.08-.25-.2-1.16.15-2.29.45-3.43.66-3.53.66-7.1 1.01-10.67 1.3zm25.94-6.42c.51-.1.77-.2.94-.47l-.94.47zm1-.52l.78-.32c-.33-.05-.58.09-.78.32zm2.23-1.48c.44-.05.64-.16.77-.37l-.77.37zm9.74-7.06c-2.9 2.17-5.69 4.48-8.73 6.44-.08.05-.13.14-.18.21a19.17 19.17 0 004.63-2.78c1.75-1.44 3.53-2.84 5.29-4.26.19-.16.34-.36.51-.55-.51.31-1.05.59-1.52.94zm1.94 22.15a33.11 33.11 0 003.38-4.93c2.31-4.05 4.44-8.18 5.72-12.69.52-1.82.89-3.68 1.31-5.52.06-.26.04-.53.05-.8l-1.12 3.2c-.43 1.2-.82 2.41-1.32 3.58-1.74 4.01-3.36 8.08-5.47 11.92-.96 1.75-1.95 3.48-2.92 5.23-.13.23-.23.48-.35.72.24-.23.5-.45.72-.7zm-21.1 25.71c1.73-2.32 3.06-4.9 4.66-7.32a49.95 49.95 0 013.44-4.78c.2-.24.41-.47.59-.72 3.25-4.54 6.81-8.86 9.73-13.64.21-.35.5-.64.76-.95-.11.27-.19.57-.34.83a74.38 74.38 0 01-4.72 7.03c-.89 1.19-1.74 2.4-2.62 3.59-1.14 1.51-2.32 3-3.44 4.52-1.14 1.56-2.22 3.15-3.33 4.73-.08.13-.12.29-.17.44.19-.17.41-.33.57-.52 3.57-4.17 7.14-8.34 10.69-12.52.53-.63 1.02-1.3 1.49-1.98a97.93 97.93 0 008.12-14.06c.16-.35.33-.69.48-1.04l3.08-7.23c.3-.7.54-1.42.82-2.15l-.3-.15c.11-.32.21-.64.34-.95l2-4.7c.06-.13.06-.3.08-.45-.19.27-.41.52-.56.8-1.33 2.53-2.73 5.04-3.95 7.62a82.7 82.7 0 01-4.86 8.88c-.98 1.54-1.95 3.1-2.9 4.65a97.36 97.36 0 01-4.41 6.38c-1.99 2.72-3.92 5.5-5.85 8.27-1.85 2.66-3.74 5.3-5.49 8.01-1.46 2.26-2.75 4.63-4.09 6.95-.21.37-.31.8-.46 1.2.22-.24.44-.47.64-.74zm6.99-18.39c1.34-1.66 2.68-3.32 4-5 .62-.78 1.16-1.62 1.82-2.37 2.3-2.62 4.35-5.43 6.45-8.2.35-.46.7-.94.99-1.44 2.13-3.66 4.41-7.24 6.31-11.03.27-.56.5-1.13.75-1.7l.31-.51-.38.48c-.23.26-.46.5-.67.78-3.35 4.63-6.75 9.23-10.03 13.9-3.29 4.69-6.38 9.5-9.33 14.4-.12.2-.19.44-.29.65l-.38.72.45-.68zm.03.88a84.6 84.6 0 00-5.24 10.18l-.15.42c.17-.23.35-.45.48-.7.76-1.4 1.53-2.78 2.23-4.2a57.68 57.68 0 015.93-9.44c1.25-1.65 2.47-3.32 3.69-4.99.17-.22.28-.49.4-.74-.23.22-.48.42-.68.67-.78.96-1.54 1.94-2.29 2.92-.85 1.09-1.69 2.18-2.51 3.28-.64.85-1.33 1.68-1.86 2.6zm6.52-7.55l-3.58 4.81a51.96 51.96 0 00-4.91 7.9c-1.11 2.22-2.29 4.4-3.41 6.62-.36.7-.66 1.44-.95 2.18-.12.3-.16.63-.24.95.2-.26.43-.5.59-.78 1.9-3.41 4.07-6.65 6.35-9.81 2.13-2.94 4.18-5.93 6.26-8.89.2-.28.39-.57.6-.84 3.81-4.84 6.91-10.15 10.05-15.43 1.28-2.16 2.25-4.5 3.35-6.77.04-.07.04-.17.05-.26-.19.22-.4.43-.56.67-1.79 2.71-3.56 5.43-5.33 8.14-2.59 3.95-5.46 7.71-8.27 11.5zm-15.8 26.73a4.77 4.77 0 00-.13 1.58l.24-.49c.96-2.06 1.74-4.2 2.41-6.38.1-.33.25-.64.38-.96a24.48 24.48 0 00-2.9 6.25zm26.48-49.27c-8.17 8.13-14.9 17.29-19.63 27.84-1.07 2.4-2.03 4.84-3.02 7.26-.13.32-.17.68-.24 1.03.17-.31.36-.62.5-.94a341.8 341.8 0 001.86-4.27 57.5 57.5 0 013.9-7.5c1.06-1.74 2.1-3.5 3.2-5.2 1.1-1.7 2.25-3.38 3.43-5.04 1.6-2.24 3.19-4.5 4.88-6.67 1.72-2.2 3.57-4.28 5.36-6.42.23-.27.43-.56.65-.84-.31.25-.62.48-.89.75zm4.15-3.54a35.9 35.9 0 00-3.68 4.59 204.88 204.88 0 01-3.28 4.5 223.5 223.5 0 00-11.51 16.53c-.94 1.53-1.75 3.13-2.63 4.69-.2.35-.45.67-.67 1.01.07-.25.11-.53.22-.77 1.06-2.2 2.2-4.36 3.58-6.39.59-.88 1.18-1.78 1.74-2.69 1.39-2.25 3.02-4.35 4.55-6.51 2.26-3.2 4.69-6.28 6.99-9.46.23-.31.38-.68.56-1.02-.16.15-.34.29-.48.46a87.48 87.48 0 00-5.8 7.28 59.8 59.8 0 01-2.15 2.92c-2.76 3.5-5.06 7.3-7.4 11.1a65.98 65.98 0 00-5.06 9.94c-1.01 2.49-2.09 4.96-3.11 7.44-.17.43-.24.9-.34 1.35l.28-.33c-.07.33-.12.67-.23.98l-1.28 3.37c.23-.38.49-.74.66-1.14.64-1.5 1.21-3.02 1.84-4.51a86.16 86.16 0 016.35-12.44c2.53-4.03 5.12-8.02 7.73-12 .9-1.4 1.94-2.7 2.9-4.04l10.49-14.64c.19-.26.32-.57.47-.86-.25.21-.52.4-.74.64zm4.49-4.8c-.71 1-1.38 2.05-2.07 3.07a57.41 57.41 0 00-3.33 5.58c-1.26 2.36-2.61 4.67-3.92 7.02-.16.3-.29.62-.44.94.19-.22.38-.42.54-.66l4.23-6.46c.15-.22.36-.4.53-.6h.01c.12-.31.2-.64.37-.92.97-1.62 1.95-3.24 2.96-4.83a9.7 9.7 0 001.44-3.06c.08-.36.22-.7.34-1.06-.41.19-.43.66-.66.98zm-3.83.51l-3 2.68c-.09.08-.16.18-.23.28.38-.26.78-.49 1.12-.78.68-.56 1.34-1.15 1.98-1.75.23-.22.4-.49.6-.74-.16.1-.33.2-.47.31zm1.05-.8l.71-.7c-.31.15-.57.36-.71.7zm.85-.8a6.87 6.87 0 002.25-2.2l-2.25 2.2zm10.46-15.17l-.78.36c.34.03.59-.1.78-.36zm-25.31 8.48c-2.15.29-4.3.41-6.47.5-.15.03-.31.06-.46.07a79.18 79.18 0 00-11.72 1.97c-2.51.6-5.01 1.27-7.51 1.92-.23.06-.44.17-.64.34l.39-.07c2.31-.48 4.64-.58 6.99-.6 1.04 0 2.07-.14 3.1-.22 1.75-.14 3.5-.3 5.25-.42 2.62-.18 5.24-.32 7.81-.87 2.02-.43 4.04-.9 6.06-1.31 1.05-.22 2.11-.36 3.15-.58a8.6 8.6 0 001.49-.44c1.73-.69 3.46-1.37 5.16-2.13 1.15-.52 2.25-1.18 3.35-1.83-2.71.93-5.47 1.6-8.26 2.17-.01.05-.05.09-.11.1-2.5.6-5.03 1.06-7.58 1.4zm23.7-7.61l-3.66 2.03c1.38-.37 2.48-1.26 3.66-2.03zm-52.35 14.26c.09.04.2.02.31.03 4.58.2 9.16.52 13.75.36 3.12-.1 6.18-.63 9.24-1.13 2.28-.37 4.55-.8 6.81-1.3 3.58-.8 6.99-2.1 10.3-3.71 1.14-.56 2.3-1.1 3.43-1.69a67.82 67.82 0 009.57-5.95l3.32-2.47c.12-.08.21-.2.31-.3-1.1.7-2.22 1.4-3.31 2.14a118.12 118.12 0 01-9.65 6 38.93 38.93 0 01-7.12 3.04c-1.18.37-2.35.78-3.52 1.18-2.36.82-4.8 1.27-7.25 1.66-1.8.28-3.62.42-5.44.6-.95.1-1.92.15-2.88.24-1.08.1-2.16.15-3.25.16-4.94.62-9.92.93-14.9 1l.28.14zm-1.9-.47c3.35-.1 6.7-.26 10.05-.49h-.05c1.15-.4 2.37-.4 3.56-.5.38-.04.76-.03 1.14-.02.5.03.99.04 1.48.04l.41-.04c.04 0 .08.01.1.03 3.28-.02 6.53-.38 9.77-.8a46.31 46.31 0 0010.25-2.41c1.84-.7 3.69-1.35 5.53-2.04 2.4-.91 4.58-2.25 6.77-3.56a78.04 78.04 0 004.59-3c-.09.03-.19.03-.28.07-2.01.98-4.03 1.95-6.04 2.94-1.8.89-3.55 1.84-5.36 2.69a27.48 27.48 0 01-6.03 2.17l-8.3 1.72c-2.58.55-5.19.72-7.81.9-1.79.11-3.57.27-5.36.4-1.62.1-3.24.2-4.85.26-1.49.05-2.96.16-4.43.44-.98.19-1.97.33-2.96.46-.77.1-1.47.4-2.18.73zm-1.42.02l.71-.01c.19-.07.4-.17.63-.3-.63-.12-.99.1-1.34.31zm35.85-8.75c-5.15.48-10.29 1.04-15.4 1.82a56.52 56.52 0 00-8.46 1.96 98 98 0 00-5.67 1.95 35.71 35.71 0 00-4.12 1.99c.26-.03.52-.03.77-.09.36-.09.72-.22 1.08-.33 3.86-1.2 7.76-2.19 11.69-3.07a60.8 60.8 0 019.71-1.43c.19-.02.38.02.57.05 1.96-.16 3.92-.4 5.88-.7.87-.27 1.79-.39 2.69-.5 1.11-.15 2.21-.33 3.3-.53l1.56-.31c1.8-.38 3.58-.83 5.35-1.32 2.53-.7 4.99-1.59 7.4-3.05-.32.06-.49.07-.64.13-5.06 1.97-10.33 2.93-15.71 3.43zm21.64-6.06c.3-.13.64-.2.82-.53l-.82.53zm5.42-3.75c-.99.75-2.02 1.47-2.79 2.48.8-.23 1.45-.7 2.03-1.28.25-.23.53-.43.77-.67.26-.26.49-.54.62-.94-.21.13-.43.26-.63.41zm2.67-3.34c-.8.8-1.6 1.6-2.39 2.42-.16.16-.29.36-.43.54.97-.3 1.72-.88 2.26-1.74l.99-1.57c-.15.11-.3.22-.43.35zm42.41-77.9c-.51.45-.69.81-.73 1.25.35-.26.55-.61.73-1.24zm.61.36c-.54.22-.63.64-.78 1 .35-.2.64-.46.78-1zm-1.8 1.58l-.47.79c.27-.2.45-.45.47-.79zm-14.28 28.54c.58-1.26 1.01-2.58 1.51-3.88-.15.2-.33.39-.44.6l-2.88 6.3c-.07.13-.07.3-.1.45.64-1.16 1.35-2.28 1.91-3.47zm-1.94 3.52c-.47.44-.6 1.05-.83 1.61.43-.46.66-1.01.83-1.6zm-34.71 29.77c3-1.3 6.03-2.56 8.98-3.96 2.75-1.3 5.3-2.93 7.72-4.77.66-.5 1.31-1.03 1.96-1.55-.23.12-.46.22-.66.36a76.15 76.15 0 01-10.18 5.89 581.66 581.66 0 00-8.88 4.42c.36-.13.72-.24 1.06-.39zm12.67-14.38c-.94.2-1.88.37-2.8.6-4.52 1.1-9.05 2.16-13.56 3.33a71.54 71.54 0 00-6.19 2c-2.01.72-3.98 1.58-5.96 2.38a79.14 79.14 0 00-9.94 5.07c-2 1.15-3.98 2.33-5.94 3.57.5-.2 1.01-.37 1.48-.6l5.33-2.75 2.49-1.27c4.08-2.02 8.28-3.76 12.55-5.35.64-.24 1.32-.38 1.98-.6 2.15-.74 4.28-1.53 6.45-2.23 1.27-.41 2.59-.7 3.9-1.01 3.35-.79 6.67-1.7 9.93-2.85l.33-.14-.05-.15zm17.6-7.09c-.52.32-1.05.63-1.56.97-2.54 1.7-5.27 3-8.16 3.98-2.94 1-5.92 1.87-8.8 3.05-2.81 1.16-5.78 1.85-8.73 2.54a52.5 52.5 0 00-7.44 2.19c-1.79.71-3.68 1.18-5.51 1.77-.66.2-1.32.42-1.96.67a134.72 134.72 0 00-9.79 4.22c-1.89.92-3.73 1.94-5.62 2.86-1.55.77-3.12 1.47-4.69 2.18-.66.3-1.33.55-2.22.91.7.24 1.18.31 1.68.15.23-.07.46-.16.68-.25 2.75-1.12 5.49-2.27 8.26-3.34 1.8-.7 3.64-1.28 5.47-1.9 1.27-.44 2.55-.84 3.82-1.28l8.2-2.9c1.34-.46 2.69-.87 4.04-1.3l2.15-.73 11.13-3.93.87-.33c2.05-.82 4.09-1.68 6.15-2.47a49.09 49.09 0 006.32-3.06c1.57-.88 3.1-1.82 4.66-2.7.55-.3.91-.7 1.05-1.3zm-.91 1.71c-.68.38-1.36.74-2.02 1.13a56.67 56.67 0 01-10.56 5.2c-1.04.36-2.06.8-3.08 1.22-2.85 1.13-5.73 2.2-8.67 3.1-.59.18-1.17.4-1.75.63-2.86 1.12-5.76 2.1-8.71 2.97-.66.2-1.3.45-1.94.72-3 1.23-6.11 2.16-9.2 3.14-1.08.34-2.15.73-3.24 1.07a136.31 136.31 0 00-11.4 4.34c-.07.03-.12.07-.39.25.69-.16 1.15-.27 1.62-.35 1.22-.23 2.43-.54 3.66-.63 2.38-.18 4.72-.56 7.05-1.09 1.27-.29 2.56-.52 3.85-.75 1.43-.26 2.82-.63 4.18-1.15 1.84-.7 3.71-1.3 5.53-2.05 2.96-1.23 5.89-2.54 8.83-3.82 1.83-.8 3.67-1.58 5.49-2.42 1.43-.66 2.84-1.4 4.26-2.1 1.21-.59 2.41-1.2 3.64-1.73a56.7 56.7 0 007.05-3.68c1.29-.79 2.61-1.55 3.87-2.39.69-.46 1.29-1.06 1.93-1.6zm-1.14 1.57c-.35.25-.72.48-1.07.74a1.9 1.9 0 00-.45.47c.63-.25 1.21-.56 1.52-1.2zm-6.18 3.63c-1.82 1.06-3.73 1.93-5.65 2.8-2.06.95-4.07 2.03-6.1 3.04l-.65.32c-3.51 1.53-7.03 3.04-10.54 4.58-1.26.55-2.48 1.2-3.77 1.7a241.04 241.04 0 01-8.22 3.1c-1 .35-2.08.46-3.13.69-1.82.38-3.63.81-5.46 1.16a36.5 36.5 0 01-3.68.51c-1.69.15-3.35.4-5.01.74-.13.03-.24.1-.61.25.95.11 1.67.17 2.37.29 1.03.16 2.05.2 3.07-.08.5-.13 1.02-.18 1.54-.23a69.35 69.35 0 0011.63-2.38c.66-.19 1.3-.46 1.94-.72 3.13-1.28 6.27-2.53 9.38-3.86 1.71-.73 3.37-1.58 5.05-2.39 2.04-1 4.07-2.02 6.12-3.01 3.13-1.52 6.29-3 9.31-4.71 1.29-.73 2.51-1.58 3.75-2.39.13-.08.23-.2.33-.32l-1.67.91zm.82.19a40.67 40.67 0 01-5.01 2.89l-6.66 3.3c-1.97.99-3.96 1.93-5.92 2.95-5.21 2.7-10.7 4.78-16.11 7.03-2.01.84-4.15 1.25-6.26 1.74-2.42.56-4.84 1.1-7.32 1.28l-.01.23c.78.01 1.57.05 2.35.04 3.78-.05 7.49-.58 11.16-1.45.8-.19 1.6-.42 2.38-.69 1.4-.47 2.82-.93 4.18-1.5 1.56-.65 3.07-1.4 4.6-2.12.47-.22.92-.48 1.4-.68 2.14-.88 4.16-2 6.2-3.08l2.66-1.38a77.42 77.42 0 008.44-5.2c1.15-.82 2.36-1.56 3.49-2.41a19.93 19.93 0 002.81-2.59l-2.38 1.64zm5.38-1.56c-.35.28-.56.64-.61 1.09l.61-1.1zm-.62 1.11c-.37.29-.52.69-.62 1.12.37-.28.55-.67.62-1.12zm-8.04 19.88c-.17.46-.39.9-.49 1.38-.38 1.8-.74 3.6-1.1 5.4v.05l-.55 3.09-.02.07-.18 1.02a755.4 755.4 0 00-3.04 18.62l-.58 3.83-.2 1.35-.81 5.67a82.15 82.15 0 00-.45 10.3c.04 2.03.01 4.06 0 6.09.41-3.9.94-7.8 1.48-11.68l.02-.02.49-4.72c.27-2.57.58-5.13.87-7.7.18-1.64.33-3.29.53-4.93.21-1.78.43-3.56.67-5.33.24-1.74.48-3.48.77-5.22.43-2.65.85-5.3 1.36-7.94.48-2.44.97-4.87 1.1-7.35l.13-1.98zm-1.98 6.17c-.1.3-.21.6-.29.9a114 114 0 00-2.8 12.92c-.65 4.11-1.32 8.22-1.88 12.35-.27 1.97-.31 3.98-.45 5.97-.01.2.01.39.02.58.06-.11.13-.22.15-.34l.18-.97c.98-7.67 2.27-15.3 3.7-22.9l.89-4.59c0-.18.03-.35.11-.52l.09-.48c-.07-.5.13-.98.17-1.47l.11-1.45zm2.36 26c.57-2.82.94-5.67.93-8.56-.01-.28-.05-.56-.08-.84l-.12.84-.92 8.41c-.03.22-.01.44-.01.66.07-.17.16-.33.2-.5zm-1.54 7.16c.09-.26.21-.5.27-.77.3-1.43.59-2.86.87-4.3.04-.23.03-.48.03-.72-.09.3-.19.6-.26.91-.27 1.21-.55 2.43-.8 3.64-.08.4-.1.81-.15 1.22l-.08.51.12-.5zm-2.3 7.56c.42-1.67.85-3.34 1.23-5.02.49-2.22.93-4.46 1.4-6.68a93.7 93.7 0 001.63-14.27 97.2 97.2 0 00-.32-13.22c-.09-1.1-.04-2.2-.06-3.3l-.04-.8c-.36.83-.4 1.72-.46 2.6-.2 3.2-.37 6.4-.56 9.6-.14 2.3-.3 4.61-.43 6.92-.12 1.92-.23 3.85-.31 5.78-.17 3.97-.8 7.88-1.44 11.8-.35 2.14-.65 4.29-.96 6.44-.04.31 0 .64.01.97.11-.27.24-.54.31-.82zm-3.5 12.56l.05-.14c.13-.32.3-.62.39-.95a67.83 67.83 0 002.2-11.03c.22-2.16.56-4.3.95-6.44.85-4.65 1.58-9.3 1.66-14.04.03-1.34.17-2.68.25-4.02l.74-12.59c.02-.19-.01-.38-.02-.57-.09.28-.22.54-.27.83-.46 2.82-.9 5.65-1.34 8.47-.03.2-.04.41-.08.62-.92 4.46-1.18 9.02-1.8 13.52-.5 3.59-.82 7.2-1.18 10.8-.14 1.44-.34 2.87-.54 4.3-.02.17-.08.33-.15.49-.34 3.57-.62 7.14-.94 10.7l.08.05zm1.47-47.4c-2.55 6.7-4.29 13.58-4.71 20.75a65.2 65.2 0 00.26 11.44c.02.25.08.5.13.76.03-.25.08-.5.1-.76.25-4.03.34-8.07.79-12.08.73-6.48 1.7-12.93 3.46-19.23.14-.47.2-.97.29-1.46-.11.2-.24.38-.32.58zm1.34-2.58a125.3 125.3 0 00-3.4 15.34 150.8 150.8 0 00-1.76 17.48c-.2 3.55-.06 7.09.53 10.6.3 1.84.51 3.7.77 5.53.04.26.11.51.17.77.2-1.02.06-2.02-.12-3.02h-.01c-.11-.38-.18-.76 0-1.13-.06-.34-.14-.67-.16-1.01-.3-7.05.16-14.07.73-21.08.21-2.5.64-5 1.04-7.48.56-3.44 1.14-6.87 1.79-10.3.9-4.74 2.2-9.4 3.66-14 .12-.36.16-.74.23-1.11-1.28 3.09-2.68 6.14-3.47 9.41zM1880.59 229.68v-.02.02z" fill="#E4DDDD"/><path d="M1882.12 262.84c1.33-3.82 2.84-7.56 4.53-11.23l.05-.11c1.47-3.17 3.06-6.28 4.8-9.31.09-.15.33-.02.25.13l-1.21 2.32c-.08.35-.23.67-.47.94l-.33.67c-.1.33-.24.63-.45.9a149.05 149.05 0 00-6.64 15.82c-.12.32-.64.2-.53-.13zM1887.44 250.35l-.12.3.12-.3z" fill="#E4DDDD"/><path d="M1886.34 252.59l-.13.29.13-.3zM1886.22 252.85zM1886.11 253.13zM1886 253.4l-.13.29.13-.3zM1885.88 253.66l-.12.3.12-.3zM1885.77 253.93zM1885.66 254.2l-.13.3.13-.3zM1885.54 254.47l-.12.3.12-.3zM1885.43 254.74zM1885.32 255.01l-.13.3.13-.3zM1885.2 255.28l-.12.3.12-.3zM1885.09 255.55l-.13.3.13-.3zM1884.97 255.82l-.12.3.12-.3zM1884.86 256.1l-.12.29.12-.3zM1884.75 256.36l-.13.3.13-.3zM1884.63 256.63l-.12.3.12-.3zM1884.52 256.9l-.13.3.13-.3zM1884.4 257.17l-.12.3.12-.3zM1884.29 257.44l-.12.3.12-.3z" fill="#E4DDDD"/></g><defs><linearGradient id="paint0_linear" x1="0" y1="0" x2="1920" y2="0" gradientUnits="userSpaceOnUse"><stop stop-color="#ECF2F5"/><stop offset=".5" stop-color="#fff" stop-opacity="0"/></linearGradient><clipPath id="clip0"><path transform="matrix(-1 0 0 1 1920 0)" fill="#fff" d="M0 0h326v380H0z"/></clipPath></defs></svg>