<svg width="540" height="417" viewBox="0 0 540 417" fill="none" xmlns="http://www.w3.org/2000/svg">
<path d="M50.7181 411.465C50.2779 411.025 49.8636 410.558 49.5011 410.041C46.6271 405.717 47.7923 399.891 52.1163 397.017C54.1617 395.645 56.6992 395.127 59.1589 395.619C61.5669 396.111 63.7159 397.535 65.1141 399.606C67.9881 403.93 66.8489 409.73 62.5249 412.604C58.8223 415.064 53.9028 414.598 50.7181 411.465ZM27.3375 367.733C26.4571 366.852 25.7321 365.817 25.2402 364.652C23.2724 359.836 25.525 354.372 30.3409 352.405C35.131 350.411 40.5942 352.664 42.5879 357.454C44.5557 362.27 42.3031 367.733 37.5131 369.727C34.0176 371.151 30.0302 370.374 27.3375 367.733ZM12.9414 320.298C11.595 318.952 10.6629 317.243 10.3004 315.379C9.2906 310.33 12.5789 305.384 17.6797 304.375C22.7286 303.365 27.674 306.653 28.6838 311.754C29.7195 316.829 26.4053 321.748 21.3564 322.758C18.3011 323.38 15.1422 322.447 12.9414 320.298ZM8.09956 270.922C6.313 269.135 5.27732 266.702 5.30321 264.19C5.27732 259.037 9.49774 254.817 14.6503 254.843C19.8028 254.817 24.0233 259.037 23.9974 264.19C24.0233 269.343 19.8028 273.563 14.6503 273.537C12.1905 273.563 9.86023 272.631 8.09956 270.922ZM12.9932 221.546C10.6888 219.345 9.67898 216.108 10.3004 213.001C11.3361 207.926 16.2556 204.612 21.3305 205.648C26.4312 206.658 29.6936 211.577 28.7097 216.652C27.674 221.727 22.7545 225.041 17.6797 224.005C15.919 223.643 14.3137 222.814 12.9932 221.546ZM27.441 174.111C24.6447 171.418 23.7643 167.327 25.2661 163.754C27.2598 158.964 32.723 156.712 37.5131 158.653C42.3031 160.647 44.5816 166.136 42.5879 170.926C40.5942 175.716 35.131 177.969 30.3409 175.975C29.2535 175.561 28.2955 174.914 27.441 174.111ZM50.8734 130.379C47.5592 127.22 46.9896 122.197 49.5012 118.391C50.8993 116.32 53.0484 114.844 55.4823 114.378C57.942 113.886 60.4794 114.404 62.5508 115.802C64.5963 117.174 66.0204 119.323 66.5382 121.757C67.0043 124.191 66.4864 126.728 65.0882 128.8C62.2401 133.098 56.4144 134.263 52.1163 131.415C51.6761 131.078 51.2618 130.768 50.8734 130.379ZM82.1512 91.8517C78.5004 88.2009 78.5004 82.2457 82.1512 78.5949C85.802 74.9441 91.7572 74.9441 95.408 78.5949C99.0588 82.2457 99.0588 88.2009 95.408 91.8517C91.7572 95.5025 85.802 95.5024 82.1512 91.8517ZM120.523 60.4186C120.083 59.9784 119.695 59.4864 119.332 58.9686C116.458 54.6446 117.624 48.8189 121.948 45.9448C126.246 43.0967 132.045 44.2359 134.945 48.5341C137.819 52.858 136.654 58.6838 132.356 61.5319C128.628 64.0176 123.708 63.5515 120.523 60.4186ZM164.307 37.0379C163.427 36.1576 162.702 35.1219 162.21 33.9568C161.278 31.6782 161.278 29.089 162.236 26.7846C163.194 24.4802 165.006 22.6678 167.285 21.6839C172.101 19.716 177.564 21.9687 179.532 26.7846C180.516 29.0631 180.516 31.6523 179.558 33.9567C178.6 36.2611 176.787 38.0736 174.483 39.0316C171.013 40.4816 167 39.6789 164.307 37.0379ZM211.819 22.6677C210.447 21.3472 209.541 19.6643 209.178 17.8C208.194 12.7252 211.457 7.80564 216.532 6.76995C221.607 5.78605 226.552 9.07437 227.562 14.1751C228.572 19.2241 225.283 24.1695 220.182 25.1793C217.153 25.7748 214.02 24.8168 211.819 22.6677ZM261.222 17.8C259.409 16.0393 258.373 13.6055 258.399 11.094C258.373 5.94141 262.594 1.72099 267.746 1.74688C272.899 1.72099 277.119 5.94142 277.093 11.094C277.119 16.2465 272.899 20.4669 267.746 20.441C265.287 20.4669 262.956 19.5348 261.222 17.8ZM310.624 22.7195C308.319 20.5187 307.31 17.2822 307.931 14.1751C308.941 9.07434 313.886 5.78607 318.987 6.79586C324.036 7.80565 327.324 12.751 326.314 17.8C325.305 22.9008 320.385 26.1632 315.31 25.1793C313.55 24.8168 311.893 23.9883 310.624 22.7195ZM358.11 37.1674C355.314 34.4746 354.459 30.3577 355.961 26.7846C357.929 22.0204 363.418 19.7419 368.182 21.7097C372.972 23.7034 375.251 29.1926 373.283 33.9567C371.289 38.7468 365.8 41.0253 361.01 39.0316C359.948 38.5914 358.964 37.97 358.11 37.1674ZM494.976 174.033C494.096 173.153 493.397 172.092 492.931 170.952C491.973 168.648 491.973 166.059 492.905 163.78C493.863 161.476 495.701 159.637 497.98 158.653C502.77 156.712 508.233 158.964 510.227 163.754C511.185 166.059 511.185 168.648 510.253 170.926C509.294 173.231 507.456 175.069 505.178 176.001C501.682 177.477 497.669 176.674 494.976 174.033ZM401.92 60.5739C398.605 57.4151 398.036 52.3402 400.573 48.5599C403.447 44.2359 409.247 43.0967 413.571 45.9707C417.895 48.8447 419.034 54.6446 416.16 58.9686C413.286 63.2926 407.486 64.4318 403.162 61.5578C402.722 61.273 402.282 60.9364 401.92 60.5739ZM471.595 130.198C471.129 129.784 470.741 129.292 470.404 128.8C467.53 124.476 468.67 118.676 472.968 115.776C475.065 114.404 477.577 113.912 480.01 114.378C482.47 114.87 484.619 116.294 486.017 118.365C487.364 120.437 487.882 122.974 487.416 125.408C486.898 127.842 485.474 129.991 483.402 131.389C479.7 133.849 474.754 133.357 471.595 130.198ZM440.085 91.8517C436.434 88.2009 436.434 82.2457 440.085 78.5949C443.735 74.9441 449.691 74.944 453.341 78.5948C456.992 82.2456 456.992 88.2009 453.341 91.8517C449.691 95.5024 443.735 95.5024 440.085 91.8517Z" fill="white"/>
<path d="M484.75 410.465C485.19 410.025 485.605 409.559 485.967 409.041C488.841 404.717 487.676 398.891 483.352 396.017C481.306 394.645 478.769 394.127 476.309 394.619C473.901 395.111 471.752 396.535 470.354 398.606C467.48 402.93 468.619 408.73 472.943 411.604C476.646 414.064 481.565 413.598 484.75 410.465ZM508.131 366.733C509.011 365.853 509.736 364.817 510.228 363.652C512.196 358.836 509.943 353.373 505.127 351.405C500.337 349.411 494.874 351.664 492.88 356.454C490.912 361.27 493.165 366.733 497.955 368.727C501.451 370.151 505.438 369.374 508.131 366.733ZM522.527 319.299C523.873 317.952 524.805 316.243 525.168 314.379C526.178 309.33 522.889 304.385 517.789 303.375C512.74 302.365 507.794 305.653 506.784 310.754C505.749 315.829 509.063 320.749 514.112 321.758C517.167 322.38 520.326 321.448 522.527 319.299ZM527.369 269.922C529.155 268.136 530.191 265.702 530.165 263.19C530.191 258.038 525.97 253.817 520.818 253.843C515.665 253.817 511.445 258.038 511.471 263.19C511.445 268.343 515.665 272.563 520.818 272.537C523.278 272.563 525.608 271.631 527.369 269.922ZM522.475 220.546C524.779 218.345 525.789 215.108 525.168 212.001C524.132 206.927 519.213 203.612 514.138 204.648C509.037 205.658 505.775 210.577 506.758 215.652C507.794 220.727 512.714 224.041 517.789 223.006C519.549 222.643 521.155 221.815 522.475 220.546ZM508.027 173.111C510.824 170.419 511.704 166.328 510.202 162.755C508.208 157.964 502.745 155.712 497.955 157.654C493.165 159.647 490.887 165.137 492.88 169.927C494.874 174.717 500.337 176.969 505.127 174.976C506.215 174.561 507.173 173.914 508.027 173.111ZM484.595 129.379C487.909 126.221 488.479 121.198 485.967 117.391C484.569 115.32 482.42 113.844 479.986 113.378C477.526 112.886 474.989 113.404 472.917 114.802C470.872 116.174 469.448 118.324 468.93 120.757C468.464 123.191 468.982 125.729 470.38 127.8C473.228 132.098 479.054 133.263 483.352 130.415C483.792 130.079 484.206 129.768 484.595 129.379ZM453.317 90.8519C456.968 87.2011 456.968 81.2459 453.317 77.5951C449.666 73.9443 443.711 73.9443 440.06 77.5951C436.409 81.2459 436.409 87.2011 440.06 90.8519C443.711 94.5027 449.666 94.5027 453.317 90.8519ZM414.945 59.4188C415.385 58.9786 415.773 58.4867 416.136 57.9688C419.01 53.6448 417.845 47.8191 413.521 44.9451C409.223 42.0969 403.423 43.2362 400.523 47.5343C397.649 51.8583 398.814 57.684 403.112 60.5322C406.841 63.0178 411.76 62.5518 414.945 59.4188ZM371.161 36.0382C372.041 35.1578 372.766 34.1222 373.258 32.957C374.191 30.6785 374.19 28.0893 373.232 25.7849C372.274 23.4805 370.462 21.668 368.184 20.6841C363.368 18.7163 357.904 20.9689 355.936 25.7849C354.953 28.0634 354.953 30.6526 355.911 32.957C356.869 35.2614 358.681 37.0739 360.986 38.0319C364.455 39.4818 368.468 38.6792 371.161 36.0382ZM323.649 21.668C325.021 20.3475 325.927 18.6645 326.29 16.8003C327.274 11.7254 324.011 6.80589 318.937 5.7702C313.862 4.7863 308.916 8.07462 307.907 13.1754C306.897 18.2243 310.185 23.1698 315.286 24.1796C318.315 24.7751 321.448 23.8171 323.649 21.668ZM274.247 16.8003C276.059 15.0396 277.095 12.6057 277.069 10.0942C277.095 4.94166 272.874 0.721237 267.722 0.747128C262.569 0.721237 258.349 4.94167 258.375 10.0942C258.349 15.2467 262.569 19.4672 267.722 19.4413C270.182 19.4672 272.512 18.535 274.247 16.8003ZM224.844 21.7198C227.149 19.519 228.159 16.2824 227.537 13.1754C226.527 8.07459 221.582 4.78632 216.481 5.79611C211.432 6.8059 208.144 11.7513 209.154 16.8003C210.164 21.901 215.083 25.1635 220.158 24.1796C221.919 23.8171 223.576 22.9885 224.844 21.7198ZM177.358 36.1676C180.155 33.4748 181.009 29.358 179.507 25.7848C177.539 21.0207 172.05 18.7422 167.286 20.71C162.496 22.7037 160.218 28.1928 162.185 32.957C164.179 37.747 169.668 40.0256 174.458 38.0319C175.52 37.5917 176.504 36.9703 177.358 36.1676ZM40.4921 173.034C41.3724 172.153 42.0715 171.092 42.5376 169.953C43.4956 167.648 43.4956 165.059 42.5635 162.78C41.6055 160.476 39.7672 158.638 37.4886 157.654C32.6986 155.712 27.2353 157.964 25.2416 162.754C24.2836 165.059 24.2836 167.648 25.2157 169.927C26.1737 172.231 28.0121 174.069 30.2906 175.001C33.786 176.477 37.7993 175.675 40.4921 173.034ZM133.549 59.5741C136.863 56.4153 137.432 51.3404 134.895 47.5602C132.021 43.2362 126.221 42.0969 121.897 44.971C117.573 47.845 116.434 53.6448 119.308 57.9688C122.182 62.2928 127.982 63.4321 132.306 60.5581C132.746 60.2732 133.186 59.9366 133.549 59.5741ZM63.8728 129.198C64.3388 128.784 64.7272 128.292 65.0638 127.8C67.9378 123.476 66.7985 117.676 62.5004 114.776C60.4032 113.404 57.8916 112.912 55.4578 113.378C52.998 113.87 50.849 115.294 49.4508 117.365C48.1044 119.437 47.5866 121.974 48.0526 124.408C48.5705 126.842 49.9945 128.991 52.0659 130.389C55.7685 132.849 60.7139 132.357 63.8728 129.198ZM95.3835 90.8519C99.0343 87.2011 99.0343 81.2459 95.3835 77.5951C91.7327 73.9443 85.7775 73.9443 82.1267 77.5951C78.4759 81.2459 78.476 87.2011 82.1267 90.8519C85.7775 94.5027 91.7327 94.5027 95.3835 90.8519Z" fill="white"/>
</svg>
