<svg width="441" height="132" fill="none" xmlns="http://www.w3.org/2000/svg"><path d="M3.87 129.38a9.38 9.38 0 1114.22-1.58 9.37 9.37 0 01-12.97 2.62c-.44-.34-.86-.65-1.25-1.04zm31.28-38.53a9.4 9.4 0 010-13.25 9.4 9.4 0 0113.26 0 9.4 9.4 0 010 13.25 9.4 9.4 0 01-13.26 0zm38.37-31.43a9.39 9.39 0 1114.42-11.88 9.4 9.4 0 01-14.42 11.88zm43.79-23.38a9.72 9.72 0 01-2.1-3.08 9.42 9.42 0 01.03-7.17 9.55 9.55 0 015.04-5.1 9.35 9.35 0 0112.25 5.1 9.37 9.37 0 01-15.22 10.25zm47.5-14.37a9.13 9.13 0 01-2.63-4.87 9.41 9.41 0 017.35-11.03 9.41 9.41 0 0111.03 7.4 9.36 9.36 0 01-15.74 8.5zm49.41-4.87a9.26 9.26 0 01-2.82-6.7 9.33 9.33 0 019.35-9.35 9.33 9.33 0 019.34 9.34 9.33 9.33 0 01-9.34 9.35 9.03 9.03 0 01-6.53-2.64zm49.4 4.92a9.3 9.3 0 01-2.69-8.54 9.37 9.37 0 112.7 8.54zm47.49 14.45a9.36 9.36 0 01-2.15-10.38 9.37 9.37 0 115.05 12.24 9.57 9.57 0 01-2.9-1.86zm43.8 23.4a9.38 9.38 0 1112.93-13.6 9.38 9.38 0 01-12.92 13.6zm69.69 69.63c-.47-.42-.86-.9-1.2-1.4a9.4 9.4 0 012.57-13.02 9.46 9.46 0 0113.05 2.59 9.64 9.64 0 011.4 7.04 9.37 9.37 0 01-15.82 4.79zm-31.52-38.35a9.4 9.4 0 010-13.25 9.4 9.4 0 0113.26 0 9.4 9.4 0 010 13.25 9.4 9.4 0 01-13.26 0z" fill="#fff"/></svg>