<svg width="99" height="35" fill="none" xmlns="http://www.w3.org/2000/svg"><path d="M35.32 18.79c.82.1 1.64.2 2.45.38.3.07.62.1.93.14 2.66.28 5.31.36 7.98.25l2.34-.09c.2 0 .4 0 .58.06.84.24 1.67.5 2.44.93l1.38.76c.76.4 1.5.83 2.27 1.2 2 1 4.15 1.52 6.33 1.93.86.17 1.72.29 2.6.29 2.99 0 5.98.03 8.97 0 2.7-.04 5.39 0 8.05.48.08.02.16-.02.24-.03.04-.2-.07-.28-.19-.35-.38-.24-.75-.5-1.14-.72a40.16 40.16 0 00-15.65-5.06c-2.8-.28-5.61-.24-8.42-.06-1.41.1-2.82.17-4.24.24-.15.01-.3-.02-.46-.03.1-.03.21-.07.32-.08 1.3-.21 2.62-.4 3.92-.62a43.96 43.96 0 009.99-2.9c.97-.4 1.97-.6 3.02-.6 1.7-.01 3.36.14 5.03.4 2.45.38 4.9.74 7.38.97a35.32 35.32 0 007.92-.2c1-.15 1.98-.39 2.93-.71.48-.17.95-.38 1.42-.58.73-.31 1.46-.65 2.2-.95.83-.35 1.66-.7 2.54-.91.08-.02.14-.09.25-.15-.07-.09-.11-.17-.18-.21-.09-.06-.2-.08-.3-.1a60.2 60.2 0 00-9.91-1.89 49.64 49.64 0 00-7.03-.27c-1.36.06-2.69.25-4 .58-1.76.43-3.43 1.13-5.07 1.6.27-.14.62-.33.98-.5A24.45 24.45 0 0078.02 9c.42-.32.85-.63 1.2-1.01a17.48 17.48 0 002.96-4.08c.56-1.1 1.16-2.18 1.89-3.18.02-.03.02-.08.04-.15L83.92.4c-.16.06-.32.1-.47.18-.4.2-.81.38-1.21.6-1.22.66-2.43 1.32-3.64 2-.84.46-1.68.94-2.42 1.56a25.02 25.02 0 00-4.25 4.52 33.9 33.9 0 01-3.19 3.68c-.35.35-.7.7-1.1 1a7.37 7.37 0 01-2.6 1.3c-.25.06-.49.15-.73.22-1.6.48-3.2.95-4.84 1.27-.76.14-1.51.29-2.25.5-1.58.5-3.2.8-4.85.97-1.24.13-2.48.3-3.72.46-.4.05-.8.07-1.2-.03a2.1 2.1 0 00-1.16 0c-.15.05-.33.02-.5 0l-1.39-.12c-.08 0-.17-.03-.35-.05l.36-.1c1.56-.32 3.07-.84 4.55-1.43.55-.21 1.08-.46 1.61-.7 1.44-.63 2.8-1.4 4.08-2.3 1-.72 1.94-1.52 2.86-2.34a30.51 30.51 0 003.85-3.92l3.84-4.9c.09-.1.18-.21.12-.38-.14-.2-.34-.12-.52-.05-.68.27-1.37.54-2.04.84a25.97 25.97 0 00-6.21 4.06 114.49 114.49 0 00-5.66 5.24 22.2 22.2 0 01-4.1 3.23 16.92 16.92 0 01-8.9 2.56c-1.08 0-2.16-.1-3.23-.24a60.62 60.62 0 01-6.61-1.22c-.95-.25-1.89-.51-2.85-.7-.53-.1-1.04-.24-1.57-.37.17-.04.34-.09.52-.11.52-.09 1.04-.16 1.56-.23 1.64-.26 3.22-.75 4.82-1.16 1.07-.27 2.1-.65 3.1-1.12 1.52-.72 3.02-1.48 4.53-2.22 1.5-.75 2.88-1.68 4.17-2.75A19.94 19.94 0 0045.7 4.7c.9-1.22 1.77-2.47 2.65-3.7.04-.05.08-.1.1-.16L48.5.6c-.1-.2-.25-.22-.4-.18-.12.02-.23.07-.34.11-1.02.38-2.02.79-3.04 1.14-2.04.7-4.03 1.52-5.93 2.53-.85.45-1.7.9-2.54 1.37-.54.3-1.07.63-1.58.97-1.08.73-2.16 1.47-3.23 2.22-1.03.73-2.08 1.45-3.07 2.23a26.65 26.65 0 01-4.87 3.07c-.76.37-1.55.66-2.35.91-.43.13-.83.12-1.24-.03l-.6-.2-1.8-.57c-.71-.21-1.43-.4-2.12-.63a70.56 70.56 0 00-6.78-1.89c-2.32-.52-4.64-1.02-6.9-1.76a.95.95 0 00-.75.04c-.12.06-.26.08-.39.12a2.8 2.8 0 00-.33.13c-.03.01-.03.08-.06.13l.32.23c.05.25.05.25.2.48h.47c1.06-.08 2.11 0 3.14.26 1.13.28 2.26.62 3.38.96 2.22.65 4.45 1.3 6.66 2 2 .62 4.01 1.17 6.04 1.68 2.9.74 5.83 1.35 8.77 1.9.47.1.9.24 1.31.47l.71.4c1.31.8 2.48 1.81 3.64 2.8 1.12.96 2.13 2.03 3.2 3.06.66.63 1.31 1.27 1.99 1.9.74.68 1.55 1.28 2.4 1.82a51.05 51.05 0 006.46 3.5c1.58.7 3.19 1.34 4.8 2 .72.29 1.46.53 2.2.79.1.04.23.1.32-.04.02-.17-.1-.27-.2-.38l-3.7-4.32a30.54 30.54 0 00-9.24-7.32 43.04 43.04 0 00-6.29-2.6l-4.35-1.47.48.03c.8.11 1.61.24 2.42.34zm36.01-4.28c.1-.02.2-.06.29-.07.6-.04 1.2-.08 1.8-.1l1.98.02c.15 0 .3.04.44.06.24-.01.47-.04.71-.03l5.71.26c.87.03 1.74.04 2.6.04 0 .04.03.09.08.09 3.34-.14 6.65-.44 9.96-.89-1.26.44-2.52.84-3.87.92-.91.05-1.82.17-2.73.24-1.39.11-2.77.16-4.16.1h-.03c-1.75-.17-3.5-.32-5.26-.48a63.2 63.2 0 00-2.93-.19l-.08-.06c-.13.02-.27.04-.4.04h-.03a33.49 33.49 0 00-3.68.1l-.4-.05zm19.58.94c-2.13.45-4.28.67-6.45.7-.93 0-1.86-.1-2.79-.18-2.8-.27-5.58-.66-8.35-1.12l-.95-.16c1.2-.03 2.39-.07 3.58-.03 1.73.07 3.46.26 5.2.4l2.18.18h.1l.65.06c.03 0 .05 0 .06-.02 1.55.06 3.1.05 4.65-.11.75-.08 1.5-.14 2.25-.2.87-.05 1.73-.21 2.56-.47l.67-.18c-1.09.47-2.2.88-3.36 1.13zm5.97-2.4c-.8.22-1.62.3-2.44.36l-2.74.2-.99.05a1439.6 1439.6 0 01-6.68.03.06.06 0 00-.05-.04c-2.64-.02-5.28-.05-7.92.02l-.48-.02c.16-.03.32-.08.49-.1 1.71-.22 3.43-.3 5.15-.43 1.24-.09 2.48-.24 3.72-.3l.46-.01.04.01c1.64 0 3.28 0 4.92-.02 1.61-.01 3.23-.04 4.84.03.64.02 1.29.06 1.93.1-.06.08-.16.09-.25.11zm.44-.26l-.04.02a43.9 43.9 0 00-4.12-.22l-1.7.02a.62.62 0 00-.12-.02c-1.78.03-3.57.03-5.35.08h-.56l-.04.01-.4.02c-1.36.04-2.7.23-4.05.3-3.13.17-6.23.54-9.33.9l-1.35.14c-.03.08-.08.12-.16.08l-.28.05.05-.09c.27-.1.53-.22.8-.35 1.25-.3 2.5-.6 3.77-.87.53-.11 1.07-.2 1.6-.3 2.37-.25 4.74-.4 7.11-.49a83.8 83.8 0 019.36.2c1.52.12 3.04.26 4.55.43l.26.09zm-.75-.36l.3.08a85.4 85.4 0 00-20.1-.19l-.1.02c-.92.1-1.83.22-2.75.36-.04 0-.05.03-.06.06-.74.12-1.48.26-2.2.42.19-.07.38-.15.58-.21a33.27 33.27 0 017.32-1.64c.84-.09 1.68-.15 2.52-.23h1.19c.87-.01 1.73 0 2.6.02 1.47.04 2.94.13 4.4.22 2.12.27 4.23.58 6.3 1.09zm-21.37-.67c.63-.2 1.28-.35 1.91-.53 1.15-.33 2.33-.48 3.52-.54 2.3-.12 4.6-.04 6.89.2.11 0 .22.05.33.07a58.74 58.74 0 00-4.55-.05c-.9.02-1.79.1-2.68.12a.05.05 0 00-.05.05c-.6.06-1.2.15-1.81.22-1.9.22-3.76.65-5.59 1.22-.06.02-.13.02-.2.03.75-.27 1.48-.55 2.23-.79zm-2.27.8l-.32.17-.03-.08.35-.09zm-3.14 1.56l.02.05-.48.12.46-.17zm-1.03.4c.62-.1 1.25-.18 1.87-.29 1.12-.2 2.25-.31 3.39-.37.01.03.04.05.08.05l5.4-.11 3-.02H83.13l.15.01a3825.2 3825.2 0 007.87 0l3.94-.28c.4-.03.8-.09 1.2-.1l-.63.21c-2.9.4-5.82.7-8.74.88-2.04.05-4.08.04-6.12-.05-2.18-.1-4.36-.2-6.54-.24-1.7-.02-3.39.13-5.07.37-.27.04-.55.03-.82.04.13-.03.26-.08.4-.1zm13.2-10.58c-.2.4-.39.75-.6 1.08-.63.92-1.3 1.82-2.07 2.62-.43.45-.91.82-1.43 1.16-.73.48-1.43 1-2.17 1.45-.6.38-1.25.7-1.87 1.04l-.03-.04 1.9-1.2c.79-.49 1.5-1.05 2.17-1.68a31 31 0 003.7-4.05l.27-.32.13-.06zm.86-1.65c-.22.38-.37.77-.64 1.1-.8.95-1.57 1.94-2.41 2.85a23.46 23.46 0 01-3.43 3.18c-.56.4-1.15.76-1.74 1.13-.65.4-1.3.82-1.95 1.2-.47.27-.96.5-1.46.71l.43-.22c.52-.3 1.04-.59 1.55-.9.3-.19.56-.42.83-.63l1.64-1.33a30.57 30.57 0 004.33-4.32c.84-1 1.8-1.89 2.76-2.77h.1zm.25-.56c-.3.3-.6.59-.92.86-.95.84-1.8 1.76-2.62 2.72-.5.59-1.03 1.13-1.56 1.69-.33.35-.68.67-1.02 1.02-.5.5-1.03.96-1.6 1.38-.46.34-.9.7-1.32 1.08a8.14 8.14 0 01-2.42 1.48l.46-.38c1.89-1.67 3.8-3.31 5.53-5.16.64-.67 1.36-1.27 2.05-1.9l3.31-3.04.4-.35c.02.27-.14.44-.3.6zM78.9 4.18c-.65.46-1.25.98-1.83 1.53-.5.48-1.02.93-1.52 1.4-.51.49-1.03.97-1.51 1.48-.92.98-1.9 1.89-2.89 2.78-.11.1-.25.18-.38.27.15-.17.3-.36.46-.52a24.4 24.4 0 002.4-2.56c.16-.2.33-.4.5-.57.8-.8 1.58-1.61 2.4-2.38.41-.4.89-.72 1.35-1.05.72-.52 1.45-1.02 2.18-1.52.4-.27.8-.51 1.22-.75-.76.67-1.56 1.3-2.38 1.89zm-8.94 7.93c1.1-1.1 1.98-2.37 2.93-3.59a18.69 18.69 0 014.62-4.25c.94-.6 1.9-1.15 3.01-1.67-1.17.8-2.25 1.51-3.32 2.26-.39.27-.75.6-1.1.93-.61.6-1.22 1.2-1.81 1.81-.4.43-.8.87-1.17 1.32a20.5 20.5 0 01-1.65 1.78c-.38.36-.74.74-1.12 1.11-.13.13-.28.25-.43.37l.04-.07zm4.1-3.29l1.63-1.56c.5-.46 1-.9 1.49-1.38.7-.7 1.49-1.3 2.29-1.89.64-.47 1.25-.99 1.87-1.48.28-.2.56-.4.88-.56l-.24.25c-.88.8-1.76 1.6-2.65 2.37-.74.65-1.47 1.3-2.13 2.01a54.02 54.02 0 01-4.1 3.86c-.95.84-1.9 1.67-2.95 2.37-.29.2-.57.4-.87.57-.12.07-.25.12-.39.17l.52-.47c.05-.05.04-.1 0-.14.38-.35.8-.63 1.2-.95a44.32 44.32 0 003.45-3.17zm-9.48 6.76c-.17.15-.29.2-.42.18l.42-.18zm-.45.19l-.33.17c.08-.13.2-.17.33-.17zm-1.13.32c-.14.13-.23.16-.34.15l.34-.15zm-5.1 1.22c1.54-.35 3.1-.61 4.61-1.07h.12c-.7.35-1.45.61-2.23.75l-2.91.54c-.1.02-.22.01-.33.01.25-.08.5-.18.75-.23zm6.79 6.92a24.93 24.93 0 01-8.41-1.99c-.76-.34-1.48-.74-2.2-1.13-.1-.05-.2-.13-.28-.2l1.37.53c.52.2 1.03.41 1.56.58 1.82.56 3.63 1.18 5.5 1.57.85.18 1.7.34 2.56.51l.33.1-.43.03zm14.49.31c-1.26-.09-2.5-.38-3.75-.53-.85-.11-1.7-.21-2.56-.22h-.4c-2.43-.22-4.87-.27-7.28-.66-.17-.03-.35-.01-.52-.02.12.04.24.1.37.13 1.21.21 2.43.35 3.66.43.65.04 1.29.1 1.93.15.83.05 1.65.08 2.47.14.84.07 1.68.16 2.51.24.07.01.13.04.2.07-.11.02-.23.04-.34.04l-7.17-.01c-.36 0-.72-.03-1.08-.07a42.92 42.92 0 01-6.95-1.3l-.48-.14-3.27-1.03c-.32-.1-.62-.22-.94-.34l.03-.14-.4-.15-2.13-.67c-.06-.02-.12-.07-.17-.1.14 0 .28 0 .42.03 1.22.28 2.44.53 3.64.86 1.42.39 2.86.7 4.32.9l2.36.37c1.11.17 2.24.26 3.36.35 1.47.11 2.93.26 4.4.4 1.4.15 2.8.27 4.2.46 1.17.16 2.31.4 3.47.62.18.04.35.13.52.2h-.42zm-8.07-2.9l-2.79-.1c-.43-.01-.87-.07-1.3-.07-1.52.02-3.03-.1-4.54-.19a6.26 6.26 0 01-.76-.08c-1.82-.33-3.65-.59-5.44-1.04l-.78-.23-.25-.04h.71c2.48.21 4.97.39 7.45.63 2.48.24 4.95.58 7.4 1 .1.01.2.06.3.09l.35.07-.35-.04zm.28.26c1.64.3 3.27.63 4.85 1.15l.19.07c-.13-.01-.25-.01-.37-.04-.68-.14-1.35-.28-2.02-.45-1.58-.4-3.19-.62-4.8-.72-.9-.05-1.8-.12-2.7-.19-.13 0-.25-.05-.37-.08.14-.01.28-.04.42-.04l1.62.08c.6.03 1.2.05 1.8.1.46.03.93.03 1.38.12zm-4.35.01l2.61.18c1.35.09 2.69.3 4 .62l3.16.75c.34.08.67.19 1 .3.13.05.25.13.38.2-.15-.01-.29 0-.43-.04a43.9 43.9 0 00-5.05-.67c-1.57-.13-3.14-.3-4.71-.45l-.45-.05c-2.68-.1-5.32-.59-7.96-1.04-1.07-.2-2.12-.54-3.19-.81l-.1-.06c.13 0 .26-.02.39 0l4.2.54c2.04.27 4.1.39 6.15.53zm13.33 2.36c.2.09.38.23.56.4l-.23-.06c-.96-.26-1.88-.61-2.8-1-.13-.07-.28-.1-.42-.16 1 .14 1.97.4 2.89.82zm-23.81-5.22c5-.4 9.94-.02 14.78 1.4 1.1.33 2.17.7 3.25 1.07.15.04.28.13.41.2-.15-.02-.3-.05-.45-.1l-1.94-.59a25.48 25.48 0 00-3.6-.84c-.87-.14-1.74-.3-2.62-.41a60.4 60.4 0 00-2.64-.3c-1.2-.1-2.39-.22-3.59-.27-1.21-.05-2.43-.04-3.64-.05l-.46-.02c.16-.03.33-.07.5-.09zm-2.35.37c.85-.05 1.7 0 2.56.09.8.08 1.61.14 2.42.2 2.92.2 5.84.41 8.73.87.77.12 1.53.3 2.3.46.17.03.35.04.53.06-.11-.05-.21-.11-.32-.14a21.28 21.28 0 00-3.13-.63c-.46-.05-.92-.11-1.38-.19-1.15-.18-2.3-.23-3.45-.34-1.7-.16-3.4-.23-5.11-.37-.17-.01-.33-.06-.5-.1l.29-.03c1.35 0 2.7.01 4.05.14.53.06 1.05.1 1.58.12 1.94.08 3.85.4 5.77.7 1.6.25 3.18.63 4.72 1.14 1.12.38 2.24.72 3.35 1.09.19.06.36.17.54.27h-.19c.13.07.26.15.4.2l1.47.53c-.19-.03-.38-.05-.57-.1-.67-.22-1.33-.46-2-.67a37.3 37.3 0 00-5.92-1.43c-2.06-.3-4.11-.58-6.17-.85-.72-.1-1.44-.12-2.16-.18l-7.82-.68c-.14-.02-.28-.06-.41-.09.14-.02.28-.06.42-.07zm-2.87.13c.54.05 1.07.13 1.61.18.94.1 1.87.28 2.79.48 1.14.26 2.29.47 3.43.7.15.03.3.08.44.12h-.37l-3.34-.44h-.35c-.14-.04-.27-.1-.41-.13l-2.44-.4c-.5-.06-.97-.15-1.42-.38-.14-.08-.3-.13-.45-.19.18-.08.34.04.51.06zm1.26-1.12l1.74-.24h.15c-.19.06-.38.12-.57.16l-1.14.16c-.14.01-.28-.01-.41-.02.07-.02.15-.05.23-.06zm-.56.11l-.44.04a.58.58 0 01.44-.04zm-.5.06c-.46.13-.9.2-1.38.12l1.37-.12zm-8-.84l.35-.16a.36.36 0 01-.34.16zm9.99-5.97c.7-.63 1.36-1.3 2-2l.15-.13a34.44 34.44 0 013.98-3.32c.91-.66 1.84-1.3 2.76-1.94.09-.06.19-.1.3-.12l-.14.11a15.5 15.5 0 00-2.18 2.15c-.3.34-.63.64-.95.96l-1.63 1.62c-.8.81-1.59 1.64-2.5 2.33l-2.15 1.64c-.37.28-.72.6-1.09.88-.17.14-.36.26-.56.36-.72.38-1.44.76-2.17 1.1-.5.24-1.03.42-1.56.6a28.89 28.89 0 003.06-2.12h.07c.9-.67 1.78-1.37 2.61-2.12zm-9.24 5.68c.57-.2 1.14-.42 1.7-.63-.5.35-1.11.46-1.7.63zM63.86 4.2c0 .05-.05.08-.07.11-1.23 1.58-2.43 3.18-3.78 4.66-.92 1-1.96 1.86-3 2.74-.77.65-1.55 1.28-2.36 1.88a20.51 20.51 0 01-4.15 2.35 29.6 29.6 0 01-6.21 2.14l-1.76.4-.2.02 1.66-.5a51.4 51.4 0 004.72-1.48c1.06-.4 2.06-.9 3.02-1.5l1.4-.83c.93-.55 1.78-1.22 2.6-1.93.6-.51 1.17-1.07 1.74-1.62l.9-.89c.34-.33.66-.67.97-1.03a57.81 57.81 0 004.56-4.65c-.01.05-.02.1-.04.13zm.39-.76c-.98 1.09-1.99 2.15-3.01 3.2l.01-.03c-.46.27-.8.67-1.18 1.04-.12.11-.22.24-.32.37l-.41.5-.13.13a20.12 20.12 0 01-6.76 5.75l-2.24 1.25c-.99.54-2.05.88-3.1 1.23-.76.25-1.52.48-2.3.67l.1-.07 2.7-1.17c.8-.34 1.61-.65 2.4-1 .86-.39 1.69-.81 2.43-1.39l2.93-2.25c.9-.7 1.7-1.52 2.5-2.33.55-.56 1.11-1.1 1.66-1.67.5-.5.99-1 1.46-1.53.44-.48.9-.93 1.4-1.33l1-.85c.25-.23.54-.38.86-.52zm.41-.46l-.2.23c-.08.05-.18.08-.29.13.14-.25.32-.3.49-.36zM51.6 12.35c1.62-1.57 3.26-3.1 4.97-4.58a24.6 24.6 0 013.04-2.24c.74-.46 1.49-.91 2.26-1.32.58-.32 1.2-.56 1.82-.8-.08.07-.15.16-.24.22l-.42.27a67.47 67.47 0 00-4.33 3 26.48 26.48 0 00-3.23 2.8c-.06.06-.1.13-.14.2-.61.6-1.25 1.19-1.9 1.75-.34.21-.64.48-.93.75a24.92 24.92 0 01-1.66 1.37c-.63.49-1.29.95-1.95 1.4-.95.64-1.94 1.2-3.11 1.58.11-.09.16-.14.23-.17a25.1 25.1 0 005.59-4.23zm-8.15 5.44c-.13.06-.25.16-.4.13l.4-.13zm-2.77.73c.53-.11 1.05-.25 1.6-.22-.3.2-.64.28-1 .31l-.43.07a1 1 0 01-.49-.06l.32-.1zm-1.87-.06l1.48-.1h.3c-.37.24-.78.32-1.22.26l-.8-.12.24-.04zM1.01 10.4c.29-.04.46 0 .62.11-.19.04-.36.01-.62-.1zm-.06.3c.23-.11.4-.02.56.03a.67.67 0 01-.56-.03zM2 10.56l.39.07a.45.45 0 01-.4-.07zm13.49 3.36c-.58-.16-1.14-.4-1.71-.6.1.01.22 0 .32.03l2.9.83c.07.02.12.06.18.1-.56-.12-1.14-.2-1.69-.36zm1.72.36c.27-.03.51.1.77.18-.28.02-.53-.06-.77-.18zm19.69-3.04c-1.28.62-2.56 1.27-3.86 1.85-1.2.54-2.47.92-3.76 1.2-.36.08-.72.14-1.07.2.1-.03.2-.08.3-.1a33.38 33.38 0 004.84-1.7 247.2 247.2 0 013.98-1.7c-.14.09-.28.18-.43.25zm-8.35.11l.99-.76c1.65-1.18 3.28-2.38 4.95-3.53.77-.54 1.6-1.02 2.42-1.49.8-.46 1.65-.87 2.47-1.3a34.59 34.59 0 014.5-1.85c.95-.33 1.9-.65 2.87-.95-.21.1-.41.23-.62.32l-2.42.98c-.38.16-.75.3-1.13.47-1.82.78-3.6 1.67-5.33 2.63-.26.15-.5.33-.76.49-.85.5-1.72.98-2.57 1.5-.5.3-.96.66-1.44 1a40.51 40.51 0 01-3.76 2.48l-.14.07a5.8 5.8 0 01-.03-.06zm-7.34 3.81l.76-.23c1.29-.36 2.5-.9 3.64-1.57 1.16-.7 2.3-1.43 3.5-2.05 1.18-.6 2.25-1.4 3.32-2.17.91-.67 1.83-1.32 2.83-1.84.74-.4 1.43-.88 2.15-1.33.26-.15.51-.31.78-.45a58.7 58.7 0 014.17-2.04c.84-.37 1.7-.7 2.54-1.05.7-.3 1.37-.62 2.05-.94.29-.13.56-.28.93-.47-.11.3-.23.48-.42.6l-.28.15c-1.15.6-2.3 1.17-3.45 1.78-.74.4-1.45.85-2.18 1.27l-1.5.9-3.29 1.9c-.53.31-1.05.64-1.58.96-.28.17-.56.35-.85.51l-4.45 2.57-.36.2c-.85.44-1.71.87-2.56 1.33-.9.48-1.85.87-2.8 1.22-.74.27-1.49.5-2.22.78-.26.1-.49.1-.73-.03zm.83.19l.94-.35a24.7 24.7 0 004.72-2.02c.41-.24.85-.45 1.27-.67a49.67 49.67 0 003.49-1.99l.7-.4a45.8 45.8 0 003.46-2.04c.25-.16.52-.3.78-.44 1.26-.64 2.45-1.4 3.65-2.15l1.28-.77a59.63 59.63 0 014.67-2.54c.02-.02.05-.02.19-.06l-.58.43c-.42.34-.86.66-1.24 1.04-.74.74-1.53 1.4-2.36 2.02-.46.34-.9.7-1.34 1.06-.5.4-1.01.76-1.57 1.06-.75.41-1.48.86-2.25 1.25-1.24.63-2.5 1.23-3.76 1.84l-2.36 1.13c-.63.28-1.27.54-1.9.81-.54.24-1.09.46-1.61.71-1.04.52-2.12.94-3.22 1.3-.63.2-1.25.42-1.88.6-.35.1-.72.12-1.08.18zm.84.07l.54-.15c.1-.02.2-.02.3-.01-.27.13-.54.24-.84.16zm2.95-1.02c.87-.3 1.7-.69 2.53-1.07.9-.41 1.82-.78 2.74-1.16l.29-.12 4.5-2.2c.54-.25 1.1-.48 1.63-.76 1.13-.6 2.25-1.2 3.36-1.84.4-.23.74-.56 1.11-.84.65-.5 1.3-.97 1.94-1.48.42-.33.83-.7 1.21-1.07.53-.52 1.09-1 1.67-1.45l.25-.13c-.23.35-.41.6-.57.87-.24.39-.52.73-.9 1-.19.12-.35.28-.51.43a30.29 30.29 0 01-4.1 3.18c-.24.17-.51.3-.78.44-1.3.67-2.62 1.35-3.94 2-.72.36-1.47.67-2.22 1-.9.4-1.82.77-2.73 1.17-1.4.6-2.77 1.23-4.2 1.75-.6.21-1.23.38-1.85.56-.07.02-.14.02-.2.02l.77-.3zm-.17.33c.81-.22 1.6-.51 2.38-.84L31 12.62c.89-.37 1.76-.76 2.65-1.12 2.38-.96 4.62-2.18 6.9-3.34.85-.43 1.6-1.02 2.35-1.58.87-.64 1.74-1.29 2.5-2.06l.08.07-.65.79a22.5 22.5 0 01-4.55 3.87c-.55.33-1.1.67-1.68.96-.66.33-1.34.61-2.01.92-.2.1-.42.17-.62.27-.9.46-1.84.8-2.78 1.18l-1.21.48c-1.34.53-2.71.97-4.12 1.32-.6.15-1.18.34-1.78.47-.54.12-1.1.19-1.66.2l1.22-.32zm-2.04 1.33a.7.7 0 01.53.11l-.53-.1zm.54.12a.8.8 0 01.55.1c-.2.05-.38 0-.55-.1zm8.86 2.97c.2.08.41.13.6.23l2.1 1.17.01.01 1.18.7.03.01.39.23a323.48 323.48 0 018.46 5.17l.5.32 2.1 1.34c1.24.85 2.42 1.77 3.54 2.77.66.59 1.34 1.15 2.01 1.73-1.4-.98-2.84-1.9-4.28-2.82h-.01c-.57-.4-1.13-.8-1.7-1.18l-2.8-1.9-1.78-1.22a125.74 125.74 0 00-3.9-2.52c-1-.6-2-1.22-3.01-1.8-.94-.53-1.89-1.06-2.75-1.72l-.69-.52zm2.6 1.1l.39.16c1.74.81 3.43 1.72 5.06 2.73 1.55.96 3.1 1.9 4.63 2.88.72.47 1.4 1.03 2.1 1.55l.18.17c-.05-.01-.1-.02-.15-.05l-.37-.21a173.72 173.72 0 00-8.63-5.27l-1.77-1a.5.5 0 00-.2-.12l-.19-.1c-.15-.17-.36-.24-.53-.37l-.52-.37zm7.94 8.15a18.5 18.5 0 01-3.1-2.12l-.25-.26.31.2 3.04 2.08.23.18c-.08-.02-.16-.04-.23-.08zm2.8 1.52c-.1-.04-.22-.07-.32-.13-.56-.3-1.12-.61-1.67-.93-.1-.05-.17-.12-.25-.2l.37.18c.48.25.96.5 1.43.77.16.08.3.2.45.3l.2.11-.2-.1zm3.16 1.39c-.67-.34-1.35-.67-2.01-1.02-.88-.47-1.74-.96-2.6-1.43a42.7 42.7 0 01-9.47-7.36c-.34-.34-.72-.64-1.08-.96l-.26-.24c.38.11.69.36 1 .59l3.33 2.53 2.41 1.82c.67.5 1.34 1.02 2 1.54a43.27 43.27 0 004.32 2.87l2.4 1.5c.12.08.21.19.32.29l-.36-.13zm5.15 2.4l-.06-.02c-.15-.05-.3-.08-.43-.14a29.82 29.82 0 01-4.27-2.4 34.82 34.82 0 00-2.4-1.51 38 38 0 01-5.12-3.44c-.45-.37-.93-.7-1.4-1.06l-4.38-3.32-.18-.17c.12.05.25.08.35.15l3.19 1.95.22.15c1.74.97 3.32 2.17 4.99 3.24 1.33.86 2.61 1.77 3.9 2.68.52.36 1.05.7 1.58 1.04.06.04.13.06.2.09l3.82 2.72-.01.04zm-16.1-12.96a28.8 28.8 0 0111.92 7.66l.2.26c-.09-.06-.19-.12-.27-.19-1.4-1.05-2.77-2.17-4.23-3.16a52.97 52.97 0 00-7.34-4.3c-.2-.1-.38-.22-.56-.32.09.01.19.02.28.05zm-1.24-.28c.39.2.79.38 1.18.56a53.9 53.9 0 014.86 2.66c2.2 1.31 4.26 2.82 6.29 4.37 1.23.95 2.36 2 3.36 3.19.52.62 1.07 1.21 1.6 1.82l.21.27c-.4-.22-.68-.55-.96-.89-.1-.15-.2-.28-.38-.33-.1-.1-.18-.23-.28-.33A73.83 73.83 0 0046 26.05c-.88-.64-1.83-1.2-2.77-1.78-1.3-.79-2.6-1.57-3.91-2.32a53.05 53.05 0 00-5.68-2.77c-.15-.06-.28-.15-.43-.24 1.39.46 2.8.86 4.1 1.53z" fill="#A5A5A5"/></svg>