<svg width="195" height="276" fill="none" xmlns="http://www.w3.org/2000/svg"><mask id="a" maskUnits="userSpaceOnUse" x="0" y="0" width="195" height="276"><path fill="#181A1D" d="M0 0h195v276H0z"/></mask><g mask="url(#a)" fill="#F5F0F0" fill-opacity=".08"><path d="M157.84 338.8c.24-.03.36-.2.44-.4.05-.13.09-.25.1-.37.22-2.02.67-4 1-6 .47-2.8.93-5.6 1.3-8.4.33-2.52.47-5.05.34-7.6.19-1.36.22-2.73.12-4.1l.1-.35a2.36 2.36 0 00-.11-.23 23.5 23.5 0 00-.04-5.49c.14-.96.11-1.9-.07-2.86.11-.19.07-.38-.02-.56.12-.2.07-.39-.03-.57-.05-.84.08-1.7-.17-2.52.03-1.57-.07-3.12-.45-4.65.08-1.45-.36-2.83-.63-4.23-.39-2.02-.69-4.07-1.35-6.03-.25-1.15-.46-2.3-.73-3.45-.99-4.1-2.03-8.2-2.56-12.4l-.6-4.38c.02-.17.08-.34.06-.5-.28-2.33-.2-4.65.26-6.96l.67-3.62c.89-4.7 1.76-9.4 2.66-14.1.62-3.2 1.23-6.4 2.21-9.51.17-.53.28-1.07.27-1.63l.37-.8c.14.03.27.07.4.12l-.26 2.9c-.2 2.54-.5 5.07-.5 7.61-.03.6-.1 1.19-.1 1.78 0 4.28 1.34 8.36 1.91 12.55.04 1.71.45 3.34 1.16 4.89-.12.32.05.56.2.8l.11.25c.72 2.48 1.44 4.96 2.7 7.24 1.02 1.85 2 3.73 3.17 5.51 1 1.52 1.95 3.07 3.08 4.5.18.31.25.71.69.8.03.08.07.15.12.2l.26.45c1.56 2.13 3.44 3.97 5.2 5.92.08.2.2.34.44.35.03.07.07.14.12.2 1.1 1.35 2.2 2.7 3.31 4.03l2.97 3.93c.13.25.23.53.58.56.81 1.38 1.84 2.63 2.5 4.1.2.48.55 1.02 1.1.84.62-.2.4-.85.33-1.34a98.53 98.53 0 01-.76-8.45c-.09-2.16-.19-4.32-.43-6.46-.14-1.25-.12-2.54-.64-3.73-.06-.62-.08-1.25-.39-1.82a6.46 6.46 0 00-.63-2.85c-.01-1.54-.5-2.97-.95-4.42a1.7 1.7 0 00-.1-.22c.16-.3-.02-.55-.16-.8-.07-.72-.4-1.36-.64-2.02-.68-1.75-1.09-3.6-2.07-5.23-.64-2.19-1.9-4.07-3.02-6.02-.03-.06-.15-.08-.22-.11-.5-.89-.95-1.81-1.53-2.65-1.33-1.9-2.7-3.77-4.1-5.63-.78-1.03-1.48-2.14-2.44-3.04-.21-.36-.4-.75-.65-1.08a58.2 58.2 0 01-4.75-7.31c-.15-.44-.23-.92-.45-1.31a34.22 34.22 0 01-2.25-5.35c-.22-1.3-.58-2.6-.11-3.93.09-.25.05-.58-.09-.85.1-.21.06-.41-.05-.6.15-1.18.17-2.39.46-3.52.85-3.37 1.81-6.71 2.73-10.06a.67.67 0 01.16-.36.36.36 0 00.14-.15c.05-.1.09-.2.1-.3l.01-.01c.1-.1.14-.2.1-.34.1-.1.14-.21.1-.34l2.93-7.61c.17-.12.3-.26.28-.49v-.01c.05-.1.09-.22.11-.33v-.01c.05-.11.08-.22.1-.33l.01-.02c.04-.1.08-.22.1-.33v-.01c.05-.11.08-.22.1-.33l.93-2.2c.22-.6.36-1.23.66-1.77 1.05-1.9 1.32-4.06 2.1-6.04.09-.1.2-.18.25-.3 1.43-3.48 2.88-6.96 4.44-10.39.03-.12.07-.24.14-.35l.28-.49.15-.33c.07-.04.13-.1.17-.16.12-.07.14-.17.13-.3.03-.11.06-.23.12-.33.18-.1.31-.25.3-.48.05-.12.08-.24.13-.34.1-.09.14-.2.12-.33.17-.12.3-.26.28-.49l3.57-6.86.4.13-.31 1.22-2.25 7.63.02.01c-.1.1-.13.22-.1.36l.1-.35c.02.13-.06.23-.1.35-.13.2-.2.43-.18.68-.2.32-.32.66-.31 1.04-.4 1.03-.6 2.1-.66 3.2-.3.74-.35 1.53-.44 2.32v.02c-.15.17-.11.36-.04.55-.26.5-.22 1.05-.22 1.6-.05.41-.12.83-.13 1.25-.18 4.57.82 8.97 2.06 13.32-.14.39.08.7.23 1.02.01 1 .3 1.95.65 2.88.59 2.79 1.51 5.46 2.85 8-.09.7.45 1.14.68 1.72l.6 1.12c.52 1.95 1.7 3.58 2.6 5.34.1.22.34.36.53.53.43.97 1.24 1.66 1.9 2.46.09.2.22.34.45.37.03.07.07.13.13.19.62 1.22 1.82 1.91 2.72 2.88.32.45.72.8 1.17 1.12.67.73 1.37 1.44 2.14 2.07.04.07.1.14.2.18.03.07.07.14.12.2.1.2.23.35.46.37l.26.42c.09.19.22.33.45.35.04.07.08.14.14.2.09.2.22.34.44.35l.26.42c.1.28.35.4.58.56.56.32.7 1.04 1.29 1.35.13.35.4.58.7.78.1.19.24.33.47.34.37.71.72 1.45 1.54 1.78 1.2 1.9 2.11 3.93 3.06 5.92.26-.05.26-.17.29-.3.63-3.23.26-6.47-.04-9.71a68.92 68.92 0 00-.4-6.16 20.58 20.58 0 00-.46-4.68c-.05-.46.06-.93-.16-1.37 0-.36-.04-.71-.26-1.02a.97.97 0 00-.09-.2c.11-.21.07-.4-.04-.6 0-.35-.04-.7-.27-1a7.55 7.55 0 00-.84-2.73c.17-.51-.24-.84-.4-1.25a39.4 39.4 0 00-2.91-5.98l-.24-.45-1.2-2.25a2591.07 2591.07 0 00-1.21-2.25l-2.4-4.48a.76.76 0 00-.47-.4l-.25-.42-2.17-4.05-4.72-8.79-1-2c-.3-1.1-.6-2.2-1.15-3.21-.19-1.21-.55-2.37-1-3.5.1-.27-.03-.5-.1-.74-.76-2.66-1.42-5.33-1.18-8.13.1-1.23.25-2.45.38-3.68 1.22-2.64 1.78-5.51 2.82-8.22.05-.11.07-.23.12-.34l2.4-5.68c.54-1.23 1.26-2.38 1.63-3.69.43-.34.5-.87.7-1.32.78-1.77 1.83-3.4 2.38-5.28l3.23-6.39.37.11a52.43 52.43 0 00-.8 8.83c-.12.19-.08.38.01.57-.11.2-.07.38.02.57a25.5 25.5 0 00.12 5.67.92.92 0 01-.05.38c0 .07.03.14.07.2 0 .12-.01.25-.05.37.01.08.04.16.08.23-.1.1-.11.21-.07.34l.07-.34-.07.34c.01.07.03.14.07.2-.1.22-.05.42.04.61-.11 2.1.47 4.1.95 6.12.02 1.1.2 2.16.54 3.19-.02.65.2 1.25.44 1.84l.2.42c-.1.21-.05.4.06.58a152.44 152.44 0 01.2.45c-.1.21-.05.4.07.58.46 1.86.83 3.73 1.73 5.45-.03.49.2.9.41 1.31.41.8.9 1.56 1.2 2.4.47 1.4 1.23 2.67 1.7 4.07.36.7.36 1.52.87 2.14.81 2.18 2.04 4.14 3.25 6.11.56 1.36 1.52 2.47 2.25 3.72l.24.45a15.32 15.32 0 002.38 3.16c.08.14.2.26.34.34l.26.42c.09.19.21.34.44.35.81 1.16 1.75 2.2 2.85 3.1l1.88 1.9c.1.19.22.33.45.34a17.2 17.2 0 002.13 2.33c.14.35.4.59.7.78.78 1.1 1.77 1.97 2.71 2.9.1.19.23.34.47.34.51.85 1.4 1.35 2 2.11 1.92 1.9 3.87 3.78 5.58 5.89.23.28.48.6.88.7.4.1.59-.03.53-.44a1.4 1.4 0 00-.19-.47c-.68-1.2-.97-2.5-1.2-3.85-.79-4.54-1.53-9.08-2.61-13.57-.33-1.26-.58-2.54-1.12-3.74.16-.3-.01-.55-.15-.8l-.22-.45c-.27-1.74-.91-3.36-1.53-4.99-.3-.53-.23-1.2-.61-1.7a52.31 52.31 0 00-3.63-7.88c-.14-.26-.27-.54-.59-.62-1.14-2.26-2.67-4.27-4.1-6.35-.4-.6-.68-1.35-1.4-1.73-.3-.8-.93-1.4-1.43-2.06-.85-1.12-1.53-2.38-2.6-3.34a11.62 11.62 0 00-2.14-2.85c-.63-1.14-1.51-2.1-2.26-3.14l-2.05-3.19c-.06-.1-.2-.13-.31-.2l-3.52-6.51a93.3 93.3 0 01-2.6-7l-.25-1.12a56.23 56.23 0 01-1.23-8.28c-.03-.57.1-1.06.4-1.56a83.35 83.35 0 003.44-6.51 23.06 23.06 0 002.6-5.22c.62-1.9 1.4-3.74 2-5.64.58-1.9 1.52-3.69 1.85-5.68l.11-.33c.04-.12.06-.24.13-.35a17 17 0 001.56-4.61c.71-1.48.94-3.12 1.6-4.62l.36.1.1.23a90.83 90.83 0 00-1.38 8.27 32.3 32.3 0 00-.68 5.85 20.85 20.85 0 00-.03 5.82c-.12.2-.07.4.04.57.01.08.03.15.06.22.06 1.86.43 3.68.72 5.5.2 1.29.24 2.62.8 3.83-.1.2-.05.4.06.59l.08.24c.1 1.6.38 3.17 1.04 4.65.17 1.58.91 2.98 1.56 4.38.96 2.08 2.13 4.06 3.22 6.07.14.26.25.55.58.63a6.9 6.9 0 001.75 2.24 13.88 13.88 0 002.41 2.77 7.1 7.1 0 001.87 1.95l.27.38c1.44 1.68 3.01 3.23 4.58 4.79l1.87 1.9c.13.26.24.53.58.58l.14.2c.09.2.21.35.44.37l.26.4 1.29 1.34.7.8c.1.18.23.33.46.34.87 1.49 2.2 2.67 2.9 4.27.12.28.39.48.72.33.27-.13.25-.4.21-.66l-1.16-7.11c-.07-1.82-.48-3.6-.83-5.38a53.05 53.05 0 00-2.29-8.03c-.28-.62-.31-1.35-.74-1.91-.9-2.6-2.33-4.95-3.64-7.34-.4-.56-.48-1.36-1.18-1.71l-.24-.42c-.6-1.45-1.65-2.6-2.42-3.94-.93-2.02-2.38-3.74-3.33-5.74l-.46-.9a.7.7 0 00-.06-.6c-1.28-2.21-2.26-4.57-3.38-6.84-.75-1.44-1.17-3.03-2.03-4.41.16-.7-.4-1.17-.55-1.78-.4-1.5-.9-2.98-1.36-4.47-.4-2.2-.61-4.43-1.18-6.6-.04-1.22-.11-2.44-.12-3.66-.02-1.18.02-2.35.03-3.53.02-.12.05-.24.1-.36l.09-.34.3-.83a48.94 48.94 0 002.84-9.55 16.26 16.26 0 00.92-4.82c.41-.73.33-1.54.49-2.31.04-.12.08-.23.1-.34.54-2.72.87-5.48 1.79-8.11a.88.88 0 00-.03-.62h-.02c0-.14.05-.25.11-.36v.01c0-.12.04-.24.1-.34 0-.13.06-.25.1-.36.62-1.7.89-3.49 1.42-5.21.07-.23.03-.5.04-.75a40.34 40.34 0 001.38-5.94c.3-1.83.74-3.65.6-5.53a.76.76 0 01.07-.39c.03-.11.08-.23.1-.35.11-.83.17-1.67.34-2.48.08-.39.27-.07.39.06-.12.2-.07.38.03.56l.06 2.86c-.12.2-.08.4.02.58-.04 2.5-.12 5-.12 7.51 0 2.98.11 5.95.46 8.92.26 2.19.49 4.39 1.18 6.5-.11.2-.06.4.06.57l.2.47c-.04 1.1.39 2.07.78 3.06-.14.31.05.56.16.83l2.17 5.27a20.95 20.95 0 002.79 5.08c.8 1.35 1.72 2.6 2.84 3.7.25.36.31.88.83 1.02.4.8 1.1 1.33 1.67 2 .77.75 1.4 1.65 2.33 2.23.1.14.16.31.29.42 1.36 1.17 2.7 2.4 4.12 3.5.99.76 1.82 1.73 2.96 2.3.37.72 1.11 1.02 1.7 1.5 1.75 1.43 3.36 3.04 5.21 4.36.12.17.22.37.38.5 1.51 1.27 3.03 2.54 4.56 3.8l.33.14c.03.07.07.14.12.2.93.86 1.85 1.75 2.8 2.58 1.45 1.25 2.77 2.64 4.35 3.74.1.19.22.33.46.34 1.05.41 1.25.32 1.41-.66.07-.41.1-.82-.1-1.21-.24-1.73-.85-3.36-1.3-5.02-.63-2.28-1.17-4.6-2.1-6.78a48.5 48.5 0 00-2.87-8.04l-.57-1.12c0-.17.05-.36-.01-.5-.56-1.14-1.07-2.3-1.58-3.46-.74-1.67-1.7-3.24-2.56-4.85-.47-1.14-1.3-2.05-2-3.03-.64-.9-1.24-1.88-2.15-2.58-.13-.25-.24-.53-.58-.57a1.76 1.76 0 00-.13-.21c-.58-.95-1.46-1.63-2.2-2.45-1.31-1.47-2.69-2.9-4.04-4.36a9.99 9.99 0 00-1.99-2.12 27.95 27.95 0 00-3.89-4.02c-1.13-1.34-2.26-2.69-3.53-3.9-.15-.26-.27-.55-.46-.77-2.16-2.41-3.78-5.21-5.62-7.86l-.72-1.35-1.32-2.48c-.33-1.26-.98-2.38-1.59-3.5a28.48 28.48 0 00-1.92-4.17c-.34-1.2-.71-2.4-.79-3.65.2-1.45.53-2.88.57-4.35l.07-.34a.47.47 0 00-.06-.2l.08-.39c.02-.12.06-.23.09-.34.13-.2.09-.39.04-.59.04-.11.11-.23.13-.35a194.6 194.6 0 001.6-13.63c.2-2.46.68-4.88.72-7.34.13-.19.1-.38.01-.57.09-.1.11-.2.07-.33l-.07.34c.01-.12.04-.23.07-.34a.54.54 0 00-.07-.2.86.86 0 01.07-.38c.25-1.18.22-2.37.14-3.56.2-.48.1-1 .12-1.5.05-1.54.25-3.1.09-4.64.32-.6.17-1.25.19-1.86.04-1.37.32-2.75.06-4.13.18-.76.1-1.52 0-2.28.1-1.07.02-2.13-.06-3.2 0-.76.21-1.53-.02-2.3.1-1.44.02-2.88-.06-4.33.03-1.8.03-3.58-.21-5.37-.03-.7 0-1.41-.09-2.1-.12-1.04 0-2.1-.35-3.1a.81.81 0 01.02-.38l-.04-.25c-.05-2.2-.06-4.4-.17-6.6-.1-1.65-.14-3.3-.53-4.92-.06-1.3.05-2.6-.3-3.87-.01-.65-.02-1.3-.24-1.93l-.55-3.18c0-.62-.1-1.22-.3-1.8a7.09 7.09 0 00-.35-2.2c-.25-1.78-.39-3.58-.8-5.33a.6.6 0 00-.05-.6.3.3 0 00-.07-.19c.1-.21.05-.41-.07-.6a.29.29 0 00-.06-.2c.1-.2.03-.4-.1-.57a.4.4 0 00-.07-.24c.13-.3-.02-.56-.16-.8a.48.48 0 00-.06-.25l-1.03-4.98-.09-.81.2-.7-.84-1.57-.24.14c-.4-.1-.52-.53-.83-.74-.35-.25-.67-.52-1.13-.27-.45.23-.55.65-.49 1.07.15.99.2 2 .59 2.94a34.47 34.47 0 00.94 5.57c-.12.2-.06.39.05.57 0 .07.02.14.07.2-.1.21-.06.4.06.6 0 .07.02.14.07.19-.1.22-.05.41.07.6 0 .08.02.14.06.2-.1.21-.05.41.07.6.55 5.06 1.2 10.1 2.07 15.1.16.87.24 1.77.65 2.58 0 .17-.03.34.01.5.56 2.3.79 4.66 1.2 6.99.37 2 .34 4.04.57 6.05l.01 4.92a14.21 14.21 0 00-.17 3.5 44.51 44.51 0 00-.37 5.2c-.13.19-.1.38-.02.57-.08.1-.1.22-.06.34v.01c-.16 1-.25 1.99-.23 2.99a.97.97 0 00-.08.85l-.04.4-.54 4.94a12.48 12.48 0 00-.44 3.1c-.45 1.37-.59 2.8-.85 4.22-.74 3.9-1.56 7.8-2.52 11.66l-2.02 8.13v.02c-.09.1-.13.2-.1.34l-.13.36c-.16.44-.32.88-.46 1.32l-1.8 5.72c-.05.1-.07.23-.13.34v-.01c-.1.1-.14.2-.11.34-.18.11-.3.25-.3.48v.01l-.11.34c-.04.11-.06.24-.13.34v-.01c-.1.1-.14.21-.11.35-.1.1-.13.2-.1.34h-.03c-.4.27-.42.72-.55 1.11-.31.97-.69 1.92-1.23 2.78-.78 1.23-1.2 2.61-1.74 3.94-1.46 3.6-2.8 7.25-4.9 10.57-.22.34-.51.68-.53 1.13l-.17.2c-.11.08-.14.19-.11.32-.04.11-.07.23-.13.33-.18.1-.31.25-.3.48v.01l-.13.33-.16.35c-1.37 1.92-1.84 4.2-2.6 6.37a14.07 14.07 0 00-1.53 3.68c-.03.12-.03.25-.12.35h-.01c-.3.48-.51 1.03-.51 1.55 0 1.04-.6 1.48-1.41 1.84-1.09.25-2.2.28-3.3.35-2.2-.18-4.3-.77-6.41-1.28a.62.62 0 01-.39-.1c-.54-.43-1.21-.59-1.86-.8-1.93-.65-3.77-1.54-5.73-2.1-.48-.29-.95-.58-1.54-.61a13.08 13.08 0 00-3.57-1.32c-1.1-.69-2.35-.91-3.59-1.2-1.33-.67-2.8-.86-4.23-1.2-1.87-.46-3.73-1-5.67-1.13a1.81 1.81 0 00-1.02-.22h-.02c-.18-.15-.38-.11-.57-.07-1.54-.38-3.1-.57-4.69-.62-.3-.15-.6-.12-.92-.1-.19-.11-.38-.08-.57-.03a13.56 13.56 0 00-3.84-.23l-.4-.05c-.2-.12-.38-.08-.57 0-.1-.07-.2-.1-.32-.05l.31.06-.31-.06a.26.26 0 00-.2.04c-.13.02-.26 0-.38-.04a.24.24 0 00-.2.05.86.86 0 01-.37-.03.25.25 0 00-.2.04l-.4-.06h.01a1.7 1.7 0 00-1.14.03c-2.2-.13-4.4.05-6.61.18-4.37.24-8.71.73-13 1.6a6.59 6.59 0 00-2.39.41c-1.41.19-2.82.4-4.2.78-1.67.23-3.35.45-5.01.7-.92.15-1.86.18-2.74.55-.8-.06-1.57.18-2.35.33-.57.1-1.16.21-1.7.42-.72.28-.8.76-.19 1.2.71.5 1.43 1.03 2.35 1.13.11.17.25.3.48.29 1.32.6 2.65 1.2 4.05 1.6v.01c.12.04.22.1.34.12 1.41.7 2.89 1.22 4.39 1.69a67 67 0 006.79 2.5c1.53.6 3.03 1.27 4.6 1.77 1.6.5 3.09 1.34 4.77 1.63v-.01l.36.14c.25.35.65.37 1 .5 1 .38 2 .7 3 1.06 1.6.57 3.2 1.12 4.88 1.43a3.6 3.6 0 001.93.47c1.37.55 2.82.75 4.28.92 2.48.64 5.02.86 7.57 1 1.52.08 3.04.27 4.57 0 1.69.14 3.36-.06 5.02-.35 1.2.03 2.37-.21 3.54-.47 1.45-.1 2.85-.44 4.25-.77 2.27-.54 4.56-1 6.74-1.87 1.32-.19 2.53-.73 3.77-1.2a41.88 41.88 0 008.57-4.03c.77-.24 1.28-.85 1.92-1.28.3-.2.71-.27.8-.7l.41-.2c.05.53-.35.84-.61 1.22-1.5 2.16-2.7 4.51-4.08 6.75-.52.61-.99 1.26-1.21 2.06-.3.27-.55.57-.65.97a55.78 55.78 0 01-7.49 1.68c-1.59.07-3.18 0-4.77.22h-.01a.3.3 0 00-.34-.05l.33.06a2.13 2.13 0 01-.33-.06.38.38 0 00-.2.06.9.9 0 01-.38-.05c-1.02 0-2.05-.06-3.06.13l-.37-.04a.37.37 0 00-.2.06l-.37-.05a.37.37 0 00-.19.06l-.38-.03c-2.02-.07-4.04-.22-6.06.01-1.46-.16-2.88.12-4.31.27a34.2 34.2 0 00-6.27 1.05c-1-.02-1.93.25-2.84.62-.2-.1-.4-.05-.59.07a.85.85 0 00-.21.09c-1.4.17-2.76.52-4.08 1.01-.31-.12-.56.03-.81.18-.09.03-.17.05-.25.09-.2-.11-.39-.03-.56.08-.55.2-1.17.21-1.68.54-1.53.34-3.01.84-4.43 1.52-.5-.17-.84.23-1.25.4l-.45.24-.44.2c-.21-.07-.41-.02-.61.07-1.86.82-3.74 1.58-5.49 2.62-.37-.14-.65.08-.95.24l-3.47 1.85-.67.36-1.36.73a67.52 67.52 0 00-6.41 3.71c-.37.22-.75.4-1.1.64-1.85 1.25-3.69 2.52-5.53 3.78-.42.3-1.05.33-1.24.94l-4.95 2.64c-.52-.19-.84.23-1.24.4l-.46.23c-.52.16-1.09.18-1.54.55-.13.1-.24.24-.19.42.05.18.18.28.36.3l1.52.09c1.83.2 3.64.61 5.5.56.12 0 .23.05.34.1.12.02.24.05.35.09l1.26.18c.08-.02.15-.05.22-.09 1.72.55 3.52.52 5.29.65 2.77.39 5.57.46 8.36.46.57.14 1.14.11 1.71-.03 1.26.03 2.52.26 3.78 0l2.85-.12c3.85-.12 7.65-.63 11.4-1.44.5-.1 1.01-.15 1.45-.44 1.1-.04 2.07-.5 3.08-.83l.44-.2c.42.15.7-.14 1.02-.3l.88-.4c1.07-.1 2-.66 2.92-1.1 2.85-1.38 5.61-2.94 8.4-4.43l4.28-2.3c.86-.57 1.95-.75 2.6-1.64 1.47-.71 2.84-1.58 4.15-2.54.95-.37 1.68-1.1 2.5-1.67 1-.71 2.08-1.36 2.89-2.33a6.73 6.73 0 002.05-1.67 19.7 19.7 0 003.53-3.09c.19-.06.38-.16.56 0-.44.3-.56.81-.77 1.26-1.94 2.9-4.14 5.62-6.3 8.36-.18.23-.39.45-.42.76-.08.04-.14.1-.2.15-.05.11-.1.23-.17.32-.82.76-1.43 1.69-2.1 2.57-.1.07-.23.13-.31.22-2.34 2.8-4.78 5.52-6.84 8.55-.2.1-.34.24-.38.47-.52.31-.86.8-1.24 1.25a61.56 61.56 0 00-6.53 9.04l-1.9 2.43c-.56.65-.93 1.5-1.82 1.8-.64.22-1.27.45-1.92.6-2.22.5-4.44.97-6.65 1.45a13.15 13.15 0 00-3.07.77c-2.11.54-4.23 1.06-6.33 1.64-.77.2-1.6.17-2.3.6l-.01.01c-.2-.11-.38-.05-.55.06-1.43.35-2.89.6-4.2 1.33-1.2.23-2.34.65-3.41 1.24-1.01.01-1.72.75-2.59 1.1-1.11.03-1.88.85-2.83 1.24a25.62 25.62 0 00-4.18 1.95 176.1 176.1 0 00-11.44 6.4c-.22.13-.45.25-.5.54l-1.35.74c-.42.3-1.04.34-1.24.94a66.27 66.27 0 00-9.96 7.37c-.19.1-.34.22-.34.45-.87.4-1.47 1.13-2.17 1.73a80.53 80.53 0 00-4.53 4.17c-1.16.86-2.29 1.75-3.48 2.55-1.6 1.07-2.92 2.57-4.85 3.12a.49.49 0 00-.36.6c.06.25.31.25.53.24l.25-.01 9.42-1.5c1.47-.04 2.9-.25 4.33-.58 2.51-.2 4.94-.83 7.4-1.36 2-.33 3.94-.89 5.87-1.48 1.65-.5 3.38-.79 4.9-1.65.32.14.57-.05.84-.16.85-.35 1.7-.73 2.57-1.03 1.79-.62 3.55-1.3 5.19-2.26.44.02.82-.14 1.2-.34l6-3.22c.3-.15.63-.27.72-.65.3-.16.58-.33.87-.5 1.64-.8 3.17-1.76 4.55-2.96.9-.47 1.77-1 2.53-1.7.3-.18.7-.25.8-.68l.43-.26c.3-.18.7-.26.8-.7a.81.81 0 00.2-.12c.52-.18.84-.63 1.23-.97 1.2-.88 2.28-1.9 3.35-2.93l.6-.44c.77-.6 1.3-1.45 2.18-1.92l.36.11-4.4 6.64c-.17.25-.33.5-.35.8-.35.26-.56.63-.79.98l-4.55 6.85-.12.33a23.43 23.43 0 00-3.07 5.68c-.73 1-1.15 2.17-1.7 3.27-.26.52-.58 1.03-.78 1.58a7.54 7.54 0 01-3.5 4.14c-1.67.97-3.33 2-5.22 2.54-.82.25-1.64.48-2.37.96-.31-.17-.55.02-.8.16l-.45.23-.11.04-.1.06c-.32-.16-.56.02-.81.15l-.22.11c-.3-.16-.55.02-.8.15l-.45.22c-.3-.15-.55.03-.8.16l-.45.23c-.3-.16-.55.01-.79.15l-.68.34c-.3-.16-.55.02-.8.16l-.67.33c-.3-.15-.55.03-.8.16-1.45.58-2.92 1.1-4.33 1.76-1.6.76-3.14 1.66-4.7 2.5h-.01c-1.28.49-2.25 1.5-3.45 2.1-1.94.98-3.6 2.36-5.38 3.58-.55.38-1.32.6-1.62 1.33a31.25 31.25 0 00-5.25 4.27c-1.3.97-2.37 2.17-3.52 3.3a46.5 46.5 0 00-4.7 5.16c-2.23 2.28-3.86 5.02-5.87 7.47-.86.68-1.4 1.7-2.43 2.2-.2.1-.35.3-.26.52.1.22.34.21.55.14l2.88-.95c.43-.15.89-.22 1.33-.38 1.29-.48 2.6-.9 3.89-1.43 1.24-.5 2.5-.93 3.71-1.52a49.5 49.5 0 006.21-3c.53.16.9-.2 1.28-.42 3.13-1.78 6.4-3.27 9.44-5.25 1.48-.96 3-1.9 4.52-2.81.75-.46 1.5-.95 2.17-1.5.58-.48 1.38-.7 1.74-1.42.37-.2.78-.37 1.1-.63 2.58-2.07 5.28-3.97 7.68-6.25 1.16-1.1 2.5-2.02 3.4-3.4l.21-.12c.78-.42 1.18-1.21 1.76-1.82 2.02-2.11 3.92-4.33 5.76-6.6l1.86-2.32c-.3 1-.76 1.9-1.21 2.8a52.77 52.77 0 01-4.43 7.25c-1.1 1.51-2.34 2.92-3.07 4.67a.84.84 0 00-.44.8c-.2.23-.43.42-.57.67a75.86 75.86 0 01-4.59 7.26c-.17.24-.33.49-.32.8-.58.45-.83 1.1-1.09 1.75l-.2.14c-.05.1-.08.22-.11.33l-.12.35c-.87.7-1.06 1.85-1.75 2.68l-.1.34-.33.47c-.6.82-1.02 1.76-1.48 2.67-1.24 2.46-2.32 5-3.36 7.54-1.26 3.1-2.6 6.17-3.66 9.36-.42 1.24-.92 2.46-1.39 3.69l-.1.33-.1.35-.11.34-.1.35c-.04.12-.07.24-.12.35-.02.11-.06.23-.1.34-.03.12-.05.24-.1.35h-.01c-.08.15-.18.3-.22.45l-2.35 7.7c-.32 1.05-.63 2.1-1.08 3.12-.45 1-.68 2.1-1 3.16-.09.3-.16.63.17.8.28.13.46-.1.63-.3.52-.62 1.02-1.25 1.56-1.85 3.08-3.39 6.17-6.77 9.27-10.15.22-.25.47-.49.53-.84a8.73 8.73 0 002.33-2.7l.2-.13c.2-.1.34-.22.34-.46.19-.1.33-.23.34-.46l.22-.13c.18-.1.32-.23.34-.46.74-1.01 1.5-2.02 2.1-3.14l.2-.13c.02-.12.08-.23.12-.34l.2-.13.12-.33c.18-.1.32-.24.33-.47.18-.1.32-.24.33-.47.18-.1.32-.23.33-.46l.32-.48c.03-.12.08-.23.13-.34.07-.03.14-.07.2-.12.03-.12.08-.23.14-.35.17-.1.31-.24.31-.46l.2-.14c.05-.1.09-.22.12-.33.03-.12.08-.23.14-.34a8.96 8.96 0 001.5-2.56c.97-1.4 1.62-2.97 2.34-4.5.93-2 1.87-3.99 2.42-6.13.54-1.35.96-2.73 1.25-4.16.81-2.34 1.7-4.66 1.97-7.15.1-.85.65-1.31 1.4-1.6a34.71 34.71 0 004.89-2.35l.45-.24a22.69 22.69 0 004.18-1.94c.98-.54 2.13-.68 3.05-1.34.88-.61 1.95-.77 2.88-1.26 1.34-.7 2.67-1.42 4-2.13l3.84-2.05c.87-.57 1.96-.78 2.63-1.67 1.8-.93 3.38-2.23 5-3.43.57-.42 1.3-.66 1.67-1.33a5.9 5.9 0 002.06-1.64c1.05-.66 2-1.42 2.81-2.36a36.31 36.31 0 005.65-5.08l.2-.16c.21-.08.36-.2.4-.44.38-.19.67-.5.97-.8 1.18-1.15 2.41-2.25 3.56-3.43 1.98-2.02 4.1-3.92 5.8-6.2a1 1 0 00.19-.15c.2-.1.35-.23.38-.46.11-.07.24-.12.32-.2 2.16-2.33 4.4-4.58 6.34-7.1.2-.24.31-.63.74-.61.07.18-.02.32-.09.48l-2.61 6.03c-.81 1.72-1.6 3.44-2.43 5.15-.66 1.36-1.42 2.68-1.89 4.13a.75.75 0 01-.15.35c-.67.8-.94 1.8-1.38 2.7-.95 1.93-1.95 3.84-2.69 5.87-.25.34-.52.68-.55 1.13-.97 1.55-1.63 3.24-2.4 4.88-.54 1.18-1.25 2.3-1.52 3.6a.46.46 0 00-.15.16c-.11.07-.14.18-.12.3-.03.12-.06.24-.12.34l-.16.37a.37.37 0 00-.14.14c-.11.08-.14.19-.12.31a253.99 253.99 0 00-.42.86c-.05.1-.09.2-.11.3-.04.13-.08.24-.15.35l-.28.5c-.05.1-.1.2-.13.31-1.76 3.27-2.94 6.78-4.4 10.18a11.17 11.17 0 01-4 3.59c-1.43.72-2.8 1.55-3.94 2.7-.64.44-1.47.58-1.95 1.27l-2.89 1.6-1.8.97-2.7 1.45c-1.8.83-3.38 2-5.07 3-.9.33-1.52 1.12-2.36 1.55-.48.23-.96.45-1.23.93l-.46.24c-1.14.48-2.06 1.32-3.07 2-2.32 1.6-4.54 3.34-6.8 5.03-.56.23-.93.71-1.4 1.07-1.01.8-2.06 1.57-2.93 2.53a.9.9 0 00-.26.28c-1.08.62-1.88 1.57-2.8 2.38a56.12 56.12 0 00-7.65 8.42 68 68 0 00-5.85 7.49c-.03.11-.06.23-.12.34-1.14 1.29-2.11 2.7-2.97 4.2-.58.66-1.03 1.41-1.42 2.2-.18.19-.38.35-.52.56-1.34 2.02-2.69 4.03-4 6.06-.7 1.11-1.33 2.26-1.98 3.4-.12.21-.26.49 0 .7.18.15.4.07.6-.03.26-.13.54-.25.78-.42 1.11-.74 2.4-1.06 3.62-1.56 1.52-.63 3.1-1.1 4.55-1.93.32-.08.68-.1.97-.26 1.83-.95 3.84-1.52 5.58-2.66.6-.3 1.28-.38 1.88-.7 2.36-1.3 4.75-2.56 7.13-3.83.36-.2.8-.3.96-.76l2.2-1.24c1.85-1.03 3.56-2.28 5.27-3.52.64-.47 1.48-.7 1.9-1.46a10.41 10.41 0 002.83-2.32l.42-.3c.2-.09.35-.21.38-.44a33.13 33.13 0 006.63-7.04c.19-.1.32-.24.34-.47.17-.18.37-.35.52-.55 1.58-2.1 3.19-4.18 4.72-6.31 1.01-1.41 2.14-2.73 3.03-4.23a45.9 45.9 0 003.08-4.54c1.05-1.49 2.12-2.96 3.16-4.46.48-.7 1.18-1.23 1.46-2.07.18-.1.32-.24.34-.47.42-.24.43-.8.83-1.06l.33-.13c0 .09.03.17.07.24v.02c-.06.1-.08.22-.13.33a.82.82 0 01-.12.34l.12-.34a.33.33 0 00-.13.34c-.1.1-.13.21-.1.35-.8 1.25-1.05 2.73-1.64 4.08-.45 1.03-.74 2.14-1.1 3.2-.05.12-.07.25-.14.35v-.01c-.1.1-.13.2-.1.35-.1.1-.13.2-.1.34-.1.1-.14.21-.12.34h-.01c-.23.15-.33.39-.4.63-.83 2.51-1.67 5-2.47 7.52-.67 2.1-1.1 4.29-2.57 6.05l-.18.18c-.2.08-.33.21-.35.44-1.11 1.06-2.09 2.24-3.1 3.4-.42.4-.88.79-1.28 1.22a733.92 733.92 0 00-4.91 5.53c-1.24 1.4-2.53 2.74-3.63 4.26l-4.47 5.07c-.28.1-.4.34-.55.58-.77.64-1.45 1.37-2.02 2.2a30.6 30.6 0 00-3.44 3.89c-.18.09-.33.22-.33.44-1.37 1.54-2.75 3.08-3.78 4.88a20.1 20.1 0 00-3.44 5.04c-.36.35-.68.72-.73 1.25-.53.5-.72 1.19-1.06 1.8-.66.82-1.03 1.79-1.43 2.75-.03.12-.07.25-.14.36a.86.86 0 00-.18.13 9.54 9.54 0 00-.25.68.77.77 0 00-.17.13l-1.76 3.23c-.04.11-.05.24-.12.34-.31.19-.44.47-.43.82a9.53 9.53 0 00-1.51 3.13c-.12.12-.3.21-.35.36-.4 1.01-.8 2.03-1.15 3.07a67.3 67.3 0 01-2.04 5.31c-.11.26-.4.47-.24.78 1.09 0 2-.38 2.78-1.15.17-.17.43-.26.66-.36 1.17-.52 2.04-1.5 3.19-2.05.09-.04.11-.21.17-.32l.45-.25c1.02-.5 1.89-1.22 2.7-2 .49-.37 1.19-.43 1.46-1.08.36-.25.86-.32 1.02-.82.36-.26.86-.34 1-.84.3-.18.68-.27.78-.68 1.35-.85 2.42-2.02 3.54-3.13a37.5 37.5 0 005.68-6.18c.18-.1.32-.24.34-.47a.72.72 0 00.2-.15c.05-.11.09-.22.16-.32a.5.5 0 00.17-.14c.04-.11.09-.23.16-.33a.53.53 0 00.18-.12c.2-.1.32-.23.34-.45.18-.1.32-.24.32-.47.97-.93 1.57-2.1 2.27-3.21a55.77 55.77 0 003.83-7.02c.36-.64.77-1.26.99-1.97.44-.73.8-1.51 1.08-2.32.04-.13.09-.25.16-.35 1-1.8 1.86-3.69 2.71-5.56.68-1.5 1.52-2.91 2.04-4.47.47-.6.73-1.29.95-2 .03-.12.04-.25.12-.35l-.12.35c.1-.1.14-.21.12-.35h.02c.56-.6.68-1.44 1.14-2.1l.36.1c-.3 1.33-.64 2.65-.89 3.98-1 5.3-2.11 10.56-2.94 15.88-.22 1.43-.65 2.81-.7 4.27-.05.24-.14.48-.18.73-.3 1.9-.35 3.87-1.25 5.65-.13.26-.13.58-.19.87h.01c0 .13-.05.25-.13.36-.28.49-.38 1.03-.52 1.56-.52 2-.9 4.04-1.4 6.05-.51 2.08-1.08 4.17-1.3 6.32-.18.4-.19.82-.2 1.25-.22.71-.22 1.46-.28 2.19-.38 2.5-.55 5.03-.64 7.56-.28 1.72-.22 3.46-.18 5.2.06 2.91.16 5.83.69 8.72-.1.47.03.92.16 1.37-.15.3.01.55.14.8-.12.2-.08.38.01.57-.11.2-.07.39.04.57l.2.45c.11 1.52.48 2.99.94 4.44-.07.63.14 1.23.3 1.82.34 1.2.3 2.5.88 3.63.04 2 .68 3.9 1.1 5.83.99 4.5 2.27 8.92 3.7 13.3.3.87.47 1.8 1.02 2.59.11.19.21.39.47.35zm7.73-95.03h.01zm16.1 11.68h-.13l.06-.12.06.12zm5.8-43.39l-.05-.08.1-.01-.06.1zm19.9 7.72v-.1l.08-.04c-.02.06-.06.09-.08.14zm-8.97-14.13l.05-.07.08.07h-.13zm4.37 2.19v-.02c-.02-.09.2-.25.34-.34l.04-.02c-.13.11-.25.24-.38.38zm-7.88-17.1l-.03.01-.04-.12.07.12zm-6.82-11.65l-.03-.08.06.05a.64.64 0 01-.03.03zm24.05 1.17l-.13-.05v-.08l.13.1v.03zm16.56 17.4l-.13-.07h.17l-.04.07zm-12.97-17.8v-.02s.02 0 .03.02h-.03zm3.1-8.8l-.05-.05.05-.04v.09zm9.15-30.75h-.05l.04-.05.01.05zm9.8 3.65v-.02.02zm-19-33.8h-.02l.02-.02v.02zM233.4-16.5a.51.51 0 01-.26.27c.1-.08.18-.17.26-.27zm-77.7 82.38h-.01v-.02l.01.02zm-39.08 38.93a.25.25 0 01.02-.27c.1-.15.26-.19.44-.19l.08.01c-.29.24-.48.33-.54.45zm19.15 1.51l-.25-.35a.43.43 0 01.27.03c0 .12 0 .23-.02.32zm31.67-8.75h-.01v-.02l.01.02zm5.05-6.85v-.16l.04.04a.2.2 0 01-.04.12zm6.41-6.48h-.06l.07-.04v.04zm-61.79 58.58c.22 0 .44-.01.64-.05-.2.1-.44.15-.64.05zm7.45 7.62l-.1.08.1-.14v.06zm2.25-8.23v-.08l.08.05-.08.03zm7.3-.16zm.73.82a.53.53 0 00-.03-.04l.04.02-.01.02zm-9.89 28.14h-.01l.01-.01zm-15.51 49.05l.2-.21a.3.3 0 01-.2.21zm14.01-16.1v0zm4.56-3.08l-.14-.05.2-.2-.06.25zm4.02-15.85l-.03-.13.07-.03a.4.4 0 01-.04.16zm24.24-60.84l.06.02h-.05v-.02zm-2.3 3.45h.02l-.03.03v-.03zm7.9 38.7v-.01zm-.35-9.4a.4.4 0 00.02-.04h.02c-.02 0-.03.03-.04.04zm2.84-4.03l-.01-.03h.05c-.02 0-.02.02-.04.03zm29.05-15.24c-.14.05-.27.08-.4.14-1.52.52-3.06.95-4.62 1.32-1.52.36-3.03.77-4.46 1.4-.34.2-.69.38-1.08.44-.19.05-.37.11-.55.19-.39.19-.78.38-1.22.47-.22.1-.43.2-.53.44-.03-.05-.06-.1-.11-.15-.66-.17-1.15.25-1.68.5-.22.13-.4.28-.58.43-.43.16-.82.45-1.24.63a.77.77 0 00-.61.08c-1.8.94-3.62 1.82-5.36 2.87a.9.9 0 00-.4-.08c-1.47.55-2.89 1.2-3.97 2.41a.94.94 0 00-.1.33c-1.6.82-2.99 1.91-4.42 2.94a2.04 2.04 0 00-.22-.08c-.45.08-.84.24-.94.76l.08.18c-.33.2-.74.3-.92.69a.99.99 0 00-.33 0c-.41.17-.86.3-.81.89.03.02.06.02.1.03l-.04.02c-.96.62-1.77 1.41-2.53 2.25a62.91 62.91 0 00-6.69 6.47l-1.34 1.29a136.36 136.36 0 00-6.82 7.3c-.93 1.07-1.97 2.06-2.76 3.26h-.16c-.11.06-.2.14-.26.24-.02.04-.01.09-.02.13-.5.45-.99.9-1.32 1.49-.22.14-.48.25-.53.55l-.03-.01c-.36-.09-.62.22-.95.4.94-3.63 1.55-7.18 2.08-10.75.35-2.43.6-4.89 2.04-7 .23-.34.48-.73.33-1.2-.03 0-.05-.02-.07-.03a4.74 4.74 0 001.88-3.05l.05-.01c1.38-1.4 2.13-3.2 3.14-4.82.1-.16.1-.35-.01-.52l.04-.01c.2-.15.37-.31.54-.49 1.63-2.31 3.23-4.64 4.75-7.02.06-.17.1-.34.12-.52v-.17l.07.03c.34-.03.52-.27.69-.52 2.05-3.02 4.22-5.97 6.3-8.97.23-.34.56-.67.38-1.16h-.03c.8-.74 1.41-1.63 2-2.53l.18.04c.4-.08.61-.4.85-.7 1.87-2.28 3.73-4.57 5.64-6.82.3-.35.65-.68.72-1.17a1.04 1.04 0 01-.08-.18 4.11 4.11 0 002.37-2.86c.1-.03.21-.07.3-.13l.44-.37c1.94-2.2 3.83-4.45 5.65-6.76.68-.85 1.63-1.52 1.9-2.67l-.04-.11c.16-.1.3-.22.37-.4.05-.01.1 0 .15-.03.14-.09.25-.2.35-.34.07-.09.14-.17.2-.27.1-.17.2-.34.24-.54.6.04.87-.43 1.18-.81a152.7 152.7 0 005.37-6.95c.28-.39.6-.77.57-1.3.74-.23.91-.98 1.31-1.53l.2-.45c.03-.07.03-.15.03-.23.07 0 .14 0 .2-.02.51-.27.83-.73 1.15-1.18 1.15-1.58 2.22-3.22 3.48-4.73.37-.45.78-.9.86-1.53l-.02-.25a4.4 4.4 0 002.17-3l.18-.1a4.8 4.8 0 00.55-.63l.33-.36c.47-.52.87-1.1 1.22-1.72-.28.54-.73 1-.53 1.7l.04.04a25.88 25.88 0 00-2.64 6.79h-.06c-.46.26-.55.65-.39 1.13l.06.04a26.93 26.93 0 00-1.44 5.33c-.38 1.08-.84 2.16-.82 3.34-.25.41-.33.88-.42 1.33l-1.27 6.36c-.29 1.45-.71 2.88-.83 4.37-.23.4-.18.83-.18 1.26h.01c0 .13-.05.24-.09.36l-.08.33c-.32 2.43-.4 4.87-.2 7.32-.04.46-.1.92-.1 1.39.06 2.24-.2 4.5.16 6.74-.02 1.1-.03 2.19-.06 3.28 0 .38-.08.76-.06 1.14.01.33.25.42.52.24.13-.1.24-.24.32-.39.93-1.7 2.13-3.24 2.91-5.02.8-1.1 1.4-2.32 1.84-3.61a.62.62 0 01.15-.37.42.42 0 00.16-.14l.1-.31c.04-.12.07-.24.13-.35v.01c.1-.1.14-.2.11-.34.18-.11.31-.25.3-.48v-.01c.04-.12.08-.24.14-.35a30.5 30.5 0 002.81-8.76c.04-.11.08-.22.1-.34.13-.72.48-1.4.36-2.15.07-.24.18-.48.22-.72.3-2.09.51-4.18.57-6.28.04-1.3.23-2.6.02-3.9.1-.2.07-.4-.03-.59.12-.2.08-.38-.02-.57.12-.2.08-.38-.01-.57.12-1.14.1-2.28-.08-3.41.19-1.14-.13-2.25-.13-3.38l.08-.08a2.37 2.37 0 00.04-.72 6.35 6.35 0 01-.04-.65v-.36-.25c-.01-.12-.02-.24-.05-.36a.6.6 0 00-.1-.22c-.1-.14.07-.2.1-.3l.08-.26c.05-.15.1-.3.13-.45.06-.25.05-.5.07-.76.17-2.47-.05-5.01 1.34-7.27.22-.35.27-.8.13-1.23l-.06-.1c.61-1 .97-2.07.86-3.25.4-.26.63-.64.79-1.07 1.01-2.74 2.41-5.28 3.77-7.85.25-.48.6-.92.51-1.51.67-.06.9-.65 1.1-1.13.99-2.21 2.18-4.32 3.21-6.51.17-.37.47-.75.13-1.17h.01c.2-.04.22-.15.14-.3v-.04c.46.07.59-.35.74-.68 1.69-3.7 3.25-7.47 4.77-11.25 1.5-3.74 2.79-7.56 4.13-11.35.39-1.09 1.04-2.16.73-3.4l-.01-.02.09-.08c.05-.09.1-.17.13-.26l.05-.13.13-.26.07-.13.15-.27c.75-2.07 1.4-4.16 1.89-6.3 0-.12-.01-.24-.04-.36l-.07-.14c.62-.3.67-.95.81-1.5 1.19-4.38 2.33-8.77 3.18-13.23.56-2.92 1.2-5.82 1.52-8.78-.02-.21-.06-.42-.07-.64v-.15l.07-.3.03-.15a.89.89 0 00-.02-.31c.65-.7.87-1.48.4-2.38l.06-.04c.08-.09.16-.18.22-.28.44-.7.35-1.54.54-2.31h.04c0 .09.02.17.04.25.02.07.08.1.12.15-.55 1.14-.28 2.36-.31 3.55-.02.57-.17 1.22.3 1.71-.31.44-.24.95-.22 1.44.05 1.58 0 3.15-.15 4.71-.4 3.89-.9 7.76-.8 11.69.1 3.4-.19 6.78-.65 10.16-.23 1.72-.62 3.43-.62 5.18 0 .19.02.37.05.55l.03.12c-.6.52-.43 1.32-.48 1.97-.1 1.16-.7 2.3-.18 3.5h-.06a20.2 20.2 0 00-1.16 6.52l.02.05c-.3.35-.37.8-.45 1.25-.42 2.65-.97 5.28-1.47 7.9-.16.86-.72 1.69-.24 2.6l.03.01c-.32.1-.45.36-.5.64-.31 1.76-.9 3.48-1.03 5.28l.02.32v.15l-.05.3-.02.14c-.02.1-.03.19-.02.28l.03.1h-.08c-.2.11-.3.29-.35.5-.63 2.79-1.51 5.51-1.99 8.34l-.03.35-.01.17v.35l.05.07c-.65.7-.8 1.53-.59 2.44l-.05.02c-.86 1.41-1.49 2.88-1.29 4.58a16.83 16.83 0 00-1.7 5.59c0 .05.05.1.1.15-.13.13-.23.28-.29.46-.83 2.61-1.6 5.24-2.39 7.86-.1.32-.16.65.02.96-.29.08-.4.34-.48.6-.69 2.31-1.7 4.52-2.34 6.86 0 .12.02.25.05.37.01.03.04.04.06.07-.83.94-1.36 2-1.23 3.27l-.05.02c-.22.16-.36.37-.45.61-1.63 4.8-3.78 9.37-5.66 14.06-.12.31-.37.64-.08.98h-.01c-1.2 1.11-1.47 2.72-2.14 4.1-1.8 3.74-3.14 7.69-5.28 11.27-.18.41-.6.28-.9.4-1.02.56-2.23.81-3 1.73zm4.75-33.06v.02c-.02 0-.02-.02-.02-.02h.02zm-1.87 3.05l.02.04-.02-.01v-.03zm-66.07 122l-.02-.02v-.01l.02.03zm3.4-9.08c.05-.11.12-.21.2-.31a.55.55 0 01-.2.3zm5.66 6.51zm-1.92-13.36l-.07.04.03-.12.04.08zm15.09 74.18c-.13.17-.27.22-.46.16.16-.03.31-.09.46-.16z"/><path d="M171.48 196.84l-.1.33a.3.3 0 00.1-.32zM171.37 197.19l-.1.33a.3.3 0 00.1-.33zM171.27 197.54l-.1.33a.3.3 0 00.1-.33zM171.16 197.88l-.1.33c.1-.09.14-.2.1-.33zM167.64 207l-.1.31c.1-.07.13-.18.1-.3zM179.6 175.12l.11-.3c-.1.08-.13.18-.11.3zM15.15 145.6c.16.05.28-.03.38-.12a.98.98 0 00.17-.2c.7-1.15 1.53-2.21 2.29-3.32 1.07-1.55 2.13-3.1 3.14-4.68.9-1.42 1.7-2.9 2.34-4.47.5-.77.9-1.58 1.23-2.44l.15-.18v-.17c.6-1.05 1.17-2.13 1.52-3.3.35-.54.6-1.12.76-1.74.12-.09.15-.21.15-.35.12-.08.15-.21.14-.35.2-.52.52-1 .6-1.56.47-.93.84-1.9 1.04-2.92.46-.85.58-1.8.81-2.72.34-1.33.74-2.64.89-4 .17-.77.37-1.52.53-2.28.56-2.75 1.08-5.5 1.94-8.17l.88-2.81c.06-.1.14-.18.18-.28a14.5 14.5 0 012.1-4.1l1.43-2 5.56-7.72c1.27-1.75 2.54-3.5 4-5.1.26-.27.47-.56.63-.9l.45-.38.2.18-.97 1.68c-.84 1.47-1.73 2.9-2.44 4.43-.19.35-.4.69-.56 1.04-1.2 2.57-1.55 5.4-2.38 8.08a8.17 8.17 0 00-.68 3.27c-.17.15-.13.35-.1.54v.17a22.8 22.8 0 00-.43 5.11c.1 1.4.16 2.8.36 4.2.17 1.2.31 2.4.59 3.58.02.23-.05.5.18.67 0 .06 0 .11.02.16l.03.34c.34 1.72.95 3.35 1.46 5.02 0 .14.03.26.17.33 0 .06 0 .1.02.16l.85 3.35.68 3.2c.01.18-.01.38.2.5h-.01c.1 1.05.37 2.1.35 3.17 0 .34.05.76.43.8.43.06.47-.4.57-.7.58-1.8 1.2-3.56 1.92-5.3.56-1.32 1.1-2.64 1.56-4 .26-.79.64-1.56.66-2.42.14-.4.3-.78.28-1.2.33-.6.39-1.24.42-1.9.43-.92.53-1.92.68-2.92v-.16c.18-.14.14-.33.13-.52.15-.45.14-.94.18-1.4.08-1.24.36-2.47.23-3.72.22-1.5 0-2.98-.12-4.47 0-.05-.07-.09-.1-.13-.06-.67-.07-1.36-.18-2.02-.26-1.52-.56-3.03-.88-4.53-.18-.85-.3-1.7-.61-2.52-.03-.28-.03-.56-.1-.84a38.6 38.6 0 01-.8-5.72c.04-.3.13-.62.11-.92a22.8 22.8 0 01.15-3.85c.23-.84.38-1.72 1.04-2.39.12-.12.2-.33.18-.53.12-.1.15-.23.15-.38.41-.67.76-1.38 1.26-1.99 1.46-1.78 2.97-3.52 4.47-5.27a.44.44 0 01.2-.18c.04 0 .08-.01.12-.04l.15-.16a.21.21 0 00.16-.17v-.01a.21.21 0 00.16-.17l3.9-3.75c.13-.03.25-.07.3-.22a.9.9 0 00.16-.17h.01l.15-.18h.01l.15-.18h.01l.15-.17 1.18-1.07c.3-.3.56-.63.9-.88 1.16-.84 1.93-2.06 2.95-3.03.08-.04.17-.06.23-.1a194.77 194.77 0 015.78-5.18l.3-.21.19-.16c.05 0 .1-.02.15-.05.08 0 .13-.06.15-.14.06-.06.1-.13.18-.17.13-.01.25-.06.3-.2h.01l.17-.17a.23.23 0 00.17-.17c.13-.02.25-.06.3-.2v-.01l4.08-3.12.2.2-.53.63-3.5 3.96.01.01a.24.24 0 00-.15.19l.15-.18c-.03.08-.1.12-.15.18a.68.68 0 00-.3.36c-.22.13-.39.3-.49.54-.53.5-.95 1.09-1.29 1.73-.4.36-.64.82-.92 1.27v.01c-.14.07-.18.2-.18.33-.3.22-.43.56-.58.89-.15.24-.31.47-.44.72-1.39 2.7-2.02 5.62-2.5 8.59-.2.19-.15.44-.15.67a5.5 5.5 0 00-.42 1.91 20.22 20.22 0 00-.54 5.61c-.24.4-.05.82-.07 1.23l.04.84c-.23 1.32.02 2.63.06 3.94 0 .16.11.31.17.47-.01.7.28 1.35.46 2.01-.01.15.03.27.16.35 0 .05 0 .1.02.15.04.91.56 1.66.83 2.5.07.36.2.69.4 1a13.78 13.78 0 00.76 2c0 .06 0 .12.02.17 0 .14.04.27.17.35l.04.32c0 .14.04.26.17.34l.03.16c0 .14.03.26.17.34l.03.32c-.01.2.1.34.2.5.24.35.12.82.39 1.17-.02.25.08.46.2.67.01.14.05.26.19.33.02.54.02 1.08.42 1.5.2 1.48.17 2.96.17 4.42.18.05.21-.02.26-.1 1.3-1.76 1.98-3.81 2.72-5.84a45.71 45.71 0 001.49-3.82c.43-.95.83-1.9 1.03-2.94.1-.29.3-.54.3-.86.1-.22.17-.44.12-.69l.01-.15c.12-.1.15-.22.14-.36.1-.22.17-.44.12-.69.2-.61.31-1.23.26-1.88.25-.26.1-.57.11-.86.13-1.47.06-2.94-.06-4.41l-.02-.34-.1-1.7-.06-1.18-.02-.5-.2-3.37a.5.5 0 00-.16-.37l-.03-.32-.16-3.05-.37-6.6-.04-1.5c.14-.74.26-1.48.22-2.24.22-.78.33-1.58.37-2.39.14-.13.12-.3.15-.47.3-1.81.65-3.6 1.58-5.22.4-.7.84-1.4 1.26-2.1 1.48-1.25 2.63-2.81 4.01-4.15.06-.05.1-.12.17-.17l3.04-2.74c.67-.59 1.42-1.08 2.01-1.75.35-.1.55-.4.8-.6.96-.85 2.06-1.54 2.91-2.5l3.74-2.94.19.17c-1.14 1.6-2.11 3.3-2.96 5.08-.13.08-.16.2-.16.35-.12.08-.15.2-.15.34a16.93 16.93 0 00-1.52 3.45.61.61 0 01-.13.2.3.3 0 00-.02.15.63.63 0 01-.13.2.48.48 0 00-.02.17.2.2 0 00-.14.18l.14-.18-.14.18a.34.34 0 00-.01.15c-.12.1-.15.23-.15.37-.66 1.24-.88 2.6-1.15 3.95a7 7 0 00-.57 2.07c-.2.38-.24.8-.25 1.22v.32c-.13.1-.15.22-.13.36v.33c-.13.1-.15.22-.13.37-.24 1.24-.55 2.47-.5 3.75-.15.3-.12.6-.11.91.02.6.1 1.19.04 1.77-.1.98 0 1.96-.12 2.94.02.5-.2 1-.08 1.52-.12 1.54.07 3.07.23 4.6-.04.96.23 1.9.32 2.86l.01.34a10.13 10.13 0 00.65 2.87l.04.32c0 .14.03.26.17.33.16.93.43 1.82.84 2.67l.6 1.67c0 .14.03.26.17.33.15.68.35 1.35.62 2-.01.25.08.46.2.67.16.87.52 1.68.82 2.5 0 .14.04.27.18.33.07.66.47 1.21.62 1.84.61 1.68 1.25 3.36 1.7 5.1.05.23.11.5.33.67.2.17.36.15.43-.11.04-.1.03-.22.02-.33-.07-.92.13-1.79.36-2.66.8-2.95 1.64-5.89 2.25-8.89.16-.85.37-1.7.38-2.56.19-.14.15-.33.13-.52v-.34c.33-1.12.4-2.27.48-3.42-.02-.4.2-.79.11-1.2.18-1.92.18-3.84.04-5.76-.01-.2-.01-.4-.18-.54-.05-1.67-.4-3.31-.68-4.96-.08-.47-.03-1.01-.35-1.44.04-.56-.17-1.1-.28-1.63-.2-.92-.26-1.87-.63-2.74a7.7 7.7 0 00-.48-2.32c-.06-.86-.32-1.68-.48-2.52l-.33-2.5c-.01-.07-.09-.13-.14-.2l-.28-4.9c.07-1.66.2-3.3.4-4.94l.17-.74c.43-1.8.9-3.6 1.59-5.33.14-.35.36-.6.68-.83a55.43 55.43 0 003.9-2.94c1.1-.7 2.13-1.46 3.03-2.41.9-.96 1.9-1.85 2.78-2.83.89-.97 1.96-1.78 2.71-2.88l.17-.18c.05-.05.1-.13.17-.17.88-.65 1.58-1.47 2.23-2.33.85-.69 1.45-1.61 2.26-2.33l.19.17v.16c-1.13 1.48-2.18 3-3.16 4.58a21.44 21.44 0 00-2.05 3.33 13.84 13.84 0 00-1.66 3.49c-.12.09-.15.21-.13.35a.42.42 0 00-.02.15c-.5 1.13-.78 2.33-1.12 3.5-.24.84-.6 1.65-.6 2.53-.11.1-.14.23-.13.37l-.02.17c-.39 1-.66 2.02-.68 3.09-.34 1-.29 2.05-.3 3.07 0 1.52.15 3.04.23 4.56.02.2 0 .4.18.54.01.64.16 1.25.42 1.84.1.81.37 1.58.67 2.33.12.6.24 1.18.58 1.7l.05.3c.4 1.42.9 2.8 1.4 4.17l.6 1.68c0 .19-.01.38.18.5 0 .06.01.11.03.17 0 .14.03.26.16.34l.04.31.4 1.17.2.68c0 .14.04.26.18.33.1 1.14.57 2.22.54 3.39 0 .2.1.4.34.4.2 0 .26-.18.31-.34l1.3-4.6c.47-1.12.73-2.3 1.02-3.47.44-1.8.73-3.62.88-5.47 0-.45.2-.9.1-1.36.18-1.81-.01-3.62-.13-5.43-.09-.45.1-.95-.23-1.36l-.03-.32c.05-1.04-.26-2.03-.34-3.05 0-1.47-.38-2.91-.4-4.38 0-.23 0-.45-.02-.67.11-.1.15-.24.14-.39-.15-1.68-.07-3.37-.11-5.06-.05-1.07.15-2.14.02-3.21.29-.38.1-.82.17-1.23.19-1.01.3-2.04.44-3.06.38-1.44.88-2.84 1.14-4.3.32-.75.63-1.5.96-2.24.32-.71.68-1.4 1.02-2.11.04-.07.1-.13.15-.2l.16-.17.41-.41a32.51 32.51 0 004.4-4.94l.16-.18c.71-.73 1.26-1.57 1.74-2.47.45-.31.63-.83.94-1.25.06-.05.11-.1.16-.17 1.09-1.48 2.06-3.05 3.36-4.37.1-.1.14-.24.15-.38v-.01c.03-.08.09-.13.16-.18h-.01c.04-.07.1-.13.16-.17.04-.08.1-.13.16-.2.85-.84 1.52-1.84 2.32-2.72.1-.12.16-.3.24-.44.92-.99 1.72-2.07 2.5-3.18.7-1.02 1.46-2 1.91-3.16a.5.5 0 01.15-.21c.05-.06.12-.12.16-.19.3-.46.57-.95.9-1.4.16-.2.18.04.22.16-.13.08-.15.2-.14.34l-.77 1.74c-.13.08-.16.2-.15.35-.73 1.5-1.48 2.98-2.18 4.48a50.14 50.14 0 00-2.23 5.49c-.46 1.39-.95 2.77-1.12 4.24-.13.09-.15.22-.13.36l-.01.34c-.33.64-.35 1.35-.39 2.05-.18.15-.13.36-.14.55l-.18 3.77c-.06 1.3-.04 2.58.25 3.84.1 1.04.3 2.05.67 3.03.05.29-.06.61.21.84.02.6.3 1.11.44 1.67.25.67.37 1.39.77 2 .02.11.02.23.06.33.49 1.1.95 2.2 1.5 3.26.38.74.6 1.56 1.13 2.22.02.53.38.93.6 1.37.64 1.36 1.16 2.78 1.9 4.1.03.13.03.28.09.4.55 1.2 1.11 2.38 1.67 3.57l.16.17c0 .05 0 .1.02.16.32.78.61 1.57.96 2.34.52 1.16.92 2.36 1.55 3.47.01.14.05.26.19.33.51.54.66.55 1.03 0 .16-.23.29-.47.28-.76.34-1.1.43-2.25.63-3.38.26-1.55.6-3.09.64-4.66.35-1.87.53-3.74.54-5.64 0-.28-.02-.55-.03-.83.05-.1.13-.2.13-.3 0-.85.01-1.69.03-2.53.03-1.21-.1-2.43-.18-3.64.05-.81-.2-1.6-.34-2.38-.14-.72-.22-1.48-.57-2.15-.01-.2 0-.39-.19-.5 0-.06 0-.12-.02-.17-.08-.74-.42-1.4-.63-2.09-.38-1.26-.8-2.5-1.2-3.76a6.6 6.6 0 00-.6-1.84c-.29-1.2-.7-2.37-1.21-3.5-.3-1.13-.6-2.26-1.03-3.35-.02-.2 0-.4-.06-.58-.62-2.06-.8-4.2-1.16-6.3l-.06-1.02-.1-1.86c.17-.85.09-1.7.04-2.55.09-1.02.09-2.03.02-3.05.13-.82.24-1.64.55-2.42.52-.81 1.12-1.58 1.56-2.45a39 39 0 01.14-.18.3.3 0 00.02-.14l.16-.2v-.01c.04-.07.1-.12.14-.18.14-.08.17-.21.2-.34.05-.06.13-.11.17-.18 1.69-2.53 3.3-5.1 4.8-7.74.8-1.42 1.78-2.74 2.5-4.21.13-.08.16-.2.16-.34a.2.2 0 00.13-.18c.02-.05.03-.1.02-.14a8.63 8.63 0 001.23-2.3c.26-.24.35-.58.5-.87.46-.92 1.02-1.8 1.36-2.77.35-.26.45-.7.63-1.06.41-.82.97-1.56 1.2-2.47.32-.4.49-.88.64-1.37.36-.61.61-1.27.86-1.93.22-.47.56-.87.63-1.4.47-.83.83-1.72 1.2-2.61a23.4 23.4 0 001.37-3.29c.19-.43.4-.85.54-1.3.22-.65.59-1.25.66-1.95a.55.55 0 01.12-.22l.05-.16c.59-1.34 1.2-2.67 1.75-4.02.4-1.02.85-2.03 1.07-3.1.33-.8.76-1.56.9-2.42.18-.4.36-.78.4-1.22l.57-2.07c.17-.37.28-.76.32-1.17.23-.45.33-.93.4-1.42.36-1.14.78-2.26 1.03-3.43a.4.4 0 00.13-.37.19.19 0 00.02-.13c.11-.1.14-.24.12-.38a.19.19 0 00.02-.14c.12-.1.13-.23.1-.37.03-.05.04-.1.03-.16.16-.15.14-.34.13-.54.03-.05.03-.1.03-.16l.79-3.28.17-.51.32-.36-.07-1.19-.18.02c-.21-.18-.16-.46-.29-.68-.14-.24-.26-.5-.6-.48-.34.01-.52.24-.6.5-.2.64-.45 1.26-.48 1.94a22.93 22.93 0 00-1 3.61c-.12.1-.14.22-.12.36a.18.18 0 00-.02.13c-.12.1-.15.24-.13.39a.18.18 0 00-.01.13c-.13.1-.15.23-.13.38a.18.18 0 00-.02.13c-.12.1-.14.24-.13.4-1.09 3.18-2.11 6.4-3 9.65-.15.56-.35 1.13-.33 1.73-.05.1-.11.2-.13.3-.32 1.54-.84 3.02-1.25 4.54-.34 1.3-.93 2.52-1.36 3.8l-1.37 2.95c-.46.64-.8 1.34-1.1 2.06a29.5 29.5 0 00-1.68 3.02c-.13.08-.17.2-.17.34a.23.23 0 00-.13.19c-.38.55-.71 1.13-.99 1.74a.64.64 0 00-.28.49l-.14.22-1.71 2.82c-.43.55-.85 1.1-1.14 1.74-.65.7-1.14 1.52-1.7 2.3a134.51 134.51 0 01-4.79 6.3l-3.5 4.31v.02a.24.24 0 00-.16.18l-.18.17-.65.67-2.69 2.93c-.06.05-.1.12-.17.17a.23.23 0 00-.16.16c-.14.02-.26.07-.31.2v.01a3.2 3.2 0 00-.17.17c-.06.06-.1.13-.17.17a.24.24 0 00-.16.18.24.24 0 00-.16.17h-.02c-.3.05-.45.31-.64.51-.46.5-.95.96-1.52 1.32-.82.52-1.46 1.24-2.16 1.88-1.89 1.75-3.72 3.57-5.91 4.98-.23.14-.5.26-.64.53l-.16.07c-.09.01-.13.07-.15.16-.06.06-.1.12-.18.16-.13.02-.25.06-.3.2l-.01.01c-.06.05-.11.12-.17.16l-.2.17c-1.36.77-2.29 2-3.36 3.1a9.33 9.33 0 00-1.94 1.78c-.06.06-.1.14-.17.18h-.02c-.3.2-.6.47-.73.78-.3.63-.79.72-1.37.71-.72-.15-1.4-.45-2.08-.72-1.27-.72-2.37-1.67-3.5-2.57a.41.41 0 01-.2-.16c-.2-.42-.56-.7-.89-1.01-.98-.93-1.84-1.99-2.86-2.87-.2-.31-.4-.62-.75-.8a8.7 8.7 0 00-1.77-1.8c-.47-.72-1.16-1.21-1.82-1.73-.61-.78-1.45-1.3-2.2-1.92-1-.8-1.97-1.64-3.1-2.26-.14-.2-.33-.34-.55-.43h-.01c-.07-.14-.2-.17-.33-.2-.81-.67-1.7-1.22-2.64-1.7a1.14 1.14 0 00-.53-.31c-.08-.12-.2-.16-.33-.19a9 9 0 00-2.24-1.2l-.23-.15c-.08-.13-.2-.16-.34-.16-.04-.07-.1-.12-.18-.12l.17.12a3.63 3.63 0 00-.17-.12.18.18 0 00-.13-.04c-.09-.02-.15-.07-.22-.13a.16.16 0 00-.13-.02.57.57 0 01-.22-.13.16.16 0 00-.12-.02l-.23-.15c-.19-.19-.43-.28-.7-.3-1.28-.7-2.65-1.21-4.01-1.76-2.7-1.08-5.44-2-8.27-2.69-.49-.24-1-.37-1.55-.42-.9-.3-1.8-.56-2.74-.72-1.07-.33-2.14-.67-3.21-.98-.6-.17-1.17-.42-1.8-.44-.46-.27-1-.34-1.5-.47-.38-.1-.76-.2-1.15-.22-.5-.04-.68.23-.44.66.28.5.57 1.03 1.09 1.35.02.13.06.25.2.3.63.74 1.26 1.47 1.99 2.1v.01c.06.06.1.12.17.17.65.82 1.39 1.55 2.16 2.25 1.06 1.2 2.2 2.32 3.38 3.4.75.8 1.46 1.63 2.26 2.36.82.76 1.49 1.68 2.41 2.33.07.05.13.11.19.18.05.28.28.4.46.58.49.5 1 .99 1.5 1.48.8.79 1.61 1.57 2.53 2.23.25.39.62.63 1.03.83.67.71 1.48 1.24 2.3 1.75a25.66 25.66 0 004.28 2.73c.89.48 1.75 1.02 2.75 1.29.97.55 2.03.9 3.11 1.2.72.35 1.49.54 2.26.71.9.35 1.84.54 2.77.73 1.52.32 3.03.68 4.58.77.85.26 1.73.28 2.6.35 2.1.27 4.2.19 6.29-.02.53.08 1-.15 1.51-.23.24-.03.5.04.68-.2h.3c-.12.33-.45.4-.7.56-1.52.88-2.9 1.96-4.36 2.91a3.7 3.7 0 00-1.3.9c-.26.08-.5.19-.67.4-1.68-.27-3.34-.6-4.97-1.1-.98-.4-1.92-.9-2.93-1.2h-.01c-.04-.09-.1-.13-.19-.13l.18.13a1.47 1.47 0 01-.18-.13.25.25 0 00-.14-.03.58.58 0 01-.2-.13c-.62-.28-1.22-.61-1.89-.78l-.2-.13a.24.24 0 00-.14-.02l-.21-.13a.25.25 0 00-.13-.02 34 34 0 01-.22-.13c-1.2-.61-2.37-1.27-3.65-1.7-.83-.5-1.77-.73-2.67-1.05a22.71 22.71 0 00-4.06-1.13c-.6-.3-1.23-.39-1.88-.42-.1-.12-.22-.15-.37-.12a.56.56 0 00-.15-.01c-.9-.3-1.8-.47-2.74-.54-.15-.16-.35-.14-.54-.12a1.16 1.16 0 00-.17-.02c-.1-.12-.23-.13-.36-.1-.4-.04-.76-.2-1.16-.15a13.5 13.5 0 00-3.1-.34c-.25-.24-.56-.1-.86-.11l-.33.02h-.33c-.1-.1-.24-.13-.38-.13-1.35-.03-2.7-.1-4.04.03-.18-.19-.41-.14-.63-.12l-2.61.13-.51.03-1.02.05c-1.64.04-3.27.22-4.9.44-.28.02-.56.02-.84.07l-4.38.72c-.34.06-.73-.1-1.01.21l-3.72.2c-.26-.26-.57-.1-.86-.11h-.34c-.35-.04-.7-.19-1.07-.1-.12.03-.22.08-.24.2-.02.12.03.22.14.28l.88.49c1.04.63 2.02 1.39 3.15 1.88.07.04.12.1.18.15l.18.16.7.46.16.01c.88.81 1.97 1.3 3 1.87a39.78 39.78 0 004.9 2.64c.3.24.65.38 1.03.46.75.37 1.44.86 2.27 1.06l1.75.73c2.35 1 4.77 1.77 7.26 2.34.32.08.65.19 1 .14.66.28 1.37.29 2.07.37h.33c.2.21.46.12.7.1l.64.01c.67.24 1.38.18 2.06.17 2.1-.03 4.2-.2 6.3-.3l3.22-.19c.67-.1 1.38.1 2.02-.25 1.08-.01 2.15-.15 3.2-.35.68.04 1.32-.2 1.97-.31.8-.15 1.64-.23 2.4-.59a4.47 4.47 0 001.7-.42c1.04-.13 2.02-.5 2.99-.87.13.02.27.01.34.16-.35.06-.56.33-.82.54-1.98 1.2-4.07 2.21-6.14 3.25-.17.09-.36.16-.47.34a.72.72 0 00-.16.04l-.19.14c-.7.23-1.33.61-1.98.95-.09.02-.18.02-.25.05-2.2 1.03-4.43 1.97-6.52 3.21-.14.01-.27.05-.35.18-.4.04-.75.24-1.1.4a40.89 40.89 0 00-6.47 3.6l-1.82.92c-.52.24-.99.64-1.6.58-.45-.05-.9-.1-1.33-.19-1.47-.32-2.93-.66-4.4-1a8.73 8.73 0 00-2.06-.4c-1.42-.26-2.84-.54-4.27-.79-.52-.09-1-.34-1.55-.28h-.01c-.09-.12-.21-.13-.35-.12-.95-.2-1.9-.45-2.9-.38a7.67 7.67 0 00-2.4-.21c-.6-.28-1.24-.04-1.86-.07-.67-.3-1.37-.02-2.05-.05-1.02-.09-2.04-.1-3.06 0-2.9.08-5.79.33-8.67.63-.17.01-.34.02-.46.18l-1.01.07c-.34.06-.73-.1-1.01.21-2.75.25-5.42.88-8.06 1.63-.14 0-.27.04-.34.18-.63 0-1.2.26-1.79.43-1.3.36-2.61.76-3.9 1.23-.93.19-1.85.4-2.8.55-1.26.2-2.47.73-3.8.51a.32.32 0 00-.37.26c-.04.17.11.24.24.3l.16.06 6.08 1.75c.9.38 1.82.66 2.77.87 1.56.58 3.2.89 4.82 1.26 1.3.36 2.63.58 3.95.76 1.13.16 2.25.47 3.41.39.15.17.36.12.55.13.61.03 1.22.05 1.83.11 1.25.13 2.5.22 3.76.1.26.14.53.15.81.13 1.5-.09 3.01-.16 4.52-.24.22-.01.45.01.61-.2.22 0 .45-.03.67-.04 1.2-.03 2.4-.18 3.56-.51.68-.03 1.35-.1 2-.3.24-.03.5.04.68-.2l.32-.02c.24-.03.5.03.68-.2.06 0 .1 0 .16-.02.36.04.68-.14 1.01-.23.97-.2 1.9-.5 2.84-.82l.49-.1c.62-.14 1.18-.5 1.84-.54l.19.17-4.52 2.75c-.17.1-.33.2-.43.38-.28.06-.51.23-.75.37l-4.66 2.84-.17.16c-1.27.68-2.4 1.56-3.44 2.55-.72.4-1.3.98-1.94 1.48-.3.25-.64.46-.91.74a5 5 0 01-3.27 1.5c-1.28.11-2.57.27-3.85.06-.56-.08-1.13-.17-1.7-.1v.01c-.14-.19-.33-.14-.52-.13l-.34.01h-.16c-.14-.18-.34-.14-.52-.13h-.17c-.14-.18-.33-.14-.52-.13h-.33c-.14-.17-.34-.13-.52-.12h-.34c-.14-.18-.33-.14-.52-.12h-.5c-.14-.17-.34-.13-.53-.12h-.5c-.14-.17-.33-.13-.52-.12-1.03-.06-2.06-.17-3.1-.16-1.17 0-2.35.12-3.53.18-.9-.07-1.77.27-2.67.3-1.43.04-2.82.4-4.23.63-.44.07-.97-.01-1.35.34-1.5.2-2.94.59-4.36 1.1-1.05.21-2.03.63-3.04.99a30.88 30.88 0 00-4.28 1.77c-1.98.75-3.73 1.94-5.62 2.85-.71.16-1.33.62-2.08.63-.15 0-.3.09-.3.24 0 .16.14.23.29.24l2 .24c.3.03.59.12.9.14.91.08 1.82.2 2.74.24.88.05 1.77.15 2.66.13 1.52.12 3.05.04 4.58-.06.26.25.59.13.88.11 2.38-.2 4.77-.16 7.15-.5 1.16-.16 2.33-.3 3.5-.42a11.8 11.8 0 001.74-.3c.47-.12 1.02-.02 1.44-.35.28-.02.57 0 .84-.07 2.13-.52 4.29-.9 6.37-1.6 1-.34 2.07-.5 3-1.08l.16-.02c.58-.04 1.05-.4 1.57-.6 1.8-.7 3.57-1.5 5.32-2.35l1.77-.87a12 12 0 01-1.52 1.35 35.02 35.02 0 01-4.7 3.11c-1.08.6-2.23 1.1-3.16 1.94a.56.56 0 00-.49.36c-.18.08-.38.13-.53.24a50.26 50.26 0 01-4.8 3.07c-.17.1-.33.2-.42.4-.47.1-.8.43-1.14.74l-.17.02-.15.17-.17.18c-.72.18-1.16.82-1.8 1.12l-.17.17-.32.2c-.6.32-1.11.77-1.64 1.18a67.62 67.62 0 00-4.14 3.6c-1.63 1.5-3.3 2.97-4.84 4.58-.6.64-1.24 1.22-1.86 1.83l-.16.18-.16.18-.16.17-.16.18-.17.18-.16.18-.16.17c-.09.07-.19.13-.26.21l-3.57 3.97c-.5.54-.98 1.09-1.54 1.57-.55.48-1 1.08-1.48 1.62-.14.15-.28.33-.12.53.12.16.3.07.46 0 .48-.23.96-.47 1.45-.68l8.43-3.5c.2-.08.42-.15.55-.35.8-.16 1.5-.5 2.16-.96l.17-.02c.14-.01.26-.05.33-.18.14-.01.26-.05.33-.19l.16-.01c.14-.01.27-.05.34-.19.73-.4 1.47-.79 2.14-1.3.05 0 .1 0 .16-.02l.17-.17.16-.01.16-.17c.14-.01.27-.06.33-.2.14 0 .26-.04.33-.18.14-.01.26-.05.33-.19l.33-.19c.05-.07.11-.12.17-.17.06 0 .1 0 .16-.02l.18-.17c.13 0 .25-.05.32-.19l.16-.02.16-.17a.99.99 0 01.18-.17c.6-.28 1.14-.65 1.62-1.11.97-.57 1.8-1.33 2.67-2.05 1.12-.94 2.25-1.87 3.18-3a16.6 16.6 0 001.92-2.15c1.15-1.18 2.33-2.33 3.2-3.74.3-.49.75-.61 1.28-.58 1.2.08 2.4.08 3.6-.03l.35-.02c1.01.14 2.03.09 3.05.01.74-.05 1.47.2 2.22.05.7-.12 1.38.09 2.07.06l3.01-.16 2.88-.15c.68-.1 1.4.08 2.05-.26 1.35-.05 2.66-.4 3.98-.66.45-.1.96-.03 1.37-.33.6 0 1.17-.15 1.7-.4.82-.11 1.6-.3 2.35-.64 1.66-.33 3.28-.78 4.83-1.46l.17-.04c.14.01.27-.02.35-.15.29 0 .55-.11.81-.2 1.04-.37 2.09-.68 3.11-1.07 1.76-.66 3.56-1.2 5.22-2.1.06 0 .11-.01.16-.03.15 0 .28-.04.36-.17.09-.01.18 0 .25-.04 1.95-.79 3.93-1.5 5.8-2.47.2-.1.37-.3.62-.17 0 .13-.1.2-.18.27l-3.27 2.89-2.9 2.4c-.79.64-1.61 1.22-2.3 1.96a.5.5 0 01-.2.17c-.62.29-1.06.81-1.58 1.23-1.11.9-2.25 1.76-3.27 2.78-.25.13-.5.26-.65.52-1.01.66-1.89 1.49-2.81 2.26-.66.55-1.4 1.03-1.93 1.73a.3.3 0 00-.13.06c-.1.01-.14.07-.16.15-.05.06-.1.12-.17.17l-.2.17a.24.24 0 00-.12.05c-.09.01-.14.07-.16.15a.64.64 0 01-.2.17l-.3.23-.15.15c-.05.06-.11.12-.18.17l-.31.22-.17.15c-1.97 1.47-3.67 3.25-5.5 4.88a7.4 7.4 0 01-3.42 1.03 9.78 9.78 0 00-3.13.52c-.5.08-1.05-.07-1.53.21l-2.18.15-1.36.08-2.03.1c-1.3 0-2.6.26-3.89.38-.64-.05-1.23.25-1.85.28-.35 0-.7 0-1 .21l-.35.02c-.82-.04-1.6.2-2.4.34-1.85.3-3.67.73-5.5 1.1-.4-.01-.77.17-1.14.26-.84.19-1.69.36-2.48.7a.6.6 0 00-.24.09c-.82.07-1.56.41-2.34.64a37.24 37.24 0 00-6.97 2.9c-1.96.8-3.8 1.8-5.62 2.86-.06.06-.1.13-.17.17a16.74 16.74 0 00-2.96 1.7c-.54.23-1.02.55-1.48.92-.16.06-.33.1-.47.19-1.37.83-2.75 1.66-4.1 2.52-.74.47-1.45.98-2.16 1.49-.13.09-.29.21-.2.4.08.15.23.17.38.16.2 0 .4 0 .59-.03.87-.13 1.74.04 2.6.08 1.1.05 2.19.21 3.29.12.21.04.44.13.65.12 1.37-.06 2.74.16 4.1-.03.45 0 .88.13 1.33.1 1.79-.12 3.58-.2 5.36-.3.27 0 .57.05.8-.18l1.66-.13c1.4-.1 2.79-.37 4.16-.63.52-.1 1.1-.01 1.56-.34.82-.07 1.6-.26 2.35-.6l.34-.06c.14 0 .27-.03.35-.16 2.1-.5 4.1-1.28 5.96-2.37.14 0 .27-.05.34-.19.15-.06.32-.1.46-.18 1.55-.82 3.1-1.62 4.62-2.47 1-.56 2.05-1.04 3-1.68a30.39 30.39 0 003.13-1.87c1.05-.6 2.11-1.18 3.16-1.8.48-.27 1.05-.4 1.45-.82.14-.01.27-.06.34-.19.32-.02.49-.36.8-.4l.24.01a.42.42 0 00-.03.17c-.07.05-.12.12-.18.17a.55.55 0 01-.17.17l.17-.17a.22.22 0 00-.17.17.23.23 0 00-.16.18c-.84.52-1.4 1.35-2.13 1.99-.56.5-1.05 1.07-1.57 1.62-.06.05-.1.12-.17.17v-.01a.24.24 0 00-.16.18.24.24 0 00-.16.18.24.24 0 00-.16.17h-.01c-.18.02-.3.14-.42.26l-3.6 3.83c-.99 1.07-1.87 2.26-3.24 2.9l-.16.07c-.14 0-.26.03-.33.16-.97.33-1.9.76-2.82 1.18-.37.12-.76.22-1.12.37l-4.5 1.94c-1.14.5-2.3.94-3.38 1.54l-4.11 1.79c-.2-.02-.35.1-.5.2-.64.16-1.26.41-1.83.75-1.1.36-2.14.84-3.16 1.37-.14 0-.26.04-.33.17-1.25.54-2.51 1.08-3.64 1.87-1.3.46-2.4 1.25-3.48 2.07-.32.1-.61.24-.8.54-.45.15-.76.5-1.13.78-.63.3-1.13.79-1.64 1.25a.7.7 0 01-.18.18l-.15.03a6.61 6.61 0 00-.34.34c-.05 0-.1 0-.14.03l-1.97 1.45-.16.17c-.24.02-.4.15-.5.36-.65.41-1.3.83-1.78 1.46-.1.04-.24.05-.3.12-.54.5-1.07 1-1.57 1.52-.86.92-1.78 1.78-2.72 2.62-.14.13-.36.17-.36.4.66.3 1.32.34 2 .1.15-.06.33-.04.5-.04.84.01 1.64-.32 2.49-.34.06 0 .13-.1.2-.14l.33-.02c.76-.02 1.48-.2 2.19-.45.4-.08.83.08 1.18-.24.28-.05.6.06.84-.2.29-.05.61.04.84-.22.23-.03.48.02.66-.2 1.05-.12 2.02-.53 3-.88a24.9 24.9 0 005.15-2.12c.15 0 .27-.05.35-.18l.16-.03a.93.93 0 01.18-.16c.05 0 .1 0 .14-.03a.83.83 0 01.2-.15c.04 0 .09 0 .13-.03.15 0 .26-.04.33-.17.14-.02.26-.06.33-.2.84-.28 1.53-.82 2.27-1.29 1.5-.95 2.93-1.98 4.27-3.14.4-.28.82-.54 1.15-.9.47-.32.9-.68 1.3-1.1a.8.8 0 01.2-.16c1.1-.8 2.15-1.7 3.2-2.58.82-.7 1.72-1.32 2.47-2.11.45-.23.8-.57 1.14-.94.05-.06.09-.13.16-.17l-.16.18a.24.24 0 00.16-.18h.02c.5-.2.81-.67 1.27-.94l.2.17c-.56.71-1.14 1.4-1.66 2.14-2.09 2.9-4.24 5.75-6.23 8.72-.54.79-1.19 1.5-1.62 2.36-.1.13-.22.25-.32.39-.71 1.06-1.3 2.23-2.34 3.05-.15.12-.24.3-.35.46a.43.43 0 01-.18.19c-.3.21-.52.5-.75.79-.88 1.06-1.68 2.17-2.55 3.24-.89 1.1-1.82 2.2-2.55 3.43-.22.2-.35.45-.48.7-.33.37-.54.81-.78 1.23a43.17 43.17 0 00-2.51 4.37c-.65.96-1.1 2.02-1.57 3.07a36.81 36.81 0 00-2.04 5.44c-.2.25-.24.56-.29.87-.17.14-.14.33-.14.52-.12.08-.15.2-.15.34-.13.1-.15.22-.14.36v.33c-.36.94-.56 1.93-.69 2.93-.22.36-.26.78-.33 1.18-.13.81-.52 1.58-.5 2.43-.53 1.21-.68 2.53-.97 3.81-.67 2.98-1.14 6-1.51 9.03-.07.6-.23 1.22-.12 1.84.01.15.02.3.18.35zm31.37-54.94zm6.39 11.54l-.08-.03.07-.06v.09zm15.68-24.44v-.07l.07.03-.07.04zm9.8 10.23l.03-.06h.05l-.08.06zm-1.42-11.01l.05-.03.03.06c-.03 0-.05-.02-.08-.03zm2.01 2.54v-.01c.02-.06.2-.1.3-.1h.04c-.11.02-.22.06-.34.11zm.07-12.49h-.02c0-.03 0-.06.02-.09v.1zm-.82-8.92v-.06l.03.05-.03.01zm14.12 7.47l-.06-.07.02-.05.06.1-.02.02zm5.06 15.11l-.05-.08.1.05-.05.03zm-2.78-14.34v-.02l.01.02h-.01zm4.33-4.43s0-.02-.02-.03l.05-.02c0 .02-.02.04-.03.05zm14.15-15.9l-.03-.02.03-.01v.03zm4.86 4.95v-.01h.01zm-1.9-25.66h-.02l.01-.01v.01zm44.4-72a.34.34 0 01-.24.09l.23-.1zM90.6-19.04v-.01.01zM56.17-6.62c0-.06.01-.12.08-.16.1-.06.21-.04.32.01l.05.03c-.24.06-.38.07-.45.12zm11.08 6.3c0-.08-.03-.17-.06-.29.06.02.11.04.16.1a.72.72 0 01-.1.18zm21.5 3.64h-.01v-.01.01zM93.7.62l.04-.1.01.04a.12.12 0 01-.05.06zm5.67-2.09l-.03-.02h.05l-.02.02zm-53.6 17.83c.12.07.26.12.39.15-.15 0-.3-.03-.4-.15zm2.33 6.67c-.03.01-.06.01-.08.03l.1-.06-.02.03zm3.66-4.3l.02-.06.04.06h-.06zm4.44 1.95zm.2.7v-.03l.01.02zM42.56 35.5h-.01.01zM19.44 60.63l.18-.07a.2.2 0 01-.18.07zM32.4 54.9v-.01zm3.6-.58l-.06-.07.18-.07-.11.14zm6.88-8.4l.02-.08h.05a.26.26 0 01-.07.08zm31.68-29.74l.03.03-.04-.02v-.01zm-2.36 1.42l.01.01h-.02zm-6.12 25.48zm2.42-5.75l.02-.01h.02l-.04.01zm2.84-1.62v-.02l.04.01-.04.01zm21.75-.99c-.1 0-.19-.03-.28-.03-1.06-.12-2.1-.29-3.15-.5a16.9 16.9 0 00-3.08-.41c-.26.01-.52.03-.77-.04a2.27 2.27 0 00-.38-.04c-.29 0-.58 0-.87-.06-.16-.01-.31 0-.44.1l-.03-.11c-.34-.29-.75-.18-1.14-.17-.17.01-.33.05-.48.1-.3-.03-.61.03-.91.02a.51.51 0 00-.4-.12c-1.34.06-2.68.07-4.02.22a.6.6 0 00-.22-.17 6.29 6.29 0 00-3.06.34.62.62 0 00-.16.17c-1.18.04-2.33.3-3.48.52a1.32 1.32 0 00-.11-.1c-.3-.09-.57-.1-.78.18v.14c-.26.02-.53-.03-.75.15a.65.65 0 00-.2-.09c-.3-.02-.6-.06-.73.3l.05.05h-.03c-.75.1-1.46.35-2.16.64-2 .52-3.93 1.2-5.83 2-.4.14-.78.28-1.17.4a90.88 90.88 0 00-6.15 2.48c-.87.38-1.77.68-2.58 1.18l-.1-.05a.5.5 0 00-.22.08l-.05.07c-.42.13-.84.26-1.2.52-.18.03-.37.02-.49.19v-.02c-.2-.15-.44-.04-.7-.03a66.72 66.72 0 004.28-5.87c.9-1.36 1.73-2.77 3.2-3.64.23-.14.49-.3.53-.62l-.03-.04c.83-.19 1.5-.6 1.98-1.3h.04c1.22-.45 2.17-1.32 3.24-2.01a.3.3 0 00.14-.31h.03c.16-.03.3-.08.46-.14 1.63-.94 3.24-1.88 4.83-2.89.08-.08.16-.17.22-.28l.04-.1.04.04c.2.08.38-.02.55-.12 2.09-1.24 4.22-2.4 6.32-3.62.23-.14.52-.24.55-.59l-.01-.01c.68-.22 1.3-.58 1.9-.95l.1.07c.27.06.49-.07.71-.18 1.77-.85 3.53-1.7 5.31-2.52.28-.12.58-.22.76-.5v-.13c.91 0 1.66-.34 2.23-1.05.07.01.15.02.22 0 .12-.02.25-.05.37-.09 1.79-.78 3.55-1.6 5.3-2.47.64-.33 1.4-.46 1.88-1.08l.01-.07a.57.57 0 00.34-.14l.1.02a.87.87 0 00.3-.1l.2-.1c.1-.08.22-.15.3-.27.34.2.64-.01.93-.15 1.76-.84 3.48-1.73 5.18-2.67.28-.15.58-.3.7-.61.52.06.84-.34 1.23-.56l.24-.21c.04-.04.06-.08.09-.13l.13.04c.38-.02.7-.2 1.02-.38 1.14-.63 2.24-1.31 3.42-1.87.35-.16.72-.33.95-.68l.05-.15c.9-.08 1.6-.49 2.15-1.2h.13a3.86 3.86 0 00.5-.22l.31-.13a6.7 6.7 0 001.22-.69c-.32.24-.72.4-.8.87l.02.03c-1.32.96-2.5 2.05-3.5 3.34l-.03-.02c-.35.04-.52.24-.55.58l.02.04c-.86.87-1.7 1.76-2.36 2.8-.54.54-1.11 1.05-1.44 1.77-.27.18-.44.44-.63.68l-2.55 3.47c-.58.79-1.23 1.53-1.72 2.4-.25.16-.35.44-.46.7-.03.08-.1.13-.15.2-.05.05-.1.1-.14.17a23.66 23.66 0 00-2.19 4.34c-.15.27-.32.53-.44.8-.6 1.37-1.4 2.65-1.8 4.1l-.96 1.96c-.11.23-.27.43-.36.66-.08.21.03.33.25.3.1-.02.2-.08.3-.15 1.04-.75 2.19-1.34 3.16-2.2.8-.43 1.5-1 2.12-1.65.05-.08.11-.14.2-.18.04 0 .09-.01.13-.04l.15-.16c.06-.06.1-.12.18-.17h-.01a.24.24 0 00.16-.17c.14-.01.26-.06.31-.2l.01-.01.18-.17c1.6-1.29 3-2.76 4.16-4.47l.15-.18c.28-.4.68-.7.82-1.2.11-.11.24-.23.33-.36a36.38 36.38 0 002.12-3.62c.38-.77.86-1.5 1.1-2.33.12-.1.16-.22.15-.37.13-.08.16-.2.15-.34.13-.09.16-.21.15-.35.4-.65.7-1.34.91-2.07.44-.63.56-1.4.87-2.07l.08-.03a1.65 1.65 0 00.22-.42 3.97 3.97 0 01.16-.4l.1-.22a.9.9 0 00.07-.15l.08-.23a.38.38 0 000-.15c-.02-.12.1-.1.14-.16l.12-.13c.07-.08.14-.15.2-.24.11-.13.18-.28.26-.43.8-1.44 1.38-3.03 2.85-4 .23-.15.4-.4.43-.7l-.01-.08a3.46 3.46 0 001.43-1.7c.3-.05.56-.21.77-.43 1.38-1.36 2.94-2.5 4.48-3.66.28-.21.62-.38.73-.76.42.15.72-.14.98-.37 1.21-1.05 2.52-1.98 3.76-3 .2-.18.5-.33.4-.67h.01c.13.03.17-.03.17-.15v-.02c.27.17.46-.05.64-.2a178.9 178.9 0 006.04-5.42c1.95-1.82 3.8-3.76 5.67-5.66.54-.55 1.23-1 1.4-1.84v-.01l.07-.03.15-.11.07-.07.15-.12.08-.06.17-.12a34.66 34.66 0 002.9-3.26c.04-.07.06-.14.08-.22v-.1c.46-.01.66-.39.9-.68 1.95-2.3 3.87-4.62 5.64-7.06 1.15-1.6 2.35-3.16 3.38-4.84.05-.14.08-.28.14-.4l.04-.1c.04-.05.09-.1.12-.16l.06-.08a.63.63 0 00.08-.2c.59-.23.94-.64.9-1.31l.06-.01.2-.1c.47-.3.65-.83.98-1.24l.02.01-.04.16c0 .05.02.09.03.13-.65.53-.83 1.34-1.18 2.04-.17.34-.45.68-.3 1.12-.31.17-.42.5-.54.8-.41.96-.88 1.89-1.42 2.79-1.33 2.22-2.72 4.41-3.76 6.8a42.12 42.12 0 01-3.25 5.92c-.63.97-1.34 1.89-1.83 2.94-.05.11-.1.23-.13.34v.08c-.52.15-.64.68-.85 1.05-.38.67-1.08 1.2-1.1 2.05h-.03a13.4 13.4 0 00-2.53 3.58v.04c-.29.12-.46.38-.63.63-1 1.47-2.06 2.9-3.1 4.33-.34.47-.91.8-.88 1.5l.02.01c-.22-.04-.37.09-.48.24-.69.97-1.53 1.83-2.1 2.89l-.08.2-.05.08-.1.17-.06.08a.8.8 0 00-.1.16v.07l-.05-.02a.49.49 0 00-.35.2c-1.16 1.5-2.46 2.89-3.54 4.45l-.12.2-.05.1a1.1 1.1 0 00-.1.22v.05c-.58.24-.9.7-1.03 1.3h-.04c-.9.6-1.7 1.31-2.06 2.4a11.18 11.18 0 00-2.6 2.87c-.01.03 0 .08.03.12a.68.68 0 00-.3.2c-1.24 1.33-2.45 2.69-3.66 4.05-.14.16-.27.34-.25.58-.2-.03-.34.09-.46.22-1.06 1.2-2.3 2.24-3.33 3.47a1 1 0 00-.08.23l.02.06c-.77.34-1.38.82-1.67 1.62h-.03a.82.82 0 00-.44.24c-2.33 2.42-4.9 4.57-7.36 6.86-.16.15-.4.28-.32.57-1.04.32-1.66 1.21-2.45 1.86-2.13 1.74-4.04 3.73-6.34 5.28-.22.2-.44 0-.66 0-.76.04-1.56-.15-2.27.2zm12.15-18.53h-.01v-.01.01zm-1.98 1.3v.03h-.01v-.03zM29.23 72.24v-.02.02zm4.6-4.5c.06-.05.13-.1.2-.13a.36.36 0 01-.2.13zm1.57 5.5zm2.6-8.57h-.05l.05-.05v.05zM26.21 113.5c-.12.06-.22.05-.32-.03.1.02.22.03.32.03z"/><path d="M63.26 64.12l-.15.16a.2.2 0 00.15-.16zM63.1 64.3l-.15.16a.2.2 0 00.16-.17zM62.94 64.47l-.15.17a.2.2 0 00.15-.17zM62.78 64.65l-.15.16c.09-.02.14-.07.15-.16zM58.1 69.15l-.15.15c.09-.02.13-.07.15-.15zM74.25 53.34l.16-.14c-.09 0-.14.06-.16.14zM129.79 2.66l-.16.17a.21.21 0 00.16-.17z"/></g></svg>