<svg width="321" height="658" fill="none" xmlns="http://www.w3.org/2000/svg"><path d="M310.27 656.96c-.78.1-1.56.15-2.35.12a11.8 11.8 0 011.57-23.57 11.76 11.76 0 0110.97 12.55 11.83 11.83 0 01-10.2 10.9zm-61.53-10.25a11.77 11.77 0 01-12.97-14.75 11.76 11.76 0 0114.42-8.34 11.83 11.83 0 018.34 14.48 11.86 11.86 0 01-9.8 8.6zm-58.33-22.05c-2.37.31-4.8-.07-6.93-1.14a11.78 11.78 0 1110.5-21.1 11.74 11.74 0 015.34 15.74 11.8 11.8 0 01-8.9 6.5zm-52.93-33.06c-3.15.41-6.37-.42-8.85-2.37a11.73 11.73 0 01-2.15-16.5 11.73 11.73 0 0116.49-2.14 11.73 11.73 0 012.14 16.5 11.59 11.59 0 01-7.63 4.51zm-45.46-42.76a11.7 11.7 0 01-10.58-3.87 11.79 11.79 0 011.13-16.64 11.79 11.79 0 0116.63 1.1 11.79 11.79 0 01-7.18 19.41zm-36.2-50.8a11.74 11.74 0 01-11.99-5.77 11.84 11.84 0 014.31-16.12 11.8 11.8 0 0116.13 4.36 11.76 11.76 0 01-4.36 16.08 11.12 11.12 0 01-4.09 1.46zm-25.6-56.9a11.8 11.8 0 119.33-15.38 11.79 11.79 0 01-7.35 14.93c-.67.18-1.3.36-1.99.45zM15.8 380.4a11.81 11.81 0 01-13.22-10.17A11.81 11.81 0 0112.77 357a11.81 11.81 0 0113.21 10.18 11.81 11.81 0 01-10.17 13.21zm-1.9-62.36a11.8 11.8 0 11-.78-23.5 11.82 11.82 0 01.78 23.5zm10.3-61.59c-1.56.2-3.14.13-4.68-.27a11.86 11.86 0 01-7.13-5.53 12 12 0 01-1.21-8.94 11.77 11.77 0 0114.48-8.3c3.02.77 5.6 2.76 7.17 5.48a11.8 11.8 0 01-8.63 17.56zm22.13-58.38c-2.37.36-4.74-.03-6.88-1.1a11.84 11.84 0 01-5.35-15.8 11.84 11.84 0 0115.84-5.3 11.78 11.78 0 01-3.61 22.2zm33.05-52.98c-3.15.46-6.37-.38-8.85-2.33a11.73 11.73 0 01-2.15-16.49 11.73 11.73 0 0116.5-2.14 11.73 11.73 0 012.14 16.49 11.36 11.36 0 01-7.64 4.47zm42.8-45.46a11.7 11.7 0 01-10.58-3.88 11.78 11.78 0 1110.58 3.87zm50.84-36.25a11.78 11.78 0 01-12-5.83 11.8 11.8 0 1116.09 4.37 12.06 12.06 0 01-4.09 1.46zm56.95-25.71a11.8 11.8 0 01-5.62-22.82 11.76 11.76 0 0114.94 7.4 11.76 11.76 0 01-9.32 15.42zm60.46-14.04a11.81 11.81 0 01-13.22-10.17A11.81 11.81 0 01287.4.24a11.81 11.81 0 0113.22 10.17 11.81 11.81 0 01-10.18 13.22z" fill="#fff"/></svg>