<svg width="295" height="348" fill="none" xmlns="http://www.w3.org/2000/svg"><mask id="a" maskUnits="userSpaceOnUse" x="0" y="0" width="275" height="324"><path d="M0 0h275v324H0V0z" fill="#fff"/></mask><g mask="url(#a)"><path d="M230.17 288.13l-.1-.02h.08l.02.02z" fill="#F3F3F3"/><path d="M94.88 84.32c.46-.33.9-.1 1.34.02 3.1.87 6.2 1.73 9.3 2.63 6.51 1.9 12.7 4.6 18.66 7.8a74.66 74.66 0 0118.79 14.55c5.65 5.96 11.24 11.99 16.86 17.97.37.4.8.74 1.21 1.11-.17-.4-.32-.83-.53-1.22-.65-1.18-1.35-2.34-2-3.53-3.5-6.55-7.02-13.1-10.5-19.67-.95-1.79-1.79-3.63-2.7-5.44-.26-.5-.56-1-.9-1.46-.93-1.3-1.98-2.54-2.82-3.91-1.86-3-3.6-6.09-5.43-9.1-3.68-6.03-6.38-12.5-8.81-19.09a90.5 90.5 0 01-5.12-23.07c-.23-2.48-.5-4.96-.72-7.44-.43-4.77-.96-9.52-1.2-14.29-.24-4.56-.16-9.14-.2-13.71-.02-.51-.1-1.06.49-1.36.48-.14.82.08 1.07.45.2.3.36.62.53.95 1.17 2.26 2.32 4.53 3.51 6.78 2.02 3.81 4 7.66 5.52 11.7a207.77 207.77 0 018.34 26.78c.58 2.52 1.06 5.09 1.36 7.66.52 4.54.94 9.1 1.26 13.66.46 6.48 1.06 12.94 2.43 19.31a35.38 35.38 0 003.33 9.7c4.08 7.48 8.03 15.03 12.17 22.49 1.8 3.23 3.9 6.3 5.87 9.44-.13-.46-.23-.93-.4-1.37-1.35-3.32-2.74-6.63-4.06-9.96a33.7 33.7 0 01-2.37-10.13c-.11-1.6-.32-3.21-.64-4.78a54.82 54.82 0 01-.96-11.63c.08-4.22.27-8.4 1.34-12.51.27-1 .55-2 .78-3.02.98-4.32 2.41-8.5 4.2-12.54 2.16-4.89 4.48-9.7 6.16-14.8 1.06-3.2 2.43-6.31 3.03-9.66.05-.3.13-.63.3-.88.17-.27.47-.46.81-.78.3.4.55.66.68.97.15.38.19.8.28 1.2.84 3.65 1.66 7.3 2.51 10.94.39 1.67.9 3.31 1.23 5a99.07 99.07 0 012.06 24.3c-.18 3.9-.6 7.77-1.56 11.57-1.4 5.6-3.26 11.07-5.27 16.47a62.9 62.9 0 00-3.96 17.42c-.12 1.6-.04 3.22.01 4.82.03.89.24 1.73.79 2.49.3.4.5.93.6 1.42.4 2.15 1.41 4 2.55 5.81.83 1.32 1.74 2.59 2.55 3.91 1.44 2.34 2.67 4.83 4.68 6.77.22.21.36.5.55.75l4.84 6.3.32.34c1.53 1.83 3.1 3.63 4.57 5.5 1.45 1.89 3.17 3.58 4.29 5.72.1.18.25.33.39.49l7.11 8.48c.4.47.82.94 1.25 1.39 2.44 2.55 4.87 5.12 7.34 7.64 1.52 1.56 3.12 3.04 4.69 4.55l.27.25-.14-.33c-.97-1.48-1.91-2.97-2.9-4.42-2.5-3.65-5-7.29-7.1-11.2a40.49 40.49 0 01-4.75-16.8c-.14-2.18-.33-4.35-.54-6.52a54.76 54.76 0 01-.18-10.42c.3-3.16.65-6.3 1.02-9.45a34.7 34.7 0 014.06-12.53c3.27-6.03 6.46-12.1 8.8-18.57.82-2.3 1.8-4.55 1.48-7.08-.01-.13.13-.27.23-.44.67-.03.87.48 1.04.95.72 2 1.54 3.98 2.09 6.03 1.22 4.57 2.29 9.17 3.43 13.76a45.84 45.84 0 01.7 19.79c-.9 4.8-1.77 9.6-2.81 14.38a372.98 372.98 0 00-3.86 19.73c-.16.97-.28 1.96-.35 2.94-.3 4.26-.04 8.51.22 12.77.16 2.46.81 4.8 1.77 7.07.87 2.08 2.09 3.92 3.4 5.75 2.83 3.98 5.76 7.88 9.04 11.51 3.55 3.94 7.15 7.83 10.74 11.72 1.3 1.42 2.65 2.8 3.99 4.17.28.28.61.51.93.76-.08-.29-.13-.59-.25-.85-3.28-6.66-5.42-13.71-7.17-20.9-.13-.55-.23-1.12-.3-1.68-.6-4.7-1.28-9.37-1.4-14.11-.08-3.54-.13-7.06.47-10.57.25-1.43.4-2.89.47-4.34.18-4.06.7-8.07 1.68-12.02.62-2.52 1.17-5.06 1.86-7.57.8-2.91 2.1-5.64 3.47-8.33 1.2-2.37 2.56-4.65 3.6-7.08 2.95-6.83 6.98-13.13 9.8-20.02.14-.36.45-.65.72-1.04l1.02.45c-.03.4 0 .71-.07 1a10.19 10.19 0 00-.15 3.73c.19 1.65.38 3.3.63 4.94a142.71 142.71 0 011.75 22.82c-.04 4.95-.3 9.88-1.4 14.72a142.94 142.94 0 01-4.35 14.8c-2.23 6.43-4.74 12.76-6.52 19.34-.57 2.1-1.16 4.22-1.46 6.38-.4 2.82-.6 5.68-.76 8.53-.26 4.86.5 9.63 1.58 14.36.18.78.52 1.43 1.12 2 2.76 2.6 5.52 5.2 8.22 7.87a41.98 41.98 0 013.38 3.87c1.7 2.16 3.34 4.38 4.98 6.6 2.5 3.37 5 6.76 7.49 10.16 1.27 1.72 2.52 3.46 3.78 5.2-.32-.78-.6-1.58-.99-2.31-2.2-4.13-4.34-8.3-6.2-12.59a40.81 40.81 0 01-2.9-8.71c-.56-3.01-1.06-6.04-1.47-9.08-.65-4.84-1.37-9.67-.78-14.6.54-4.55 1.3-9.06 3.18-13.28 1.83-4.08 3.76-8.1 5.69-12.14 1.8-3.8 3.68-7.57 5.5-11.37.9-1.87 1.63-3.82 2.06-5.86.12-.54.17-1.16.82-1.34.71.17.73.72.8 1.23.67 4.15 1.4 8.3 1.98 12.47a65.9 65.9 0 01-.46 22.19c-.56 2.75-1.21 5.48-1.97 8.18a132.2 132.2 0 00-3.67 19.45c-.31 2.53-.67 5.05-.88 7.59a48.24 48.24 0 00-.14 6.07c.11 2.42.52 4.83.66 7.25a36.05 36.05 0 002.38 10.45c.6 1.63 1.44 3.09 2.56 4.43a54.13 54.13 0 013.43 4.63 123.7 123.7 0 017.54 13.28c2.16 4.29 4.79 8.27 7.27 12.36 3.29 5.42 6.65 10.8 9 16.73.3.74.73 1.43 1.1 2.13-.03-.38-.04-.78-.15-1.14-.77-2.48-1.53-4.97-2.34-7.44-1.53-4.7-3-9.4-4.02-14.24a66.07 66.07 0 01-.68-23.55c.67-4.47 2.3-8.63 4.05-12.75 1.84-4.38 4.41-8.35 6.98-12.32 5.54-8.55 10.91-17.2 16.09-25.98.76-1.3 1.56-2.57 2.38-3.84.37-.56.74-1.17 1.56-1.13.74.24 1.04.85 1.18 1.52.16.76.26 1.54.3 2.31.13 3.12.28 6.23.32 9.35.06 4.31.17 8.63-.24 12.93-.3 3.05-.53 6.11-.91 9.16-.58 4.6-1.6 9.13-3.53 13.37-3.25 7.08-6.55 14.14-9.96 21.15-3.55 7.3-6.3 14.82-7.51 22.87-.55 3.64-.9 7.32-1.36 10.98a9.8 9.8 0 001.1 5.88c.48.92.9 1.88 1.35 2.8 4.04 8.17 7.66 16.52 11.2 24.9 1.92 4.54 3.43 9.25 5.2 13.86 1.73 4.47 3.22 9 4.56 13.6 1.84 6.34 3.9 12.62 5.28 19.08.3 1.37.62 2.74 1.04 4.08 1.7 5.41 2.68 11 4 16.5.2.81.28 1.65.4 2.47.77 4.93 1.6 9.85 2.27 14.79.55 4.06.9 8.16 1.33 12.24.02.15.01.3.02.46.08 1.27-.49 2.32-1.14 3.33-.26.41-.65.68-1.28.63-.52-.16-.82-.63-.98-1.2-.11-.4-.2-.81-.26-1.22-.39-2.73-.73-5.46-1.15-8.18-.64-4.06-1.36-8.1-2-12.15-.7-4.47-1.45-8.93-1.97-13.42-.48-4.13-.99-8.25-1.8-12.33a62.84 62.84 0 00-3.1-10.77c-2-5.08-3.98-10.17-6.06-15.21a137.1 137.1 0 00-3.96-8.65 260.08 260.08 0 00-13.65-23.8c-2.9-4.56-5.84-9.1-9.5-13.13-.2-.23-.4-.48-.58-.73a29.63 29.63 0 00-3.72-4.2c-.64-.6-1.24-1.26-1.75-1.97-2.41-3.35-5.38-6.2-8-9.37-.32-.4-.72-.75-1.11-1.09-3.41-2.91-6.59-6.04-9.11-9.78a5.7 5.7 0 00-.49-.6 48.97 48.97 0 01-5.71-7.35c-.57-.05-1.18-.15-1.79-.12-1.8.08-3.46.65-5.06 1.45a38.77 38.77 0 00-6.56 4.2c-2.7 2.1-5.4 4.22-8.05 6.4a106.18 106.18 0 01-26.01 15.86c-9.9 4.24-20.27 6.85-30.89 8.5-6.72 1.05-13.47 1.98-20.2 2.94-1.4.2-2.8.36-4.19.5-.6.06-1.22.02-1.84.02l-.47-.84c.24-1.04.98-1.66 1.68-2.26 2-1.73 4.01-3.47 6.1-5.1 7.56-5.95 15.15-11.86 22.74-17.76a99.16 99.16 0 0113.08-8.75 71.96 71.96 0 0122.33-8.07c8.18-1.43 16.4-1.91 24.68-1.3 3.8.27 7.53.92 11.16 2.08.25.08.51.1 1.06.18l-11.03-9.54c-.49 0-1-.05-1.51-.01-1.5.1-3.01.2-4.5.37a19.9 19.9 0 00-3.23.55c-5.1 1.45-10.17 2.97-15.26 4.46-2 .59-3.97 1.24-5.99 1.72-9.2 2.21-18.58 2.8-28 2.76-6.31-.04-12.54-.95-18.75-1.96-2.5-.4-4.98-1.08-7.48-1.54-4.76-.88-9.34-2.47-14-3.76a44.9 44.9 0 00-9.94-1.79c-.73-.03-1.45-.09-2.18-.14-.43-.03-.82-.14-.9-.84.28-.17.6-.42.94-.58 4.12-1.88 8.23-3.77 12.35-5.62 10-4.48 20.35-7.88 31.16-9.8 4.2-.74 8.45-1.1 12.72-.92 5.37.22 10.66 1.04 15.9 2.1 4.03.82 8.03 1.77 12.03 2.69a95.84 95.84 0 0115.24 4.97l4.7 1.95c-1.52-1.23-2.97-2.56-4.58-3.68-4.6-3.2-9.17-6.45-13.94-9.42-4.37-2.7-8.65-5.56-12.93-8.4-2.04-1.34-4.09-2.68-5.98-4.22a84.78 84.78 0 00-7.38-5.46 4.84 4.84 0 00-3.07-.9c-2.69.2-5.38.4-8.07.62-1.09.1-2.16.26-3.25.33-4.3.27-8.6.5-12.9.77-4.79.3-9.56.16-14.31-.43-2.37-.3-4.76-.5-7.11-.89-3.75-.6-7.5-1.21-11.2-2.03a167.8 167.8 0 01-11.15-2.9c-3.44-1.02-6.87-2.08-10.2-3.4-4.63-1.84-9.14-3.98-13.73-5.9-4.07-1.7-8.17-3.34-12.57-4.05-.21-.03-.4-.26-.6-.4.16-.82.75-.83 1.32-.92 2.92-.47 5.86-.88 8.77-1.43 10.13-1.9 20.32-3.14 30.65-2.84 4.67.14 9.34.42 13.95 1.22 3.43.6 6.84 1.34 10.22 2.15 2.62.62 5.22 1.4 7.8 2.2 4.75 1.52 9.3 3.54 13.83 5.64.5.23 1.02.4 1.52.6-.39-.37-.76-.78-1.18-1.12l-15.3-12.31a50.05 50.05 0 01-4.08-3.61c-2.88-2.92-5.69-5.92-8.53-8.87-.28-.3-.6-.6-.95-.79a16.81 16.81 0 00-6.64-2.12c-3.1-.21-6.22-.34-9.33-.33-4.78.01-9.55.1-14.3-.55-3.05-.42-6.04-1.01-9.03-1.7a104.88 104.88 0 01-38.96-17.83c-1.58-1.17-3.3-2.16-5-3.16-.66-.4-1.43-.6-2.14-.91-.12-.05-.19-.23-.32-.4l.32-.67 3.3.09c2.07.03 4.15.02 6.23.1 5.25.18 10.45.9 15.63 1.69 8.95 1.36 17.77 3.3 26.33 6.3 4.95 1.75 9.86 3.57 14.6 5.84 5.25 2.53 10.13 5.7 15.07 8.76.42.27.87.5 1.3.73-.2-.27-.38-.56-.61-.8a62.46 62.46 0 00-9.16-7.97 67.95 67.95 0 01-7.34-6.03c-.95-.89-1.89-1.8-2.92-2.58-3.6-2.75-6.94-5.78-10.32-8.8a70.18 70.18 0 01-6.47-6.52c-2.55-2.95-5.14-5.87-7.57-8.9-3.9-4.87-7.9-9.67-11.37-14.86a200.42 200.42 0 00-7.55-10.7c-.37-.49-.67-1.04-.97-1.58-.06-.11.02-.3.04-.53l.64-.26.6.33c5.12 2.98 10.2 6.03 15.36 8.93a107.59 107.59 0 0118.9 13.68c7.59 6.8 13.53 14.9 18.76 23.57.31.53.6 1.08.9 1.6.47.09.88.18 1.29.23 4.27.59 8.54 1.18 12.82 1.74 1.9.26 3.82.44 5.72.7 3.09.42 6.2.74 9.25 1.33 3.67.71 7.3 1.6 10.88 2.73a150.9 150.9 0 0118.42 7.18c8.57 4 16.93 8.4 25.1 13.17 2.23 1.31 4.44 2.64 6.67 3.97-1.24-1.47-2.42-2.97-3.72-4.38-10.62-11.56-21.25-23.1-31.9-34.65-.7-.76-1.59-1.38-2.17-2.22-1.35-1.92-2.94-3.63-4.45-5.41a10.26 10.26 0 00-5.79-3.42c-1.77-.4-3.56-.79-5.26-1.4a28.98 28.98 0 00-5.09-1.43 189.05 189.05 0 01-25.15-6.03 224.03 224.03 0 01-13.55-4.7 99.5 99.5 0 01-16.5-8.03c-11.51-7.08-21.97-15.54-32.2-24.31-.18-.16-.33-.38-.54-.62l.38-.85 1.12.16c1.19.15 2.36.37 3.55.44 5.97.35 11.92.86 17.84 1.73a137.23 137.23 0 0123.81 5.52 68.78 68.78 0 0118.46 9.25c3.04 2.19 6.09 4.35 9.1 6.56 2.56 1.88 5.08 3.8 7.6 5.72l10.78 8.23c.16.12.32.21.48.32a3.02 3.02 0 00-.62-1.08c-5.14-6.54-10.31-13.05-14.9-20.01a7.42 7.42 0 00-2.28-2.3c-1.33-.81-2.6-1.73-3.93-2.52-2.06-1.21-4.17-2.34-6.24-3.53-8.38-4.82-16.5-10.07-24.9-14.84a93.03 93.03 0 01-18.29-13.21c-3.62-3.44-7.2-6.92-10.74-10.43-1.19-1.16-2.26-2.44-3.35-3.7-2.18-2.5-3.79-5.48-6.37-7.66-.34-.28-.43-.7-.07-1.1zm29.2-36.14a100.4 100.4 0 006.83 22.77c1.89 4.34 3.85 8.63 6.32 12.67.47.77 1.03 1.5 1.55 2.24-.06-.28-.1-.57-.2-.83-1.4-3.25-2.72-6.53-4.21-9.72-1.85-3.96-3.83-7.85-5.13-12.03-1.98-6.34-4.05-12.66-5.37-19.19-.1-.51-.32-1-.5-1.5.23 1.86.38 3.74.71 5.59zm-2.75-38.14c-.03-.29-.1-.57-.35-.84-.04 1.6-.1 3.2-.1 4.8-.03 7.03.64 14 1.61 20.95.14.98.31 1.95.54 2.91 2.02 8.44 4.1 16.85 6.76 25.12a71.05 71.05 0 003.5 8.66c.1.21.26.4.4.6-.08-.54-.12-1.1-.26-1.62-1.13-4.26-2.3-8.52-3.44-12.78-.46-1.76-.86-3.54-1.34-5.29-.95-3.45-1.86-6.92-2.92-10.34a65.75 65.75 0 01-2.8-14.5c-.47-5.89-1.06-11.78-1.6-17.67zm2.38 3.68c-.14-.45-.3-.89-.47-1.32-.06-.14-.16-.26-.4-.67.04.59.02.9.08 1.2 1.5 6.9 2.6 13.88 4.27 20.74 1.85 7.56 3.47 15.18 5.18 22.78.13.54.11 1.12.16 1.68-.17-.48-.39-.94-.5-1.44-2.1-8.82-4.24-17.65-6.26-26.5-.91-3.98-1.6-8.03-2.4-12.04-.14-.69-.34-1.36-.5-2.04-.04.39-.12.78-.1 1.16.43 5.08.79 10.15 1.33 15.21a43 43 0 002.15 9.09 94.37 94.37 0 013.28 12.01c.2 1.02.45 2.03.71 3.04 1.3 4.92 2.66 9.82 3.89 14.76 1.09 4.38 3.1 8.37 5.03 12.4.07.13.2.23.3.35l.16.63.12-.58.3.05-.19-.65a62.52 62.52 0 00-1.64-10.43 574.98 574.98 0 01-7.09-30.65c-.57-2.9-1.25-5.78-1.83-8.69-1.36-6.83-3.45-13.47-5.58-20.1zm17.98 63.06c-.41-6.42-.66-12.86-2.05-19.17a279.82 279.82 0 00-4.14-16.92 115.05 115.05 0 00-6.92-18.5c-.24-.48-.55-.92-.84-1.38.1.42.19.85.33 1.27 1.53 4.58 3.13 9.14 4.6 13.75.7 2.17 1.2 4.4 1.74 6.63 2.35 9.8 4.51 19.65 6.2 29.6.23 1.37.43 2.76.67 4.14.08.44.23.86.34 1.29.03-.24.09-.47.07-.7zm.7 8.49c-1.19-6.7-2.34-13.4-3.57-20.1-1.6-8.69-3.79-17.25-5.79-25.85-.1-.4-.2-.81-.33-1.2l-5.92-17.58c-.16-.44-.43-.85-.65-1.28.08.43.13.86.26 1.26 1.43 4.35 2.55 8.78 3.5 13.26 1.52 7.27 3.06 14.54 4.6 21.8.11.57.23 1.12.37 1.68 1.29 5.25 2.61 10.48 3.86 15.74.46 1.92.86 3.86 1.08 5.82.36 3.17.98 6.25 2.33 9.16.43.92.73 1.9 1.3 2.77-.34-1.83-.7-3.65-1.03-5.48zm75.17 16.6c0-.02-.08-.03-.2-.07-.08.17-.2.33-.24.52-.78 3.9-2.4 7.5-4.1 11.06-1.86 3.88-3.95 7.66-5.92 11.49a31.08 31.08 0 00-3.16 8.6c-.57 3.1-1.19 6.22-1.66 9.35a54.5 54.5 0 00-.12 13.06c.26 2.84.56 5.68.8 8.53.4 4.93 1.82 9.57 4.03 13.98a94.5 94.5 0 007.27 11.83c-.19-.48-.36-.98-.58-1.44-1.89-3.94-3.8-7.86-5.66-11.8-.38-.79-.65-1.64-.92-2.47a76.8 76.8 0 01-3.54-18.61 86.6 86.6 0 01-.23-11.82c.23-3.32.85-6.58 1.77-9.77.05-.17.22-.3.34-.45-.37 1.87-.76 3.73-1.1 5.6-.86 4.75-.81 9.52-.41 14.3.17 2.06.36 4.14.58 6.2a73.86 73.86 0 003.58 15.62c.21.64.5 1.26.79 1.86 1.32 2.77 2.65 5.54 4 8.3.2.43.5.81.78 1.22-.52-2.35-.95-4.73-1.58-7.06-1.2-4.51-2.54-9-3.79-13.5-1.09-3.93-1.36-7.97-1.6-12.02a61.27 61.27 0 01-.01-9.64c.44-4.5 1-8.99 2.05-13.39.2-.85.51-1.7.87-2.5 1.56-3.5 3.1-7.03 4.76-10.49a42.97 42.97 0 003.12-8.46c.12-.5.28-1 .43-1.5.67-2.21.5-4.39-.35-6.53zm4.77 18.19c-.79-3.18-1.55-6.36-2.33-9.54-.05-.22-.17-.43-.26-.64l.39 5.81c.13 2.08.32 4.14.35 6.22.03 1.4-.12 2.8-.28 4.19-.36 3.1-.76 6.18-1.15 9.27-.08.62-.2 1.23-.27 1.85l-.85 7.58c-.17 1.6-.31 3.2-.5 4.8-.68 5.52-1.42 11.02-2.04 16.55-.43 3.92-.4 7.87-.19 11.82.01.23.1.46.27.68.17-1.75.34-3.5.53-5.25.1-.93.2-1.87.36-2.78.77-4.35 1.58-8.7 2.35-13.04.18-1.02.25-2.07.44-3.09.28-1.42.63-2.83.94-4.25.15-.66.31-1.32.4-1.99.42-3.34.86-6.69 1.21-10.04.2-1.86.23-3.73.36-5.6.17-2.53.32-5.07.55-7.6a14.7 14.7 0 00-.28-4.95zm.76 17.33c.58-3.5.77-7.02.38-10.56l-.13-.91-.3-.03c-.15 1.7-.4 3.4-.44 5.1-.12 4.42-.6 8.8-1.26 13.16-.35 2.31-.62 4.63-.81 6.98l.25-1.33c.77-4.14 1.62-8.26 2.3-12.41zm-7.54 50.17c-.55-3.16-1.15-6.3-1.68-9.47-.12-.7-.04-1.43-.06-2.15l.59 1.93c.02-1.41.06-2.83.05-4.25-.03-4.06.33-8.08.95-12.1.64-4.14 1.04-8.33 1.54-12.5l1.44-11.9c.47-3.75 1-7.5 1.44-11.26.28-2.37.4-4.76.13-7.14-.04-.4-.11-.79-.2-1.4-.54 3.88-1.07 7.52-1.53 11.17-.51 4.03-1.68 7.91-2.69 11.83a62.13 62.13 0 00-1.7 9.01c-.21 2.06-.64 4.1-.96 6.16-.03-.4-.14-.83-.08-1.22.5-3.33 1.03-6.67 1.54-10a98.27 98.27 0 012.3-10.19c.38-1.4.62-2.84.83-4.28.45-3.14.81-6.29 1.28-9.43.47-3.15.31-6.32.23-9.48-.01-.7-.07-1.4-.34-2.15-.36 1.03-.77 2.03-1.05 3.08a32.26 32.26 0 01-2.81 6.91 106.84 106.84 0 00-5.37 11.93c-.18.48-.34.98-.45 1.5a82.5 82.5 0 00-1.92 17.47c.04 3.47.28 6.95.56 10.42.37 4.43 1.72 8.65 2.91 12.9.05.18.18.33.28.49-.03-.76-.02-1.52-.12-2.26-.78-6-.8-12.01-.79-18.03 0-3.1.28-6.21.96-9.27.46-2.08.82-4.18 1.22-6.27a2 2 0 01.44-1c-.05.38-.08.77-.15 1.15l-1.1 5.5a55.02 55.02 0 00-.95 11.92c.09 4.35.18 8.7.58 13.05a96.57 96.57 0 003.64 18.14c.27.93.45 1.9.67 2.85l.2.67.53.38c-.11-.9-.2-1.82-.36-2.72zm136.17 272l.18.04.24-.14-.36-.44-.17.08.11.46zm.25-1.71c.19-.99.1-1.93-.4-2.82-.06.97.01 1.91.4 2.82zm-2.93-29.2c-.02-.13-.12-.24-.24-.46-.05.26-.12.4-.1.54.29 1.83.3 3.7.98 5.45-.2-1.84-.42-3.69-.64-5.53zm-2.15-.22c.47 2.76.87 5.53 1.38 8.28.66 3.57 1.38 7.12 2.1 10.68.04.22.15.43.25.65-.04-.6-.05-1.2-.14-1.78l-3.56-21.32a8.1 8.1 0 00-.42-1.59 22 22 0 00.39 5.08zm-83.14-119.49l.06-.31.41-.57.67-.19.34-.06-.28-.23c1.32-.56 2.66-1.12 3.98-1.7.22-.1.42-.25.87-.53a11.41 11.41 0 00-3.78.23c-2.27.57-4.53 1.17-6.76 1.86a478.82 478.82 0 00-10.82 3.52c-1.87.63-3.73 1.3-5.54 2.07-7.81 3.28-15.6 6.61-23.4 9.92a309.86 309.86 0 00-19.12 8.8c-3.43 1.75-6.92 3.36-10.38 5.04-.44.21-.85.5-1.27.75 1.4-.06 2.7-.52 3.97-1.08 10.36-4.54 20.71-9.11 31.07-13.66 4.51-1.98 9.03-3.96 13.57-5.89 2.25-.95 4.53-1.8 6.82-2.65 3.65-1.34 7.32-2.65 10.99-3.95.57-.2 1.19-.29 1.79-.42-.45.24-.87.53-1.34.7-3.7 1.37-7.42 2.69-11.12 4.06-2.14.8-4.3 1.58-6.38 2.5-7.85 3.43-15.68 6.92-23.51 10.4-.37.16-.7.43-1.04.65-.34.09-.7.13-1.03.27-2.84 1.22-5.68 2.45-8.52 3.7-.25.1-.48.29-.71.44.33-.04.67-.07.99-.16 3.2-.95 6.15-2.45 9.07-4.02.09-.05.14-.15.2-.23.16-.01.33.01.47-.04l8.32-3.44c1.78-.73 3.52-1.56 5.34-2.14 2.97-.93 5.84-2.1 8.7-3.3a43.97 43.97 0 014.51-1.7 85.97 85.97 0 0011.07-4.07c.7-.31 1.47-.44 2.2-.64-.29.19-.56.42-.88.56-1.57.69-3.14 1.37-4.73 2.02-1.1.46-2.2.94-3.35 1.28a87.6 87.6 0 00-11.11 4.07c-.71.32-1.43.66-2.17.87-5.06 1.47-9.8 3.77-14.66 5.73a96.08 96.08 0 00-6.11 2.73 49.98 49.98 0 01-6.77 2.8c-1.34.42-2.65.91-3.97 1.4a354.92 354.92 0 00-15.5 6.14c-.22.09-.4.23-.59.37.58-.12 1.17-.2 1.73-.37 8.7-2.63 17.25-5.71 25.84-8.66 6.34-2.18 12.6-4.57 18.83-7.02 1.4-.55 2.83-1.02 4.25-1.51a68.43 68.43 0 009.47-3.99 68.07 68.07 0 014.5-2.14c3.97-1.71 7.75-3.78 11.51-5.87 1.17-.65 2.2-1.55 3.3-2.34zm-75.34 28c5.74-2.82 11.44-5.69 17.2-8.47 7.85-3.8 15.93-7.12 23.96-10.52 4.11-1.74 8.22-3.5 12.36-5.17 2.4-.97 4.86-1.81 7.32-2.64 3.84-1.3 7.7-2.52 11.54-3.8.22-.06.4-.22.6-.35-.65.03-1.3.03-1.95.12a71.42 71.42 0 00-11.69 2.55c-5.95 1.85-11.93 3.57-17.75 5.82a96.64 96.64 0 00-6.01 2.55 435.1 435.1 0 00-12.5 6.01c-2.76 1.4-5.43 3.02-8.13 4.57-2.88 1.66-5.72 3.39-8.62 5a90.45 90.45 0 00-8.31 5.14c.66-.27 1.34-.5 1.98-.8zm-3.39 2.28c-1 .41-1.95 1-2.92 1.5.28-.02.57-.02.82-.12 1.51-.64 3.15-1 4.51-1.96-.8.18-1.65.27-2.4.58zm-9.34 3.79c.43-.22.83-.46 1-.95l-1 .95zm2.4.88c2.01-.27 4.02-.55 6-.92 2.81-.53 5.6-1.17 8.4-1.7 3.73-.71 7.37-1.76 10.98-2.9 5.35-1.71 10.73-3.33 15.83-5.7 6.17-2.85 12.42-5.56 18.36-8.88 1.27-.71 2.55-1.4 3.82-2.1 1.46-.66 2.91-1.34 4.38-1.98.46-.2.95-.34 1.43-.5-.42.29-.8.65-1.24.87-7.9 3.94-15.65 8.14-23.66 11.83a146.62 146.62 0 01-17.61 6.64c-2.67.84-5.37 1.59-8.05 2.4-.37.1-.72.27-1.08.41 1.5.1 2.95-.2 4.38-.57 7.24-1.86 14.42-3.95 21.3-6.94 2.66-1.16 5.35-2.27 8.02-3.41a37.24 37.24 0 006.4-3.53c3.06-2.09 6.41-3.63 9.72-5.25.22-.1.5-.08.75-.12-.41.3-.8.65-1.23.88-1.56.84-3.15 1.6-4.7 2.47-1.5.83-2.97 1.7-4.4 2.64a38.84 38.84 0 01-6.15 3.37c-5.83 2.49-11.6 5.13-17.66 7.04-.22.07-.42.2-.63.32.34-.03.68-.02 1-.1 8.16-2.15 16.06-4.94 23.45-9.08a124.3 124.3 0 0011.57-7.32c.4-.3.74-.7 1.1-1.05.78-.5 1.6-.93 2.32-1.5 2.2-1.76 4.34-3.56 6.5-5.34-.44.16-.9.3-1.31.53-1.74.98-3.44 2.02-5.18 3-.47.27-1 .43-1.51.64l.04-.3-.63.18-.38.25c-.2.05-.41.05-.59.14-2.15 1.07-4.3 2.16-6.44 3.25-2.68.96-5.38 1.92-8.05 2.9-2.73 1.02-5.43 2.1-8.17 3.1-4.78 1.74-9.56 3.5-14.38 5.15-7.02 2.41-14.07 4.75-21.13 7.1-1.97.65-3.97 1.2-5.96 1.8-.4.1-.81.14-1.22.21l.05-.3-.66.18-.66.18-.05.31-.68.2-.67.2c-.46.2-.9.43-1.36.6-.66.23-1.34.43-2 .64.55.03 1.11.13 1.65.06zm77.01-41.26c-5.66.02-11.3.43-16.88 1.41a65.33 65.33 0 00-19.91 6.97c-1.83 1-3.62 2.05-5.4 3.1-.47.28-.88.66-1.31 1 .18-.04.37-.06.54-.13l13.63-5.76a38.9 38.9 0 016.67-2.1c2.58-.57 5.19-1.14 7.69-1.98a45.96 45.96 0 0113.94-2.13c1.03-.02 2.06-.07 3.1-.33-.7-.02-1.38-.05-2.07-.05zm11.42 1.02c-3.2.25-6.4.55-9.61.8-.61.05-1.23.03-1.85.04.48-.14.97-.34 1.46-.4 2.27-.22 4.55-.4 6.82-.62a2.5 2.5 0 001.31-.41c-1.08 0-2.16 0-3.24.04-4.15.18-8.3.38-12.44.59-1.93.1-3.8.51-5.67 1.01-4 1.09-8.04 2.1-12.04 3.22a50.18 50.18 0 00-5.16 1.75 376.34 376.34 0 00-10.66 4.42 54.48 54.48 0 00-12.99 7.65c-4.46 3.66-9.03 7.18-13.54 10.77-.37.3-.68.67-1 1.01.46-.26.93-.5 1.37-.8 4.75-3.24 9.5-6.5 14.26-9.73.5-.34 1.08-.53 1.63-.8-.34.3-.65.66-1.02.91-5.85 4.05-11.75 8.04-17.57 12.14-2.55 1.79-4.97 3.76-7.44 5.67-.27.21-.49.5-.73.75.38-.13.78-.21 1.12-.4 1.88-1.12 3.8-2.17 5.6-3.4 3.51-2.4 7.14-4.62 10.9-6.63 2.53-1.34 4.96-2.85 7.38-4.36a99.12 99.12 0 0110.86-5.8c2.6-1.19 5.17-2.4 7.74-3.66 4.03-1.95 8.16-3.63 12.41-5.03 3.55-1.18 7.13-2.26 10.69-3.41a86.76 86.76 0 0119.97-3.92c1.6-.13 3.18-.42 4.92-.67a5.94 5.94 0 00-3.48-.73zm-13.4-166.55c-.55 1.06-1.04 2.15-1.57 3.22-1.12 2.29-2.23 4.58-3.39 6.84-1.55 3.01-3.03 6.04-4.13 9.24a41.2 41.2 0 00-1.1 3.74 53.45 53.45 0 00-1.1 5.84c.67-1.35 1.32-2.7 2-4.05 2.62-5.26 4.81-10.7 6.75-16.25.4-1.13.64-2.3 1.03-3.43.74-2.13 1.53-4.23 2.3-6.34-.27.4-.58.77-.8 1.2zm1.99-3.84c.7-.5 1.03-1.21 1.25-1.98l-1.25 1.98zm1.11 9.05c.06-.52.11-1.04.04-1.58-.1.55-.17 1.1-.31 1.64-.52 1.95-1.1 3.9-1.57 5.86-.85 3.62-2.51 6.93-3.82 10.37-1.4 3.63-2.9 7.22-4.23 10.89-1.8 4.98-3.56 9.98-4.24 15.28a64.41 64.41 0 00-.67 10.88c.1 2.17.15 4.35.23 6.53.02.45.12.9.18 1.34h.14l.08-2c.23-4.22 1.18-8.33 1.96-12.46.52-2.76 1.2-5.49 1.77-8.23.49-2.3 1.51-4.42 2.27-6.63 1.25-3.64 2.42-7.3 3.7-10.92a90.89 90.89 0 003.43-12.63c.54-2.74.7-5.56 1.04-8.34zm3.17-13.91c-.04.6-.1 1.2-.12 1.81l-.13 4.36c-.01.3-.09.61-.16.92-.23 1-.52 2-.68 3.02-.35 2.2-.65 4.42-.95 6.63-.43 3.19-.8 6.38-1.28 9.56-.37 2.52-.9 5.01-1.3 7.53a75 75 0 01-2.03 9.44c-.28.94-.68 1.85-1.05 2.76-1.06 2.6-2.16 5.17-3.2 7.78-.3.76-.48 1.59-.65 2.4-.96 4.53-1.47 9.13-2.08 13.7-.4 3.04-.57 6.1-.56 9.16.01 1.5-.05 3.1.18 4.6.07.46.28.86.4 1.3.2.68.2 1.4.32 2.1l1.57 8.97v.2l.2.7.12-.14c-.95-5.76-1.83-11.56-1.79-17.4.04-6.6 1.7-12.82 3.63-19.08 2-6.45 3.65-12.95 4.97-19.57a434.4 434.4 0 003.67-20.2 98.51 98.51 0 001.1-20.26c-.04-.1-.1-.2-.18-.3zm-2.75 17.74c.88-2.94.99-6 1.31-9.02-.9 2.94-.83 6.02-1.3 9.02zm.88 34.4c1.38-4.25 2.6-8.54 3.47-12.94.95-4.87 1.15-9.8 1.14-14.74-.02-5.52-.4-11-1.15-16.47-.06-.37-.16-.74-.25-1.1.02.84.03 1.67.07 2.51.2 4.46.6 8.92.59 13.38-.02 5.3 0 10.62-1.06 15.84a89.6 89.6 0 01-3.78 13.5c-1.4 3.8-2.63 7.66-4.08 11.44-1.25 3.26-2.13 6.63-3.06 9.98a37.45 37.45 0 00-1.29 10.48c0 .36.06.72.2 1.1.12-.67.3-1.33.35-2 .23-2.97 1.05-5.82 1.82-8.68 2.02-7.53 4.62-14.88 7.03-22.3zm-9.9 34.53c-.17-3.9-.19-7.82.8-11.62.99-3.76 1.94-7.54 3.32-11.2 1.36-3.6 2.57-7.24 3.85-10.86.46-1.27 1-2.52 1.38-3.8.9-3.1 1.78-6.2 2.55-9.32.65-2.63.88-5.33.99-8.03.13-3.38.41-6.75.32-10.12-.13-5.12-.44-10.23-.72-15.35.01 3.78-.23 7.56-.72 11.33-.84 6.56-2.12 13.08-3.35 19.57a204.42 204.42 0 01-4.58 19.72c-1.88 6.38-4.1 12.7-4.55 19.38-.37 5.49.21 10.96 1.03 16.39-.11-2.03-.22-4.06-.31-6.1zm.52 12.13l-.07-.41c-.56-1.37-1-2.78-1.3-4.23l-.07-.23c-1.47-6.76-2.7-13.55-1.9-20.53.4-3.5.82-7 1.33-10.5.37-2.52.83-5.02 1.37-7.5.28-1.31.75-2.6 1.26-3.84.93-2.3 2.11-4.53 2.9-6.88a83.22 83.22 0 002.28-8.41c.66-2.99 1.17-6.02 1.66-9.04.36-2.2.58-4.42.8-6.66-.1.39-.21.77-.3 1.16a116.69 116.69 0 01-4.25 14.98c-1.28 3.4-2.28 6.9-3.6 10.29a54.18 54.18 0 00-2.79 9.7c-.75 4.04-1.67 8.04-2.45 12.07-.87 4.54-.76 9.09.1 13.62l.4 1.94c.07.06.08.13.05.2l.67 3.2c.11.55.17 1.12.26 1.68-.6-.51-.68-1.27-.83-1.96-.73-3.3-1.43-6.6-2.09-9.91-.6-3.07-.6-6.19-.7-9.3a66.89 66.89 0 011.76-17c.52-2.28 1.32-4.48 2.01-6.71 1.37-4.42 3.2-8.67 4.94-12.94.91-2.27 1.88-4.5 2.7-6.8.79-2.14 1.46-4.33 2.12-6.5 1.76-5.8 2.42-11.8 3.65-17.7.03-.15.01-.3-.1-.49l-.37 1.25a17.65 17.65 0 01-1.68 3.85 41.12 41.12 0 00-4 9.77c-.62 2.2-1.44 4.33-2.18 6.49-1.74 5.07-4.07 9.88-6.44 14.68-.87 1.77-1.56 3.63-2.27 5.47-.25.67-.4 1.4-.47 2.12-.4 4.23-.6 8.49-1.19 12.71-.47 3.36-.17 6.75.03 10.12a92.5 92.5 0 002.86 17.5c.58 2.26 1.28 4.5 1.97 6.72.16.54.45 1.03.68 1.54l.18.64.11-.58c.22.45.5.88.66 1.35.6 1.75 1.15 3.52 1.76 5.27.2.53.52 1.01.8 1.52-.08-.58-.16-1.15-.26-1.72zm32.35-39.47c-2.8 5.8-5.62 11.58-8.38 17.4a41.06 41.06 0 00-3.71 12.33c-.56 4.24-.8 8.47-.15 12.73.66 4.36 1.31 8.73 1.95 13.1.44 3 1.51 5.81 2.56 8.64.05.14.1.29.4.33l-.08-.55c-.67-4.05-1.37-8.1-2.02-12.14a91.1 91.1 0 01-.96-17.7c.12-3.44.9-6.78 1.97-10.05.23-.7.47-1.38.63-2.09.74-3.11 2.38-5.86 3.52-8.8 1.16-3 2.46-5.96 3.54-8.99.7-1.91 1.13-3.92 1.68-5.9-.32.56-.67 1.1-.95 1.69zm2.31-3.52c-.24.67-.5 1.33-.7 2.02-.41 1.4-.73 2.82-1.19 4.2-.5 1.52-1.1 3.02-1.68 4.52-.8 2.09-1.59 4.17-2.4 6.25-.34.87-.67 1.76-1.11 2.58-1.46 2.72-2.28 5.68-3.24 8.59-1.72 5.21-2.09 10.56-1.85 16.01.22 4.89.63 9.74 1.57 14.55.77 3.87 1.3 7.79 2.01 11.67a12.65 12.65 0 002.41 5.26c-.2-.93-.38-1.87-.6-2.8-.53-2.28-1.08-4.55-1.6-6.82-.24-1.07-.37-2.16-.62-3.22-1.28-5.3-1.48-10.69-1.35-16.1.1-4.06.27-8.12 1.08-12.1.56-2.75 1.37-5.44 2.11-8.15.79-2.85 1.63-5.69 2.46-8.53 1.36-4.7 2.75-9.37 4.07-14.07.35-1.24.5-2.54.63-3.86zm1.92 1.66c-.1.55-.22 1.11-.3 1.67-.1.62-.2 1.24-.26 1.86a62.37 62.37 0 01-4.02 16.76 54.06 54.06 0 00-3.62 13.66c-.3 2.58-.75 5.14-1.1 7.71-.46 3.36-.32 6.74-.2 10.11.13 3.84.3 7.68.44 11.52.01.46-.07.92-.11 1.38-.11-.49-.29-.98-.33-1.47-.46-5.7-.53-11.4-.61-17.12-.02-1.29.12-2.6.28-3.88.35-2.67.77-5.34 1.14-8.02.16-1.13.22-2.27.4-3.4a43.9 43.9 0 012.14-7.64c1.01-2.83 2-5.68 2.91-8.54.44-1.39.7-2.83.98-4.25.88-4.5 1.57-9 1.81-13.58.04-.6-.07-1.2-.41-1.83-.08.43-.2.84-.23 1.27-.19 2.65-.7 5.23-1.48 7.78-.8 2.64-1.4 5.33-2.15 7.97-1.4 4.9-2.8 9.79-4.27 14.66a60.47 60.47 0 00-2.47 14.08c-.24 4.15-.42 8.3-.06 12.45.19 2.27.53 4.53.9 6.78.34 2 .8 3.96 1.22 5.94l.1.28.2-.22c.11.54.28 1.08.35 1.63.26 2.23.74 4.4 1.44 6.53.16.49.37.95.77 1.39l-.1-1.65c-.25-3.78-.54-7.56-.73-11.34-.22-4.37.1-8.72.27-13.08.29-7.6 1.44-15.09 3-22.52 1.12-5.28 2.17-10.58 3.26-15.88.75-3.63.83-7.3.84-11.01zm1.37 14.32c.48-3.9.23-7.75-.66-11.57-.14 1.49-.32 2.97-.42 4.45-.18 2.7-.8 5.33-1.3 7.98-1.5 8-3.5 15.91-4.63 23.98-.48 3.4-.8 6.8-.94 10.22a468 468 0 00-.35 10.25c-.02 1.24.12 2.47.2 3.7.16-2.32.38-4.64.47-6.96.1-2.6.05-5.2.14-7.78.04-1.45.18-2.9.4-4.34.47-3.34.97-6.69 1.8-9.96.65-2.51 1.39-5 2.14-7.48.8-2.64 1.75-5.22 2.47-7.88.4-1.49.5-3.06.68-4.6zm-6.25 61.93a64.86 64.86 0 01-.45-18.63 164.8 164.8 0 012.82-17.21c.8-3.44 1.73-6.85 2.65-10.27a56.2 56.2 0 001.7-13.91c-.74 4.03-2.3 7.84-3.48 11.75a101.6 101.6 0 00-3.6 15.94 74.2 74.2 0 00-.53 9.48c-.01 2.6-.2 5.18-.25 7.78-.07 3.52-.08 7.05-.13 10.58a36.4 36.4 0 00.51 6.67c.2 1.16.55 2.26 1.4 3.44-.23-2.04-.34-3.85-.64-5.62zm12.28 25.18c-1.46-2.48-3.05-4.9-4.61-7.32-.27-.42-.69-.74-1.04-1.1l-.09-.13.08.13c.45.98.8 2.02 1.37 2.93 2 3.22 4.06 6.4 6.1 9.58.07.1.17.2.26.28-.68-1.46-1.26-2.98-2.07-4.37zm23.23-9.3c1.13-4.88 3.06-9.47 4.8-14.14.9-2.44 1.92-4.83 3.13-7.13a47.22 47.22 0 013.87-6.4c2.36-3.15 4-6.68 5.43-10.3.84-2.13 1.65-4.27 2.42-6.42.26-.76.39-1.57.57-2.35-.4.63-.81 1.26-1.2 1.9-1.15 1.85-2.23 3.75-3.44 5.56-2.59 3.9-5.37 7.67-7.85 11.63a63.18 63.18 0 00-6.96 14.94 126.97 126.97 0 00-4.58 21.16c-.65 5.1-1.21 10.23-1.03 15.38.12 3.16.5 6.3 1.03 9.44.03-1.01.1-2.02.08-3.03-.11-4.48.16-8.93.62-13.38.58-5.7 1.82-11.28 3.1-16.85zm-6.19-4.88c-1.2 3.42-1.45 6.98-1.76 10.56-.38 4.27-.07 8.5.36 12.73.03.3.1.58.28.87.78-9.86 1.8-19.7 3.17-29.5-.87 1.71-1.41 3.54-2.05 5.34zm20.94-37.6c-1.38 2.19-2.74 4.38-4.1 6.57a.67.67 0 00-.09.62c.56-.73 1.15-1.43 1.66-2.2 1.23-1.83 2.47-3.67 3.24-5.77-.24.26-.53.5-.71.79zm.71-.78l.86-1.34c-.5.3-.75.78-.86 1.34zm5.13-8.28c-2.2 4.07-4.37 8.14-6.56 12.21-.27.5-.56 1-.9 1.46l-6.23 8.56c-1.19 1.64-2.4 3.26-3.48 4.97-1.76 2.82-3.41 5.7-5.1 8.56a12.45 12.45 0 00-1.5 4.24l-.95 5.38c-.44 2.5-.75 5.02-.79 7.58-.02 1.24-.15 2.5-.4 3.71-.6 2.97-.56 6-.8 9l-.48 5.42c-.2 2.03-.23 4.04.26 6.04.37 1.52.68 3.04 1.03 4.56.06.28.22.53.34.8-.01-.8.05-1.62-.06-2.41-.57-4.36-.44-8.7.01-13.06.34-3.3.6-6.62 1.08-9.9.44-3.03 1.08-6.03 1.72-9.03.49-2.28 1.13-4.53 1.68-6.8a51.2 51.2 0 013.2-9.1 74.11 74.11 0 017.78-13.46c1.69-2.3 3.25-4.69 4.93-7 2.12-2.92 3.68-6.15 5.2-9.4.56-1.2.87-2.53 1.4-4.1-.84.58-1.08 1.21-1.38 1.77zm1.56 1.14c.03-.2.04-.4-.07-.64-.3 1.02-.65 2.04-.9 3.07a78.79 78.79 0 01-5.66 15.16 31.6 31.6 0 01-2.77 4.68 59.7 59.7 0 00-7.21 13.41c-1.21 3.15-2.4 6.31-3.55 9.49a30.52 30.52 0 00-1.16 3.88c-1 4.62-2.1 9.22-2.87 13.88a92.17 92.17 0 00-1.15 16.92c.05 2.03-.02 4.06 0 6.08.03 1.24.1 2.48.68 3.6 0-3-.06-6.01.04-9.02a42 42 0 01.6-5.72c.75-4.3 1.52-8.6 2.45-12.87a62 62 0 012.2-7.62c1.98-5.53 4.12-10.99 6.12-16.5 1.81-4.99 3.98-9.82 6.22-14.62 1.52-3.25 2.7-6.63 3.94-10 1.58-4.27 2.3-8.72 3.09-13.18zm.25 3.9c.06-.4.1-.81.14-1.22h-.24c-.28 1.1-.62 2.2-.81 3.31-.52 2.93-1.53 5.71-2.45 8.52-1.73 5.24-4.05 10.23-6.25 15.28-2.25 5.13-4.24 10.38-6.29 15.6-1.21 3.09-2.4 6.2-3.47 9.33a59.56 59.56 0 00-2.44 8.7c-.71 3.93-1.46 7.86-2.17 11.8-.52 2.88-.53 5.8-.54 8.7 0 2.38.09 4.77.18 7.16a7.92 7.92 0 001 3.6c.04-1.21.21-2.43.09-3.63-.24-2.34-.03-4.67.16-7 .42-5.12 1.15-10.21 2.1-15.27.38-2.1.7-4.2 1.16-6.27a64.24 64.24 0 014.76-13.81c3.9-8.1 7.57-16.3 10.6-24.76.83-2.3 1.37-4.69 2.02-7.04.34-1.25.64-2.52.95-3.78.07-.3.13-.6.18-.91l1.32-8.31zm.28 3.2c0-.2-.04-.4-.06-.6l-.21-.07c-.24 1.26-.56 2.52-.68 3.8a26.8 26.8 0 01-.94 5.03 62.1 62.1 0 00-1.28 4.98c-.69 3.33-2.1 6.4-3.3 9.55-2.23 5.94-5.07 11.6-7.6 17.4-.72 1.67-1.66 3.25-2.31 4.94-.84 2.17-1.53 4.4-2.22 6.64-1.59 5.07-2.3 10.33-3.16 15.56-.36 2.14-.54 4.31-.73 6.48l.88-4.74a77.25 77.25 0 015.76-18.21c1.16-2.5 1.98-5.14 3.02-7.68 1.45-3.56 2.97-7.08 4.44-10.63 1.4-3.36 2.87-6.69 4.1-10.1 1.3-3.56 2.54-7.15 3.2-10.9.68-3.78 1.14-7.6 1.1-11.45zm.14 14.24c.06-1.55.04-3.1-.15-4.7-.05.2-.12.4-.16.6a84.27 84.27 0 01-5.44 17.54c-1.5 3.54-2.92 7.12-4.5 10.61-1.71 3.74-3.14 7.59-4.64 11.4-.77 1.99-1.64 3.94-2.46 5.9a55.64 55.64 0 00-2.89 9.37c-.71 3.14-1.32 6.32-1.79 9.5-.42 2.87-.6 5.78-.88 8.67l.18-.02c.12-.66.23-1.33.37-1.99.6-2.84 1.21-5.69 1.86-8.53.2-.86.51-1.68.77-2.53 1.37-4.57 2.72-9.16 4.1-13.73a90.46 90.46 0 018.86-20.05c1.29-2.17 2.1-4.52 2.98-6.85.85-2.23 1.6-4.5 2.39-6.76a28.85 28.85 0 001.4-8.43zm-22.37 73.56l.98-7.85c-.41 2.6-1.44 5.12-.98 7.85zm12.08-37.77c-.78.86-1.13 1.95-1.49 3.02a8.31 8.31 0 001.5-3.02zm-4.3 8.67l.89-2.08v-.02c.08-.36.11-.73.26-1.06 1.18-2.54 2.36-5.07 3.57-7.6.7-1.45 1.46-2.87 2.13-4.33 1.46-3.2 2.94-6.41 4.3-9.67a33.7 33.7 0 002.72-10.81c-.28.59-.47.93-.6 1.29-1.11 3.01-2.18 6.05-3.34 9.05-.45 1.15-1.08 2.24-1.7 3.32-2.42 4.3-4.73 8.66-6.5 13.27-1.24 3.25-2.22 6.59-3.29 9.9-.73 2.27-1.41 4.55-2.1 6.84-.2.64-.33 1.3-.43 1.97l4.1-10.07zm11.9 87.23c.5 1.8.94 3.61 1.5 5.39.28.88.75 1.7 1.14 2.55a45.79 45.79 0 00-2.54-8 7.98 7.98 0 00-1.3-3.27l1.2 3.33zm-32.76-45.78c-.48-1.01-1.1-1.9-2.02-2.57.49 1 1.05 1.95 2.02 2.57zm-2.28-2.95c-.16-.53-.45-.94-1.01-1.09l1 1.09zM288 319.08c.2.18.44.31.68.46l-4.78-5.74c-.08-.1-.22-.14-.35-.2 1.2 2.06 2.7 3.86 4.45 5.48zm-22.51-23.55l5.03 4.2c.12.4.38.65.76.75l-.74-.76c-1.5-1.73-3.04-3.43-5.16-4.42.03.08.05.18.1.23zm-1.19-5.25c-.14-.41-.25-.85-.45-1.23-.95-1.78-1.94-3.55-2.9-5.33-.23-.45-.35-.95-.53-1.42l1.05 1.11c-.04-.24-.06-.48-.12-.7-1.13-3.84-2.3-7.66-3.4-11.5a94.66 94.66 0 00-4.69-13.03 60.6 60.6 0 00-4.25-7.78c-.33-.5-.72-.97-1.08-1.44.06.28.1.56.22.82.72 1.67 1.42 3.35 2.2 5 1.6 3.39 2.83 6.9 3.75 10.54.85 3.33 2.15 6.5 3.38 9.7.22.57.33 1.18.5 1.77-.26-.43-.58-.84-.76-1.3a147 147 0 01-4.2-12.06c-2.2-7.08-5.18-13.8-9.5-19.87a2.57 2.57 0 00-.92-.89l.46.86c.77 1.35 1.51 2.72 2.3 4.06a40.21 40.21 0 014.51 11.74c1.07 4.77 2.58 9.41 4.17 14.03.57 1.66 1.36 3.25 2.11 4.85.84 1.78 1.75 3.53 2.6 5.31a12.9 12.9 0 002.57 3.69c1.02 1 2 2.04 2.99 3.07zm-28.64-51.76c.07.44.08.71.16.97 1.48 4.48 2.92 8.98 4.48 13.43.56 1.61 1.34 3.16 2.16 4.65 2.43 4.42 4.92 8.79 7.4 13.17.2.38.46.74.7 1.1-.14-.5-.23-1.04-.43-1.53a1055.8 1055.8 0 00-5.09-11.89c-1.33-3.04-2.73-6.06-4.1-9.08-.74-1.66-1.5-3.31-2.23-4.98-.14-.32-.18-.69-.26-1.03.25.38.54.74.74 1.14 1.2 2.42 2.39 4.84 3.54 7.27.73 1.55 1.42 3.11 2.1 4.68 1.36 3.14 2.7 6.3 4.06 9.43.11.26.3.48.46.7-.09-.47-.14-.97-.28-1.43-.63-1.91-1.29-3.82-1.94-5.73-.57-1.66-1.18-3.31-1.7-5a31.26 31.26 0 00-3.22-6.87 71.07 71.07 0 01-2.43-4.32 34.4 34.4 0 00-3.37-5.57c-.24-.32-.57-.56-.86-.84l.14.96c.46.36.7.83.7 1.42l-.73-.65zm1.3-1.08a33.5 33.5 0 013.45 5.71 59.62 59.62 0 002.3 4.06 29.8 29.8 0 013.35 7.32c.48 1.64 1.08 3.24 1.62 4.86.8 2.36 1.6 4.7 2.36 7.07.72 2.29 1.7 4.45 2.86 6.54.14.24.35.44.53.66-.12-.53-.22-1.07-.39-1.59-1.42-4.4-2.8-8.8-3.84-13.32a36.35 36.35 0 00-3.96-10.13c-1.5-2.61-3-5.22-4.58-7.8-1.04-1.68-2.5-2.99-4.1-4.14.13.26.23.55.4.76zm13.96 33c0 .14-.04.29.01.4 1.13 2.78 2.28 5.54 4.05 7.99.08.1.2.19.3.28-.01-.19 0-.4-.08-.55l-4.28-8.12zm-76.97 28.12c2.33.49 4.72.79 7.1.96 3.77.28 7.56.4 11.35.56 3.27.14 6.54.15 9.8.36 2.96.18 5.9.45 8.87.35 3.83-.13 7.67-.32 11.5-.48.52-.02 1.03 0 1.55.01-.5.13-.98.33-1.48.37-5.9.5-11.81.88-17.73.48-4.98-.33-9.95-.47-14.94-.57-2.9-.07-5.8-.3-8.76-.47.09.07.1.1.14.12a141.41 141.41 0 0016.15 2.63c6.42.65 12.86.54 19.3.1a85.94 85.94 0 0016.76-2.58c2.4-.65 4.76-1.46 7.14-2.22.22-.07.4-.22.6-.35l-4.87.5c-.61.06-1.23.1-1.85.15.28-.12.54-.3.83-.33 2.08-.3 4.16-.59 6.24-.86.25-.04.5.04.76.07.38-.12.75-.3 1.14-.36 3.58-.57 7-1.7 10.42-2.83-.57.06-1.15.1-1.71.19-3.49.56-6.95 1.37-10.49 1.44-5.35.1-10.66.85-15.99 1.15-9.32.52-18.66 1.05-28 .98-4.36-.03-8.72-.04-13.08-.19-3.06-.1-6.11-.42-9.17-.63-2.73-.2-5.47-.38-8.23-.44 2.21.64 4.4 1.42 6.66 1.9zm-1.27-2.26c3.22.15 6.43.51 9.64.66 3.94.17 7.9.32 11.83.31 6.29-.02 12.57-.14 18.85-.31 4.52-.13 9.03-.4 13.54-.67 2.33-.14 4.64-.48 6.97-.67 2.02-.16 4.04-.3 6.07-.33 3.08-.05 6.1-.49 9.13-1 .2-.03.38-.12.55-.37-.95-.04-1.9-.13-2.86-.1-5.6.13-11.21.25-16.81.45-4.2.16-8.41.13-12.62 0-4.35-.15-8.72-.23-13.07-.35-2.75-.08-5.5-.22-8.25-.25a399.1 399.1 0 00-11.22 0c-4.46.07-8.93.1-13.38.4-3.64.26-7.27.06-10.9.16-.55.01-1.1.05-1.9.1a69.32 69.32 0 0014.44 1.97zm76.72-3.02l-9.2-.83c-2.33-.2-4.67-.29-6.98-.57-5.68-.7-11.37-1.06-17.08-1.04-3.8.02-7.58-.17-11.37-.11-4.51.06-9.02.32-13.53.44-8.68.22-17.29 1.25-25.9 2.19-.26.03-.5.1-.77.34.4.03.82.1 1.23.1 3.05-.15 6.1-.38 9.17-.44 6.7-.13 13.39-.28 20.08-.22 7.31.06 14.63.24 21.94.58 6.8.31 13.6-.1 20.39-.27 3.73-.09 7.47-.04 11.2-.06.27 0 .55-.06.82-.1zm-55.02-13.54c5.34-.68 10.7-1.04 16.08-1.13a49.9 49.9 0 00-16.08 1.13zm47.78 5.23c-.22-.11-.44-.28-.68-.34-3.93-.99-7.86-1.97-11.79-2.92-1.71-.42-3.44-.8-5.16-1.17a61.84 61.84 0 00-15-1.3c-7.03.18-13.98.87-20.88 2.18-1.12.21-2.24.47-3.33.8-4.23 1.25-8.46 2.53-12.68 3.81-2.93.9-5.69 2.23-8.57 3.53l.42.36-.7.5c.57.09 1.1 0 1.59-.34l.68-.19c.6-.07 1.23-.1 1.83-.22 6.66-1.37 13.3-2.82 19.97-4.13 4.33-.86 8.67-1.7 13.1-1.82 3.94-.1 7.89-.04 11.83-.14 3.96-.1 7.88.33 11.81.6 2.6.18 5.18.29 7.77.45 4.25.25 8.5.55 12.68 1.45.25.05.5.1.81-.07l-3.7-1.04zm13.65 5.13a27.6 27.6 0 00-8.37-2.86c-1.18-.17-2.35-.45-3.52-.68a98.06 98.06 0 00-13.78-1.47c-2.96-.16-5.92-.27-8.87-.53-2.95-.27-5.9-.39-8.87-.33-3.47.06-6.96-.05-10.43.1-2.8.13-5.6.43-8.37.82-7 .98-13.91 2.46-20.81 4-3.9.86-7.8 1.78-11.69 2.71-.5.12-.97.4-1.44.62 2.74-.36 5.49-.67 8.22-1.1 5.95-.92 11.89-1.92 17.83-2.88 3.65-.59 7.34-.65 11.02-.84 7-.34 14-.31 21-.18 3.58.07 7.16.24 10.73.4.54.01 1.06.14 1.6.23-.84.04-1.68.14-2.52.1-8.6-.39-17.19-.5-25.79-.22-3.73.13-7.45.35-11.18.55-3.48.2-6.87 1.02-10.3 1.55-5.69.89-11.38 1.72-17.07 2.58-1.54.23-3.07.5-4.6.78-.26.05-.51.19-.76.3l5.92-.7c7.67-.94 15.33-2.02 23.06-2.34 7.31-.3 14.62-.58 21.93-.67 5.3-.07 10.58.16 15.88.3 1.24.02 2.48.22 3.72.33l13.02 1.14c3.6.3 7.22.6 10.83.88 1.14-.03 2.28-.03 3.43-.01a.36.36 0 01.3-.23c1.2-.11 2.4-.09 3.6.01l.12-.33a11.98 11.98 0 00-5.09-1.32 37.37 37.37 0 01-6.9-1.2l9.07 1.24.07-.18c-.33-.2-.65-.4-.99-.57zm1.83-1.05c1.42 1.07 2.93 2.04 4.4 3.05-.13-.2-.23-.42-.4-.56-1.92-1.5-3.84-3-5.78-4.47-.19-.15-.43-.22-.65-.31.8.77 1.55 1.62 2.43 2.29zm-30.18-21.11l-1.27-.8c.3.45.76.66 1.27.8zm-6.52-4.17c1.7 1.1 3.41 2.17 5.12 3.25-.14-.17-.27-.37-.45-.49a62.56 62.56 0 00-5.36-3.4c.23.22.43.47.7.64zm-13.58-7.92l.07-.22c-.14-.07-.28-.19-.43-.2-.12 0-.24.12-.56.3l.92.12zm-14.73.97c-.35-.06-.7-.15-1.05-.19-2.43-.25-4.85-.51-7.27-.73-4.72-.43-9.32-1.64-14-2.25-4.44-.57-8.84-1.32-13.21-2.23-2.24-.47-4.45-1.07-6.7-1.47-4.55-.8-9.12-1.49-13.68-2.23l-.05.22c1.81.44 3.63.88 5.43 1.34 2.31.6 4.63 1.2 6.93 1.82 2.92.78 5.9 1.21 8.88 1.67 4.41.69 8.83 1.4 13.21 2.25 3.27.63 6.55 1.1 9.88 1.24 2.38.1 4.76.36 7.14.56 1.5.13 2.98.27 4.49 0zm-62.86-9.24a113.1 113.1 0 0012 3.9c6.16 1.7 12.34 3.35 18.68 4.26 4.78.68 9.58 1.3 14.4 1.72 2.93.25 5.9.1 8.86.09.54 0 1.07-.16 1.61-.25-1.62-.16-3.24-.4-4.87-.47-3.28-.12-6.5-.62-9.72-1.26-4.23-.85-8.49-1.56-12.74-2.3-2.3-.39-4.63-.65-6.92-1.07-1.38-.25-2.71-.71-4.07-1.05-1.56-.4-3.14-.73-4.7-1.14-3.06-.8-6.11-1.64-9.17-2.48-2.95-.82-5.9-1.66-8.93-2.25 1.86.77 3.7 1.55 5.57 2.3zm-10.64-5.17c2.65.92 5.32 1.78 7.98 2.65.45.15.9.28 1.36.36 6.03 1.13 12.06 2.2 18.08 3.37 4.4.84 8.75 1.8 13.14 2.68 2.08.41 4.19.75 6.29 1.1 1.95.33 3.9.6 5.85.92 4.72.77 9.42 1.61 14.16 2.28 2.66.37 5.37.48 8.06.68 1.3.1 2.6.21 3.88.16 1.76-.08 3.5-.3 5.26-.47-3.8-.7-7.56-1.5-11.42-1.54-1.76-.01-3.52-.28-5.27-.53-2.93-.41-5.85-.9-8.77-1.37-2.16-.35-4.31-.69-6.45-1.11-3.78-.75-7.53-1.6-11.3-2.34-4.85-.94-9.7-1.87-14.56-2.69-4.67-.78-9.35-1.45-14.03-2.1-3.83-.53-7.5-1.67-11.25-2.55a73.79 73.79 0 00-4.72-.98c1.15.72 2.46 1.04 3.71 1.48zm1.33-3.49l4.27.37c1.76.16 3.52.28 5.27.5 3.1.4 6.17.9 9.26 1.3 11 1.4 21.82 3.73 32.7 5.78 5.1.97 10.16 2.18 15.18 3.5 4.16 1.11 8.3 2.3 12.52 3.25 1 .22 1.98.57 3.3.95-.85-.86-1.65-1.1-2.4-1.37-2.33-.88-4.7-1.66-7.03-2.51-2.58-.95-5.14-1.98-7.73-2.89-2.16-.75-4.34-1.42-6.53-2.05-3.35-.96-6.7-1.85-10.06-2.76-.65-.18-1.32-.3-1.98-.45-2.22-.5-4.43-1.13-6.68-1.5-3.84-.63-7.71-1.11-11.57-1.64-1.95-.27-3.91-.49-5.87-.74a88.31 88.31 0 00-12.6-.5c-3 .05-6 .24-9.01.38-.35.02-.7.1-1.04.16v.22zm-1.01.7c1.27.24 2.54.46 3.81.71l22.48 4.43c.97.2 1.93.41 2.9.6l30.88 6.13c5.6 1.11 11.25 2.04 16.92 2.72 1.08.13 2.16.16 3.24.23l.01-.08c-1.56-.4-3.12-.79-4.67-1.2l-10.7-2.82c-.4-.1-.79-.24-1.2-.33a378.66 378.66 0 00-24.9-5c-2.15-.34-4.28-.86-6.43-1.22-4.15-.7-8.3-1.38-12.46-2.02-2.87-.44-5.75-.87-8.64-1.2-3.2-.37-6.4-.62-9.6-.91a8.6 8.6 0 00-1.64-.04zm-5.58.29c3.33.81 6.64 1.68 9.98 2.43 2.74.61 5.5 1.17 8.26 1.63 4.4.73 8.83 1.35 13.24 2.06 3.43.55 6.88 1.09 10.29 1.76 5.4 1.06 10.78 2.28 16.18 3.34 2.6.51 5.22.83 7.84 1.24l.05-.15-.75-.18-26.3-5.24c-7.12-1.43-14.26-2.83-21.38-4.33-3.15-.67-6.3-1.32-9.5-1.74-2.31-.3-4.6-.77-6.92-1.15a4.66 4.66 0 00-2.02.07l1.03.26zm-2.2-1.9c-.14.03-.26.12-.38.2 2.35.36 4.7.51 7.09.15 5.2-.79 10.45-.79 15.7-.74 6.4.06 12.73.86 19.03 1.94 1.44.24 2.89.36 4.33.57 4.73.7 9.38 1.8 13.98 3.1 2.95.83 5.95 1.48 8.88 2.36 2.88.87 5.71 1.9 8.55 2.9 2.79.98 5.54 2.06 8.34 3.01 2.17.75 4.29 1.58 6.3 2.68.36.2.73.42 1.12.53.31.08.67.01 1.07-.23-.62-.35-1.23-.7-1.86-1.03-4.15-2.18-8.5-3.88-12.88-5.5a286.22 286.22 0 00-11.02-3.87c-2.56-.84-5.2-1.41-7.79-2.21-5.47-1.7-11.1-2.7-16.73-3.66-2.4-.4-4.86-.46-7.29-.68l-5.27-.46c-7.93-.72-15.86-1.01-23.8-.22-2.47.24-4.91.76-7.37 1.16zm66.03 2.5a109.79 109.79 0 00-18.27-4.57c-10.79-1.75-21.6-1.67-32.44-.47-.43.05-.84.2-1.25.31l2.4.06c3.36.1 6.74.15 10.1.36 4.66.28 9.32.63 13.97 1.07 2.43.23 4.83.7 7.23 1.12 1.64.29 3.25.7 4.9.98 3.7.61 7.25 1.79 10.84 2.82 2.4.69 4.81 1.32 7.17 2.13 3.29 1.12 6.54 2.35 9.8 3.57 2.17.82 4.32 1.71 6.52 2.51a13.03 13.03 0 00-2.76-1.82c-5.92-3.04-11.92-5.9-18.21-8.07zm-7.97-14.93c1.9 2.21 3.93 4.27 6.2 6.11 5.24 4.25 10.45 8.54 15.68 12.8 1.17.94 2.36 1.87 3.61 2.7.79.52 1.69.86 2.54 1.28-.27-.27-.53-.56-.83-.78a275.14 275.14 0 01-24.05-19.75c-1.16-1.06-2.39-2.04-3.58-3.06.13.24.25.5.43.7zm-16.75-10.53a16.2 16.2 0 00-5.83-.4l5.83.4zm.44-.77l.02-.16L138.1 210c-.8-.21-1.62-.37-2.44-.52a95.55 95.55 0 01-13.06-3.58 94.78 94.78 0 00-10.2-2.89c-2.95-.65-5.8-1.57-8.68-2.46-3.28-1.01-6.56-2-9.83-3.02-1.89-.58-3.76-1.2-5.65-1.78a8.55 8.55 0 00-2.6-.45c.3.18.58.37.89.53a72.64 72.64 0 009.19 3.83c3.81 1.37 7.59 2.85 11.41 4.17 2.45.85 4.97 1.53 7.47 2.23 3.34.95 6.7 1.92 10.07 2.74 4.75 1.15 9.5 2.3 14.34 3 2.93.42 5.84.98 8.76 1.49l5.66 1zm-59.4-12.01a94.4 94.4 0 0017.55 7.6c2.92.9 5.9 1.64 8.87 2.4 2.01.51 4.04.98 6.08 1.38 6.61 1.31 13.3 1.47 20.01 1.13.13-.01.27-.07.4-.12-3.08-.37-6.16-.69-9.22-1.12-4.01-.57-8.01-1.22-12.01-1.86-2.82-.46-5.63-.98-8.45-1.46a39.88 39.88 0 01-7.38-1.92c-1.16-.43-2.38-.73-3.6-1.03-1.78-.45-3.37-1.3-5-2.12-2.98-1.47-5.99-2.88-8.99-4.3-.3-.14-.63-.2-.96-.27.9.56 1.77 1.18 2.7 1.69zm-6.54-4.37c2.58 1.24 5.18 2.4 7.77 3.63 2.01.95 4.04 1.88 6.01 2.94a30.1 30.1 0 006.2 2.47c1.66.46 3.28 1.01 4.93 1.47 1.3.36 2.62.69 3.94.93 4.91.9 9.81 1.83 14.74 2.62 3.9.63 7.82 1.09 11.74 1.6 1.33.17 2.67.29 4.06.18-.5-.11-1-.25-1.5-.33-3.07-.5-6.15-.97-9.23-1.46-.41-.07-.83-.11-1.23-.2-4.55-1.09-9.16-1.9-13.64-3.27-2.93-.9-5.93-1.56-8.87-2.41a119.1 119.1 0 01-7.25-2.36 404.32 404.32 0 01-12.98-4.87c-2.6-1.04-5.09-2.34-7.63-3.52l-1.62-.74a15.8 15.8 0 004.56 3.32zm-3.44-3.9c2.98.55 5.8 1.61 8.68 2.5 2.28.7 4.59 1.34 6.87 2.04 2.73.85 5.44 1.74 8.16 2.6.6.2 1.2.4 1.8.52 4.18.86 8.3 1.95 12.35 3.26 1.09.35 2.15.8 3.23 1.15 3.96 1.29 8 2.26 12.1 3 .14.04.3.02.45.02l-.02-.19c-1.9-.66-3.83-1.29-5.72-2-1.5-.58-2.98-1.2-4.43-1.9a87.35 87.35 0 00-14.55-5.5c-2.9-.8-5.8-1.64-8.7-2.44-.9-.25-1.82-.43-2.74-.62-6.2-1.3-12.41-2.59-18.62-3.86-.96-.2-1.94-.31-2.93-.38a9.38 9.38 0 004.07 1.8zm69.8 18.63a111.83 111.83 0 00-25.03-12.13 143.34 143.34 0 00-23.69-6c-2.41-.4-4.82-.82-7.23-1.19-1.33-.2-2.68-.3-4.02-.36l5.08 1.34c3.57.91 7.16 1.75 10.71 2.74 4.16 1.14 8.33 2.22 12.38 3.7 1.21.46 2.48.76 3.75 1.06 4.32 1.02 8.36 2.78 12.4 4.55 3.05 1.34 6.11 2.61 9.15 3.94.56.25 1.05.63 1.57.95-.48-.17-.98-.33-1.45-.53-5.26-2.22-10.5-4.5-15.78-6.64-2.01-.81-4.15-1.32-6.23-1.97l-6.1-1.84c-1.44-.44-2.88-.89-4.32-1.3-1.9-.56-3.8-1.08-5.7-1.61-.34-.1-.7-.17-1.05-.27l-7.07-1.87c-.15-.04-.3-.1-.45-.13-4.3-.94-8.56-2.14-12.95-2.74a22.3 22.3 0 00-5.28-.05c.53.11 1.06.24 1.6.34 4.35.78 8.7 1.54 13.04 2.36 4.85.91 9.63 2.13 14.38 3.48 4.2 1.2 8.33 2.58 12.36 4.25.77.32 1.54.64 2.27 1.03a60.31 60.31 0 009.62 4c3.64 1.22 7.24 2.56 10.88 3.77 1.8.6 3.65 1.03 5.73 1.6l-.87-.78 2.96.86c-.21-.19-.42-.4-.66-.56zm.66 2.4l4.82 1.38c-.96-.99-1.26-1.08-4.82-1.37zm-.11-9.5c-.56-1.01-1.14-2.02-1.68-3.05-.18-.34-.27-.74-.4-1.12.7 1.06 1.45 2.1 2.13 3.19 1.67 2.66 3.31 5.34 4.97 8.01.12.66.44 1.2.93 1.66l-.85-1.7c-.15-.4-.25-.8-.45-1.15-2.15-3.8-4.3-7.58-6.5-11.34-.3-.53-.77-.96-1.22-1.38-.15-.14-.47-.08-.7-.12-1.26-1.32-2.79-2.28-4.3-3.26-.03-.02-.1.03-.24.1.72.95 1.42 1.9 2.15 2.81l5.58 6.9c.15.18.38.3.58.45zm11.1-3.37c3.06 1.14 6 2.62 9.07 3.72 4.5 1.62 8.85 3.63 13.32 5.3 3.76 1.4 7.31 3.24 11.07 4.62a74.92 74.92 0 009.52 2.93c2.34.52 4.66 1.11 7 1.55 3.38.62 6.77 1.14 10.15 1.7.4.07.82.1 1.3.17-3.23-1.07-6.33-2.13-9.44-3.12-2.18-.7-4.36-1.41-6.58-1.93a101.56 101.56 0 01-18.2-6.41c-4.78-2.15-9.5-4.45-14.35-6.44a170.24 170.24 0 00-16.38-6c-.84-.26-1.72-.4-2.59-.58l-7.76-1.72a1.91 1.91 0 00-.56-.05c4.78 2.17 9.5 4.45 14.42 6.26zm-13.4 3.2c-.6-.83-1.22-1.64-1.8-2.48-.3-.44-.57-.92-.85-1.39-.4-.38-.85-.71-1.2-1.13-2.6-3.06-5.07-6.2-7.75-9.17a225.04 225.04 0 00-14.05-14.17c-4.38-4.06-8.56-8.33-12.84-12.5-2.46-2.39-4.95-4.76-7.44-7.11-.38-.36-.85-.63-1.3-.92.68.81 1.33 1.64 2.04 2.44 6.2 7 12.49 13.92 19.08 20.57 1.82 1.85 3.6 3.76 5.33 5.69 4 4.46 8.5 8.4 12.84 12.5 1.97 1.85 3.86 3.77 5.8 5.65.7.69 1.42 1.35 2.13 2.02zm-6.02-13.04c-.17-.29-.32-.61-.53-.9-2.44-3.36-4.84-6.75-7.37-10.05a49.21 49.21 0 00-4.21-4.8c-2.86-2.87-5.72-5.76-8.75-8.44-3.97-3.51-8.2-6.7-12.66-9.6-2.22-1.44-4.31-3.07-6.47-4.6-.4-.3-.82-.56-1.22-.84 6.9 6.33 13.89 12.54 20.52 19.14 6.63 6.6 13.02 13.43 18.57 20.78l2.12-.7zM99.91 152v.01c.25.46.48.92.75 1.36 2.99 4.89 6.51 9.38 10.1 13.84a326.08 326.08 0 0012.91 15.02c4.18 4.58 8.93 8.55 13.72 12.47 2.1 1.7 4.15 3.46 6.23 5.18 1.48 1.22 2.98 2.41 4.47 3.61l.6.38.55.38c-.01-.1 0-.18.05-.26.04-.06.1-.12.13-.18 0-.03-.04-.07-.07-.1-.08-.14-.17-.26-.26-.39l-.56-.41c-.19-.3-.33-.64-.57-.9a28.67 28.67 0 00-1.99-1.97 295.71 295.71 0 01-19.55-19.15 733.3 733.3 0 01-21.69-23.62c-.3-.36-.51-.96-1.2-.77-.28-.28-.6-.53-.83-.85-.57-.8-1.07-1.64-1.64-2.43-.33-.44-.76-.8-1.14-1.2l-.01-.02zm.36-1.44c1.7 1.78 3.33 3.62 5.08 5.33 5.08 4.98 10.2 9.92 15.32 14.86 2.38 2.31 4.75 4.65 7.2 6.89 4.52 4.14 8.73 8.6 12.91 13.07l.32.3c.01-.12.1-.22.24-.27l-.04-.05c-7.25-9.13-15.42-17.4-24-25.26-5.05-4.63-10.22-9.13-15.35-13.66-.51-.46-1.11-.81-1.68-1.21zm47.61 41.35c-3.33-5.15-6.6-10.34-10.6-15.02a94.05 94.05 0 00-24.8-20.6c-2.88-1.66-5.77-3.3-8.66-4.95-.25-.14-.53-.22-.8-.32.12.14.23.3.38.4l12.04 8.32c5.66 3.9 11.06 8.1 15.82 13.08 1 1.06 2.1 2.02 3.06 3.11 1.75 1.98 3.54 3.95 5.13 6.06 2.58 3.44 5.02 7 7.6 10.63l1.12-.04c-.13-.3-.18-.5-.29-.67zm77.96 25.62c-4.81-2.89-9.9-5.26-14.91-7.76a139.02 139.02 0 00-20.15-8.26l-1.93-.62c-.14-.04-.3-.03-.65-.06 12.47 6.93 25.5 12.13 38.58 17.32-.31-.21-.62-.43-.94-.62zm-4.3-.75c-4.84-2.01-9.7-3.99-14.5-6.07a263.64 263.64 0 01-18.45-9.04c-.83-.44-1.68-.83-2.52-1.23a19.17 19.17 0 00-5.03-1.62c-2.4-.4-4.8-.86-7.2-1.29a1.44 1.44 0 00-.89.06c.37.15.73.33 1.11.44 7.12 2.15 14.16 4.49 20.86 7.72 3.27 1.57 6.46 3.34 9.62 5.13a51.32 51.32 0 008.49 3.86c3.23 1.12 6.47 2.23 9.73 3.3 1.56.52 3.16.94 4.74 1.41l.06-.2c-2.01-.82-4.02-1.63-6.02-2.47zm10.32 4.53c-3.18-.96-6.38-1.86-9.56-2.84-2.88-.9-5.72-1.88-8.6-2.79a42.9 42.9 0 01-8.7-3.76l-3.78-2.18a83.1 83.1 0 00-12.75-6.17c-4.67-1.73-9.35-3.47-14.1-4.95a57.91 57.91 0 00-12.67-2.56c-1.55-.12-3.08-.48-4.62-.68-2.78-.37-5.57-.7-8.36-1.04-.24-.03-.5-.03-.75-.03l-.06.32c.28.07.55.16.83.21 1.74.34 3.47.65 5.2.99.77.15 1.52.37 2.29.5 4.58.77 9 2.07 13.33 3.75 4.5 1.75 9.06 3.35 13.44 5.42 4.27 2.01 8.58 3.95 12.9 5.88a83.9 83.9 0 0013.67 4.74c3.98 1 7.9 2.22 11.77 3.6a56.1 56.1 0 008.87 2.39c1.84.32 3.65.78 5.5 1.18a11.39 11.39 0 00-3.85-1.98zm-.97 1.78c.21.05.42.11.64.15l2.66.5.03-.14-3.3-.61-.03.1zm3.94 1.47c-3.98-.8-7.95-1.6-11.93-2.37-1.63-.31-3.28-.5-4.92-.8-2.4-.45-4.8-.91-7.18-1.43-1.83-.4-3.63-.88-5.44-1.36a77.43 77.43 0 01-11.13-3.99c-2.2-.95-4.43-1.78-6.64-2.7-3.22-1.31-6.42-2.67-9.63-4-4.28-1.75-8.55-3.51-12.84-5.22-3.19-1.27-6.4-2.47-9.46-4.02-.34-.17-.73-.24-1.1-.35.6.45 1.18.91 1.79 1.34a52.1 52.1 0 007.24 4.27c2.56 1.24 5.03 2.7 7.61 3.91a67.81 67.81 0 016.62 3.47c1.95 1.2 4 2.2 6.17 2.96 2.5.88 4.92 1.94 7.4 2.86a62 62 0 0010.26 2.61c2.91.56 5.84 1.02 8.75 1.55 4.3.78 8.57 1.73 12.89 2.33 3.75.52 7.47 1.32 11.3 1.28.71 0 1.43.15 2.2.08-.66-.14-1.3-.3-1.96-.42zm-71.94-19.93c2 1.2 4 2.41 6.02 3.56a201.65 201.65 0 0021.87 10.58c2.39 1 4.91 1.69 7.4 2.4 5.01 1.42 10.12 2.4 15.25 3.2 2.2.34 4.45.43 6.68.54 2.64.13 5.3.17 7.94.23.4.01.82-.05 1.23-.2-1.97-.25-3.95-.47-5.93-.75-1.44-.2-2.88-.4-4.3-.73a82.23 82.23 0 00-8.88-1.63c-4.74-.6-9.43-1.57-14.08-2.69-3.9-.94-7.58-2.54-11.34-3.88a53.62 53.62 0 01-8.68-4.19c-1.48-.85-3.06-1.54-4.59-2.3-1.76-.9-3.53-1.77-5.28-2.68-1.06-.54-2.1-1.13-3.14-1.7l-.17.24zm75.16 21.64c-1.9-.29-3.82-.52-5.74-.33-4.72.46-9.44.23-14.17.07-4.8-.17-9.48-1.15-14.14-2.21a84 84 0 01-10.48-3 106.87 106.87 0 01-8.45-3.62 265.08 265.08 0 01-24.76-13.46 58.54 58.54 0 00-6.2-3.27c.36.62.75 1.22 1.08 1.85 2 3.77 3.96 7.55 5.95 11.31.74 1.38 1.51 2.73 2.29 4.08.18.31.4.61.67.86 1.34 1.3 2.68 2.6 4.06 3.86a335.62 335.62 0 0017.99 14.94 308.03 308.03 0 0026.7 18.65c7.83 4.91 15.54 10.01 23.28 15.07 2.18 1.43 4.27 2.97 6.37 4.5 6.45 4.73 12.89 9.49 19.34 14.23.27.2.58.34.87.5-.37-.47-.7-.98-1.13-1.4-2.55-2.48-4.58-5.38-6.59-8.28-2.9-4.2-5.6-8.51-8.07-12.97-1.6-2.91-3.22-5.82-4.84-8.73a42.96 42.96 0 01-3.49-8.16c-1.45-4.71-2.88-9.44-4.34-14.15-.3-1-.69-1.96-1.03-2.94l-.3-.95c.26-.5.58-.55.96-.36.14.07.26.18.38.28 4.62 3.89 9 8.02 12.77 12.76a58.07 58.07 0 017.08 11.54c2.5 5.33 4.26 10.93 5.8 16.6.91 3.36 1.9 6.7 2.97 10.02.5 1.52 1.23 2.97 1.91 4.42.24.5.67.9 1 1.35.44.58.94 1.13 1.29 1.76 2.48 4.46 5.84 8.2 9.49 11.7 1.42 1.37 2.94 2.63 4.38 3.97.6.57 1.08 1.27 1.67 1.84a206.98 206.98 0 0115.94 17.73 304.78 304.78 0 0120.1 27.79 246.83 246.83 0 0111.73 20.57c1.2 2.3 2.42 4.6 3.65 6.89.13.25.32.46.5.69-.14-.68-.23-1.37-.42-2.04-.5-1.8-1.06-3.58-1.59-5.37-.9-3.05-2-6.02-3.38-8.88a48.8 48.8 0 01-3.06-7.66 109.92 109.92 0 00-6.58-16.66c-3.3-6.95-6.6-13.9-10.23-20.68a407.7 407.7 0 00-13.94-24.18c-4.31-6.87-8.67-13.7-13.07-20.51a216.25 216.25 0 00-10.8-14.9c-1.87-2.43-3.65-4.93-5.6-7.3a529.59 529.59 0 00-9.85-11.68c-4-4.58-8.08-9.09-12.1-13.65a4.8 4.8 0 00-3-1.76c-.98-.14-1.9-.59-2.87-.73zM118.47 146.5c5.12 3.47 10.26 6.91 15.92 9.46 5.07 2.3 10.25 4.3 15.58 5.9 4.97 1.5 9.92 3.1 14.91 4.52 3.4.95 6.87 1.65 10.34 2.37-1.43-.9-3.02-1.38-4.58-1.94-4-1.46-8.01-2.88-12.03-4.3-1.22-.42-2.47-.8-3.7-1.18-3.04-.92-6.08-1.8-9.1-2.76-2.32-.74-4.7-1.4-6.91-2.39-4.75-2.1-9.41-4.39-14.1-6.64-1.91-.92-3.77-1.96-5.67-2.93-.3-.16-.62-.28-.94-.4.1.1.17.21.28.29zm48.07 17.94l-1.16-.3 1.08.52.08-.22zm-56.55-24.61c4.93 3.84 10.37 6.86 15.98 9.57 4.44 2.13 8.9 4.22 13.42 6.16 2.38 1.02 4.9 1.68 7.36 2.5 1.82.6 3.64 1.22 5.47 1.8 1.49.46 3 .82 4.48 1.3 1.73.56 3.42 1.2 5.14 1.78.59.2 1.2.36 1.79.53-1.12-.54-2.22-1.11-3.35-1.6-4.24-1.83-8.47-3.7-12.75-5.44-5.78-2.33-11.5-4.8-17.22-7.27-4.2-1.8-8.28-3.85-12.35-5.94-2.9-1.5-5.85-2.91-8.79-4.36-.12-.06-.26-.08-.4-.12.4.37.79.76 1.22 1.09zm-6.06-4.62c2.4 1.45 4.84 2.82 7.33 4.1a341.27 341.27 0 0024.77 11.7c5.05 2.18 10.15 4.26 15.22 6.4 5.55 2.32 11.09 4.67 16.65 6.97 4.37 1.8 8.76 3.54 13.13 5.3 1.02.42 2.07.61 3.18.6-1.45-.55-2.92-1.04-4.33-1.68-2.41-1.08-4.8-2.2-7.17-3.4-6.27-3.13-12.5-6.3-18.76-9.47-3.01-1.52-5.98-3.14-9.05-4.54-7.6-3.47-15.2-6.93-22.87-10.24-6.86-2.96-13.8-5.73-20.72-8.57-.36-.15-.76-.2-1.14-.3a13.5 13.5 0 003.76 3.13zm.57-2.08c5.3 2.15 10.64 4.17 15.88 6.46a899.25 899.25 0 0127.39 12.4c8.42 4.03 16.68 8.43 24.98 12.73a99.93 99.93 0 0011.85 5.13c1.47.53 2.92 1.1 4.38 1.64.26.1.54.16.93.03-.5-.34-1-.7-1.5-1.03a102 102 0 00-14.79-8c-.55-.24-1.04-.63-1.56-.95 1.15.46 2.32.9 3.45 1.4 3.5 1.52 6.87 3.3 10.15 5.24-.27-.33-.51-.7-.85-.96-1.48-1.14-2.94-2.32-4.52-3.31-5.7-3.62-11.35-7.3-17.34-10.41a422.6 422.6 0 00-15.35-7.6c-3.1-1.44-6.34-2.58-9.52-3.84-3.47-1.38-6.94-2.77-10.43-4.09-2.18-.83-4.4-1.55-6.6-2.3-.24-.09-.5-.1-.8.01 1.73.7 3.5 1.34 5.2 2.12 4.73 2.14 9.43 4.34 14.13 6.53 5.09 2.36 10 5.05 14.9 7.78.3.17.56.43.84.65-.67-.29-1.36-.52-1.99-.86a343.13 343.13 0 00-25.9-12.6c-4.32-1.91-8.8-3.49-13.23-5.1-1.55-.57-3.2-.88-4.83-1.23-3.04-.66-6.1-1.25-9.22-1.65 1.45.6 2.9 1.22 4.35 1.81zm51.96 10.42a66.71 66.71 0 00-14.63-7.23c-4.8-1.7-9.7-3.1-14.7-4.05l-7.2-1.34c-.5-.09-1-.11-1.52-.09 3.03.73 6.05 1.5 9.08 2.18a116.11 116.11 0 0115.55 4.6c.04-.05.1-.07.18-.04 4.97 1.96 9.75 4.33 14.38 7l.14.04c-.43-.36-.82-.76-1.28-1.07zm5.59 4.14c-1.68-1.02-3.43-1.94-5.13-2.92-.24-.14-.47-.3-.7-.45a162.57 162.57 0 00-10.47-5.2c-1.5-.6-3.04-1.14-4.58-1.66-3.25-1.1-6.51-2.13-9.84-2.95-.46-.1-.9-.23-1.36-.34l-10.91-2.6c-.61-.15-1.22-.27-1.83-.4-2.23-.5-4.45-1.05-6.7-1.48-1.57-.3-3.18-.41-4.8-.5 2.9.66 5.8 1.34 8.72 1.95 3.92.82 7.73 2.03 11.55 3.24 2.67.84 5.35 1.67 8 2.58 4.03 1.39 8.04 2.8 12.03 4.3 3.55 1.32 7.1 2.64 10.47 4.42 4.58 2.43 9.18 4.86 13.5 7.76.34.23.72.4 1.1.59a78.17 78.17 0 00-9.05-6.34zm8.83 7.11c-3.96-2.86-8.3-5.13-12.59-7.46a97.8 97.8 0 00-12.7-5.53c-3.99-1.48-7.97-2.98-12.01-4.33-4.58-1.53-9.21-2.9-13.83-4.33-3.57-1.1-7.22-1.92-10.89-2.68-2.5-.51-4.97-1.08-7.47-1.6-1.62-.34-3.28-.29-4.93-.39l-.13.38c.36.15.71.36 1.09.44 4.31.94 8.65 1.78 12.94 2.82 3.07.74 6.1 1.7 9.12 2.65 3.06.98 6.1 2.03 9.12 3.14 4.68 1.72 9.31 3.55 14 5.27 5.81 2.14 11.2 5.19 16.77 7.85 5.45 2.61 10.55 5.83 15.7 8.96 1.77 1.08 3.52 2.19 5.29 3.29 3.19 1.99 5.95 4.52 8.84 6.9.72.59 1.49 1.12 2.26 1.65.41.29.86.51 1.53.9a4.39 4.39 0 00-1.42-1.89c-6.6-5.71-13.61-10.92-20.69-16.04zm-31.16-47.09a72.6 72.6 0 00-19.1-13.25c-.12-.06-.28-.07-.74-.18.6.39.93.62 1.27.82a154.24 154.24 0 0118.67 13.17c.22.18.48.31.72.45-.27-.34-.5-.7-.82-1zm-.8.62c-8.44-7.05-17.47-13.23-27.57-17.71-2.22-.98-4.58-1.65-6.9-2.42a20.7 20.7 0 00-3.8-.92l1.09.62c2.64 1.44 5.32 2.82 7.92 4.33 3.32 1.93 6.6 3.94 9.87 5.95a68.2 68.2 0 013.36 2.25c.28.2.48.51.72.77-.37-.17-.76-.3-1.1-.52-2.06-1.3-4.1-2.64-6.17-3.91-2.96-1.81-5.92-3.62-8.94-5.32-2.3-1.3-4.68-2.45-7.03-3.65-.25-.13-.55-.18-.83-.27.33.3.64.61 1 .86 5.71 4.06 11.45 8.09 17.14 12.17 1.73 1.24 3.36 2.62 5.04 3.93 4 3.13 8.03 6.24 12.03 9.39 4.86 3.82 9.7 7.65 14.53 11.5 2.53 2 5.14 3.88 7.86 5.6 1.58 1 3.11 2.06 4.79 3.02-.2-.24-.38-.5-.6-.72l-11.4-10.4a822.01 822.01 0 01-5.5-5.06c-.25-.23-.4-.56-.6-.85.45.32.95.59 1.37.96l15.48 13.91c.17.16.38.27.58.4-.28-.47-.52-.97-.86-1.39-6.6-8.04-13.48-15.83-21.48-22.52zm-34.47-16.36a36.94 36.94 0 005.28 5.32c5.77 4.67 11.53 9.34 17.35 13.93 2.53 1.99 5.14 3.88 7.8 5.68 3.74 2.52 7.56 4.92 11.36 7.36.44.28.94.46 1.43.67a515.78 515.78 0 00-19.21-15.16 114.37 114.37 0 01-4.63-3.68c-5.34-4.45-11.04-8.43-16.73-12.41-.86-.6-1.77-1.14-2.65-1.7zm68.17-41.36c.04-.35.05-.7-.12-1.1-.14.3-.31.59-.43.9-1.72 4.34-3.4 8.7-5.16 13.02-.78 1.92-1.78 3.75-2.24 5.8-.04.17-.24.31-.36.47l.25-1.35c-.97 1.24-1.4 2.72-1.94 4.14a70 70 0 00-3.48 13.06 34.3 34.3 0 00-.59 6.81c.06 2.29.06 4.57.11 6.85.05 2.45.47 4.86 1 7.24.03.13.11.24.27.54.03-2.31.05-4.43.09-6.55.06-3.16.12-6.33.2-9.49 0-.46.05-.93.11-1.4l1.55-10.3c.1-.73.18-1.45.23-2.17a16.7 16.7 0 011.3-5.1c.03-.09.15-.14.23-.2-.17.65-.36 1.3-.5 1.96-.23.96-.48 1.91-.63 2.88-.19 1.23-.27 2.48-.44 3.71-.4 2.88-.87 5.76-1.21 8.64-.2 1.75-.23 3.52-.32 5.29-.01.13.07.26.13.4l1.5-10.9a38.41 38.41 0 012.47-9.79c.66-1.57 1-3.27 1.6-4.87 1.28-3.4 2.59-6.79 3.97-10.15a32.5 32.5 0 002.4-8.34zm-.8 6.12c-1.13 2.84-2.31 5.66-3.38 8.52-.97 2.57-1.82 5.19-2.73 7.78-.47 1.32-.99 2.63-1.43 3.96-.94 2.82-1.31 5.77-1.79 8.68-.43 2.67-.69 5.36-1.04 8.03a39.1 39.1 0 00.1 9.63c.28 2.53.57 5.05.89 7.58.27 2.2.7 4.36 1.48 6.81-.13-2.57-.34-4.79-.36-7-.04-5.56.15-11.1.75-16.64.1-.92.3-1.84.48-2.76.74-3.66 1.42-7.34 2.26-10.98.86-3.74 1.83-7.46 2.49-11.25.16-.91.5-1.8.8-2.68a26.98 26.98 0 001.48-9.68zm1.03-3.63c-.17 1.64-.36 3.28-.5 4.93a36.7 36.7 0 01-1.56 8.4c-.51 1.57-.89 3.2-1.27 4.8-.59 2.48-1.13 4.96-1.7 7.44-.14.66-.3 1.32-.43 1.98-.78 4.19-1.55 8.38-2.35 12.56-.58 3.03-.61 6.1-.69 9.15-.1 3.95-.25 7.89.03 11.83a64.9 64.9 0 003.16 16.32c.04.1.1.18.16.26.26-.71.26-.71.17-1.49-.41-3.81-.85-7.63-1.23-11.45-.37-3.83-.81-7.65-.71-11.5.03-1.2.07-2.39.22-3.57.54-4.33 1.06-8.66 1.73-12.97.4-2.56 1.05-5.08 1.62-7.61.52-2.33 1.07-4.66 1.63-6.98.36-1.51.77-3.02 1.15-4.53.68-2.69.85-5.43.91-8.19.07-2.9.05-5.8.06-8.72 0-.2-.04-.4-.07-.6l-.33-.06zm-4.43 71.67l-.09 2.23c.4-.75.5-1.5.09-2.23zm4.57-46.66c.72-2.22.93-4.46.98-6.75l.16-8.1v-.01l-.23-1.9c-.1.44-.07.84-.07 1.23 0 .47-.08.93-.09 1.4-.07 3.56-.87 7-1.82 10.4-.14.5-.26 1-.38 1.51-.84 3.49-1.73 6.96-2.47 10.46-.43 2.03-.64 4.1-.91 6.16-.37 2.78-.63 5.58-1.07 8.34a47.54 47.54 0 00-.32 11.5c.21 2.58.46 5.17.7 7.75.03.3.1.6.4.87.05-.7.17-1.4.15-2.1-.1-3.08.16-6.12.56-9.16.56-4.28.99-8.56 1.54-12.84.43-3.3.97-6.57 1.44-9.86.2-1.44.34-2.88.57-4.32.24-1.54.38-3.12.86-4.58zm4.82 14.85c-.12 1.91-.42 3.82-.67 5.72-.13.92-.34 1.84-.46 2.76 1.52-4.96 2.63-10 3.04-15.19.66-8.47-.3-16.8-1.83-25.1-.24-1.33-.7-2.62-1.06-3.92.04.62.05 1.26.15 1.88 1 6.21 1.5 12.47 1.56 18.76.01 1.87-.22 3.73-.3 5.6-.15 3.16-.22 6.33-.43 9.5zm-.43-2.27c.1-3.64.43-7.26.57-10.9.08-2.12.06-4.25-.04-6.37-.3-6.08-.86-12.13-2.02-18.1-.41-2.15-.88-4.27-1.34-6.48-.73 1.14-.84 1.7-.64 3.04l.58 4.16-.32-.03.15.94c.03 1.1.07 2.21.08 3.32 0 .56-.04 1.12-.07 1.68l.03.27c.17.6.2 1.2.2 1.8l.02.2c0 .05-.01.09-.03.12-.02.51-.06 1.03-.05 1.54.03 2.28-.09 4.57-.12 6.85-.02 2-.47 3.91-.97 5.83-.3 1.15-.49 2.33-.67 3.5a439.93 439.93 0 00-1.77 12.8c-.49 3.98-.94 7.96-1.4 11.93-.34 2.84-.66 5.67-.89 8.53 1.02-2.18 1.45-4.51 1.99-6.8 1.12-4.76 2.2-9.52 3.25-14.3.61-2.79 1.25-5.58 1.6-8.41.34-2.62.36-5.29.42-7.93.1-3.95.04-7.9-.37-11.83-.04-.3.04-.62.06-.93.12.5.3.98.36 1.48.5 4.55.5 9.12.35 13.69-.08 2.23-.23 4.46-.43 6.68a30.1 30.1 0 01-.6 3.53c-.3 1.42-.66 2.83-1 4.25-.78 3.17-1.55 6.35-2.31 9.53a48.2 48.2 0 00-.71 3.36 64.72 64.72 0 01-1.97 8.01c-.76 2.54-.69 5.1-.1 7.71.09-.37.17-.74.27-1.1 1.15-4.06 2.26-8.11 3.47-12.14.39-1.28 1.15-2.45 1.59-3.72a62.24 62.24 0 001.6-5.37 47.8 47.8 0 001.23-10.34zm-2.78 17.6a14.48 14.48 0 00-2.17 6.1l2.17-6.1zm-5.48 23.84l1.5-11.72-.03-.01c-.4 1.88-.8 3.75-1.18 5.64-.15.76-.26 1.53-.42 2.29a6.6 6.6 0 00.13 3.8zm-2.65-2.15c-1.3-4.93-2.59-9.85-3.8-14.8-.4-1.65-.62-3.36-.84-5.06-.39-2.98-.7-5.98-1.05-8.97a1.43 1.43 0 00-.14-.53c-.96 11.66 2.32 22.46 6.61 33.04l.3-.11c-.36-1.2-.77-2.37-1.08-3.57zm-.24 6.47c-1.82-2.2-3.66-4.37-5.5-6.55-.11-.13-.29-.21-.45-.31l2.02 2.85c.67.93 1.3 1.9 2.05 2.75.7.78 1.53 1.44 2.3 2.15-.12-.3-.21-.64-.42-.88zM99.11 88.72a52.8 52.8 0 009.97 11.09c3.62 3.04 7.23 6.1 10.9 9.06a149.9 149.9 0 006.86 5.13c2.12 1.52 4.3 2.93 6.44 4.4a78.59 78.59 0 007.82 4.81c.83.44 1.63.92 2.43 1.42 4.99 3.08 9.96 6.2 14.97 9.25 2.3 1.4 4.65 2.71 6.98 4.06l.16-.28c-2.18-1.5-4.32-3.05-6.54-4.48-6.07-3.9-12.18-7.75-18.28-11.6a193.34 193.34 0 01-17.95-12.92c-4.41-3.55-8.84-7.08-13.25-10.64-.8-.65-1.6-1.33-2.33-2.06-2.1-2.1-4.13-4.25-6.23-6.34a8.2 8.2 0 00-2.33-1.61c.12.24.23.49.38.7z" fill="#F3F3F3"/><path d="M205.47 133.83l-.03.03v-.05l.03.02zM245.85 208.56l-.01.09-.01-.08.02-.01zM215.81 287.33a242.63 242.63 0 0142.7 3.42c.23.04.17.43-.06.4-4.2-.58-8.41-1.07-12.64-1.5l.28.13-1.09-.2a423.83 423.83 0 00-29.2-1.77c-.31-.01-.3-.48.01-.48zM247.62 224.71l.2.71-.2-.7zM212.7 156.22c.11-1.44.26-2.88.41-4.32.02-.15.25-.14.23 0a64.2 64.2 0 00-.39 4.86 103.61 103.61 0 00-.04 7.82c0 .3.01.6.03.89v.03c.17 3 .5 5.98.9 8.96a4 4 0 01.02.55c.18 1.23.38 2.45.62 3.66.05.28-.37.38-.43.1a87.66 87.66 0 01-1.56-17.88 8.3 8.3 0 01.06-2.1l.04-.98.01-.15c-.1-.48-.01-.96.1-1.44zM211.55 138.25c.92-2.73 1.8-5.48 2.63-8.25l.02-.1h.01c.34-1.13.67-2.26.98-3.4a116.2 116.2 0 002.8-11.83 42 42 0 00.48-4.01v.01l-.08-.02.1-.35c.06-.86.09-1.72.07-2.58 0-.16.24-.16.25 0 .11 3.15-.28 6.27-.88 9.35h.03l-.81 4.35-.12-.02.24-1.32-.8 3.26.07.02-.28 1.1-.08-.03a206.73 206.73 0 01-4.2 13.95.21.21 0 01-.13.13c-.3 1.63-.54 3.26-.68 4.9-.02.2-.33.2-.31 0a35 35 0 01.78-4.91c-.08-.05-.13-.13-.1-.25zM217.05 106.51l.24-1.34-.06-.01-.25 1.34.07.01z" fill="#F3F3F3"/><path d="M209.05 122.9a78.45 78.45 0 013.62-6.56 29.87 29.87 0 003.2-7.02c.8-2.8 1.23-5.7 1.64-8.6.03-.16.3-.16.27.01-.31 2.52-.62 5.05-1.21 7.51a26.84 26.84 0 01-2.73 6.94l.06.04-.21.23-.49.83-.1.2-.48.88-.05.04.03-.07.18-.33-.25.44.04-.04-.04.04-.75 1.26-.02.03.02-.03c0 .02-.02.03-.03.05l.01-.01-.03.07-.49.82-.8 1.47c-.09.16-.18.31-.26.48l-.33.64a57.1 57.1 0 00-1.8 4l-.12.45-.02-.1c-.2.5-.4 1.01-.58 1.52.03.44-.09.84-.38 1.2l.05-.27-.03.09-.1.32c0-.02.02-.03.04-.05-.2.76-.12 1.61-.72 2.24l-.09.3c-.07.57-.11 1.14-.44 1.62a71.2 71.2 0 00-.88 3.95c-.05.27-.45.14-.4-.12.86-5 2.5-9.89 4.67-14.47z" fill="#F3F3F3"/><path d="M211.76 118.74c.09-.07.06-.05 0 0zM212.57 117.4c-.04.1-.03.06 0 0zM206.95 129.29l-.01.06-.03.03v-.05l.04-.04zM202.28 323.96a75.7 75.7 0 0117.95-10.31l.74-.31a.8.8 0 01.38-.15l.55-.22a.86.86 0 01.58-.22l.54-.21c.32-.25.67-.38 1.06-.4l.75-.27a3.4 3.4 0 011.45-.52l.93-.32a3.4 3.4 0 011.6-.53l.5-.16c.02-.03.04-.07.08-.08 2.02-.6 4.05-1.2 6.09-1.78a.4.4 0 01.17 0l.76-.2c.14-.07.28-.14.44-.17l1.38-.3c3.04-.77 6.1-1.47 9.15-2.11l4.3-.92a69.69 69.69 0 0116.46-1.78c.25 0 .23.36-.01.38-5.41.35-10.84.95-16.19 1.93-.98.21-1.95.43-2.93.63-4.17.86-8.32 1.8-12.44 2.9a117.1 117.1 0 00-20.02 7.11c-.91.49-1.82.98-2.73 1.45-.14.08-.3.12-.46.15l-.82.44c-.23.2-.46.4-.73.52-.92.42-1.69 1.17-2.68 1.43l-.97.58c-.54.43-1.17.85-1.8 1.17-1.28.84-2.53 1.7-3.75 2.62-.24.18-.58-.15-.33-.35zM144.38 146.74a638.57 638.57 0 0132.46 16.99c.1.06 0 .22-.1.16l-4.84-2.48.19.17c-.35-.1-.72-.14-1.03-.3-1.43-.69-2.85-1.4-4.26-2.13-.31-.16-.57-.42-.85-.63l.6.15-2.34-1.2.91.6c-.43-.16-.89-.28-1.3-.5-1.46-.77-2.91-1.57-4.36-2.37-.24-.13-.44-.32-.65-.5l-2.98-1.52a.79.79 0 01-.4-.2l-11.3-5.83c-.29-.15-.03-.55.25-.41zM165.98 158.55l-.9-.5.9.5zM243.34 212.74c.45 1.66.78 3.36 1.14 5.04.18.8.35 1.6.59 2.4.25.82.58 1.62.9 2.42.12.32-.34.57-.47.26a21.59 21.59 0 01-1.44-4.82c-.33-1.75-.7-3.5-.94-5.25-.02-.14.18-.19.22-.05zM219.5 300.73a77.62 77.62 0 006.28-.81l2.5-.42.08-.01 1.82-.32c.46-.19.95-.25 1.45-.25l.62-.1a4.7 4.7 0 012.28-.36c2.53-.38 5.06-.66 7.63-.73.23 0 .21.34-.01.35-7.63.45-15.04 2.63-22.67 3.12-.3.02-.28-.45.02-.47zM108.24 91.33a196.82 196.82 0 0116.1 10.26c.37.2.74.4 1.08.65.56.42 1.1.86 1.64 1.3l2.2 1.61c.17.06.33.12.47.22 2.02 1.5 4.02 3.02 6.02 4.54.13.1.22.27.31.43l.9.7c.96.5 1.8 1.16 2.5 2l.73.6c.95.57 1.77 1.3 2.54 2.08a381 381 0 014.97 4.18c.22.18-.1.48-.31.3a241.02 241.02 0 00-4.34-3.62l-.32-.29a302.6 302.6 0 00-25.76-18.8c-2.97-1.96-5.99-3.83-8.98-5.74-.27-.17-.02-.57.25-.42zM161.8 290.32c4.47-1.33 9.02-2.3 13.59-3.21.16-.07.32-.14.5-.18 1.7-.4 3.42-.84 5.15-1.15 6.43-1.16 12.86-2.3 19.3-3.42a44.1 44.1 0 018.66-.65c2.75.06 5.5.18 8.24.12 2.97-.07 5.9.08 8.82.66.4.08.82.1 1.24.16 2.67.34 5.35.62 8.02 1.03 2.3.35 4.59.85 6.88 1.28-.66-.01-1.33.04-2-.05-1.48-.2-2.96-.5-4.46-.7-3.09-.4-6.19-.74-9.27-1.14a54.25 54.25 0 00-7.91-.63c-2.7.04-5.4-.04-8.1-.09a48.9 48.9 0 00-8.24.32c-1.85.27-3.7.56-5.55.85-6.63 1-13.22 2.2-19.79 3.6a.17.17 0 01-.14.14 88.46 88.46 0 00-3.98.88c-3.62.88-7.2 1.96-10.75 3.06-.56.18-.77-.71-.2-.88z" fill="#F3F3F3"/><path d="M166.78 289.41l.71-.2-.7.2zM170.44 288.5l.7-.2-.7.2zM263.16 308.82l-.4.27.4-.27zM261.4 309.76c-.13.1-.26.18-.4.27l.4-.27zM178.25 341.86l1.8-.5c1.76-.77 3.54-1.5 5.3-2.24a.25.25 0 01.23.01c.74-.34 1.48-.67 2.21-1.02.3-.15.53.29.24.44a94.36 94.36 0 01-4.75 2.36l.32-.11c.3-.12.55.32.24.44-.46.2-.92.37-1.38.55h.04l-.29.1c-1.17.45-2.36.88-3.55 1.27-.3.1-.47-.22-.38-.46-.4-.05-.5-.72-.03-.84zM275.47 248.66c-.03.7-.02 1.4 0 2.11l.05-.27c.37.42.2.87.1 1.32l-.1-.02c.04.7.1 1.4.17 2.09.02.17-.25.24-.27.06a26.23 26.23 0 01-.13-5.3c.01-.1.18-.1.18.01zM175.15 60.9l.15 1.02-.15-1.01zM174.88 58.96l.14 1.01-.14-1.01z" fill="#F3F3F3"/><path d="M173.79 52.35l.6 4.08.08-.4.15 1-.11-.02c.46 2.28.84 4.57 1.26 6.85.03.15-.15.21-.23.13l-.03.2-.03-.12.5 3.73c.02.12-.17.17-.19.05-.6-3.6-1.17-7.2-1.71-10.8-.15-.79-.3-1.58-.42-2.38a.16.16 0 01.04-.14c-.1-.7-.21-1.39-.3-2.09-.05-.25.35-.35.39-.09zM236.15 319.48c4.93-2.14 10-3.99 15.01-5.94 3.51-1.37 7.02-2.76 10.54-4.1.26-.21.57-.33.93-.35l.62-.23-.12-.03.7-.2v.01l1.8-.67c-7.32 1.01-13.82 4.77-20.9 6.68-.25.07-.32-.3-.09-.39 6.1-2.17 12.1-5.13 18.49-6.37l1.08-.3c.24-.07.51-.02.77-.02v.01l1.21-.14c.25-.03.3.42.04.45.08.1.1.29-.05.35a258.2 258.2 0 01-7.4 3.08c-.5.3-1.03.5-1.6.63l-1.1.44c-.33.2-.67.32-1.03.4l-3.85 1.5c-4.93 1.9-9.88 3.9-14.91 5.54-.2.07-.33-.26-.14-.35zM138.92 81.8l.46 1.07-.46-1.06zM133.04 60.41l.21.7-.2-.7zM133.95 64.07l.21.7-.2-.7zM134.15 64.74zM134.34 65.41l.2.7-.2-.7zM134.53 66.08l.21.7-.2-.7zM134.73 66.75l.2.7a149 149 0 01-.2-.7zM136.27 72.11l.2.71-.2-.7zM136.47 72.78l.2.71-.2-.7zM137.95 78.45l.2.71-.2-.7zM138.15 79.12l.2.71-.2-.7zM138.34 79.8l.2.7-.2-.7zM138.53 80.47l.2.7-.2-.7zM139.36 82.84l.2.7-.2-.7z" fill="#F3F3F3"/><path d="M132.28 55.86c.07 1.04.22 2.08.41 3.1l.03-.2c.35.52.46 1.08.34 1.69l-.09-.15.26 1.05v-.27c.41.7.59 1.45.54 2.25.42 1.44.87 2.87 1.29 4.3l2.13 7.27v.03l1.42 4.84 1.1 3.77.17.04-.06.33.8 2.72c.06.23-.3.31-.37.08l-.75-2.55-.06-.01.02-.13-2.8-9.61c-1.18-4.02-2.43-8.02-3.51-12.07a32.48 32.48 0 01-1.16-6.49c-.02-.19.28-.18.29.01zM150.07 211.74l1.5.61-1.5-.6z" fill="#F3F3F3"/><path d="M128.7 202.69c4.3 2.01 8.8 3.49 13.23 5.18a80.12 80.12 0 0112.42 5.78c.24.14.02.5-.23.37-4.14-2.27-8.57-3.99-12.97-5.66a163.05 163.05 0 01-12.67-5.3c-.26-.12-.03-.5.22-.37zM231.53 326.95c4.27-2.37 8.55-4.7 12.87-6.97 4.32-2.28 8.73-4.4 13.1-6.58.13-.06.25.15.1.22-2.74 1.45-5.48 2.93-8.21 4.41a3.01 3.01 0 01-2.14 1.2l.11-.11-2.65 1.42-12.97 6.8c-.25.14-.46-.25-.21-.39zM230.72 329.8c3.5-2.29 7.16-4.31 10.87-6.25 3.89-2.02 7.85-3.8 11.85-5.56.15-.07.27.14.13.22-3.88 2-7.72 4.06-11.63 5.99a122.6 122.6 0 00-11.05 5.93c-.2.13-.38-.2-.17-.33z" fill="#F3F3F3"/><path d="M247.57 320.87l.71-.21-.7.2zM248.24 320.67l.35.07-.35-.07z" fill="#F3F3F3"/><path d="M247.21 321.12l.4-.27c-.13.1-.27.18-.4.27zM256.8 273.65c.48 1.16.98 2.3 1.49 3.45l.08.1 1.43 3.23 2.06 4.33c.06.02.13.07.17.15a33.65 33.65 0 004.16 6.62c.34.43-.29 1.02-.62.6a30.05 30.05 0 01-3.58-5.92.32.32 0 01-.35-.19c-1.85-4-3.54-8.09-5.18-12.18-.1-.23.24-.41.34-.19zM154.82 143.47zM153.95 143l-.9-.5.9.5zM153.09 142.51l-.9-.5.9.5zM145.76 200.78l.83.82-.83-.82zM144.4 199.58l.83.81-.84-.81zM143.03 198.38l.83.8-.83-.8z" fill="#F3F3F3"/><path d="M100.05 150.96c10.68 16.13 24.42 29.64 38.41 42.86 3.26 3.08 6.65 6 9.95 9.04l.15.03.56.42.25.37-.01.07 1.08 1c.23.22-.12.54-.35.34l-1.4-1.2h-.01l-.31-.28c-3.08-2.68-6.06-5.45-9.06-8.2-3.55-3.28-7.12-6.53-10.6-9.9-1.44-1.4-2.87-2.81-4.28-4.24l-2.4-2.23c-.28-.26-.49-.6-.7-.93l-.34-.34c-.17-.09-.36-.16-.48-.3-2.65-2.9-5.29-5.81-7.9-8.74a2.52 2.52 0 01-.36-.54l-.84-.97c-.06-.05-.12-.1-.17-.17l-.34-.43c-.66-.78-1.32-1.55-1.96-2.34a163.73 163.73 0 01-9.63-12.92c-.3-.45.44-.85.74-.4zM146.56 201.57l.59.44-.59-.44zM142.47 197.96l.59.44-.59-.44zM137.07 192.83l.6.45-.6-.45z" fill="#F3F3F3"/><path d="M134.35 190.42l.59.45-.6-.45zM103.52 156.48l.27.39c-.1-.13-.18-.26-.27-.4zM103.77 156.84l.26.39-.26-.39zM104.02 157.2l.26.4-.26-.4zM104.27 157.57zM104.52 157.93l.27.4-.27-.4zM235.32 236.44l1.55 3.29c.24.26.38.58.44.94l.18.38c.32.3.48.7.53 1.14l.08.18c.25.21.38.49.38.81l.89 1.92c.06.15-.15.27-.22.12-1.43-2.85-2.81-5.71-4.2-8.57-.12-.25.26-.45.37-.2zM165.32 66.16c.05-.12.26-.03.2.1a54.01 54.01 0 00-1.22 3.47l.04-.04c-.15.68-.15 1.42-.61 2a67.37 67.37 0 00-1.53 7c-.03.17-.33.12-.31-.06.45-4.3 1.68-8.53 3.43-12.47zM149.97 196.68l1.72 3.25c.27.3.46.66.56 1.06 1.08 2.02 2.16 4.04 3.28 6.05.14.24-.23.44-.37.2-2-3.37-3.99-6.76-5.82-10.22-.22-.4.41-.75.63-.34z" fill="#F3F3F3"/><path d="M150.9 198.9l-.28-.39c.1.13.18.27.27.4z" fill="#F3F3F3"/><path d="M151.14 199.27l-.27-.4c.1.13.18.27.27.4zM151.4 199.63l-.28-.4.27.4z" fill="#F3F3F3"/><path d="M77.66 251.64c-.19.94-.18 1.88.07 2.8a6.7 6.7 0 00-.1-2.81h.03z" fill="#E4DDDD"/><path d="M77.64 251.63c.25-.58.19-1.17.05-1.77h.02a2.66 2.66 0 00-.05 1.78l-.02-.01zM77.6 246.8c-.01-.06-.03-.11 0 0 0-.11 0-.06 0 0zM77.66 247.88l.1-.32h-.13l.04.33h-.01z" fill="#E4DDDD"/><path d="M77.67 248.54l-.01-.66.01.01.01.66h-.01z" fill="#E4DDDD"/><path d="M77.68 248.55l.01.65h-.02c.2-.22.07-.44 0-.66h.01z" fill="#E4DDDD"/><path d="M77.7 249.2l.01.67h-.02l-.02-.67h.02zM32.45 227.74a9.3 9.3 0 00-2.66-2.61l2.66 2.61zM41.98 238.27a8 8 0 00-2.2-2.56c.6.97 1.33 1.82 2.2 2.56zM25.91 221.44a4.18 4.18 0 00-1.6-1.44c.42.61.91 1.13 1.6 1.44zM28.49 223.84a4.08 4.08 0 00-1.6-1.44c.42.6.91 1.13 1.6 1.44zM24 219.7c-.3-.51-.7-.94-1.28-1.13.32.5.71.91 1.28 1.12zM34.17 229.56c-.23-.51-.59-.91-1.08-1.19.23.51.6.9 1.08 1.19z" fill="#E4DDDD"/><path d="M39.8 235.73a2.36 2.36 0 00-1.09-1.19c.23.52.59.92 1.08 1.2zM22.42 218.26c-.21-.39-.51-.67-.95-.79.2.4.5.7.95.8z" fill="#E4DDDD"/><path d="M21.5 217.49c-.2-.4-.5-.69-.95-.8.2.4.5.68.94.8z" fill="#E4DDDD"/><path d="M20.57 216.71c-.2-.4-.5-.68-.95-.8.2.4.5.68.95.8zM17.8 214.38c-.2-.4-.52-.67-.95-.8.2.4.5.68.95.8zM15.48 214.05c.24.36.5.68.95.8-.23-.38-.5-.7-.95-.8zM13.9 212.63c.23.35.51.66.94.79a1.64 1.64 0 00-.94-.8z" fill="#E4DDDD"/><path d="M19.64 215.93c-.2-.4-.5-.68-.94-.8.2.4.5.69.94.8z" fill="#E4DDDD"/><path d="M18.72 215.15c-.2-.4-.5-.67-.94-.79.2.4.5.67.94.8zM14.17 211.46c-.21-.32-.48-.56-.88-.6.2.33.47.57.88.6zM38.4 234.24c-.12-.4-.38-.68-.74-.87.13.4.38.67.74.87zM12.72 210.43c-.21-.32-.48-.56-.88-.6.2.33.47.57.88.6zM36.29 231.9l-.75-.87c.14.39.38.68.75.87zM11.27 209.39c-.21-.32-.47-.57-.88-.6.21.33.47.58.88.6zM37.34 233.07a1.54 1.54 0 00-.74-.87c.13.39.37.69.74.87zM35.23 230.73l-.75-.86c.14.38.39.67.75.86zM16.87 213.6c-.12-.27-.3-.46-.61-.47l.61.47zM15.95 212.82l-.62-.47c.12.27.3.46.62.47z" fill="#E4DDDD"/><path d="M15.36 212.37c-.13-.27-.31-.45-.62-.47.13.26.31.44.62.47z" fill="#E4DDDD"/><path d="M14.76 211.91a.73.73 0 00-.61-.47c.11.28.3.45.61.47zM13.31 210.88a.72.72 0 00-.61-.47.7.7 0 00.61.47zM11.86 209.84l-.61-.47c.1.28.3.45.61.47zM9.82 208.36c-.1-.3-.3-.47-.62-.47l.62.47z" fill="#E4DDDD"/><path d="M10.41 208.8c-.1-.28-.3-.46-.61-.46l.61.47zM37.68 233.39l-.35-.34.35.34zM33.11 228.39l-.35-.34.35.34zM50.99 252.44l.14.42c.14-.2.02-.32-.14-.42zM8.62 208.09l.35.34-.35-.34zM35.66 228.17c-.15-.22-.27-.48-.46-.67l-4.5-4.42c-.2-.18-.45-.3-.67-.44.14.19.26.4.42.57l4.57 4.49c.18.18.43.31.64.47zM28.47 221.22c-.3-.53-.7-.91-1.28-1.11.3.51.7.9 1.28 1.11z" fill="#E4DDDD"/><path d="M29.72 222.33c-.3-.51-.7-.93-1.28-1.12.3.5.7.93 1.28 1.12zM25.82 218.61l-.27-.13-.2.07c.18.42.48.7.94.8l-.14-.41-.33-.33z" fill="#E4DDDD"/><path d="M26.74 219.39l-.47-.06c.18.42.49.7.94.8l-.47-.74zM46 249.36l-.35-.34.35.34zM82.28 272.82c.13-1.1.17-2.2-.02-3.3-.29 1.1-.23 2.2.02 3.3zM82.5 274.72c.18-.39-.02-.73-.14-1.07-.18.38.02.72.14 1.07z" fill="#E4DDDD"/><path d="M82.36 273.67c.2-.3.03-.59-.07-.87-.2.3-.03.59.07.87zM52.76 310.53c-.7-.42-1.51-.33-2.28-.46-.46-.08-.94-.03-1.41-.03 1.2.31 2.43.53 3.7.5z" fill="#E4DDDD"/><path d="M56.04 311.16c-.84-.49-1.8-.47-2.71-.66-.19-.04-.4.01-.59.03.72.41 1.55.36 2.32.57.31.08.65.04.98.06zM45.66 309.67l.07.21h1l.99-.02-1.46-.4-.6.21zM91.59 316.48l-.49-.07.49.07zM42.5 273.68c5.5 4.13 11.22 8 17.15 11.49l1.12.65.14.08a209.24 209.24 0 003.84 2.18c.2.11.02.4-.19.3a133.45 133.45 0 01-22.27-14.35c-.2-.17 0-.51.22-.35zM63.48 287.57l.28.14-.28-.14z" fill="#E4DDDD"/><path d="M101.33 315.82c-1.52-1.14-3.02-2.3-4.66-3.27-.62-.37-1.2-.81-1.77-1.25a123.62 123.62 0 01-13.6-12.25c-1.25-1.3-2.49-2.6-3.75-3.87a4.46 4.46 0 00-1.05-.82 25.73 25.73 0 00-5.52-2.33c-1.17-.3-2.33-.62-3.5-.95-1.89-.52-3.8-1-5.67-1.6-4.88-1.55-9.27-4.09-13.54-6.86a32.25 32.25 0 01-4.75-3.66c-4.97-4.74-9.97-9.44-14.86-14.26-4.4-4.34-8.93-8.53-14.1-11.96-.15-.1-.23-.3-.34-.45.24-.4.55-.34.86-.28 1.01.2 2.04.36 3.04.63a95.46 95.46 0 0118.98 7.07 92.18 92.18 0 0114.97 9.4c5.08 4 9.68 8.51 14.04 13.29 2.18 2.4 4.4 4.75 6.62 7.12.25.26.55.45.83.68-.13-.22-.25-.45-.4-.65-1.84-2.42-3.7-4.82-5.51-7.25-4.8-6.4-8.78-13.3-11.94-20.65a17.79 17.79 0 00-4.05-5.8c-2.78-2.7-5.8-5.12-8.97-7.33-4.67-3.26-9.3-6.57-13.76-10.12a80.9 80.9 0 01-12.79-12.91 38.08 38.08 0 01-3.72-5.83c-.54-1.04-.98-2.13-1.44-3.21-.71-1.69-1.38-3.39-2.12-5.06-.83-1.9-1.66-3.8-2.77-5.55-.1-.16-.1-.37-.18-.64.26-.03.46-.11.63-.07.23.05.44.19.66.3 6.8 3.7 13.31 7.85 19.41 12.63a113.9 113.9 0 0112.07 10.72 46.28 46.28 0 015.72 7.32c2.22 3.5 3.88 7.3 5.84 10.69-.22-.66-.5-1.54-.82-2.4a56.14 56.14 0 01-2.3-7.52c-.36-1.69-.7-3.38-.98-5.08-.2-1.19-.4-2.4-.39-3.6a40.1 40.1 0 011.6-11.43 51.39 51.39 0 001.9-8.26c.02-.1.1-.18.19-.31l.6-.02c.18.36.37.69.5 1.04.37.96.74 1.93 1.06 2.92.97 3.02 1.93 6.04 2.85 9.08a36.4 36.4 0 011.53 6.44c.54 4.75.49 9.5-.15 14.24a67.34 67.34 0 00-.57 11.15c.03 1.13.05 2.28.25 3.4.39 2.21 1 4.36 2.24 6.3.31.49.57 1.01.86 1.52 1.88 3.34 3.78 6.66 6 9.79a48.98 48.98 0 012.9 4.4 60.09 60.09 0 006.52 9.31 340.3 340.3 0 015.43 6.66c.58.73 1.2 1.4 2.04 1.87a4.84 4.84 0 011.9 1.85c.18.31.52.54.82.78.82.68 1.67 1.34 2.5 2 .17.13.34.24.68.47-.23-.37-.33-.55-.45-.72a63.7 63.7 0 01-5.26-9.6c-.56-1.22-1.05-2.48-1.56-3.72a52.15 52.15 0 01-3.1-10.3c-.53-2.78-.79-5.6-1.02-8.41-.33-4.2-.57-8.4-.15-12.6l1.42-14.22c.03-.3.05-.63.41-.82.56-.1.75.35.93.75.7 1.54 1.41 3.07 2.05 4.63 2.17 5.32 3.27 10.9 3.85 16.58.6 5.88.83 11.77 1.04 17.67.14 4 .6 7.97 1.66 11.86.8 2.9 1.76 5.74 3.2 8.39a40.05 40.05 0 007.47 10 55.33 55.33 0 005.75 4.72c4.17 3.01 8.4 5.94 12.88 8.47 1.95 1.1 3.93 2.16 5.8 3.39 1.04.67 2.13 1.25 3.2 1.86-.22-.33-.42-.68-.67-1-.73-.96-1.48-1.9-2.22-2.86-2.31-3.02-4.14-6.35-6.15-9.57a39.03 39.03 0 01-3.35-6.77c-1.37-3.6-2.66-7.25-3.97-10.89a48.93 48.93 0 01-2.53-11.18 45.77 45.77 0 01-.15-11.04c.45-3.46 1-6.9 1.51-10.34.02-.14.03-.29.08-.4.1-.22.23-.41.31-.56.5-.15.76.05.96.35.16.23.26.49.38.74 1.08 2.23 2.1 4.5 3.23 6.7 2.26 4.4 4.26 8.91 5.8 13.61.7 2.1 1.4 4.2 2.04 6.3a53.2 53.2 0 011.06 4.11c.64 2.94 1.25 5.88 1.82 8.82.56 2.84 1.15 5.69 1.56 8.55.62 4.4 1.63 8.68 3.18 12.83.68 1.82 1.51 3.56 2.45 5.25.5.89 1.17 1.52 2.1 1.92.44.2.87.4 1.3.62 1.3.63 2.61 1.26 3.9 1.92 1.51.76 2.99 1.59 4.52 2.3 4.87 2.3 9.6 4.88 14.22 7.66 4.67 2.8 9.31 5.67 14.23 8.05.54.26.95.65 1.17 1.25.1.28.3.53.44.8.13.25.25.49.35.74.02.07-.06.19-.11.32l-.88-.13c-.49.35-.49.35-1.12.47-.23-.23-.5-.48-.75-.76a23.12 23.12 0 00-5.61-4.53c-2.34-1.33-4.74-2.56-7.13-3.8-4.73-2.43-9.44-4.88-14.2-7.25-4.3-2.14-8.51-4.44-12.68-6.8a326.4 326.4 0 01-17.56-10.79 9.99 9.99 0 00-2.9-1.31c-.6-.17-1.2-.33-1.81-.46-3.45-.75-6.98-.93-10.48-1.14-3.37-.2-6.76-.02-10.14-.02-2.1 0-4.2.02-6.31-.02a38.3 38.3 0 01-6.88-.8 117.1 117.1 0 01-16.26-4.47c-3.73-1.34-7.42-2.82-11.1-4.3-1.67-.66-3.28-1.45-4.92-2.18-.24-.11-.54-.2-.47-.58.24-.32.6-.28.94-.31 4.32-.43 8.65-.84 12.97-1.3a70.1 70.1 0 0126.93 2.58 98.78 98.78 0 0114.55 5.68l9.54 4.48c-.28-.24-.55-.5-.85-.72-1.5-1.1-3.03-2.16-4.53-3.27zm-52.85-64.29c-.12-.2-.2-.41-.36-.57-.93-1.02-1.85-2.04-2.83-3.01-1.07-1.07-2.2-2.1-3.31-3.12-.25-.23-.54-.4-.81-.61-.38-.4-.72-.83-1.13-1.19-3.29-2.88-6.6-5.73-9.87-8.63a129.62 129.62 0 01-4.37-4.07c-.07.08-.19.11-.28.02a244.4 244.4 0 01-15.08-17.27c1.39 2.72 2.85 5.38 4.95 7.65 1.43 1.54 2.74 3.18 4.13 4.75a79.12 79.12 0 006.8 6.8c3.15 2.51 6.3 5.04 9.45 7.57a144.84 144.84 0 015.16 4.34l.23.04c.2.23.38.48.6.7l.05.06c.88.8 1.74 1.61 2.59 2.46a107.3 107.3 0 013.36 3.53l.72.55zM14.58 222c2.8 4.12 6.01 7.9 9.57 11.39 1.52 1.49 3.22 2.81 4.9 4.13 5.06 4 10.28 7.8 15.61 11.43l1.81 1.23c-1.92-1.94-3.83-3.9-5.87-5.71-2.97-2.65-6.15-5.09-9.24-7.6l-3.9-3.18-.19-.14-1.16-.95a.2.2 0 01-.07-.13 75.79 75.79 0 01-7.52-7.57c-1.1-1.32-2.25-2.61-3.41-3.89a25.94 25.94 0 01-3.5-4.86c-.25-.47-.52-.92-.81-1.37a41.53 41.53 0 003.78 7.22zm-6.07-13.47c.96 1.64 2.17 3.1 3.45 4.5 1.42 1.54 2.82 3.1 4.24 4.66.5.56 1 1.13 1.55 1.66 3.28 3.2 6.56 6.39 9.85 9.57l1.16 1.09c.05-.02.1-.01.14.03 4.4 4.15 8.83 8.3 13.09 12.61l.82.72c-.2-.32-.4-.65-.64-.95-2.49-3.08-5.2-5.96-7.86-8.9-1.91-2.1-3.72-4.32-5.7-6.4l-.72-.74a.16.16 0 01-.08-.04l-8.12-7.85c-2.65-2.58-5.29-5.19-8.06-7.64-1.1-.99-2.24-1.94-3.37-2.89-.01.22.14.39.25.57zm-.33-1.12l.04.1c2.46 1.98 4.9 3.98 7.17 6.19l2.79 2.72c.08.05.15.1.21.16 2.92 2.88 5.87 5.73 8.75 8.64l.91.9c.03.01.04.04.05.06l.66.67c2.16 2.22 4.1 4.66 6.21 6.93 4.91 5.24 9.45 10.79 14.03 16.31.65.8 1.33 1.58 2 2.37-.08.18-.05.31.14.4l.39.5.05-.21c-.27-.6-.52-1.22-.75-1.85-1.6-2.48-3.2-4.97-4.86-7.42a75.7 75.7 0 00-2.2-3.04c-3.5-4.18-7.19-8.22-11-12.12-4.99-5.12-10.26-9.99-15.8-14.52-2.7-2.22-5.44-4.4-8.23-6.52l-.56-.27zm1.81.59l-.64-.35a196.02 196.02 0 0133.6 31.62l.14.2c1.35 1.63 2.68 3.28 3.99 4.95.05.07.04.14 0 .2a97.66 97.66 0 012.98 4.22 76.31 76.31 0 00-10.16-15.64c-1.25-1.47-2.54-2.9-3.8-4.37l-.04-.04c-.63-.63-1.28-1.25-1.92-1.87a162.95 162.95 0 00-4.34-4.08c-2.5-2.27-5.07-4.46-7.66-6.63a132.72 132.72 0 00-12.15-8.21zm36.45 32.84c-.72-1.34-1.55-2.61-2.32-3.92a35.85 35.85 0 00-4.96-6.48 103.3 103.3 0 00-11.73-10.61c-.2-.16-.44-.27-.67-.4a136.75 136.75 0 017.61 7.14c1.45 1.46 2.81 3 4.25 4.46.05.05.05.1.02.15.9 1.07 1.76 2.17 2.65 3.25a70.08 70.08 0 017.3 10.9c.07.13.19.23.3.34-.82-1.6-1.6-3.24-2.45-4.83zm2.5 4.94l.27.78.16-.08-.43-.7zm2.72 7.56l-.12.04.62.97a26.1 26.1 0 01-.5-1.01zm1.06 2.3c-.87-1.16-1.78-2.28-2.62-3.44a59.48 59.48 0 00-5.04-6 .18.18 0 01-.21-.04c-2.93-2.92-5.84-5.87-8.77-8.78-1.65-1.6-3.3-3.19-4.94-4.8l-.1-.1-.93-.9c-.1-.06-.18-.12-.26-.2l-12.32-11.76c-.25-.24-.49-.49-.72-.74l-6.1-6.73c-.6-.68-1.15-1.4-1.8-2.06l.7 1.34a284 284 0 0013.07 15.34 199 199 0 0010.23 9.63c3.77 3.29 7.54 6.58 11.2 10 2.86 2.67 5.4 5.6 7.81 8.67.39.49.86.92 1.3 1.37-.17-.27-.31-.55-.5-.8zm-5.04-38.48c-.3.97-.56 1.85-.71 2.75a45 45 0 00-.76 7.6c0 1.43.2 2.82.53 4.2.45 1.95.8 3.93 1.29 5.86.4 1.59.96 3.13 1.45 4.7l.12-.04-1.27-5c-.51-2.05-.8-4.13-.91-6.24-.23-4.2-.2-8.4.3-12.6.04-.3.05-.61.06-.92 0-.06-.03-.12-.1-.31zm1.18-4.1c-.24.97-.6 1.86-.67 2.83-.2 2.85-.5 5.7-.54 8.56-.06 3.58-.02 7.17.63 10.71.3 1.56.7 3.1 1.08 4.63.42 1.7.85 3.4 1.33 5.1.35 1.18.8 2.34 1.29 3.49l-.36-1.05c-.39-1.32-.8-2.64-1.14-3.97-.2-.77-.26-1.56-.37-2.35-.21-1.6-.44-3.2-.62-4.81a70.07 70.07 0 01-.49-8.45c.02-1.86.05-3.72.18-5.58.22-3 .04-5.98-.16-8.97 0-.03-.05-.05-.16-.14zm.5-1.33c.02.97.05 1.93.13 2.89.25 2.9.22 5.78.03 8.67-.12 1.75-.09 3.51-.1 5.27 0 1.1.06 2.2.08 3.3.03 1.63.16 3.24.44 4.84.23 1.28.4 2.59.48 3.9.15 2.19.75 4.26 1.64 6.28-.04-.46-.1-.9-.13-1.36-.5-5.77-1.05-11.53-.98-17.33.02-2.13-.24-4.26-.37-6.4l-.66-10.3c-.02-.41-.07-.82-.1-1.22-.47.43-.47.95-.46 1.46zm2.98 10.66a38 38 0 01.6 5.44c.06 1.59.2 3.16.28 4.75.08 1.61.2 3.23.17 4.84-.04 3.07.13 6.13.36 9.19.03.35.13.7.2 1.05.03-.53.09-1.06.06-1.59a56 56 0 01.1-8.05c.06-.58.08-1.17.07-1.75-.04-2.58-.05-5.17-.18-7.75-.07-1.3-.33-2.6-.57-3.88-.37-2-.78-3.98-1.2-5.97-.23-1.07-.5-2.13-.83-3.18.2 2.32.52 4.62.94 6.9zm2.2 27.34c-.06-3.56.51-7.07.86-10.6.48-4.84.25-9.65-.9-14.38a58.76 58.76 0 00-2.34-7.54c.68 3.16 1.34 6.08 1.91 9 .21 1.08.29 2.2.33 3.29.09 1.96.14 3.93.14 5.9 0 1.33-.06 2.68-.15 4.02a47.04 47.04 0 00-.1 5.58c.06 1.2.05 2.4.09 3.61 0 .43.08.86.13 1.29.02-.06.04-.11.04-.16zm-1.56-11.97c-.04-1.72-.14-3.44-.22-5.16-.08-1.55-.22-3.1-.27-4.65-.07-2.28-.4-4.52-.8-6.77-.3-1.8-.49-3.62-.75-5.42-.12-.78-.28-1.56-.55-2.33 0 .27-.03.53 0 .8.2 2.71.38 5.43.62 8.14.2 2.23.37 4.47.33 6.71-.07 4.32.29 8.61.66 12.9.26 2.9.51 5.78 1.13 8.61.17.78.3 1.56.52 2.32.09.31.24.6.38.9l-.1-1.61c-.02-.16.09-.23.2-.24-.07-1.17-.31-2.31-.46-3.47-.46-3.56-.61-7.14-.7-10.73zm4.96 26.27c.06.5.16.78.42.96l-.42-.96zm.46 1.02l.28.8a.82.82 0 00-.28-.8zm1.36 2.31c.03.44.12.65.32.8l-.32-.8zm6.5 10.12c-2-3.01-4.15-5.93-5.94-9.08-.04-.07-.13-.13-.2-.19.62 1.7 1.43 3.3 2.51 4.78 1.34 1.83 2.64 3.68 3.96 5.52.15.2.34.37.52.54-.28-.53-.52-1.07-.85-1.57zm-22.23.7a33.37 33.37 0 004.74 3.65c3.91 2.54 7.92 4.9 12.35 6.42 1.79.62 3.62 1.1 5.44 1.62.25.07.52.06.79.09l-3.12-1.3c-1.18-.5-2.37-.95-3.5-1.52-3.92-1.95-7.88-3.8-11.6-6.12-1.7-1.06-3.37-2.14-5.06-3.21-.22-.14-.47-.26-.7-.38.22.25.42.52.66.75zm-24.49-22.5c2.23 1.85 4.73 3.33 7.05 5.06a51.66 51.66 0 014.59 3.7c.22.21.44.44.68.63 4.36 3.5 8.47 7.3 13.08 10.48.33.23.6.53.9.8-.27-.12-.56-.21-.8-.38a75.62 75.62 0 01-6.76-5.1c-1.14-.96-2.3-1.87-3.44-2.82-1.45-1.22-2.86-2.48-4.32-3.68-1.5-1.23-3.02-2.4-4.54-3.6-.12-.09-.28-.13-.42-.2.16.21.3.43.48.61 3.96 3.8 7.93 7.59 11.9 11.37.6.57 1.25 1.09 1.9 1.6a98.36 98.36 0 0013.58 8.89l1 .54c2.36 1.16 4.7 2.33 7.06 3.48.68.34 1.38.62 2.1.94l.17-.29c.3.13.62.24.92.39l4.58 2.26c.14.06.3.08.45.1-.25-.2-.5-.44-.77-.6-2.45-1.47-4.88-3-7.39-4.37a83.05 83.05 0 01-8.59-5.35 449.64 449.64 0 00-4.48-3.16c-2.12-1.47-4.12-3.11-6.12-4.75-2.6-2.15-5.27-4.22-7.93-6.3-2.55-2-5.08-4.04-7.7-5.94-2.17-1.58-4.46-3-6.7-4.47-.36-.23-.79-.35-1.18-.52.23.23.45.47.7.67zm17.98 8c1.58 1.43 3.17 2.86 4.76 4.27.75.67 1.56 1.26 2.27 1.95 2.49 2.44 5.18 4.65 7.82 6.9.45.38.9.75 1.4 1.07 3.53 2.34 6.97 4.82 10.65 6.92.54.3 1.1.57 1.65.85l.5.34-.46-.42c-.24-.23-.48-.49-.74-.7-4.44-3.6-8.84-7.26-13.33-10.8-4.49-3.54-9.12-6.9-13.85-10.11-.2-.14-.42-.22-.63-.33l-.7-.43.66.5zm-.88-.01a84.8 84.8 0 00-9.87-5.8l-.41-.18c.21.18.42.38.66.52 1.35.83 2.7 1.68 4.08 2.46a57.9 57.9 0 019.09 6.45c1.57 1.34 3.17 2.65 4.77 3.96.22.18.48.3.73.45-.21-.25-.4-.51-.64-.73-.92-.83-1.85-1.64-2.79-2.45-1.04-.9-2.07-1.8-3.13-2.69-.82-.68-1.6-1.41-2.5-2zm7.17 6.93l-4.6-3.85a51.7 51.7 0 00-7.61-5.34c-2.16-1.23-4.28-2.53-6.42-3.78-.69-.4-1.4-.74-2.12-1.07-.3-.14-.63-.2-.94-.29.25.22.47.46.75.63 3.3 2.1 6.4 4.44 9.43 6.9 2.82 2.28 5.69 4.5 8.53 6.74.27.21.55.42.8.64 4.63 4.08 9.76 7.47 14.85 10.9 2.08 1.4 4.37 2.5 6.57 3.73.07.04.17.05.26.06-.21-.2-.4-.43-.64-.6-2.6-1.93-5.22-3.85-7.83-5.77-3.8-2.81-7.4-5.88-11.03-8.9zm-25.8-17.27c-.49-.17-1.01-.22-1.57-.22l.47.26c2 1.08 4.1 1.97 6.24 2.77.32.12.63.29.94.44a24.26 24.26 0 00-6.09-3.25zm47.71 29.19c-7.66-8.62-16.43-15.84-26.7-21.16-2.33-1.2-4.72-2.3-7.08-3.42-.32-.14-.67-.2-1.01-.3.3.2.6.4.9.56l4.16 2.09a58.41 58.41 0 017.28 4.32c1.67 1.15 3.37 2.28 5 3.48a138.6 138.6 0 014.85 3.7c2.15 1.73 4.31 3.44 6.38 5.26 2.1 1.84 4.08 3.8 6.12 5.7l.8.7c-.23-.32-.44-.65-.7-.94zm3.3 4.34a35.92 35.92 0 00-4.37-3.93c-1.47-1.15-2.9-2.34-4.32-3.53a226.56 226.56 0 00-15.86-12.41c-1.47-1.03-3.02-1.92-4.53-2.89-.34-.22-.65-.48-.97-.73.25.09.52.14.75.27a48.8 48.8 0 016.18 3.93c.85.64 1.71 1.28 2.59 1.88 2.18 1.52 4.17 3.26 6.25 4.91 3.07 2.44 6.01 5.04 9.05 7.51.3.25.66.42 1 .62-.15-.18-.28-.36-.44-.51a88.8 88.8 0 00-6.94-6.2c-.95-.74-1.9-1.5-2.8-2.3-3.34-2.96-7.02-5.46-10.66-8.01a65.56 65.56 0 00-9.65-5.61c-2.43-1.15-4.83-2.37-7.26-3.52-.42-.2-.88-.29-1.33-.42l.31.3c-.32-.1-.65-.15-.96-.28-1.1-.48-2.2-.98-3.29-1.47.36.25.71.53 1.1.73 1.46.71 2.94 1.37 4.4 2.08a85.52 85.52 0 0112.06 7.04c3.89 2.75 7.73 5.56 11.56 8.38 1.34.99 2.58 2.09 3.87 3.13a10556 10556 0 0014.03 11.3c.25.2.55.34.83.5-.2-.25-.38-.53-.6-.77zm4.54 4.75c-.96-.76-1.97-1.49-2.95-2.24a57.8 57.8 0 00-5.38-3.63c-2.29-1.39-4.52-2.87-6.79-4.3-.29-.2-.6-.34-.91-.5.2.2.4.4.62.57l6.22 4.6c.21.15.38.37.58.56h-.01c.3.14.62.24.9.42 1.56 1.06 3.12 2.13 4.65 3.23a9.77 9.77 0 002.98 1.6c.35.1.69.27 1.03.4-.16-.42-.63-.46-.94-.7zm-.3-3.85c-.82-1.05-1.66-2.1-2.5-3.15-.07-.09-.17-.16-.26-.24.23.4.44.8.7 1.16.53.71 1.08 1.4 1.65 2.08.2.24.46.42.7.63-.1-.16-.17-.34-.28-.48zm.75 1.1l.66.74c-.13-.32-.33-.6-.66-.75zm.76.88a6.9 6.9 0 002.06 2.38l-2.06-2.38zm14.55 11.3l-.32-.8c-.05.33.07.6.32.8zm-7.05-25.74a69.78 69.78 0 01-.14-6.5 4 4 0 01-.04-.46c-.11-3.97-.62-7.9-1.32-11.8-.46-2.55-.98-5.08-1.49-7.61a1.58 1.58 0 00-.3-.66 35.56 35.56 0 01.26 7.4c-.06 1.04.02 2.07.04 3.1.04 1.76.1 3.52.12 5.28.04 2.62.03 5.24.43 7.84.32 2.04.67 4.08.98 6.13.16 1.05.24 2.12.4 3.18.07.5.19 1.01.35 1.5.6 1.77 1.17 3.54 1.84 5.28.46 1.18 1.06 2.3 1.64 3.44a66.2 66.2 0 01-1.7-8.36.15.15 0 01-.1-.12 74.85 74.85 0 01-.97-7.64zm6.27 24.08l-1.82-3.76c.3 1.39 1.12 2.54 1.82 3.76zm-11.3-53.06c-.05.08-.04.2-.05.3-.47 4.56-1.03 9.12-1.14 13.71-.07 3.12.29 6.2.61 9.3.25 2.29.54 4.58.92 6.86.6 3.63 1.72 7.1 3.13 10.49.5 1.18.97 2.36 1.5 3.53a67.94 67.94 0 005.4 9.88c.77 1.14 1.52 2.3 2.28 3.45.08.12.2.23.3.33-.66-1.14-1.28-2.3-1.96-3.43-1.97-3.24-3.8-6.55-5.45-9.97-1.12-2.33-2-4.76-2.64-7.27-.3-1.2-.65-2.4-.99-3.59-.68-2.4-1-4.86-1.24-7.32-.18-1.82-.23-3.64-.31-5.47-.05-.96-.04-1.92-.07-2.89-.04-1.08-.03-2.17.02-3.25-.34-4.97-.38-9.96-.16-14.93l-.16.27zm.57-1.87c-.1 3.35-.12 6.7-.08 10.06v-.06c.35 1.18.27 2.4.32 3.6 0 .37-.03.75-.06 1.13l-.12 1.47.02.41c0 .05-.02.08-.04.1-.16 3.28.01 6.54.26 9.8.25 3.5.78 7 1.83 10.37.59 1.88 1.14 3.76 1.73 5.64.77 2.45 1.98 4.7 3.17 6.96.86 1.6 1.77 3.19 2.74 4.75-.02-.1-.02-.2-.06-.28-.86-2.07-1.71-4.14-2.59-6.2-.78-1.84-1.64-3.65-2.39-5.5-.8-2-1.5-4.01-1.83-6.14l-1.25-8.39c-.4-2.6-.43-5.22-.46-7.84-.02-1.8-.08-3.59-.1-5.38-.01-1.62-.03-3.24.01-4.86.04-1.49 0-2.97-.2-4.44-.12-1-.21-1.99-.29-2.99a7.37 7.37 0 00-.6-2.21zm.05-1.42l-.02.7c.05.2.14.41.26.66.15-.63-.05-1-.24-1.36zm6.74 36.28a266.8 266.8 0 00-.96-15.48 56.44 56.44 0 00-1.49-8.55 95.27 95.27 0 00-1.62-5.77 35.73 35.73 0 00-1.76-4.23c.01.26 0 .52.05.77.07.37.18.74.27 1.1.97 3.92 1.75 7.87 2.41 11.85.54 3.23.88 6.49.89 9.77 0 .19-.05.38-.1.57.07 1.96.2 3.93.37 5.9.23.9.3 1.81.37 2.72a57.03 57.03 0 00.56 4.9c.28 1.82.63 3.62 1.02 5.41.55 2.56 1.3 5.07 2.63 7.56-.04-.32-.04-.5-.1-.65-1.68-5.16-2.34-10.47-2.54-15.87zm4.84 21.94c.12.31.17.66.48.86l-.48-.86zm3.44 5.62c-.7-1.03-1.35-2.1-2.32-2.92.19.81.62 1.49 1.16 2.1.22.26.4.55.63.8.24.28.51.53.9.68-.12-.22-.23-.45-.37-.66zm3.19 2.86c-.76-.84-1.52-1.69-2.29-2.52-.15-.17-.34-.31-.51-.46.24.98.78 1.76 1.61 2.35l1.51 1.08c-.1-.16-.2-.31-.32-.45zm75.4 46.7c-.42-.53-.77-.74-1.2-.8.24.36.58.58 1.2.8zm-.4.59c-.18-.55-.59-.67-.95-.84.19.36.43.66.96.84zm-1.47-1.89l-.76-.5c.18.27.42.46.76.5zm-27.69-15.86c1.22.65 2.52 1.16 3.78 1.73-.19-.16-.36-.35-.58-.47a792.51 792.51 0 00-6.1-3.23c-.14-.07-.3-.09-.46-.13 1.11.71 2.2 1.48 3.36 2.1zm-3.41-2.12c-.41-.5-1.02-.66-1.56-.93.43.45.97.72 1.56.93zm-27.78-36.32c1.14 3.06 2.22 6.15 3.45 9.18a43.4 43.4 0 004.33 7.98c.46.69.95 1.36 1.43 2.03-.1-.22-.19-.46-.32-.67a76.53 76.53 0 01-5.3-10.5 563.91 563.91 0 00-3.92-9.1c.1.36.2.72.33 1.08zm13.65 13.45c-.15-.95-.27-1.9-.44-2.83-.84-4.58-1.66-9.16-2.58-13.72a71.18 71.18 0 00-1.64-6.3c-.61-2.05-1.36-4.06-2.05-6.08a79.22 79.22 0 00-4.5-10.21c-1.04-2.06-2.1-4.1-3.23-6.13.17.5.3 1.03.52 1.51.8 1.83 1.63 3.65 2.44 5.48a132.67 132.67 0 015.77 15.39c.2.65.3 1.34.49 2 .62 2.19 1.29 4.36 1.86 6.56.34 1.3.56 2.63.8 3.95a93.1 93.1 0 002.29 10.08l.11.34.16-.04zm6.1 17.96c-.3-.53-.58-1.08-.9-1.6a34.26 34.26 0 01-3.51-8.37c-.83-3-1.53-6.02-2.56-8.96-1-2.87-1.51-5.88-2.04-8.87a52.42 52.42 0 00-1.77-7.54c-.6-1.83-.97-3.74-1.46-5.6-.17-.67-.35-1.34-.56-2-1.1-3.38-2.3-6.72-3.67-10-.8-1.94-1.72-3.84-2.54-5.78-.67-1.58-1.3-3.2-1.91-4.8-.26-.67-.48-1.36-.79-2.26-.28.68-.37 1.15-.24 1.66.06.24.14.46.22.7.96 2.8 1.95 5.6 2.87 8.42.59 1.84 1.07 3.71 1.59 5.57l1.06 3.9c.8 2.78 1.64 5.55 2.43 8.34.4 1.36.72 2.73 1.09 4.1.2.73.39 1.47.6 2.2l3.3 11.32.28.89c.71 2.1 1.45 4.17 2.13 6.28a49.38 49.38 0 002.7 6.49c.79 1.6 1.64 3.19 2.43 4.8.27.56.64.95 1.24 1.11zm-1.67-1c-.34-.7-.65-1.4-1.02-2.08a56.72 56.72 0 01-4.59-10.83c-.3-1.06-.7-2.1-1.04-3.15-.98-2.9-1.88-5.84-2.62-8.82-.15-.6-.34-1.2-.53-1.79-.96-2.92-1.78-5.87-2.48-8.86a19.6 19.6 0 00-.6-1.98c-1.07-3.06-1.82-6.22-2.63-9.36-.28-1.1-.6-2.19-.89-3.29-1.02-3.94-2.32-7.8-3.7-11.63-.02-.07-.06-.12-.22-.4.11.7.2 1.16.26 1.64.16 1.22.4 2.45.42 3.69.05 2.38.3 4.74.7 7.1.21 1.28.37 2.58.53 3.88.18 1.44.47 2.86.91 4.24.6 1.88 1.1 3.78 1.75 5.63 1.06 3.03 2.2 6.02 3.31 9.03.7 1.88 1.38 3.76 2.11 5.62.59 1.47 1.24 2.91 1.86 4.37.52 1.24 1.07 2.47 1.53 3.73.91 2.5 2.02 4.9 3.28 7.25.71 1.33 1.4 2.69 2.16 4 .43.71 1 1.34 1.5 2.01zm-1.5-1.22c-.22-.37-.44-.75-.68-1.11a1.94 1.94 0 00-.45-.48c.22.64.5 1.24 1.13 1.59zm-3.28-6.38c-.95-1.88-1.71-3.83-2.48-5.8-.83-2.1-1.8-4.17-2.7-6.26-.09-.22-.2-.44-.28-.67-1.32-3.58-2.64-7.18-3.98-10.77-.48-1.29-1.05-2.55-1.48-3.86-.93-2.78-1.82-5.57-2.64-8.38-.3-1.02-.34-2.1-.51-3.16-.29-1.84-.61-3.68-.86-5.52a36.46 36.46 0 01-.3-3.7c-.06-1.7-.22-3.38-.46-5.05-.02-.12-.08-.25-.21-.62-.17.94-.27 1.65-.43 2.35a7.17 7.17 0 00-.1 3.07c.11.5.13 1.03.16 1.55.16 3.97.9 7.87 1.72 11.75.15.67.39 1.32.61 1.97 1.1 3.2 2.18 6.4 3.33 9.58.64 1.75 1.39 3.46 2.1 5.17.88 2.1 1.8 4.19 2.67 6.28 1.34 3.21 2.63 6.45 4.18 9.57.66 1.32 1.44 2.59 2.17 3.87.08.13.2.24.3.35-.27-.57-.53-1.15-.81-1.72zm-.23.81a41.1 41.1 0 01-2.6-5.16l-2.94-6.83c-.87-2.03-1.7-4.07-2.6-6.08-2.41-5.36-4.18-10.95-6.12-16.48-.73-2.06-1.02-4.21-1.4-6.35a47.8 47.8 0 01-.86-7.38l-.23-.02c-.06.78-.14 1.56-.18 2.35-.16 3.76.17 7.5.83 11.21.14.81.33 1.62.55 2.42.4 1.43.78 2.87 1.27 4.26.56 1.6 1.23 3.14 1.86 4.71.2.48.43.95.6 1.43.76 2.19 1.77 4.27 2.73 6.37l1.23 2.73c1.4 3 2.96 5.91 4.72 8.72.76 1.2 1.43 2.44 2.21 3.62.7 1.05 1.52 2.03 2.43 2.95l-1.5-2.47zm1.26 5.46a1.61 1.61 0 00-1.06-.67l1.06.67zm-1.08-.68a1.83 1.83 0 00-1.08-.69c.26.39.63.6 1.08.69zm-19.4-9.15c-.45-.2-.88-.43-1.35-.56-1.77-.48-3.55-.94-5.33-1.4h-.05l-3.05-.73-.07-.01-1-.24a743.06 743.06 0 00-22.22-4.87l-1.35-.28-5.61-1.12c-3.39-.56-6.8-.9-10.25-1.03-2.03-.07-4.06-.22-6.09-.34 3.88.63 7.73 1.38 11.58 2.13l.02.02 4.68.75c2.55.42 5.1.87 7.65 1.3 1.63.28 3.26.52 4.89.8a295.03 295.03 0 0110.45 2.03c2.62.58 5.25 1.15 7.85 1.81 2.4.62 4.8 1.24 7.28 1.51l1.97.24zm-6.05-2.3c-.3-.13-.59-.25-.89-.35-4.18-1.42-8.42-2.6-12.73-3.52-4.08-.87-8.14-1.78-12.23-2.57-1.96-.38-3.96-.53-5.94-.78-.19-.02-.38-.01-.58-.01.11.06.22.14.33.17l.96.23c7.6 1.41 15.16 3.12 22.66 4.98l4.53 1.14c.18 0 .35.05.52.13l.47.12c.5-.04.97.19 1.46.25l1.44.2zm-26.1.9a42.5 42.5 0 008.5 1.4c.28 0 .57-.02.85-.04-.28-.05-.56-.12-.84-.16l-8.34-1.4c-.22-.03-.44-.03-.66-.04.16.08.32.19.5.23zm-7.05-1.94c.25.1.49.23.75.3 1.4.38 2.82.75 4.24 1.11.23.06.48.06.72.07-.3-.1-.6-.22-.9-.3-1.19-.35-2.38-.69-3.58-1-.4-.11-.8-.16-1.21-.23l-.51-.1.5.15zM57.95 314c1.64.52 3.28 1.04 4.94 1.5 2.2.63 4.4 1.19 6.6 1.78a94.25 94.25 0 0014.15 2.43c4.4.5 8.8.52 13.21.42 1.1-.03 2.2.08 3.3.12h.81c-.8-.4-1.7-.49-2.58-.6-3.18-.38-6.37-.72-9.55-1.1-2.3-.26-4.59-.55-6.88-.81-1.92-.23-3.84-.45-5.76-.63a99.3 99.3 0 01-11.7-2.1c-2.11-.47-4.24-.89-6.37-1.31-.32-.07-.65-.04-.97-.05.26.12.52.27.8.35zm-12.35-4.2l.14.07c.31.14.6.33.92.44a68.37 68.37 0 0010.9 2.81c2.14.34 4.26.8 6.37 1.31 4.6 1.1 9.2 2.1 13.93 2.44 1.34.1 2.66.32 4 .48l12.52 1.44c.2.02.38.01.58.01-.27-.1-.53-.25-.81-.31-2.8-.62-5.6-1.22-8.39-1.82-.2-.04-.41-.06-.61-.12-4.41-1.16-8.94-1.67-13.4-2.55-3.56-.7-7.14-1.22-10.71-1.77-1.43-.22-2.85-.51-4.27-.79-.17-.03-.32-.1-.48-.17-3.54-.54-7.1-1.02-10.64-1.54l-.05.08zm47.25 4.13a69.8 69.8 0 00-20.46-5.87c-3.8-.44-7.61-.6-11.44-.38-.25.01-.5.05-.76.09l.75.14c4.01.48 8.04.8 12.02 1.47 6.43 1.09 12.81 2.42 19 4.53.47.16.96.25 1.44.36-.18-.12-.36-.26-.55-.34zm2.5 1.48c-.96-.29-1.91-.61-2.86-.94a123.63 123.63 0 00-12.27-3.31 150.03 150.03 0 00-17.35-2.74c-3.54-.4-7.08-.45-10.63-.06-1.84.2-3.7.3-5.56.46-.25.02-.5.08-.77.12 1 .26 2.01.17 3.02.06v-.02c.39-.09.77-.13 1.14.06.33-.03.67-.1 1.01-.1 7.05.1 14.03.95 21 1.91 2.5.34 4.95.92 7.41 1.46 3.4.75 6.8 1.52 10.18 2.36 4.7 1.17 9.27 2.72 13.79 4.44.35.13.73.2 1.1.29-3.03-1.45-5.99-3.02-9.22-3.99z" fill="#E4DDDD"/><path d="M21.02 253.88a123.84 123.84 0 0120.1 10.52c.14.1 0 .33-.15.23l-2.25-1.33c-.35-.1-.65-.26-.9-.52l-.66-.37a2.67 2.67 0 01-.88-.5c-5-2.8-10.14-5.31-15.42-7.52-.32-.13-.17-.64.16-.51zM33.2 259.89l-.3-.14.3.14zM29.44 257.89l-.28-.14.28.14zM27.08 256.73l-.29-.14.29.14zM26.81 256.6l-.28-.14.28.14z" fill="#E4DDDD"/></g></svg>