<svg width="370" height="315" fill="none" xmlns="http://www.w3.org/2000/svg"><path d="M303.97 113.6l-.05-.08.03.08h.02z" fill="#fff"/><path d="M66.63 54.36c-.16.54.2.88.47 1.26 1.86 2.63 3.71 5.27 5.6 7.88a96.33 96.33 0 0013.6 14.97 74.68 74.68 0 0020 12.83c7.5 3.34 15.05 6.58 22.57 9.87.5.22.97.52 1.45.78-.44-.03-.89-.03-1.33-.1-1.33-.21-2.65-.49-3.99-.7-7.35-1.1-14.7-2.23-22.05-3.31-2-.3-4.03-.47-6.04-.72-.56-.07-1.12-.2-1.66-.36-1.55-.44-3.07-1.01-4.64-1.35-3.45-.75-6.94-1.35-10.4-2.07-6.9-1.45-13.91-1.83-20.93-1.91-7.94-.1-15.76.94-23.45 2.9-2.42.62-4.84 1.2-7.26 1.81-4.63 1.2-9.29 2.28-13.86 3.65-4.38 1.3-8.67 2.92-13 4.4-.47.16-1.02.28-1.1.92.03.5.34.75.77.86.35.1.72.14 1.08.19 2.52.34 5.05.67 7.56 1.03 4.28.63 8.56 1.2 12.88 1.29 9.36.2 18.7-.05 28.02-1.11 2.58-.3 5.15-.7 7.68-1.29 4.45-1.03 8.89-2.16 13.29-3.38 6.26-1.74 12.55-3.33 19.01-4.18 3.41-.44 6.81-.66 10.25-.1 8.42 1.34 16.86 2.53 25.27 3.93 3.65.61 7.25 1.57 10.87 2.38-.48.03-.96.09-1.44.07-3.58-.16-7.16-.36-10.74-.48a33.7 33.7 0 00-10.34 1.15c-1.55.44-3.13.77-4.72 1-3.87.57-7.6 1.62-11.27 3-3.95 1.47-7.84 3.06-11.35 5.45-.86.58-1.7 1.18-2.58 1.74a68.19 68.19 0 00-10.4 8.15c-3.89 3.68-7.66 7.47-11.9 10.77-2.66 2.06-5.13 4.4-8.08 6.08-.27.15-.55.33-.73.57-.2.26-.28.6-.46 1.03.48.14.8.3 1.13.32.41.01.83-.1 1.24-.14 3.71-.44 7.43-.88 11.14-1.3 1.7-.19 3.42-.26 5.12-.5 8.1-1.17 16-3.1 23.6-6.2a58.6 58.6 0 0010.38-5.35c4.8-3.2 9.33-6.78 13.75-10.48a62.92 62.92 0 0115.08-9.57c1.47-.64 3.02-1.1 4.55-1.6a4.37 4.37 0 012.61-.09c.48.14 1.04.17 1.54.09 2.16-.34 4.25 0 6.33.46 1.52.35 3.02.77 4.54 1.1 2.69.57 5.44.9 7.94 2.14.28.13.6.17.9.26l7.55 2.46c.14.05.28.13.43.18 2.24.83 4.45 1.72 6.72 2.46 2.26.75 4.43 1.8 6.82 2.13.2.03.4.14.59.2 3.45 1.3 6.91 2.58 10.37 3.87.58.22 1.16.46 1.73.72 3.22 1.44 6.45 2.86 9.66 4.35 1.97.92 3.9 1.93 5.85 2.9l.33.16c-.12 0-.24 0-.36-.02-1.72-.41-3.44-.8-5.14-1.25a123.25 123.25 0 00-12.92-2.93 40.5 40.5 0 00-17.43 1.15c-2.1.6-4.2 1.14-6.32 1.67a54.6 54.6 0 00-9.88 3.32 464.08 464.08 0 00-8.56 4.12 34.68 34.68 0 00-10.45 8.02c-4.6 5.1-9.23 10.14-14.55 14.5-1.89 1.55-3.69 3.23-6.18 3.78-.12.03-.2.2-.34.36.2.64.75.66 1.25.66 2.13 0 4.26.12 6.38-.05 4.71-.38 9.41-.91 14.11-1.37a45.86 45.86 0 0018.88-5.96c4.22-2.46 8.46-4.9 12.61-7.47 5.7-3.54 11.43-7.01 17.3-10.24.87-.48 1.75-.92 2.66-1.32 3.91-1.7 8-2.89 12.1-4.06 2.37-.68 4.8-.85 7.26-.7a30 30 0 016.55 1.27c4.7 1.34 9.36 2.8 13.88 4.66 4.9 2.03 9.77 4.12 14.64 6.2 1.77.76 3.51 1.57 5.26 2.37.36.16.69.4 1.03.62-.3.02-.6.08-.89.05-7.37-.86-14.73-.52-22.09.24-.56.06-1.13.16-1.69.28-4.61 1.01-9.25 1.94-13.75 3.41-3.37 1.1-6.7 2.24-9.8 3.98a34.9 34.9 0 01-3.94 1.9 61.4 61.4 0 00-10.77 5.6c-2.16 1.43-4.38 2.8-6.5 4.29a45.15 45.15 0 00-6.7 6.05c-1.83 1.92-3.52 3.98-5.46 5.78-5.45 5.05-10.03 10.96-15.58 15.92-.3.26-.47.65-.75 1.04l.78.8c.36-.16.67-.24.92-.4a10.2 10.2 0 013.45-1.38c1.62-.38 3.24-.76 4.88-1.07 7.5-1.44 14.9-3.36 22.09-5.99 4.64-1.7 9.2-3.59 13.39-6.25 4.34-2.77 8.47-5.83 12.49-9.05 5.31-4.26 10.44-8.74 16.05-12.62 1.79-1.24 3.59-2.5 5.51-3.51a98.29 98.29 0 017.79-3.57c4.5-1.88 9.25-2.75 14.06-3.32.79-.1 1.52 0 2.26.39 3.37 1.73 6.75 3.46 10.17 5.1a42.3 42.3 0 004.77 1.9c2.61.87 5.25 1.68 7.88 2.48 4.03 1.23 8.06 2.44 12.09 3.65 2.05.62 4.1 1.22 6.16 1.83-.83-.04-1.68-.03-2.5-.16-4.63-.7-9.27-1.31-13.94-1.64a40.9 40.9 0 00-9.18.2c-3.03.47-6.05 1.01-9.04 1.65-4.78 1-9.58 1.95-14.02 4.14-4.11 2.04-8.11 4.26-11.45 7.45-3.24 3.09-6.38 6.26-9.54 9.42-2.97 2.98-5.9 6-8.87 8.99a26.12 26.12 0 01-4.83 3.91c-.47.3-1.03.55-1 1.22.4.62.94.44 1.44.35 4.14-.76 8.29-1.46 12.41-2.32 7.33-1.52 14.32-4 20.75-7.86a115.1 115.1 0 007.06-4.6 132.05 132.05 0 0117.09-9.96c2.28-1.14 4.54-2.33 6.86-3.37a48.24 48.24 0 015.67-2.17c2.32-.7 4.73-1.13 7.06-1.8a36.1 36.1 0 0110.64-1.26c1.73.02 3.39.33 5.03.93 1.8.67 3.65 1.21 5.51 1.69 4.95 1.25 9.99 2.01 15.04 2.65 4.76.6 9.4 1.74 14.08 2.71 6.21 1.28 12.4 2.65 18.78 2.89.8.03 1.59.2 2.38.32-.38.1-.75.22-1.13.23-2.6.12-5.2.23-7.8.3-4.93.12-9.85.31-14.76.97a66.07 66.07 0 00-22.42 7.25c-3.99 2.12-7.35 5.06-10.66 8.08-3.5 3.2-6.4 6.95-9.27 10.7a731.3 731.3 0 01-19.1 23.86c-.96 1.16-1.9 2.34-2.81 3.53-.4.53-.86 1.09-.55 1.85.47.61 1.16.7 1.83.6.77-.1 1.54-.27 2.28-.5 2.98-.91 5.97-1.81 8.92-2.82 4.08-1.39 8.18-2.72 12.1-4.56 2.78-1.3 5.58-2.54 8.32-3.92 4.15-2.08 8.08-4.55 11.42-7.8 5.6-5.43 11.13-10.9 16.6-16.47 5.68-5.78 11.86-10.9 19.03-14.73 3.25-1.73 6.6-3.3 9.9-4.96a9.8 9.8 0 015.9-.93c1.03.15 2.07.21 3.1.34a455 455 0 0027.2 2.21c4.93.3 9.88.14 14.81.27 4.79.13 9.56.02 14.34-.26 6.59-.4 13.2-.55 19.75-1.41a45.3 45.3 0 014.19-.4c5.67-.2 11.26-1.15 16.9-1.75.82-.08 1.63-.28 2.45-.44 4.9-.93 9.81-1.79 14.7-2.81 4-.85 7.98-1.9 11.97-2.85l.45-.14c1.22-.35 2.02-1.23 2.75-2.19.3-.38.43-.83.16-1.4-.32-.45-.86-.58-1.46-.54-.41.03-.83.09-1.23.17-2.7.54-5.4 1.14-8.1 1.65-4.03.76-8.08 1.43-12.11 2.2-4.44.83-8.9 1.6-13.3 2.62a155 155 0 01-12.23 2.44c-3.7.54-7.44.8-11.2.67-5.45-.18-10.9-.33-16.35-.61-3.17-.16-6.33-.46-9.47-.84-9.1-1.1-18.08-2.84-27-4.89-5.27-1.2-10.53-2.46-15.55-4.55a8.78 8.78 0 00-.88-.3 29.5 29.5 0 01-5.2-2.1c-.78-.41-1.6-.76-2.45-1-3.96-1.15-7.65-2.99-11.5-4.39a9.1 9.1 0 01-1.4-.7c-3.9-2.23-7.9-4.17-12.27-5.3-.25-.07-.5-.15-.74-.25a48.96 48.96 0 00-8.83-2.93c-.23-.53-.54-1.06-.71-1.64a12.63 12.63 0 01-.33-5.26c.31-2.59.94-5.11 1.76-7.58 1.08-3.26 2.17-6.51 3.34-9.74a106.22 106.22 0 006.24-29.82c.68-10.75-.33-21.4-2.33-31.95-1.27-6.69-2.65-13.35-4-20.02-.28-1.38-.6-2.75-.93-4.1-.15-.6-.4-1.17-.6-1.75l-.94-.16c-.9.58-1.24 1.48-1.58 2.33-.96 2.48-1.92 4.95-2.76 7.46-3.07 9.12-6.1 18.25-9.12 27.38a99.13 99.13 0 00-3.87 15.25 71.95 71.95 0 00-.12 23.75 100.22 100.22 0 007.03 23.69 47.94 47.94 0 005.7 9.81c.16.2.26.46.52.94l-12.68-7.2c-.17-.46-.38-.93-.51-1.42-.4-1.45-.82-2.9-1.16-4.37a19.7 19.7 0 01-.56-3.22c-.34-5.28-.6-10.58-.9-15.87-.12-2.08-.18-4.16-.4-6.22-1-9.42-3.57-18.45-6.77-27.31-2.14-5.94-5.1-11.5-8.12-17.01-1.22-2.23-2.68-4.33-3.96-6.53-2.42-4.2-5.45-7.98-8.22-11.93A45.02 45.02 0 01285.5 40c-.28-.67-.57-1.34-.87-2-.17-.4-.4-.73-1.08-.57-.07.32-.2.7-.24 1.09-.4 4.5-.8 9-1.16 13.51a132.75 132.75 0 001.2 32.64c.71 4.21 1.8 8.33 3.4 12.3 2 4.98 4.54 9.69 7.3 14.28 2.11 3.52 4.34 6.97 6.55 10.43a95.73 95.73 0 009.8 12.7l3.4 3.78c-1.67-1.02-3.4-1.95-5-3.09-4.56-3.26-9.15-6.48-13.54-9.98-4.02-3.21-8.14-6.29-12.24-9.38-1.95-1.47-3.9-2.94-5.98-4.21a85.2 85.2 0 01-7.62-5.13c-.9-.7-1.58-1.5-1.88-2.6-.7-2.6-1.42-5.2-2.11-7.8-.28-1.06-.48-2.13-.78-3.18l-3.6-12.42a76.6 76.6 0 00-5.2-13.33c-1.07-2.14-2.06-4.31-3.21-6.4-1.83-3.33-3.65-6.66-5.66-9.88a169.26 169.26 0 00-6.48-9.53c-2.1-2.9-4.25-5.78-6.6-8.47-3.29-3.75-6.81-7.28-10.17-10.97-2.96-3.27-5.88-6.58-8.01-10.49-.1-.19-.39-.28-.58-.42-.73.42-.54.98-.44 1.54.55 2.91 1.14 5.82 1.6 8.74 1.6 10.18 3.84 20.2 7.58 29.84a97.14 97.14 0 005.83 12.74 171 171 0 005.44 8.9c1.47 2.27 3.06 4.46 4.69 6.6 3.01 3.99 6.45 7.6 9.94 11.16.38.4.72.82 1.08 1.23-.49-.24-1-.45-1.45-.74-5.58-3.42-11.14-6.87-16.73-10.28a50.1 50.1 0 00-4.77-2.64c-3.71-1.75-7.48-3.38-11.21-5.08a3.97 3.97 0 01-1.06-.63 16.82 16.82 0 01-4.22-5.54c-1.24-2.85-2.4-5.75-3.44-8.68-1.58-4.51-3.1-9.03-5.3-13.3a100.84 100.84 0 00-4.63-7.93 104.73 104.73 0 00-29.84-30.74c-1.64-1.1-3.14-2.4-4.65-3.65-.6-.5-1.04-1.15-1.58-1.72-.09-.1-.28-.1-.49-.16l-.52.51 1.2 3.09c.72 1.94 1.4 3.9 2.16 5.83a136.8 136.8 0 006.84 14.17 144.52 144.52 0 0014.75 22.7c3.3 4.08 6.66 8.1 10.4 11.8 4.13 4.1 8.75 7.64 13.3 11.27.38.3.75.65 1.12.98-.33-.1-.66-.17-.97-.3a62.4 62.4 0 01-10.57-5.97 67.97 67.97 0 00-8.14-4.9c-1.16-.6-2.33-1.18-3.41-1.88-3.8-2.47-7.78-4.62-11.74-6.78a70.26 70.26 0 00-8.31-3.93c-3.64-1.4-7.26-2.87-10.94-4.15-5.88-2.04-11.75-4.2-17.8-5.73a200.97 200.97 0 01-12.6-3.53c-.59-.2-1.21-.28-1.82-.39-.13-.02-.28.12-.48.21l-.03.7.5.46c4.53 3.82 9.1 7.58 13.56 11.47 5.9 5.14 12.35 9.48 19.22 13.23 8.94 4.88 18.57 7.76 28.5 9.78.6.13 1.2.22 1.8.32.24.42.46.77.65 1.14 1.98 3.83 3.97 7.66 5.93 11.5.88 1.7 1.7 3.45 2.58 5.15 1.42 2.78 2.77 5.6 4.35 8.28a97.6 97.6 0 006.2 9.33c4 5.28 8.3 10.26 12.94 14.95a303.7 303.7 0 0020.82 19.24c1.98 1.67 3.97 3.31 5.96 4.97-1.79-.68-3.6-1.3-5.36-2.04-14.45-6.14-28.9-12.3-43.33-18.46-.96-.4-1.84-1.03-2.82-1.3-2.27-.64-4.4-1.56-6.6-2.39a10.26 10.26 0 01-5.15-4.3c-.97-1.54-1.94-3.1-3.09-4.5a29.04 29.04 0 01-3.04-4.31 189.2 189.2 0 00-14.1-21.68 224.5 224.5 0 00-8.96-11.2c-4-4.65-8.3-9-13.1-12.86-10.53-8.47-22-15.5-33.69-22.2-.21-.12-.47-.18-.77-.3l-.66.64.52 1c.54 1.07 1.14 2.1 1.6 3.2 2.33 5.5 4.8 10.95 7.6 16.23a137.2 137.2 0 0013.18 20.6 68.77 68.77 0 0014.9 14.29c3.07 2.13 6.13 4.28 9.23 6.38 2.62 1.78 5.28 3.52 7.93 5.25 3.78 2.48 7.58 4.93 11.36 7.4.16.1.3.23.46.34-.46.03-.84-.1-1.22-.22-7.89-2.65-15.76-5.35-23.85-7.34a7.4 7.4 0 01-2.92-1.38c-1.22-.98-2.5-1.86-3.7-2.86-1.83-1.53-3.6-3.15-5.41-4.7-7.35-6.27-15.01-12.17-22.32-18.5a93 93 0 00-18.58-12.8 741.13 741.13 0 00-13.42-6.64c-1.5-.72-3.05-1.3-4.6-1.91-3.1-1.22-6.44-1.74-9.35-3.44-.38-.23-.81-.16-1.06.3zM42.35 93.97a100.4 100.4 0 0123.74-1.19c4.73.34 9.42.75 14.06 1.72.89.19 1.76.47 2.63.7-.28.04-.57.11-.85.1-3.53-.23-7.06-.38-10.57-.71-4.34-.42-8.67-.98-13.05-.8-6.64.25-13.28.41-19.88 1.36-.52.07-1.05.03-1.58.03 1.83-.4 3.65-.9 5.5-1.2zM5.5 104.15c-.27.07-.56.1-.9-.05 1.5-.57 2.98-1.16 4.5-1.7 6.6-2.38 13.4-4.08 20.27-5.5.97-.2 1.94-.35 2.92-.46 8.63-.92 17.26-1.77 25.93-2.04 3.12-.1 6.23.09 9.33.4.24.02.47.1.7.17-.54.1-1.07.26-1.6.3-4.4.36-8.8.69-13.2 1.04-1.82.15-3.62.37-5.43.5-3.58.27-7.15.58-10.73.72-4.95.19-9.8.92-14.6 2.2-5.7 1.55-11.45 2.96-17.19 4.42zm4.27 1.02c-.47.01-.94 0-1.4-.01-.15 0-.3-.06-.77-.15.57-.16.86-.29 1.16-.33 7-.88 13.94-2.2 20.97-2.92 7.75-.79 15.47-1.8 23.2-2.74.56-.07 1.1-.27 1.64-.41-.5 0-1.02-.06-1.52 0-9.02.98-18.05 1.92-27.07 2.97-4.06.48-8.1 1.18-12.15 1.77-.7.1-1.4.15-2.09.22.35-.17.7-.38 1.07-.48 4.92-1.3 9.82-2.66 14.77-3.84 3.03-.73 6.16-.97 9.28-1.02 4.16-.07 8.3-.31 12.42-.93a48 48 0 013.1-.34c5.07-.43 10.15-.79 15.21-1.28 4.5-.45 8.92.12 13.37.59.14.01.28.1.43.16l.64-.06-.5.31.15.26L81 97a62.52 62.52 0 01-10.39 1.94 575.43 575.43 0 00-31.25 3.58c-2.93.43-5.87.76-8.8 1.18-6.9 1-13.85 1.26-20.8 1.48zm65.44-4.18c-6.18 1.77-12.34 3.69-18.75 4.49-5.76.72-11.54 1.4-17.33 1.77-6.57.4-13.17.39-19.74-.34-.54-.06-1.06-.2-1.59-.32.43-.05.87-.11 1.3-.12 4.84-.09 9.67-.11 14.5-.27 2.28-.07 4.56-.34 6.83-.58a450.19 450.19 0 0029.96-4.06c1.38-.24 2.76-.52 4.14-.76.44-.07.88-.07 1.33-.1-.22.1-.42.23-.65.3zm8.24-2.17c-6.72 1.11-13.42 2.27-20.14 3.36-8.72 1.4-17.52 2.2-26.3 3.2-.41.04-.83.08-1.24.09l-18.54.3c-.48 0-.95-.11-1.43-.19.43-.06.85-.16 1.28-.17 4.57-.1 9.12-.54 13.66-1.15 7.36-1 14.72-1.98 22.09-2.96.56-.08 1.13-.15 1.7-.21 5.37-.54 10.75-1.05 16.12-1.63a48.9 48.9 0 005.85-.93 29.29 29.29 0 019.42-.87c1 .1 2.02.05 3.04.3-1.84.28-3.68.55-5.51.86zm40.8 65.27c-.02 0-.05-.07-.13-.18.13-.12.25-.3.4-.39 3.42-2.04 6.28-4.78 9.06-7.57 3.03-3.05 5.89-6.28 8.84-9.42a31.11 31.11 0 017.04-5.85c2.75-1.58 5.47-3.21 8.27-4.7a54.5 54.5 0 0112.25-4.49c2.77-.7 5.55-1.37 8.3-2.1a38.07 38.07 0 0114.54-.89c4.61.57 9.11 1.67 13.58 2.9-.52-.02-1.04-.02-1.56-.07-4.33-.46-8.67-.94-13-1.39-.88-.09-1.77-.06-2.65-.03a76.78 76.78 0 00-18.72 2.9 86.76 86.76 0 00-11.2 3.73c-3.06 1.33-5.92 3-8.63 4.94-.14.1-.2.3-.3.48 1.64-.98 3.26-1.97 4.91-2.92 4.18-2.4 8.7-3.95 13.33-5.17 2.01-.53 4.02-1.05 6.04-1.53a73.88 73.88 0 0115.92-1.86c.67-.01 1.35.05 2.02.12 3.05.32 6.1.65 9.15 1 .48.05.94.2 1.42.32-2.4.3-4.78.69-7.18.88-4.66.37-9.33.62-13.99.95-4.07.29-7.97 1.38-11.86 2.51-3.1.9-6.18 1.84-9.1 3.22a99.74 99.74 0 00-11.92 6.42 14.5 14.5 0 00-2.07 1.65c-2.78 2.64-5.58 5.27-8.28 8a43.08 43.08 0 01-6.94 5.77c-.43.28-.84.6-1.26.9a9.63 9.63 0 01-6.27 1.87zm18.74-1.6c-3.26.32-6.51.67-9.77 1-.22.02-.46-.02-.7-.03l5.62-1.58c2-.57 4-1.09 5.97-1.75 1.32-.44 2.6-1.06 3.86-1.67 2.8-1.37 5.56-2.79 8.35-4.19.55-.28 1.1-.6 1.65-.87l6.86-3.34c1.45-.7 2.91-1.37 4.35-2.08 4.98-2.48 9.92-5.03 14.91-7.45a72.34 72.34 0 0111.08-4.15c.22-.06.47-.06.73.03l-4.77 2.25c-.84.41-1.69.81-2.5 1.28-3.84 2.18-7.66 4.4-11.5 6.58-.9.51-1.86.92-2.75 1.45-1.26.74-2.47 1.54-3.7 2.3-.57.37-1.14.74-1.74 1.04-3.01 1.52-6.02 3.06-9.06 4.51-1.68.81-3.44 1.47-5.15 2.21-2.34 1.01-4.68 2-6.99 3.07-1.52.7-3.08 1.23-4.75 1.4zm16.58-5.09a38.3 38.3 0 01-9.82 3.9l-.9.18-.13-.27c1.55-.72 3.07-1.51 4.66-2.12 4.13-1.6 8.09-3.52 11.98-5.6 2.06-1.1 4.16-2.13 6.3-3.1l-1.17.68c-3.64 2.12-7.24 4.3-10.92 6.33zm44.75-23.9c-3.16.54-6.32 1.04-9.48 1.6-.7.12-1.36.43-2.05.66l2.02-.1c-1.33.5-2.65 1-4 1.47a75.26 75.26 0 00-11.06 4.94c-3.7 2-7.51 3.78-11.28 5.65-3.57 1.78-7.15 3.55-10.72 5.34-3.39 1.7-6.74 3.45-10.14 5.12a31.81 31.81 0 01-6.68 2.52c-.39.1-.78.16-1.38.27 3.47-1.8 6.72-3.52 10-5.18 3.64-1.83 6.9-4.23 10.26-6.49 2.53-1.7 5.14-3.3 7.92-4.62 1.87-.9 3.65-1.97 5.47-2.97-.39.1-.82.15-1.16.33-2.98 1.59-5.94 3.21-8.92 4.8a97.87 97.87 0 00-8.82 5.59c-1.2.82-2.48 1.53-3.76 2.2-2.8 1.49-5.66 2.88-8.46 4.37-2.82 1.5-5.85 2.41-8.86 3.4-.67.22-1.35.4-2.13.39.84-.67 1.65-1.4 2.54-2.01a32.23 32.23 0 005.57-4.97c2.95-3.24 6.14-6.2 9.45-9.05.4-.34.81-.66 1.25-.92a82.5 82.5 0 0115.83-7.66c3.29-1.14 6.65-2.07 10-2.97 4.3-1.14 8.74-1.27 13.14-1.57.18-.02.37.05.55.1-.72.22-1.44.48-2.17.64-5.9 1.27-11.59 3.26-17.25 5.29a42.93 42.93 0 00-8.42 4c-1.8 1.14-3.66 2.18-5.49 3.26a2 2 0 00-.8.74c.35-.17.7-.32 1.03-.52l4.82-2.87a54.93 54.93 0 0110.9-4.9 187 187 0 0112.5-3.82 96.68 96.68 0 0118.31-2.64c.98-.06 1.95-.2 2.92-.32l.7-.04.53.37c-.9.2-1.78.42-2.68.58zm301.9 37.25l.1.16-.06.27-.53-.19.01-.18.48-.06zm-1.53.81c-.87.51-1.79.73-2.8.57.9-.38 1.82-.63 2.8-.57zm-28.5 7.02c-.12.02-.27-.04-.51-.08.23-.13.34-.24.48-.27 1.81-.34 3.58-.95 5.46-.9l-5.43 1.25zm-.92-1.96c2.75-.47 5.5-1.03 8.26-1.47 3.58-.58 7.18-1.08 10.76-1.6.23-.03.47 0 .7.02-.57.16-1.14.36-1.72.46l-21.28 3.8c-.54.09-1.08.14-1.64.13a21.91 21.91 0 014.92-1.34zm-140.43-38.34l-.28.16-.4.58.06.7c0 .09.02.18.05.33l-.31-.18-.27 4.32c-.02.24-.1.48-.21 1-.6-1.34-.93-2.48-1.04-3.64-.23-2.33-.43-4.66-.52-6.99-.15-3.79-.24-7.58-.3-11.38-.04-1.97-.03-3.95.09-5.92.48-8.45 1-16.9 1.52-25.36.42-7 1-14 1.9-20.96.48-3.82.83-7.65 1.26-11.47.05-.5.18-.97.28-1.45.4 1.34.41 2.72.31 4.1-.81 11.28-1.65 22.57-2.47 33.85-.35 4.92-.7 9.84-1 14.76-.15 2.44-.19 4.88-.21 7.31-.05 3.9-.06 7.79-.05 11.68 0 .61.13 1.22.2 1.83.07-.5.2-1 .21-1.5.05-3.95.05-7.9.1-11.84.04-2.28.06-4.57.22-6.85.61-8.54 1.28-17.09 1.93-25.63.03-.4.18-.8.27-1.2-.03-.35-.11-.7-.09-1.05.2-3.1.4-6.18.63-9.27.02-.28.11-.55.18-.83.07.33.16.66.18 1 .17 3.32-.25 6.61-.75 9.9-.02.09-.1.17-.14.26.03.15.11.3.1.45l-.45 9c-.09 1.9-.29 3.83-.22 5.74.1 3.11-.04 6.2-.2 9.31-.1 1.6-.18 3.21-.1 4.81.22 3.94.2 7.87-.13 11.8-.06.75.09 1.52.14 2.29.08-.34.2-.68.23-1.02.13-1.71.24-3.42.33-5.14.06-1.19.14-2.39.08-3.58-.2-3.95-.21-7.9.11-11.84.07-.77.14-1.56.1-2.33-.31-5.26.27-10.5.49-15.73.1-2.23.27-4.46.52-6.68.28-2.43.46-4.86.37-7.3-.05-1.41-.02-2.82 0-4.22.07-5.56.25-11.11.59-16.67.01-.22.1-.45.15-.67.09.59.2 1.17.24 1.76.43 9.07.39 18.16.48 27.24.07 6.7-.08 13.4-.3 20.1-.05 1.5-.02 3 0 4.5a68.4 68.4 0 01-.6 10.26c-.22 1.65-.4 3.3-.5 4.96-.3 4.31-.98 8.57-1.69 12.82-.22 1.31-.72 2.59-1.09 3.88zM336 57.92c-.73 6.35-1.53 12.69-2.23 19.04-.95 8.67-1.37 17.4-1.88 26.1-.27 4.46-.56 8.92-.74 13.38-.11 2.59-.08 5.19-.04 7.78.07 4.05.2 8.1.3 12.15 0 .22-.09.45-.14.68-.19-.62-.4-1.24-.54-1.88a71.37 71.37 0 01-1.51-11.87c-.25-6.22-.64-12.44-.46-18.67.06-2.17.18-4.35.4-6.52.44-4.6.88-9.2 1.47-13.78.4-3.09 1.03-6.14 1.59-9.2.59-3.27 1.27-6.52 1.82-9.8a90.42 90.42 0 012.06-9.55c-.03.71-.02 1.43-.1 2.14zm1.01-3.96c.05-1.09.29-2.17.45-3.25.06.27.16.54.15.8-.1 1.65.11 3.3-.34 4.92-.1-.82-.3-1.65-.26-2.47zm.44-10.06c-.06.47-.15.93-.56 1.25l.56-1.25zm1.64 1.96c.42 1.98.83 3.97 1.14 5.97.44 2.82.77 5.65 1.2 8.47.59 3.76.82 7.54.95 11.33.18 5.6.46 11.21-.06 16.81-.63 6.77-1.09 13.57-2.23 20.28l-.7 4.3c-.13 1.6-.28 3.2-.4 4.79-.04.5 0 1.01 0 1.52.14-.5.35-.97.41-1.47 1.07-8.75 2.43-17.46 3.23-26.25.57-6.27.6-12.54.36-18.81-.1-2.8-.3-5.6-.44-8.4-.02-.38.02-.76.04-1.15.6 1.38.8 2.85.93 4.32.67 7.45 1.1 14.9.59 22.39-.2 2.9-.35 5.8-.53 8.7a37.24 37.24 0 01-1.18 7.22c-.95 3.58-1.28 7.25-1.7 10.92-.02.23.1.49.14.73.14-.48.34-.95.42-1.45.27-1.75.45-3.5.75-5.25.28-1.69.6-3.37 1.01-5.04.57-2.28.98-4.57 1.13-6.91.38-6.33.94-12.65.71-19 0-.23.05-.47.09-.7.09.32.21.65.24.98.71 8.4.73 16.78-.7 25.13-.78 4.5-1.77 8.96-3.03 13.35-.14.48-.4.93-.61 1.4-.21.9-.35 1.82-.65 2.69-.92 2.65-1.9 5.27-2.85 7.91 0-.47-.03-.96.06-1.42.34-1.97.75-3.92 1.1-5.88.09-.54.06-1.1.09-1.65l-.26.14-.06-.65.13-.44c-.03-.2-.1-.4-.08-.6l.9-7.16c.02-2.85.01-5.7.05-8.56.04-2.91.16-5.82.18-8.73.05-5.09.1-10.18.04-15.27-.08-7.43-.23-14.86-.38-22.29-.05-2.08-.2-4.15-.3-6.22-.03-.41-.14-.82-.21-1.22l-.26.14-.06-.67-.05-.69.28-.15-.04-.71-.04-.7c.04-.5.1-.99.1-1.48 0-.7-.04-1.4-.06-2.1.21.5.5 1 .61 1.53zm-13.1 86.38a100.35 100.35 0 01-4.32-16.39 65.38 65.38 0 01-.1-21.09c.32-2.05.72-4.1 1.12-6.13.1-.53.32-1.04.5-1.56.02.18.07.37.06.55l-.86 14.77c-.14 2.34-.03 4.66.25 7 .32 2.62.66 5.26.7 7.9.1 4.78 1.15 9.35 2.66 13.85.33.97.63 1.96.73 3.03l-.74-1.93zm4.8 10.42c-.84-3.1-1.64-6.22-2.47-9.33-.16-.6-.4-1.17-.6-1.75.05.5.01 1.02.13 1.5.55 2.22 1.13 4.43 1.7 6.64.1.43.19.87.04 1.37-.35-1.02-.73-2.03-1.04-3.07-1.22-3.97-2.42-7.94-3.61-11.92a26.7 26.7 0 01-.94-5.67c-.32-4.15-.72-8.28-1-12.43a50.27 50.27 0 01-.09-5.45c.15-3.84.34-7.68.6-11.52.36-5.04 1.14-10 2.86-14.8 1.96-5.43 3.75-10.92 5.62-16.37.15-.45.4-.86.62-1.29-.1.53-.16 1.06-.3 1.57l-4.4 16.7c-.15.57-.13 1.2-.2 1.8.18-.42.4-.83.52-1.26 1.85-6.88 3.64-13.77 5.55-20.63.83-3 1.88-5.94 2.85-8.9.1-.33.3-.63.47-.95 0 .4.06.81-.01 1.2-.42 2.14-.77 4.3-1.33 6.4a116.76 116.76 0 00-2.59 12.5c-.42 2.83-1.03 5.63-1.64 8.42a98.98 98.98 0 00-1.82 12.16c-.26 2.85-.55 5.7-.86 8.53-.5 4.45-.7 8.9-.6 13.38.09 3.74.26 7.47.37 11.21a86.76 86.76 0 003 20.13c.4 1.55.66 3.14 1.01 4.86-1-.95-1.5-1.75-1.85-3.03zm-161.44 43.12c.82-.87 1.68-1.7 2.51-2.55 1.78-1.82 3.57-3.63 5.31-5.48a70.86 70.86 0 017.33-7c1.01-.8 2.06-1.57 3.15-2.28a53.72 53.72 0 015.13-2.98l-3.15 3.23a139.82 139.82 0 01-13.04 11.8c-.93.76-1.97 1.37-2.9 2.12-1.75 1.4-3.47 2.86-5.2 4.3.28-.4.53-.81.86-1.16zm-2.95 3.17c-.24.82-.8 1.38-1.45 1.84l1.45-1.84zm8.9-1.98c-.47.23-.94.45-1.48.56.48-.28.98-.53 1.44-.84 1.67-1.14 3.3-2.34 5-3.44 3.12-2.01 5.69-4.68 8.49-7.07 2.96-2.53 5.84-5.16 8.85-7.63 4.1-3.36 8.21-6.7 12.98-9.11a64.44 64.44 0 0110.02-4.27c2.09-.65 4.16-1.33 6.24-1.98.43-.13.88-.18 1.32-.28l.04.14-1.85.74c-3.9 1.63-7.46 3.9-11.1 6.02-2.41 1.41-4.76 2.96-7.15 4.43-2.01 1.23-3.66 2.9-5.49 4.35-3 2.4-6.07 4.73-9.05 7.15-3.4 2.76-7 5.22-10.75 7.45-2.4 1.43-5 2.53-7.52 3.78zm-12.05 7.64c.55-.24 1.1-.5 1.67-.72l4.06-1.58c.29-.12.55-.3.81-.46.88-.55 1.72-1.16 2.62-1.65 1.96-1.07 3.95-2.1 5.93-3.12 2.86-1.47 5.75-2.89 8.59-4.4 2.24-1.2 4.42-2.53 6.66-3.74 2.83-1.54 5.59-3.2 8.2-5.09.8-.57 1.52-1.25 2.25-1.91 2.1-1.87 4.16-3.77 6.27-5.61.62-.55 1.33-1 2.04-1.42 3.95-2.42 8.1-4.44 12.22-6.55a66.45 66.45 0 018.44-3.6c1.42-.49 2.91-1.08 4.4-1.36.45-.09.9-.03 1.35-.06.7-.05 1.4-.28 2.09-.4 3-.5 5.99-1.01 8.98-1.53a.6.6 0 00.18-.07l.73-.04a.74.74 0 01-.1.16c-5.74 1.04-11.5 2.15-17 4.14-6.2 2.25-11.5 5.89-16.75 9.8a197.18 197.18 0 01-16.77 11.25 435.95 435.95 0 01-17.81 10.21c-6 3.21-12.21 5.92-18.73 7.83-.1-.02-.22-.04-.33-.08zm15.8-8.53c-2.48 1.81-5.32 2.94-8.07 4.26 2.47-1.84 5.4-2.8 8.07-4.26zm32.71-10.7a111.1 111.1 0 01-11.03 7.61c-4.27 2.53-8.85 4.37-13.51 6a121.7 121.7 0 01-15.9 4.44c-.38.07-.75.1-1.13.14l2.4-.78c4.27-1.3 8.6-2.42 12.8-3.93 4.98-1.78 10-3.55 14.57-6.3a89.53 89.53 0 0011.45-8.07c3.1-2.6 6.34-5.05 9.42-7.68 2.65-2.27 5.53-4.22 8.38-6.22a37.47 37.47 0 019.45-4.73c.34-.11.69-.19 1.09-.18-.59.34-1.15.73-1.75 1-2.73 1.21-5.15 2.94-7.59 4.62-6.41 4.43-12.47 9.34-18.65 14.09zm29.22-20.87c-3.74 1.14-7.43 2.43-10.68 4.64-3.22 2.19-6.46 4.34-9.44 6.87-2.93 2.49-5.97 4.85-8.95 7.27-1.05.85-2.03 1.79-3.12 2.58a238.98 238.98 0 01-7.93 5.52 39.97 39.97 0 01-7.23 3.62c-3.13 1.25-6.22 2.65-9.43 3.69-4.87 1.59-9.79 3-14.7 4.46a87.07 87.07 0 0010.43-4.47c5.9-3 11.61-6.38 17.32-9.72 5.83-3.4 11.59-6.94 17.05-10.91 5.38-3.91 10.6-8.1 16.74-10.77 5.04-2.2 10.4-3.48 15.78-4.53l-5.84 1.75zm11.6-3.58l-.4.07c-1.48-.07-2.96 0-4.42.19-.08 0-.17 0-.25.02-6.86.88-13.67 1.98-19.97 5.08a358.75 358.75 0 00-9.46 4.77 111.66 111.66 0 00-6.6 3.8c-1.15.7-2.2 1.58-3.2 2.47-1.87 1.65-3.56 3.5-5.51 5.04a83.37 83.37 0 01-7.17 4.96c-2.6 1.63-5.27 3.12-7.96 4.6a102.11 102.11 0 01-6 2.97c.33-.22.65-.46.99-.67 4.38-2.79 8.7-5.66 12.69-9.01 2.77-2.34 5.74-4.47 8.49-6.84a54.18 54.18 0 018.21-5.88c3.55-2.06 7.02-4.26 10.55-6.34a35.86 35.86 0 0112.87-4.47c.65-.1 1.3-.19 1.97-.27.06.04.14.03.2-.03 1.07-.14 2.15-.28 3.23-.44.56-.08 1.12-.2 1.68-.31-.69-.4-1.43-.22-2.13-.13-3.35.42-6.7.86-10.04 1.35-3.1.46-6.03 1.5-9 2.46a66.85 66.85 0 00-15.43 7.34c-1.97 1.25-3.78 2.75-5.65 4.14-3.7 2.77-7.09 5.92-10.54 8.99-1.82 1.62-3.62 3.28-5.5 4.83a124.9 124.9 0 01-5.42 4.17c-4.86 3.6-10.3 6.23-15.45 9.36a.66.66 0 01-.5.08l1.06-.78a17.57 17.57 0 003.06-2.87 41.13 41.13 0 017.87-7.04c1.86-1.32 3.6-2.8 5.39-4.23 4.2-3.34 7.95-7.14 11.68-10.98 1.37-1.41 2.89-2.68 4.38-3.97a7.97 7.97 0 011.84-1.15c3.87-1.8 7.8-3.4 11.59-5.38 3-1.57 6.3-2.42 9.54-3.35a92.37 92.37 0 0117.45-3.18c2.32-.2 4.66-.29 7-.4.55-.02 1.11.1 1.68.14l.65-.05-.5.3c.5.06 1 .17 1.49.17 1.85-.02 3.7-.1 5.55-.1.57 0 1.13.15 1.7.24l-1.7.33zm-26.36 43.7c4.52-4.58 9.04-9.17 13.6-13.72a41.03 41.03 0 0110.37-7.63c3.8-1.94 7.72-3.59 11.94-4.4 4.34-.83 8.67-1.68 13-2.55 2.98-.6 5.99-.52 9-.48.15 0 .3 0 .45.27l-.55.11c-4.04.72-8.08 1.42-12.12 2.16a91.11 91.11 0 00-17 5.02 36.3 36.3 0 00-8.8 5.22c-.58.45-1.16.9-1.76 1.3-2.69 1.73-4.73 4.2-7.13 6.26-2.44 2.1-4.78 4.3-7.27 6.34-1.58 1.3-3.32 2.38-5 3.55.42-.48.82-1 1.27-1.45zm-2.54 3.36c.55-.45 1.09-.93 1.66-1.34 1.18-.86 2.42-1.63 3.57-2.53 1.27-.98 2.47-2.05 3.7-3.1 1.7-1.44 3.4-2.89 5.08-4.35.7-.61 1.43-1.22 2.06-1.9 2.07-2.3 4.59-4.06 7-5.94 4.34-3.37 9.26-5.5 14.48-7.1a97.35 97.35 0 0114.23-3.39c3.9-.58 7.78-1.38 11.67-2.02 1.95-.31 3.88-.06 5.77.52-.95.12-1.9.26-2.84.37-2.32.26-4.65.5-6.97.78-1.08.13-2.15.37-3.24.48-5.42.57-10.56 2.2-15.63 4.13-3.79 1.45-7.55 2.97-11.03 5.07-2.4 1.44-4.67 3.1-6.97 4.71-2.43 1.7-4.82 3.44-7.22 5.17-3.97 2.85-7.9 5.73-11.9 8.55a23.1 23.1 0 01-3.42 1.89zm2.2 1.25c.5-.29.98-.58 1.48-.85.55-.3 1.1-.6 1.66-.86a62.37 62.37 0 0014.45-9.4 54.07 54.07 0 0111.66-7.99c2.33-1.14 4.6-2.42 6.9-3.61 3.01-1.56 6.24-2.56 9.46-3.58 3.66-1.16 7.33-2.28 11-3.44.44-.14.84-.38 1.27-.57-.5.06-1.02.06-1.5.19-5.52 1.47-10.93 3.32-16.34 5.15-1.22.42-2.4.98-3.56 1.57-2.4 1.22-4.78 2.51-7.17 3.76-1.02.52-2.08.96-3.07 1.51a43.96 43.96 0 00-6.49 4.58c-2.33 1.9-4.68 3.79-7.07 5.6-1.16.88-2.43 1.6-3.68 2.34a96.76 96.76 0 01-12.19 6.26c-.55.23-1.15.33-1.86.22.37-.22.73-.47 1.12-.64a35.34 35.34 0 006.84-4c2.21-1.63 4.55-3.1 6.79-4.7 4.14-2.95 8.28-5.91 12.38-8.93a60.48 60.48 0 0112.44-7.04 87.67 87.67 0 0111.7-4.22c2.21-.58 4.46-1.02 6.7-1.42 2-.35 4-.57 6-.84h.3l-.14.25c.55-.06 1.12-.08 1.66-.2 2.19-.51 4.4-.78 6.64-.83.5-.02 1.01.03 1.56.26l-1.59.45c-3.64 1.03-7.3 2.02-10.93 3.11-4.19 1.25-8.18 3.01-12.23 4.63a134.58 134.58 0 00-20.21 10.38c-4.61 2.82-9.26 5.58-13.88 8.38-3.17 1.92-6.61 3.23-10.1 4.48zm13.96-3.5a33 33 0 01-11.12 3.25c1.35-.64 2.68-1.3 4.05-1.9 2.49-1.06 4.75-2.53 7.08-3.89 7.04-4.09 13.82-8.62 21.05-12.4 3.04-1.58 6.14-3.01 9.31-4.3a464.2 464.2 0 019.55-3.75c1.15-.44 2.36-.72 3.55-1.06-2.13.93-4.24 1.91-6.4 2.78-2.41.96-4.88 1.78-7.29 2.73a40 40 0 00-3.96 1.83 94.36 94.36 0 00-8.77 5.04 171.73 171.73 0 00-6.34 4.52c-2.21 1.63-4.33 3.4-6.6 4.96-1.26.88-2.72 1.5-4.1 2.19zm56.26-26.62a64.86 64.86 0 00-17.7 5.8 165.08 165.08 0 00-15.28 8.43c-2.97 1.9-5.88 3.92-8.78 5.92a56.2 56.2 0 01-12.55 6.27c3.55-2.04 6.62-4.79 9.92-7.22 4.39-3.25 8.95-6.22 13.81-8.73a74.25 74.25 0 018.75-3.66c2.44-.89 4.82-1.93 7.25-2.84 3.3-1.25 6.62-2.44 9.93-3.67 2.1-.77 4.24-1.37 6.45-1.75a7.93 7.93 0 013.71.15c-2 .48-3.74.98-5.51 1.3zm27.84 3.13c-2.83-.54-5.63-1.23-8.44-1.9-.48-.1-.93-.4-1.39-.6l-.15-.04.15.03c1.08.1 2.18.08 3.23.31 3.7.8 7.37 1.69 11.06 2.54.12.03.24.1.36.15-1.61-.15-3.24-.2-4.82-.5zm-.98 25c-4.23 2.7-7.9 6.06-11.73 9.26-2 1.66-3.9 3.43-5.67 5.34a47.25 47.25 0 00-4.72 5.79c-2.18 3.27-4.96 6-7.9 8.57a206.3 206.3 0 01-5.24 4.42c-.62.5-1.34.9-2.02 1.33.46-.6.92-1.19 1.39-1.77 1.36-1.7 2.79-3.35 4.1-5.1 2.8-3.75 5.41-7.63 8.32-11.3a63.19 63.19 0 0111.74-11.56 126.95 126.95 0 0118.41-11.4c4.59-2.31 9.23-4.56 14.15-6.11 3.01-.95 6.1-1.64 9.24-2.2-.94.37-1.87.78-2.83 1.1-4.26 1.4-8.36 3.14-12.4 5.06-5.18 2.46-10.02 5.49-14.84 8.57zm-6.68-4.19c2.82-2.28 6.1-3.7 9.36-5.2 3.9-1.78 7.99-2.9 12.12-3.92.29-.07.58-.1.92-.03a494.42 494.42 0 00-26.73 12.87c1.3-1.4 2.85-2.52 4.33-3.72zm-28.41 32.31l4.81-6.06a.67.67 0 01.56-.29c-.5.77-.97 1.56-1.51 2.3-1.33 1.77-2.64 3.56-4.36 4.99.16-.32.28-.66.5-.94zm-.5.94l-.97 1.26c.1-.58.48-.97.97-1.26zm-6.08 7.6l9.3-10.26c.39-.43.76-.87 1.08-1.34 2-2.9 3.97-5.84 5.97-8.74 1.15-1.67 2.27-3.36 3.53-4.94 2.06-2.6 4.23-5.13 6.35-7.68a12.42 12.42 0 013.5-2.82l4.74-2.7a47.23 47.23 0 016.88-3.28c1.17-.44 2.3-.99 3.37-1.63 2.6-1.56 5.46-2.53 8.2-3.76 1.66-.74 3.31-1.5 4.96-2.27a17.94 17.94 0 015.78-1.77c1.55-.16 3.09-.39 4.64-.56.28-.03.57.03.86.05-.76.26-1.5.59-2.29.75-4.3.93-8.34 2.5-12.3 4.38-3 1.43-6.03 2.79-8.97 4.34-2.7 1.43-5.32 3.03-7.93 4.64-1.99 1.22-3.9 2.58-5.85 3.86a51.22 51.22 0 00-7.5 6.06 74.19 74.19 0 00-10.08 11.83c-1.6 2.37-3.33 4.64-4.95 7-2.04 2.97-4.55 5.52-7.1 8.04-.95.93-2.1 1.67-3.4 2.7.26-1 .78-1.42 1.2-1.9zm1.6 1.09c-.19.1-.38.17-.64.15.86-.63 1.7-1.3 2.59-1.88a78.7 78.7 0 0012.39-10.4 31.55 31.55 0 003.49-4.19 59.66 59.66 0 0110.22-11.28c2.56-2.2 5.14-4.37 7.75-6.52a30.57 30.57 0 013.27-2.38c4.01-2.5 7.98-5.08 12.12-7.36a92.11 92.11 0 0115.56-6.75c1.93-.63 3.81-1.38 5.73-2.03a7.97 7.97 0 013.62-.57c-2.83 1.01-5.69 1.96-8.49 3.06-1.78.7-3.52 1.55-5.19 2.49-3.8 2.14-7.6 4.3-11.3 6.6a62 62 0 00-6.45 4.63c-4.55 3.71-8.98 7.56-13.5 11.3-4.1 3.37-7.92 7.03-11.7 10.75-2.55 2.52-5.34 4.76-8.1 7.06-3.49 2.91-7.44 5.1-11.38 7.32zm3.74-1.07c-.36.2-.73.36-1.1.54l-.08-.23c.95-.62 1.86-1.3 2.85-1.87 2.59-1.47 4.87-3.35 7.21-5.16 4.36-3.38 8.28-7.24 12.3-11 4.1-3.84 8.37-7.47 12.6-11.15 2.5-2.18 5.04-4.33 7.63-6.4a59.55 59.55 0 017.38-5.2c3.47-2 6.92-4.01 10.4-6 2.53-1.46 5.27-2.44 8-3.42 2.25-.8 4.54-1.51 6.81-2.23a7.92 7.92 0 013.73-.26c-1.13.44-2.22 1-3.38 1.3-2.3.55-4.42 1.53-6.54 2.5-4.7 2.1-9.25 4.49-13.7 7.07-1.84 1.07-3.72 2.07-5.52 3.2a64.2 64.2 0 00-11.42 9.11 257.55 257.55 0 01-19.78 18.29c-1.88 1.54-3.95 2.85-5.95 4.25-1.07.74-2.16 1.44-3.25 2.16-.25.17-.52.33-.8.48l-7.39 4.02zm3.11-.8c-.19.06-.39.1-.59.14l-.13-.18c1.12-.64 2.19-1.37 3.35-1.9a26.74 26.74 0 004.43-2.59c1.39-1 2.8-1.98 4.26-2.86 2.91-1.77 5.33-4.13 7.9-6.3 4.85-4.1 9.23-8.67 13.86-13 1.33-1.23 2.5-2.65 3.87-3.83 1.77-1.52 3.65-2.91 5.51-4.32 4.26-3.19 8.98-5.61 13.61-8.18 1.9-1.05 3.88-1.95 5.87-2.85-1.4.8-2.79 1.6-4.17 2.41a77.26 77.26 0 00-15.24 11.53c-1.96 1.92-4.18 3.58-6.23 5.4-2.86 2.57-5.68 5.18-8.53 7.76-2.7 2.43-5.34 4.93-8.14 7.24-2.92 2.41-5.89 4.78-9.2 6.67a61.08 61.08 0 01-10.43 4.86zm13.47-4.65c-1.44.58-2.9 1.08-4.47 1.44.17-.12.33-.25.51-.35a84.3 84.3 0 0014.7-11c2.83-2.6 5.73-5.13 8.49-7.8 2.95-2.86 6.1-5.49 9.2-8.18 1.6-1.4 3.15-2.86 4.72-4.3a55.69 55.69 0 017.87-5.86c2.72-1.72 5.5-3.35 8.35-4.86 2.57-1.36 5.25-2.5 7.88-3.74l.04.18c-.59.34-1.18.66-1.75 1.02-2.48 1.52-4.96 3.04-7.42 4.6-.74.47-1.41 1.05-2.13 1.58-3.85 2.82-7.71 5.63-11.56 8.46a90.46 90.46 0 00-15.93 15.06c-1.6 1.94-3.56 3.49-5.45 5.1-1.82 1.55-3.7 3.02-5.57 4.52a28.84 28.84 0 01-7.48 4.13zm61.83-45.7l-7.07 3.56c2.31-1.27 4.35-3.08 7.07-3.55zm-31.55 24.04c.55-1.04 1.46-1.72 2.35-2.42a8.31 8.31 0 01-2.35 2.42zm6.74-6.96c-.57.5-1.12 1.02-1.67 1.53h-.03c-.3.2-.64.36-.9.6-2 1.97-3.99 3.93-5.97 5.92-1.13 1.13-2.2 2.33-3.36 3.45-2.54 2.45-5.06 4.92-7.68 7.29a33.67 33.67 0 01-9.27 6.19c.46-.46.71-.76 1-1 2.48-2.06 4.99-4.08 7.42-6.18.94-.8 1.75-1.77 2.57-2.7 3.24-3.73 6.57-7.37 10.32-10.58 2.64-2.26 5.46-4.3 8.22-6.41 1.9-1.45 3.82-2.86 5.75-4.28.54-.4 1.11-.74 1.71-1.06l-8.11 7.23zm86.17-18c1.86-.13 3.72-.31 5.58-.38.93-.03 1.86.13 2.79.21a45.8 45.8 0 01-8.39.29 7.99 7.99 0 01-3.51-.13l3.53.02zm-54.1-15.53a6.54 6.54 0 01-3.1-1.05c1.1.13 2.19.34 3.1 1.05zm-3.55-1.17c-.55.03-1.04-.1-1.36-.59l1.36.59zm-16.24-7.41c.24.12.45.31.66.49l-7-2.58c-.12-.05-.21-.16-.3-.26 2.33.43 4.54 1.25 6.64 2.35zm-29.72-13.33l5.65 3.33c.4-.02.72.14.95.47l-.96-.44c-2.14-.83-4.25-1.71-5.9-3.38.09 0 .2-.02.26.02zm-5.35.65c-.44 0-.88.04-1.3-.03-2-.3-4-.64-6-.93-.5-.08-1.01-.03-1.52-.03l1.4.61c-.24.05-.47.11-.7.12-4 .22-7.99.41-11.98.65-4.62.28-9.23.34-13.84-.06a60.36 60.36 0 01-8.76-1.4c-.58-.13-1.15-.35-1.72-.53.29-.03.57-.09.85-.07 1.81.12 3.63.22 5.44.4 3.73.37 7.46.36 11.2 0 3.42-.31 6.85-.15 10.27-.06.61.02 1.22-.08 1.84-.12-.5-.1-1-.26-1.49-.28-4.25-.2-8.5-.1-12.76.08-7.4.3-14.74-.26-21.91-2.3-.4-.1-.78-.23-1.15-.57l.97.15c1.53.27 3.07.51 4.6.8 4.17.81 8.37.83 12.56.32 4.86-.58 9.74-.72 14.62-.76 1.76-.02 3.52.2 5.28.36 1.96.2 3.92.47 5.88.68 1.51.15 2.96.52 4.33 1.19 1.28.62 2.6 1.19 3.89 1.78zm-58.36-9.67c.43-.08.7-.16.96-.17 4.72-.11 9.44-.26 14.16-.28 1.7-.01 3.43.2 5.11.48 4.97.81 9.93 1.7 14.88 2.56.43.07.86.2 1.28.3-.53.04-1.06.13-1.6.1-4.3-.25-8.6-.5-12.9-.81-3.3-.23-6.62-.55-9.93-.82-1.8-.15-3.62-.31-5.43-.44-.35-.02-.71.06-1.07.1.45.1.88.26 1.33.31 2.68.32 5.36.63 8.04.9 1.7.18 3.4.3 5.11.42l10.24.67c.28.02.55.12.82.2-.48.07-.96.2-1.44.2-2.02.06-4.04.08-6.05.1-1.76.02-3.52 0-5.28.06-2.55.1-5.06-.2-7.55-.72a71.49 71.49 0 00-4.9-.84c-2.15-.3-4.3-.62-6.37-1.31-.38-.13-.72-.35-1.08-.53l.96-.19c.49.3 1.01.38 1.56.18l-.85-.47zm-.58 1.59c2.12.73 4.33 1.04 6.54 1.34 1.53.2 3.07.47 4.58.8 2.65.58 5.31.86 8.03.7 1.7-.09 3.41-.06 5.12-.09 2.49-.04 4.97-.06 7.45-.15 2.4-.08 4.77.12 7.12.52.28.04.54.17.8.27-.54.06-1.08.15-1.63.17-4.62.14-9.24.3-13.84.83-3.62.43-7.26.34-10.87-.33-2.96-.54-5.92-1.09-8.87-1.71a14.6 14.6 0 01-5.28-2.47c.29.03.59.03.85.12zm35.77 2.1c.13-.05.26-.13.38-.12 3 .13 5.98.29 8.88 1.14.13.04.25.13.37.2-.19.04-.38.12-.55.1-3.03-.43-6.06-.88-9.08-1.32zm.73-81.93a54.67 54.67 0 013.28 6.36c1.52 3.46 2.91 6.99 4.33 10.5 1.22 3.04 2.33 6.12 3.61 9.13 1.17 2.72 2.4 5.4 3.3 8.23 1.17 3.66 2.27 7.34 3.4 11 .16.5.35.97.53 1.45-.04-.5-.02-1.02-.14-1.5-1.5-5.74-3.13-11.43-5.49-16.88a333.24 333.24 0 01-5.54-13.88c-1.03-2.72-2.23-5.37-3.37-8.1.1.05.13.06.15.09 2.9 4.63 5.55 9.4 7.89 14.34a114.97 114.97 0 016.56 18.14 86 86 0 013.18 16.66c.19 2.49.21 4.98.3 7.48 0 .23-.08.46-.13.69l-1.17-4.77c-.14-.6-.31-1.2-.47-1.79-.02.3-.1.6-.04.9.41 2.05.84 4.1 1.28 6.16.05.24.22.46.33.7.01.4-.03.8.04 1.19.66 3.56.74 7.16.82 10.76-.14-.55-.3-1.11-.4-1.67-.64-3.47-1.03-7-2.15-10.36-1.7-5.08-2.77-10.33-4.27-15.46-2.63-8.96-5.26-17.93-8.45-26.72-1.49-4.1-2.96-8.2-4.55-12.26-1.12-2.84-2.45-5.61-3.67-8.42-1.1-2.52-2.2-5.03-3.17-7.62 1.35 1.88 2.81 3.68 4 5.65zm-2.56-.44c1.22 2.97 2.63 5.88 3.85 8.86a245 245 0 014.26 11.04 757.12 757.12 0 016 17.87c1.4 4.3 2.66 8.63 3.91 12.97.65 2.25 1.1 4.54 1.71 6.8a90.45 90.45 0 001.71 5.83 60.7 60.7 0 012.13 8.93c.03.2 0 .4-.17.65-.36-.88-.77-1.75-1.06-2.66-1.75-5.33-3.51-10.65-5.2-16-1.26-4.01-2.69-7.96-4.23-11.88-1.59-4.06-3.13-8.14-4.7-12.2-1-2.57-2.05-5.12-3-7.7-1.3-3.5-2.56-7.02-3.75-10.56-1.43-4.23-2.9-8.46-4.1-12.75-.98-3.51-2.38-6.86-3.5-10.32-.18-.53-.33-1.06-.55-1.82a69.35 69.35 0 016.7 12.94zm22.84 73.3l-3.86-8.4c-.97-2.12-1.84-4.3-2.88-6.38a135.44 135.44 0 01-6.7-15.75c-1.25-3.58-2.7-7.09-3.9-10.67-1.46-4.28-2.72-8.61-4.12-12.9-2.7-8.26-4.6-16.71-6.6-25.14-.07-.25-.09-.5.05-.84.17.37.38.73.5 1.12.9 2.93 1.7 5.89 2.67 8.8 2.12 6.34 4.22 12.7 6.51 18.99 2.51 6.87 5.13 13.7 7.9 20.48 2.57 6.3 4.44 12.84 6.56 19.3 1.17 3.55 2.47 7.05 3.7 10.58.09.25.12.53.17.8zM284.1 82.7c1.15 5.26 2.6 10.42 4.32 15.53a49.89 49.89 0 01-4.32-15.53zm20.93 43.27c-.19-.18-.42-.33-.55-.54-2.25-3.36-4.49-6.74-6.7-10.12-.97-1.48-1.9-2.98-2.84-4.47a61.84 61.84 0 01-6.23-13.71 128.54 128.54 0 01-4.94-20.4c-.18-1.13-.3-2.26-.37-3.4-.23-4.4-.45-8.82-.65-13.23-.14-3.06.2-6.1.45-9.26l.48.28.25-.83c.27.51.36 1.04.2 1.61l.05.7c.14.6.33 1.2.41 1.8.94 6.74 1.8 13.49 2.8 20.21.64 4.37 1.29 8.74 2.66 12.95 1.22 3.75 2.6 7.45 3.83 11.2 1.24 3.76 2.95 7.31 4.52 10.93 1.04 2.38 2.01 4.78 3.03 7.17 1.66 3.92 3.36 7.82 5.6 11.46.14.21.27.44.22.79l-2.22-3.14zm9.4 11.14a27.6 27.6 0 01-5.5-6.93c-.56-1.06-1.21-2.06-1.82-3.09a97.84 97.84 0 01-6-12.5c-1.14-2.73-2.24-5.48-3.47-8.17a83.83 83.83 0 01-3.28-8.24c-1.1-3.3-2.37-6.55-3.39-9.88a88.36 88.36 0 01-2.03-8.15 266.11 266.11 0 01-3.2-20.95c-.5-3.97-.93-7.95-1.36-11.93-.05-.5.06-1.04.1-1.56.58 2.7 1.21 5.4 1.72 8.11 1.12 5.92 2.17 11.85 3.25 17.77.67 3.64 1.85 7.13 2.9 10.66a306.8 306.8 0 006.86 19.86c1.26 3.35 2.63 6.66 3.97 9.98.2.5.5.95.75 1.42-.24-.8-.43-1.63-.74-2.4a328.46 328.46 0 01-8.84-24.23c-1.14-3.56-2.17-7.15-3.23-10.72-.99-3.35-1.34-6.82-1.99-10.23-1.07-5.65-2.2-11.3-3.28-16.95-.3-1.52-.55-3.06-.8-4.6-.05-.26 0-.54.01-.81.45 1.94.9 3.87 1.33 5.82 1.69 7.54 3.23 15.12 5.52 22.51a786.91 786.91 0 006.7 20.9c1.71 5 3.7 9.9 5.6 14.85.44 1.16 1.04 2.26 1.56 3.4l5.44 11.88c1.5 3.3 2.98 6.6 4.45 9.9.36 1.1.74 2.17 1.14 3.25a.36.36 0 00-.12.36c.3 1.16.72 2.29 1.22 3.38l-.27.22a11.98 11.98 0 01-2.95-4.34 37.44 37.44 0 00-3.44-6.1l4.2 8.12-.14.13c-.3-.24-.6-.47-.87-.74zm-.38 2.08c1.5.97 2.9 2.07 4.35 3.12-.23-.05-.47-.07-.66-.2-2.06-1.3-4.1-2.61-6.15-3.94-.2-.12-.34-.33-.51-.5 1 .5 2.04.91 2.97 1.52zm-30-21.37l-1.18-.93c.53.13.89.5 1.19.92zm-6.1-4.75c1.6 1.23 3.18 2.49 4.77 3.74-.2-.08-.43-.14-.6-.26a62.37 62.37 0 01-5-3.92c.27.14.58.25.82.44zm-12.01-10.15l-.19.15c-.11-.12-.27-.21-.33-.35-.05-.1.03-.27.1-.62.2.4.3.61.42.82zm-4.02-14.2c-.18-.31-.38-.61-.53-.93-1.05-2.2-2.1-4.4-3.13-6.6-1.99-4.31-4.66-8.23-6.8-12.45-2.02-3.99-4.2-7.88-6.53-11.7-1.19-1.95-2.5-3.83-3.62-5.81-2.27-4.02-4.46-8.1-6.68-12.15l.18-.12c1.03 1.56 2.05 3.12 3.09 4.67 1.33 1.98 2.68 3.95 4.03 5.92 1.72 2.49 3.12 5.15 4.55 7.8 2.12 3.94 4.28 7.85 6.54 11.7a65.93 65.93 0 014.47 8.9c.9 2.21 1.94 4.36 2.93 6.54.62 1.36 1.25 2.72 1.5 4.23zm-29.75-56.14c2.79 3.16 5.27 6.56 7.69 10 3.67 5.24 7.3 10.5 10.26 16.18 2.25 4.28 4.44 8.59 6.44 12.98 1.23 2.68 2.07 5.54 3.06 8.33.18.5.21 1.06.3 1.6-.7-1.48-1.46-2.92-2.07-4.44a61.6 61.6 0 00-4.45-8.73c-2.21-3.7-4.3-7.48-6.41-11.24-1.15-2.03-2.17-4.14-3.34-6.16-.7-1.21-1.58-2.32-2.35-3.48-.9-1.34-1.74-2.72-2.64-4.05-1.8-2.61-3.6-5.21-5.42-7.8-1.76-2.51-3.53-5-5.1-7.67 1.34 1.5 2.7 2.97 4.03 4.48zm-8.44-8.3c1.76 2.19 3.46 4.42 5.18 6.64.28.37.56.75.79 1.15 3.07 5.3 6.11 10.63 9.22 15.92 2.27 3.85 4.63 7.64 6.92 11.48 1.1 1.83 2.12 3.7 3.15 5.56.96 1.72 1.88 3.47 2.83 5.2 2.3 4.2 4.67 8.34 6.88 12.58 1.25 2.39 2.26 4.9 3.34 7.37.53 1.19 1.07 2.37 1.45 3.6.52 1.69.9 3.41 1.32 5.11-1.93-3.33-3.95-6.61-5.27-10.24-.6-1.65-1.45-3.22-2.26-4.79-1.38-2.62-2.8-5.21-4.23-7.8-1.05-1.92-2.1-3.84-3.21-5.71-1.97-3.3-4.03-6.55-5.99-9.86-2.5-4.26-5-8.51-7.4-12.83-2.3-4.13-4.5-8.32-6.68-12.51-1.78-3.43-4.09-6.51-6.17-9.74a74.16 74.16 0 01-2.5-4.13c1.05.85 1.8 1.97 2.63 3zm-2.84 2.43l1.78 3.9c.74 1.6 1.44 3.22 2.24 4.8 1.4 2.77 2.9 5.5 4.31 8.29 5 9.88 10.83 19.3 16.4 28.86A213.4 213.4 0 00254 85.71c2.44 3.56 4.94 7.06 7.24 10.71.55.87 1.2 1.68 2.01 2.8-1.1-.52-1.59-1.2-2.1-1.8-1.6-1.9-3.13-3.87-4.72-5.8-1.76-2.11-3.58-4.17-5.3-6.31a119.6 119.6 0 01-4.13-5.47c-2.02-2.83-3.99-5.7-5.97-8.55-.38-.56-.72-1.14-1.08-1.71-1.22-1.93-2.55-3.8-3.66-5.8-1.88-3.4-3.62-6.89-5.41-10.35-.9-1.75-1.77-3.53-2.66-5.29a88.34 88.34 0 01-4.7-11.7c-.95-2.84-1.78-5.74-2.65-8.62-.1-.34-.13-.69-.2-1.03l.21-.07zm.32-1.2c.65 1.12 1.29 2.25 1.95 3.36l11.7 19.7c.5.84 1.03 1.68 1.53 2.53l16.12 27.05c2.92 4.91 5.68 9.91 8.22 15.04.48.96.87 1.98 1.3 2.97l-.07.04c-.9-1.34-1.78-2.68-2.69-4-2.07-3.05-4.16-6.1-6.24-9.13-.23-.35-.49-.68-.7-1.03a378.7 378.7 0 01-13.06-21.79c-1.04-1.91-2.24-3.74-3.3-5.65a861.34 861.34 0 01-6.07-11.06 224.45 224.45 0 01-4.03-7.75c-1.42-2.88-2.73-5.82-4.08-8.74-.23-.5-.44-1-.58-1.54zm-1.6-5.35c1.89 2.86 3.8 5.7 5.64 8.6 1.5 2.37 2.93 4.78 4.3 7.23 2.16 3.9 4.22 7.87 6.37 11.79 1.67 3.05 3.33 6.11 5.1 9.1 2.82 4.74 5.76 9.4 8.57 14.13 1.35 2.27 2.53 4.65 3.8 6.98-.05.03-.1.06-.13.1l-.42-.66-13.74-23.01c-3.74-6.24-7.44-12.5-11.24-18.7-1.69-2.75-3.36-5.5-4.82-8.37-1.07-2.08-2.28-4.09-3.4-6.14a4.66 4.66 0 01-.61-1.93l.58.88zm-2.52-1.44c-.02-.13.03-.28.05-.42a23.1 23.1 0 012.53 6.63c1 5.17 2.75 10.1 4.55 15.04a119.2 119.2 0 008.2 17.3c.71 1.26 1.3 2.59 1.99 3.87A111 111 0 00242 73.3c1.77 2.5 3.39 5.11 5.2 7.58 1.78 2.42 3.7 4.75 5.59 7.09 1.86 2.3 3.8 4.53 5.64 6.85 1.42 1.79 2.91 3.5 4.62 5.03.31.28.64.55.88.88.18.27.24.63.14 1.09-.53-.47-1.07-.93-1.59-1.41-3.44-3.18-6.5-6.71-9.5-10.3-2.5-2.97-4.95-6-7.33-9.08-1.65-2.14-3.08-4.44-4.69-6.6-3.43-4.6-6.27-9.56-9.05-14.55-1.18-2.12-2.06-4.42-3.08-6.63l-2.2-4.82c-3.33-7.23-6.26-14.6-8.18-22.34-.6-2.41-.92-4.9-1.37-7.35zm24.46 61.39a109.76 109.76 0 01-10.42-15.69c-5.26-9.58-8.81-19.8-11.3-30.41-.1-.42-.1-.85-.13-1.28.28.74.56 1.5.85 2.23 1.24 3.14 2.4 6.31 3.72 9.41 1.83 4.3 3.72 8.58 5.7 12.8 1.03 2.21 2.28 4.32 3.47 6.44.82 1.45 1.76 2.83 2.56 4.29 1.82 3.28 4.11 6.23 6.29 9.27 1.45 2.03 2.86 4.1 4.4 6.04 2.16 2.73 4.4 5.38 6.65 8.03 1.5 1.78 3.06 3.51 4.55 5.31a12.96 12.96 0 01-2.64-1.98c-4.84-4.56-9.54-9.26-13.7-14.46zm-16.73-2.52a48 48 0 017.83 3.8c5.76 3.52 11.54 6.99 17.3 10.5 1.29.78 2.56 1.6 3.76 2.5.75.56 1.38 1.3 2.06 1.96-.34-.17-.7-.31-1.01-.52a275.04 275.04 0 00-26.67-16.05c-1.38-.74-2.72-1.57-4.08-2.36.27.05.55.08.8.17zm-15.54-12.25a16.23 16.23 0 01-2.32-5.36l2.32 5.36zm-.57.68l-.14.06-9.03-13.08c-.47-.69-.89-1.4-1.3-2.12a95.63 95.63 0 00-7.76-11.11 94.76 94.76 0 01-6.12-8.64c-1.61-2.57-3.44-4.95-5.24-7.36l-6.13-8.26c-1.18-1.58-2.4-3.13-3.57-4.72a8.53 8.53 0 01-1.3-2.3c.27.22.55.42.8.66a72.74 72.74 0 016.7 7.37c2.56 3.14 5.21 6.2 7.74 9.36 1.62 2.03 3.1 4.17 4.6 6.29 2.01 2.84 4.05 5.67 5.95 8.58 2.68 4.08 5.36 8.17 7.63 12.5 1.38 2.63 2.88 5.18 4.34 7.76l2.83 5zM177.5 14.07a94.36 94.36 0 0113.04 13.99c1.83 2.45 3.53 5.01 5.23 7.56 1.16 1.72 2.27 3.48 3.34 5.26 3.45 5.8 5.84 12.04 7.76 18.48.03.13.02.28.02.42-1.38-2.77-2.7-5.57-4.14-8.31a636.99 636.99 0 00-5.78-10.7c-1.37-2.5-2.8-4.98-4.2-7.48a39.86 39.86 0 00-4.28-6.3c-.8-.95-1.48-2-2.17-3.04-1.02-1.53-2.36-2.75-3.67-4.02-2.4-2.3-4.72-4.67-7.07-7.02-.23-.23-.4-.54-.58-.82.84.66 1.7 1.28 2.5 1.98zm-6.3-4.7c2.03 2.01 4 4.08 6.01 6.1 1.58 1.59 3.14 3.19 4.79 4.69a30.09 30.09 0 014.4 5.02c.99 1.4 2.06 2.74 3.04 4.15.77 1.1 1.52 2.23 2.2 3.4 2.49 4.32 5 8.63 7.4 13 1.9 3.47 3.64 7.02 5.43 10.53.61 1.2 1.17 2.43 1.53 3.77-.27-.43-.56-.85-.8-1.3l-4.48-8.21c-.2-.37-.38-.74-.6-1.1-2.54-3.92-4.85-7.98-7.65-11.75-1.82-2.46-3.45-5.06-5.24-7.55a119.32 119.32 0 00-4.64-6.05 404.83 404.83 0 00-8.94-10.6c-1.85-2.1-3.9-4-5.87-6l-1.24-1.28c1.74.78 3.3 1.85 4.65 3.19zm-4.83-1.93c1.51 2.62 3.46 4.92 5.26 7.34 1.42 1.92 2.8 3.87 4.22 5.79 1.71 2.28 3.46 4.54 5.19 6.82.38.5.76.99 1.08 1.52 2.22 3.65 4.62 7.16 7.21 10.55.7.9 1.47 1.75 2.17 2.65 2.54 3.3 4.8 6.78 6.88 10.4.08.12.11.27.16.42l-.18.04c-1.26-1.57-2.5-3.18-3.8-4.71a57.64 57.64 0 00-3.28-3.55 87.33 87.33 0 01-10.05-11.87c-1.72-2.46-3.48-4.91-5.2-7.38-.54-.77-1.03-1.57-1.51-2.37-3.3-5.42-6.6-10.83-9.87-16.26-.5-.83-.94-1.71-1.34-2.62 1.3.83 2.3 1.93 3.06 3.23zm40.93 59.53a111.86 111.86 0 01-19.82-19.52 143.56 143.56 0 01-13.58-20.32c-1.18-2.14-2.39-4.26-3.54-6.42a40.02 40.02 0 01-1.7-3.66c1 1.44 2 2.88 2.97 4.34 2.06 3.06 4.05 6.16 6.17 9.18 2.47 3.53 4.88 7.1 7.64 10.42.83 1 1.54 2.09 2.25 3.18 2.4 3.73 5.42 6.94 8.44 10.16 2.27 2.42 4.5 4.88 6.78 7.3.41.45.94.78 1.41 1.16-.32-.4-.63-.8-.98-1.19-3.85-4.2-7.75-8.38-11.54-12.65-1.44-1.62-2.64-3.46-3.94-5.2l-3.79-5.14c-.89-1.2-1.8-2.4-2.67-3.63-1.15-1.6-2.28-3.21-3.41-4.82-.21-.3-.4-.61-.6-.91l-4.14-6.04c-.09-.13-.2-.24-.28-.37-2.33-3.75-4.88-7.36-6.91-11.3-.81-1.56-1.4-3.21-1.82-4.95.29.46.58.92.85 1.4 2.2 3.82 4.38 7.67 6.6 11.49 2.48 4.26 5.23 8.36 8.09 12.38 2.53 3.57 5.22 6.99 8.14 10.23.56.61 1.12 1.23 1.73 1.8a60.44 60.44 0 017 7.71c2.36 3.03 4.83 5.97 7.2 9 1.16 1.5 2.19 3.1 3.42 4.86l-1.03-.55 1.8 2.5c-.25-.14-.52-.26-.74-.44zm2.48-.19l2.91 4.09c-1.25-.58-1.44-.83-2.91-4.09zm-9 3.08c-1.14-.19-2.28-.4-3.43-.56-.39-.05-.8 0-1.2 0 1.25.31 2.48.66 3.73.94 3.07.68 6.14 1.33 9.21 2 .66-.1 1.28 0 1.87.32l-1.89-.23c-.4 0-.83.03-1.23-.04-4.29-.76-8.58-1.52-12.86-2.32-.6-.12-1.16-.41-1.7-.7-.18-.09-.24-.4-.35-.62-1.67-.73-3.08-1.86-4.51-2.95-.03-.02 0-.1.01-.27 1.14.37 2.26.7 3.37 1.1 2.8.96 5.58 1.95 8.36 2.94.22.08.42.26.63.4zm.55 11.58c2.1 2.52 4.47 4.79 6.54 7.32 3.03 3.7 6.38 7.11 9.45 10.77 2.57 3.08 5.5 5.8 8.06 8.88a75.18 75.18 0 015.95 8c1.27 2.02 2.6 4.01 3.8 6.08 1.72 2.97 3.34 5.99 5 9 .2.35.38.72.6 1.15-2.1-2.68-4.13-5.24-6.1-7.84-1.39-1.82-2.79-3.64-4.03-5.55a101.54 101.54 0 00-12.13-15c-3.62-3.8-7.37-7.48-10.87-11.38-3.88-4.33-7.72-8.7-11.14-13.42-.52-.71-.94-1.5-1.4-2.25l-4.23-6.74c-.1-.16-.18-.32-.23-.5 3.64 3.77 7.37 7.45 10.73 11.48zm-1.48-13.69c-.97-.29-1.95-.59-2.93-.86-.53-.14-1.07-.22-1.6-.33-.49-.26-.96-.57-1.47-.76-3.74-1.42-7.54-2.7-11.23-4.23a225 225 0 01-18.05-8.5c-5.3-2.77-10.73-5.27-16.09-7.92a738.8 738.8 0 01-9.19-4.62c-.46-.24-.87-.6-1.3-.91 1 .36 2 .7 2.98 1.1 8.67 3.5 17.3 7.1 25.78 11.08a159.4 159.4 0 007.14 3.12c5.54 2.28 10.76 5.2 16.08 7.93 2.4 1.22 4.85 2.37 7.27 3.56.88.43 1.74.9 2.61 1.34zm-14.3-1.3c-.33-.06-.68-.1-1.01-.2-4-1.18-8-2.3-11.95-3.58-2.03-.65-4.01-1.46-5.93-2.36-3.67-1.73-7.34-3.46-10.89-5.42a107.61 107.61 0 01-13.28-8.7c-2.1-1.62-4.34-3.05-6.5-4.57-.41-.28-.8-.58-1.2-.87 8.27 4.39 16.47 8.89 24.9 12.92 8.44 4.04 17.01 7.78 25.8 10.54l.06 2.24zm-53.45-30.01h.02c.5.08 1.02.14 1.52.25 5.61 1.18 11.02 3 16.43 4.9 6.23 2.18 12.39 4.56 18.47 7.12 5.72 2.4 11.05 5.55 16.34 8.75 2.32 1.4 4.66 2.75 6.97 4.14 1.65.99 3.27 2 4.9 3l.56.45.54.38a.38.38 0 00-.23.14c-.04.06-.08.13-.13.18-.01.01-.08-.02-.12-.03l-.44-.12-.58-.39c-.35-.07-.72-.1-1.03-.24a28.7 28.7 0 01-2.53-1.2 295.88 295.88 0 00-24.6-12.02 733.78 733.78 0 00-29.5-12.53c-.45-.17-1.08-.16-1.13-.87-.36-.17-.7-.4-1.09-.5-.94-.27-1.9-.46-2.84-.74-.52-.16-1.01-.44-1.51-.67h-.02zm-1.23.82c2.24 1 4.52 1.93 6.72 3 6.4 3.12 12.76 6.3 19.13 9.46 2.98 1.48 5.97 2.92 8.9 4.48a234.07 234.07 0 0016.64 7.8l.4.2c-.12.05-.19.17-.19.3l-.06-.01c-11.03-3.78-21.55-8.7-31.84-14.16-6.05-3.2-12.01-6.57-18-9.89-.6-.33-1.14-.77-1.7-1.18zm54.9 31.03c-5.97-1.42-11.95-2.77-17.7-4.96a94.03 94.03 0 01-27.72-16.49c-2.53-2.15-5.04-4.32-7.56-6.5-.21-.18-.38-.42-.57-.64.17.07.35.12.5.23l11.87 8.56c5.57 4.02 11.34 7.7 17.63 10.52 1.33.6 2.6 1.3 3.95 1.84 2.46 1 4.9 2.02 7.43 2.8 4.11 1.3 8.28 2.4 12.56 3.6l.34 1.09c-.33-.03-.54 0-.73-.05zM236 133.17c-4.33-3.57-8.27-7.57-12.3-11.46a139.06 139.06 0 01-14.53-16.22l-1.23-1.6c-.09-.13-.13-.28-.28-.6 10.71 9.42 19.98 19.97 29.24 30.55-.3-.22-.61-.44-.9-.67zm-2.15-3.8c-3.51-3.9-7-7.8-10.57-11.64a263.37 263.37 0 00-14.7-14.36c-.69-.63-1.34-1.3-2-1.96a19.17 19.17 0 01-3.2-4.2c-1.19-2.13-2.42-4.23-3.63-6.35-.15-.25-.27-.5-.24-.86.26.3.55.58.78.9 4.4 5.99 8.97 11.84 14.26 17.08 2.58 2.55 5.3 4.96 8.05 7.34a51.37 51.37 0 016.48 6.7c2.14 2.68 4.27 5.36 6.37 8.07 1.01 1.3 1.95 2.66 2.91 4l-.16.12-4.34-4.85zm7.73 8.2c-1.98-2.67-3.9-5.39-5.88-8.05-1.8-2.42-3.68-4.77-5.5-7.17a42.93 42.93 0 00-6.46-6.94l-3.32-2.84a83.16 83.16 0 01-10.08-9.94c-3.2-3.83-6.4-7.65-9.4-11.64a57.95 57.95 0 01-6.64-11.07c-.64-1.42-1.49-2.74-2.2-4.13-1.27-2.5-2.52-5.02-3.77-7.53-.11-.22-.19-.46-.28-.7l.28-.16c.16.24.34.47.48.71.9 1.53 1.77 3.05 2.67 4.57.4.67.86 1.3 1.23 1.99a68.52 68.52 0 008 11.3c3.16 3.66 6.2 7.42 9.6 10.85 3.34 3.35 6.6 6.77 9.87 10.2a83.91 83.91 0 019.05 11.29 132.5 132.5 0 007.32 9.89 56.04 56.04 0 015.23 7.56c.92 1.61 1.95 3.17 2.95 4.77a11.37 11.37 0 01-3.15-2.96zm1.35-1.5c.12.18.25.36.35.54l1.36 2.35-.12.07-1.67-2.9.08-.06zm2.7 3.21c-2.08-3.48-4.17-6.95-6.22-10.44-.84-1.44-1.58-2.93-2.41-4.37a229.02 229.02 0 00-3.75-6.29c-.98-1.59-2.04-3.13-3.1-4.67a77.51 77.51 0 00-7.48-9.16c-1.63-1.74-3.17-3.57-4.76-5.35-2.33-2.59-4.68-5.15-7-7.74-3.09-3.44-6.18-6.87-9.22-10.34-2.26-2.58-4.47-5.2-6.96-7.57-.27-.26-.47-.6-.7-.92.63.41 1.26.8 1.86 1.23a52.04 52.04 0 016.45 5.4c2.03 2 4.23 3.84 6.24 5.86a67.7 67.7 0 005.49 5.08 31.8 31.8 0 014.85 4.82c1.66 2.06 3.47 4 5.18 6.02a62.05 62.05 0 015.89 8.8c1.5 2.55 2.91 5.15 4.39 7.72 2.17 3.79 4.5 7.5 6.5 11.36 1.75 3.36 3.75 6.6 5 10.22.23.68.61 1.3.8 2.04l-1.05-1.7zm-42.86-61.12c1.8 1.5 3.61 2.96 5.37 4.5a201.9 201.9 0 0117.3 17.05c1.73 1.92 3.23 4.06 4.73 6.18 3.02 4.24 5.65 8.72 8.12 13.3 1.06 1.95 1.9 4.04 2.75 6.1 1 2.45 1.93 4.93 2.87 7.4.15.39.23.8.22 1.24-.89-1.78-1.76-3.57-2.69-5.34-.67-1.29-1.33-2.59-2.12-3.8a82.29 82.29 0 01-4.51-7.83 132.08 132.08 0 00-7.25-12.37c-2.2-3.37-4.93-6.29-7.46-9.38-2.05-2.5-4.4-4.7-6.85-6.78-1.3-1.11-2.47-2.37-3.7-3.55-1.43-1.37-2.86-2.74-4.3-4.09-.86-.8-1.76-1.59-2.64-2.38l.16-.25zm45.55 63.59c-.9-1.7-1.76-3.43-2.23-5.3-1.15-4.6-2.94-8.98-4.68-13.38-1.76-4.47-4.25-8.54-6.82-12.58a84.1 84.1 0 00-6.33-8.88 106.8 106.8 0 00-6.24-6.74 265.14 265.14 0 00-20.97-18.83 58.44 58.44 0 01-5.16-4.75c.7.14 1.4.3 2.1.4 4.22.62 8.44 1.2 12.66 1.83 1.54.22 3.08.5 4.6.78.36.07.72.18 1.04.34 1.67.84 3.35 1.66 5 2.54a335.3 335.3 0 0120.1 11.95 308.12 308.12 0 0126.5 18.9c7.26 5.75 14.65 11.3 22.01 16.9 2.07 1.58 4.22 3.04 6.37 4.5 6.62 4.5 13.25 8.97 19.88 13.46.27.19.51.44.77.66-.57-.2-1.17-.33-1.7-.6-3.2-1.57-6.6-2.52-10.01-3.44-4.92-1.32-9.9-2.42-14.93-3.26l-9.84-1.63a42.9 42.9 0 00-8.86-.56c-4.93.2-9.86.44-14.79.65-1.03.04-2.07 0-3.11 0l-1 .05c-.37.4-.32.73-.01 1.02.11.1.25.18.38.26a90.85 90.85 0 0016.3 7.77 58.12 58.12 0 0013.25 2.8c5.86.58 11.72.35 17.59-.1 3.47-.26 6.95-.44 10.43-.55 1.6-.04 3.2.16 4.8.32.55.06 1.07.34 1.61.5.7.22 1.38.5 2.09.62 5.03.84 9.68 2.76 14.2 5.02 1.77.88 3.46 1.9 5.22 2.8.73.38 1.55.6 2.29.96a206.94 206.94 0 0022.04 9.09 304.25 304.25 0 0032.9 9.62c7.71 1.8 15.49 3.13 23.32 4.18 2.58.35 5.15.74 7.72 1.13.27.04.54.15.81.24-.68.1-1.37.24-2.06.29-1.86.12-3.73.2-5.6.3-3.16.18-6.33.13-9.49-.21-2.75-.3-5.49-.5-8.25-.32-5.98.36-11.93-.02-17.89-.63-7.65-.78-15.3-1.56-22.91-2.72-9.2-1.4-18.37-3-27.46-5.03-7.9-1.77-15.81-3.59-23.7-5.46a216.11 216.11 0 01-17.65-5.17c-2.92-.96-5.87-1.8-8.75-2.84a532.5 532.5 0 01-14.3-5.38c-5.67-2.23-11.28-4.57-16.92-6.83a4.8 4.8 0 01-2.67-2.24c-.46-.87-1.19-1.6-1.65-2.45zM133.13 55.77c4.98 3.66 9.95 7.35 14.25 11.83 3.85 4.02 7.49 8.22 10.78 12.7 3.07 4.2 6.24 8.31 9.24 12.55 2.04 2.88 3.85 5.92 5.7 8.94-1.33-1.04-2.31-2.38-3.37-3.66-2.71-3.28-5.39-6.59-8.07-9.9-.81-1-1.58-2.06-2.35-3.1-1.89-2.54-3.74-5.11-5.65-7.64-1.48-1.94-2.9-3.96-4.56-5.72-3.58-3.76-7.3-7.4-10.98-11.05-1.51-1.5-3.11-2.9-4.67-4.36-.24-.24-.46-.5-.69-.76.13.05.27.1.37.17zm33 39.29l-.68-1 .86.84-.18.16zM124.01 50c5.27 3.36 9.94 7.48 14.36 11.86 3.5 3.46 6.97 6.97 10.3 10.58 1.76 1.9 3.23 4.06 4.82 6.1 1.18 1.51 2.37 3.02 3.52 4.55.94 1.24 1.79 2.55 2.74 3.78 1.1 1.44 2.27 2.83 3.4 4.25.38.49.73 1 1.09 1.51-.88-.87-1.79-1.72-2.63-2.62-3.15-3.38-6.33-6.74-9.39-10.2-4.13-4.66-8.38-9.22-12.61-13.79-3.11-3.35-6.4-6.51-9.74-9.64-2.39-2.24-4.7-4.55-7.05-6.83-.1-.1-.16-.21-.24-.33.48.26.97.49 1.43.78zm-6.38-4.16c2.16 1.77 4.28 3.62 6.32 5.53a342.88 342.88 0 0119.31 19.43c3.75 4.03 7.42 8.13 11.12 12.2 4.05 4.45 8.12 8.88 12.15 13.35 3.16 3.51 6.26 7.07 9.4 10.6a8.07 8.07 0 011.62 2.79c-1-1.17-1.96-2.4-3.03-3.52a187.9 187.9 0 00-5.6-5.62c-5.05-4.85-10.14-9.67-15.21-14.5-2.44-2.33-4.96-4.59-7.3-7-5.82-6-11.63-12.02-17.32-18.13-5.09-5.47-10.02-11.1-15-16.65-.27-.3-.46-.65-.68-.98a13.5 13.5 0 014.22 2.5zm-1.77 1.23c3.8 4.27 7.48 8.64 11.4 12.8 6.86 7.3 13.74 14.6 20.85 21.66 6.62 6.59 13.53 12.9 20.36 19.28a99.88 99.88 0 018.8 9.45c1 1.2 2.02 2.38 3.02 3.57.18.22.33.46.34.87-.5-.36-1-.71-1.48-1.08a101.9 101.9 0 01-12.48-11.25c-.42-.44-.95-.76-1.42-1.14.82.92 1.62 1.87 2.46 2.78 2.61 2.78 5.41 5.36 8.35 7.8-.4-.14-.84-.24-1.2-.47-1.56-1.02-3.16-2-4.63-3.15-5.31-4.16-10.68-8.26-15.62-12.87-4.17-3.9-8.28-7.85-12.29-11.92-2.4-2.43-4.56-5.1-6.81-7.67-2.46-2.82-4.93-5.62-7.34-8.47-1.51-1.77-2.93-3.62-4.39-5.45-.15-.2-.25-.43-.25-.76 1.25 1.4 2.44 2.85 3.74 4.2 3.6 3.74 7.25 7.43 10.88 11.13 3.93 4 8.1 7.73 12.32 11.43.27.23.6.38.9.57-.5-.53-.94-1.1-1.48-1.58a343.1 343.1 0 01-20.55-20.2c-3.24-3.42-6.22-7.1-9.23-10.74-1.06-1.28-1.9-2.73-2.78-4.14a107.46 107.46 0 01-4.63-8.15c1.05 1.17 2.12 2.32 3.16 3.5zm27.21 45.47a66.69 66.69 0 01-11.7-11.36 98.27 98.27 0 01-8.75-12.5l-3.67-6.33a6.45 6.45 0 01-.59-1.4c1.7 2.6 3.43 5.2 5.1 7.82a116.45 116.45 0 009.53 13.11c-.03.05-.03.12.02.18a109.6 109.6 0 0011.4 11.22l.1.1c-.48-.27-1-.5-1.44-.84zm5.78 3.88c-1.53-1.24-2.98-2.58-4.47-3.85-.21-.18-.44-.35-.66-.5-2.9-2.6-5.7-5.33-8.4-8.14a90.1 90.1 0 01-3.1-3.76c-2.13-2.69-4.2-5.42-6.08-8.28-.25-.4-.52-.78-.78-1.17l-6.1-9.41c-.34-.52-.66-1.06-.99-1.59-1.21-1.94-2.48-3.84-3.63-5.81a35.72 35.72 0 01-2.08-4.36c1.59 2.52 3.2 5.02 4.75 7.56 2.09 3.43 4.5 6.61 6.92 9.8 1.69 2.24 3.36 4.49 5.11 6.68 2.66 3.32 5.33 6.64 8.08 9.9 2.44 2.89 4.87 5.8 7.67 8.37 3.83 3.51 7.65 7.03 11.83 10.13.33.25.62.55.93.84a78.3 78.3 0 01-9-6.4zm9.66 5.95c-4.04-2.78-7.62-6.1-11.25-9.37a97.85 97.85 0 01-9.47-10.11c-2.73-3.27-5.48-6.52-8.1-9.88-2.97-3.8-5.82-7.7-8.7-11.57-2.24-3-4.23-6.17-6.18-9.37-1.31-2.18-2.69-4.32-4-6.5-.87-1.42-1.38-3-2.02-4.52l.31-.25c.26.3.57.55.78.88 2.33 3.75 4.57 7.55 6.99 11.25 1.73 2.65 3.63 5.18 5.55 7.7 1.94 2.56 3.95 5.08 6 7.55 3.2 3.83 6.47 7.59 9.66 11.42 3.96 4.77 8.64 8.83 13.02 13.18 4.28 4.27 9.02 7.99 13.69 11.79 1.61 1.31 3.25 2.6 4.87 3.89 2.94 2.34 6.26 4.09 9.46 6.02.8.48 1.56 1.03 2.32 1.57.4.3.77.65 1.36 1.15a4.38 4.38 0 01-2.26-.71c-7.6-4.31-14.85-9.17-22.03-14.12zm-54.81-13.6a72.6 72.6 0 01-18.88-13.56c-.1-.1-.16-.24-.42-.64.57.44.9.67 1.2.92 5.85 4.91 12.15 9.2 18.66 13.19.24.14.45.34.66.52-.4-.14-.84-.24-1.22-.43zm.31-.97C94.55 82.23 85.7 75.8 78.1 67.77c-1.67-1.76-3.08-3.77-4.59-5.7a20.7 20.7 0 01-2.14-3.27l.95.82c2.25 2 4.44 4.07 6.73 6.01 2.93 2.49 5.93 4.9 8.92 7.31 1.04.85 2.14 1.63 3.24 2.42.28.2.64.28.97.42-.29-.3-.54-.62-.86-.87-1.91-1.5-3.86-2.96-5.75-4.5-2.7-2.18-5.4-4.37-8.01-6.64-2-1.73-3.87-3.59-5.79-5.4-.2-.2-.36-.46-.53-.7.39.22.79.4 1.15.66 5.73 4.02 11.45 8.08 17.2 12.08 1.75 1.21 3.6 2.28 5.39 3.43 4.3 2.73 8.57 5.47 12.87 8.19 5.23 3.3 10.46 6.58 15.7 9.84a87.28 87.28 0 017.92 5.53c1.46 1.16 2.98 2.24 4.44 3.5-.3-.1-.6-.18-.88-.33-4.53-2.4-9.07-4.83-13.6-7.25a826.1 826.1 0 00-6.62-3.49c-.3-.15-.67-.2-1-.29.45.33.87.71 1.36.98l18.3 9.93c.2.1.37.27.55.42-.53-.11-1.08-.17-1.58-.35-9.8-3.52-19.44-7.4-28.42-12.7zm-26.95-27c2.36.85 4.64 1.89 6.78 3.2 6.32 3.87 12.65 7.74 18.93 11.69 2.72 1.7 5.38 3.53 7.96 5.44 3.63 2.68 7.17 5.47 10.74 8.24.41.32.75.74 1.12 1.12-7.01-4.18-13.93-8.5-20.73-13.02a115.4 115.4 0 00-5.01-3.13c-5.99-3.55-11.64-7.58-17.3-11.62-.85-.6-1.66-1.28-2.5-1.92zM60.9 138.9c-.31.15-.64.27-1.07.26.23-.24.45-.5.7-.72 3.51-3.07 7.06-6.1 10.54-9.22 1.55-1.37 2.94-2.93 4.71-4.05.16-.1.23-.33.34-.5l-1.2.7c.85-1.34 2.1-2.23 3.25-3.22a69.97 69.97 0 0111.15-7.66c2-1.12 4.04-2.12 6.22-2.83 2.17-.7 4.32-1.47 6.49-2.19a36.65 36.65 0 017.15-1.48c.13-.02.27.03.6.07-2.17.8-4.16 1.53-6.14 2.28a1995.5 1995.5 0 00-8.87 3.36c-.44.17-.87.36-1.28.58-3.07 1.63-6.13 3.28-9.2 4.9-.64.35-1.3.66-1.96.95a16.71 16.71 0 00-4.38 2.93c-.06.06-.07.19-.1.29.55-.38 1.1-.77 1.67-1.14.83-.53 1.65-1.08 2.51-1.55 1.1-.59 2.25-1.08 3.35-1.65 2.58-1.34 5.13-2.75 7.74-4.04 1.58-.78 3.24-1.4 4.87-2.07.12-.05.27-.02.42-.02l-9.77 5.07c-3 1.56-5.87 3.3-8.4 5.6-1.25 1.15-2.74 2.04-4.05 3.15-2.77 2.34-5.53 4.7-8.23 7.13a32.5 32.5 0 01-7.06 5.07zm5.5-2.81c2.3-2.02 4.56-4.07 6.9-6.04 2.1-1.77 4.28-3.45 6.42-5.18 1.09-.88 2.14-1.8 3.25-2.66 2.34-1.83 5-3.17 7.58-4.6 2.37-1.3 4.82-2.44 7.22-3.66a39.18 39.18 0 019.1-3.14c2.48-.57 4.96-1.15 7.44-1.7 2.16-.47 4.35-.8 6.92-.88-2.47.73-4.62 1.28-6.72 2a143.6 143.6 0 00-15.42 6.28c-.84.4-1.64.9-2.44 1.38-3.2 1.92-6.44 3.8-9.6 5.8-3.23 2.07-6.41 4.23-9.76 6.11-.8.46-1.53 1.07-2.26 1.66a27.02 27.02 0 01-8.63 4.63zm-3.07 2.19c1.49-.7 2.97-1.44 4.48-2.12a36.69 36.69 0 007.38-4.28c1.32-1.01 2.72-1.9 4.11-2.81 2.14-1.38 4.3-2.73 6.44-4.09.58-.36 1.14-.73 1.72-1.07 3.68-2.14 7.38-4.27 11.05-6.42 2.66-1.56 5.54-2.61 8.4-3.71 3.68-1.41 7.34-2.88 11.15-3.94a64.89 64.89 0 0116.43-2.48c.1 0 .2.04.3.06-.58.49-.58.48-1.34.66-3.74.9-7.48 1.75-11.2 2.68-3.74.93-7.48 1.79-11.08 3.18-1.11.43-2.23.87-3.3 1.4-3.89 1.96-7.8 3.9-11.64 5.97-2.27 1.23-4.43 2.7-6.63 4.08a457.86 457.86 0 00-6.02 3.87c-1.3.85-2.59 1.74-3.88 2.6a36.87 36.87 0 01-7.42 3.6c-2.71 1.04-5.46 2-8.2 2.98-.18.06-.38.09-.58.13l-.17-.3zm66.05-28.17l2.07-.83c-.57.63-1.24.98-2.07.83zm-42.44 19.93a23.2 23.2 0 01-6.03 3.18l-7.58 2.86h-.01l-1.87.42c.38-.24.77-.34 1.14-.47.44-.16.85-.38 1.29-.55 3.33-1.26 6.3-3.17 9.2-5.2.42-.3.85-.59 1.28-.87 3-1.95 5.98-3.95 9.03-5.83 1.77-1.08 3.66-1.97 5.5-2.92 2.5-1.28 5.05-2.45 7.5-3.8 3.4-1.86 7-3.15 10.73-4.14 2.5-.67 5.03-1.3 7.54-1.94.3-.08.6-.1.95.08-.64.28-1.26.64-1.93.85-2.93.93-5.7 2.2-8.44 3.6-3.84 1.95-7.74 3.79-11.58 5.74-2.96 1.5-5.87 3.11-8.8 4.66-1.3.68-2.61 1.29-3.89 1.98-1.37.74-2.8 1.41-4.03 2.35zm15.61-.43c1.76-.75 3.45-1.67 5.16-2.55.83-.43 1.62-.93 2.45-1.36a70.29 70.29 0 01-13.3 7.95c-7.75 3.46-15.93 5.34-24.26 6.69-1.33.21-2.7.21-4.05.3.6-.16 1.2-.37 1.82-.48 6.2-1.13 12.26-2.77 18.2-4.82 1.77-.6 3.45-1.45 5.18-2.16 2.93-1.2 5.9-2.32 8.8-3.57zm-2.29.35c-3.39 1.31-6.7 2.84-10.07 4.18-1.97.8-3.99 1.49-6.02 2.1a127.55 127.55 0 01-17.74 4.16c-2.15.33-4.32.6-6.55.9.83-1.06 1.32-1.35 2.65-1.62l4.12-.84-.14-.3.94-.17c1.05-.34 2.1-.67 3.15-1.03.53-.18 1.05-.41 1.57-.63l.26-.06c.61-.04 1.2-.2 1.76-.42l.2-.05a.17.17 0 00.1-.06c.48-.2.95-.4 1.43-.56 2.16-.74 4.28-1.62 6.42-2.4 1.87-.7 3.53-1.76 5.16-2.88.99-.66 2.04-1.24 3.08-1.8a442.4 442.4 0 0111.47-5.96c3.59-1.79 7.18-3.55 10.77-5.31 2.56-1.26 5.13-2.52 7.74-3.69-1.7 1.69-3.77 2.87-5.75 4.15-4.1 2.65-8.22 5.27-12.37 7.85-2.43 1.5-4.85 3.05-7.4 4.33-2.35 1.2-4.86 2.1-7.33 3.05a92 92 0 01-11.27 3.6c-.3.07-.57.25-.86.37.51-.05 1.03-.04 1.52-.15a95.66 95.66 0 0013.02-4.26c2.07-.82 4.12-1.7 6.15-2.63 1.08-.5 2.1-1.13 3.13-1.75 1.24-.76 2.44-1.58 3.66-2.37 2.73-1.8 5.47-3.59 8.22-5.37.95-.62 1.92-1.24 2.92-1.8a64.79 64.79 0 006.89-4.53 15.04 15.04 0 017.23-2.68l-.96.63c-3.43 2.44-6.88 4.84-10.26 7.34-1.08.79-1.93 1.9-2.98 2.74a62.55 62.55 0 01-4.53 3.3 47.83 47.83 0 01-9.33 4.62zm15.66-8.51a14.49 14.49 0 015.03-4.09l-5.03 4.09zm20.62-13.14l-10.53 5.33-.03-.02 4.92-3c.67-.4 1.36-.76 2.02-1.17a6.6 6.6 0 013.63-1.14zm-2.91-1.78c-5.07.43-10.14.86-15.2 1.37-1.7.17-3.39.54-5.06.9-2.94.64-5.87 1.34-8.8 2.02-.18.04-.36.08-.55.05 10.66-4.82 21.93-5.34 33.35-4.84l-.01.32c-1.24.06-2.5.07-3.73.18zm6.03-2.4c-2.68-.97-5.35-1.98-8.02-2.98-.16-.07-.3-.2-.44-.32 1.12.31 2.24.62 3.36.95 1.1.32 2.22.58 3.27 1 .97.4 1.87.97 2.8 1.46-.33-.02-.67 0-.97-.1zM72.19 56.88A52.83 52.83 0 0186 62.56c4.07 2.4 8.15 4.77 12.18 7.24 2.44 1.5 4.8 3.11 7.14 4.74 2.13 1.48 4.19 3.07 6.3 4.59 2.48 1.8 4.89 3.68 7.15 5.76.68.63 1.41 1.23 2.14 1.81 4.57 3.68 9.17 7.32 13.73 11.02 2.1 1.7 4.12 3.47 6.17 5.21l-.22.24c-2.14-1.55-4.32-3.04-6.4-4.66-5.71-4.41-11.39-8.87-17.06-13.33a193.31 193.31 0 00-18.18-12.6c-4.83-2.96-9.64-5.95-14.46-8.92a29.2 29.2 0 00-2.73-1.5c-2.67-1.27-5.38-2.48-8.05-3.75-.83-.4-1.59-.94-2.3-1.66.26.04.53.05.8.12z" fill="#fff"/><path d="M150.3 141.99l.03-.04-.05.03.03.01zM234.25 155.03l.07-.05-.07.02v.03zM298.41 100.35a242.68 242.68 0 0017.53 39.1c.1.2.46 0 .35-.2a332.56 332.56 0 01-5.64-11.41l.21.21-.55-.95a425.05 425.05 0 01-11.45-26.93c-.11-.28-.55-.11-.45.18zM250.06 151.28l.74-.04-.74.04zM173.83 141.3c-1.32.6-2.63 1.22-3.94 1.84-.13.07-.04.29.09.22a64.04 64.04 0 014.45-2 103.53 103.53 0 017.34-2.66l.85-.26h.03c2.88-.85 5.8-1.55 8.74-2.17.18-.03.36-.1.54-.16 1.21-.24 2.43-.46 3.65-.64.28-.04.23-.48-.05-.44a87.63 87.63 0 00-17.37 4.52c-.69.17-1.34.43-1.97.77l-.9.35-.13.06c-.5.06-.92.31-1.33.58zM156.51 146.24a236.14 236.14 0 01-6.89 5.24l-.1.06h.01c-.95.7-1.9 1.39-2.86 2.06a116.15 116.15 0 01-10.22 6.61 41.84 41.84 0 01-3.62 1.8l.01-.01-.04-.08-.3.23c-.8.33-1.6.65-2.41.92-.16.05-.07.28.09.23 3-.95 5.8-2.35 8.5-3.96l.01.03 3.84-2.22c-.03-.03-.04-.07-.06-.1l-1.17.67c.94-.61 1.88-1.23 2.81-1.86l.04.07.94-.63a2.89 2.89 0 01-.05-.07 208.38 208.38 0 0011.73-8.63c.06-.05.09-.1.09-.16 1.43-.83 2.89-1.6 4.4-2.29.17-.08.06-.37-.12-.29a35.1 35.1 0 00-4.37 2.38c-.07-.05-.16-.08-.26 0zM128.44 162.05l-1.17.68-.04-.06 1.18-.68a1 1 0 01.03.06z" fill="#fff"/><path d="M141.21 149.02a78.77 78.77 0 00-4.97 5.61c-1.66 2-3.43 3.84-5.55 5.37a63.01 63.01 0 01-7.54 4.42c-.15.08-.06.33.1.25 2.26-1.13 4.54-2.27 6.67-3.66 2.1-1.37 3.97-3 5.62-4.89l.06.05.14-.28.63-.74.15-.17.66-.73.03-.06-.06.05-.25.28.33-.4-.02.07.02-.06c.3-.38.62-.75.94-1.13l.02-.03-.02.03a.65.65 0 00.03-.04v.01l.05-.05.62-.73 1.1-1.25.37-.4.5-.53a56.13 56.13 0 013.16-3.03l.39-.28c-.04 0-.07.02-.1.03.4-.36.82-.72 1.24-1.06.42-.12.76-.37 1-.76l-.24.13.07-.06.27-.2-.03.06c.65-.44 1.48-.66 1.87-1.43l.25-.18c.51-.26 1.04-.5 1.38-.96a70.75 70.75 0 013.43-2.15c.24-.14-.02-.48-.25-.35a56.35 56.35 0 00-12.07 9.25z" fill="#fff"/><path d="M138.2 152.97c-.04.11-.03.07 0 0zM137.2 154.19c.08-.08.06-.05 0 0zM146.52 144.9l.06-.03.02-.04-.04.03-.04.05zM328.4 75.33a75.67 75.67 0 00-3.7 20.37l-.05.8a.8.8 0 00-.01.4l-.02.6c-.1.2-.09.41-.02.63l-.02.58c-.12.37-.13.75-.02 1.13v.8a3.4 3.4 0 00-.01 1.53l.01.99a3.4 3.4 0 00.04 1.67l.01.53c-.02.03-.04.07-.04.1.11 2.11.23 4.23.36 6.34 0 .05.02.1.06.16l.06.78a1.8 1.8 0 00-.01.47l.17 1.4c.3 3.13.67 6.25 1.08 9.33l.58 4.37a69.76 69.76 0 003.83 16.1c.09.23.42.1.35-.13a140.8 140.8 0 01-3.6-15.9c-.13-1-.25-2-.39-2.97-.58-4.22-1.08-8.46-1.43-12.7-.58-7.07-.7-14.2 0-21.25l.46-3.06c.02-.15 0-.31-.02-.48l.14-.92c.12-.28.22-.57.25-.86.09-1 .53-1.98.45-3 .07-.38.13-.75.21-1.11.24-.66.41-1.4.5-2.1.38-1.48.77-2.95 1.22-4.4.09-.3-.34-.5-.44-.2zM142.02 80.1A639.12 639.12 0 00168.9 105c.1.09.2-.06.12-.15l-3.96-3.73.22.13c-.2-.3-.37-.63-.62-.87a179.77 179.77 0 00-3.44-3.3c-.25-.24-.58-.4-.87-.6l.34.53-1.92-1.81.87.66c-.3-.36-.56-.75-.9-1.06a235.42 235.42 0 00-3.7-3.32c-.2-.18-.45-.3-.68-.45l-2.44-2.3a.8.8 0 00-.32-.3l-9.28-8.7c-.23-.22-.52.16-.3.37zM160.38 96.51l-.77-.68.77.68zM237.35 151.26c1.7-.13 3.42-.39 5.12-.61.82-.1 1.64-.22 2.46-.25.86-.04 1.73 0 2.6.03.32.01.41-.5.07-.52a21.63 21.63 0 00-5.03.25c-1.75.28-3.51.52-5.25.88-.14.02-.12.23.03.22zM312.27 99.34a77.56 77.56 0 011.35 6.19l.44 2.49.01.08.31 1.82c-.02.5.09.98.26 1.45l.1.62c-.05.79.1 1.55.43 2.27.5 2.5 1.07 5 1.86 7.43.08.22.4.09.34-.13-2.14-7.33-2.56-15.05-4.66-22.4-.08-.3-.52-.12-.44.18zM77.71 64.6c4.8 4.15 9.85 8.05 15.06 11.74.3.28.63.57.98.8.57.39 1.17.75 1.77 1.1.75.52 1.5 1.04 2.25 1.54.11.14.23.28.37.37 2.09 1.4 4.19 2.78 6.3 4.15.13.1.31.12.5.15l.96.6c.8.76 1.7 1.33 2.72 1.7l.8.49c.86.7 1.83 1.23 2.82 1.7a381.8 381.8 0 005.6 3.28c.25.14.42-.26.18-.4a238.98 238.98 0 01-4.86-2.87l-.38-.2a302.4 302.4 0 01-26.35-17.98c-2.83-2.14-5.6-4.36-8.4-6.55-.26-.19-.55.18-.32.38zM283.15 48.45c.24 4.66.85 9.27 1.52 13.88-.01.18-.02.35 0 .52.19 1.76.36 3.51.64 5.25 1.06 6.45 2.15 12.89 3.24 19.32a43.98 43.98 0 002.29 8.4c.98 2.56 2 5.11 2.87 7.72a40.48 40.48 0 003.57 8.09c.22.35.38.74.57 1.1 1.21 2.41 2.38 4.85 3.65 7.22 1.11 2.06 2.34 4.04 3.52 6.06-.24-.62-.41-1.28-.71-1.86-.7-1.34-1.48-2.64-2.16-3.98-1.41-2.77-2.77-5.58-4.18-8.36a54.32 54.32 0 01-3.25-7.24c-.86-2.56-1.84-5.08-2.79-7.6a48.92 48.92 0 01-2.46-7.87l-1.06-5.51a340.63 340.63 0 01-3.22-19.85c.05-.04.09-.1.07-.18a88.27 88.27 0 01-.5-4.05c-.38-3.7-.56-7.44-.7-11.16-.03-.58-.94-.48-.9.1zM283.96 53.45l.04.74-.04-.74zM284.33 57.2l.04.74-.04-.74zM334.51 137.77l.13-.46-.13.46zM334.81 135.8l.13-.47-.13.47zM337.22 46.7c.06.62.1 1.24.13 1.87-.13 1.91-.22 3.83-.33 5.74 0 .1.03.16.09.2-.07.82-.14 1.63-.23 2.44-.03.32.45.4.5.07.27-1.75.47-3.5.63-5.27v.35c0 .32.49.4.5.07.03-.5.04-.99.05-1.49l.03.04-.02-.3c.04-1.26.05-2.52.02-3.77-.01-.32-.37-.37-.57-.2-.18-.37-.85-.24-.8.25zM281.95 169.5c.66-.25 1.32-.48 2-.7l-.25.14c.52.21.89-.1 1.28-.35l-.05-.09c.67-.19 1.34-.37 2.02-.53.17-.04.14-.32-.03-.28-1.74.37-3.41.94-5.03 1.66-.1.04-.04.2.06.16zM71.45 137.84l1-.2-1 .2zM69.52 138.23l1-.2-1 .2zM62.93 139.42l4.05-.8-.36.21 1-.2-.06-.1c2.3-.32 4.59-.73 6.88-1.1.15-.02.15-.2.04-.26.06-.03.12-.05.18-.1l-.12.01c1.22-.26 2.45-.5 3.68-.77.12-.03.1-.21-.02-.2-3.59.64-7.17 1.31-10.74 2-.8.13-1.6.26-2.39.41a.16.16 0 00-.11.09l-2.08.4c-.25.05-.21.45.05.4zM335.52 108.75c-.37 5.36-.4 10.76-.57 16.13-.12 3.77-.26 7.54-.34 11.3-.11.32-.12.66-.02 1v.66a3.67 3.67 0 00-.07-.1l.04.73.01-.01-.02 1.92c-1.5-7.24-.14-14.62-.7-21.93-.03-.26-.4-.2-.4.05 0 6.48-.8 13.11.18 19.55l.07 1.13c.02.24.16.48.25.72l.28 1.19c.06.25.5.14.44-.11v-.01c.12.05.3 0 .31-.16.19-2.67.32-5.34.42-8.01.11-.56.14-1.13.06-1.7l.04-1.2c.08-.37.09-.74.04-1.1l.12-4.13c.15-5.29.38-10.62.24-15.91 0-.21-.36-.22-.38 0zM79 96.7l1.17.07L79 96.7zM56.88 98.33l.74-.05-.74.05zM60.63 97.96l.74-.04-.74.04zM61.33 97.92l.73-.05-.73.05zM62.03 97.87a330.12 330.12 0 010 0zM62.72 97.83l.74-.04-.74.04zM63.42 97.8zM68.99 97.45l.73-.04-.73.04zM69.69 97.4l.73-.03-.73.04zM75.53 96.91l.73-.04-.73.04zM76.22 96.87l.74-.04-.74.04zM76.92 96.83l.73-.05-.73.05zM77.62 96.78l.73-.04-.73.04zM80.13 96.77z" fill="#fff"/><path d="M52.34 99.13c1-.28 2.03-.5 3.06-.65l-.18.09c.6.17 1.17.07 1.7-.24l-.17-.03c.36-.05.72-.08 1.08-.11l-.25.1c.8.14 1.56.06 2.3-.26l4.47-.22 7.57-.43h.03l5.04-.3 3.92-.21.09.14.3-.17 2.82-.16c.24-.01.2-.38-.04-.37l-2.66.15-.03-.06-.12.07c-3.33.2-6.66.38-10 .57-4.17.24-8.36.4-12.53.74-2.2.17-4.39.46-6.5 1.08-.2.05-.08.32.1.27zM205.18 63.7l1.08 1.22-1.08-1.21z" fill="#fff"/><path d="M189.5 46.6c3.33 3.37 6.23 7.13 9.3 10.73a80.12 80.12 0 009.6 9.77c.22.18.49-.15.28-.34-3.52-3.14-6.62-6.74-9.67-10.33a163.2 163.2 0 00-9.24-10.17c-.2-.2-.47.14-.28.34zM341.01 101.9a652.8 652.8 0 00-2.26 14.46c-.7 4.83-1.22 9.69-1.81 14.53-.02.16.22.2.24.04.44-3.08.93-6.15 1.4-9.22.5-.75.6-1.56.41-2.42l-.06.15.45-2.98c.7-4.83 1.38-9.67 2.07-14.5.05-.28-.4-.35-.44-.07zM343.42 100.17c-.98 4.08-1.66 8.2-2.24 12.34-.6 4.34-.95 8.67-1.28 13.03-.01.16.23.2.25.04.59-4.32 1.25-8.62 1.75-12.95.48-4.15.99-8.32 1.9-12.4.05-.24-.32-.29-.38-.06zM340.65 119.05l.04.74-.04-.74z" fill="#fff"/><path d="M340.7 119.74l.17.31-.18-.3zM340.77 118.62l-.13.47.13-.47zM299.25 143.54c1.25.07 2.5.16 3.75.26l.12.04c1.17.1 2.35.18 3.52.27 1.6.15 3.18.31 4.77.49.04.05.1.1.2.1 2.6.28 5.17.84 7.63 1.7.52.19.87-.6.35-.77-2.2-.73-4.46-1.2-6.77-1.4a.31.31 0 00-.3-.26c-4.39-.4-8.8-.63-13.21-.8-.24-.02-.3.36-.06.38zM142.44 91.03l-.78-.67.78.67zM141.7 90.38l-.77-.68.77.68zM140.96 89.73l-.78-.68.78.68zM193.41 63.31l1.05.51-1.05-.51zM191.82 62.43l1.04.51-1.04-.51zM190.23 61.55l1.04.5-1.04-.5zM131.16 36.92c18.77 4.67 36.1 13.09 53.24 21.85 4 2.04 7.9 4.26 11.86 6.34l.07.13.59.4.43.1.06-.03 1.3.68c.3.14.47-.29.2-.44-.52-.31-1.06-.6-1.59-.91v-.02l-.38-.2c-3.54-2-7.16-3.88-10.76-5.78-4.27-2.25-8.53-4.53-12.87-6.67-1.8-.9-3.6-1.77-5.43-2.63l-2.9-1.51c-.34-.18-.73-.26-1.11-.35l-.44-.2c-.14-.14-.27-.29-.44-.36-3.62-1.52-7.25-3.03-10.89-4.52-.2-.08-.4-.12-.62-.15l-1.2-.47a1.03 1.03 0 00-.21-.1l-.52-.18c-.95-.36-1.9-.72-2.87-1.06a163.53 163.53 0 00-15.39-4.75c-.52-.14-.65.7-.13.83z" fill="#fff"/><path d="M194.42 63.8l.62.41-.62-.4zM189.65 61.16l.61.4-.61-.4zM183 57.79l.63.4-.62-.4zM179.83 56.03l.62.4-.62-.4zM137.52 38.34l.45.12-.45-.12zM137.95 38.45l.45.13-.45-.13zM138.37 38.57l.46.12-.46-.12zM138.8 38.68l.45.12-.45-.12zM139.22 38.8l.46.12-.46-.12zM257 135.77l3.6.35c.34.14.68.17 1.04.1l.42.05c.4.2.82.22 1.25.11l.2.02c.29.17.59.2.9.09l2.1.2c.16 0 .2-.24.04-.26-3.16-.38-6.32-.73-9.49-1.08-.27-.03-.34.4-.06.42zM73.1 126.82c-.09.09.06.25.16.16.93-.81 1.9-1.58 2.87-2.32 0 .02-.02.03-.03.05.6-.37 1.29-.62 1.68-1.24a67.04 67.04 0 016.08-3.8c.15-.08 0-.34-.15-.27a41.77 41.77 0 00-10.6 7.42zM190.95 68.65l3.64.54c.38.15.78.2 1.18.17 2.27.34 4.54.68 6.8 1.07.28.04.34-.37.07-.42-3.84-.76-7.7-1.5-11.58-2.07-.46-.07-.57.65-.1.71zM193.36 68.78l-.46-.13.46.13z" fill="#fff"/><path d="M193.79 68.9c-.16-.05-.31-.1-.47-.13l.47.12z" fill="#fff"/><path d="M194.21 69l-.46-.12.46.13z" fill="#fff"/><path d="M250.6 279.36c.07-.96.3-1.87.79-2.7a6.7 6.7 0 01-.8 2.7h.01zM250.59 279.36c.1.63-.12 1.18-.4 1.72h.02c-.09-.62.1-1.19.4-1.72h-.03zM249.34 284.03c-.03.05-.06.1 0 0-.03.1-.02.05 0 0zM249.66 282.99l.02.34-.13-.03.13-.31h-.02zM249.84 282.35l-.18.64h.02l.17-.64h-.01zM249.85 282.35l.18-.63H250c.14.27-.05.44-.17.63h.01zM250.03 281.72l.18-.64h-.02l-.18.64h.02zM200.84 291.1a9.3 9.3 0 01-3.24 1.85l3.24-1.86zM212.7 283.3a8 8 0 01-2.77 1.92c.83-.78 1.75-1.42 2.78-1.92zM192.93 295.54c-.57.47-1.18.85-1.92.99a3.9 3.9 0 011.92-1zM196.02 293.86c-.56.47-1.17.87-1.91 1a4.04 4.04 0 011.91-1zM190.63 296.75c-.42.41-.9.72-1.51.76.43-.4.91-.7 1.51-.76zM202.96 289.76c-.35.44-.8.74-1.34.88.35-.43.8-.72 1.34-.88z" fill="#E4DDDD"/><path d="M209.96 285.2c-.35.46-.8.75-1.35.89.35-.44.8-.74 1.35-.88zM188.74 297.73c-.3.33-.66.53-1.12.53.3-.34.66-.54 1.12-.53z" fill="#E4DDDD"/><path d="M187.65 298.25c-.3.34-.66.54-1.12.53.3-.33.66-.53 1.12-.53z" fill="#E4DDDD"/><path d="M186.56 298.77c-.3.35-.66.53-1.12.53.3-.34.66-.53 1.12-.53zM183.29 300.33c-.3.34-.66.52-1.11.53.29-.34.66-.52 1.11-.53zM180.97 300.06c.32-.28.66-.53 1.11-.53-.31.3-.65.54-1.11.53zM179.07 301.04c.32-.28.67-.5 1.12-.53-.31.3-.67.52-1.12.53z" fill="#E4DDDD"/><path d="M185.47 299.3c-.3.33-.66.52-1.12.52.3-.33.66-.53 1.12-.53z" fill="#E4DDDD"/><path d="M184.38 299.81c-.3.34-.66.53-1.12.53.3-.33.67-.52 1.12-.53zM179.04 302.24c-.28.26-.6.42-1 .36.29-.26.6-.43 1-.36zM208.24 286.3c-.22.36-.54.56-.95.65.23-.34.55-.55.95-.65zM177.38 302.88c-.28.25-.6.41-1 .35.28-.27.6-.43 1-.35zM205.6 288.04l-.94.64c.23-.34.53-.56.94-.64zM175.72 303.51c-.29.26-.6.43-1 .36.28-.26.6-.44 1-.36zM206.92 287.17c-.23.34-.55.55-.94.65.23-.34.53-.57.94-.65zM204.28 288.9l-.94.65c.23-.34.54-.56.94-.65zM182.2 300.85c-.18.23-.4.37-.71.3l.71-.3zM181.11 301.37l-.71.3c.18-.23.4-.37.71-.3z" fill="#E4DDDD"/><path d="M180.42 301.66c-.18.23-.41.35-.71.3.18-.22.41-.35.71-.3z" fill="#E4DDDD"/><path d="M179.73 301.95a.73.73 0 01-.71.3c.18-.23.41-.35.71-.3zM178.07 302.59a.72.72 0 01-.71.3.7.7 0 01.7-.3zM176.4 303.22l-.7.3c.17-.24.4-.36.7-.3zM174.05 304.15c-.17.26-.4.37-.71.3l.71-.3z" fill="#E4DDDD"/><path d="M174.74 303.86c-.17.25-.4.38-.71.3l.71-.3zM207.32 286.94zM201.64 290.63l-.42.24.42-.24zM225 271.86l.24-.37c.09.23-.06.31-.24.37zM172.82 304.1l.43-.24-.43.24zM204.06 291.49c-.2.17-.4.39-.62.52-1.82 1.06-3.64 2.11-5.47 3.15-.23.13-.5.18-.76.26.18-.15.35-.32.55-.44a765.2 765.2 0 015.55-3.2c.23-.13.5-.2.75-.3zM195.34 296.4c-.41.43-.9.7-1.52.75.42-.42.92-.7 1.52-.76z" fill="#E4DDDD"/><path d="M196.83 295.64c-.42.42-.9.72-1.51.76.42-.41.9-.72 1.51-.76zM192.12 298.25l-.29.06-.18-.12c.28-.36.64-.55 1.1-.53l-.23.36-.4.23z" fill="#E4DDDD"/><path d="M193.21 297.73l-.47-.06c.28-.36.64-.55 1.1-.53l-.63.6zM219.4 273.58l-.42.24.42-.24zM260.42 260.02c-.15 1.1-.4 2.17-.85 3.19 0-1.14.33-2.2.85-3.19zM261.1 258.24c.08.42-.2.7-.4 1-.07-.42.2-.7.4-1z" fill="#E4DDDD"/><path d="M260.7 259.21c.12.35-.11.59-.28.84-.1-.35.12-.58.29-.84zM241.36 216.09c-.8.23-1.56-.06-2.33-.13-.46-.03-.92-.2-1.38-.32 1.26 0 2.5.1 3.7.45z" fill="#E4DDDD"/><path d="M244.69 216.3c-.94.27-1.86 0-2.8-.04-.18 0-.37-.11-.56-.17.8-.22 1.6.03 2.39.03.32 0 .65.12.97.19zM234.27 215.13l.12-.18.96.25.95.27-1.5.01-.53-.35zM280.43 220.12l-.49-.06.49.06zM222.15 249.17a180.14 180.14 0 0119.47-6.8l1.26-.35c.05 0 .1-.02.15-.04a223.7 223.7 0 012.1-.57c.72-.2 1.45-.39 2.17-.57.23-.06.12-.4-.1-.34a133.46 133.46 0 00-25.18 8.28c-.24.1-.12.5.13.4z" fill="#E4DDDD"/><path d="M245.94 241l.31-.06-.31.07z" fill="#E4DDDD"/><path d="M289.69 223.21c-1.76.72-3.5 1.46-5.33 1.99-.7.2-1.37.48-2.04.77a123.6 123.6 0 00-16.25 8.42 358.5 358.5 0 01-4.6 2.8c-.37.23-.79.44-1.22.54a25.7 25.7 0 01-5.93.85c-1.2 0-2.41.02-3.62.04-1.96.03-3.93.01-5.9.12-5.1.27-10 1.62-14.82 3.23-1.9.63-3.77 1.36-5.52 2.34-6 3.34-12.03 6.63-17.98 10.06-5.36 3.09-10.79 6-16.66 8.02-.17.06-.3.24-.44.35.13.44.44.47.76.49 1.03.05 2.07.16 3.1.15a95.47 95.47 0 0020.15-2.05 92.22 92.22 0 0016.85-5.33c5.93-2.59 11.52-5.8 16.94-9.32 2.72-1.77 5.47-3.5 8.2-5.22.3-.2.65-.3.98-.45-.18.18-.36.37-.56.52-2.38 1.88-4.78 3.74-7.16 5.63a100.88 100.88 0 00-16.75 16.97 17.76 17.76 0 01-5.38 4.6 72.01 72.01 0 01-10.52 4.83 271.75 271.75 0 00-15.87 6.33 81.05 81.05 0 00-15.63 9.27 38.1 38.1 0 00-5.08 4.7c-.78.88-1.48 1.82-2.2 2.75-1.11 1.45-2.19 2.93-3.32 4.36-1.28 1.62-2.56 3.25-4.08 4.67-.13.13-.2.33-.33.57.24.1.42.23.6.24.23 0 .46-.08.7-.14a138.07 138.07 0 0021.97-7.33c4.94-2.15 9.78-4.5 14.38-7.32a46.3 46.3 0 007.38-5.65c3.03-2.83 5.6-6.08 8.35-8.87-.4.59-.89 1.36-1.41 2.12a56.21 56.21 0 00-4.11 6.7 106.1 106.1 0 00-2.23 4.66 21 21 0 00-1.28 3.38 40.1 40.1 0 00-1.35 11.48c.12 2.83.12 5.65-.23 8.47-.01.09.05.19.1.35l.59.16c.25-.3.52-.57.74-.87.6-.85 1.2-1.69 1.75-2.56 1.7-2.68 3.4-5.37 5.06-8.07a36.43 36.43 0 003.1-5.85 57.41 57.41 0 003.44-13.82 67.4 67.4 0 012.26-10.93c.31-1.1.63-2.2 1.1-3.23a16.9 16.9 0 013.74-5.53c.43-.4.82-.84 1.22-1.26 2.67-2.75 5.34-5.5 8.28-7.96a48.83 48.83 0 003.92-3.53 60 60 0 018.65-7.36 343.3 343.3 0 006.93-5.08 7.22 7.22 0 012.44-1.3 4.84 4.84 0 002.32-1.3c.25-.27.64-.4.98-.56l2.93-1.3.77-.3c-.31.31-.45.46-.61.6a63.71 63.71 0 00-7.52 7.96c-.85 1.04-1.63 2.14-2.44 3.21a52.16 52.16 0 00-5.6 9.18 78.47 78.47 0 00-3.1 7.89c-1.38 3.98-2.67 7.98-3.33 12.16l-2.2 14.11c-.05.3-.1.62.2.9.5.24.8-.15 1.08-.49 1.06-1.31 2.14-2.62 3.15-3.97 3.44-4.6 5.9-9.72 7.9-15.08a262.34 262.34 0 005.46-16.83 50.94 50.94 0 014.6-11.05c1.5-2.61 3.14-5.12 5.21-7.32a40.04 40.04 0 019.74-7.8 55.29 55.29 0 016.76-3.12 139.2 139.2 0 0114.6-4.95c2.16-.58 4.34-1.1 6.47-1.81 1.17-.4 2.37-.67 3.56-1-.3.27-.58.55-.9.8-.95.75-1.92 1.47-2.87 2.21-3 2.34-5.61 5.1-8.37 7.7a39.1 39.1 0 00-4.94 5.71c-2.24 3.15-4.4 6.35-6.6 9.54a49.02 49.02 0 00-5.26 10.18 45.77 45.77 0 00-2.92 10.65c-.44 3.46-.77 6.93-1.14 10.4-.02.13-.05.27-.02.4.04.23.11.45.16.62.43.27.74.14 1.01-.1.2-.18.38-.4.56-.62 1.6-1.9 3.16-3.83 4.81-5.68a94.7 94.7 0 009.04-11.7c1.2-1.86 2.4-3.7 3.56-5.6.74-1.2 1.43-2.44 2.06-3.7a425.5 425.5 0 004-8.07c1.25-2.61 2.53-5.21 3.65-7.88a61.1 61.1 0 016.31-11.62 38.2 38.2 0 013.7-4.46 4.3 4.3 0 012.5-1.33c.48-.07.96-.17 1.43-.27l4.26-.87c1.65-.36 3.29-.79 4.95-1.1 5.3-1 10.52-2.3 15.68-3.82 5.23-1.54 10.45-3.14 15.8-4.2.6-.13 1.1-.4 1.45-.92.17-.25.43-.44.63-.67.19-.2.37-.4.52-.63.05-.06 0-.19-.02-.33l-.88-.1c-.39-.46-.39-.46-.97-.73-.28.16-.6.34-.92.54a23.1 23.1 0 01-6.57 2.97c-2.6.7-5.23 1.28-7.85 1.88-5.19 1.16-10.37 2.35-15.57 3.44-4.7.99-9.35 2.15-13.99 3.39a327.23 327.23 0 00-19.7 6.01c-1.03.35-2.07.54-3.15.55-.62 0-1.24 0-1.86-.02-3.53-.14-7-.86-10.43-1.54-3.31-.65-6.55-1.68-9.82-2.53-2.03-.54-4.07-1.08-6.11-1.57a38.27 38.27 0 00-6.86-.97 117 117 0 00-16.86.24c-3.95.35-7.9.86-11.83 1.35-1.78.23-3.54.58-5.3.88-.27.05-.58.05-.6.45.14.36.5.41.82.53 4.08 1.5 8.16 3 12.23 4.52a70.07 70.07 0 0026.7 4.3 98.74 98.74 0 0015.52-1.83c3.45-.65 6.9-1.3 10.36-1.93-.33.16-.66.34-1 .48-1.74.68-3.49 1.32-5.21 2.02zm-67.35 48.9c-.16.16-.3.34-.49.46-1.16.75-2.3 1.5-3.5 2.2-1.3.76-2.65 1.47-3.98 2.19-.3.15-.63.25-.94.38-.47.3-.9.62-1.4.86-3.9 1.97-7.83 3.89-11.72 5.87-1.78.9-3.53 1.85-5.26 2.84-.04-.1-.15-.16-.26-.09a244.08 244.08 0 00-18.94 12.91c2.02-2.28 4.1-4.49 6.71-6.15 1.77-1.13 3.46-2.39 5.2-3.55a79.16 79.16 0 018.22-4.86l.06-.01c3.7-1.64 7.38-3.3 11.06-4.96a143.63 143.63 0 005.5-2.6l.6-.3.22.03c.25-.18.49-.37.75-.53l.07-.04a77.6 77.6 0 003.12-1.73c1.4-.82 2.78-1.68 4.15-2.57l.83-.35zm-40.24 20.04a74.65 74.65 0 0112.12-8.6c1.85-1.07 3.83-1.92 5.78-2.78 5.91-2.59 11.92-4.94 18-7.11l2.06-.74c-2.35 1.4-4.7 2.8-7.13 4.05-3.54 1.81-7.23 3.37-10.85 5.02l-4.58 2.1-.21.09-1.36.62a.2.2 0 00-.1.1 75.9 75.9 0 00-9.19 5.44c-1.4 1-2.84 1.96-4.28 2.9a25.93 25.93 0 00-4.6 3.83c-.37.38-.75.76-1.14 1.12a41.39 41.39 0 015.48-6.04zm-9.28 11.5a26.68 26.68 0 014.48-3.47c1.76-1.14 3.51-2.3 5.27-3.45.64-.41 1.27-.84 1.92-1.21l11.95-6.79c.46-.26.93-.5 1.4-.75.04.02.09.03.14 0 5.31-2.9 10.64-5.8 15.84-8.9l.98-.5c-.28.26-.56.53-.86.76-3.18 2.36-6.54 4.46-9.84 6.63-2.4 1.56-4.7 3.25-7.13 4.76l-.89.54c-.03 0-.06 0-.1.02-3.27 1.85-6.55 3.69-9.82 5.55-3.22 1.83-6.43 3.69-9.73 5.37-1.32.67-2.65 1.3-3.99 1.94.05-.21.23-.34.38-.5zm-.6 1.01l.06-.09c2.89-1.3 5.75-2.62 8.5-4.18l3.4-1.93.24-.1c3.55-2.05 7.12-4.06 10.64-6.15l1.11-.64a.16.16 0 00.06-.06l.8-.48c2.66-1.6 5.15-3.48 7.77-5.13 6.07-3.84 11.86-8.07 17.68-12.26l2.54-1.78c-.04-.2.02-.33.23-.36l.5-.39v.22c-.42.52-.81 1.05-1.19 1.6-2.18 2-4.36 4-6.58 5.96-.94.82-1.91 1.6-2.9 2.38a216.57 216.57 0 01-13.68 8.96 192.26 192.26 0 01-18.95 10.08 292.7 292.7 0 01-9.61 4.23l-.61.12zm1.91-.11l-.71.17a195.93 195.93 0 0040.48-22.13l.18-.15c1.73-1.24 3.43-2.5 5.11-3.8.07-.05.08-.13.05-.19a97.97 97.97 0 003.95-3.33 76.25 76.25 0 01-13.77 12.57c-1.58 1.11-3.19 2.18-4.78 3.27l-.04.04-2.33 1.32c-1.73.98-3.48 1.94-5.24 2.86-2.99 1.56-6.03 3.04-9.08 4.49a133 133 0 01-13.82 4.88zm43.54-22.6c-1.03 1.1-2.15 2.13-3.23 3.2a35.82 35.82 0 01-6.43 5.03c-4.48 2.8-9.16 5.23-14.02 7.31-.24.1-.5.15-.75.22a132.54 132.54 0 009.16-5c1.77-1.04 3.48-2.19 5.24-3.24a.12.12 0 00.05-.14c1.14-.8 2.25-1.65 3.38-2.47a70.19 70.19 0 009.81-8.71c.1-.11.25-.18.38-.26-1.2 1.35-2.36 2.74-3.59 4.06zm3.67-4.15l.45-.69.14.12-.6.57zm4.54-6.63l-.1-.07.83-.79c-.25.28-.5.57-.73.86zm1.6-1.96c-1.13.9-2.3 1.75-3.4 2.67a59.45 59.45 0 01-6.4 4.54.19.19 0 00-.2-.02c-3.58 2.09-7.13 4.2-10.7 6.28l-5.99 3.4-.12.09-1.13.62c-.1.04-.21.08-.3.13-4.97 2.75-9.93 5.52-14.89 8.28-.3.17-.6.35-.88.54-2.53 1.65-5.07 3.3-7.6 4.97-.75.5-1.47 1.07-2.26 1.55l1.01-1.13c5.36-4.04 10.88-7.9 16.52-11.55 4.03-2.38 8.13-4.65 12.32-6.74 4.48-2.23 8.95-4.47 13.35-6.85a75.33 75.33 0 009.75-6.43c.5-.38 1.06-.67 1.6-1-.22.22-.44.46-.68.65zm-14.57 35.97a21.75 21.75 0 010-2.84c.22-2.55.54-5.08 1.19-7.56.36-1.37.9-2.67 1.56-3.93.94-1.77 1.76-3.59 2.73-5.34.79-1.43 1.72-2.79 2.59-4.18l.1.07-2.48 4.53a32.68 32.68 0 00-2.46 5.8 71.16 71.16 0 00-2.88 12.26c-.04.3-.1.61-.17.92-.02.05-.07.1-.18.27zm.1 4.26c.02-1-.1-1.95.08-2.9.52-2.81.95-5.65 1.62-8.43a53.8 53.8 0 013.32-10.2c.67-1.43 1.45-2.82 2.2-4.2.84-1.55 1.68-3.1 2.58-4.6a30.4 30.4 0 012.13-3.06c-.21.3-.43.61-.62.93-.7 1.18-1.44 2.35-2.1 3.55-.38.7-.65 1.45-.95 2.18-.61 1.5-1.23 2.99-1.82 4.5a70.5 70.5 0 00-2.6 8.05c-.45 1.8-.88 3.62-1.22 5.44a65 65 0 01-2.43 8.65c0 .02-.06.03-.19.1zm.15 1.42c.26-.93.54-1.86.86-2.77a56.56 56.56 0 002.21-8.38c.33-1.73.8-3.42 1.24-5.12.28-1.07.6-2.12.9-3.19.44-1.56.97-3.08 1.65-4.56a35.9 35.9 0 001.44-3.65c.7-2.08 1.8-3.93 3.18-5.67l-.48 1.28c-1.93 5.46-3.92 10.9-5.31 16.53-.51 2.06-1.3 4.06-1.97 6.09l-3.23 9.81c-.13.4-.28.77-.41 1.16-.34-.54-.21-1.05-.08-1.53zm5.58-9.57a37.96 37.96 0 001.94-5.12c.46-1.51 1-3 1.48-4.51.48-1.55 1-3.09 1.38-4.65.74-2.98 1.67-5.9 2.66-8.8.12-.34.3-.64.46-.96-.1.51-.18 1.04-.34 1.54a55.87 55.87 0 00-1.93 7.82c-.1.58-.22 1.15-.38 1.71-.69 2.5-1.35 5-2.13 7.45-.39 1.25-.97 2.43-1.52 3.62-.86 1.83-1.76 3.65-2.67 5.47-.49.98-1.03 1.93-1.6 2.87.77-2.2 1.66-4.34 2.65-6.44zm9.02-25.9c-.96 3.43-1.3 6.97-1.85 10.47-.75 4.8-2.19 9.4-4.49 13.7a58.8 58.8 0 01-4.16 6.7c1.45-2.89 2.82-5.55 4.12-8.24.47-.98.82-2.04 1.14-3.1.58-1.87 1.12-3.76 1.62-5.66.34-1.3.62-2.61.87-3.93.33-1.84.77-3.64 1.32-5.42.35-1.15.64-2.33.98-3.48.12-.42.3-.81.46-1.21v.16zm-4.53 11.19c-.47 1.65-1 3.3-1.52 4.94-.47 1.47-1 2.94-1.43 4.42a49.14 49.14 0 01-2.47 6.36c-.75 1.66-1.4 3.37-2.1 5.06-.31.72-.67 1.43-1.12 2.1.06-.25.1-.51.2-.76.87-2.58 1.74-5.16 2.65-7.73a63.71 63.71 0 002.02-6.4c1.01-4.2 2.44-8.27 3.89-12.33a68.04 68.04 0 013.26-8.04c.35-.71.68-1.43 1.09-2.12.16-.27.37-.52.6-.77l-.52 1.53c-.05.15.03.25.14.29-.37 1.1-.89 2.16-1.32 3.24-1.34 3.33-2.4 6.75-3.37 10.2zm11.42-24.17c.19-.48.35-.72.65-.83l-.65.83zm.7-.88l.47-.7a.82.82 0 01-.47.7zm1.9-1.9c.13-.4.28-.58.51-.68l-.51.69zm8.84-8.15c-2.7 2.42-5.51 4.7-8.04 7.3-.06.06-.16.09-.24.13a19.03 19.03 0 013.64-4c1.75-1.42 3.48-2.9 5.22-4.34.2-.15.42-.26.64-.4-.4.45-.78.92-1.22 1.31zm-21.34-6.27c1.76-.96 3.62-1.71 5.51-2.34 4.42-1.47 8.9-2.74 13.56-3.1 1.9-.15 3.79-.15 5.68-.2.26 0 .52.07.78.11-1.11.16-2.23.3-3.34.47-1.26.18-2.53.32-3.78.59-4.27.9-8.58 1.7-12.76 3l-5.7 1.83c-.26.09-.52.14-.78.2.28-.19.54-.4.83-.56zm-29.37 15.6c2.63-1.23 5.42-2.03 8.1-3.12a51.58 51.58 0 005.37-2.43l.82-.44c5.1-2.28 10.03-4.92 15.3-6.84.38-.13.72-.36 1.08-.55-.3.05-.6.07-.89.17a75.8 75.8 0 00-7.82 3.23c-1.34.64-2.7 1.23-4.03 1.87-1.71.81-3.4 1.68-5.12 2.47-1.75.8-3.52 1.56-5.3 2.33-.13.06-.3.06-.45.09.2-.16.4-.34.62-.46 4.79-2.68 9.58-5.35 14.38-8.01.72-.4 1.48-.74 2.24-1.07a98.46 98.46 0 0115.39-5.18c.36-.1.73-.19 1.1-.27l7.7-1.6c.75-.14 1.5-.24 2.27-.37l.1.32c.32-.04.66-.07.99-.14 1.67-.34 3.33-.7 5-1.03.15-.03.3 0 .46 0-.3.14-.59.3-.9.4-2.74.8-5.47 1.67-8.25 2.36-3.28.82-6.5 1.81-9.66 3.02-1.7.65-3.42 1.3-5.13 1.92-2.43.9-4.78 1.98-7.12 3.06-3.07 1.42-6.17 2.76-9.27 4.1-2.97 1.3-5.93 2.63-8.94 3.8-2.5.99-5.07 1.79-7.62 2.64-.4.13-.84.15-1.27.21.28-.16.56-.34.85-.47zm19.42-3.22l5.68-2.93c.89-.45 1.83-.82 2.7-1.31 3.01-1.74 6.17-3.2 9.3-4.71.53-.26 1.06-.5 1.61-.68 4.01-1.37 7.97-2.9 12.06-4.01.6-.16 1.2-.27 1.81-.4l.57-.21-.55.29c-.3.16-.59.35-.9.49-5.2 2.37-10.38 4.8-15.61 7.1a244.71 244.71 0 01-15.95 6.3c-.23.07-.47.1-.7.15l-.78.24.76-.32zm-.86-.2a84.66 84.66 0 01-11.01 3.12l-.45.07c.26-.12.51-.25.78-.33 1.52-.47 3.03-.95 4.56-1.35a57.9 57.9 0 0010.43-3.96c1.86-.9 3.74-1.76 5.61-2.63.26-.12.54-.17.82-.25-.27.19-.52.4-.8.54-1.1.57-2.2 1.12-3.32 1.67-1.23.61-2.46 1.22-3.7 1.81-.97.46-1.92.97-2.92 1.3zm8.7-4.9c-1.82.85-3.63 1.7-5.43 2.56a51.78 51.78 0 01-8.72 3.25c-2.4.65-4.77 1.38-7.16 2.04-.76.21-1.55.36-2.33.5-.31.06-.65.04-.97.05.29-.15.57-.32.88-.42 3.72-1.2 7.32-2.68 10.87-4.3 3.3-1.5 6.63-2.92 9.95-4.38.31-.13.64-.26.94-.42 5.5-2.78 11.32-4.77 17.11-6.8 2.37-.83 4.86-1.32 7.3-1.95.08-.03.17 0 .27 0-.26.14-.5.31-.78.42l-9.02 3.62c-4.4 1.76-8.64 3.82-12.92 5.83zm-29.34 10.2c-.5.05-1.03-.03-1.56-.18l.51-.13a49.4 49.4 0 016.74-1.1c.34-.04.68-.13 1.02-.2-2.16.85-4.4 1.41-6.7 1.62zm53.53-16.21c-9.58 6.4-19.89 11.18-31.17 13.74-2.55.58-5.14 1.03-7.71 1.52-.34.07-.7.03-1.05.04.34-.11.67-.24 1.01-.31 1.52-.34 3.04-.66 4.55-.98a58.48 58.48 0 008.14-2.34c1.9-.7 3.83-1.37 5.72-2.11 1.89-.75 3.76-1.54 5.62-2.37 2.51-1.12 5.04-2.23 7.5-3.47 2.49-1.25 4.9-2.65 7.36-3.98.3-.17.63-.31.94-.47-.3.25-.59.51-.9.73zm4.3-3.37a35.91 35.91 0 01-5.23 2.7c-1.7.74-3.4 1.53-5.07 2.32a227.03 227.03 0 01-18.47 8.02c-1.68.62-3.41 1.1-5.12 1.65-.38.13-.75.3-1.12.46.26-.02.54 0 .8-.07 2.37-.6 4.7-1.3 6.97-2.24.98-.41 1.98-.8 2.98-1.18 2.49-.91 4.86-2.1 7.28-3.17 3.59-1.59 7.09-3.36 10.65-4.99.35-.16.74-.23 1.12-.34-.18.13-.35.27-.55.38-2.7 1.53-5.43 3-8.28 4.25-1.1.48-2.2.98-3.28 1.52-3.98 2.02-8.17 3.52-12.34 5.07a65.47 65.47 0 01-10.75 3c-2.65.5-5.28 1.06-7.92 1.57-.45.1-.92.06-1.38.07l.37-.21c-.33 0-.67-.02-1 .03-1.19.19-2.37.4-3.55.6.41-.16.82-.35 1.25-.43 1.59-.33 3.19-.6 4.78-.91a85.63 85.63 0 0013.44-3.77c4.45-1.69 8.88-3.44 13.3-5.2 1.54-.62 3.02-1.38 4.53-2.06l16.42-7.39c.3-.13.62-.2.94-.29-.26.2-.5.43-.78.6zm5.59-3.46c-1.13.5-2.29.94-3.43 1.43a57.9 57.9 0 01-6.12 2.15c-2.56.77-5.1 1.64-7.65 2.46-.33.1-.67.17-1.01.24.24-.13.48-.29.74-.4 2.4-.95 4.79-1.9 7.18-2.87.25-.1.47-.26.7-.4.32-.06.66-.07.97-.18 1.78-.64 3.56-1.28 5.32-1.96a9.73 9.73 0 013.28-.8c.37 0 .74-.08 1.1-.13-.26.37-.72.3-1.08.46zm-1.26 3.65l-3.22 2.41c-.1.07-.2.12-.32.17.33-.32.63-.66.98-.94.69-.56 1.4-1.08 2.11-1.6.26-.18.56-.3.84-.43-.13.13-.25.28-.4.4zm1-.87l.82-.56c-.21.28-.47.5-.82.56zm.95-.67a6.92 6.92 0 012.6-1.78l-2.6 1.78zm16.93-7.26l-.5.69a.81.81 0 01.5-.7zm-13.31 23.13a69.93 69.93 0 00-1.77 6.25c-.06.14-.12.29-.16.44a78.97 78.97 0 01-4.25 11.1c-1.08 2.34-2.23 4.65-3.36 6.98-.1.21-.26.4-.46.56l.15-.37a35.54 35.54 0 001.97-6.74c.2-1 .54-1.99.83-2.98l1.44-5.07c.7-2.53 1.35-5.07 2.4-7.48.81-1.9 1.67-3.79 2.48-5.69.42-.98.77-2 1.18-2.98.2-.47.45-.93.73-1.36 1.02-1.56 2.03-3.13 3.11-4.64.74-1.03 1.6-1.97 2.45-2.92a66.36 66.36 0 00-3.75 7.66c-.05 0-.1.03-.12.1a75.05 75.05 0 00-2.87 7.14zm12.14-21.72l-2.71 3.18c.63-1.27 1.73-2.18 2.7-3.18zm-24.32 48.5c-.02-.1.02-.2.04-.3.7-4.54 1.3-9.1 2.35-13.56.72-3.04 1.84-5.93 2.94-8.84.8-2.16 1.67-4.3 2.61-6.41a47.07 47.07 0 015.68-9.37c.77-1.01 1.53-2.04 2.33-3.03a67.9 67.9 0 017.72-8.2l3.08-2.77c.1-.1.24-.17.36-.25-.91.94-1.81 1.9-2.75 2.82a118.15 118.15 0 00-7.79 8.28 39.05 39.05 0 00-4.39 6.38 133.7 133.7 0 01-1.85 3.22 41.52 41.52 0 00-3.05 6.78c-.63 1.7-1.14 3.46-1.68 5.2-.28.93-.52 1.86-.8 2.79-.3 1.04-.57 2.09-.8 3.15a132.58 132.58 0 00-3.91 14.41l-.09-.3zm.1 1.95a237.1 237.1 0 012.45-9.75l-.01.05c.63-1.05.86-2.25 1.2-3.4.11-.36.17-.74.24-1.11.07-.49.16-.97.25-1.46l.12-.39a.14.14 0 000-.1c.66-3.21 1.65-6.33 2.7-9.42a46.15 46.15 0 014.4-9.57c1.04-1.67 2.05-3.36 3.1-5.03 1.35-2.17 3.1-4.05 4.82-5.93a76.46 76.46 0 013.84-3.9c-.04.08-.07.18-.13.25-1.35 1.79-2.7 3.58-4.07 5.35-1.22 1.58-2.5 3.12-3.7 4.72a27.42 27.42 0 00-3.3 5.48l-3.34 7.8c-1.04 2.42-1.72 4.95-2.41 7.48-.48 1.73-.99 3.44-1.46 5.18-.42 1.56-.84 3.12-1.22 4.7a28.5 28.5 0 01-1.3 4.25c-.38.92-.71 1.87-1.04 2.81a7.38 7.38 0 01-1.15 2zm-.32 1.4l.16-.7c.1-.18.24-.36.42-.56-.01.64-.3.95-.58 1.25zm15.66-33.42c-1.49 4.95-3.05 9.88-4.83 14.74-1 2.72-2.19 5.36-3.58 7.9a95.05 95.05 0 01-3.03 5.17 35.7 35.7 0 01-2.77 3.65c.08-.25.13-.5.24-.74.16-.34.36-.66.54-1 1.93-3.54 3.68-7.17 5.32-10.85 1.33-3 2.48-6.06 3.32-9.23.05-.18.05-.38.06-.57a97.33 97.33 0 011.84-5.63c.45-.8.74-1.67 1.03-2.54a56.84 56.84 0 011.78-4.6 91.34 91.34 0 012.35-4.98 28.39 28.39 0 014.45-6.65c-.12.3-.16.47-.25.6-2.94 4.57-4.9 9.55-6.47 14.73zm10.21-20.02c.2-.27.34-.59.69-.7l-.69.7zm4.75-4.57c-.93.82-1.83 1.69-2.98 2.24.39-.74.97-1.28 1.65-1.74.29-.2.54-.43.82-.62.3-.2.62-.37 1.04-.42-.17.18-.34.37-.52.54zm3.8-1.97c-.94.63-1.88 1.26-2.84 1.87-.2.13-.4.22-.61.32.48-.9 1.2-1.51 2.15-1.87l1.73-.66c-.14.12-.27.24-.42.34zm84.74-26.19c-.54.41-.93.53-1.36.47.32-.28.7-.4 1.36-.47zm-.23-.67c-.32.49-.74.5-1.13.57.27-.3.57-.53 1.13-.57zm-1.9 1.46l-.87.3c.25-.22.53-.35.87-.3zm-30.8 8.37c1.35-.32 2.73-.5 4.1-.72-.22.11-.44.25-.68.3-2.24.55-4.48 1.07-6.73 1.6-.15.03-.3 0-.47 0 1.26-.4 2.5-.88 3.79-1.18zm-3.83 1.2c-.52.37-1.15.38-1.75.5a3.84 3.84 0 011.75-.5zm-36.04 28.14c1.88-2.68 3.7-5.4 5.65-8.02a43.34 43.34 0 016.2-6.62c.63-.55 1.27-1.08 1.9-1.61-.15.2-.3.4-.47.57a76.62 76.62 0 00-7.78 8.81c-2 2.63-4.03 5.24-6.09 7.84.2-.33.38-.66.6-.97zm16.6-9.57c-.38.88-.73 1.76-1.13 2.63-1.97 4.21-3.91 8.44-5.95 12.62a71.03 71.03 0 01-3.18 5.69c-1.11 1.82-2.34 3.58-3.51 5.36a79.35 79.35 0 01-6.94 8.75 178.36 178.36 0 01-4.67 5.11c.3-.44.56-.91.89-1.33 1.23-1.57 2.5-3.12 3.74-4.68.58-.73 1.16-1.45 1.73-2.19 2.79-3.6 5.32-7.38 7.72-11.25.37-.58.64-1.22.99-1.81 1.15-1.97 2.34-3.9 3.46-5.89.65-1.17 1.2-2.4 1.75-3.62a92.72 92.72 0 014.76-9.17l.2-.3.14.08zm10.43-15.85c-.42.44-.83.9-1.27 1.33a34.28 34.28 0 00-5.51 7.21c-1.55 2.69-3 5.44-4.73 8.02-1.69 2.53-2.95 5.31-4.21 8.07a52.43 52.43 0 01-3.61 6.86c-1.05 1.61-1.89 3.37-2.83 5.05-.33.6-.67 1.2-1.04 1.79-1.92 2.99-3.93 5.93-6.08 8.76-1.27 1.67-2.63 3.28-3.91 4.94-1.05 1.37-2.05 2.77-3.06 4.17-.42.58-.8 1.2-1.33 2-.1-.74-.07-1.22.18-1.68.12-.21.25-.41.39-.62 1.63-2.47 3.3-4.93 4.9-7.43 1.04-1.63 1.97-3.32 2.95-4.99.67-1.16 1.32-2.34 2-3.5 1.48-2.49 2.99-4.97 4.46-7.46.72-1.22 1.39-2.47 2.08-3.7.38-.66.75-1.32 1.14-1.97l6.05-10.13c.16-.26.32-.52.5-.78 1.2-1.85 2.44-3.68 3.63-5.54a49.38 49.38 0 014.25-5.6c1.17-1.36 2.4-2.68 3.56-4.04.4-.47.87-.75 1.49-.76zm-1.86.55c-.5.59-.99 1.19-1.51 1.75a56.68 56.68 0 00-7.18 9.33c-.56.95-1.2 1.86-1.8 2.78a114.64 114.64 0 00-4.75 7.88c-.3.55-.64 1.07-.97 1.6-1.66 2.58-3.2 5.23-4.63 7.95-.32.6-.7 1.19-1.08 1.76-1.8 2.7-3.33 5.56-4.9 8.4-.56.99-1.14 1.96-1.7 2.96a137 137 0 01-6.5 10.32c-.04.06-.1.1-.31.33.28-.64.48-1.07.66-1.52.46-1.15 1-2.27 1.33-3.46.65-2.3 1.49-4.52 2.46-6.7.54-1.19 1.02-2.4 1.5-3.62a23.45 23.45 0 011.95-3.88c1.04-1.66 2.01-3.38 3.1-5 1.8-2.67 3.66-5.28 5.49-7.9 1.14-1.65 2.28-3.3 3.46-4.91.93-1.28 1.93-2.51 2.9-3.77.81-1.07 1.65-2.12 2.42-3.22a56.48 56.48 0 015-6.19c1.02-1.11 2.02-2.25 3.1-3.32.59-.58 1.3-1.05 1.96-1.57zm-1.77.8c-.3.3-.61.61-.93.9-.16.15-.35.27-.56.36.38-.57.8-1.08 1.5-1.26zm-4.78 5.34c-1.39 1.58-2.62 3.28-3.86 4.99-1.33 1.83-2.78 3.59-4.18 5.38l-.44.58-6.57 9.42c-.79 1.13-1.66 2.2-2.41 3.36a244.3 244.3 0 00-4.67 7.45c-.54.91-.86 1.95-1.29 2.93-.74 1.7-1.51 3.4-2.21 5.12a36.18 36.18 0 00-1.24 3.51 42.85 42.85 0 01-1.71 4.77c-.05.11-.14.21-.36.54.08-.95.16-1.66.19-2.38.04-1.04.2-2.04.68-3 .22-.45.38-.96.53-1.45 1.16-3.8 2.85-7.4 4.63-10.93.3-.62.7-1.2 1.09-1.77 1.87-2.81 3.72-5.64 5.63-8.43 1.06-1.53 2.21-3 3.34-4.47 1.38-1.81 2.79-3.6 4.16-5.4 2.11-2.78 4.17-5.58 6.46-8.2.97-1.12 2.04-2.15 3.08-3.21.1-.11.25-.18.38-.26-.41.48-.8.98-1.23 1.46zm-.02-.84a40.9 40.9 0 00-3.81 4.34l-4.57 5.88c-1.35 1.74-2.66 3.5-4.05 5.22-3.68 4.58-6.8 9.54-10.07 14.4-1.22 1.82-2.05 3.83-2.95 5.8a47.9 47.9 0 00-2.7 6.92 18.3 18.3 0 01-.22-.03c.13-.77.25-1.55.42-2.32a51.6 51.6 0 013.62-10.64c.35-.75.73-1.49 1.15-2.2.74-1.29 1.47-2.58 2.3-3.8.94-1.4 1.98-2.74 2.99-4.1.3-.41.65-.8.94-1.23 1.28-1.93 2.78-3.68 4.24-5.47l1.88-2.33a77.28 77.28 0 016.77-7.25c1.03-.97 1.99-2.01 3.05-2.95.94-.84 1.98-1.59 3.09-2.25l-2.08 2.01zm2.6-4.96a1.6 1.6 0 01-1.2.38l1.2-.38zm-1.22.39c-.35.3-.78.37-1.22.39.35-.31.77-.41 1.22-.4zm-21.07 3.96c-.49.07-.97.2-1.45.2-1.84.02-3.68.02-5.51.02a.13.13 0 00-.06-.02l-3.13-.06h-.07l-1.04-.03a741.37 741.37 0 01-22.73-.88l-1.36-.07-5.72-.33a81.68 81.68 0 01-10.18-1.59c-1.98-.44-3.98-.8-5.97-1.2 3.9.37 7.83.61 11.74.85l.03-.01c1.57.16 3.14.3 4.72.45 2.57.24 5.15.44 7.72.67 1.65.14 3.3.32 4.94.45a282.59 282.59 0 0010.62.67c2.69.1 5.37.22 8.06.23 2.48.02 4.96.02 7.42.38.65.1 1.31.18 1.97.27zm-6.44.71c-.32.04-.63.09-.95.11-4.4.32-8.8.39-13.2.2-4.17-.18-8.33-.33-12.49-.6-1.99-.12-3.96-.48-5.94-.74-.19-.02-.38-.09-.56-.13.12-.04.24-.09.36-.08l.98.02c7.72.54 15.46.79 23.18.89l4.68.03c.17.04.35.05.53 0h.49c.48.17.99.07 1.48.13l1.44.17zm-25.02-7.44c2.88 0 5.74.2 8.57.78.27.06.54.16.8.24-.28-.01-.56-.02-.85-.05l-8.41-.75c-.22-.02-.44-.08-.66-.12.18-.04.37-.1.55-.1zm-7.32.1c.26-.05.53-.12.8-.12h4.38c.24 0 .48.07.72.11-.31.03-.63.07-.95.07-1.24.03-2.48.06-3.72.07-.4 0-.82-.06-1.23-.09l-.52-.02.52-.03zm-7.87.75c1.72-.08 3.44-.17 5.16-.2 2.28-.05 4.55-.04 6.83-.06 4.8-.05 9.56.53 14.31 1.21 4.38.63 8.65 1.72 12.9 2.93 1.05.3 2.14.48 3.22.71l.78.2c-.89.2-1.77.05-2.65-.07-3.17-.43-6.35-.9-9.52-1.34l-6.86-.94c-1.92-.27-3.83-.53-5.73-.84a99.34 99.34 0 00-11.85-.92c-2.17-.08-4.34-.2-6.5-.33-.33-.02-.64-.13-.95-.2.28-.05.57-.13.86-.15zm-13 .96l.15-.03c.33-.06.66-.17 1-.19a68.4 68.4 0 0111.25.02c2.15.22 4.33.3 6.5.34 4.72.09 9.43.3 14.09 1.14 1.32.24 2.66.37 3.99.56l12.48 1.75c.2.03.38.09.56.13-.29.05-.58.12-.86.11l-8.58-.36c-.2 0-.4-.04-.61-.04-4.56.01-9.08-.63-13.62-.9-3.62-.22-7.21-.62-10.81-.99-1.44-.14-2.89-.22-4.33-.31-.17-.01-.34.01-.5.04-3.57-.37-7.13-.8-10.69-1.19l-.03-.08zM281 222.9a69.78 69.78 0 01-21.28.52 66.1 66.1 0 01-11.16-2.52c-.24-.07-.47-.18-.71-.27.25.01.5.02.76.05 4 .54 7.98 1.25 12 1.6 6.5.57 13.01.9 19.53.4.5-.03 1 .01 1.49.02-.21.07-.42.16-.63.2zm2.8-.81c-1 .03-2 .11-3 .19-4.24.32-8.47.22-12.71.11-5.88-.15-11.69-.89-17.49-1.72a48.15 48.15 0 01-10.3-2.62c-1.73-.66-3.5-1.23-5.26-1.84-.24-.09-.47-.2-.71-.31 1.03 0 1.98.33 2.93.7v.01c.35.19.7.33 1.11.23.32.12.63.27.96.35 6.84 1.7 13.82 2.62 20.8 3.45 2.5.3 5.02.36 7.54.45 3.48.14 6.96.25 10.45.28 4.83.06 9.65-.3 14.46-.82.37-.04.75 0 1.13 0-3.29.64-6.55 1.41-9.92 1.54z" fill="#E4DDDD"/><path d="M196.36 262.92c4-.55 7.98-1.3 11.9-2.22l.13-.03c3.39-.81 6.75-1.76 10.07-2.87.17-.06.09-.32-.08-.27-.84.25-1.68.5-2.51.73-.37 0-.7.1-1.01.27l-.73.2c-.34.03-.67.1-.98.26a149.92 149.92 0 01-16.81 3.39c-.34.04-.33.58.02.54z" fill="#E4DDDD"/><path d="M209.66 260.17l-.31.06.3-.06zM205.53 261.16l-.32.06.32-.06zM202.94 261.68l-.31.07.31-.07zM202.66 261.74l-.32.06.31-.06z" fill="#E4DDDD"/></svg>