<svg width="540" height="406" fill="none" xmlns="http://www.w3.org/2000/svg"><g clip-path="url(#clip0)" fill="#fff"><path d="M50.72 400.46c-.44-.44-.86-.9-1.22-1.42a9.39 9.39 0 0115.61-10.43 9.35 9.35 0 01-2.58 13 9.4 9.4 0 01-11.81-1.15zm-23.38-43.73a9.35 9.35 0 013-15.33c4.8-1.99 10.25.26 12.25 5.05a9.4 9.4 0 01-5.08 12.28 9.43 9.43 0 01-10.17-2zm-14.4-47.43a9.55 9.55 0 01-2.64-4.92 9.36 9.36 0 1118.38-3.63 9.38 9.38 0 01-15.74 8.54zM8.1 259.92a9.44 9.44 0 01-2.8-6.73 9.33 9.33 0 019.35-9.35A9.33 9.33 0 0124 253.2a9.33 9.33 0 01-9.35 9.35 9.22 9.22 0 01-6.55-2.62zm4.9-49.37a9.31 9.31 0 01-2.7-8.55 9.37 9.37 0 0111.03-7.35 9.37 9.37 0 11-8.34 15.9zm14.44-47.44a9.33 9.33 0 01-2.17-10.36 9.42 9.42 0 0112.24-5.1 9.39 9.39 0 015.08 12.28 9.35 9.35 0 01-12.25 5.04 8.83 8.83 0 01-2.9-1.86zm23.43-43.73a9.38 9.38 0 1114.22-1.58 9.37 9.37 0 01-12.97 2.62c-.44-.34-.86-.65-1.25-1.04zm31.28-38.53a9.4 9.4 0 010-13.26 9.4 9.4 0 0113.26 0 9.4 9.4 0 010 13.26 9.4 9.4 0 01-13.26 0zm38.37-31.43a9.39 9.39 0 1114.42-11.88 9.4 9.4 0 01-14.42 11.88zm43.79-23.38a9.72 9.72 0 01-2.1-3.08 9.43 9.43 0 01.03-7.18 9.54 9.54 0 015.04-5.1 9.35 9.35 0 0112.25 5.1 9.38 9.38 0 01-15.23 10.25zm47.51-14.37a9.12 9.12 0 01-2.64-4.87 9.4 9.4 0 017.35-11.03 9.41 9.41 0 0111.03 7.4 9.36 9.36 0 01-15.74 8.5zm49.4-4.87A9.26 9.26 0 01258.4.1a9.33 9.33 0 019.35-9.35 9.33 9.33 0 019.34 9.34 9.33 9.33 0 01-9.34 9.35 9.03 9.03 0 01-6.53-2.64zm49.4 4.92a9.31 9.31 0 01-2.69-8.54 9.37 9.37 0 112.7 8.54zm47.49 14.45a9.37 9.37 0 01-2.15-10.39 9.37 9.37 0 115.05 12.25 9.6 9.6 0 01-2.9-1.86zm136.87 136.86a9.43 9.43 0 013-15.38 9.42 9.42 0 0112.27 12.28 9.37 9.37 0 01-5.07 5.07 9.37 9.37 0 01-10.2-1.97zM401.92 49.57a9.38 9.38 0 1112.91-13.6 9.38 9.38 0 01-12.91 13.6zm69.68 69.63c-.47-.42-.86-.9-1.2-1.4a9.4 9.4 0 012.57-13.02 9.47 9.47 0 0113.05 2.59 9.65 9.65 0 011.4 7.04 9.37 9.37 0 01-15.82 4.79zm-31.52-38.35a9.4 9.4 0 010-13.26 9.4 9.4 0 0113.26 0 9.4 9.4 0 010 13.26 9.4 9.4 0 01-13.25 0z"/><path d="M484.75 399.46c.44-.44.85-.9 1.22-1.42a9.39 9.39 0 00-15.62-10.43 9.35 9.35 0 002.6 13 9.4 9.4 0 0011.8-1.15zm23.38-43.73a9.35 9.35 0 00-3-15.33 9.35 9.35 0 00-12.25 5.05 9.4 9.4 0 005.07 12.28 9.43 9.43 0 0010.18-2zm14.4-47.43a9.56 9.56 0 002.64-4.92 9.36 9.36 0 10-18.39-3.63 9.33 9.33 0 007.33 11 9.38 9.38 0 008.42-2.45zm4.84-49.38a9.44 9.44 0 002.8-6.73 9.33 9.33 0 00-9.35-9.35 9.33 9.33 0 00-9.35 9.35 9.33 9.33 0 009.35 9.35c2.46.02 4.79-.9 6.55-2.62zm-4.9-49.37a9.3 9.3 0 002.7-8.55 9.37 9.37 0 00-11.03-7.35 9.37 9.37 0 108.33 15.9zm-14.44-47.44a9.33 9.33 0 002.17-10.36 9.41 9.41 0 00-12.25-5.1 9.39 9.39 0 00-5.07 12.28 9.35 9.35 0 0012.25 5.05 8.84 8.84 0 002.9-1.87zm-23.44-43.73a9.38 9.38 0 10-14.21-1.58 9.37 9.37 0 0012.97 2.62c.44-.34.86-.65 1.24-1.04zm-31.27-38.53a9.4 9.4 0 000-13.25 9.4 9.4 0 00-13.26 0 9.4 9.4 0 000 13.25 9.4 9.4 0 0013.26 0zm-38.38-31.43a9.39 9.39 0 10-14.42-11.88 9.4 9.4 0 0014.42 11.88zm-43.78-23.38a9.7 9.7 0 002.1-3.08 9.43 9.43 0 00-.03-7.18 9.55 9.55 0 00-5.05-5.1 9.35 9.35 0 00-12.24 5.1 9.37 9.37 0 0015.22 10.25zm-47.51-14.37a9.12 9.12 0 002.64-4.87 9.4 9.4 0 00-7.35-11.03 9.41 9.41 0 00-11.03 7.4 9.36 9.36 0 0015.74 8.5zm-49.4-4.87a9.26 9.26 0 002.82-6.7 9.33 9.33 0 00-9.35-9.35 9.33 9.33 0 00-9.35 9.34 9.33 9.33 0 009.35 9.35c2.46.03 4.8-.9 6.53-2.64zm-49.4 4.92a9.3 9.3 0 002.69-8.54 9.37 9.37 0 10-2.7 8.54zm-47.5 14.45a9.36 9.36 0 002.16-10.39 9.37 9.37 0 10-5.05 12.25 9.58 9.58 0 002.9-1.86zM40.5 162.03a9.43 9.43 0 00-3-15.38 9.41 9.41 0 00-12.28 12.28A9.37 9.37 0 0030.3 164c3.5 1.48 7.5.68 10.2-1.97zm93.06-113.46a9.38 9.38 0 10-12.92-13.6 9.38 9.38 0 0012.92 13.6zM63.87 118.2c.47-.42.86-.9 1.2-1.4a9.4 9.4 0 00-2.57-13.02 9.46 9.46 0 00-13.05 2.59 9.64 9.64 0 00-1.4 7.04 9.37 9.37 0 0015.82 4.79zm31.51-38.35a9.4 9.4 0 000-13.25 9.4 9.4 0 00-13.25 0 9.4 9.4 0 000 13.25 9.4 9.4 0 0013.25 0z"/></g><defs><clipPath id="clip0"><path fill="#fff" d="M0 0h540v406H0z"/></clipPath></defs></svg>