<svg width="146" height="68" fill="none" xmlns="http://www.w3.org/2000/svg"><path d="M87.87 21.65a4.19 4.19 0 01-.77 1.77 4.6 4.6 0 01.78-1.77h-.01zM87.88 21.65c-.01-.44.18-.8.42-1.14h-.02c0 .43-.16.8-.41 1.14h.01zM89.13 18.57c.02-.03.05-.06 0 0 .03-.07.01-.03 0 0zM88.82 19.25l.02-.23c.03 0 .06.02.08.03l-.11.2zM88.65 19.67l.17-.42h-.01l-.18.42h.02zM88.63 19.67l-.17.42h.01c-.07-.2.08-.3.18-.42h-.02z" fill="#E4DDDD"/><path d="M88.46 20.09l-.18.42h.02l.17-.42zM122.8 17.89c.72-.48 1.5-.83 2.36-1l-2.36 1zM114.04 22.19a5.5 5.5 0 012.06-1.07 7.5 7.5 0 01-2.06 1.07zM128.57 15.53c.43-.27.88-.48 1.4-.51-.43.28-.88.49-1.4.51zM126.32 16.4c.43-.26.87-.48 1.39-.5-.42.27-.87.49-1.4.5zM130.24 14.9c.33-.24.68-.42 1.1-.39-.33.23-.68.4-1.1.4zM121.24 18.61c.28-.27.6-.43.99-.48-.28.27-.61.43-1 .48zM116.08 21.12c.27-.28.6-.43 1-.48-.29.27-.61.44-1 .48zM131.62 14.4c.23-.2.5-.31.8-.27-.23.2-.5.31-.8.26z" fill="#E4DDDD"/><path d="M132.4 14.13c.23-.2.5-.3.8-.26-.22.2-.49.3-.8.26z" fill="#E4DDDD"/><path d="M133.19 13.87c.23-.2.5-.3.8-.27-.23.21-.49.3-.8.27zM135.55 13.08c.23-.2.5-.3.8-.26a1 1 0 01-.8.26zM137.11 13.47c-.24.16-.5.3-.8.26.24-.18.49-.3.8-.26zM138.49 12.96c-.25.17-.5.3-.8.27.23-.19.49-.3.8-.27z" fill="#E4DDDD"/><path d="M133.98 13.6c.23-.2.5-.3.8-.26-.23.2-.5.3-.8.27z" fill="#E4DDDD"/><path d="M134.76 13.35c.23-.21.5-.3.81-.27-.23.2-.5.3-.8.27zM138.6 12.15c.22-.16.46-.24.72-.16-.21.15-.44.24-.71.16zM117.35 20.52a.97.97 0 01.7-.36c-.19.22-.42.33-.7.36zM139.8 11.85c.21-.15.44-.23.71-.15-.21.16-.44.24-.71.15zM119.3 19.57l.69-.36c-.18.2-.41.33-.7.36zM140.99 11.56c.21-.15.44-.24.71-.16-.22.16-.44.25-.71.16zM118.32 20.05c.19-.22.42-.33.7-.37a1 1 0 01-.7.37zM120.27 19.09l.7-.36c-.2.2-.42.33-.7.36zM136.34 12.82c.14-.14.3-.21.51-.14l-.51.14zM137.13 12.56l.5-.14c-.14.14-.3.22-.5.14z" fill="#E4DDDD"/><path d="M137.62 12.42c.15-.14.31-.2.51-.14-.14.14-.3.2-.5.14z" fill="#E4DDDD"/><path d="M138.12 12.28a.5.5 0 01.5-.14c-.14.14-.3.2-.5.14zM139.3 12a.5.5 0 01.52-.15.49.49 0 01-.52.14zM140.5 11.7l.5-.14c-.14.15-.3.2-.5.14zM142.18 11.27c.13-.16.3-.22.5-.14l-.5.14z" fill="#E4DDDD"/><path d="M141.68 11.4c.14-.15.3-.21.51-.13l-.5.14zM104.68 28.95l-.2.22c-.03-.16.07-.2.2-.22zM120.64 17.35c.15-.1.3-.24.46-.31 1.33-.57 2.67-1.13 4-1.68.17-.07.36-.08.54-.11-.14.08-.27.19-.41.25-1.35.58-2.7 1.15-4.06 1.71-.17.07-.35.1-.53.14zM127 14.74c.32-.26.68-.4 1.1-.39-.32.26-.68.4-1.1.4z" fill="#E4DDDD"/><path d="M125.92 15.13a1.6 1.6 0 011.1-.4 1.6 1.6 0 01-1.1.4zM129.35 13.75l.2-.02.12.1a.88.88 0 01-.8.27l.19-.23.3-.12z" fill="#E4DDDD"/><path d="M128.57 14.01l.31.08a.88.88 0 01-.8.27l.49-.35zM79.52 34c.2-.74.46-1.45.86-2.1-.1.77-.42 1.46-.86 2.1zM78.9 35.15c-.01-.29.2-.45.37-.65.01.3-.2.46-.36.65z" fill="#E4DDDD"/><path d="M79.26 34.52c-.04-.25.13-.38.27-.54.04.24-.13.38-.27.54zM88.78 65.58c.56-.1 1.05.17 1.57.28.32.06.61.22.92.34-.86-.1-1.7-.28-2.5-.62z" fill="#E4DDDD"/><path d="M86.53 65.14c.66-.1 1.27.16 1.9.27.13.02.24.11.37.17-.57.08-1.09-.16-1.63-.23-.22-.03-.43-.14-.64-.2zM93.53 66.83l-.1.12-.63-.26-.63-.26 1.03.12.33.28zM104.7 44.66c-4.56 1.24-9.2 2.26-13.86 2.97l-.89.13-.1.02a153.55 153.55 0 01-3.02.41c-.15.02-.1.26.05.25a91.7 91.7 0 0017.87-3.5c.17-.06.13-.33-.05-.28z" fill="#E4DDDD"/><path d="M56.43 56.6c1.26-.34 2.52-.7 3.8-.9.5-.08.98-.21 1.46-.35a84.96 84.96 0 0011.8-4.36l3.37-1.52c.28-.12.58-.23.88-.26 1.37-.15 2.74-.25 4.11-.08l2.48.29c1.34.14 2.68.32 4.03.42 3.5.25 6.96-.26 10.38-.94 1.35-.27 2.69-.6 3.97-1.13 4.37-1.76 8.76-3.49 13.11-5.32 3.92-1.65 7.87-3.18 12.05-4.05.12-.03.22-.14.32-.2-.05-.32-.26-.36-.47-.4-.7-.13-1.4-.29-2.1-.37a63.33 63.33 0 00-25.86 1.88 80.69 80.69 0 00-12.35 4.91c-2 .97-4.02 1.92-6.04 2.86-.22.1-.46.15-.7.22.14-.1.28-.22.43-.3l5.36-3.23a69.31 69.31 0 0012.87-10.15 12.21 12.21 0 014.06-2.68c2.46-1.01 5-1.78 7.59-2.4 3.8-.88 7.6-1.82 11.35-2.95a55.6 55.6 0 0011.45-5c1.37-.8 2.66-1.73 3.86-2.77.61-.52 1.17-1.1 1.74-1.68.88-.9 1.74-1.8 2.64-2.69 1-1 2.02-2 3.17-2.84.1-.07.17-.2.28-.36-.16-.09-.26-.19-.38-.2-.16-.03-.33 0-.5.02A94.9 94.9 0 00129 13.2a78.31 78.31 0 00-10.43 3.77 31.78 31.78 0 00-5.52 3.22c-2.3 1.67-4.33 3.67-6.44 5.33.31-.36.71-.85 1.14-1.32A38.58 38.58 0 00111.1 20c.66-.99 1.3-1.98 1.92-3 .43-.7.86-1.42 1.16-2.2a27.55 27.55 0 001.9-7.7c.16-1.94.4-3.87.88-5.76.01-.06-.02-.13-.04-.24l-.39-.17c-.2.19-.4.35-.58.54-.48.52-.96 1.04-1.41 1.6a443.44 443.44 0 00-4.14 5.07 25.02 25.02 0 00-2.6 3.72 39.47 39.47 0 00-3.53 9.13 46.2 46.2 0 01-2.47 7.26c-.31.72-.62 1.44-1.03 2.1a11.62 11.62 0 01-3.03 3.45c-.32.24-.62.51-.94.76a75.14 75.14 0 01-6.32 4.72 33.59 33.59 0 00-2.97 2.08A41.27 41.27 0 0181 45.63c-1.73.93-3.44 1.9-5.15 2.87-.56.32-1.13.59-1.78.68-.61.08-1.2.28-1.69.69-.2.16-.47.22-.72.3l-2.1.63-.56.13.47-.34c2.1-1.4 3.99-3.06 5.8-4.8.67-.63 1.3-1.31 1.95-1.97a35.83 35.83 0 004.6-5.79 53.92 53.92 0 002.78-5.11 48.1 48.1 0 003.3-8l2.71-9.44c.06-.2.13-.42-.05-.63-.33-.2-.57.03-.79.24a40.95 40.95 0 00-9.16 12.04c-1.88 3.6-3.52 7.3-5.15 11.01a35.02 35.02 0 01-4.08 7.15 26.7 26.7 0 01-11.48 9.03A37.97 37.97 0 0155 55.88 95.59 95.59 0 0144.64 58c-1.53.2-3.06.38-4.57.68-.83.17-1.68.26-2.51.38.22-.16.44-.33.68-.47.7-.43 1.43-.84 2.14-1.26 2.25-1.34 4.27-3 6.36-4.55 1.4-1.02 2.69-2.2 3.86-3.47 1.8-1.95 3.55-3.95 5.3-5.94a33.66 33.66 0 004.47-6.49 31.44 31.44 0 002.9-7.01c.59-2.32 1.11-4.66 1.66-6.99.03-.1.06-.19.05-.28 0-.16-.04-.31-.05-.43-.28-.22-.5-.16-.7-.02-.16.1-.3.24-.43.37-1.26 1.16-2.49 2.34-3.77 3.47a64.99 64.99 0 00-7.17 7.2c-.97 1.17-1.95 2.33-2.9 3.51-.6.76-1.18 1.55-1.72 2.35a292.83 292.83 0 00-3.4 5.17c-1.08 1.67-2.18 3.34-3.17 5.06a42.01 42.01 0 01-5.3 7.38c-.9.99-1.87 1.89-2.9 2.73-.54.44-1.13.67-1.82.7-.33 0-.66.03-1 .05l-2.97.24c-1.16.1-2.31.25-3.47.33-3.7.23-7.37.67-11.02 1.26-3.7.6-7.4 1.26-11.13 1.53a1.5 1.5 0 00-1.07.5c-.14.15-.33.26-.49.4-.14.12-.28.24-.4.38-.04.04-.01.13-.02.23l.6.14c.22.35.22.35.6.59.2-.1.43-.18.67-.3 1.5-.73 3.08-1.23 4.73-1.46 1.83-.26 3.67-.43 5.51-.61 3.64-.36 7.27-.72 10.91-1.02 3.3-.28 6.56-.67 9.83-1.12 4.68-.64 9.32-1.49 13.95-2.42a6.87 6.87 0 012.19-.1l1.27.16c2.4.4 4.69 1.19 6.98 1.94 2.2.73 4.32 1.7 6.47 2.57 1.35.54 2.69 1.08 4.04 1.59 1.49.56 3.02.96 4.6 1.24 3.8.69 7.64 1.14 11.5 1.28 2.73.1 5.46.08 8.19.08 1.23 0 2.46-.1 3.7-.15.18 0 .39.02.44-.25-.07-.26-.31-.32-.52-.43l-7.95-4.12a48.15 48.15 0 00-17.85-5.2c-3.57-.36-7.15-.3-10.73-.09l-7.23.44c.24-.08.48-.18.73-.24 1.24-.32 2.49-.61 3.72-.94zM106.52 29c.12-.1.23-.2.37-.27.86-.41 1.7-.83 2.57-1.2.96-.41 1.94-.78 2.91-1.15.22-.09.45-.13.67-.19.34-.16.67-.34 1.03-.47 2.83-1 5.67-1.98 8.5-3 1.28-.47 2.55-.96 3.82-1.49.02.07.09.12.17.09 4.79-2.18 9.45-4.58 14.01-7.2a22.53 22.53 0 01-5.1 3.63c-1.3.62-2.56 1.33-3.84 1.98a54.3 54.3 0 01-6.03 2.6l-.04.01c-2.65.8-5.3 1.62-7.96 2.44a99.4 99.4 0 00-4.4 1.46l-.16-.04c-.18.1-.36.21-.55.3l-.05.02a53.26 53.26 0 00-5.32 2.3l-.6.18zm29.15-10.24a51.34 51.34 0 01-9 4.84c-1.35.56-2.77.98-4.18 1.4a188.42 188.42 0 01-12.88 3.31l-1.47.33c1.72-.75 3.44-1.5 5.2-2.15 2.58-.94 5.23-1.68 7.84-2.5l3.3-1.04.15-.04.98-.31a.13.13 0 00.08-.07 52.1 52.1 0 006.73-2.92c1.04-.56 2.1-1.1 3.16-1.61 1.25-.6 2.4-1.35 3.47-2.22.28-.23.57-.45.87-.67a28.49 28.49 0 01-4.25 3.65zm7.3-7.05c-1.03.8-2.17 1.42-3.35 1.99l-3.89 1.9c-.46.23-.93.46-1.4.66a2337.33 2337.33 0 01-9.75 4 .1.1 0 00-.1 0c-3.87 1.52-7.74 3.05-11.56 4.72l-.7.25c.2-.15.42-.32.65-.44 2.36-1.34 4.83-2.49 7.27-3.68 1.76-.87 3.48-1.82 5.26-2.64l.66-.3h.06l7.18-2.95c2.35-.97 4.7-1.97 7.09-2.83.96-.34 1.92-.66 2.89-.98-.05.14-.2.2-.3.3zm.5-.64l-.05.06c-2.08.64-4.15 1.3-6.16 2.13l-2.47 1.03a.95.95 0 00-.18.05c-2.6 1.09-5.2 2.16-7.78 3.28l-.8.34a.1.1 0 00-.05.04l-.6.25c-1.94.87-3.8 1.94-5.72 2.85-4.47 2.1-8.78 4.48-13.1 6.85l-1.89 1c.01.13-.04.21-.19.21l-.37.23.02-.15c.33-.32.64-.65.95-1 1.65-1.17 3.3-2.35 4.99-3.5a51.8 51.8 0 012.18-1.37c3.3-1.78 6.67-3.42 10.1-4.94 4.48-2 9.09-3.77 13.77-5.26 2.3-.72 4.6-1.42 6.92-2.06l.43-.04zm-1.31-.08l.5-.06a134.6 134.6 0 00-29.48 11.64l-.15.1c-1.28.69-2.55 1.4-3.8 2.14-.06.03-.07.08-.06.13-1 .62-2 1.26-2.97 1.93l.72-.66c3-2.6 6.23-4.88 9.74-6.74 1.17-.62 2.36-1.2 3.53-1.82l.04-.02 1.7-.7a113.5 113.5 0 013.81-1.5c2.18-.81 4.37-1.56 6.58-2.29a91.35 91.35 0 019.84-2.15zm-31.62 11.7c.8-.67 1.65-1.27 2.48-1.92a24.66 24.66 0 014.81-2.87c3.3-1.53 6.7-2.78 10.19-3.8.17-.04.35-.05.53-.07a92.22 92.22 0 00-6.68 2.62c-1.3.56-2.55 1.2-3.85 1.76a.08.08 0 00-.05.1c-.84.45-1.67.93-2.51 1.4a48.22 48.22 0 00-7.43 5.1c-.08.06-.18.1-.28.14.93-.82 1.84-1.67 2.8-2.46zm-2.85 2.52l-.37.42-.08-.09.45-.33zm-3.66 4.13l.06.06c-.2.14-.4.3-.64.46.2-.17.4-.34.58-.52zm-1.26 1.2c.84-.52 1.71-1 2.55-1.53a40.9 40.9 0 014.74-2.55c.03.03.09.05.14.03 2.62-1.12 5.22-2.26 7.84-3.37l4.36-1.81.1-.05.81-.33c.08-.01.16-.03.23-.06 3.62-1.45 7.23-2.92 10.85-4.38.22-.08.44-.18.65-.29l5.6-2.74c.56-.28 1.1-.6 1.68-.86l-.8.68c-3.99 2.3-8.08 4.46-12.24 6.47a136.94 136.94 0 01-8.97 3.54 307.7 307.7 0 00-9.7 3.54c-2.5.98-4.87 2.2-7.19 3.55-.37.21-.78.37-1.17.54.17-.13.34-.27.52-.38zm13-23.29c-.05.7-.11 1.33-.24 1.94-.37 1.72-.8 3.42-1.46 5.05-.36.9-.84 1.75-1.4 2.55-.78 1.12-1.5 2.3-2.31 3.4-.67.92-1.41 1.76-2.12 2.64l-.07-.06 2.08-2.87a22.46 22.46 0 002.17-3.75 48.85 48.85 0 003-8.12l.2-.6c.02-.04.06-.07.15-.18zm.3-2.91c-.1.68-.1 1.34-.3 1.98-.6 1.87-1.14 3.76-1.83 5.6a37.04 37.04 0 01-3.13 6.67c-.58.92-1.23 1.8-1.87 2.69-.7.97-1.4 1.95-2.14 2.9-.53.68-1.1 1.3-1.71 1.91l.5-.58c.58-.74 1.18-1.48 1.73-2.24.32-.44.57-.93.83-1.4.55-.97 1.1-1.94 1.63-2.92a48.43 48.43 0 003.76-8.87c.62-1.98 1.5-3.84 2.39-5.7l.13-.04zm.01-.98c-.26.61-.52 1.22-.82 1.81-.9 1.79-1.6 3.64-2.22 5.53-.37 1.15-.84 2.27-1.28 3.39-.28.7-.6 1.4-.9 2.1a20.67 20.67 0 01-1.5 2.96c-.48.76-.91 1.56-1.3 2.37a12.84 12.84 0 01-2.64 3.6l.43-.84c1.78-3.56 3.6-7.1 5.03-10.81.53-1.37 1.23-2.66 1.86-3.99l3.04-6.42.38-.75c.18.4.06.73-.08 1.05zm-4.62 6.05a26.08 26.08 0 00-1.76 3.32c-.44 1-.94 1.97-1.39 2.96-.46 1-.94 2.01-1.34 3.05a71.8 71.8 0 01-2.56 5.77c-.11.22-.26.41-.4.62.12-.35.22-.7.37-1.02.78-1.68 1.45-3.4 1.98-5.17.11-.39.25-.77.4-1.14.69-1.64 1.35-3.28 2.09-4.9.37-.81.87-1.57 1.34-2.33.75-1.18 1.52-2.34 2.3-3.5.41-.63.86-1.24 1.33-1.83a48.58 48.58 0 01-2.36 4.17zm-8.36 16.9c.95-2.26 1.48-4.65 2.16-7 .92-3.2 2.29-6.22 4.22-8.95 1.02-1.43 2.1-2.8 3.41-4.21-1.23 1.84-2.39 3.54-3.5 5.26-.41.64-.74 1.33-1.05 2.01a98.45 98.45 0 00-1.59 3.73c-.34.86-.64 1.73-.92 2.61a32.28 32.28 0 01-1.36 3.58c-.34.76-.64 1.53-.97 2.3-.12.26-.27.52-.42.78 0-.04 0-.08.02-.12zm4.05-7.25c.46-1.09.96-2.16 1.45-3.24.45-.97.93-1.92 1.36-2.9a33.59 33.59 0 012.22-4.12c.66-1.07 1.24-2.18 1.87-3.27.27-.47.57-.92.94-1.34-.07.17-.12.34-.2.5-.82 1.69-1.63 3.38-2.47 5.05a43.86 43.86 0 00-1.92 4.2 85.15 85.15 0 01-3.7 8.06c-.9 1.78-1.8 3.56-2.91 5.21-.3.45-.6.92-.92 1.35-.14.18-.3.33-.48.47l.49-1c.04-.09 0-.17-.08-.2.35-.73.8-1.4 1.18-2.1 1.2-2.15 2.2-4.4 3.17-6.67zm-9.85 15.5c-.17.31-.3.46-.51.51l.51-.5zm-.55.54l-.38.44a.56.56 0 01.38-.44zm-1.46 1.13c-.13.28-.24.38-.4.43.1-.11.2-.23.4-.43zm-6.72 4.8c2.04-1.4 4.16-2.72 6.1-4.28l.18-.07c-.83.93-1.76 1.75-2.82 2.41-1.32.83-2.62 1.68-3.93 2.52-.15.09-.31.15-.47.21.3-.26.6-.55.94-.78zm14.01 6.1c-1.28.51-2.6.86-3.95 1.13-3.14.63-6.3 1.11-9.52.96-1.3-.06-2.59-.22-3.88-.35-.18-.02-.35-.1-.53-.14l2.33-.04c.87-.01 1.75 0 2.62-.08 3-.25 6-.42 8.96-.96 1.35-.24 2.7-.5 4.04-.76l.55-.07c-.2.11-.4.23-.62.32zM123.94 39c-1.9.62-3.87.92-5.79 1.43-1.3.35-2.6.7-3.87 1.2-.2.08-.4.17-.6.23-3.67 1.13-7.26 2.5-11 3.37-.28.06-.53.18-.8.28.21-.01.43 0 .63-.04 1.9-.4 3.76-.93 5.6-1.54.97-.32 1.95-.6 2.92-.93 1.23-.4 2.45-.85 3.7-1.24 1.25-.4 2.53-.77 3.8-1.14.1-.03.21-.02.32-.02-.15.09-.3.2-.46.26-3.5 1.41-6.99 2.83-10.49 4.23-.53.21-1.07.38-1.62.54a67.68 67.68 0 01-10.93 2.22l-.78.09c-1.8.14-3.59.3-5.39.43-.51.04-1.04.04-1.57.06l-.04-.22-.69.01-3.5.28c-.1 0-.2-.03-.3-.05.2-.07.42-.16.64-.2 1.94-.3 3.87-.67 5.82-.9 2.31-.27 4.6-.68 6.85-1.23 1.22-.3 2.44-.6 3.66-.88 1.73-.4 3.42-.94 5.12-1.48 2.21-.7 4.44-1.35 6.66-2 2.14-.63 4.27-1.29 6.43-1.83 1.78-.46 3.6-.78 5.42-1.15.28-.05.58-.03.88-.04-.2.1-.41.19-.62.26zm-13.51.54l-4.13 1.52c-.64.23-1.31.4-1.95.66-2.2.93-4.48 1.65-6.74 2.42-.38.13-.77.25-1.16.33-2.85.59-5.68 1.3-8.57 1.7-.42.06-.84.08-1.26.12l-.4.1.39-.16c.22-.08.43-.19.65-.26 3.75-1.17 7.5-2.38 11.26-3.5a167.9 167.9 0 0111.4-2.94c.17-.03.33-.03.5-.04l.55-.1-.54.15zm.56.21a58.22 58.22 0 017.78-1.19h.3c-.18.05-.36.12-.55.16-1.08.18-2.15.38-3.23.53a39.8 39.8 0 00-7.44 1.8c-1.35.46-2.7.89-4.06 1.32-.18.06-.38.07-.57.1.2-.1.38-.23.59-.3.8-.3 1.6-.58 2.4-.86l2.68-.92c.7-.23 1.39-.5 2.1-.64zm-6.34 2.6l3.92-1.28c2.03-.68 4.1-1.17 6.21-1.48 1.7-.24 3.38-.53 5.06-.78a18.2 18.2 0 011.63-.14c.22-.01.45.03.67.05-.21.08-.42.17-.64.21a69.2 69.2 0 00-7.77 2c-2.38.75-4.77 1.43-7.16 2.14-.23.07-.46.13-.68.21-3.99 1.43-8.12 2.29-12.24 3.18-1.69.37-3.43.49-5.15.71l-.18-.02c.19-.08.37-.18.56-.23l6.47-1.7c3.14-.82 6.21-1.86 9.3-2.87zm20.87-4.46c.35.02.7.11 1.05.26l-.36.05c-1.56.18-3.12.21-4.69.18-.24 0-.47.02-.71.04 1.54-.4 3.11-.59 4.7-.53zm-37.89 6.5a63.83 63.83 0 0122.43-6.71c1.8-.18 3.6-.27 5.39-.39.24-.01.48.04.72.07-.24.05-.48.1-.72.12-1.06.1-2.12.2-3.19.28-1.93.16-3.85.47-5.74.9-1.36.32-2.73.61-4.08.96-1.36.34-2.7.73-4.03 1.13-1.81.56-3.63 1.1-5.41 1.73-1.81.64-3.58 1.39-5.36 2.09l-.69.23c.23-.14.45-.3.68-.41zm-3.2 1.93a24.7 24.7 0 013.79-1.4c1.22-.36 2.44-.75 3.65-1.15 4.39-1.44 8.78-2.85 13.28-3.9 1.2-.27 2.42-.45 3.63-.68.27-.05.53-.14.8-.22-.18 0-.37-.04-.55-.02-1.67.2-3.32.48-4.94.93-.71.2-1.42.39-2.13.55-1.78.42-3.5 1.02-5.24 1.55-2.58.77-5.12 1.68-7.69 2.49-.25.08-.52.1-.79.14.13-.08.26-.16.4-.22a61.12 61.12 0 016.02-2.18c.8-.24 1.58-.48 2.36-.76 2.89-1.04 5.87-1.7 8.85-2.4 2.5-.6 5.02-.98 7.58-1.14 1.85-.11 3.7-.27 5.53-.4.32-.02.64.05.96.07l-.28.12c.23.02.46.07.69.06.82-.02 1.65-.07 2.47-.1-.3.07-.59.16-.89.18-1.1.09-2.22.13-3.33.22-3.2.24-6.37.67-9.5 1.42-3.17.77-6.34 1.59-9.5 2.42-1.1.28-2.18.67-3.27 1-3.94 1.23-7.88 2.44-11.82 3.65-.22.06-.44.08-.67.12.2-.12.38-.25.58-.35zM80.3 48.2c.82-.24 1.64-.45 2.46-.68 1.43-.4 2.89-.7 4.36-.95 1.81-.3 3.62-.68 5.43-1.02.23-.04.47-.06.7-.08-.17.07-.35.16-.54.2-1.7.46-3.42.9-5.14 1.35-.17.05-.34.14-.5.22-.23.01-.46 0-.68.04-1.27.28-2.54.57-3.8.88a6.7 6.7 0 01-2.3.27c-.26-.03-.51-.01-.77-.01.22-.23.52-.14.78-.22zm1.18-2.38l2.4-1.37.22-.1c-.24.2-.48.4-.75.57-.51.32-1.04.62-1.57.9-.19.1-.4.16-.6.23.1-.08.19-.17.3-.23zm-.76.5l-.61.32c.17-.17.36-.3.6-.31zm-.7.38c-.58.46-1.2.84-1.93 1l1.92-1zm-12.17 3.51l.4-.43a.56.56 0 01-.4.43zm11.05-14.64c.65-1.34 1.2-2.71 1.73-4.1l.15-.3a54.3 54.3 0 013.84-7.2c.94-1.5 1.92-2.98 2.89-4.47.09-.14.21-.25.36-.34l-.13.23c-.81 1.4-1.39 2.9-1.92 4.43-.23.67-.54 1.31-.82 1.97l-1.41 3.33c-.7 1.66-1.35 3.34-2.27 4.9-.72 1.22-1.47 2.43-2.18 3.66-.37.63-.7 1.3-1.06 1.93-.18.3-.39.6-.61.87-.83.98-1.65 1.96-2.52 2.9-.6.64-1.26 1.2-1.92 1.78a45.5 45.5 0 003.21-4.9.1.1 0 00.1-.06c.93-1.5 1.78-3.04 2.56-4.63zM68.78 49.35l2.12-1.94c-.55.82-1.37 1.34-2.12 1.94zm20.71-31c0 .07-.03.14-.05.21-.86 3.03-1.66 6.08-2.76 9.04-.75 2-1.76 3.89-2.75 5.77-.74 1.4-1.51 2.8-2.33 4.16-1.3 2.16-2.9 4.1-4.67 5.9-.62.62-1.22 1.26-1.85 1.87a46.65 46.65 0 01-5.96 4.93l-2.34 1.63c-.08.05-.18.1-.27.13.7-.56 1.4-1.14 2.12-1.69a81.07 81.07 0 006.02-4.98c1.3-1.2 2.48-2.53 3.53-3.97.5-.69 1.02-1.36 1.54-2.04a28.55 28.55 0 002.66-4.36c.58-1.11 1.07-2.27 1.59-3.4.27-.61.5-1.23.78-1.84.3-.68.57-1.37.81-2.08a91.14 91.14 0 003.9-9.49l.03.21zm.1-1.34c-.78 2.17-1.62 4.32-2.5 6.45l.01-.04c-.52.66-.78 1.46-1.11 2.21-.1.24-.18.5-.25.74l-.3.97-.12.26a54.6 54.6 0 01-2.66 6.26 31.73 31.73 0 01-3.8 6.16l-2.54 3.16c-1.11 1.36-2.46 2.5-3.8 3.63-.95.81-1.93 1.6-2.95 2.34l.1-.17 3.24-3.3c.97-.97 1.97-1.9 2.92-2.9a18.85 18.85 0 002.73-3.45l2.94-5.04c.91-1.56 1.6-3.22 2.28-4.89l1.43-3.4c.42-1.04.85-2.07 1.23-3.11.36-.96.76-1.9 1.26-2.79.33-.6.64-1.21.94-1.83.24-.48.58-.87.96-1.26zm.34-.92l-.17.46c-.09.11-.2.23-.33.35.06-.44.28-.63.5-.8zM76.4 37.54c1.44-3.25 2.92-6.48 4.55-9.64a38.78 38.78 0 013.12-5.08c.8-1.1 1.63-2.2 2.5-3.27.67-.8 1.42-1.52 2.2-2.25-.07.16-.13.33-.22.48a106.4 106.4 0 00-5 7.58 41.75 41.75 0 00-3.06 6.02c-.05.12-.07.25-.09.38a66.89 66.89 0 01-1.73 3.68 10.3 10.3 0 00-.92 1.64 39.26 39.26 0 01-1.61 2.98 62.94 62.94 0 01-2.02 3.2c-1.01 1.5-2.13 2.9-3.6 4.16.1-.2.15-.3.22-.4a39.57 39.57 0 005.66-9.48zm-8.67 12.78c-.15.17-.28.37-.52.42l.52-.42zm-3.63 2.71c.71-.48 1.4-1 2.23-1.27a3.3 3.3 0 01-1.28 1.04c-.2.1-.4.25-.6.35-.23.12-.46.2-.75.2l.4-.32zm-2.76 1.02l2.1-1.04.45-.16c-.4.57-.95.93-1.63 1.1l-1.24.3c.1-.07.21-.15.32-.2zm-60 10.63c.4-.23.67-.28.97-.2-.25.17-.52.22-.97.2zm.1.48c.25-.3.54-.28.82-.3-.21.19-.44.32-.83.3zm1.42-.83l.61-.13a.72.72 0 01-.61.13zm21.7-3.08c-.94.1-1.9.1-2.85.14.16-.06.32-.14.49-.15 1.57-.18 3.15-.35 4.73-.51.1-.02.2.02.32.03-.9.17-1.78.39-2.68.49zm2.73-.5c.38-.2.81-.16 1.23-.19-.4.18-.81.22-1.23.2zm26.97-16.11c-1.51 1.66-2.99 3.36-4.54 4.98a29.81 29.81 0 01-4.8 4l-1.43.93c.12-.12.24-.25.38-.35a52.63 52.63 0 006.05-5.35c1.6-1.62 3.2-3.22 4.82-4.82-.16.2-.31.42-.48.6zm-12.14 5.11c.33-.57.65-1.14 1-1.7 1.7-2.7 3.39-5.42 5.13-8.1a48.72 48.72 0 012.65-3.6c.92-1.15 1.9-2.24 2.86-3.36a54.54 54.54 0 015.47-5.37c1.19-1.05 2.39-2.09 3.62-3.09-.24.28-.46.57-.72.83-.97.96-1.96 1.91-2.95 2.87l-1.36 1.35a91.08 91.08 0 00-6.23 7c-.3.38-.54.79-.83 1.16-.95 1.24-1.93 2.46-2.85 3.72-.55.74-1.03 1.54-1.51 2.32a63.85 63.85 0 01-4.03 5.85l-.16.19-.09-.07zm-8.46 9.92c.33-.27.64-.54.98-.8A23.55 23.55 0 0039 54.42c1.29-1.7 2.5-3.45 3.9-5.07 1.38-1.58 2.47-3.36 3.57-5.14a36 36 0 013.04-4.36c.86-1.01 1.58-2.14 2.36-3.21.28-.38.56-.76.87-1.13a92.56 92.56 0 014.88-5.45c1.01-1.04 2.08-2.02 3.1-3.04.83-.84 1.63-1.71 2.44-2.58.33-.37.64-.75 1.07-1.25 0 .5-.05.84-.26 1.13l-.32.38c-1.33 1.55-2.67 3.08-3.98 4.65-.84 1.03-1.62 2.1-2.43 3.15-.56.74-1.1 1.49-1.67 2.22l-3.67 4.7c-.6.78-1.16 1.57-1.74 2.35-.3.42-.62.84-.94 1.25l-4.99 6.39-.4.5c-.99 1.15-1.99 2.3-2.95 3.46a33.87 33.87 0 01-3.38 3.46c-.91.82-1.86 1.62-2.77 2.44-.32.3-.65.45-1.08.4zm1.32-.22c.39-.36.77-.72 1.17-1.07a38.95 38.95 0 005.7-5.75c.46-.6.97-1.16 1.46-1.74a78.33 78.33 0 003.91-4.97c.25-.34.52-.67.8-1a72.14 72.14 0 003.83-5.03c.27-.38.58-.75.89-1.1 1.46-1.7 2.74-3.51 4.06-5.31l1.4-1.88a94 94 0 015.32-6.48c.03-.04.07-.06.24-.2l-.58.98c-.41.74-.88 1.47-1.2 2.25a32.92 32.92 0 01-2.25 4.35c-.47.77-.9 1.56-1.34 2.35-.47.87-1.02 1.7-1.65 2.47-.86 1.05-1.66 2.13-2.55 3.15-1.45 1.66-2.94 3.29-4.41 4.92-.92 1.02-1.84 2.05-2.78 3.05-.74.8-1.53 1.55-2.3 2.32-.64.66-1.3 1.3-1.92 2a38.76 38.76 0 01-3.93 3.79c-.8.67-1.58 1.36-2.4 2-.46.35-.98.6-1.47.9zm1.27-.4l.71-.53c.12-.09.26-.15.4-.2-.3.36-.62.67-1.11.73zm3.71-3.23c1.09-.96 2.07-2.01 3.06-3.07 1.07-1.14 2.2-2.21 3.31-3.31l.35-.36 5.28-5.86c.64-.7 1.32-1.36 1.93-2.09 1.3-1.54 2.58-3.1 3.82-4.68.45-.58.75-1.26 1.13-1.89.65-1.1 1.32-2.19 1.95-3.3.41-.75.8-1.51 1.13-2.29.47-1.07 1-2.1 1.58-3.1.04-.08.11-.14.29-.34-.13.64-.25 1.12-.33 1.6-.11.71-.31 1.38-.72 1.99-.2.3-.34.62-.48.94a47.74 47.74 0 01-4.1 7.07c-.26.39-.58.74-.88 1.1-1.52 1.76-3.02 3.54-4.57 5.27-.85.96-1.76 1.86-2.65 2.77l-3.3 3.33c-1.68 1.7-3.32 3.44-5.1 5.04-.76.68-1.58 1.29-2.37 1.92-.09.07-.19.1-.29.15l.96-.9zm-.06.58c1.06-.8 2.04-1.7 2.98-2.64l3.6-3.62c1.08-1.07 2.13-2.16 3.22-3.21 2.9-2.81 5.45-5.93 8.1-8.96.98-1.14 1.72-2.44 2.5-3.7.89-1.46 1.76-2.92 2.42-4.5l.16.05c-.16.51-.3 1.03-.49 1.54a35.48 35.48 0 01-3.38 6.95c-.3.48-.62.95-.96 1.4-.62.81-1.23 1.64-1.9 2.4-.76.88-1.58 1.7-2.39 2.54-.24.25-.5.49-.74.76-1.04 1.2-2.21 2.27-3.36 3.36l-1.48 1.43a53.18 53.18 0 01-5.23 4.37c-.79.57-1.53 1.2-2.33 1.75-.72.5-1.49.91-2.3 1.27l1.58-1.2zm-2.19 3.16c.26-.17.54-.22.85-.16l-.85.16zm.86-.16c.27-.18.57-.2.87-.16-.27.17-.56.21-.87.16zm14.71-.9c.34-.02.68-.06 1-.02 1.26.14 2.51.3 3.77.46l.03.01 2.13.31.05.01.7.1a510.14 510.14 0 0115.42 2.54l.93.17 3.87.7c2.3.52 4.57 1.16 6.8 1.96 1.32.47 2.65.9 3.97 1.33-2.63-.59-5.28-1.09-7.93-1.58H84a421.5 421.5 0 00-3.18-.7c-1.73-.39-3.47-.75-5.2-1.12-1.11-.24-2.22-.5-3.33-.73a198.16 198.16 0 00-7.19-1.36c-1.82-.3-3.64-.6-5.47-.85-1.7-.22-3.38-.43-5.03-.89l-1.32-.35zm4.45.06h.66c3.02.16 6.03.49 9.02 1 2.82.47 5.65.93 8.46 1.46 1.34.26 2.66.67 3.99 1.01l.37.15c-.08 0-.17.03-.25.02l-.67-.1a273.82 273.82 0 00-15.73-2.58c-1.06-.15-2.12-.28-3.19-.42a.8.8 0 00-.36-.05l-.33-.04c-.31-.16-.67-.14-1-.22l-.97-.23zm16.43 7.2c-1.97-.24-3.9-.62-5.78-1.26-.18-.06-.36-.15-.53-.24l.58.11 5.67 1.23.44.14c-.13.01-.26.04-.38.02zm5 .56c-.19 0-.38.03-.56 0-1-.1-2-.23-2.99-.36-.16-.02-.32-.09-.48-.14.22 0 .44 0 .65.03l2.55.27c.28.04.55.11.83.17l.35.06c-.12 0-.24-.02-.35-.03zm5.43.15c-1.18-.09-2.37-.17-3.54-.3-1.56-.16-3.1-.36-4.66-.54a64.75 64.75 0 01-9.66-2.05c-2.93-.8-5.74-1.9-8.54-3.1-.7-.29-1.42-.5-2.14-.75l-.51-.2c.62-.06 1.21.11 1.8.27l6.38 1.73c1.53.4 3.06.8 4.6 1.22l3.83 1.06c2.63.76 5.31 1.2 8 1.64 1.47.24 2.94.51 4.4.78.22.04.43.14.64.22-.2.01-.4.04-.6.02zm8.94.46h-.1c-.23.02-.47.07-.7.05-2.58-.15-5.14-.4-7.67-.97a54.9 54.9 0 00-4.4-.79c-3.21-.46-6.4-1-9.51-1.98-.88-.27-1.79-.47-2.68-.71l-8.36-2.26-.37-.14c.2 0 .4-.03.6 0l5.81.97c.14.03.28.07.42.08 3.11.38 6.14 1.2 9.2 1.78 2.46.46 4.87 1.04 7.3 1.6.97.22 1.95.4 2.92.58.12.02.23.02.35 0l7.18 1.73.01.06zm-31.2-9.38c4.92-.2 9.78.17 14.55 1.46 2.54.68 5.01 1.55 7.4 2.66.16.07.3.17.46.25-.17-.03-.35-.05-.51-.1-2.68-.71-5.34-1.54-8.05-2.12a83.51 83.51 0 00-13.28-1.94c-.34-.01-.68-.08-1.01-.13.14-.03.29-.08.44-.08zm-1.97.31A84.98 84.98 0 0171.09 59c4 .6 7.9 1.6 11.78 2.67 2.35.64 4.63 1.5 6.8 2.66 1.12.6 2.28 1.14 3.43 1.7l.46.28c-.7-.09-1.33-.4-1.94-.73v-.01c-.22-.16-.46-.28-.74-.25-.2-.1-.4-.24-.62-.32-4.53-1.74-9.2-2.96-13.9-4.12-1.67-.42-3.39-.68-5.1-.96-2.36-.39-4.72-.76-7.1-1.08-3.29-.45-6.6-.62-9.92-.67-.26 0-.52-.06-.78-.1 2.3-.15 4.6-.4 6.9-.2z" fill="#E4DDDD"/><path d="M123.45 37.48c-2.78.03-5.55.2-8.3.5l-.1.01c-2.37.26-4.75.62-7.1 1.1-.12.02-.09.2.03.19.6-.1 1.18-.2 1.77-.28.25.02.49 0 .71-.1l.52-.08c.24.01.46-.02.69-.1 3.9-.5 7.82-.8 11.75-.87.23 0 .27-.37.03-.37z" fill="#E4DDDD"/></svg>