<svg width="1060" height="388" fill="none" xmlns="http://www.w3.org/2000/svg"><path d="M336 290h-72v94h-53v-94H0v-37L194 4h59L67 244h146v-83h51v83h72v46zM523 388c-30 0-57-8-80-23s-41-38-55-67c-13-29-20-64-20-104s7-75 20-104A142 142 0 01523 0c30 0 56 8 79 23 24 15 42 38 56 67 13 29 20 64 20 104s-7 75-20 104c-14 29-32 52-56 67-23 15-49 23-79 23zm0-48c31 0 55-13 73-38s28-61 28-108-10-83-28-108a85 85 0 00-73-38c-31 0-55 13-74 38-18 25-27 61-27 108s9 83 27 108c19 25 43 38 74 38zM1060 290h-72v94h-53v-94H724v-37L918 4h59L791 244h146v-83h51v83h72v46z" fill="#313131"/></svg>