<svg width="0" height="0" class="hidden">
	<symbol viewBox="0 0 280 170" xmlns="http://www.w3.org/2000/svg" shape-rendering="geometricPrecision" fill-rule="evenodd" clip-rule="evenodd" id="arrow-right">
		<path fill-rule="nonzero" d="M85 99h147l-47 47c-6 6-6 15 0 20 5 5 14 5 20 0l71-71c3-3 4-7 4-10 0-4-1-7-4-10L205 4c-3-3-7-4-10-4-4 0-8 1-10 4-6 6-6 15 0 20l47 47H85c-8 0-14 6-14 14s6 14 14 14zM14 71A14 14 0 000 85a14 14 0 0014 14 14 14 0 0014-14 14 14 0 00-14-14z"/>
	</symbol>

	<symbol viewBox="0 0 200 200" xmlns="http://www.w3.org/2000/svg" shape-rendering="geometricPrecision" fill-rule="evenodd" clip-rule="evenodd" id="whatsapp">
		<path fill-rule="nonzero" d="M170.9 29A99.5 99.5 0 0014.2 148.7L0 200l52.8-13.8a99.5 99.5 0 00147.2-87A98.3 98.3 0 00170.9 29zm-70.5 152.5a83 83 0 01-42.1-11.4l-3-1.8-31.4 8.1 8.4-30.4-2-3A82.7 82.7 0 01159 41 81.7 81.7 0 01183.3 99a82.7 82.7 0 01-82.8 82.3zm45.4-61.7c-2.5-1.2-14.7-7.2-17-8-2.3-.8-4-1.2-5.6 1.2-1.7 2.5-6.4 8-7.9 9.7-1.4 1.7-2.9 1.9-5.3.7-2.5-1.3-10.6-3.9-20-12.4A74.2 74.2 0 0176 94c-1.5-2.6-.2-4 1-5.1 1.2-1.1 2.6-3 3.8-4.4 1.3-1.4 1.7-2.5 2.5-4.1.8-1.7.4-3.1-.2-4.3l-7.7-18.5c-2-4.8-4-4.1-5.6-4.2h-4.7c-1.7 0-4.4.6-6.7 3-2.3 2.5-8.7 8.5-8.7 20.7s9 24 10.2 25.6c1.2 1.6 17.5 26.7 42.5 37.4 6 2.5 10.6 4 14.2 5.2 6 1.9 11.4 1.6 15.7 1 4.7-.7 14.7-6 16.8-11.8 2-5.8 2-10.7 1.4-11.8-.6-1-2.3-1.6-4.8-2.9z"/>
	</symbol>

	<symbol viewBox="0 0 513 513" xmlns="http://www.w3.org/2000/svg" shape-rendering="geometricPrecision" fill-rule="evenodd" clip-rule="evenodd" id="instagram">
		<path fill-rule="nonzero" d="M151 0C68 0 0 68 0 151v211c0 82 68 150 151 150h211c82 0 150-68 150-150V151C512 68 444 0 362 0H151zm0 47h211c57 0 104 46 104 104v211c0 57-47 104-104 104H151c-58 0-104-47-104-104V151C47 93 93 47 151 47zm243 51c-12 0-22 9-22 21 0 11 10 21 22 21 11 0 21-10 21-21 0-12-10-21-21-21zm-138 18a140 140 0 000 279c77 1 140-62 140-139s-63-140-140-140zm0 47c52 0 93 41 93 93s-41 93-93 93-93-41-93-93 41-93 93-93z"/>
	</symbol>

	<symbol viewBox="0 0 269 513" xmlns="http://www.w3.org/2000/svg" shape-rendering="geometricPrecision" fill-rule="evenodd" clip-rule="evenodd" id="facebook">
		<path fill-rule="nonzero" d="M197 69c-36 0-54 20-54 59v22h101v68h-98v294H60V218H0v-68h60v-23c0-39 12-70 35-93 22-22 54-34 96-34 33 0 58 7 77 20l-24 64a82 82 0 00-47-15z"/>
	</symbol>

	<symbol viewBox="0 0 378 512" xmlns="http://www.w3.org/2000/svg" shape-rendering="geometricPrecision" fill-rule="evenodd" clip-rule="evenodd" id="location">
		<path fill-rule="nonzero" d="M189 0C85 0 1 85 1 189c0 57 46 136 92 202 45 66 91 119 91 119a7 7 0 0010 0s46-53 92-119c45-66 92-145 92-202C378 85 293 0 189 0zm0 13c97 0 175 79 175 176 0 50-44 129-89 195-42 59-79 103-86 111-7-8-44-52-85-111-46-66-90-145-90-195C14 92 92 13 189 13zm0 34a142 142 0 10141 145 3 3 0 10-6 0 135 135 0 11-71-122 3 3 0 002-7c-20-10-42-16-66-16zm82 27a3 3 0 00-2 6 136 136 0 0128 27 3 3 0 005-2 3 3 0 00-1-3c-8-10-17-19-28-27l-2-1zm-82 7a108 108 0 100 216 108 108 0 000-216zm0 7a101 101 0 110 202 101 101 0 010-202zm122 33a3 3 0 00-3 5 134 134 0 019 21 3 3 0 006-3 141 141 0 00-10-22l-2-1z"/>
	</symbol>

	<symbol viewBox="0 0 189 255" xmlns="http://www.w3.org/2000/svg" shape-rendering="geometricPrecision" fill-rule="evenodd" clip-rule="evenodd" id="file">
		<path fill-rule="nonzero" d="M187 69L120 1l-4-1H22C10 0 1 9 1 21v213c0 12 9 21 21 21h145c12 0 21-9 21-21V72l-1-3zm-66-52l50 50h-39c-6 0-11-5-11-11V17zm57 217c0 6-5 11-11 11H22c-6 0-11-5-11-11V21c0-6 5-11 11-11h89v46c0 12 9 21 21 21h46v157z"/><path d="M135 128H54a5 5 0 000 10h81a5 5 0 100-10zM135 151H54a5 5 0 100 10h81a5 5 0 100-10zM135 173H54a5 5 0 000 10h81a5 5 0 100-10zM109 196H54a5 5 0 100 10h55a5 5 0 100-10z"/>
	</symbol>

	<symbol viewBox="0 0 266 266" xmlns="http://www.w3.org/2000/svg" shape-rendering="geometricPrecision" fill-rule="evenodd" clip-rule="evenodd" id="clock">
		<path fill-rule="nonzero" d="M230.75 128.75a4.25 4.25 0 110 8.5h-8.5a4.25 4.25 0 110-8.5h8.5z"/><path d="M227.15 40.83c51.17 51.73 50.72 135.15-1 186.32-51.72 51.18-135.14 50.73-186.32-.99a90.4 90.4 0 01-1-1c-51.17-51.72-50.72-135.14 1-186.31 51.72-51.18 135.15-50.73 186.32.99l1 1zm-7 179.32c48.12-48.13 48.12-126.17 0-174.3C172-2.28 93.96-2.28 45.83 45.85c-48.13 48.13-48.13 126.17 0 174.3 48.13 48.13 126.17 48.13 174.3 0z"/><path d="M214.14 51.86c44.81 44.82 44.81 117.47 0 162.28-44.81 44.82-117.47 44.82-162.28 0-44.81-44.81-44.81-117.47 0-162.28s117.47-44.81 162.28 0zM239.25 133c0-58.59-47.66-106.25-106.25-106.25C74.42 26.75 26.75 74.41 26.75 133S74.42 239.25 133 239.25c58.59 0 106.25-47.66 106.25-106.25z"/><path d="M205.12 60.87a4.25 4.25 0 010 6.02l-6 6a4.24 4.24 0 11-6.02-6l6.01-6.01a4.25 4.25 0 016.01 0zM205.12 199.11a4.24 4.24 0 11-6 6.01l-6.02-6a4.24 4.24 0 116.01-6.01l6.01 6zM149.16 75.2a4.25 4.25 0 11-6.8 5.1l-5.1-6.8V116c0 .17-.02.36-.04.53a17 17 0 11-18.86 7.84l-9.61-9.61a4.25 4.25 0 116.01-6.02l9.62 9.62a16.64 16.64 0 014.4-1.83h.01a4.51 4.51 0 01-.04-.53V73.5l-5.1 6.8a4.25 4.25 0 01-6.8-5.1l12.75-17a4.25 4.25 0 016.8 0l12.75 17zm-11.7 65.05a8.5 8.5 0 00-8.9-14.5 8.52 8.52 0 00-4.05 7.24 8.5 8.5 0 0012.94 7.26zM137.25 222.25v8.5a4.25 4.25 0 11-8.5 0v-8.5a4.25 4.25 0 118.5 0zM137.25 35.25v8.5a4.25 4.25 0 11-8.5 0v-8.5a4.25 4.25 0 118.5 0zM72.9 66.89a4.24 4.24 0 11-6.01 6l-6.01-6a4.25 4.25 0 116-6.01l6.01 6zM72.9 193.1a4.24 4.24 0 010 6.01l-6.01 6.02a4.25 4.25 0 01-6.01-6.02l6-6a4.24 4.24 0 016.01 0zM43.75 128.75a4.25 4.25 0 110 8.5h-8.5a4.25 4.25 0 110-8.5h8.5z"/>
	</symbol>

	<symbol viewBox="0 0 377 512" xmlns="http://www.w3.org/2000/svg" shape-rendering="geometricPrecision" fill-rule="evenodd" clip-rule="evenodd" id="nail">
		<path fill-rule="nonzero" d="M370 512l-2-8V309c0-34-10-63-33-87l-12-12v136c-1 33-16 57-46 70a75 75 0 01-104-66v-92c0-3-1-5-4-7l-23-11c-9 14-14 28-17 43l-2 25v196l-2 8h-4l-2-6V301c0-22 6-42 17-61l2-3c-7-6-14-11-19-17-18-18-29-40-35-64l-4-8L4 73l-3-4v-6h5l4 4 43 42 25-25-34-33L3 9C0 6-1 3 2 0h4l80 80 31 32 6 3c24 6 45 16 63 33h1c8-7 16-14 25-19 47-27 107 6 110 61 0 7 3 12 9 17 27 23 44 54 45 90v207l-2 8h-4zM181 258v90c0 37 30 66 67 66 36 0 66-29 66-66V195c0-35-24-62-58-66-26-4-46 6-62 26l2 3c11 12 20 25 26 40 5 11 10 22 18 30 3 3 2 6 0 8l-17 17c-3 3-6 3-10 1-16-11-31-22-43-37-3-2-7-5-3-9s7 1 9 4c12 13 26 25 41 34l14-14-17-32c-17-38-45-63-85-75-8-2-8-2-13 5l5 3 35 21 3 2c1 1 2 4 1 5l-5 1-5-2-40-24-6 5 4 5 12 17v6l-7-1-2-3-13-18c-3 4-7 5-5 10 10 36 29 65 65 80 16 7 31 15 45 26 2 2 5 4 2 7-2 3-5 2-7 0l-17-12zM88 144l24-24-27-28-25 24 1 2 27 26z"/><path d="M224 335c-16 0-28-16-21-31 5-10 12-19 18-28 2-2 5-2 7 0 6 10 13 18 18 28 6 15-5 31-22 31zm1-49h-2l-12 20c-3 7-1 14 4 18 6 4 13 4 18 0 6-5 8-12 5-18l-13-20z"/>
	</symbol>

	<symbol viewBox="0 0 513 530" xmlns="http://www.w3.org/2000/svg" shape-rendering="geometricPrecision" fill-rule="evenodd" clip-rule="evenodd" id="scissors">
		<path fill-rule="nonzero" d="M198 529c-2-3-2-5 0-8 9-12 8-24-3-35a53 53 0 01-14-59c8-23 33-38 57-35 2 1 4 0 5-2l57-106v-2l-3 2-103 55c-3 2-4 3-3 7a54 54 0 01-107 14c-4-27 11-52 37-60 19-5 36-2 51 11 3 2 4 2 7 1l122-68 6-5L423 79l9-8c5-1 9 0 12 4s3 8 1 12l-3 6-57 105 5-3 101-55c9-5 15-4 19 2s2 12-6 18L346 273c-3 2-5 6-7 9l-67 121c-2 3-2 5 1 8 13 16 16 40 7 58-11 21-28 32-52 30l-16-2c3 12-1 23-10 32h-4zm-12-83a46 46 0 1077-32c-3-4-3-7-1-11l13-23L436 87v-7c-3-2-4 1-6 4L308 251c-6 8-6 17 0 25 3 3 3 7 0 11l-58 109c-3 5-6 6-11 5-28-5-53 17-53 45zm109-189l-4 3-112 61c-4 2-6 2-10-1a45 45 0 00-76 20c-6 22 7 47 28 54a46 46 0 0061-50c-1-3-2-7 3-9l107-58 4-3-1-17zm57 2l2-2 146-105c2-1 2-4 3-6h-6a30058 30058 0 00-121 68l-24 45z"/><path d="M252 0c4 3 3 6 0 9l-39 38v1l10 9 21-21 18-18c2-2 4-4 7-1s1 5-1 8l-35 34-5 5 11 9 3-3 36-35c2-3 4-5 7-2s1 5-1 8l-39 39 10 9 3-3 34-34 2-2c2-2 4-4 7-1s1 5-1 7l-36 35-5 4 11 10 4-4 35-35c2-2 5-4 8-1 3 2 0 5-2 7l-35 35-5 3 11 10 4-3 34-34 3-2 6-1-1 6c-1 3-4 4-6 6l-34 34 11 11 13-14 25-25c2-2 4-5 7-2s1 5-1 8l-35 35-4 3 10 10 21-21 18-18c2-2 5-4 7-1 3 2 2 5-1 7l-61 61a81 81 0 01-94 12c-3-2-5-1-7 1L19 360l-4 4c-4 2-9 2-12-2-4-3-4-8-1-12l3-3 167-182c2-2 3-4 2-7a81 81 0 0113-96l62-62h3zm-45 54l-14 13a74 74 0 00-10 90c2 4 2 7-2 10L86 272l-74 80-3 4 1 1 3-3 184-168c6-6 6-6 14-2 20 11 42 12 63 3 8-3 15-8 23-12l-77-76-3-4v-6h5l3 3 73 72 3 4 10-9L207 54zM231 480c-18 0-34-16-34-34 0-19 16-34 34-34 19 0 34 16 34 34s-15 34-34 34zm0-60c-14 0-25 12-26 26 0 14 12 25 26 25s26-11 26-25-12-26-26-26zM137 386a34 34 0 010-68c19 0 34 16 34 34 0 19-15 34-34 34zm0-9c14 0 25-11 25-25a26 26 0 10-51 0c0 13 12 25 26 25z"/>
	</symbol>

	<symbol viewBox="0 0 502 512" xmlns="http://www.w3.org/2000/svg" shape-rendering="geometricPrecision" fill-rule="evenodd" clip-rule="evenodd" id="legs">
		<path fill-rule="nonzero" d="M170 0c9 2 18 4 26 10 13 10 20 23 22 39l5 84 8 112 1 18c0 5 2 9 6 14l75 82c28 30 60 54 92 78l40 30c11 8 22 10 35 3 8-4 15-2 19 5s3 14-5 19c-9 6-18 12-28 15-16 6-31 2-45-6-12-8-25-11-39-9l-32 4c-15 2-27-6-29-19-1-5 1-10 2-14 2-9 1-13-6-19l-46-36-3-2 5 30c3 8 10 12 18 15 7 2 11 7 11 13 0 8-7 14-16 12l-21-4c-9-2-15-7-21-14l-24-30c-7-8-16-14-26-18l-21-8c-13-6-19-22-12-34l9-13 5-7c4-7 4-9-2-15l-63-73c-14-16-32-26-52-32L7 215l-2-1c-2 0-5-2-3-5 1-2 4-3 6-2l54 15c21 7 39 18 54 35a124700 124700 0 0056 62l-4-10-39-101c-5-15-8-30-8-46 0-3-2-4-4-6l-62-35c-2-1-5-2-7-1l-37 11-3 2-6-3 3-5 15-5 128-42h3l5 2c-1 2-1 5-3 6l-16 5-4 4-4 56c-1 22 3 43 11 64l43 109c5 13 4 25-5 36l-9 12c-6 9-3 20 8 24 40 16 37 14 63 46l1 2c19 22 14 19 45 26 3 1 6 0 7-3 1-4-2-5-5-6-15-4-24-15-26-30-1-14-3-28-6-41l-5-16-19-45c-5-12-5-26-6-40L213 99l-5-55c-2-18-20-34-38-35l-46-1H6L0 6c-1-1 1-4 2-6h168zm64 284c0 18 1 34 9 49l7 15c6 16 14 30 16 46 0 2 2 3 3 4l51 40c12 9 14 20 10 31-5 12 4 23 16 21l33-4 15-1c12 0 22 5 33 11 14 9 29 10 44 3 7-3 12-8 18-12 3-2 5-4 3-8s-5-3-9-1l-16 5c-9 1-18-2-25-8-29-22-58-43-86-66-31-23-56-52-82-80l-40-45zM124 95l-62 20 58 33 4-53z"/><path d="M394 238l73-1c5 0 8 2 9 8 10 32-1 69-28 90-2 2-5 3-8 3h-93c-2 0-5-1-7-3a86 86 0 01-29-91c2-5 4-7 9-7l74 1zm-77 28l-1 1c0 25 10 46 29 62l4 1a14419 14419 0 0095-2 74 74 0 0027-62h-27c-2 0-4-3-6-4l6-4h27l-3-12H320l-3 12h95l3 4-3 4h-95zM211 216l1 9c0 4-1 6-5 6l-38 2c-4 1-6-2-6-5l-3-52-3-40c-1-6 0-7 6-8l36-2c5 0 7 1 7 6l4 67 2 17h-1zm-46-79l6 88 33-2-6-88-33 2zM373 111l49-49 5-5c2-2 4-4 7-1s1 5-1 7l-50 50-4 4 5 5v6h-5l-17-17v-5h6l5 5zM356 217c-11 0-19-11-15-20 3-7 7-13 12-19 1-2 4-2 6 1l11 17c4 10-4 21-14 21zm0-30l-6 12c-1 2 0 6 2 7h8c1-1 3-5 2-7l-6-12zM342 107l4 4 33 33c3 2 5 4 2 7s-5 1-7-1l-34-34-2-5 4-4zM328 121l4 3 34 34c2 2 4 4 1 7-2 2-5 1-7-1l-34-35-1-5 3-3zM422 191l-6 11c-5 5-5 6-2 12v6l-6-1c-6-5-6-15 0-21 5-6 5-6 2-13v-5h6l6 11zM325 144l4 3 14 14c2 2 3 4 1 7-3 2-5 1-7-1l-14-14c-1-2-2-4-1-6l3-3zM436 196c3 0 5 3 3 6-4 4-4 8 0 12 1 1 0 4-1 6h-5c-2-4-5-8-5-12-1-5 2-9 6-12h2z"/>
	</symbol>

	<symbol viewBox="0 0 512 504" xmlns="http://www.w3.org/2000/svg" shape-rendering="geometricPrecision" fill-rule="evenodd" clip-rule="evenodd" id="face">
		<path fill-rule="nonzero" d="M0 327c5-3 7-3 9 2 6 23 21 37 42 46l51 22c15 7 28 16 39 28 11 11 17 24 16 39l-2 5c-1 1-3 2-4 1l-3-4-1-14c-3-13-12-23-23-31-16-13-35-20-54-29-13-6-27-12-39-19-16-9-25-23-30-40l-1-2v-4z"/><path d="M474 148v84l-1 43c-2 35-16 63-41 87l-17 16-2 3c0 16 0 32 2 47 2 24 11 45 24 65 2 3 6 6 1 9s-6-2-8-5c-19-28-28-59-28-93v-16l-4 4-48 44c-9 8-20 11-31 11l-30-1c-9-1-16-6-23-13l-82-76c-25-25-37-56-37-92V141v-6a110 110 0 00-54 161c6 11 16 21 24 31l51 61c10 13 18 27 22 43 11 39-17 66-49 68-3 0-7 0-7-4 0-5 4-5 7-5 20-1 37-14 42-32 3-15 0-29-8-41-8-15-18-29-28-42l-50-58c-55-62-30-162 48-190 17-6 35-9 53-13 30-6 60-12 90-20 33-9 61-27 82-54 7-10 12-22 17-33l2-5 5-2c2 1 3 4 3 5l-3 9c-6 13-12 25-21 37l4 3 75 59c30 25 47 59 55 97 7 37 2 72-13 106l-2 3-5 3c-3-1-4-4-2-6l6-16c18-52 13-101-16-148l-3-4zm-316-16l-1 3v132c1 33 12 62 37 85 26 26 53 51 80 75 2 3 6 5 9 7 10 6 22 5 34 5 13 0 24-4 34-13l75-71c25-23 39-52 39-86V139l-2-5c-4-4-7-9-12-12l-53-43-29-22-3 3c-22 22-49 37-79 44l-98 21-31 7zM67 123c0-37 9-69 30-97l6-2c3 2 2 5 0 8a146 146 0 00-25 104v6c1 3 0 5-3 6-3 0-5-2-5-5l-3-20z"/><path d="M251 79c-2-2-4-3-4-5 0-1 2-4 4-4l15-4c14-5 28-12 39-22l2-1c3-2 6-3 7 0 1 1 0 5-1 6-12 10-25 18-40 23l-22 7zM86 148l3-12 7-20c1-2 3-2 5-3l3 5-9 30c-1 2-3 3-5 3l-4-3zM326 33c-4 1-6-2-5-5l10-14 5-1c1 1 2 3 1 4l-9 16h-2zM310 387c-19-1-34-10-45-26-2-3-2-5 0-8 6-10 15-17 26-22 5-2 10-2 15 0h10c6-2 11-2 17 1 10 4 19 11 25 21 2 3 2 5 0 8a56 56 0 01-48 26zm40-30c-4-7-10-12-16-16-6-3-11-3-17-1h-12c-4 0-7-2-10-1-10 3-17 10-22 18 7 12 23 21 39 21s29-7 38-21zM201 216c-6-5-12-5-19-2l-4 2-6-2 2-5c10-8 23-7 33 0 7 4 15 9 23 11 11 4 23 2 34-4 3-1 6-3 8 1 1 4-1 5-4 7-16 8-33 8-50 2-8-3-14-2-20 3-3 2-5 4-8 1-2-3 0-5 2-7l9-7zM422 216l10 8v6c-1 3-4 2-6 0-7-7-14-7-23-4-16 7-32 6-47-2-3-1-5-3-3-6 1-4 4-3 6-2 20 9 38 7 55-6 11-8 23-9 34-2 2 1 3 4 3 6-1 3-4 3-7 2-10-5-15-5-22 0zM407 141l37 6c2 1 5 2 4 5-1 4-4 4-7 3-13-1-26-4-39-4-9-1-19 2-28 4-7 2-13 7-16 14-2 3-4 5-7 3-4-2-2-5-1-7 8-13 20-19 33-21 7-2 14-2 24-3zM275 169l-4 4c-2 0-4-1-5-3l-7-8c-9-9-21-11-33-12a135 135 0 00-46 5c-2 1-5 1-5-3l4-5c18-5 37-7 57-4 12 2 23 6 31 15l8 11zM313 313c-9 0-16-2-21-7-1-2-2-5-1-7 1-3 4-2 7 0 10 8 17 8 28 0 2-2 5-3 6 0 1 2 0 5-1 6-6 6-13 8-18 8zM316 227v3c0 3-1 5-5 5-3 0-4-2-4-5v-6c0-3 1-5 4-5 4 0 5 2 5 5v3zM216 315c1 4-2 6-5 4l-10-5-1-5 4-2 12 6v2zM316 253v4l-5 4-4-4v-7l4-5c4-1 5 2 5 5v3zM442 300l4 4c0 2-2 4-4 5l-7 1-6-3 4-5 8-2h1zM247 271l-3-4c-1-2 1-4 3-5l8-2c2 0 5 2 5 3 0 2-1 4-3 5-3 2-6 2-10 3zM417 269l-4-3c0-2 1-4 3-5l9-3c1 0 4 1 4 3 1 1 0 4-1 4l-11 4zM227 272h-5c-1-1-3-3-3-5-1-1 2-3 3-3h8c3 0 6 1 5 4l-5 4h-3zM397 263h3l4 4c1 2-2 4-3 5h-8c-2 0-4-3-5-4l4-4h5v-1zM316 202v3l-4 5c-3 0-5-2-5-5v-7l5-5 4 5v4zM180 300l10 2 3 4c-1 2-3 4-5 4l-8-1c-2-1-4-3-4-5l4-4zM366 260l10 2 3 4-4 4-10-2-2-5 3-3zM440 257c-4 0-6-3-4-6l5-9c2-2 6-1 7 2 1 4-5 12-8 13zM233 352l1-5 3-2 4 3 1 10c0 2-2 4-4 4l-4-3-1-7zM381 354l1-5 4-4 4 4-1 10-4 3c-2 0-3-2-4-4v-4zM206 269l-11-4c-1-1-2-4-1-5l4-2c3 0 7 1 10 3l2 4-4 4zM422 312l-2 3-7 4-6-2c0-2 0-4 2-5l7-5c4-1 6 1 6 5zM224 320l7 7c2 3 6 6 2 9-4 4-6-1-9-4l-2-4 2-8zM403 327l-10 10-4-1v-5l5-7c1-1 4-2 5-1l4 4zM179 241l3 2 5 7-1 5h-5c-3-2-5-5-6-8s0-5 4-6zM343 250c5 0 13 6 12 8l-4 4c-4 0-11-6-11-8l3-4zM272 262l-4-3 1-4 8-5 4 2v4c-2 3-5 4-9 6z"/>
	</symbol>

	<symbol viewBox="0 0 478 377" xmlns="http://www.w3.org/2000/svg" shape-rendering="geometricPrecision" fill-rule="evenodd" clip-rule="evenodd" id="massage">
		<path fill-rule="nonzero" d="M58 376l12 1a507 507 0 00122-34l32-14 29-14c7-2 13-3 18-2a598 598 0 00141 11 1332 1332 0 00100-6v-3c-2-2-3-3-6-3h-2a1241 1241 0 01-153 2 762 762 0 01-84-9c-7 0-14 1-20 4l-43 20a537 537 0 01-134 40l-14-2c-10-2-13-8-13-13v-11l1-5c2-8 3-16 6-23l13-38 6-14c2-5-1-6-2-7h-2c-2 0-3 2-4 3l-3 7-3 8-4-3c-14-9-28-20-38-35-7-10-7-15 2-23l25-20 9-7 3-2h1l4-1 1 5v4l-2 6-2 12c-1 15-1 19 13 24 2 0 5 2 6 5l3 5 9 20c3 8 9 12 16 12 4 0 8-1 12-4l15-13-3 12a1118 1118 0 00-4 25h6l12-5 29-14c22-11 38-25 49-42l8-18v-3l-2-2c-2-1-4 0-5 3l-3 6-1 4c-2 4-5 6-10 6a619 619 0 00-32 5v3s0 3 5 3h1l9-1h4l11-1-8 8c-17 17-38 27-57 35l-7 4 2-8a2128 2128 0 007-27l5-8 7-9 13-15c7-9 5-18 0-31 0 0 0-2-2-2l-2 1c-2 0-3 2-3 4l1 3v2c3 8 4 17-5 25l-3 3-2 2-6 6a3314 3314 0 01-41 35c-4 0-7-2-8-7l-1-2v-1l-3-6-11-21-5-4h-1c-10-5-11-7-9-19l1-4 1-2c2-8 1-14-1-19l-15-44-1-2-1-5v-1l-2-6 7 1 7 2 15 2c14 1 28 0 42-1h14l21-1c13 0 31 1 48 8 2 1 4 0 5-2 0-1 1-4-4-6-12-5-24-8-38-8l-1 1-45 1a2924 2924 0 01-29 1c-11 0-19-1-27-4-9-3-14-9-14-18 0-6 1-12 3-16 4-7 8-14 14-20l15-21c11-20 31-24 48-25 3 0 6 2 8 4 8 10 19 17 32 20 13 4 29 8 42 16 11 7 14 15 12 28l-1 4-5-1-5-2c-4-1-7-3-11-3l-55-9-7-1a133 133 0 01-47-13l-4 2v3l3 3a738 738 0 0129 10l38 5 25 4c11 2 24 4 36 12 9 5 12 12 10 22-2 8-6 15-13 21-2 2-3 3-3 5l4 4 2 1 13 7 6 1a226 226 0 0020-3c5-1 4-4 4-5s0-3-4-3h-1l-6 1-10 1-7-1-4-1h-6l3-6 3-3 2-4c7-14 8-24 2-34-3-5-3-9-3-14 2-22-2-30-20-40l-4-2a2016 2016 0 01-35-12c-8-3-18-7-27-16l-4-4 6-2c11-4 21-6 33-5 14 2 24 9 29 22 1 5 3 5 4 5l1-1 2-1v-5c-4-14-14-23-28-27-10-2-20-2-30 0l-15 4-27 7c-22 3-37 14-46 34 0 2-2 3-3 5-17 17-27 32-27 53v3c0 11 0 22 4 32l7 21 4 9 1 3-3 2-7 5-16 12c-12 9-21 17-27 29v6c4 12 11 23 24 34l21 16c5 4 6 8 4 13-6 17-13 36-14 57-1 17 6 26 23 29z"/><path d="M512 6V2l-4-2-4 3-34 34-101 101c-4 4-6 8-6 13-1 12-6 22-15 29a192 192 0 00-17 16l-3 3-7-6 3-4a128 128 0 017-9l10-13c2-4 1-5 0-6-2-2-4-2-6 0l-2 2-2 1a1460 1460 0 00-39 30l-17 9-8 4-3 1-6-6 2-2 4-8 9-15c12-16 28-28 52-39l8-6 68-94 17-24c5-7 3-8 2-9l-2-1c-1 0-3 0-6 5a98691 98691 0 01-81 111c-4 6-8 11-16 14l-10 5-2 1c-22 14-38 30-47 49-2 5-4 11-4 16 0 3 0 6 2 8s5 3 9 2l15-4a457 457 0 0031-17l3-2 2 4c2 5 6 10 12 10 4 0 8-2 12-6l11-10 10-9c6-6 9-12 10-19l1-3v-1l1-3h26l35 1c3 0 6-1 6-4l-1-3-5-1-25-1h-20a47 47 0 01-5-1h-8l6-6 1-2 2-2a99148 99148 0 0154-54l53-54 22-22z"/><path d="M503 114l-63 58c-3 3-6 4-11 4l-17-2c-7 0-13 1-18 4-19 10-34 21-46 34-4 4-6 8-5 12 0 3 2 7 6 11 4 3 8 6 12 6h38c17 0 33-6 49-18a360 360 0 0158-35l5-4 1-1v-2l-4-3-5 2-10 6a6582 6582 0 00-46 28 85 85 0 01-47 19l-23 1h-7l-9-1c-5-1-8-4-9-8-1-3 1-7 5-10l37-28c5-3 11-5 17-5l9 1h2l7 1h4c5 0 9-2 14-6a2729 2729 0 0161-58l3-3 1-1v-3l-4-3-5 4z"/>
	</symbol>

	<symbol viewBox="0 0 313 513" xmlns="http://www.w3.org/2000/svg" shape-rendering="geometricPrecision" fill-rule="evenodd" clip-rule="evenodd" id="arrow-down">
		<path fill-rule="nonzero" d="M182 156v267l86-85c11-11 27-11 37 0 10 10 10 26 0 36L174 504c-5 5-12 8-18 8-7 0-13-3-18-8L8 374c-5-5-8-12-8-18s3-13 8-18c10-11 27-11 36 0l86 85V156c0-15 11-26 26-26s26 11 26 26zM130 26a26 26 0 1152 0 26 26 0 01-52 0z"/>
	</symbol>
</svg>